<svg xmlns="http://www.w3.org/2000/svg" viewBox="0 0 1095 611" xml:space="preserve"><path fill="#1D6EB7" d="M567.7 316c4.2-24 8.3-47.9 12.6-71.8l20.6-116.5c.6-3.2 1.8-4.9 4.7-6.2 71.1-31.5 142.1-63 213.2-94.7a3059 3059 0 0 0 56.1-25.5c.9-.3 1.6-.3 2.7-.3l38.6 16c57.6 23.7 115.3 47.2 173 70.8l4.6 2.3-9.6 7.7L914.7 230c-26.7 20.8-53.3 41.7-80 62.3a18 18 0 0 1-9.1 3.5l-194.8 16c-10 .8-20.2 1.6-31 2.8-5.4.4-10.2.3-15 .5-1.3 0-2.5 1.2-4.2 1.8l-13-1z"/><path fill="#1D6FB7" d="m455 310.9-8.7-1H444c-3-.2-6.1-.5-9.8-1-1.5-.1-2.3 0-3.2 0l-9.8-1c-1.9-.2-3-.1-4.2 0a59 59 0 0 1-5.4-.7c-3-.3-5.3-.4-7.6-.4l-5.9-.8a41 41 0 0 0-5.1-.1c-1.8-.2-3.5-.4-6-.9l-8-.3c-1.5-.2-2.9-.3-5-.7-3.1-.3-5.7-.4-8.2-.4-1.3-.1-2.7-.3-4.7-.7l-7.3-.3-4.7-.6c-3.2-.3-5.8-.4-8.3-.5-1 0-2-.2-3.7-.5-3.6-.4-6.4-.5-9.3-.6-1 0-2-.2-3.7-.5l-6.3-.3-7.7-.8c-2.2-.2-3.8-.2-5.3-.2l-6.7-.7c-2.3-.2-3.8-.2-5.3-.2l-7.6-.8c-1.5-.2-2.3-.1-3.2 0l-8.8-1c-1.5-.1-2.4 0-3.2 0-2.6-1.1-5.5-1.7-7.6-3.4L7.4 93.7l-4.6-3.9L14.3 85 215.5 2.8c.8-.3 1.5-.7 2.4-1.5a7 7 0 0 1 2.7-.3l35.8 16.1c66.3 29.6 132.6 59 199 88.5 11.8 5.3 23.7 10.7 35.6 15.8 3 1.3 4.3 2.9 5 6.1 10.5 59.8 21.1 119.7 31.8 179.5.5 2.7.8 5.4.8 8.6a93 93 0 0 1-13.7 1c-3.8-.8-7.5-1.3-11.5-2a373.4 373.4 0 0 0-21.1-1.7H480l-9.7-1H468l-9.8-1c-1.5-.1-2.4 0-3.2 0z"/><path fill="#1994D2" d="m515 317 13.7-1c4 20 7.7 40 11.3 59.9 1.6 8.7 3.4 17.3 4.6 26 .4 3 0 6.5-1.3 9.1-31.8 64.7-63.8 129.4-95.7 194l-3 5.5c-42.8-78.2-85-155.5-127-233.3 26.2-8.2 52-16 78-23.9l60-18L515 317zm52.5-.7c4.3 0 8.5.3 13.4.8 18.1 5.4 35.4 10.4 52.7 15.7l120.5 36.7c8.6 2.5 17.3 4.4 26 6.6-8 15-16 30-24.2 44.8l-75 137.2-25.8 47.3-2.9 4.7c-1.2-2-2.2-3.4-3-5-31.9-64.6-63.8-129.2-95.5-194a19.2 19.2 0 0 1-1.1-10.9 5503 5503 0 0 1 14.9-83.9z"/><path fill="#175F9F" d="M780.3 375.9c-8.9-2-17.6-3.9-26.2-6.4l-120.5-36.7c-17.3-5.3-34.6-10.3-52.2-15.7.9-.8 2.1-2 3.4-2 4.8-.2 9.6 0 14.8-.1 6.2.7 11.9 1.6 17.6 2 44.3 3.7 88.5 7.3 132.8 10.8 15.2 1.3 30.5 2.4 45.7 3.6l8.7.9-24 43.6z"/><path fill="#165E9F" d="M515 316.6c-19.8 6.5-39.6 12.6-59.4 18.6l-60 18.1-78 23.6c-8.5-14.6-16.7-29.2-25.4-44.7a16384.4 16384.4 0 0 1 87.8-7.3l6.8-.3 6.2-.7 5.8-.2c2.6-.2 4.4-.5 6.2-.8l7.8-.3c2.2-.2 3.7-.5 5.2-.8l5.8-.1 7.2-.9 5.8-.1 7.2-.9 5.8-.2c2.2-.2 3.7-.5 5.2-.8l5.8-.2c3-.2 5-.5 7.2-.8 2-.2 4.1-.3 6.9-.3l6-.6 8-.5c5.4-.4 10-1 14.8-1.5 3.7.4 7.4.9 11.2 1.7z"/></svg>