<?xml version="1.0" encoding="utf-8"?>
<!-- Generator: Adobe Illustrator 24.0.0, SVG Export Plug-In . SVG Version: 6.00 Build 0)  -->
<svg version="1.1" id="Layer_1" xmlns="http://www.w3.org/2000/svg" xmlns:xlink="http://www.w3.org/1999/xlink" x="0px" y="0px"
	 viewBox="0 0 20 20" style="enable-background:new 0 0 20 20;" xml:space="preserve">
<style type="text/css">
	.st0{fill:#C52228;}
</style>
<path class="st0" d="M2.2,12.8C3.8,9.8,6,7.6,8.8,6.3c0.4-0.2,1.2-0.5,2-0.7V1.7l7.9,7l-7.9,7v-3.9c-1.8,0.3-3.4,1.1-5,2.1
	c-3,2-4.4,4.3-4.4,4.3S1.1,15,2.2,12.8L2.2,12.8z M5.1,13.3c1.6-1.1,3.7-2.1,6.7-2.6v2.7l5.4-4.6L11.8,4v2.6
	c-0.3,0.1-1.1,0.2-2.3,0.7c-2.9,1.2-5.1,3.5-6.2,5.6c-0.3,0.6-0.8,1.8-1,2.9C3,14.8,4.2,13.9,5.1,13.3L5.1,13.3z"/>
</svg>
