<?xml version="1.0" encoding="utf-8"?>
<!-- Generator: Adobe Illustrator 24.0.0, SVG Export Plug-In . SVG Version: 6.00 Build 0)  -->
<svg version="1.1" id="Layer_1" xmlns="http://www.w3.org/2000/svg" xmlns:xlink="http://www.w3.org/1999/xlink" x="0px" y="0px"
	 viewBox="0 0 20 20" style="enable-background:new 0 0 20 20;" xml:space="preserve">
<style type="text/css">
	.st0{fill:#C52228;}
</style>
<path class="st0" d="M16.6,3c0-1.3-1.1-2.4-2.4-2.4S11.8,1.7,11.8,3c0,1,0.6,1.8,1.4,2.2v1.6c0,0.8-0.8,1.5-1.6,2.4
	c-0.5,0.5-1.1,1-1.5,1.6C9.6,10.1,9,9.6,8.5,9.1C7.6,8.3,6.8,7.6,6.8,6.8V5.2C7.6,4.8,8.2,4,8.2,3c0-1.3-1.1-2.4-2.4-2.4
	S3.4,1.7,3.4,3c0,1,0.6,1.8,1.4,2.2v1.6c0,1.7,1.2,2.8,2.3,3.8c1,0.9,1.9,1.8,1.9,2.9c0,0.3,0,0.6,0,0.9l0,0.3l0,0c0,0,0,0.1,0,0.1
	C8.2,15.2,7.7,16,7.7,17c0,1.3,1.1,2.4,2.4,2.4s2.4-1.1,2.4-2.4c0-1-0.6-1.8-1.4-2.2v-1.3c0-1.2,0.9-2,1.9-2.9
	c1.1-1,2.3-2.1,2.3-3.8V5.2C16,4.8,16.6,4,16.6,3z M5.8,1.8C6.5,1.8,7,2.3,7,3S6.5,4.2,5.8,4.2S4.6,3.7,4.6,3S5.1,1.8,5.8,1.8z
	 M10,18.2c-0.7,0-1.2-0.5-1.2-1.2s0.5-1.2,1.2-1.2s1.2,0.5,1.2,1.2S10.7,18.2,10,18.2z M14.2,4.2C13.5,4.2,13,3.7,13,3
	s0.5-1.2,1.2-1.2s1.2,0.5,1.2,1.2S14.9,4.2,14.2,4.2z"/>
</svg>
