<?xml version="1.0" encoding="utf-8"?>
<!-- Generator: Adobe Illustrator 24.0.0, SVG Export Plug-In . SVG Version: 6.00 Build 0)  -->
<svg version="1.1" id="Layer_1" xmlns="http://www.w3.org/2000/svg" xmlns:xlink="http://www.w3.org/1999/xlink" x="0px" y="0px"
	 viewBox="0 0 20 20" style="enable-background:new 0 0 20 20;" xml:space="preserve">
<style type="text/css">
	.st0{fill:#C52228;}
</style>
<g>
	<path class="st0" d="M12.1,11.2c0,0-3.5,4-2.3,0.1c0.2-0.8,0.7-1.7,0.7-2.5c0-1-1.3-0.6-1.9-0.4c1.2,1.1-2.6,5.8,0.4,5.8
		c1.2,0,2.9-1.3,3-2.6c0,0.1,0,0.2,0,0c0-0.1,0-0.1,0,0C12.2,11.3,12.2,11.2,12.1,11.2z"/>
	<path class="st0" d="M11.6,5.7C11.6,4.5,9.4,5,9.4,6C9.4,7.1,11.6,6.7,11.6,5.7z"/>
	<path class="st0" d="M10,0.5c-5.3,0-9.5,4.3-9.5,9.5s4.3,9.5,9.5,9.5s9.5-4.3,9.5-9.5S15.3,0.5,10,0.5z M10,18.5
		c-4.7,0-8.5-3.8-8.5-8.5S5.3,1.5,10,1.5s8.5,3.8,8.5,8.5S14.7,18.5,10,18.5z"/>
</g>
</svg>
