<?xml version="1.0" encoding="utf-8"?>
<!-- Generator: Adobe Illustrator 24.0.0, SVG Export Plug-In . SVG Version: 6.00 Build 0)  -->
<svg version="1.1" id="Layer_1" xmlns="http://www.w3.org/2000/svg" xmlns:xlink="http://www.w3.org/1999/xlink" x="0px" y="0px"
	 viewBox="0 0 20 20" style="enable-background:new 0 0 20 20;" xml:space="preserve">
<style type="text/css">
	.st0{fill:#C52228;}
</style>
<path class="st0" d="M10,0.5c-5.2,0-9.5,4.3-9.5,9.5s4.3,9.5,9.5,9.5s9.5-4.3,9.5-9.5S15.2,0.5,10,0.5L10,0.5z M10,1.5
	c1.5,0,2.9,0.4,4.1,1.1l-2.3,2.3c-0.6-0.2-1.2-0.3-1.9-0.3C9.2,4.5,8.5,4.7,7.8,5L5.6,2.8C6.9,2,8.4,1.5,10,1.5L10,1.5z M5,7.8
	C4.7,8.5,4.5,9.2,4.5,10c0,0.6,0.1,1.3,0.3,1.9l-2.3,2.3c-0.7-1.2-1.1-2.6-1.1-4.1c0-1.6,0.5-3.1,1.3-4.4L5,7.8L5,7.8L5,7.8z
	 M10,18.5c-1.8,0-3.4-0.5-4.7-1.4l2.2-2.2c0.8,0.4,1.6,0.6,2.5,0.6c0.8,0,1.5-0.2,2.2-0.5l2.2,2.2C13.1,18,11.6,18.5,10,18.5
	L10,18.5z M10,14.5c-2.5,0-4.5-2-4.5-4.5s2-4.5,4.5-4.5s4.5,2,4.5,4.5S12.5,14.5,10,14.5L10,14.5z M15,12.2c0.3-0.7,0.5-1.4,0.5-2.2
	c0-0.9-0.2-1.8-0.6-2.5l2.2-2.2c0.9,1.3,1.4,3,1.4,4.7c0,1.6-0.5,3.1-1.3,4.4L15,12.2L15,12.2z"/>
</svg>
