<?xml version="1.0" encoding="utf-8"?>
<!-- Generator: Adobe Illustrator 24.0.0, SVG Export Plug-In . SVG Version: 6.00 Build 0)  -->
<svg version="1.1" id="Layer_1" xmlns="http://www.w3.org/2000/svg" xmlns:xlink="http://www.w3.org/1999/xlink" x="0px" y="0px"
	 viewBox="0 0 20 20" style="enable-background:new 0 0 20 20;" xml:space="preserve">
<style type="text/css">
	.st0{fill:#C52228;}
</style>
<g>
	<path class="st0" d="M7.2,15.2c-0.5,0.5-1,0.5-1.5,0l-0.7-0.7c-0.5-0.5-0.5-1,0-1.5L8,9.9L7.3,9.1l-3.1,3.1c-0.9,0.9-0.9,2.2,0,3.1
		L4.9,16c0.4,0.4,1,0.7,1.5,0.7c0.6,0,1.1-0.2,1.5-0.7l3.1-3.1l-0.8-0.8L7.2,15.2z"/>
	<path class="st0" d="M15.8,4.7L15.1,4c-0.9-0.9-2.2-0.9-3.1,0L9,7.1l0.8,0.8l3.1-3.1c0.5-0.5,1-0.5,1.5,0l0.7,0.7
		c0.5,0.5,0.5,1,0,1.5L12,10.1l0.8,0.8l3.1-3.1C16.8,6.9,16.8,5.6,15.8,4.7z"/>
	<rect x="7.2" y="9.5" transform="matrix(0.7159 -0.6982 0.6982 0.7159 -4.1858 9.7993)" class="st0" width="5.6" height="1.1"/>
</g>
</svg>
