<?xml version="1.0" encoding="utf-8"?>
<!-- Generator: Adobe Illustrator 24.0.0, SVG Export Plug-In . SVG Version: 6.00 Build 0)  -->
<svg version="1.1" id="Layer_1" xmlns="http://www.w3.org/2000/svg" xmlns:xlink="http://www.w3.org/1999/xlink" x="0px" y="0px"
	 viewBox="0 0 20 20" style="enable-background:new 0 0 20 20;" xml:space="preserve">
<style type="text/css">
	.st0{fill:#C52228;}
</style>
<g>
	<path class="st0" d="M10.2,0.8L8,3L6.8,1.8L6,2.6l1.2,1.2L0,11.1l8.1,8.1L18.3,8.9L10.2,0.8z M1.7,10.8L8,4.5l3.3,3.3l0.8-0.8
		L8.8,3.7l1.5-1.5l6.7,6.7L15,10.8H1.7z"/>
	<path class="st0" d="M18.5,11.8c0,0-1.5,2.1-1.5,3.4c0,0.9,0.7,1.6,1.5,1.6s1.5-0.7,1.5-1.6C20,13.9,18.5,11.8,18.5,11.8z"/>
</g>
</svg>
