<?xml version="1.0" encoding="utf-8"?>
<!-- Generator: Adobe Illustrator 24.0.0, SVG Export Plug-In . SVG Version: 6.00 Build 0)  -->
<svg version="1.1" id="Layer_1" xmlns="http://www.w3.org/2000/svg" xmlns:xlink="http://www.w3.org/1999/xlink" x="0px" y="0px"
	 viewBox="0 0 20 20" style="enable-background:new 0 0 20 20;" xml:space="preserve">
<style type="text/css">
	.st0{fill:#C52228;}
</style>
<g>
	<path class="st0" d="M17,4.5H3c-1.1,0-2,0.9-2,2v7c0,1.1,0.9,2,2,2h14c1.1,0,2-0.9,2-2v-7C19,5.4,18.1,4.5,17,4.5z M18,13.5
		c0,0.5-0.5,1-1,1H3c-0.5,0-1-0.5-1-1v-7c0-0.5,0.5-1,1-1h14c0.5,0,1,0.5,1,1V13.5z"/>
	<circle class="st0" cx="3.8" cy="10" r="0.8"/>
</g>
</svg>
