<?xml version="1.0" encoding="utf-8"?>
<!-- Generator: Adobe Illustrator 24.0.0, SVG Export Plug-In . SVG Version: 6.00 Build 0)  -->
<svg version="1.1" id="Layer_1" xmlns="http://www.w3.org/2000/svg" xmlns:xlink="http://www.w3.org/1999/xlink" x="0px" y="0px"
	 viewBox="0 0 20 20" style="enable-background:new 0 0 20 20;" xml:space="preserve">
<style type="text/css">
	.st0{fill:#C52228;}
</style>
<g>
	<path class="st0" d="M17.4,6.4C17,5,15.8,4,14.2,4C12.4,4,11,5.5,11,7.3s1.5,3.3,3.3,3.3c0.2,0,0.4,0,0.6-0.1
		c-0.1,0.4-0.2,0.8-0.5,1.3c-0.9,1.7-1.7,2.4-2.9,3.3l0.5,0.9c1.4-0.7,3.4-2.3,4.4-4c1-1.6,1.3-2.6,1.3-4.2
		C17.6,7.3,17.6,6.8,17.4,6.4z"/>
	<path class="st0" d="M5.7,4C3.8,4,2.4,5.5,2.4,7.3s1.5,3.3,3.3,3.3c0.2,0,0.4,0,0.6-0.1c-0.1,0.4-0.2,0.8-0.5,1.3
		c-0.9,1.7-1.7,2.4-2.9,3.3L3.3,16c1.4-0.7,3.4-2.3,4.4-4C8.7,10.4,9,9.5,9,7.8c0-0.5-0.1-1-0.2-1.4C8.4,5,7.2,4,5.7,4z"/>
</g>
</svg>
