<?xml version="1.0" encoding="utf-8"?>
<!-- Generator: Adobe Illustrator 24.0.0, SVG Export Plug-In . SVG Version: 6.00 Build 0)  -->
<svg version="1.1" id="Layer_1" xmlns="http://www.w3.org/2000/svg" xmlns:xlink="http://www.w3.org/1999/xlink" x="0px" y="0px"
	 viewBox="0 0 20 20" style="enable-background:new 0 0 20 20;" xml:space="preserve">
<style type="text/css">
	.st0{fill:#C52228;}
</style>
<path class="st0" d="M13.9,18.9L13.9,18.9c-2.8,0-5.7-2.4-8.1-4.8l0,0C3.6,11.9,1.1,9,1.2,6.1c0-2.8,2.1-4.6,2.2-4.7l0.4-0.3
	l4.1,4.1l-1.1,3l4.9,4.9l3-1.1l4.2,4.2l-0.3,0.4C18.5,16.8,16.7,18.9,13.9,18.9z M6.5,13.4c1.4,1.3,4.6,4.5,7.3,4.5l0,0
	c1.7,0,3-1,3.6-1.5l-3.1-3.1l-3,1.1L5.6,8.5l1.1-2.9l-3-3C3.2,3.2,2.2,4.5,2.2,6.2C2.2,8.6,4.5,11.3,6.5,13.4z"/>
</svg>
