<?xml version="1.0" encoding="utf-8"?>
<!-- Generator: Adobe Illustrator 24.0.0, SVG Export Plug-In . SVG Version: 6.00 Build 0)  -->
<svg version="1.1" id="Layer_1" xmlns="http://www.w3.org/2000/svg" xmlns:xlink="http://www.w3.org/1999/xlink" x="0px" y="0px"
	 viewBox="0 0 20 20" style="enable-background:new 0 0 20 20;" xml:space="preserve">
<style type="text/css">
	.st0{fill:#C52228;}
</style>
<g>
	<polygon class="st0" points="17,10.7 17.2,10.7 17.6,10.7 	"/>
	<path class="st0" d="M17.6,10.7l-0.4,0l-0.7,0.1c0,0.1,0,0.3,0,0.4c0,3.6-2.9,6.5-6.5,6.5c-3.6,0-6.5-2.9-6.5-6.5
		c0-3.6,2.9-6.5,6.5-6.5c0.5,0,1.1,0.1,1.6,0.2L9.4,7.1l0.7,0.7l3.4-3.4l-3.2-3.2L9.5,1.9l1.8,1.8c-0.4-0.1-0.8-0.1-1.3-0.1
		c-4.2,0-7.6,3.4-7.6,7.6c0,4.2,3.4,7.6,7.6,7.6c4.2,0,7.6-3.4,7.6-7.6C17.6,11,17.6,10.9,17.6,10.7z"/>
</g>
</svg>
