<?xml version="1.0" encoding="utf-8"?>
<!-- Generator: Adobe Illustrator 24.0.0, SVG Export Plug-In . SVG Version: 6.00 Build 0)  -->
<svg version="1.1" id="Layer_1" xmlns="http://www.w3.org/2000/svg" xmlns:xlink="http://www.w3.org/1999/xlink" x="0px" y="0px"
	 viewBox="0 0 20 20" style="enable-background:new 0 0 20 20;" xml:space="preserve">
<style type="text/css">
	.st0{fill:#C52228;}
</style>
<path class="st0" d="M15.5,12.3c-1,0-1.9,0.5-2.4,1.3l-5.9-2.7c0.1-0.2,0.1-0.5,0.1-0.7c0-0.3,0-0.5-0.1-0.7l5.9-2.8
	c0.5,0.7,1.4,1.2,2.3,1.2c1.6,0,2.9-1.3,2.9-2.8c0-1.6-1.3-2.9-2.9-2.9c-1.6,0-2.8,1.3-2.8,2.9c0,0.2,0,0.4,0.1,0.7l-6,2.8
	C6.2,7.7,5.4,7.3,4.5,7.3c-1.6,0-2.8,1.3-2.8,2.8c0,1.6,1.3,2.9,2.8,2.9c0.9,0,1.7-0.4,2.3-1.1l5.9,2.8c0,0.2-0.1,0.3-0.1,0.5
	c0,1.6,1.3,2.9,2.8,2.9c1.6,0,2.9-1.3,2.9-2.9C18.3,13.5,17.1,12.3,15.5,12.3z M15.5,3.1c1,0,1.8,0.8,1.8,1.8c0,1-0.8,1.8-1.8,1.8
	c-1,0-1.8-0.8-1.8-1.8C13.7,3.9,14.5,3.1,15.5,3.1z M4.5,11.9c-1,0-1.8-0.8-1.8-1.8c0-1,0.8-1.8,1.8-1.8c1,0,1.8,0.8,1.8,1.8
	C6.3,11.1,5.5,11.9,4.5,11.9z M15.5,16.9c-1,0-1.8-0.8-1.8-1.8c0-1,0.8-1.8,1.8-1.8c1,0,1.8,0.8,1.8,1.8
	C17.3,16.1,16.5,16.9,15.5,16.9z"/>
</svg>
