<svg id="Layer_1" data-name="Layer 1" xmlns="http://www.w3.org/2000/svg" viewBox="0 0 64 64"><title>_</title><path d="M32.05,53.63a21.41,21.41,0,0,1-14.82-6l3-3a.5.5,0,0,0,0-.71.5.5,0,0,0-.7,0l-3,3a21.41,21.41,0,0,1-5.94-14.33h4.27a.5.5,0,0,0,.5-.5.5.5,0,0,0-.5-.5H10.58a21.39,21.39,0,0,1,5.94-14.32l3,3a.48.48,0,0,0,.7,0,.48.48,0,0,0,0-.7l-3-3a21.39,21.39,0,0,1,14.32-5.94v4.27a.5.5,0,0,0,.5.5.5.5,0,0,0,.5-.5V10.66A21.41,21.41,0,0,1,46.88,16.6l-3,3a.5.5,0,0,0,.35.85.51.51,0,0,0,.36-.15l3-3a21.4,21.4,0,0,1,6,14.82.5.5,0,0,0,.5.5.5.5,0,0,0,.5-.5A22.39,22.39,0,0,0,48,16.27s0,0,0-.05l-.05,0a22.44,22.44,0,0,0-31.71,0l-.06,0,0,.06a22.44,22.44,0,0,0,0,31.71l0,0,.06,0a22.4,22.4,0,0,0,15.85,6.55.5.5,0,0,0,.5-.5A.5.5,0,0,0,32.05,53.63Z" style="fill:#c52228"/><path d="M32.61,31.07V22.78a.51.51,0,0,0-.5-.5.5.5,0,0,0-.5.5V31a1.21,1.21,0,0,0-.77,1.12,1.23,1.23,0,0,0,.11.51l-8.34,8.42a.5.5,0,0,0,0,.7.51.51,0,0,0,.36.15.5.5,0,0,0,.35-.15l8.4-8.48a.93.93,0,0,0,.33.07,1.22,1.22,0,0,0,1.22-1.22A1.19,1.19,0,0,0,32.61,31.07Z" style="fill:#c52228"/><path d="M46.25,39.88a.48.48,0,0,0-.7,0l-4.89,4.89a.5.5,0,0,0,0,.71.5.5,0,0,0,.7,0l4-4V51.73a.5.5,0,0,0,1,0V41.44l4,4a.52.52,0,0,0,.35.14.54.54,0,0,0,.36-.14.51.51,0,0,0,0-.71Z" style="fill:#c52228"/><path d="M45.9,35.33A10.65,10.65,0,1,0,56.55,46,10.67,10.67,0,0,0,45.9,35.33Zm0,20.3A9.65,9.65,0,1,1,55.55,46,9.66,9.66,0,0,1,45.9,55.63Z" style="fill:#c52228"/></svg>