<svg id="Layer_1" data-name="Layer 1" xmlns="http://www.w3.org/2000/svg" viewBox="0 0 64 64"><title>-</title><path d="M39.53,32.43a1,1,0,1,0-1.42,0A1,1,0,0,0,39.53,32.43Z" style="fill:#c52228"/><path d="M39.53,24.43a1,1,0,1,0-1.42,0A1,1,0,0,0,39.53,24.43Z" style="fill:#c52228"/><path d="M36.75,35.81c-.72.18-1.5.35-2.32.49-.56.1-1.13.19-1.72.27l-.24,0a60.32,60.32,0,0,1-14.4,0l-.29,0-1.54-.25a28.5,28.5,0,0,1-4-1l-.09,0-.7-.26-.25-.1c-.18-.07-.33-.15-.49-.22a4.7,4.7,0,0,1-1.89-1.39.41.41,0,0,1-.05-.09A.91.91,0,0,1,8.65,33a.87.87,0,0,1-.07-.31V26.59l.09.06a4,4,0,0,0,.39.29l.15.11.07.05.62.35.13.07.14.06.56.26L11,28l.77.28.1,0,.27.09.52.16.22.07.29.08h0l.51.14.14,0,.7.17.22,0,.74.16,1.43.22.43.07,1.1.14,1,.11c.32,0,.63.07.95.09.64,0,1.29.09,1.93.12l.69,0c.74,0,1.47.05,2.2.05s1.47,0,2.21-.05l.68,0c.65,0,1.3-.07,1.94-.12.31,0,.61-.06.92-.09l1.06-.11,1.07-.14.67-.1,1.2-.19.75-.16.2,0,.75-.18.09,0,.52-.13,0,0,.3-.08.18-.05.54-.17.28-.09.08,0c.27-.09.53-.18.78-.28l.32-.13.55-.26.14-.06.13-.07c.22-.11.43-.23.62-.35l.07-.05.16-.11a3.8,3.8,0,0,0,.38-.29l.09-.06v5.13h0a.5.5,0,0,0,.5.5.5.5,0,0,0,.5-.5h0v-15c0-3.46-9.13-5.32-17.72-5.32S7.58,13.26,7.58,16.72v24c0,3.46,9.13,5.33,17.71,5.33A51.6,51.6,0,0,0,36,45a.5.5,0,0,0,.38-.6.5.5,0,0,0-.59-.38,50.26,50.26,0,0,1-10.49,1c-9.84,0-16.71-2.29-16.71-4.33V34.59l.09.06a4,4,0,0,0,.39.29l.15.11.07.05.62.35.13.07.14.06.56.26L11,36l.77.28.1,0,.27.09.52.16.22.07.29.08h0l.51.14.14,0,.7.17.22,0,.74.16,1.43.22.43.07,1.1.14,1,.11c.32,0,.63.07.95.09.64,0,1.29.09,1.93.12l.69,0c.74,0,1.47,0,2.2,0s1.54,0,2.3,0l.49,0c.73,0,1.45-.08,2.15-.14l.43,0c.59,0,1.17-.11,1.73-.18l.54-.07q.87-.12,1.68-.27l.42-.06.07,0c.66-.13,1.3-.26,1.9-.41a.5.5,0,0,0,.36-.61A.49.49,0,0,0,36.75,35.81ZM9.19,19l.09.06a6.85,6.85,0,0,0,.71.39l.18.09.65.29L11,20l.82.3.2.06.69.22.22.07.83.22.14,0,.7.17.22,0,.74.16a54.66,54.66,0,0,0,9.74.83A54.7,54.7,0,0,0,35,21.22l.75-.16.2,0,.75-.18.09,0,.86-.23.18-.05.74-.23.16-.06c.29-.09.57-.2.84-.31l.16-.06c.22-.1.44-.19.65-.3l.19-.09a7.87,7.87,0,0,0,.7-.39l.1-.07c.18-.12.35-.25.51-.38l.09-.06v6.13A1.13,1.13,0,0,1,42,25a.91.91,0,0,1-.11.22.41.41,0,0,1-.05.09,3.94,3.94,0,0,1-1.37,1.12h0L40,26.7,39.4,27l-.24.09-.71.27-.08,0a28.51,28.51,0,0,1-4,1c-.52.09-1.05.18-1.6.25l-.24,0a59.37,59.37,0,0,1-14.47,0l-.29,0-1.54-.25a28.5,28.5,0,0,1-4-1l-.09,0-.7-.26-.25-.1c-.18-.07-.33-.15-.49-.22a4.7,4.7,0,0,1-1.89-1.39.41.41,0,0,1-.05-.09A.91.91,0,0,1,8.65,25a.87.87,0,0,1-.07-.31V18.59l.09.06C8.83,18.78,9,18.91,9.19,19Zm16.1-6.64C35.15,12.4,42,14.67,42,16.72c0,1-1.87,2.5-7.16,3.51a57.28,57.28,0,0,1-19.11,0c-5.28-1-7.16-2.53-7.16-3.51C8.58,14.67,15.45,12.4,25.29,12.4Z" style="fill:#c52228"/><path d="M47.38,34.54a9,9,0,1,0,9,9A9,9,0,0,0,47.38,34.54Zm0,17.06a8,8,0,1,1,8-8A8,8,0,0,1,47.38,51.6Z" style="fill:#c52228"/><path d="M51.07,41.69H47.88v-4a.5.5,0,0,0-.94-.22l-3.69,7.29a.5.5,0,0,0,0,.49.5.5,0,0,0,.43.24h3.18v4a.49.49,0,0,0,.39.48l.11,0a.51.51,0,0,0,.45-.28l3.69-7.29a.5.5,0,0,0,0-.49A.5.5,0,0,0,51.07,41.69Zm-3.19,5.7V45a.5.5,0,0,0-.5-.5H44.51l2.37-4.7v2.44a.5.5,0,0,0,.5.5h2.88Z" style="fill:#c52228"/></svg>