<svg id="Layer_1" data-name="Layer 1" xmlns="http://www.w3.org/2000/svg" viewBox="0 0 64 64"><title>-</title><path d="M56.49,45.56s0,0,0-.07v-20a.42.42,0,0,0-.25-.39h0l-.09,0h0L52.8,22.56V14s0,0,0-.06,0,0,0-.06a.46.46,0,0,0-.12-.23l-4-4a.46.46,0,0,0-.23-.12h-.06l-.07,0H30.2a.51.51,0,0,0-.5.5V22.56L26.43,25a.49.49,0,0,0-.3.21s0,.05,0,.08l0,0h0a.93.93,0,0,0,0,.13s0,0,0,.06,0,0,0,0v7.76a.5.5,0,0,0,.5.5.5.5,0,0,0,.5-.5V26.51L41,37a.49.49,0,0,0,.3.1.45.45,0,0,0,.3-.1l14-10.53v17.9l-9.12-7.77a.51.51,0,0,0-.71.06.49.49,0,0,0,.06.7L54.64,45H47.53a.51.51,0,0,0-.5.5.5.5,0,0,0,.5.5H56a.41.41,0,0,0,.16,0l0,0,.12-.09h0a.25.25,0,0,0,0-.07.26.26,0,0,0,0-.09A.3.3,0,0,0,56.49,45.56Zm-1.38-20L52.8,27.29V23.81ZM48.76,11.21l2.34,2.33H48.76ZM29.7,27.29l-2.3-1.74,2.3-1.74ZM41.25,36l-10.55-8V10.5H47.76V14a.5.5,0,0,0,.5.5H51.8V28.05Z" style="fill:#c52228"/><path d="M33.35,40.26l3.38-2.9a.5.5,0,0,0-.65-.76L32.7,39.5a.51.51,0,0,0-.06.71.52.52,0,0,0,.38.17A.5.5,0,0,0,33.35,40.26Z" style="fill:#c52228"/><path d="M38.92,41.7a1.49,1.49,0,0,0-2.09,0l-1.49,1.41h0l-1,1a1.5,1.5,0,0,1-2.1,0L18,29.78a1.5,1.5,0,0,1,0-2.1l2.39-2.51a1.49,1.49,0,0,0,0-2.09l-5.54-5.54a1.51,1.51,0,0,0-2.12,0l-2.12,2.12a10.31,10.31,0,0,0,0,14.58L27.76,51.48a10.3,10.3,0,0,0,14.57,0l2.13-2.12a1.5,1.5,0,0,0,0-2.12ZM13.34,18.25a.51.51,0,0,1,.36-.15.49.49,0,0,1,.35.15l5.54,5.54a.49.49,0,0,1,0,.69l-1,1.11-6.28-6.28ZM28.47,50.78,11.22,33.53a9.32,9.32,0,0,1,0-13.16l.36-.35,6.29,6.29-.65.68a2.49,2.49,0,0,0,0,3.49L31.51,44.74a2.49,2.49,0,0,0,3.49,0l.69-.65L42,50.42l-.35.36A9.33,9.33,0,0,1,28.47,50.78Zm15.28-2.12-1.06,1.06-6.28-6.28,1.1-1a.49.49,0,0,1,.7,0L43.75,48a.51.51,0,0,1,.15.35A.53.53,0,0,1,43.75,48.66Z" style="fill:#c52228"/><path d="M47.33,17.1h-13a.5.5,0,0,0-.5.5.5.5,0,0,0,.5.5h13a.5.5,0,0,0,.5-.5A.5.5,0,0,0,47.33,17.1Z" style="fill:#c52228"/><path d="M47.33,21.1h-13a.5.5,0,0,0-.5.5.5.5,0,0,0,.5.5h13a.5.5,0,0,0,.5-.5A.5.5,0,0,0,47.33,21.1Z" style="fill:#c52228"/><path d="M47.33,25.1h-13a.5.5,0,0,0-.5.5.5.5,0,0,0,.5.5h13a.5.5,0,0,0,.5-.5A.5.5,0,0,0,47.33,25.1Z" style="fill:#c52228"/></svg>