<svg id="Layer_1" data-name="Layer 1" xmlns="http://www.w3.org/2000/svg" viewBox="0 0 64 64"><title>-</title><path d="M11.19,27.81l.37.27.19.14a11.78,11.78,0,0,0,2.42,1.11,48.43,48.43,0,0,0,14.54,1.88h.71a.49.49,0,0,0,.47-.52.46.46,0,0,0-.52-.48c-.21,0-.42,0-.66,0A48.33,48.33,0,0,1,14.5,28.39c-2.11-.74-3.32-1.6-3.32-2.36V22.15a5.19,5.19,0,0,0,.57.4,11.75,11.75,0,0,0,2.42,1.12,48.45,48.45,0,0,0,14.55,1.88,48.57,48.57,0,0,0,14.56-1.88,12.66,12.66,0,0,0,2.22-1,5.91,5.91,0,0,0,.76-.52v3.32a.5.5,0,0,0,.5.5.5.5,0,0,0,.5-.5V14.7c0-3.38-9.55-5.2-18.54-5.2s-18.53,1.82-18.53,5.2v5.65h0v17c0,3,7.68,4.76,15.28,5.11h0a.5.5,0,0,0,0-1c-8.85-.41-14.33-2.45-14.33-4.11V33.48a9.72,9.72,0,0,0,3,1.51,45.77,45.77,0,0,0,12.08,1.85h0a.5.5,0,0,0,0-1A44.79,44.79,0,0,1,14.5,34.05c-2.08-.72-3.32-1.6-3.32-2.36V27.81Zm3-9.81a48.42,48.42,0,0,0,14.55,1.89A48.53,48.53,0,0,0,43.28,18a9.53,9.53,0,0,0,3-1.51v3.87c0,.49-.5,1-1.4,1.53a11.32,11.32,0,0,1-1.91.83,48.61,48.61,0,0,1-14.24,1.83A48.48,48.48,0,0,1,14.5,22.72a10,10,0,0,1-2.44-1.16c-.57-.4-.87-.81-.87-1.2V16.49l.06,0A9.74,9.74,0,0,0,14.17,18Zm14.55-7.5c10.34,0,17.54,2.21,17.54,4.2,0,.77-1.21,1.63-3.31,2.36a48.48,48.48,0,0,1-14.23,1.83A48.36,48.36,0,0,1,14.5,17.06c-2.11-.73-3.31-1.59-3.31-2.36C11.19,12.71,18.39,10.5,28.72,10.5Z" style="fill:#c52228"/><path d="M42.08,28.29A13.11,13.11,0,1,0,55.19,41.4,13.12,13.12,0,0,0,42.08,28.29Zm0,25.21A12.11,12.11,0,1,1,54.19,41.4,12.12,12.12,0,0,1,42.08,53.5Z" style="fill:#c52228"/><path d="M44.71,38.26a.5.5,0,0,0,.5.5.5.5,0,0,0,.5-.5,3.62,3.62,0,0,0-3.13-3.58v-.83a.5.5,0,0,0-.5-.5.5.5,0,0,0-.5.5v.83a3.61,3.61,0,0,0,0,7.16v5.27a2.64,2.64,0,0,1-2.13-2.58.5.5,0,0,0-1,0,3.63,3.63,0,0,0,3.13,3.58v.83a.5.5,0,0,0,.5.5.5.5,0,0,0,.5-.5v-.83a3.61,3.61,0,0,0,0-7.16V35.68A2.64,2.64,0,0,1,44.71,38.26Zm-5.26,0a2.64,2.64,0,0,1,2.13-2.58v5.16A2.63,2.63,0,0,1,39.45,38.26Zm5.26,6.27a2.64,2.64,0,0,1-2.13,2.58V42A2.63,2.63,0,0,1,44.71,44.53Z" style="fill:#c52228"/><path d="M58.43,8.47a3.25,3.25,0,0,1-3.25-3.25.5.5,0,0,0-.5-.5.5.5,0,0,0-.5.5,3.26,3.26,0,0,1-3.25,3.25.5.5,0,0,0-.5.5.5.5,0,0,0,.5.5,3.26,3.26,0,0,1,3.25,3.25.5.5,0,0,0,.5.5.5.5,0,0,0,.5-.5,3.25,3.25,0,0,1,3.25-3.25.5.5,0,0,0,.5-.5A.51.51,0,0,0,58.43,8.47Zm-3.75,2.26A4.26,4.26,0,0,0,52.92,9a4.24,4.24,0,0,0,1.76-1.75A4.16,4.16,0,0,0,56.43,9,4.18,4.18,0,0,0,54.68,10.73Z" style="fill:#c52228"/><path d="M57.59,15a.06.06,0,0,0-.11,0,1.29,1.29,0,0,1-.84.83.06.06,0,0,0,0,.12,1.27,1.27,0,0,1,.84.83.06.06,0,0,0,.11,0,1.25,1.25,0,0,1,.84-.83.06.06,0,0,0,0-.12A1.27,1.27,0,0,1,57.59,15Z" style="fill:#c52228"/><path d="M14.45,54.53a3.26,3.26,0,0,1-3.25-3.25.5.5,0,0,0-1,0A3.26,3.26,0,0,1,7,54.53a.5.5,0,0,0-.5.5.5.5,0,0,0,.5.5,3.26,3.26,0,0,1,3.25,3.25.5.5,0,0,0,1,0,3.26,3.26,0,0,1,3.25-3.25A.5.5,0,0,0,15,55,.5.5,0,0,0,14.45,54.53ZM10.7,56.78A4.28,4.28,0,0,0,9,55a4.3,4.3,0,0,0,1.75-1.76A4.3,4.3,0,0,0,12.45,55,4.28,4.28,0,0,0,10.7,56.78Z" style="fill:#c52228"/><path d="M7.06,48a2.56,2.56,0,0,1,1.67-1.67.12.12,0,0,0,0-.23,2.58,2.58,0,0,1-1.67-1.67.11.11,0,0,0-.22,0,2.58,2.58,0,0,1-1.67,1.67.12.12,0,0,0,0,.23A2.56,2.56,0,0,1,6.84,48,.11.11,0,0,0,7.06,48Z" style="fill:#c52228"/></svg>