<svg id="Layer_1" data-name="Layer 1" xmlns="http://www.w3.org/2000/svg" viewBox="0 0 64 64"><title>-</title><path d="M57.44,43.29a5.4,5.4,0,0,0-4.67-1l-9.49,2.39a3.23,3.23,0,0,0,.33-1.39,3.19,3.19,0,0,0-3.2-3.2H32.92a1.46,1.46,0,0,1-1.27-.78,7.08,7.08,0,0,0-1.14-1.5,7,7,0,0,0-5-2,11.85,11.85,0,0,0-4,.71L17.22,38a2.7,2.7,0,0,0-5.4,0,3,3,0,0,0,0,.42H5a.5.5,0,1,0,0,1h7.26a2.75,2.75,0,0,0,.74.78,2.69,2.69,0,0,0,.28,4.58A2.68,2.68,0,0,0,13,49.43,2.68,2.68,0,0,0,11.91,51H5a.5.5,0,0,0-.5.5A.5.5,0,0,0,5,52h6.88a2.7,2.7,0,0,0,5.31.24L37.46,54h0l.13,0,21.53-6a.5.5,0,0,0,.36-.48A5.39,5.39,0,0,0,57.44,43.29ZM12.82,38.08a1.71,1.71,0,1,1,1.7,1.7A1.71,1.71,0,0,1,12.82,38.08Zm1.7,2.7a1.71,1.71,0,1,1,0,3.41,1.71,1.71,0,0,1,0-3.41Zm-1.7,6.44a1.71,1.71,0,0,1,3.41,0,1.71,1.71,0,1,1-3.41,0Zm1.7,6.12a1.69,1.69,0,0,1-1.68-1.48.49.49,0,0,0,.19-.38.51.51,0,0,0-.13-.33,1.69,1.69,0,0,1,1.62-1.22,1.71,1.71,0,1,1,0,3.41ZM37.46,53l-20.27-1.8a2.73,2.73,0,0,0-1.11-1.78,2.7,2.7,0,0,0,1.15-2.21,2.67,2.67,0,0,0-1.43-2.36,2.69,2.69,0,0,0,.28-4.58A2.8,2.8,0,0,0,17,39.14a.57.57,0,0,0,.18,0l4.64-1.69a10.88,10.88,0,0,1,3.7-.65,6,6,0,0,1,4.28,1.76,6.69,6.69,0,0,1,1,1.28,2.43,2.43,0,0,0,2.13,1.29h7.49a2.2,2.2,0,1,1,0,4.4H35a.5.5,0,0,0-.5.5.5.5,0,0,0,.5.5h5.41A3.2,3.2,0,0,0,42.08,46h.05L53,43.27a4.44,4.44,0,0,1,5.51,3.93Z" style="fill:#c52228"/><path d="M31.73,23.75h1.51a8.64,8.64,0,0,0,.53,1.3l-1.08,1.06a.5.5,0,0,0-.08.62,11.42,11.42,0,0,0,1.58,2,10.46,10.46,0,0,0,2,1.63.5.5,0,0,0,.61-.07l1.08-1.06a9.1,9.1,0,0,0,1.28.54v1.52a.5.5,0,0,0,.38.49,11.15,11.15,0,0,0,2.64.32,11.66,11.66,0,0,0,2.49-.28.52.52,0,0,0,.39-.49V29.86a8.09,8.09,0,0,0,1.29-.52l1.07,1.08a.49.49,0,0,0,.61.08,10.7,10.7,0,0,0,2-1.59,10.27,10.27,0,0,0,1.63-2,.5.5,0,0,0-.07-.61l-1.06-1.08a8.3,8.3,0,0,0,.54-1.28h1.53a.49.49,0,0,0,.48-.38,11.11,11.11,0,0,0,0-5.13.5.5,0,0,0-.48-.39H51.18a9.27,9.27,0,0,0-.52-1.3l1.08-1.07a.5.5,0,0,0,.07-.62,12.07,12.07,0,0,0-1.58-2,11.1,11.1,0,0,0-2-1.61.51.51,0,0,0-.62.07l-1.08,1A10.35,10.35,0,0,0,45.23,12V10.47a.48.48,0,0,0-.38-.49,11.16,11.16,0,0,0-5.11,0,.49.49,0,0,0-.39.48l0,1.51a10.36,10.36,0,0,0-1.3.52L37,11.37a.52.52,0,0,0-.62-.08,11.12,11.12,0,0,0-2,1.59,10.64,10.64,0,0,0-1.62,2,.5.5,0,0,0,.07.61l1.06,1.08a9.62,9.62,0,0,0-.54,1.28l-1.52,0h0a.51.51,0,0,0-.49.38,11.26,11.26,0,0,0-.05,5.13A.49.49,0,0,0,31.73,23.75Zm.45-4.89h1.48a.49.49,0,0,0,.48-.36,9.22,9.22,0,0,1,.75-1.77.5.5,0,0,0-.08-.59l-1-1.06A9.73,9.73,0,0,1,35,13.59a10.49,10.49,0,0,1,1.52-1.23l1,1.06a.52.52,0,0,0,.6.09A8.1,8.1,0,0,1,40,12.79a.48.48,0,0,0,.37-.48V10.83a10.18,10.18,0,0,1,3.89,0v1.48a.5.5,0,0,0,.35.48,9.08,9.08,0,0,1,1.79.76.5.5,0,0,0,.59-.09l1.06-1a10.5,10.5,0,0,1,1.49,1.25,11.08,11.08,0,0,1,1.24,1.53l-1.06,1a.5.5,0,0,0-.09.59,8,8,0,0,1,.73,1.8.5.5,0,0,0,.48.36h1.47a10.23,10.23,0,0,1,0,3.9l-1.49,0a.49.49,0,0,0-.49.37,8.13,8.13,0,0,1-.74,1.76.5.5,0,0,0,.07.59l1,1.06a9.64,9.64,0,0,1-1.27,1.5,9.79,9.79,0,0,1-1.51,1.23l-1-1.06a.5.5,0,0,0-.6-.08,6.9,6.9,0,0,1-1.77.71.51.51,0,0,0-.37.48V31a10.23,10.23,0,0,1-3.9,0V29.45a.48.48,0,0,0-.35-.48,8.18,8.18,0,0,1-1.76-.75.48.48,0,0,0-.6.07l-1.06,1.05a9.44,9.44,0,0,1-1.5-1.27,9.86,9.86,0,0,1-1.23-1.52l1-1a.49.49,0,0,0,.09-.6,8.65,8.65,0,0,1-.73-1.78.49.49,0,0,0-.47-.36l-1.48,0A10,10,0,0,1,32.18,18.86Z" style="fill:#c52228"/><path d="M42.16,25h.05a4.13,4.13,0,1,0-2.94-1.24A4.07,4.07,0,0,0,42.16,25ZM40,18.67a3.15,3.15,0,0,1,4.42,0,3.14,3.14,0,0,1,0,4.42h0a3.14,3.14,0,0,1-2.23.89A3.09,3.09,0,0,1,40,23.08,3.12,3.12,0,0,1,40,18.67Z" style="fill:#c52228"/><path d="M44.21,35.14a.5.5,0,0,0-.5.5V39.3a.5.5,0,0,0,.5.5.51.51,0,0,0,.5-.5V35.64A.5.5,0,0,0,44.21,35.14Z" style="fill:#c52228"/><path d="M39.71,34.64V37.3a.5.5,0,0,0,.5.5.51.51,0,0,0,.5-.5V34.64a.5.5,0,0,0-.5-.5A.5.5,0,0,0,39.71,34.64Z" style="fill:#c52228"/><path d="M35.71,33.32v4a.5.5,0,0,0,.5.5.51.51,0,0,0,.5-.5v-4a.51.51,0,0,0-.5-.5A.5.5,0,0,0,35.71,33.32Z" style="fill:#c52228"/><path d="M47.71,33.1V40a.5.5,0,0,0,.5.5.5.5,0,0,0,.5-.5V33.1a.51.51,0,0,0-.5-.5A.5.5,0,0,0,47.71,33.1Z" style="fill:#c52228"/></svg>