<svg id="Layer_1" data-name="Layer 1" xmlns="http://www.w3.org/2000/svg" viewBox="0 0 64 64"><path d="M43.66,48.27V51H48a4.22,4.22,0,0,1-3.27,3.47A5,5,0,0,1,39,52a5.21,5.21,0,0,1,.6-6.15,4.75,4.75,0,0,1,3-1.69,5,5,0,0,1,4.17,1.19c.7-.69,1.39-1.29,2.09-2-.3-.2-.4-.4-.6-.5A8.1,8.1,0,1,0,46.93,56.7c3.37-1.48,4.66-5.45,4.07-8.43Z" style="fill:#c52228"/><path d="M35.1,36H51.28a.5.5,0,0,0,.5-.5V19.31a.5.5,0,0,0-.5-.5H35.1a.5.5,0,0,0-.5.5V35.48A.5.5,0,0,0,35.1,36Zm.5-16.17H50.78V35H35.6Z" style="fill:#c52228"/><path d="M12.72,36H28.9a.5.5,0,0,0,.5-.5V19.31a.5.5,0,0,0-.5-.5H12.72a.5.5,0,0,0-.5.5V35.48A.5.5,0,0,0,12.72,36Zm.5-16.17H28.4V35H13.22Z" style="fill:#c52228"/><path d="M12.72,58H28.9a.5.5,0,0,0,.5-.5V41.31a.5.5,0,0,0-.5-.5H12.72a.5.5,0,0,0-.5.5V57.48A.5.5,0,0,0,12.72,58Zm.5-16.17H28.4V57H13.22Z" style="fill:#c52228"/><path d="M55.28,14.81H8.72a.5.5,0,0,0-.5.5V61.49a.51.51,0,0,0,.5.5H55.28a.51.51,0,0,0,.5-.5V15.31A.5.5,0,0,0,55.28,14.81ZM54.78,61H9.22V15.81H54.78Z" style="fill:#c52228"/></svg>