<svg id="Layer_1" data-name="Layer 1" xmlns="http://www.w3.org/2000/svg" viewBox="0 0 64 64"><title>-</title><path d="M50.5,44.89a.5.5,0,0,0-.5.5V53.5H16.92V28.21a.5.5,0,0,0-.5-.5.5.5,0,0,0-.5.5V54a.5.5,0,0,0,.5.5H50.5A.5.5,0,0,0,51,54V45.39A.5.5,0,0,0,50.5,44.89Z" style="fill:#c52228"/><path d="M50.5,9.5H16.42a.5.5,0,0,0-.5.5v2a.5.5,0,0,0,.5.5.5.5,0,0,0,.5-.5V10.5H50V41.39a.5.5,0,0,0,.5.5.5.5,0,0,0,.5-.5V10A.5.5,0,0,0,50.5,9.5Z" style="fill:#c52228"/><path d="M41.75,25.56l5.1-5.1A.49.49,0,0,0,47,20.1a.47.47,0,0,0-.15-.35L45.07,18a.49.49,0,1,0-.7.7l1.42,1.42-4.6,4.61H3V15.5h9.21v6.71a.5.5,0,0,0,1,0V15.5h28l1.63,1.63a.5.5,0,0,0,.71,0,.5.5,0,0,0,0-.7l-1.78-1.78a.49.49,0,0,0-.36-.15H2.5A.5.5,0,0,0,2,15V25.21a.5.5,0,0,0,.5.5H41.39A.49.49,0,0,0,41.75,25.56Z" style="fill:#c52228"/><path d="M24.87,29.61a.5.5,0,0,0-.5-.5h-4a.5.5,0,0,0-.5.5v4a.5.5,0,0,0,.5.5h4a.5.5,0,0,0,.5-.5Zm-1,3.5h-3v-3h3Z" style="fill:#c52228"/><path d="M24.87,37.45a.5.5,0,0,0-.5-.5h-4a.5.5,0,0,0-.5.5v4a.5.5,0,0,0,.5.5h4a.5.5,0,0,0,.5-.5Zm-1,3.5h-3V38h3Z" style="fill:#c52228"/><path d="M24.37,45h-4a.5.5,0,0,0-.5.5v4a.5.5,0,0,0,.5.5h4a.5.5,0,0,0,.5-.5v-4A.5.5,0,0,0,24.37,45Zm-.5,4h-3V46h3Z" style="fill:#c52228"/><path d="M17.65,19.33h5.1a.5.5,0,0,0,.5-.5.5.5,0,0,0-.5-.5h-5.1a.5.5,0,0,0-.5.5A.5.5,0,0,0,17.65,19.33Z" style="fill:#c52228"/><path d="M17.65,21.88H38.06a.5.5,0,0,0,0-1H17.65a.5.5,0,0,0,0,1Z" style="fill:#c52228"/><path d="M28.37,31.11h4a.5.5,0,0,0,.5-.5.5.5,0,0,0-.5-.5h-4a.5.5,0,0,0-.5.5A.5.5,0,0,0,28.37,31.11Z" style="fill:#c52228"/><path d="M44.37,32.11h-16a.5.5,0,0,0-.5.5.5.5,0,0,0,.5.5h16a.5.5,0,0,0,.5-.5A.5.5,0,0,0,44.37,32.11Z" style="fill:#c52228"/><path d="M28.37,39.11h4a.5.5,0,0,0,.5-.5.5.5,0,0,0-.5-.5h-4a.5.5,0,0,0-.5.5A.5.5,0,0,0,28.37,39.11Z" style="fill:#c52228"/><path d="M44.37,40.11h-16a.5.5,0,0,0-.5.5.5.5,0,0,0,.5.5h16a.5.5,0,0,0,.5-.5A.5.5,0,0,0,44.37,40.11Z" style="fill:#c52228"/><path d="M28.37,47.11h4a.5.5,0,0,0,.5-.5.5.5,0,0,0-.5-.5h-4a.5.5,0,0,0-.5.5A.5.5,0,0,0,28.37,47.11Z" style="fill:#c52228"/><path d="M28.37,49.11h16a.5.5,0,0,0,.5-.5.5.5,0,0,0-.5-.5h-16a.5.5,0,0,0-.5.5A.5.5,0,0,0,28.37,49.11Z" style="fill:#c52228"/><path d="M9.48,17.77,7,21.38,5.67,20.06a.5.5,0,0,0-.71,0,.5.5,0,0,0,0,.7l1.75,1.75a.51.51,0,0,0,.35.15h.05a.55.55,0,0,0,.37-.22l2.83-4.1a.52.52,0,0,0-.13-.7A.5.5,0,0,0,9.48,17.77Z" style="fill:#c52228"/></svg>