<svg id="Layer_1" data-name="Layer 1" xmlns="http://www.w3.org/2000/svg" viewBox="0 0 64 64"><title>_</title><path d="M51.92,36H50.27V11.51a.5.5,0,0,0-.5-.5H37.51V10a.5.5,0,0,0-.5-.5H32.42V8a.5.5,0,0,0-.5-.5.51.51,0,0,0-.5.5v1.5H26.83a.51.51,0,0,0-.5.5v1H14.08a.5.5,0,0,0-.5.5V36h-1.5a.5.5,0,0,0-.5.5v4a.5.5,0,0,0,.5.5H25.37L22.59,53.94a.5.5,0,0,0,.38.59h.11a.5.5,0,0,0,.49-.39l1.64-7.61H31.4V54a.5.5,0,0,0,.5.5.5.5,0,0,0,.5-.5v-7.5h6.21l1.63,7.61a.5.5,0,0,0,.49.39h.1a.49.49,0,0,0,.39-.59L38.45,41H51.92a.5.5,0,0,0,.5-.5v-4A.5.5,0,0,0,51.92,36ZM27.33,10.54h9.18v1h0v1H27.33ZM14.58,12H26.33v1a.5.5,0,0,0,.5.5H37a.5.5,0,0,0,.5-.5V12H49.27V36H14.58ZM25.42,45.54l1-4.51h5v4.51Zm13,0h-6V41h5Zm13-5.51H12.58V37H51.42Z" style="fill:#c52228"/><path d="M38.79,25.86H35.7l2.18-2.18a.5.5,0,0,0,0-.71L34,19.06a.48.48,0,0,0-.7,0l-2.19,2.18V18.15a.5.5,0,0,0-.5-.5H25.05a.5.5,0,0,0-.5.5v11a1.59,1.59,0,0,0,0,.44.72.72,0,0,0,0,.21,1.68,1.68,0,0,0,.11.4,1.55,1.55,0,0,0,.08.23,3.1,3.1,0,0,0,.21.4.47.47,0,0,0,.06.09c.07.1.13.2.23.32s.2.22.31.32a3.32,3.32,0,0,0,.39.31c.12.07.23.14.34.19a3.36,3.36,0,0,0,1,.32,3.19,3.19,0,0,0,.45,0h11a.5.5,0,0,0,.5-.5V26.36A.5.5,0,0,0,38.79,25.86ZM25.55,23.21h4.53v2.65H25.55Zm5.53,3.15V24l2.52,2.52-1.93,1.94-.59.58Zm2.66,1.46v3.57H30.17Zm-.12-7.7,3.2,3.2-2.51,2.51-3.2-3.2Zm-3.54-1.47v3.56H25.55V18.65ZM26.56,31l-.27-.22-.21-.22-.16-.2-.06-.12a2.43,2.43,0,0,1-.14-.28s0-.08,0-.13a1.82,1.82,0,0,1-.07-.25l0-.12a2.07,2.07,0,0,1,0-.35V26.86h4.53v2.27a2.29,2.29,0,0,1-.66,1.6,2.44,2.44,0,0,1-.32.26,3.31,3.31,0,0,1-.43.24l-.13,0a1,1,0,0,1-.25.07l-.13,0a1.31,1.31,0,0,1-.34,0h0a1.67,1.67,0,0,1-.31,0,2.42,2.42,0,0,1-.72-.23Zm11.73.37H34.74V26.86h3.55Z" style="fill:#c52228"/></svg>