<svg id="Layer_1" data-name="Layer 1" xmlns="http://www.w3.org/2000/svg" viewBox="0 0 64 64"><path d="M32,9.5A22.5,22.5,0,1,0,54.5,32,22.52,22.52,0,0,0,32,9.5Zm0,44A21.5,21.5,0,1,1,53.5,32,21.52,21.52,0,0,1,32,53.5Z" style="fill:#c52228"/><path d="M37,26.53a.5.5,0,0,0,.5.5.5.5,0,0,0,.5-.5A6,6,0,0,0,32.5,20.6V18.83a.5.5,0,0,0-1,0V20.6a6,6,0,0,0,0,11.87v9.91A5,5,0,0,1,27,37.47a.5.5,0,0,0-.5-.5.5.5,0,0,0-.5.5A6,6,0,0,0,31.5,43.4v1.77a.5.5,0,0,0,1,0V43.4a6,6,0,0,0,0-11.88v-9.9A5,5,0,0,1,37,26.53Zm-9.93,0a5,5,0,0,1,4.47-4.91v9.83A5,5,0,0,1,27,26.53ZM37,37.47a5,5,0,0,1-4.46,4.91V32.55A5,5,0,0,1,37,37.47Z" style="fill:#c52228"/></svg>