<svg id="Layer_1" data-name="Layer 1" xmlns="http://www.w3.org/2000/svg" viewBox="0 0 64 64"><path d="M5.61,33.29h.1a.5.5,0,0,0,.49-.39.55.55,0,0,0-.37-.65.47.47,0,0,0-.59.34l0,.1A.5.5,0,0,0,5.61,33.29Z" style="fill:#c52228"/><path d="M7.64,27.38a.5.5,0,0,0,.24.06.53.53,0,0,0,.44-.26l0-.09a.49.49,0,0,0-.19-.68.51.51,0,0,0-.68.2l0,.09A.5.5,0,0,0,7.64,27.38Z" style="fill:#c52228"/><path d="M9.57,24.8a.51.51,0,0,0,.4-.2l.06-.08a.51.51,0,0,0-.1-.7.5.5,0,0,0-.7.1L9.17,24a.49.49,0,0,0,.1.7A.47.47,0,0,0,9.57,24.8Z" style="fill:#c52228"/><path d="M6.41,30.26a.47.47,0,0,0,.17,0A.5.5,0,0,0,7.05,30l0-.1a.51.51,0,0,0-.3-.64.49.49,0,0,0-.64.29l0,.1A.5.5,0,0,0,6.41,30.26Z" style="fill:#c52228"/><path d="M5.24,36.4h0a.5.5,0,0,0,.5-.46.54.54,0,0,0-.46-.59.47.47,0,0,0-.53.42v.1A.5.5,0,0,0,5.24,36.4Z" style="fill:#c52228"/><path d="M11.63,22.42h4a.5.5,0,0,0,.5-.5.5.5,0,0,0-.5-.5H13A21.42,21.42,0,0,1,48.34,33.56a.51.51,0,0,0,.49.41h.09a.51.51,0,0,0,.41-.59,22.42,22.42,0,0,0-37.2-12.55V17.92a.5.5,0,0,0-1,0v4A.5.5,0,0,0,11.63,22.42Z" style="fill:#c52228"/><path d="M31.48,43a.49.49,0,0,0,.54-.11l9.1-9.11a.5.5,0,0,0,0-.71L32,24a.5.5,0,0,0-.85.36v4.84a15.54,15.54,0,0,0-15,15.52,16.33,16.33,0,0,0,.48,3.9.46.46,0,0,0,.49.38.51.51,0,0,0,.48-.38A14.53,14.53,0,0,1,31.17,37.74v4.82A.5.5,0,0,0,31.48,43ZM17.24,46.47a15,15,0,0,1-.1-1.76A14.54,14.54,0,0,1,31.67,30.18a.51.51,0,0,0,.5-.5V25.55l4.11,4.12,3.78,3.78-7.89,7.9V37.23a.5.5,0,0,0-.5-.5A15.56,15.56,0,0,0,17.24,46.47Z" style="fill:#c52228"/><path d="M33.79,57.85a21.48,21.48,0,0,1-28-19,.5.5,0,1,0-1,.06A22.48,22.48,0,0,0,34.1,58.8a.5.5,0,1,0-.31-.95Z" style="fill:#c52228"/><path d="M59.23,46.32H55.48V43.87a6.9,6.9,0,1,0-13.79,0v2.45H37.94a.5.5,0,0,0-.5.5V61.5a.5.5,0,0,0,.5.5H59.23a.5.5,0,0,0,.5-.5V46.82A.5.5,0,0,0,59.23,46.32ZM42.69,43.87a5.9,5.9,0,1,1,11.79,0v2.45H42.69ZM58.73,61H38.44V47.32H58.73Z" style="fill:#c52228"/><path d="M47.08,51.57a2.07,2.07,0,0,0-.63,1.5,2.12,2.12,0,0,0,.48,1.35V58a.5.5,0,0,0,.5.5h2.31a.51.51,0,0,0,.5-.5V56.61a.5.5,0,0,0-.5-.5.5.5,0,0,0-.5.5v.86H47.93V54.23a.49.49,0,0,0-.15-.36,1.14,1.14,0,0,1-.33-.8,1.15,1.15,0,0,1,.33-.8,1.13,1.13,0,0,1,1.6,1.6.52.52,0,0,0-.14.36v.85a.5.5,0,0,0,.5.5.5.5,0,0,0,.5-.5v-.66a2.13,2.13,0,0,0-3.16-2.85Z" style="fill:#c52228"/></svg>