<svg id="Layer_1" data-name="Layer 1" xmlns="http://www.w3.org/2000/svg" viewBox="0 0 64 64"><path d="M20.63,36a.5.5,0,0,0,.5-.5V34a.5.5,0,0,0-1,0v1.5A.5.5,0,0,0,20.63,36Z" style="fill:#c52228"/><path d="M20.63,28.49a.5.5,0,0,0,.5-.5V25a.5.5,0,0,0-1,0v3A.5.5,0,0,0,20.63,28.49Z" style="fill:#c52228"/><path d="M20.63,19.49a.5.5,0,0,0,.5-.5V18h1a.5.5,0,0,0,.5-.5.5.5,0,0,0-.5-.5h-1.5a.5.5,0,0,0-.5.5V19A.5.5,0,0,0,20.63,19.49Z" style="fill:#c52228"/><path d="M27.65,18h2.76a.5.5,0,0,0,.5-.5.5.5,0,0,0-.5-.5H27.65a.5.5,0,0,0-.5.5A.51.51,0,0,0,27.65,18Z" style="fill:#c52228"/><path d="M35.93,18H38.7a.51.51,0,0,0,.5-.5.5.5,0,0,0-.5-.5H35.93a.5.5,0,0,0-.5.5A.51.51,0,0,0,35.93,18Z" style="fill:#c52228"/><path d="M47,17H44.22a.5.5,0,0,0-.5.5.5.5,0,0,0,.5.5H47a.51.51,0,0,0,.5-.5A.5.5,0,0,0,47,17Z" style="fill:#c52228"/><path d="M54,17H52.5a.5.5,0,0,0-.5.5.5.5,0,0,0,.5.5h1v1a.5.5,0,0,0,1,0v-1.5A.5.5,0,0,0,54,17Z" style="fill:#c52228"/><path d="M54,40.57a.5.5,0,0,0-.5.5v2.76a.5.5,0,0,0,1,0V41.07A.5.5,0,0,0,54,40.57Z" style="fill:#c52228"/><path d="M54,24a.5.5,0,0,0-.5.5v2.76a.5.5,0,0,0,1,0V24.51A.5.5,0,0,0,54,24Z" style="fill:#c52228"/><path d="M54,32.29a.5.5,0,0,0-.5.5v2.76a.5.5,0,0,0,1,0V32.79A.5.5,0,0,0,54,32.29Z" style="fill:#c52228"/><path d="M54,48.86a.5.5,0,0,0-.5.5v1h-1a.5.5,0,0,0-.5.5.5.5,0,0,0,.5.5H54a.5.5,0,0,0,.5-.5v-1.5A.5.5,0,0,0,54,48.86Z" style="fill:#c52228"/><path d="M46.5,50.36h-3a.5.5,0,0,0-.5.5.5.5,0,0,0,.5.5h3a.5.5,0,0,0,.5-.5A.5.5,0,0,0,46.5,50.36Z" style="fill:#c52228"/><path d="M37.5,50.36H36a.5.5,0,0,0-.5.5.5.5,0,0,0,.5.5h1.5a.5.5,0,0,0,.5-.5A.5.5,0,0,0,37.5,50.36Z" style="fill:#c52228"/><path d="M32,39H10a.5.5,0,0,0-.5.5v22a.5.5,0,0,0,.5.5H32a.5.5,0,0,0,.5-.5v-22A.5.5,0,0,0,32,39Zm-.5,22h-21V40h21Z" style="fill:#c52228"/><path d="M40.72,26h4.07l-9.14,9.14a.5.5,0,0,0,0,.71.48.48,0,0,0,.7,0l9.15-9.15v4.07a.5.5,0,1,0,1,0V25.49A.5.5,0,0,0,46,25H40.72a.5.5,0,0,0-.5.5A.5.5,0,0,0,40.72,26Z" style="fill:#c52228"/></svg>