<svg id="Layer_1" data-name="Layer 1" xmlns="http://www.w3.org/2000/svg" viewBox="0 0 64 64"><title>EXPORT_IMH-icon-set</title><path d="M43.37,35.5a.5.5,0,0,0-.5.5v1.5a.5.5,0,0,0,1,0V36A.5.5,0,0,0,43.37,35.5Z" style="fill:#c52228"/><path d="M43.37,43a.5.5,0,0,0-.5.5v3a.5.5,0,0,0,1,0v-3A.5.5,0,0,0,43.37,43Z" style="fill:#c52228"/><path d="M43.37,52a.5.5,0,0,0-.5.5v1h-1a.5.5,0,0,0,0,1h1.5a.5.5,0,0,0,.5-.5V52.5A.5.5,0,0,0,43.37,52Z" style="fill:#c52228"/><path d="M19.78,53.5H17a.5.5,0,1,0,0,1h2.76a.5.5,0,0,0,0-1Z" style="fill:#c52228"/><path d="M28.06,53.5H25.3a.5.5,0,1,0,0,1h2.76a.5.5,0,1,0,0-1Z" style="fill:#c52228"/><path d="M36.35,53.5H33.59a.5.5,0,0,0,0,1h2.76a.5.5,0,0,0,0-1Z" style="fill:#c52228"/><path d="M11.5,53.5h-1v-1a.5.5,0,0,0-1,0V54a.5.5,0,0,0,.5.5h1.5a.5.5,0,0,0,0-1Z" style="fill:#c52228"/><path d="M10,39.19a.5.5,0,0,0,.5-.5V35.93a.5.5,0,0,0-1,0v2.76A.5.5,0,0,0,10,39.19Z" style="fill:#c52228"/><path d="M10,30.91a.5.5,0,0,0,.5-.5V27.65a.5.5,0,0,0-1,0v2.76A.5.5,0,0,0,10,30.91Z" style="fill:#c52228"/><path d="M10,47.48a.5.5,0,0,0,.5-.5V44.22a.5.5,0,0,0-1,0V47A.5.5,0,0,0,10,47.48Z" style="fill:#c52228"/><path d="M11.5,20.13H10a.5.5,0,0,0-.5.5v1.5a.5.5,0,0,0,1,0v-1h1a.5.5,0,0,0,0-1Z" style="fill:#c52228"/><path d="M17.5,21.13h3a.5.5,0,0,0,0-1h-3a.5.5,0,0,0,0,1Z" style="fill:#c52228"/><path d="M26.5,21.13H28a.5.5,0,0,0,0-1H26.5a.5.5,0,0,0,0,1Z" style="fill:#c52228"/><path d="M54,9.5H32a.5.5,0,0,0-.5.5V32a.5.5,0,0,0,.5.5H54a.5.5,0,0,0,.5-.5V10A.5.5,0,0,0,54,9.5Zm-.5,22h-21v-21h21Z" style="fill:#c52228"/><path d="M23.28,45.5H19.21l9.14-9.15a.49.49,0,0,0-.7-.7L18.5,44.79V40.72a.5.5,0,0,0-1,0V46a.5.5,0,0,0,.5.5h5.28a.5.5,0,0,0,0-1Z" style="fill:#c52228"/></svg>