<svg id="Layer_1" data-name="Layer 1" xmlns="http://www.w3.org/2000/svg" viewBox="0 0 64 64"><title>new</title><path d="M53.59,50,41.05,37.48a.48.48,0,0,0-.7,0l-1.1,1.1-2.36-2.36a15.71,15.71,0,0,0,4.28-10.76,15.34,15.34,0,0,0-.9-5.23.51.51,0,0,0-.64-.3.5.5,0,0,0-.3.64,14.69,14.69,0,0,1-3.48,15.3h0a14.74,14.74,0,1,1,.6-20.23.5.5,0,0,0,.7,0,.5.5,0,0,0,0-.71,15.75,15.75,0,1,0-1,21.94l2.36,2.35-1,1a.48.48,0,0,0,0,.7L50.05,53.55a2.51,2.51,0,0,0,3.54,0A2.52,2.52,0,0,0,53.59,50Zm-.71,2.83a1.5,1.5,0,0,1-2.12,0L38.58,40.66l2.12-2.12L52.88,50.72A1.49,1.49,0,0,1,52.88,52.84Z" style="fill:#c52228"/><path d="M38.45,10.72H44.3L31,24.9l-5.79-5.79a.54.54,0,0,0-.38-.15.49.49,0,0,0-.37.2L18.28,27.3l-3.59-2.12v0A10.83,10.83,0,0,1,25.43,14.72a10.63,10.63,0,0,1,8.23,3.87.51.51,0,0,0,.71.07.49.49,0,0,0,.06-.7,11.63,11.63,0,0,0-9-4.24A11.82,11.82,0,0,0,13.69,25.08c0,.12,0,.26,0,.38a11.7,11.7,0,0,0,3.38,8.24h0a11.8,11.8,0,0,0,4.12,2.7l.1,0a11.72,11.72,0,0,0,2.05.57h.09a12,12,0,0,0,2,.18,11.66,11.66,0,0,0,2-.18h0a11.81,11.81,0,0,0,2.08-.57.34.34,0,0,0,.14-.05,11.73,11.73,0,0,0,4.1-2.67l0,0a11.68,11.68,0,0,0,3.38-8.23A10.14,10.14,0,0,0,37,23.8a.5.5,0,0,0-1,.15,9.42,9.42,0,0,1,.12,1.51A10.73,10.73,0,0,1,33.92,32V28.87a.51.51,0,0,0-.5-.5h-4a.5.5,0,0,0-.5.5v6.74c-.33.11-.66.21-1,.29v-10a.51.51,0,0,0-.5-.5h-4a.5.5,0,0,0-.5.5v10c-.34-.08-.68-.18-1-.29V30.87a.51.51,0,0,0-.5-.5h-4a.5.5,0,0,0-.5.5V32a10.65,10.65,0,0,1-2.2-5.64l3.44,2a.45.45,0,0,0,.25.07.53.53,0,0,0,.4-.19l6.14-8L30.7,26a.64.64,0,0,0,.36.14.51.51,0,0,0,.36-.15L45,11.49v5.73a.5.5,0,0,0,.5.5.5.5,0,0,0,.5-.5v-7h0a.79.79,0,0,0,0-.13s0,0,0-.06l-.06-.08a.56.56,0,0,1-.05-.08h0l-.07,0-.09-.05a.35.35,0,0,0-.11,0H38.45a.5.5,0,0,0,0,1ZM29.92,29.37h3v3.78a11.12,11.12,0,0,1-3,2.06Zm-6-3h3v9.72a10.28,10.28,0,0,1-3,0Zm-3,5V35.2a10.75,10.75,0,0,1-3-2.06V31.37Z" style="fill:#c52228"/></svg>