<svg id="Layer_1" data-name="Layer 1" xmlns="http://www.w3.org/2000/svg" viewBox="0 0 64 64"><path d="M53.43,10.55a4.16,4.16,0,0,0-6.22,5.51l-9.67,9.68a8.26,8.26,0,0,0-10.95,0l-5.42-5.42a2.53,2.53,0,1,0-2.11,1.13,2.46,2.46,0,0,0,1.4-.43l5.42,5.42a8.28,8.28,0,0,0,0,11l-9.79,9.8a4.17,4.17,0,0,0-5.52,6.22,4.16,4.16,0,0,0,6.22-5.51l9.8-9.8a8.17,8.17,0,0,0,5,2.06v6.17a4.23,4.23,0,1,0,1,0V40.2a8.17,8.17,0,0,0,5-2.06L42,42.58A2.59,2.59,0,0,0,41.58,44a2.52,2.52,0,0,0,.74,1.79A2.54,2.54,0,0,0,46.65,44a2.49,2.49,0,0,0-.75-1.79,2.52,2.52,0,0,0-3.19-.32l-4.44-4.45a8.28,8.28,0,0,0,0-11l9.66-9.67a4.19,4.19,0,0,0,2.57.9,4.12,4.12,0,0,0,3-1.22A4.17,4.17,0,0,0,53.43,10.55ZM18,20a1.54,1.54,0,0,1,1.08-2.62,1.51,1.51,0,0,1,1.08.45A1.53,1.53,0,1,1,18,20ZM15.77,52.75a3.17,3.17,0,1,1,0-4.5A3.19,3.19,0,0,1,15.77,52.75Zm18.55,0a3.17,3.17,0,1,1,0-4.5A3.19,3.19,0,0,1,34.32,52.75ZM45.2,42.9A1.54,1.54,0,0,1,45.65,44a1.51,1.51,0,0,1-.45,1.08,1.53,1.53,0,0,1-2.17,0A1.51,1.51,0,0,1,42.58,44,1.53,1.53,0,0,1,45.2,42.9Zm-8-5.8a7.28,7.28,0,1,1,0-10.3A7.29,7.29,0,0,1,37.22,37.1Zm15.5-21.35a3.17,3.17,0,1,1,0-4.49A3.19,3.19,0,0,1,52.72,15.75Z" style="fill:#c52228"/><path d="M27.81,35.47a.5.5,0,0,0,0,.7l0,0a.45.45,0,0,0,.34.14.51.51,0,0,0,.36-.15.51.51,0,0,0,0-.71A.5.5,0,0,0,27.81,35.47Z" style="fill:#c52228"/><path d="M26.61,32.88a.51.51,0,0,0-.34.62l.49-.1.47-.21A.5.5,0,0,0,26.61,32.88Z" style="fill:#c52228"/><path d="M26.89,30a.51.51,0,0,0-.61.36l0,.05a.49.49,0,0,0,.37.58l.12,0a.55.55,0,0,0,.5-.4A.5.5,0,0,0,26.89,30Z" style="fill:#c52228"/><path d="M27.83,27.7l0,.05a.5.5,0,0,0,.39.81.53.53,0,0,0,.37-.15.5.5,0,0,0,0-.7A.51.51,0,0,0,27.83,27.7Z" style="fill:#c52228"/><path d="M36,28.58a.52.52,0,0,0,.33-.12.51.51,0,0,0,0-.71.23.23,0,0,0-.07-.07.52.52,0,0,0-.72,0,.48.48,0,0,0,0,.69A.49.49,0,0,0,36,28.58Z" style="fill:#c52228"/><path d="M37.39,31l.15,0a.51.51,0,0,0,.33-.63l-.49.11-.46.2A.49.49,0,0,0,37.39,31Z" style="fill:#c52228"/><path d="M37.52,32.88a.53.53,0,0,0-.62.38.5.5,0,0,0,.36.61l.13,0a.5.5,0,0,0,.48-.37v-.05A.49.49,0,0,0,37.52,32.88Z" style="fill:#c52228"/><path d="M35.64,35.46a.48.48,0,0,0,.34.84.53.53,0,0,0,.36-.13.5.5,0,0,0,0-.71A.49.49,0,0,0,35.64,35.46Z" style="fill:#c52228"/><path d="M32.52,27.57a.5.5,0,0,0-.55.13l-1.78,2a.5.5,0,0,0,0,.71.51.51,0,0,0,.71,0l.91-1v6.51a.5.5,0,0,0,.5.5.5.5,0,0,0,.5-.5V28A.49.49,0,0,0,32.52,27.57Z" style="fill:#c52228"/></svg>