<svg id="Layer_1" data-name="Layer 1" xmlns="http://www.w3.org/2000/svg" viewBox="0 0 64 64"><title>-</title><path d="M40.39,12.17a1,1,0,1,0-1.42,0A1,1,0,0,0,40.39,12.17Z" style="fill:#c52228"/><path d="M36.46,12a.75.75,0,1,0-1.06,0A.75.75,0,0,0,36.46,12Z" style="fill:#c52228"/><path d="M44.24,5.79H10.14a.5.5,0,0,0-.5.5V16.63a.5.5,0,0,0,.5.5H24.69v5.5H10.14a.5.5,0,0,0-.5.5V33.46a.5.5,0,0,0,.5.5H24.69v6h0a.5.5,0,0,0,.5.5H43.74V49.8H28.39a.5.5,0,0,0-.5.5.5.5,0,0,0,.5.5H44.24a.5.5,0,0,0,.5-.5V40a.5.5,0,0,0-.5-.5H29.69V34H44.24a.5.5,0,0,0,.5-.5V23.13a.5.5,0,0,0-.5-.5H29.69v-5.5H44.24a.5.5,0,0,0,.5-.5V6.29A.5.5,0,0,0,44.24,5.79ZM28.69,39.46h-3V34h3ZM43.74,33H10.64V23.63h33.1Zm-15-10.33h-3v-5.5h3Zm15.05-6.5H10.64V6.79h33.1Z" style="fill:#c52228"/><path d="M40.39,29A1,1,0,1,0,39,29,1,1,0,0,0,40.39,29Z" style="fill:#c52228"/><path d="M36.46,28.82a.75.75,0,1,0-1.06,0A.75.75,0,0,0,36.46,28.82Z" style="fill:#c52228"/><path d="M40.39,45.83a1,1,0,0,0,0-1.41,1,1,0,0,0-1.42,0,1,1,0,0,0,0,1.41A1,1,0,0,0,40.39,45.83Z" style="fill:#c52228"/><path d="M36.46,45.66a.77.77,0,0,0,0-1.07.75.75,0,0,0-1.06,0,.77.77,0,0,0,0,1.07A.75.75,0,0,0,36.46,45.66Z" style="fill:#c52228"/><path d="M59.41,26.66a2.55,2.55,0,0,0-3.54,0,2.51,2.51,0,0,0-.68,1.27H49.06a.5.5,0,0,0-.5.5.51.51,0,0,0,.5.5h6.13a2.52,2.52,0,0,0,.68,1.26,2.5,2.5,0,1,0,3.54-3.53Zm-.71,2.83a1.54,1.54,0,0,1-2.12,0,1.52,1.52,0,0,1-.44-1.06,1.5,1.5,0,0,1,.44-1.06,1.5,1.5,0,0,1,2.56,1.06A1.47,1.47,0,0,1,58.7,29.49Z" style="fill:#c52228"/><path d="M49.06,23.91h3.08a.5.5,0,0,0,.5-.5V18.58a2.44,2.44,0,0,0,1.27-.68,2.5,2.5,0,0,0,0-3.53,2.55,2.55,0,0,0-3.54,0,2.5,2.5,0,0,0,0,3.53,2.51,2.51,0,0,0,1.27.68v4.33H49.06a.51.51,0,0,0-.5.5A.5.5,0,0,0,49.06,23.91Zm1.58-7.78a1.52,1.52,0,0,1,.44-1.06,1.5,1.5,0,0,1,2.12,0,1.51,1.51,0,0,1,0,2.13,1.55,1.55,0,0,1-2.12,0A1.52,1.52,0,0,1,50.64,16.13Z" style="fill:#c52228"/><path d="M52.64,38.29V33.44a.5.5,0,0,0-.5-.5H49.06a.5.5,0,0,0,0,1h2.58v4.35a2.44,2.44,0,0,0-1.27.66,2.5,2.5,0,1,0,3.54,0A2.44,2.44,0,0,0,52.64,38.29Zm.56,3.49a1.54,1.54,0,0,1-2.12,0,1.5,1.5,0,0,1,0-2.12,1.5,1.5,0,1,1,2.12,2.12Z" style="fill:#c52228"/><path d="M14.51,36.9A10.66,10.66,0,1,0,25.16,47.56,10.67,10.67,0,0,0,14.51,36.9Zm0,20.31a9.66,9.66,0,1,1,9.65-9.65A9.66,9.66,0,0,1,14.51,57.21Z" style="fill:#c52228"/><path d="M14.86,41.45a.5.5,0,0,0-.7,0L9.27,46.34a.5.5,0,0,0,0,.71.48.48,0,0,0,.7,0l4-4v10.3a.5.5,0,0,0,1,0V43l4,4a.49.49,0,0,0,.35.15.51.51,0,0,0,.36-.15.51.51,0,0,0,0-.71Z" style="fill:#c52228"/></svg>