<svg id="Layer_1" data-name="Layer 1" xmlns="http://www.w3.org/2000/svg" viewBox="0 0 64 64"><path d="M24.09,46.84H6.22V18.37h43.9v9.32a.5.5,0,0,0,.5.5.5.5,0,0,0,.5-.5V10.08a.5.5,0,0,0-.5-.5H5.72a.5.5,0,0,0-.5.5V47.34a.51.51,0,0,0,.5.5H24.09a.5.5,0,0,0,.5-.5A.5.5,0,0,0,24.09,46.84Zm26-36.26v6.79H6.22V10.58Z" style="fill:#c52228"/><path d="M9.57,14.69a1,1,0,1,0-1.44,0A1,1,0,0,0,9.57,14.69Z" style="fill:#c52228"/><circle cx="12.68" cy="13.97" r="0.77" style="fill:#c52228"/><path d="M11.85,36.38H23.74a.5.5,0,0,0,.5-.5V24a.51.51,0,0,0-.5-.5H11.85a.5.5,0,0,0-.5.5V35.88A.5.5,0,0,0,11.85,36.38Zm.5-11.89H23.24V35.38H12.35Z" style="fill:#c52228"/><path d="M11.85,41.79H28.17a.5.5,0,0,0,.5-.5.51.51,0,0,0-.5-.5H11.85a.5.5,0,0,0-.5.5A.5.5,0,0,0,11.85,41.79Z" style="fill:#c52228"/><path d="M44.5,24.39H29.86a.5.5,0,0,0-.5.5.5.5,0,0,0,.5.5H44.5a.5.5,0,0,0,.5-.5A.5.5,0,0,0,44.5,24.39Z" style="fill:#c52228"/><path d="M45,30.39a.5.5,0,0,0-.5-.5H29.86a.5.5,0,0,0-.5.5.5.5,0,0,0,.5.5H44.5A.5.5,0,0,0,45,30.39Z" style="fill:#c52228"/><path d="M29.86,35.38a.5.5,0,0,0-.5.5.5.5,0,0,0,.5.5H34.5a.5.5,0,0,0,.5-.5.51.51,0,0,0-.5-.5Z" style="fill:#c52228"/><path d="M58.63,39,51.1,31.51a.48.48,0,0,0-.54-.11.5.5,0,0,0-.31.46v3.52H39.47a.51.51,0,0,0-.5.5.5.5,0,0,0,.5.5H50.75a.5.5,0,0,0,.5-.5V33.07l6.32,6.32-6.32,6.32V42.89a.51.51,0,0,0-.5-.5H36.2V38.86a.5.5,0,0,0-.31-.46.48.48,0,0,0-.54.11L27.82,46a.48.48,0,0,0,0,.7l7.53,7.53a.49.49,0,0,0,.35.15.41.41,0,0,0,.19,0,.5.5,0,0,0,.31-.46V50.39H47a.5.5,0,0,0,.5-.5.51.51,0,0,0-.5-.5H35.7a.51.51,0,0,0-.5.5v2.82l-6.32-6.32,6.32-6.32v2.82a.51.51,0,0,0,.5.5H50.25v3.53a.5.5,0,0,0,.85.35l7.53-7.53A.48.48,0,0,0,58.63,39Z" style="fill:#c52228"/></svg>