<svg id="Layer_1" data-name="Layer 1" xmlns="http://www.w3.org/2000/svg" viewBox="0 0 64 64"><title>-</title><path d="M17.26,20.75c1.68.8,11,4.57,12.51,5.27s2.51.7,4.4-.24,10.65-4.58,12.32-5.45c.88-.45,1.26-.8,1.26-1.12V16c0-.31-.42-.59-1.26-.9L34.44,10.45c-1.67-.63-2.34-.6-4.29.1s-11.28,4.37-12.92,5c-.8.31-1.26.62-1.26.94h0v3.18C15.94,20,16.43,20.36,17.26,20.75Zm15.23.45-5.13-2.13L34.72,18Zm11.14-5.06-4.37,1.71-.45.17-4.33-1.71,4.82-1.92ZM30.88,13l-.7-1.33,2.2.87,2.1-.7-.56,1.37,2.13.8-2.76.28-.63,1.46-1-1.6-3.18-.28ZM25.4,14.85c2.17,0,4,.7,4,1.53s-1.75,1.54-4,1.54-3.95-.7-3.95-1.54S23.23,14.85,25.4,14.85ZM17.26,26.2c1.68.8,11,4.57,12.51,5.27s2.51.7,4.4-.25,10.65-4.57,12.32-5.44c.88-.46,1.26-.81,1.26-1.12V21.48c0,.32-.42.63-1.22,1.08-1.68.88-10.48,4.51-12.33,5.45s-2.9,1-4.37.25S19,23.79,17.3,23c-.84-.38-1.33-.73-1.33-1v3.21c0,.31.46.63,1.29,1.05Zm0,5.23c1.68.81,11,4.58,12.51,5.28s2.51.7,4.4-.25S44.82,31.89,46.49,31c.88-.45,1.26-.8,1.26-1.11V26.72c0,.31-.42.63-1.22,1.08-1.68.88-10.48,4.51-12.33,5.45s-2.9,1-4.37.24S19,29,17.3,28.22c-.84-.38-1.33-.73-1.33-1v3.22C15.94,30.67,16.43,31,17.26,31.43Zm-.14,12.26A1.19,1.19,0,0,0,15.9,42.5a5,5,0,0,0-2.93.91c-.18.07-.18.28-.53.42v-.17a1.21,1.21,0,0,0-1.25-1.19A1.17,1.17,0,0,0,10,43.66v9a1.21,1.21,0,0,0,1.19,1.22,1.24,1.24,0,0,0,1.25-1.22V48.37c.35-.31.42-1.19,1-1.92a3.4,3.4,0,0,1,1.08-1.12,2.21,2.21,0,0,1,1.4-.45A1.19,1.19,0,0,0,17.12,43.69ZM22,42.47A5.76,5.76,0,0,0,22,54a5.88,5.88,0,0,0,4.12-1.5,1,1,0,0,0,0-1.5,1.25,1.25,0,0,0-1.71.07,3.62,3.62,0,0,1-2.37.56,3.53,3.53,0,0,1-2.2-1,3.62,3.62,0,0,1-.77-1.51h7.3a1.05,1.05,0,0,0,1.12-.94s0-.17,0-.21v-.1A5.34,5.34,0,0,0,22,42.47Zm-3,4.5a3.51,3.51,0,0,1,3.11-2.44A4.07,4.07,0,0,1,25.43,47Zm20.39,1.26V39.12a1.24,1.24,0,0,0-1.22-1.26,1.22,1.22,0,0,0-1.22,1.26v4.33a6.08,6.08,0,0,0-3.11-1,5.75,5.75,0,0,0,0,11.49,5.57,5.57,0,0,0,3.1-1,1.22,1.22,0,0,0,1.23,1,1.25,1.25,0,0,0,1.25-1.26ZM35.88,50.5a3,3,0,0,1-4.33,0,3.32,3.32,0,0,1,0-4.57,2.91,2.91,0,0,1,2.16-1,3,3,0,0,1,2.17,1,3.28,3.28,0,0,1,.9,2.3A3,3,0,0,1,35.88,50.5ZM42.3,37.86a1.22,1.22,0,0,0-1.22,1.26v.49a1.22,1.22,0,1,0,2.44,0v-.49A1.22,1.22,0,0,0,42.3,37.86Zm0,4.61a1.2,1.2,0,0,0-1.22,1.26v9a1.22,1.22,0,1,0,2.44,0V43.76A1.23,1.23,0,0,0,42.3,42.47Zm11.21,6.39a3.46,3.46,0,0,0-1.64-1.29,4.89,4.89,0,0,0-2.13-.6h0l0-.1A5,5,0,0,1,48,46.28c-.17-.11-.24-.21-.24-.25a.33.33,0,0,1,0-.21c0-.1.07-.31.39-.52a2.24,2.24,0,0,1,1.4-.42,4.19,4.19,0,0,1,2.13.84,1.24,1.24,0,0,0,1.71-.32A1.28,1.28,0,0,0,53,43.69a6,6,0,0,0-3.45-1.26,5.2,5.2,0,0,0-2.83.84,3.18,3.18,0,0,0-1.37,2.52,2.71,2.71,0,0,0,.39,1.43,3.94,3.94,0,0,0,1.57,1.26,4.93,4.93,0,0,0,2,.52h0a17.26,17.26,0,0,1,1.85.73.88.88,0,0,1,.31.32.45.45,0,0,1,.07.24,1,1,0,0,1-.42.7,3,3,0,0,1-1.57.45,3.94,3.94,0,0,1-2.51-1,1.2,1.2,0,0,0-1.72.18,1.23,1.23,0,0,0,.18,1.71,6.55,6.55,0,0,0,4.09,1.57,5.45,5.45,0,0,0,3-.91,2.9,2.9,0,0,0,.94-4.12Z" style="fill:#c52228"/></svg>