<svg id="Layer_1" data-name="Layer 1" xmlns="http://www.w3.org/2000/svg" viewBox="0 0 512 640"><title>amp-account-login</title><path d="M446.66,377V339h39.07a1,1,0,0,0,1-1V285.9a9.85,9.85,0,1,0-2,0V337H446.66V195.36a11,11,0,0,0-11-11H411.22V127.16h53.71a9.85,9.85,0,1,0,0-2H410.22a1,1,0,0,0-1,1v58.17h-38v-123a9.82,9.82,0,1,0-2,0v123h-38V103a9.82,9.82,0,1,0-2,0v81.32H76.38a11,11,0,0,0-11,11v63.39H33.47V151.92a9.82,9.82,0,1,0-2,0V259.75a1,1,0,0,0,1,1H65.35v38H0v2H65.35v38H32.15a9.79,9.79,0,1,0,0,2H65.35V362.6a1,1,0,0,0,2,0V195.36a9,9,0,0,1,9-9H435.63a9,9,0,0,1,9,9V389.75a1,1,0,0,0,2,0V379H512v-2Zm33.54-95.36a7.83,7.83,0,1,1,11.07,0A7.82,7.82,0,0,1,480.2,281.67Zm-11-161a7.83,7.83,0,1,1,0,11.07A7.79,7.79,0,0,1,469.16,120.63ZM26.93,147.68a7.87,7.87,0,1,1,6,2.27.9.9,0,0,0-.86,0A7.79,7.79,0,0,1,26.93,147.68Zm3.24,192.07h0A7.72,7.72,0,0,1,27.9,345a7.85,7.85,0,0,1-11.08,0,7.83,7.83,0,0,1,0-11.07,7.83,7.83,0,0,1,13.37,5.54A2.45,2.45,0,0,1,30.17,339.75Zm294.51-241A7.83,7.83,0,1,1,335.75,87.7a7.83,7.83,0,0,1-11.07,11.07Zm40-41.64a7.83,7.83,0,1,1,11.07-11.07,7.83,7.83,0,0,1-11.07,11.07Z" style="fill:#c52529"/><path d="M476.93,456.14V419.67h9.57A9.82,9.82,0,0,0,503.13,425a9.83,9.83,0,0,0-6.95-16.78,9.81,9.81,0,0,0-9.81,9.47h-9.44v-4.34a12.85,12.85,0,0,0-12.84-12.84H387.48a12.85,12.85,0,0,0-12.84,12.84v42.81H282.16V411.2h79.48a1,1,0,0,0,0-2h-249a1,1,0,0,0,0,2H229.85v44.94H98.38l.86-7.46h4.11a4,4,0,0,0,0-8H85.48V437L100.58,422a9.48,9.48,0,0,0-13.41-13.41l-1.69,1.69V399l3.17-3.16a1,1,0,1,0-1.42-1.42l-1.75,1.75v-3.6a19,19,0,0,0-33.92-11.73l-2.77-2.76a1,1,0,0,0-1.41,1.41l3,3A19,19,0,0,0,47.84,389l-2.11-2.11a9.48,9.48,0,1,0-13.41,13.41L47.48,415.4v13.23l-2.11-2.11a1,1,0,0,0-1.42,0,1,1,0,0,0,0,1.41l3.53,3.53v9.22H29.35a4,4,0,0,0,0,8h4.11l.86,7.46H0v2H34.55l4.81,41.79a1,1,0,0,0,1,.89h52a1,1,0,0,0,1-.89l4.81-41.79h131.7v10.23H219a4,4,0,0,0,0,8h74a4,4,0,0,0,0-8H282.16V458.14h92.48V545.4a12.85,12.85,0,0,0,12.84,12.83h76.61a12.85,12.85,0,0,0,12.84-12.83V458.14H512v-2Zm13.71-43.65a7.84,7.84,0,1,1,0,11.07A7.77,7.77,0,0,1,490.64,412.49Zm-405.16.57,3.11-3.1a7.47,7.47,0,0,1,10.57,10.57L85.48,434.21Zm-2-20.46v5.6l-3.16,3.17a1,1,0,0,0,0,1.41,1,1,0,0,0,1.41,0L83.48,401v39.65H74.09v-14l2.78-2.79a1,1,0,0,0-1.41-1.41l-1.37,1.37V389.22l2.78-2.78a1,1,0,0,0,0-1.42,1,1,0,0,0-1.41,0l-1.37,1.37v-5.18a7.54,7.54,0,0,0-1.44-4.43A17,17,0,0,1,83.48,392.6ZM60.87,416.8l1.75,1.75a1,1,0,0,0,.71.29,1,1,0,0,0,.71-1.7L60.87,414V401l1.75,1.75a1,1,0,0,0,.71.3,1,1,0,0,0,.71-.3,1,1,0,0,0,0-1.41l-3.17-3.17v-17a5.62,5.62,0,0,1,5-5.58l.57,0,.57,0a5.62,5.62,0,0,1,5,5.58v7.18l-3.55,3.55a1,1,0,0,0,.71,1.7,1,1,0,0,0,.71-.29l2.13-2.13v34.67l-3.55,3.54a1,1,0,0,0,0,1.42,1,1,0,0,0,.71.29,1,1,0,0,0,.71-.29l2.13-2.13v12H60.87ZM49.48,433.46l1.39,1.39a1,1,0,0,0,.7.29,1,1,0,0,0,.71-.29,1,1,0,0,0,0-1.42l-2.8-2.8v-38A16.83,16.83,0,0,1,51.85,384l2.44,2.45a1,1,0,0,0,.71.29,1,1,0,0,0,.71-.29,1,1,0,0,0,0-1.42L53,382.3a17,17,0,0,1,7.32-5.52,7.54,7.54,0,0,0-1.44,4.43v15l-1.75-1.75a1,1,0,0,0-1.41,0,1,1,0,0,0,0,1.42L58.87,399V412l-1.75-1.75a1,1,0,0,0-1.41,0,1,1,0,0,0,0,1.42l3.16,3.16v25.88H49.48ZM33.74,398.83a7.47,7.47,0,1,1,10.57-10.57l3.22,3.21c0,.38-.05.75-.05,1.13v20Zm57.72,100H41.24l-5.77-50.14H97.23ZM29.35,446.68a2,2,0,0,1,0-4h74a2,2,0,0,1,0,4Zm202.5,10.46h0V411.2h48.31v57.17H231.85ZM293,470.37a2,2,0,0,1,0,4H219a2,2,0,0,1,0-4Zm83.64-57a10.85,10.85,0,0,1,10.84-10.84h76.61a10.86,10.86,0,0,1,10.84,10.84V531.21H376.64ZM474.93,545.4a10.85,10.85,0,0,1-10.84,10.83H387.48a10.85,10.85,0,0,1-10.84-10.83V533.21h98.29Z" style="fill:#c52529"/><path d="M320.55,315.64a66.51,66.51,0,0,0-19.11-64,66.89,66.89,0,0,0-21-13.22,27.13,27.13,0,0,0-49,0,66.89,66.89,0,0,0-21,13.22A66.42,66.42,0,0,0,290,357.19a25.8,25.8,0,1,0,30.59-41.55Zm-22.12-64a64.47,64.47,0,0,1,20.34,62.83A25.76,25.76,0,0,0,295.4,313,39.45,39.45,0,0,0,264,276.07a27.18,27.18,0,0,0,19.13-24.42c0-.5,0-1,0-1.52a26.92,26.92,0,0,0-1.57-9.09A64.21,64.21,0,0,1,298.43,251.65ZM256,225a25.16,25.16,0,0,1,25.13,25.13c0,.51,0,1-.05,1.52a25.13,25.13,0,0,1-50.16,0c0-.5,0-1,0-1.52A25.16,25.16,0,0,1,256,225Zm-39.44,89.71V351a64.64,64.64,0,0,1-24.94-50.89A64.09,64.09,0,0,1,230.44,241a26.92,26.92,0,0,0-1.57,9.09c0,.51,0,1,0,1.52a27.19,27.19,0,0,0,19.14,24.43A39.51,39.51,0,0,0,216.56,314.71ZM256,364.53a64,64,0,0,1-37.44-12V314.71a37.43,37.43,0,0,1,74.86-.75,25.8,25.8,0,0,0-5.1,41.87A64.29,64.29,0,0,1,256,364.53Zm49.64-4a23.82,23.82,0,1,1,23.82-23.82A23.85,23.85,0,0,1,305.64,360.52Z" style="fill:#c52529"/><path d="M317,329.39h-2.11v-.56a9.2,9.2,0,0,0-18.4,0v.56h-2.1a1,1,0,0,0-1,1v19.5a1,1,0,0,0,1,1H317a1,1,0,0,0,1-1v-19.5A1,1,0,0,0,317,329.39Zm-18.51-.56a7.2,7.2,0,0,1,14.4,0v.56h-14.4ZM316,348.89H295.34v-17.5H316Z" style="fill:#c52529"/><path d="M305.64,335.78a2.19,2.19,0,0,0-1,4.14v3.52a1,1,0,0,0,2,0v-3.52a2.19,2.19,0,0,0-1-4.14Z" style="fill:#c52529"/><path d="M425.78,538.25a6.47,6.47,0,1,0,6.48,6.47A6.47,6.47,0,0,0,425.78,538.25Zm0,10.94a4.47,4.47,0,1,1,4.48-4.47A4.47,4.47,0,0,1,425.78,549.19Z" style="fill:#c52529"/><path d="M454.71,447.1a1,1,0,0,0-.78-.25,45.22,45.22,0,0,1-26.09-5.07l-1.59-.84-.1,0-.12,0a.61.61,0,0,0-.13,0h-.12l-.13,0a.25.25,0,0,0-.12,0l-.13,0-.09,0-1.58.84a45.33,45.33,0,0,1-26.09,5.07,1,1,0,0,0-1.11,1v19.22a36,36,0,0,0,21.28,32.85l7.56,3.38h.05a.85.85,0,0,0,.72,0h.05l7.56-3.38A36,36,0,0,0,455,467.06V447.84A1,1,0,0,0,454.71,447.1Zm-29.93,53.74-6.15-2.75a34,34,0,0,1-20.1-31V448.94a47.22,47.22,0,0,0,26.14-5.4l.11-.06v13.25a15.41,15.41,0,0,0,0,30.75Zm1-15.31a13.43,13.43,0,0,1,0-26.85h0a13.43,13.43,0,0,1,0,26.85ZM453,467.06a34,34,0,0,1-20.11,31l-6.15,2.75V487.48a15.41,15.41,0,0,0,0-30.75V443.48l.12.06a47.1,47.1,0,0,0,26.14,5.4Z" style="fill:#c52529"/><path d="M422.71,478.33a1,1,0,0,0,.81.42h0a1,1,0,0,0,.81-.44L432,467a1,1,0,0,0-1.66-1.12L423.5,476l-2.31-3.19a1,1,0,0,0-1.39-.23,1,1,0,0,0-.23,1.4Z" style="fill:#c52529"/></svg>