<svg id="Layer_1" data-name="Layer 1" xmlns="http://www.w3.org/2000/svg" viewBox="0 0 199.91 199.63"><defs><style>.cls-1{fill:#f95b26;}</style></defs><title>boldgrid-mark</title><rect class="cls-1" x="39.82" y="109.47" width="95.11" height="53.58" rx="7.45" ry="7.45"/><rect class="cls-1" x="39.82" y="36.57" width="62.52" height="53.58" rx="6.48" ry="6.48"/><path class="cls-1" d="M172.64,199.63H27.27A27.28,27.28,0,0,1,0,172.4V27.23A27.28,27.28,0,0,1,27.27,0H172.64a27.28,27.28,0,0,1,27.27,27.23v6.13a7.34,7.34,0,0,1-14.68,0V27.23a12.59,12.59,0,0,0-12.59-12.57H27.27A12.59,12.59,0,0,0,14.68,27.23V172.4A12.59,12.59,0,0,0,27.27,185H172.64a12.59,12.59,0,0,0,12.59-12.57V101.93a12.59,12.59,0,0,0-12.59-12.57h-30a7.33,7.33,0,1,1,0-14.66h30a27.28,27.28,0,0,1,27.27,27.23V172.4A27.28,27.28,0,0,1,172.64,199.63Z"/></svg>