<svg id="Layer_1" data-name="Layer 1" xmlns="http://www.w3.org/2000/svg" viewBox="0 0 357 45.12"><title>quickstarter-logo</title><path d="M92.34,31.72a21.07,21.07,0,0,0,2.77-4.16,22.18,22.18,0,0,0,1.75-4.87,23.77,23.77,0,0,0,.61-5.4,19.41,19.41,0,0,0-1.08-6.48,15.67,15.67,0,0,0-3.1-5.25A14.45,14.45,0,0,0,88.36,2,16.05,16.05,0,0,0,81.83.76a20,20,0,0,0-5.59.76,19.41,19.41,0,0,0-4.89,2.1,5.93,5.93,0,0,0-.62.4l6,4.19a9.86,9.86,0,0,1,4.12-.85,8.17,8.17,0,0,1,3.46.72,7.33,7.33,0,0,1,2.57,2.06,9.48,9.48,0,0,1,1.6,3.21A14.42,14.42,0,0,1,89,17.49a21.07,21.07,0,0,1-.76,5.92A13.93,13.93,0,0,1,86.06,28a9.78,9.78,0,0,1-3.44,2.94,9.68,9.68,0,0,1-4.55,1,8.08,8.08,0,0,1-3.48-.72,8.67,8.67,0,0,1-1-.6l-7,4a14.5,14.5,0,0,0,4.09,2.66,16.12,16.12,0,0,0,6.55,1.29,20.51,20.51,0,0,0,4-.39l3.58,5.16a3.41,3.41,0,0,0,1.91,1.43,9.16,9.16,0,0,0,2.61.35H96.1L88.71,35A19.48,19.48,0,0,0,92.34,31.72Z" style="fill:#07233c"/><path d="M110,11.83l-2,16.71c0,.27-.06.52-.07.75s0,.44,0,.64a2.88,2.88,0,0,0,.47,1.88,1.76,1.76,0,0,0,1.41.53,3.44,3.44,0,0,0,1.66-.47,6.54,6.54,0,0,0,1.69-1.32,10.26,10.26,0,0,0,1.51-2.06,13.41,13.41,0,0,0,1.16-2.72l1.7-13.94h7.87l-3.2,26.33h-4c-1.86,0-2.79-.86-2.79-2.59V33.89a13.14,13.14,0,0,1-4.09,3.53,9.71,9.71,0,0,1-4.55,1.14,6.64,6.64,0,0,1-2.7-.53A5.82,5.82,0,0,1,102,36.47a7.24,7.24,0,0,1-1.4-2.54,11.12,11.12,0,0,1-.49-3.46c0-.31,0-.62,0-.94l.09-1,2-16.71Z" style="fill:#07233c"/><path d="M139.59,11.83l-3.15,26.33h-7.77l3.15-26.33Zm1.47-7.21a4,4,0,0,1-.41,1.77,4.89,4.89,0,0,1-1.06,1.44,5.11,5.11,0,0,1-1.52,1,4.21,4.21,0,0,1-1.73.37,4.05,4.05,0,0,1-1.71-.37,4.58,4.58,0,0,1-1.43-1,4.89,4.89,0,0,1-1-1.44,4.08,4.08,0,0,1-.38-1.77,4.16,4.16,0,0,1,.38-1.78,4.71,4.71,0,0,1,1-1.47,4.87,4.87,0,0,1,1.46-1,4,4,0,0,1,1.7-.37,4.39,4.39,0,0,1,1.75.36,4.48,4.48,0,0,1,1.48,1,5,5,0,0,1,1,1.47A4.09,4.09,0,0,1,141.06,4.62Z" style="fill:#07233c"/><path d="M161.27,35.9a11.63,11.63,0,0,1-2.42,1.55,11.1,11.1,0,0,1-2.65.85,16.64,16.64,0,0,1-3.11.26,10.6,10.6,0,0,1-4.16-.78,8.84,8.84,0,0,1-3.16-2.24,9.82,9.82,0,0,1-2-3.5,13.92,13.92,0,0,1-.71-4.62,17.81,17.81,0,0,1,1.05-6.12A15.91,15.91,0,0,1,147,16.22a14.16,14.16,0,0,1,4.48-3.46,12.53,12.53,0,0,1,5.68-1.28,10.53,10.53,0,0,1,4.54.9,9.34,9.34,0,0,1,3.38,2.83l-2.53,2.92a3.5,3.5,0,0,1-.64.49,1.45,1.45,0,0,1-.79.22,1.54,1.54,0,0,1-.85-.22l-.75-.45a5.1,5.1,0,0,0-1-.46,4.25,4.25,0,0,0-1.52-.22,4.31,4.31,0,0,0-2.27.68,6.36,6.36,0,0,0-2,1.94,10.46,10.46,0,0,0-1.38,3.12,15.5,15.5,0,0,0-.52,4.21,7.87,7.87,0,0,0,.3,2.3,4.82,4.82,0,0,0,.84,1.63,3.59,3.59,0,0,0,1.24,1,3.63,3.63,0,0,0,1.53.33,4.69,4.69,0,0,0,2-.34,7.65,7.65,0,0,0,1.31-.75l1-.75a2,2,0,0,1,1.17-.34,1.69,1.69,0,0,1,.75.18,1.85,1.85,0,0,1,.62.48l2,2.39A24,24,0,0,1,161.27,35.9Z" style="fill:#07233c"/><path d="M178.88.15l-2.61,21.3h.53a2.35,2.35,0,0,0,1.07-.2,2.48,2.48,0,0,0,.81-.74l5.43-7.41a3.18,3.18,0,0,1,1.07-1,3,3,0,0,1,1.42-.31h7.06L186.3,21.2a7.33,7.33,0,0,1-1.12,1.17,9.7,9.7,0,0,1-1.27.89,4.42,4.42,0,0,1,.93,1,7.67,7.67,0,0,1,.7,1.31l5.28,12.59H184a2.94,2.94,0,0,1-1.38-.29,1.93,1.93,0,0,1-.85-1l-3.66-9.32a1.7,1.7,0,0,0-.59-.82,2.09,2.09,0,0,0-1-.19h-.82l-1.42,11.65h-7.77l4.68-38Z" style="fill:#07233c"/><path d="M222.06,8.58a3.21,3.21,0,0,1-.87.89,1.92,1.92,0,0,1-1.05.28A2.16,2.16,0,0,1,219,9.37l-1.31-.84A11.66,11.66,0,0,0,216,7.69a6,6,0,0,0-2.21-.38,5.84,5.84,0,0,0-2,.33,4.09,4.09,0,0,0-1.46.92,3.77,3.77,0,0,0-.87,1.37,4.78,4.78,0,0,0-.29,1.72,2.55,2.55,0,0,0,.57,1.7,5.24,5.24,0,0,0,1.52,1.21,15.4,15.4,0,0,0,2.15.95c.79.29,1.61.6,2.45.94a24,24,0,0,1,2.46,1.17,9.11,9.11,0,0,1,2.16,1.65A7.58,7.58,0,0,1,222,21.66a8.82,8.82,0,0,1,.57,3.35,14.31,14.31,0,0,1-1,5.25,12.91,12.91,0,0,1-2.77,4.31,13.24,13.24,0,0,1-4.38,2.92,15.06,15.06,0,0,1-5.8,1.07,14.61,14.61,0,0,1-3.21-.35,17,17,0,0,1-3.1-1,16.25,16.25,0,0,1-2.75-1.54,10.31,10.31,0,0,1-2.16-2l2.94-3.86a2.56,2.56,0,0,1,.87-.71,2.21,2.21,0,0,1,1.06-.28,2.32,2.32,0,0,1,1.39.5l1.48,1.09A10.55,10.55,0,0,0,207,31.52a6.38,6.38,0,0,0,2.66.49,4.8,4.8,0,0,0,3.56-1.25A5,5,0,0,0,214.5,27a3,3,0,0,0-.57-1.88,4.62,4.62,0,0,0-1.5-1.24,13.11,13.11,0,0,0-2.12-.91c-.8-.26-1.61-.54-2.44-.85a18.74,18.74,0,0,1-2.43-1.08,7.43,7.43,0,0,1-2.12-1.62,7.72,7.72,0,0,1-1.5-2.46,10,10,0,0,1-.57-3.6,12.57,12.57,0,0,1,.92-4.73,12.16,12.16,0,0,1,2.66-4A12.78,12.78,0,0,1,209,1.85a14.53,14.53,0,0,1,11.37.21,12.71,12.71,0,0,1,2.36,1.38,9.33,9.33,0,0,1,1.8,1.74Z" style="fill:#07233c"/><path d="M228,32.47V32c0-.17,0-.41,0-.72s.07-.73.13-1.25.13-1.2.24-2l1.34-10.77h-2.11a1.12,1.12,0,0,1-.81-.31,1.27,1.27,0,0,1-.33-1s0-.16.05-.44.07-.57.1-.89.07-.6.11-.87,0-.43,0-.46l.07-.69,4-.81,2.21-6.42a1.63,1.63,0,0,1,1.72-1.22h4.27l-1,7.69H244l-.66,5.38h-5.89L236.15,27.6c-.08.69-.14,1.24-.19,1.63s-.07.71-.1.92,0,.35-.05.43a1,1,0,0,0,0,.14,2.1,2.1,0,0,0,.34,1.23,1.23,1.23,0,0,0,1.08.5,2.09,2.09,0,0,0,.67-.09,2.29,2.29,0,0,0,.47-.21l.38-.2a.91.91,0,0,1,.41-.09.73.73,0,0,1,.53.17,1.46,1.46,0,0,1,.33.52l1.73,3.73A11.71,11.71,0,0,1,238.36,38a12,12,0,0,1-3.63.57,8.67,8.67,0,0,1-2.74-.41,5.94,5.94,0,0,1-2.09-1.22A5.62,5.62,0,0,1,228.53,35,6.72,6.72,0,0,1,228,32.47Z" style="fill:#07233c"/><path d="M266.87,38.16h-4.21a3.61,3.61,0,0,1-1.23-.19,2.06,2.06,0,0,1-.79-.52,2,2,0,0,1-.41-.79,4.35,4.35,0,0,1-.11-1V33.79a13.56,13.56,0,0,1-3.6,3.51,8,8,0,0,1-4.37,1.26,6.83,6.83,0,0,1-2.74-.57,6.58,6.58,0,0,1-2.34-1.72,8.41,8.41,0,0,1-1.62-3,13,13,0,0,1-.61-4.23,17.88,17.88,0,0,1,1.3-6.79,17.42,17.42,0,0,1,16.32-10.88,28.89,28.89,0,0,1,3.8.26,18.86,18.86,0,0,1,3.81.91ZM255.3,32.34A2.66,2.66,0,0,0,257,31.7a7.2,7.2,0,0,0,1.54-1.77,15.11,15.11,0,0,0,1.33-2.61,24.48,24.48,0,0,0,1-3.2l.92-7.29h-.46a7.2,7.2,0,0,0-3.52.87A8.69,8.69,0,0,0,255.09,20a11.07,11.07,0,0,0-1.76,3.46,13.68,13.68,0,0,0-.62,4.2,9.68,9.68,0,0,0,.2,2.16,4.69,4.69,0,0,0,.55,1.43,2.21,2.21,0,0,0,.81.8A2.09,2.09,0,0,0,255.3,32.34Z" style="fill:#07233c"/><path d="M272.87,38.16l3.19-26.33h4.07a2.89,2.89,0,0,1,1.9.57,2.29,2.29,0,0,1,.69,1.87v3a14.18,14.18,0,0,1,3.3-4.13,5.74,5.74,0,0,1,3.68-1.45,5,5,0,0,1,2.1.48l-1.42,7.29a6.24,6.24,0,0,0-2.46-.56,4.51,4.51,0,0,0-3.47,1.76A14,14,0,0,0,282,26.33l-1.42,11.83Z" style="fill:#07233c"/><path d="M295.46,32.47V32c0-.17,0-.41,0-.72s.07-.73.13-1.25.14-1.2.24-2l1.34-10.77h-2.1a1.13,1.13,0,0,1-.82-.31,1.27,1.27,0,0,1-.33-1s0-.16.05-.44.07-.57.1-.89.07-.6.11-.87,0-.43,0-.46l.07-.69,4-.81,2.21-6.42a1.63,1.63,0,0,1,1.72-1.22h4.27l-1,7.69h5.89l-.66,5.38H304.9L303.64,27.6c-.09.69-.15,1.24-.19,1.63s-.08.71-.11.92,0,.35,0,.43a1,1,0,0,0,0,.14,2.1,2.1,0,0,0,.34,1.23,1.23,1.23,0,0,0,1.08.5,2.09,2.09,0,0,0,.67-.09,2.29,2.29,0,0,0,.47-.21l.39-.2a.84.84,0,0,1,.4-.09.73.73,0,0,1,.53.17,1.46,1.46,0,0,1,.33.52l1.73,3.73A11.71,11.71,0,0,1,305.84,38a12,12,0,0,1-3.63.57,8.67,8.67,0,0,1-2.74-.41,5.94,5.94,0,0,1-2.09-1.22A5.62,5.62,0,0,1,296,35,6.72,6.72,0,0,1,295.46,32.47Z" style="fill:#07233c"/><path d="M335.73,18.3a7.54,7.54,0,0,1-.72,3.31,6.63,6.63,0,0,1-2.47,2.65,17.1,17.1,0,0,1-4.75,2,48.21,48.21,0,0,1-7.5,1.27,5.9,5.9,0,0,0,1.18,3.93,4.28,4.28,0,0,0,3.34,1.24,8,8,0,0,0,1.8-.17,6.08,6.08,0,0,0,1.33-.46,9.7,9.7,0,0,0,1-.58l.88-.59a5.19,5.19,0,0,1,.87-.46,3.11,3.11,0,0,1,1-.17,1.51,1.51,0,0,1,.74.19,2.32,2.32,0,0,1,.64.49l2,2.36a27,27,0,0,1-2.73,2.38,15.11,15.11,0,0,1-2.74,1.65,13,13,0,0,1-3,.95,18.69,18.69,0,0,1-3.47.3,11.14,11.14,0,0,1-4.29-.8,9.74,9.74,0,0,1-3.36-2.25A10.11,10.11,0,0,1,313.4,32a12.82,12.82,0,0,1-.78-4.57,18,18,0,0,1,.47-4.11,16.71,16.71,0,0,1,1.35-3.77,15.75,15.75,0,0,1,2.14-3.25,14.1,14.1,0,0,1,2.86-2.55,13.18,13.18,0,0,1,7.5-2.26,10.89,10.89,0,0,1,3.75.6,8.84,8.84,0,0,1,2.75,1.59,6.94,6.94,0,0,1,1.7,2.2A5.57,5.57,0,0,1,335.73,18.3Zm-9.25-1.52a4.56,4.56,0,0,0-3.42,1.56,9.8,9.8,0,0,0-2.21,4.28,35.35,35.35,0,0,0,4-.8,9.77,9.77,0,0,0,2.36-.91,2.8,2.8,0,0,0,1.13-1.07,2.6,2.6,0,0,0,.3-1.23,1.86,1.86,0,0,0-.51-1.24A2.05,2.05,0,0,0,326.48,16.78Z" style="fill:#07233c"/><path d="M338.06,38.16l3.2-26.33h4.06a2.92,2.92,0,0,1,1.91.57,2.32,2.32,0,0,1,.68,1.87v3a14.52,14.52,0,0,1,3.3-4.13,5.76,5.76,0,0,1,3.68-1.45,5,5,0,0,1,2.11.48l-1.42,7.29a6.27,6.27,0,0,0-2.46-.56,4.49,4.49,0,0,0-3.47,1.76,13.84,13.84,0,0,0-2.45,5.68l-1.42,11.83Z" style="fill:#07233c"/><path d="M51.09,2A1.41,1.41,0,0,0,49.67.32H35.87a2.13,2.13,0,0,0-2,1.72,1.4,1.4,0,0,0,1.42,1.73H49.06A2.15,2.15,0,0,0,51.09,2Z" style="fill:#e62837"/><path d="M28.55,2A1.4,1.4,0,0,0,27.13.32H23.68a2.15,2.15,0,0,0-2,1.72,1.41,1.41,0,0,0,1.42,1.73h3.45A2.15,2.15,0,0,0,28.55,2Z" style="fill:#e62837"/><path d="M49.57,10.66a1.41,1.41,0,0,0-1.42-1.72H27.46a2.15,2.15,0,0,0-2,1.72,1.41,1.41,0,0,0,1.42,1.73H47.54A2.15,2.15,0,0,0,49.57,10.66Z" style="fill:#e62837"/><path d="M20.25,10.66a1.4,1.4,0,0,0-1.42-1.72H11.47a2.15,2.15,0,0,0-2,1.72,1.41,1.41,0,0,0,1.42,1.73h7.36A2.15,2.15,0,0,0,20.25,10.66Z" style="fill:#e62837"/><path d="M37.63,19.28a1.4,1.4,0,0,0-1.42-1.72H19a2.13,2.13,0,0,0-2,1.72A1.41,1.41,0,0,0,18.37,21H35.6A2.15,2.15,0,0,0,37.63,19.28Z" style="fill:#e62837"/><path d="M48.05,19.28a1.41,1.41,0,0,0-1.42-1.72H44.9a2.15,2.15,0,0,0-2,1.72A1.42,1.42,0,0,0,44.29,21H46A2.16,2.16,0,0,0,48.05,19.28Z" style="fill:#e62837"/><path d="M19.08,36.52a1.4,1.4,0,0,0-1.42-1.72H15.93a2.13,2.13,0,0,0-2,1.72,1.4,1.4,0,0,0,1.42,1.72h1.72A2.15,2.15,0,0,0,19.08,36.52Z" style="fill:#e62837"/><path d="M0,27.9a1.41,1.41,0,0,0,1.42,1.73h29.3a2.16,2.16,0,0,0,2-1.73,1.4,1.4,0,0,0-1.42-1.72H2.05A2.13,2.13,0,0,0,0,27.9Z" style="fill:#e62837"/><path d="M38.08,27.9a1.41,1.41,0,0,0,1.42,1.73h5a2.16,2.16,0,0,0,2-1.73,1.41,1.41,0,0,0-1.42-1.72h-5A2.15,2.15,0,0,0,38.08,27.9Z" style="fill:#e62837"/><path d="M45,36.52a1.41,1.41,0,0,0-1.42-1.72H26.35a2.15,2.15,0,0,0-2,1.72,1.4,1.4,0,0,0,1.42,1.72H43A2.15,2.15,0,0,0,45,36.52Z" style="fill:#e62837"/><path d="M83.9,20.57l-12.75,7.2-7,4L52.57,38.26a1.72,1.72,0,0,1-.4.17l-.16,0-.25,0a1.2,1.2,0,0,1-1.12-.7,1.3,1.3,0,0,1-.1-.49,1.15,1.15,0,0,1,0-.26l6.25-35.4A1.79,1.79,0,0,1,58.52.19h.19a1.33,1.33,0,0,1,.37.12l.17.1,8.5,6,5.81,4.11,10.77,7.59A1.49,1.49,0,0,1,83.9,20.57Z" style="fill:#e62837"/></svg>