<?xml version="1.0" encoding="utf-8"?>
<!-- Generator: Adobe Illustrator 24.0.0, SVG Export Plug-In . SVG Version: 6.00 Build 0)  -->
<svg version="1.1" id="Layer_1" xmlns="http://www.w3.org/2000/svg" xmlns:xlink="http://www.w3.org/1999/xlink" x="0px" y="0px"
	 viewBox="0 0 20 20" style="enable-background:new 0 0 20 20;" xml:space="preserve">
<style type="text/css">
	.st0{fill:#C52228;}
</style>
<path class="st0" d="M10,0.5c-5.3,0-9.5,4.3-9.5,9.5s4.3,9.5,9.5,9.5s9.5-4.3,9.5-9.5S15.3,0.5,10,0.5z M1.5,10
	c0-2.3,0.9-4.3,2.3-5.8l11.4,12.4c-1.5,1.2-3.3,1.9-5.3,1.9C5.3,18.5,1.5,14.7,1.5,10z M16.1,15.8L4.7,3.4C6.1,2.3,8,1.5,10,1.5
	c4.7,0,8.5,3.8,8.5,8.5C18.5,12.3,17.6,14.3,16.1,15.8z"/>
</svg>
