<?xml version="1.0" encoding="utf-8"?>
<!-- Generator: Adobe Illustrator 24.0.0, SVG Export Plug-In . SVG Version: 6.00 Build 0)  -->
<svg version="1.1" id="Layer_1" xmlns="http://www.w3.org/2000/svg" xmlns:xlink="http://www.w3.org/1999/xlink" x="0px" y="0px"
	 viewBox="0 0 20 20" style="enable-background:new 0 0 20 20;" xml:space="preserve">
<style type="text/css">
	.st0{fill:#C52228;}
</style>
<path class="st0" d="M17.5,15.6c0-0.8-0.4-1.6-0.8-2.4c-0.1-0.3-0.3-0.5-0.4-0.8c-0.4-1.1-0.6-2.1-1.1-5.4C15,4.6,14.6,3,13,1.8
	C11.8,0.9,10,1,10,1H9.8C9.3,1,7.9,1.1,7,1.8C5.3,3,5,4.6,4.6,7c-0.5,3.4-0.6,4.2-1.1,5.4c-0.1,0.2-0.2,0.5-0.4,0.8
	c-0.4,0.8-0.8,1.6-0.8,2.4l0,0.5h4.5c0,1.6,1.3,2.9,3,2.9c1.7,0,2.9-1.2,3-2.9h4.7L17.5,15.6z M9.9,18c-1.1,0-2-0.8-2-1.9h4
	C11.9,17.2,11,18,9.9,18z M3.6,15c0.1-0.4,0.4-0.9,0.6-1.3c0.2-0.3,0.3-0.6,0.4-0.9c0.5-1.3,0.7-2.4,1.1-5.6
	c0.4-2.5,0.7-3.6,1.9-4.5c0.7-0.5,1.9-0.6,2.2-0.6l0.2,0c0,0,1.5-0.1,2.4,0.6c1.2,0.9,1.5,1.9,1.9,4.5c0.5,3.3,0.6,4.3,1.1,5.6
	c0.1,0.2,0.2,0.5,0.4,0.8c0.2,0.4,0.5,0.9,0.6,1.4H3.6z"/>
</svg>
