<?xml version="1.0" encoding="utf-8"?>
<!-- Generator: Adobe Illustrator 24.0.0, SVG Export Plug-In . SVG Version: 6.00 Build 0)  -->
<svg version="1.1" id="Layer_1" xmlns="http://www.w3.org/2000/svg" xmlns:xlink="http://www.w3.org/1999/xlink" x="0px" y="0px"
	 viewBox="0 0 20 20" style="enable-background:new 0 0 20 20;" xml:space="preserve">
<style type="text/css">
	.st0{fill:#C52228;}
</style>
<g>
	<path class="st0" d="M5.7,10.8c0,2.4,2,4.3,4.3,4.3s4.3-2,4.3-4.3c0-2.4-2-4.4-4.3-4.4S5.7,8.4,5.7,10.8z M13.3,10.8
		c0,1.8-1.5,3.3-3.3,3.3s-3.3-1.5-3.3-3.3S8.2,7.5,10,7.5S13.3,9,13.3,10.8z"/>
	<path class="st0" d="M19,4h-5V2.9C14,2.5,13.7,2,13,2H7C6.3,2,6,2.5,6,2.9V4H1C0.4,4,0,4.4,0,5v12c0,0.6,0.4,1,1,1h18
		c0.6,0,1-0.4,1-1V5C20,4.4,19.6,4,19,4z M19,17H1L1,5c0,0,0,0,0,0h6V3l6,0v2h6V17z"/>
</g>
</svg>
