<?xml version="1.0" encoding="utf-8"?>
<!-- Generator: Adobe Illustrator 24.0.0, SVG Export Plug-In . SVG Version: 6.00 Build 0)  -->
<svg version="1.1" id="Layer_1" xmlns="http://www.w3.org/2000/svg" xmlns:xlink="http://www.w3.org/1999/xlink" x="0px" y="0px"
	 viewBox="0 0 20 20" style="enable-background:new 0 0 20 20;" xml:space="preserve">
<style type="text/css">
	.st0{fill:#C52228;}
</style>
<g>
	<path class="st0" d="M15.5,5.4c-0.4,0-0.8,0.1-1.3,0.2c-0.8-2.3-3-3.9-5.6-3.9C5.6,1.7,3.1,4,2.8,7C1.1,7.5,0,9,0,10.7
		c0,2.1,1.7,3.8,3.8,3.8h2.8v-1.1H3.8c-1.5,0-2.7-1.2-2.7-2.7C1,9.4,2,8.2,3.4,8L3.8,8l0-0.5C3.9,4.9,6,2.8,8.7,2.8
		c2.2,0,4.1,1.5,4.7,3.6l0.2,0.6l0.6-0.3c0.4-0.2,0.9-0.3,1.4-0.3c1.9,0,3.5,1.5,3.5,3.4s-1.5,3.4-3.5,3.4h-3v1.1h3
		c2.5,0,4.5-2,4.5-4.5S18,5.4,15.5,5.4z"/>
	<polygon class="st0" points="10,16.3 10,8.8 9,8.8 9,16.3 7.6,14.9 6.9,15.6 9.5,18.3 12.1,15.6 11.4,14.9 	"/>
</g>
</svg>
