<?xml version="1.0" encoding="utf-8"?>
<!-- Generator: Adobe Illustrator 24.0.0, SVG Export Plug-In . SVG Version: 6.00 Build 0)  -->
<svg version="1.1" id="Layer_1" xmlns="http://www.w3.org/2000/svg" xmlns:xlink="http://www.w3.org/1999/xlink" x="0px" y="0px"
	 viewBox="0 0 20 20" style="enable-background:new 0 0 20 20;" xml:space="preserve">
<style type="text/css">
	.st0{fill:#C52228;}
</style>
<g>
	<path class="st0" d="M18.5,10c0,4.7-3.8,8.5-8.5,8.5S1.5,14.7,1.5,10S5.3,1.5,10,1.5c3.2,0,6.1,1.8,7.5,4.5h-3.1v1h5V2h-1v3.3
		c-1.6-2.9-4.9-4.9-8.4-4.9c-5.3,0-9.5,4.3-9.5,9.5s4.3,9.5,9.5,9.5s9.5-4.3,9.5-9.5H18.5z"/>
	<polygon class="st0" points="13,14.6 13.8,13.8 10.4,10.4 10.4,4 9.4,4 9.4,11 9.5,11 9.5,11 	"/>
</g>
</svg>
