<?xml version="1.0" encoding="utf-8"?>
<!-- Generator: Adobe Illustrator 24.0.0, SVG Export Plug-In . SVG Version: 6.00 Build 0)  -->
<svg version="1.1" id="Layer_1" xmlns="http://www.w3.org/2000/svg" xmlns:xlink="http://www.w3.org/1999/xlink" x="0px" y="0px"
	 viewBox="0 0 20 20" style="enable-background:new 0 0 20 20;" xml:space="preserve">
<style type="text/css">
	.st0{fill:#C52228;}
</style>
<path class="st0" d="M16.1,6c0-1.4-1.2-2.6-2.6-2.6S10.9,4.6,10.9,6c0,1.1,0.7,2,1.6,2.4c-0.1,1.2-0.8,1.5-2.6,1.9
	c-0.6,0.1-1.5,0.3-2.4,0.8V5.4C8.4,5,9.1,4.1,9.1,3c0-1.4-1.2-2.6-2.6-2.6S3.9,1.6,3.9,3c0,1.1,0.7,2,1.6,2.4v9.2
	C4.6,15,3.9,15.9,3.9,17c0,1.4,1.2,2.6,2.6,2.6s2.6-1.2,2.6-2.6c0-1.1-0.6-2-1.6-2.4c0.1-1.7,1.3-2.1,2.7-2.4c1.5-0.3,4-0.8,4.2-3.8
	C15.4,8,16.1,7.1,16.1,6z M6.5,1.6c0.8,0,1.4,0.6,1.4,1.4S7.3,4.4,6.5,4.4S5.1,3.8,5.1,3S5.7,1.6,6.5,1.6z M6.5,18.4
	c-0.8,0-1.4-0.6-1.4-1.4s0.6-1.4,1.4-1.4s1.4,0.6,1.4,1.4S7.3,18.4,6.5,18.4z M13.5,7.4c-0.8,0-1.4-0.6-1.4-1.4s0.6-1.4,1.4-1.4
	s1.4,0.6,1.4,1.4S14.3,7.4,13.5,7.4z"/>
</svg>
