<?xml version="1.0" encoding="utf-8"?>
<!-- Generator: Adobe Illustrator 24.0.0, SVG Export Plug-In . SVG Version: 6.00 Build 0)  -->
<svg version="1.1" id="Layer_1" xmlns="http://www.w3.org/2000/svg" xmlns:xlink="http://www.w3.org/1999/xlink" x="0px" y="0px"
	 viewBox="0 0 20 20" style="enable-background:new 0 0 20 20;" xml:space="preserve">
<style type="text/css">
	.st0{fill:#C52228;}
</style>
<path class="st0" d="M17.9,8.9c0.6,3-0.7,7-4.1,8.5c-4.4,2-9.7,0.1-11.3-4.7C0.7,7.5,4.2,2.2,9.5,1.9c2.1-0.1,3.9,0.3,5.6,1.6
	c0.2,0.1,0.3,0.3,0.6,0.5c-0.7,0.7-1.4,1.3-2.1,2c-1.2-1.1-2.7-1.4-4.2-1.2C8.1,5,7.2,5.6,6.4,6.5c-1.5,1.6-1.8,4.2-0.6,6.2
	c1.2,2.1,3.4,3,5.8,2.4c1.7-0.4,3.2-1.9,3.3-3.5h-4.4V8.9H17.9L17.9,8.9z"/>
</svg>
