<svg id="Layer_1" data-name="Layer 1" xmlns="http://www.w3.org/2000/svg" viewBox="0 0 20 20"><title>_UIKit-icons</title><path d="M18.86,1.74a9.21,9.21,0,0,0-3.24-.58A7.85,7.85,0,0,0,10,3.27,7.85,7.85,0,0,0,4.38,1.16a9.21,9.21,0,0,0-3.24.58l-.3.11V18.08l.63-.25a8.17,8.17,0,0,1,2.91-.52A7.12,7.12,0,0,1,9.19,19h1.62a7.12,7.12,0,0,1,4.81-1.69,8.17,8.17,0,0,1,2.91.52l.63.25V1.85ZM9.54,18.07a8.15,8.15,0,0,0-5.16-1.68,9.48,9.48,0,0,0-2.62.37V2.49a8.45,8.45,0,0,1,2.62-.41,6.89,6.89,0,0,1,5.16,2Zm8.7-1.31a9.48,9.48,0,0,0-2.62-.37,8.15,8.15,0,0,0-5.16,1.68v-14a6.89,6.89,0,0,1,5.16-2,8.45,8.45,0,0,1,2.62.41Z" style="fill:#c52228"/></svg>