<?xml version="1.0" encoding="utf-8"?>
<!-- Generator: Adobe Illustrator 24.0.0, SVG Export Plug-In . SVG Version: 6.00 Build 0)  -->
<svg version="1.1" id="Layer_1" xmlns="http://www.w3.org/2000/svg" xmlns:xlink="http://www.w3.org/1999/xlink" x="0px" y="0px"
	 viewBox="0 0 20 20" style="enable-background:new 0 0 20 20;" xml:space="preserve">
<style type="text/css">
	.st0{fill:#C52228;}
</style>
<g>
	<circle class="st0" cx="13" cy="7" r="1"/>
	<circle class="st0" cx="7" cy="7" r="1"/>
	<path class="st0" d="M10,1c-5,0-9,4-9,9s4,9,9,9s9-4,9-9S15,1,10,1z M10,18c-4.4,0-8-3.6-8-8s3.6-8,8-8s8,3.6,8,8S14.4,18,10,18z"
		/>
	<path class="st0" d="M10,14c-1.9,0-3.5-1.1-4.1-2.8l-0.9,0.3C5.7,13.7,7.7,15,10,15c2.3,0,4.3-1.3,5.1-3.4l-0.9-0.3
		C13.5,12.9,11.9,14,10,14z"/>
</g>
</svg>
