<svg id="Layer_1" data-name="Layer 1" xmlns="http://www.w3.org/2000/svg" viewBox="0 0 20 20"><title>-</title><path d="M15.54,6.53l-.69.69A18.85,18.85,0,0,1,17.57,10c-1.08,1.37-4.13,4.81-7.57,4.81a6,6,0,0,1-2.27-.47L7,15.08a7.22,7.22,0,0,0,3,.7c4.85,0,8.79-5.78,8.79-5.78A18.89,18.89,0,0,0,15.54,6.53Z" style="fill:#c52228"/><path d="M10,12.33H9.75l-.81.8A3.11,3.11,0,0,0,10,13.3,3.31,3.31,0,0,0,13.31,10a3.11,3.11,0,0,0-.18-1.06l-.81.81h0V10A2.32,2.32,0,0,1,10,12.33Z" style="fill:#c52228"/><path d="M8.74,12l3.2-3.21.7-.7,1.42-1.41.69-.69,2.81-2.81-.69-.69-3,2.95A7.94,7.94,0,0,0,10,4.22C5.14,4.22,1.21,10,1.21,10a18,18,0,0,0,4,4.06L2.44,16.87l.69.69h0l2.94-2.94.73-.72,1.25-1.25Zm-.68-.69A2.32,2.32,0,0,1,10,7.67a2.28,2.28,0,0,1,1.26.38ZM5.94,13.37A16.72,16.72,0,0,1,2.44,10C3.5,8.63,6.56,5.19,10,5.19a6.58,6.58,0,0,1,3.19.92L12,7.35A3.24,3.24,0,0,0,10,6.7,3.31,3.31,0,0,0,6.69,10a3.18,3.18,0,0,0,.67,2Z" style="fill:#c52228"/></svg>