<?xml version="1.0" encoding="utf-8"?>
<!-- Generator: Adobe Illustrator 24.0.0, SVG Export Plug-In . SVG Version: 6.00 Build 0)  -->
<svg version="1.1" id="Layer_1" xmlns="http://www.w3.org/2000/svg" xmlns:xlink="http://www.w3.org/1999/xlink" x="0px" y="0px"
	 viewBox="0 0 20 20" style="enable-background:new 0 0 20 20;" xml:space="preserve">
<style type="text/css">
	.st0{fill:#C52228;}
</style>
<g>
	<path class="st0" d="M10,0.5c-3.6,0-6.9,2-8.5,5.1V2h-1v5h5V6h-3C3.9,3.3,6.8,1.5,10,1.5c4.7,0,8.5,3.8,8.5,8.5s-3.8,8.5-8.5,8.5
		S1.5,14.7,1.5,10H0.5c0,5.3,4.3,9.5,9.5,9.5s9.5-4.3,9.5-9.5S15.3,0.5,10,0.5z"/>
	<polygon class="st0" points="8.5,4 8.5,11 8.6,11 8.6,11 12.1,14.6 12.9,13.8 9.5,10.4 9.5,4 	"/>
</g>
</svg>
