<?xml version="1.0" encoding="utf-8"?>
<!-- Generator: Adobe Illustrator 24.0.0, SVG Export Plug-In . SVG Version: 6.00 Build 0)  -->
<svg version="1.1" id="Layer_1" xmlns="http://www.w3.org/2000/svg" xmlns:xlink="http://www.w3.org/1999/xlink" x="0px" y="0px"
	 viewBox="0 0 20 20" style="enable-background:new 0 0 20 20;" xml:space="preserve">
<style type="text/css">
	.st0{fill:#C52228;}
</style>
<g>
	<rect x="1.9" y="7.2" class="st0" width="3.6" height="10.7"/>
	<path class="st0" d="M3.6,2.1c-1.2,0-2,0.8-2,1.8c0,1.1,0.8,1.9,2,1.9s2-0.8,2-1.9C5.6,2.9,4.9,2.1,3.6,2.1z"/>
	<path class="st0" d="M14.2,6.9c-1.9,0-2.8,1.1-3.2,1.8V7.2H7.4c0,1,0,10.7,0,10.7H11v-6c0-0.3,0-0.6,0.1-0.9
		c0.3-0.6,0.8-1.3,1.8-1.3c1.3,0,1.8,1,1.8,2.4v5.7h3.6v-6.1C18.4,8.4,16.6,6.9,14.2,6.9z"/>
</g>
</svg>
