<?xml version="1.0" encoding="utf-8"?>
<!-- Generator: Adobe Illustrator 24.0.0, SVG Export Plug-In . SVG Version: 6.00 Build 0)  -->
<svg version="1.1" id="Layer_1" xmlns="http://www.w3.org/2000/svg" xmlns:xlink="http://www.w3.org/1999/xlink" x="0px" y="0px"
	 viewBox="0 0 20 20" style="enable-background:new 0 0 20 20;" xml:space="preserve">
<style type="text/css">
	.st0{fill:#C52228;}
</style>
<g>
	<path class="st0" d="M13.5,1h-7c-1.1,0-2,0.9-2,2v14c0,1.1,0.9,2,2,2h7c1.1,0,2-0.9,2-2V3C15.5,1.9,14.6,1,13.5,1z M14.5,17
		c0,0.5-0.5,1-1,1h-7c-0.5,0-1-0.5-1-1V3c0-0.5,0.5-1,1-1h7c0.5,0,1,0.5,1,1V17z"/>
	<path class="st0" d="M10,15.7c-0.4,0-0.8,0.4-0.8,0.8s0.4,0.8,0.8,0.8s0.8-0.4,0.8-0.8S10.4,15.7,10,15.7z"/>
</g>
</svg>
