<?xml version="1.0" encoding="utf-8"?>
<!-- Generator: Adobe Illustrator 24.0.0, SVG Export Plug-In . SVG Version: 6.00 Build 0)  -->
<svg version="1.1" id="Layer_1" xmlns="http://www.w3.org/2000/svg" xmlns:xlink="http://www.w3.org/1999/xlink" x="0px" y="0px"
	 viewBox="0 0 20 20" style="enable-background:new 0 0 20 20;" xml:space="preserve">
<style type="text/css">
	.st0{fill:#C52228;}
</style>
<g>
	<rect x="3" y="2.8" class="st0" width="1" height="2"/>
	<rect x="5" y="2.8" class="st0" width="1" height="2"/>
	<rect x="7" y="2.8" class="st0" width="1" height="2"/>
	<rect x="16" y="2.8" class="st0" width="1" height="1"/>
	<rect x="16" y="9.8" class="st0" width="1" height="1"/>
	<rect x="3" y="9.8" class="st0" width="1" height="2"/>
	<rect x="5" y="9.8" class="st0" width="1" height="2"/>
	<path class="st0" d="M1,0.9v6h18v-6H1z M18,5.9H2v-4h16V5.9z"/>
	<path class="st0" d="M1,13.9h8.5v1.5c-0.7,0.2-1.3,0.7-1.5,1.5H3v1h5.1c0.3,0.8,1,1.3,1.8,1.3s1.5-0.5,1.8-1.3H17v-1h-5.2
		c-0.1-0.7-0.6-1.2-1.3-1.4v-1.6H19v-6H1V13.9z M10.8,17.2c0,0.5-0.4,0.9-0.9,0.9c-0.5,0-0.9-0.4-0.9-0.9v0c0-0.5,0.4-0.9,0.9-0.9
		C10.4,16.4,10.8,16.8,10.8,17.2z M2,8.9h16v4H2V8.9z"/>
</g>
</svg>
