<?xml version="1.0" encoding="utf-8"?>
<!-- Generator: Adobe Illustrator 24.0.0, SVG Export Plug-In . SVG Version: 6.00 Build 0)  -->
<svg version="1.1" id="Layer_1" xmlns="http://www.w3.org/2000/svg" xmlns:xlink="http://www.w3.org/1999/xlink" x="0px" y="0px"
	 viewBox="0 0 20 20" style="enable-background:new 0 0 20 20;" xml:space="preserve">
<style type="text/css">
	.st0{fill:#C52228;}
</style>
<g>
	<path class="st0" d="M6.6,6.6C8,6.6,9.2,5.5,9.2,4c0-1.5-1.2-2.6-2.6-2.6c-1.3,0-2.3,0.9-2.6,2.1H1.5v1H4C4.3,5.7,5.3,6.6,6.6,6.6z
		 M6.6,2.4c0.9,0,1.6,0.7,1.6,1.6c0,0.9-0.7,1.7-1.6,1.7S5,4.9,5,4C5,3.1,5.7,2.4,6.6,2.4z"/>
	<path class="st0" d="M6.6,13.4c-1.3,0-2.3,0.9-2.6,2.1H1.5v1H4c0.2,1.2,1.3,2.2,2.6,2.2c1.4,0,2.6-1.2,2.6-2.7
		C9.2,14.5,8,13.4,6.6,13.4z M6.6,17.6C5.7,17.6,5,16.9,5,16c0-0.9,0.7-1.6,1.6-1.6s1.6,0.7,1.6,1.6C8.2,16.9,7.5,17.6,6.6,17.6z"/>
	<path class="st0" d="M13.7,7.4C12.2,7.4,11,8.5,11,10c0,1.5,1.2,2.7,2.7,2.7c1.3,0,2.4-1,2.6-2.2h2.2v-1h-2.3
		C16,8.3,14.9,7.4,13.7,7.4z M13.7,11.6c-0.9,0-1.7-0.7-1.7-1.7c0-0.9,0.7-1.6,1.7-1.6c0.9,0,1.6,0.7,1.6,1.6
		C15.3,10.9,14.6,11.6,13.7,11.6z"/>
	<rect x="10.5" y="3.4" class="st0" width="8" height="1"/>
	<rect x="1.5" y="9.4" class="st0" width="8" height="1"/>
	<rect x="10.5" y="15.4" class="st0" width="8" height="1"/>
</g>
</svg>
