<svg id="Layer_1" data-name="Layer 1" xmlns="http://www.w3.org/2000/svg" viewBox="0 0 20 20"><title>-</title><path d="M10,4.22C5.15,4.22,1.22,10,1.22,10S5.15,15.78,10,15.78,18.78,10,18.78,10,14.85,4.22,10,4.22Zm0,10.59c-3.44,0-6.49-3.44-7.57-4.81C3.51,8.63,6.56,5.19,10,5.19S16.49,8.63,17.57,10C16.49,11.37,13.44,14.81,10,14.81Z" style="fill:#c52228"/><path d="M10,6.7A3.3,3.3,0,1,0,13.3,10,3.3,3.3,0,0,0,10,6.7Zm0,5.63A2.33,2.33,0,1,1,12.33,10,2.34,2.34,0,0,1,10,12.33Z" style="fill:#c52228"/></svg>