<?xml version="1.0" encoding="utf-8"?>
<!-- Generator: Adobe Illustrator 24.0.0, SVG Export Plug-In . SVG Version: 6.00 Build 0)  -->
<svg version="1.1" id="Layer_1" xmlns="http://www.w3.org/2000/svg" xmlns:xlink="http://www.w3.org/1999/xlink" x="0px" y="0px"
	 viewBox="0 0 20 20" style="enable-background:new 0 0 20 20;" xml:space="preserve">
<style type="text/css">
	.st0{fill:#C52228;}
</style>
<path class="st0" d="M17.5,9.5h-5.7c-0.5-0.2-1-0.4-1.4-0.6c-2-0.7-3-1.2-3-2.4c0-1.3,1-2.1,2.2-2.1c1.4,0,2.5,1,3.1,2.7h0.7V3.5
	h-0.5L12.2,4c-0.6-0.2-1.3-0.5-2.3-0.5C7.6,3.6,5.7,5,5.7,7.3c0,1,0.4,1.7,0.9,2.2H2.5v1h6.1c0.2,0.1,0.4,0.2,0.7,0.2
	c2.3,0.8,3.2,1.3,3.2,2.7c0,1-0.7,2.2-2.5,2.2c-1.5,0-2.8-1-3.8-3.1H5.5v4H6L7,15.9c0.7,0.3,1.7,0.5,2.7,0.5c3.1,0,4.2-2.2,4.2-4
	c0-0.8-0.2-1.4-0.6-1.9h4.3V9.5z"/>
</svg>
