<?xml version="1.0" encoding="utf-8"?>
<!-- Generator: Adobe Illustrator 24.0.0, SVG Export Plug-In . SVG Version: 6.00 Build 0)  -->
<svg version="1.1" id="Layer_1" xmlns="http://www.w3.org/2000/svg" xmlns:xlink="http://www.w3.org/1999/xlink" x="0px" y="0px"
	 viewBox="0 0 20 20" style="enable-background:new 0 0 20 20;" xml:space="preserve">
<style type="text/css">
	.st0{fill:#C52228;}
</style>
<g>
	<path class="st0" d="M17,2.5H3c-1.1,0-2,0.9-2,2v11c0,1.1,0.9,2,2,2h14c1.1,0,2-0.9,2-2v-11C19,3.4,18.1,2.5,17,2.5z M18,15.5
		c0,0.5-0.5,1-1,1H3c-0.5,0-1-0.5-1-1v-11c0-0.5,0.5-1,1-1h14c0.5,0,1,0.5,1,1V15.5z"/>
	<path class="st0" d="M3.7,9.2c-0.4,0-0.8,0.4-0.8,0.8s0.4,0.8,0.8,0.8c0.4,0,0.8-0.4,0.8-0.8S4.1,9.2,3.7,9.2z"/>
</g>
</svg>
