<?xml version="1.0" encoding="utf-8"?>
<!-- Generator: Adobe Illustrator 24.0.0, SVG Export Plug-In . SVG Version: 6.00 Build 0)  -->
<svg version="1.1" id="Layer_1" xmlns="http://www.w3.org/2000/svg" xmlns:xlink="http://www.w3.org/1999/xlink" x="0px" y="0px"
	 viewBox="0 0 20 20" style="enable-background:new 0 0 20 20;" xml:space="preserve">
<style type="text/css">
	.st0{fill:#C52228;}
</style>
<g>
	<path class="st0" d="M17.5,2.4c-0.3-0.3-0.8-0.5-1.3-0.5h-3.9c-0.4,0-0.8,0.1-1,0.5l-8.8,8.8C2.2,11.6,2,11.9,2,12.4
		s0.2,0.8,0.5,1.1l4.1,4.1c0.3,0.3,0.7,0.5,1.1,0.5s0.8-0.2,1-0.5l8.8-8.8C17.8,8.4,18,8.1,18,7.6v-4C18,3.1,17.8,2.8,17.5,2.4z
		 M17,7.6c0,0.1-0.1,0.2-0.2,0.3L8,16.8c-0.2,0.2-0.5,0.2-0.8-0.1l-4.1-4.1C3,12.6,3,12.4,3,12.3c0-0.1,0.1-0.2,0.2-0.3L12,3.1
		c0,0,0.2-0.1,0.3-0.1h3.9c0.2,0,0.4,0.1,0.6,0.2C16.9,3.4,17,3.4,17,3.6V7.6z"/>
	<circle class="st0" cx="14" cy="5.9" r="1"/>
</g>
</svg>
