<?xml version="1.0" encoding="utf-8"?>
<!-- Generator: Adobe Illustrator 24.0.0, SVG Export Plug-In . SVG Version: 6.00 Build 0)  -->
<svg version="1.1" id="Layer_1" xmlns="http://www.w3.org/2000/svg" xmlns:xlink="http://www.w3.org/1999/xlink" x="0px" y="0px"
	 viewBox="0 0 20 20" style="enable-background:new 0 0 20 20;" xml:space="preserve">
<style type="text/css">
	.st0{fill:#C52228;}
</style>
<path class="st0" d="M2,7.6C1.7,7.3,1.6,7.1,1.4,6.8C1,6.4,1.2,6.4,1.6,6c1-0.9,2-1.9,3.1-2.7c1-0.7,2.4-1.2,3.3,0
	c0.8,1,0.9,2.6,1.1,3.9c0.2,1.3,0.4,2.6,0.9,3.9c0.1,0.4,0.4,1,0.8,1.1c0.6,0.1,1.1-0.9,1.4-1.3c0.7-1,1.6-2.3,1.5-3.6
	c-0.1-1.3-1.6-1.1-2.5-0.8c0.1-1.5,1.6-3.2,2.9-3.8c1.4-0.6,3.6-0.6,4.3,1c0.8,1.8,0.1,3.8-0.8,5.4c-0.9,1.7-2.1,3.3-3.4,4.8
	c-1.1,1.3-2.4,2.8-4.1,3.4c-1.9,0.7-3-0.7-3.7-2.3C5.9,13.3,5.5,11.3,5,9.5C4.8,8.7,4.5,7.8,4,7.2C3.4,6.3,2.6,7.1,2,7.6
	C1.9,7.5,2,7.5,2,7.6L2,7.6z"/>
</svg>
