<?xml version="1.0" encoding="utf-8"?>
<!-- Generator: Adobe Illustrator 24.0.0, SVG Export Plug-In . SVG Version: 6.00 Build 0)  -->
<svg version="1.1" id="Layer_1" xmlns="http://www.w3.org/2000/svg" xmlns:xlink="http://www.w3.org/1999/xlink" x="0px" y="0px"
	 viewBox="0 0 20 20" style="enable-background:new 0 0 20 20;" xml:space="preserve">
<style type="text/css">
	.st0{fill:#C52228;}
</style>
<g>
	<circle class="st0" cx="10" cy="14" r="1"/>
	<path class="st0" d="M10,0.5c-5.2,0-9.5,4.2-9.5,9.5c0,5.2,4.2,9.5,9.5,9.5c5.3,0,9.5-4.2,9.5-9.5C19.5,4.8,15.3,0.5,10,0.5z
		 M10,18.5c-4.7,0-8.5-3.8-8.5-8.5S5.3,1.5,10,1.5c4.7,0,8.5,3.8,8.5,8.5S14.7,18.5,10,18.5z"/>
	<path class="st0" d="M10,5C9.4,5,9,5.4,9,6c0,0,0,0.5,0,1.7c0.1,1.8,0.4,3.6,0.4,3.6C9.5,11.9,9.7,12,10,12c0.3,0,0.5-0.1,0.6-0.7
		c0,0,0.3-1.8,0.4-3.6C11,6.5,11,6,11,6C11,5.4,10.5,5,10,5z"/>
</g>
</svg>
