<?xml version="1.0" encoding="utf-8"?>
<!-- Generator: Adobe Illustrator 24.0.0, SVG Export Plug-In . SVG Version: 6.00 Build 0)  -->
<svg version="1.1" id="Layer_1" xmlns="http://www.w3.org/2000/svg" xmlns:xlink="http://www.w3.org/1999/xlink" x="0px" y="0px"
	 viewBox="0 0 20 20" style="enable-background:new 0 0 20 20;" xml:space="preserve">
<style type="text/css">
	.st0{fill:#C52228;}
</style>
<path class="st0" d="M5.3,15.3c0.7,0,0.9-0.3,0.9-0.8v-9c0-0.6-0.3-0.8-0.9-0.8V4h3.9C13,4,14,5.4,14,6.9c0,1-0.6,2.3-2.8,2.7v0.1
	c2.4,0.2,3.4,1.6,3.4,2.8c0,1.9-1.4,3.5-5.3,3.5h-4V15.3z M9.4,9.3c2.2,0,2.8-0.8,2.9-2.3c0-1.3-0.6-2.2-2.9-2.2H8v4.5H9.4z
	 M8.6,15.1c0.8,0.1,1.6,0.1,2.4-0.1c1.5-0.4,1.7-1.3,1.7-2.4c0-1.4-1-2.6-3.4-2.6H8v5L8.6,15.1z"/>
</svg>
