<?xml version="1.0" encoding="utf-8"?>
<!-- Generator: Adobe Illustrator 24.0.0, SVG Export Plug-In . SVG Version: 6.00 Build 0)  -->
<svg version="1.1" id="Layer_1" xmlns="http://www.w3.org/2000/svg" xmlns:xlink="http://www.w3.org/1999/xlink" x="0px" y="0px"
	 viewBox="0 0 20 20" style="enable-background:new 0 0 20 20;" xml:space="preserve">
<style type="text/css">
	.st0{fill:#C52228;}
</style>
<g>
	<path class="st0" d="M8.1,15.8c-0.8,0-1.4,0.6-1.4,1.4s0.6,1.4,1.4,1.4c0.8,0,1.4-0.6,1.4-1.4S8.9,15.8,8.1,15.8z"/>
	<path class="st0" d="M14.1,15.8c-0.8,0-1.4,0.6-1.4,1.4s0.6,1.4,1.4,1.4c0.8,0,1.4-0.6,1.4-1.4S14.9,15.8,14.1,15.8z"/>
	<polygon class="st0" points="8.8,5.8 8.8,6.8 18.1,6.8 16.4,11.8 6.5,11.8 4.4,3.5 1.1,1.5 0.5,2.3 3.6,4.1 5.7,12.8 17.2,12.8 
		19.5,5.8 	"/>
</g>
</svg>
