<?xml version="1.0" encoding="utf-8"?>
<!-- Generator: Adobe Illustrator 24.0.0, SVG Export Plug-In . SVG Version: 6.00 Build 0)  -->
<svg version="1.1" id="Layer_1" xmlns="http://www.w3.org/2000/svg" xmlns:xlink="http://www.w3.org/1999/xlink" x="0px" y="0px"
	 viewBox="0 0 20 20" style="enable-background:new 0 0 20 20;" xml:space="preserve">
<style type="text/css">
	.st0{fill:#C52228;}
</style>
<g>
	<path class="st0" d="M10,6.2c-2.1,0-3.8,1.7-3.8,3.8s1.7,3.8,3.8,3.8s3.8-1.7,3.8-3.8S12.1,6.2,10,6.2z M10,12.8
		c-1.5,0-2.8-1.3-2.8-2.8S8.5,7.2,10,7.2s2.8,1.3,2.8,2.8S11.6,12.8,10,12.8z"/>
	<path class="st0" d="M17.2,10c0-0.8,0.6-1.5,1.5-1.8L19.2,8L16.4,3l-0.5,0.4c-0.8,0.6-1.7,0.8-2.3,0.4c-0.7-0.4-1-1.2-0.8-2.2
		L12.9,1H7.1l0.1,0.6c0.2,1-0.1,1.8-0.8,2.2C5.8,4.2,4.8,4,4.1,3.4L3.6,3L0.8,8l0.5,0.2c0.9,0.3,1.5,1,1.5,1.8
		c0,0.8-0.6,1.5-1.5,1.8L0.8,12l2.9,5l0.5-0.4c0.8-0.6,1.7-0.8,2.3-0.4c0.7,0.4,1,1.2,0.8,2.2L7.1,19h5.7l-0.1-0.6
		c-0.2-1,0.2-1.8,0.8-2.2c0.7-0.4,1.6-0.2,2.3,0.4l0.5,0.4l2.9-5l-0.6-0.2C17.7,11.5,17.2,10.8,17.2,10z M16.1,15.5
		c-1-0.6-2.1-0.7-3-0.2c-0.9,0.5-1.4,1.5-1.4,2.6H8.3c0-1.1-0.5-2.1-1.3-2.6c-0.9-0.5-2-0.5-3,0.1l-1.7-3c1-0.6,1.6-1.5,1.6-2.5
		c0-1-0.6-1.9-1.6-2.5l1.7-3c1,0.6,2.1,0.7,3,0.2C7.8,4.1,8.3,3.1,8.3,2h3.4c0,1.1,0.5,2.1,1.4,2.7c0.9,0.5,2,0.4,3-0.1l1.7,3
		C16.8,8,16.2,9,16.2,10c0,1,0.6,1.9,1.6,2.5L16.1,15.5z"/>
</g>
</svg>
