<?xml version="1.0" encoding="utf-8"?>
<!-- Generator: Adobe Illustrator 24.0.0, SVG Export Plug-In . SVG Version: 6.00 Build 0)  -->
<svg version="1.1" id="Layer_1" xmlns="http://www.w3.org/2000/svg" xmlns:xlink="http://www.w3.org/1999/xlink" x="0px" y="0px"
	 viewBox="0 0 20 20" style="enable-background:new 0 0 20 20;" xml:space="preserve">
<style type="text/css">
	.st0{fill:#C52228;}
</style>
<path class="st0" d="M18,8.6L18,8.6l0-3.4c0,0,0-0.1,0-0.1c0-2.1-3.4-3.6-8-3.6S2,3.1,2,5.1v9.7c0,2.1,3.4,3.6,8,3.6s8-1.6,8-3.6
	l0-3.1c0,0,0,0,0,0h0L18,8.6C18,8.7,18,8.6,18,8.6z M10,2.5c4.1,0,7,1.4,7,2.6c0,0,0,0,0,0h0l0,0.1c-0.1,1.2-2.9,2.6-7,2.6
	c-4.1,0-7-1.4-7-2.6S5.9,2.5,10,2.5z M3,7c1.3,1.1,3.9,1.8,7,1.8c3.1,0,5.7-0.7,7-1.8l0,1.7c-0.1,1.2-2.9,2.6-7,2.6
	c-4.1,0-7-1.4-7-2.6V7z M3,10.4c1.3,1.1,3.9,1.8,7,1.8c3.1,0,5.7-0.7,7-1.8l0,1.3c0,1.2-2.9,2.6-7,2.6c-4.1,0-7-1.4-7-2.6V10.4z
	 M10,17.5c-4.1,0-7-1.4-7-2.6v-1.3c1.3,1.1,3.9,1.8,7,1.8c3.1,0,5.7-0.7,7-1.8l0,1.3C17,16.1,14.1,17.5,10,17.5z"/>
</svg>
