<?xml version="1.0" encoding="utf-8"?>
<!-- Generator: Adobe Illustrator 24.0.0, SVG Export Plug-In . SVG Version: 6.00 Build 0)  -->
<svg version="1.1" id="Layer_1" xmlns="http://www.w3.org/2000/svg" xmlns:xlink="http://www.w3.org/1999/xlink" x="0px" y="0px"
	 viewBox="0 0 20 20" style="enable-background:new 0 0 20 20;" xml:space="preserve">
<style type="text/css">
	.st0{fill:#C52228;}
</style>
<g>
	<path class="st0" d="M3,1v18h14V1H3z M16,18H4V2h12V18z"/>
	<path class="st0" d="M5.4,14.7c1.1,0.6,2.3-1.7,2.7-2.4c1.2-0.4,2.4-0.7,3.6-0.8c0.9,0.6,1.9,0.9,2.9,0.8c0.1,0,0.2-0.1,0.3-0.2
		c0.1-0.2,0.2-0.5,0.1-0.8c0-0.1-0.1-0.2-0.1-0.3v0c-0.4-0.2-0.9-0.4-1.3-0.3c-0.5,0-1.1,0-1.6,0.1c-0.3-0.1-0.5-0.3-0.7-0.5
		c-0.6-0.6-1-1.3-1.3-2.1c0.2-0.9,0.3-1.7,0.3-2.6c0-0.1,0-0.2-0.1-0.3C10,5.2,9.8,5,9.6,5H9.4C9.1,5,8.9,5.1,8.8,5.4
		c-0.1,1.1,0,2.1,0.4,3.1c-0.3,0.6-1,2.1-1,2.1c-0.3,0.6-0.6,1.1-0.8,1.5l-0.8,0.4c-0.7,0.3-1.2,0.9-1.5,1.6c0,0.2,0,0.3,0.2,0.4
		L5.4,14.7z M14.4,11.4c0.4,0.1,0.4,0.3,0.3,0.3c-0.5,0.3-1.4-0.2-1.8-0.4C13.4,11.2,13.9,11.3,14.4,11.4z M9.5,5.3
		c0.2,0,0.3,0.5,0.3,1c0,0.4-0.1,0.7-0.2,1C9.5,6.9,9.4,6.5,9.4,6C9.4,6,9.4,5.3,9.5,5.3z M8.8,10.9c0.3-0.5,0.5-1.1,0.8-1.6
		c0.3,0.6,0.7,1.1,1.3,1.5L11,11c-0.9,0.2-1.8,0.4-2.6,0.7L8.8,10.9z M6.8,12.9l0.2-0.2c-0.3,0.7-0.8,1.2-1.4,1.7
		C5.9,13.7,6.3,13.2,6.8,12.9z"/>
</g>
</svg>
