<?xml version="1.0" encoding="utf-8"?>
<!-- Generator: Adobe Illustrator 24.0.0, SVG Export Plug-In . SVG Version: 6.00 Build 0)  -->
<svg version="1.1" id="Layer_1" xmlns="http://www.w3.org/2000/svg" xmlns:xlink="http://www.w3.org/1999/xlink" x="0px" y="0px"
	 viewBox="0 0 20 20" style="enable-background:new 0 0 20 20;" xml:space="preserve">
<style type="text/css">
	.st0{fill:#C52228;}
</style>
<g>
	<path class="st0" d="M17.8,1.4L17.8,1.4c-0.7-0.6-1.7-0.6-2.4,0L7.3,9.5l-1.4,3.8L9.5,12l8.3-8.2C18.4,3.1,18.4,2.1,17.8,1.4z
		 M17,3.1l-8,8l-1.4,0.5l0.5-1.5l8-8c0.3-0.3,0.7-0.3,1,0C17.3,2.4,17.3,2.8,17,3.1z"/>
	<polygon class="st0" points="14.7,18.1 2.7,18.1 2.7,2.1 13,2.1 13,1.1 1.7,1.1 1.7,19.1 15.7,19.1 15.7,8.6 14.7,8.6 	"/>
</g>
</svg>
