<?xml version="1.0" encoding="utf-8"?>
<!-- Generator: Adobe Illustrator 24.0.0, SVG Export Plug-In . SVG Version: 6.00 Build 0)  -->
<svg version="1.1" id="Layer_1" xmlns="http://www.w3.org/2000/svg" xmlns:xlink="http://www.w3.org/1999/xlink" x="0px" y="0px"
	 viewBox="0 0 20 20" style="enable-background:new 0 0 20 20;" xml:space="preserve">
<style type="text/css">
	.st0{fill:#C52228;}
</style>
<g>
	<path class="st0" d="M16.1,7.2c0.6,0,1.1-0.5,1.1-1.1c0-0.6-0.5-1.1-1.1-1.1C15.5,5,15,5.5,15,6.1C15,6.7,15.5,7.2,16.1,7.2z"/>
	<path class="st0" d="M0,2v16h20V2H0z M19,17H1V3h18V17z"/>
	<polygon class="st0" points="8,9.7 12.6,14.4 13.4,13.6 11.7,12 12.5,11.2 15.6,14.4 16.4,13.6 12.5,9.8 11,11.3 8,8.3 3.6,12.6 
		4.4,13.4 	"/>
</g>
</svg>
