<?xml version="1.0" encoding="utf-8"?>
<!-- Generator: Adobe Illustrator 24.0.0, SVG Export Plug-In . SVG Version: 6.00 Build 0)  -->
<svg version="1.1" id="Layer_1" xmlns="http://www.w3.org/2000/svg" xmlns:xlink="http://www.w3.org/1999/xlink" x="0px" y="0px"
	 viewBox="0 0 20 20" style="enable-background:new 0 0 20 20;" xml:space="preserve">
<style type="text/css">
	.st0{fill:#C52228;}
</style>
<g>
	<path class="st0" d="M13.6,1H6.4c-3,0-5.5,2.4-5.5,5.4v7.1c0,3,2.5,5.4,5.5,5.4h7.1c3,0,5.5-2.4,5.5-5.4V6.5
		C18.9,3.5,16.6,1,13.6,1z M17.4,14c0,1.9-1.6,3.5-3.5,3.5h-8c-1.9,0-3.5-1.6-3.5-3.5V6c0-1.9,1.6-3.5,3.5-3.5h8
		c1.9,0,3.5,1.6,3.5,3.5V14z"/>
	<path class="st0" d="M14.9,4.3c-0.6,0-1.1,0.5-1.1,1.1c0,0.6,0.5,1.1,1.1,1.1c0.6,0,1.1-0.5,1.1-1.1C15.9,4.7,15.5,4.3,14.9,4.3z"
		/>
	<path class="st0" d="M9.9,5.5c-2.6,0-4.6,2.1-4.6,4.6c0,2.6,2.1,4.6,4.6,4.6s4.6-2.1,4.6-4.6S12.6,5.5,9.9,5.5z M10.1,13
		c-1.7,0-3-1.3-3-3c0-1.7,1.3-3,3-3s3,1.3,3,3C13.1,11.8,11.6,13,10.1,13z"/>
</g>
</svg>
