<?xml version="1.0" encoding="utf-8"?>
<!-- Generator: Adobe Illustrator 24.0.0, SVG Export Plug-In . SVG Version: 6.00 Build 0)  -->
<svg version="1.1" id="Layer_1" xmlns="http://www.w3.org/2000/svg" xmlns:xlink="http://www.w3.org/1999/xlink" x="0px" y="0px"
	 viewBox="0 0 20 20" style="enable-background:new 0 0 20 20;" xml:space="preserve">
<style type="text/css">
	.st0{fill:#C52228;}
</style>
<g>
	<path class="st0" d="M10,0.1c-3.9,0-7,3.1-7,7c0,5,6.4,12.1,6.6,12.4l0.4,0.4l0.4-0.4c0.3-0.3,6.6-7.4,6.6-12.4
		C17,3.3,13.9,0.1,10,0.1z M10,18.4C8.6,16.8,4,11,4,7.1c0-3.3,2.7-6,6-6s6,2.7,6,6C16,11,11.4,16.8,10,18.4z"/>
	<path class="st0" d="M10,4.1c-1.5,0-2.8,1.3-2.8,2.8S8.5,9.7,10,9.7s2.8-1.3,2.8-2.8S11.5,4.1,10,4.1z M10,8.7
		c-1,0-1.8-0.8-1.8-1.8c0-1,0.8-1.8,1.8-1.8c1,0,1.8,0.8,1.8,1.8C11.8,7.9,11,8.7,10,8.7z"/>
</g>
</svg>
