<?xml version="1.0" encoding="utf-8"?>
<!-- Generator: Adobe Illustrator 24.0.0, SVG Export Plug-In . SVG Version: 6.00 Build 0)  -->
<svg version="1.1" id="Layer_1" xmlns="http://www.w3.org/2000/svg" xmlns:xlink="http://www.w3.org/1999/xlink" x="0px" y="0px"
	 viewBox="0 0 20 20" style="enable-background:new 0 0 20 20;" xml:space="preserve">
<style type="text/css">
	.st0{fill:#C52228;}
</style>
<g>
	<path class="st0" d="M10,14.9c2.2,0,4-1.8,4-4V5c0-2.2-1.8-4-4-4S6,2.7,6,5v5.9C6,13.1,7.8,14.9,10,14.9z M7,5c0-1.6,1.3-3,3-3
		s3,1.3,3,3v5.9c0,1.6-1.3,2.9-3,2.9s-3-1.3-3-2.9V5z"/>
	<path class="st0" d="M15,10.4v0.6c0,2.7-2.2,5-5,5s-5-2.2-5-5v-0.6H4v0.6c0,3.2,2.4,5.8,5.5,6v1H7v1h6v-1h-2.5v-1
		c3.1-0.3,5.5-2.9,5.5-6v-0.6H15z"/>
</g>
</svg>
