<?xml version="1.0" encoding="utf-8"?>
<!-- Generator: Adobe Illustrator 24.0.0, SVG Export Plug-In . SVG Version: 6.00 Build 0)  -->
<svg version="1.1" id="Layer_1" xmlns="http://www.w3.org/2000/svg" xmlns:xlink="http://www.w3.org/1999/xlink" x="0px" y="0px"
	 viewBox="0 0 20 20" style="enable-background:new 0 0 20 20;" xml:space="preserve">
<style type="text/css">
	.st0{fill:#C52228;}
</style>
<g>
	<path class="st0" d="M10,0.7L2,5.4v9.2l8,4.7l8-4.7V5.4L10,0.7z M17,14l-7,4.1L3,14V6l7-4.1L17,6V14z"/>
	<path class="st0" d="M6,10c0,2.2,1.8,4,4,4s4-1.8,4-4s-1.8-4-4-4S6,7.8,6,10z M13,10c0,1.7-1.3,3-3,3s-3-1.3-3-3s1.3-3,3-3
		S13,8.3,13,10z"/>
</g>
</svg>
