<?xml version="1.0" encoding="utf-8"?>
<!-- Generator: Adobe Illustrator 24.0.0, SVG Export Plug-In . SVG Version: 6.00 Build 0)  -->
<svg version="1.1" id="Layer_1" xmlns="http://www.w3.org/2000/svg" xmlns:xlink="http://www.w3.org/1999/xlink" x="0px" y="0px"
	 viewBox="0 0 20 20" style="enable-background:new 0 0 20 20;" xml:space="preserve">
<style type="text/css">
	.st0{fill:#C52228;}
</style>
<g>
	<path class="st0" d="M10,0.5c-5.3,0-9.5,4.3-9.5,9.5s4.3,9.5,9.5,9.5s9.5-4.3,9.5-9.5S15.3,0.5,10,0.5z M10,18.5
		c-4.7,0-8.5-3.8-8.5-8.5S5.3,1.5,10,1.5s8.5,3.8,8.5,8.5S14.7,18.5,10,18.5z"/>
	<circle class="st0" cx="10.4" cy="14.4" r="1"/>
	<path class="st0" d="M10.5,4.9c-1.4,0-2.9,1-2.9,2.9h1.2c0-1.2,0.9-1.7,1.7-1.7c0.8,0,1.6,0.5,1.6,1.6c0,0.4-0.3,0.7-0.8,1.2
		C11.1,9,11,9.2,10.8,9.3c-0.6,0.6-0.9,1.2-1,2.1c0,0.1,0,0.2,0,0.3H11c0-0.1,0-0.2,0-0.3c0-0.5,0.2-0.9,0.6-1.3
		c0.1-0.1,0.3-0.3,0.4-0.4c0.5-0.5,1.2-1.1,1.2-2.1c0-0.9-0.3-1.6-0.9-2.1C11.9,5.1,11.2,4.9,10.5,4.9z"/>
</g>
</svg>
