<?xml version="1.0" encoding="utf-8"?>
<!-- Generator: Adobe Illustrator 24.0.0, SVG Export Plug-In . SVG Version: 6.00 Build 0)  -->
<svg version="1.1" id="Layer_1" xmlns="http://www.w3.org/2000/svg" xmlns:xlink="http://www.w3.org/1999/xlink" x="0px" y="0px"
	 viewBox="0 0 20 20" style="enable-background:new 0 0 20 20;" xml:space="preserve">
<style type="text/css">
	.st0{fill:#C52228;}
</style>
<g>
	<path class="st0" d="M3.5,14.6c-1,0-1.8,0.8-1.8,1.8s0.8,1.9,1.8,1.9s1.8-0.8,1.8-1.9S4.5,14.6,3.5,14.6z"/>
	<path class="st0" d="M2.7,7.3c-0.3,0-0.6,0-0.9,0l0.1,1.1c0.3,0,0.5,0,0.8,0c4.9,0,8.9,4,8.9,8.9c0,0.3,0,0.6,0,0.9l1.1,0.1
		c0-0.3,0.1-0.6,0.1-1C12.7,11.8,8.2,7.3,2.7,7.3z"/>
	<path class="st0" d="M2.7,1.7c-0.3,0-0.6,0-0.9,0l0,1.1c0.3,0,0.5,0,0.8,0c8.1,0,14.6,6.5,14.6,14.5c0,0.3,0,0.6,0,0.9l1.1,0.1
		c0-0.3,0-0.6,0-1C18.4,8.7,11.3,1.7,2.7,1.7z"/>
</g>
</svg>
