<?xml version="1.0" encoding="utf-8"?>
<!-- Generator: Adobe Illustrator 24.0.0, SVG Export Plug-In . SVG Version: 6.00 Build 0)  -->
<svg version="1.1" id="Layer_1" xmlns="http://www.w3.org/2000/svg" xmlns:xlink="http://www.w3.org/1999/xlink" x="0px" y="0px"
	 viewBox="0 0 20 20" style="enable-background:new 0 0 20 20;" xml:space="preserve">
<style type="text/css">
	.st0{fill:#C52228;}
</style>
<path class="st0" d="M11.8,10.5C13.5,9.7,14.7,8,14.7,6c0-2.7-2.2-4.9-4.9-4.9C7.1,1.1,4.9,3.3,4.9,6c0,2,1.2,3.8,3,4.5
	c-3.5,0.9-6.2,4-7,8l1,0.2c0.8-4.3,4.1-7.3,8-7.3s7.2,3.2,8,7.5l1.1-0.2C18.3,14.5,15.4,11.4,11.8,10.5z M5.9,6
	c0-2.1,1.7-3.9,3.9-3.9c2.1,0,3.9,1.7,3.9,3.9S12,9.9,9.8,9.9C7.8,9.9,5.9,8.1,5.9,6z"/>
</svg>
