<svg id="Layer_1" data-name="Layer 1" xmlns="http://www.w3.org/2000/svg" viewBox="0 0 445 410"><title>fast-web-hosting</title><path d="M308.59,144.69a10.23,10.23,0,0,1,10.23,10.22,1,1,0,1,0,2,0A10.23,10.23,0,0,1,331,144.69a1,1,0,0,0,0-2,10.24,10.24,0,0,1-10.22-10.24,1,1,0,0,0-2,0,10.24,10.24,0,0,1-10.23,10.24,1,1,0,0,0,0,2Zm11.23-7.39a12.33,12.33,0,0,0,6.38,6.39,12.27,12.27,0,0,0-6.38,6.38,12.29,12.29,0,0,0-6.39-6.38A12.35,12.35,0,0,0,319.82,137.3Z" style="fill:#c52529"/><path d="M303.25,170.37a7.62,7.62,0,0,1,5,5,.36.36,0,0,0,.69,0,7.63,7.63,0,0,1,5-5,.35.35,0,0,0,0-.68,7.63,7.63,0,0,1-5-5,.35.35,0,0,0-.69,0,7.62,7.62,0,0,1-5,5A.35.35,0,0,0,303.25,170.37Z" style="fill:#c52529"/><path d="M328.2,167.08a.17.17,0,0,0,.34,0,3.81,3.81,0,0,1,2.5-2.5.17.17,0,0,0,0-.34,3.81,3.81,0,0,1-2.5-2.5.17.17,0,0,0-.34,0,3.81,3.81,0,0,1-2.5,2.5.17.17,0,0,0,0,.34A3.81,3.81,0,0,1,328.2,167.08Z" style="fill:#c52529"/><path d="M29.91,241.63A10.24,10.24,0,0,1,19.68,231.4a1,1,0,0,0-2,0A10.23,10.23,0,0,1,7.46,241.63a1,1,0,0,0,0,2,10.23,10.23,0,0,1,10.22,10.23,1,1,0,0,0,2,0,10.24,10.24,0,0,1,10.23-10.23,1,1,0,1,0,0-2ZM18.68,249a12.24,12.24,0,0,0-6.38-6.38,12.26,12.26,0,0,0,6.38-6.39,12.31,12.31,0,0,0,6.39,6.39A12.29,12.29,0,0,0,18.68,249Z" style="fill:#c52529"/><path d="M24.57,216.62a7.66,7.66,0,0,1,5,5,.35.35,0,0,0,.68,0,7.64,7.64,0,0,1,5-5,.35.35,0,0,0,0-.68,7.62,7.62,0,0,1-5-5,.35.35,0,0,0-.68,0,7.64,7.64,0,0,1-5,5A.35.35,0,0,0,24.57,216.62Z" style="fill:#c52529"/><path d="M7.46,222.07a3.81,3.81,0,0,1,2.5,2.5.17.17,0,0,0,.34,0,3.81,3.81,0,0,1,2.5-2.5.17.17,0,0,0,0-.34,3.81,3.81,0,0,1-2.5-2.5.17.17,0,0,0-.34,0,3.81,3.81,0,0,1-2.5,2.5A.17.17,0,0,0,7.46,222.07Z" style="fill:#c52529"/><path d="M245.7,134.8a1,1,0,0,0,1-1v-9.42a1,1,0,0,0-2,0v9.42A1,1,0,0,0,245.7,134.8Z" style="fill:#c52529"/><path d="M215.5,90h-5.82a1,1,0,0,0,0,2h5.82a30.78,30.78,0,0,1,3.47.2h.12a1,1,0,0,0,.12-2A30.54,30.54,0,0,0,215.5,90Z" style="fill:#c52529"/><path d="M170.76,54.19a18,18,0,0,1,8.5,2.38,1,1,0,0,0,.49.14,1,1,0,0,0,.87-.5,1,1,0,0,0-.36-1.37,19.93,19.93,0,0,0-9.45-2.65,1,1,0,0,0-1,1A1,1,0,0,0,170.76,54.19Z" style="fill:#c52529"/><path d="M149.47,69a.76.76,0,0,0,.21,0,1,1,0,0,0,1-.79,17.9,17.9,0,0,1,4-7.88A1,1,0,0,0,153.11,59a19.93,19.93,0,0,0-4.4,8.76A1,1,0,0,0,149.47,69Z" style="fill:#c52529"/><path d="M188.21,99.35v9.42a1,1,0,1,0,2,0V99.35a1,1,0,0,0-2,0Z" style="fill:#c52529"/><path d="M188.21,80.52a1,1,0,1,0,2,0V72.08c0-.35,0-.69,0-1a1,1,0,0,0-1.05-1,1,1,0,0,0-.94,1.06c0,.3,0,.61,0,.92Z" style="fill:#c52529"/><path d="M154,84.65a1,1,0,0,0,0,1.41,20.06,20.06,0,0,0,8.41,5.07.92.92,0,0,0,.29,0,1,1,0,0,0,.28-2,18,18,0,0,1-7.55-4.55A1,1,0,0,0,154,84.65Z" style="fill:#c52529"/><path d="M180.44,91a1,1,0,0,0,1,1h9.41a1,1,0,0,0,0-2h-9.41A1,1,0,0,0,180.44,91Z" style="fill:#c52529"/><path d="M240.89,106.74a1,1,0,0,0,1.37.37,1,1,0,0,0,.37-1.36,31.37,31.37,0,0,0-6-7.58,1,1,0,0,0-1.35,1.48A28.89,28.89,0,0,1,240.89,106.74Z" style="fill:#c52529"/><path d="M71.57,107.24a1,1,0,1,0,2,0V98.15c2.64-3.6,27.22-37.6,27.22-52.28a28.22,28.22,0,0,0-56.43,0c0,14.68,24.58,48.68,27.21,52.28Zm1-87.58A26.24,26.24,0,0,1,98.79,45.87c0,13.1-21.72,44-26.22,50.25C68.08,89.87,46.36,59,46.36,45.87A26.24,26.24,0,0,1,72.57,19.66Z" style="fill:#c52529"/><path d="M91.72,202.11A1,1,0,0,0,91,204a30.9,30.9,0,0,0,9.43,2.22h.08a1,1,0,0,0,.07-2A29,29,0,0,1,91.72,202.11Z" style="fill:#c52529"/><path d="M119.29,206.27h6.52a1,1,0,1,0,0-2h-6.52a1,1,0,1,0,0,2Z" style="fill:#c52529"/><path d="M72.57,136.48a1,1,0,0,0,1-1v-9.41a1,1,0,0,0-2,0v9.41A1,1,0,0,0,72.57,136.48Z" style="fill:#c52529"/><path d="M71.57,163.73a1,1,0,0,0,2,0v-9.42a1,1,0,0,0-2,0Z" style="fill:#c52529"/><path d="M76.33,191.63a1,1,0,0,0,.85.47,1,1,0,0,0,.53-.15,1,1,0,0,0,.31-1.38,29,29,0,0,1-3.56-8.33,1,1,0,1,0-1.94.49A30.89,30.89,0,0,0,76.33,191.63Z" style="fill:#c52529"/><path d="M263.55,163.27a3.92,3.92,0,1,0-5.54,0A3.92,3.92,0,0,0,263.55,163.27Z" style="fill:#c52529"/><path d="M139.27,189.36a3.91,3.91,0,1,0,0-5.53A3.92,3.92,0,0,0,139.27,189.36Z" style="fill:#c52529"/><path d="M139.27,236a3.92,3.92,0,1,0,5.54,0A3.92,3.92,0,0,0,139.27,236Z" style="fill:#c52529"/><path d="M83.66,45.87A11.17,11.17,0,1,0,72.49,57,11.18,11.18,0,0,0,83.66,45.87ZM72.49,55a9.17,9.17,0,1,1,9.17-9.17A9.18,9.18,0,0,1,72.49,55Z" style="fill:#c52529"/><path d="M227,152.83a3.91,3.91,0,1,0-5.53,0A3.92,3.92,0,0,0,227,152.83Z" style="fill:#c52529"/><path d="M211.35,152.83a3.91,3.91,0,1,0-5.53,0A3.92,3.92,0,0,0,211.35,152.83Z" style="fill:#c52529"/><path d="M227,199.49a3.91,3.91,0,1,0,0,5.53A3.91,3.91,0,0,0,227,199.49Z" style="fill:#c52529"/><path d="M205.82,199.49a3.91,3.91,0,1,0,5.53,0A3.9,3.9,0,0,0,205.82,199.49Z" style="fill:#c52529"/><path d="M197,178.92a3.91,3.91,0,1,0-5.53,0A3.9,3.9,0,0,0,197,178.92Z" style="fill:#c52529"/><path d="M175.81,178.92a3.91,3.91,0,1,0,0-5.53A3.91,3.91,0,0,0,175.81,178.92Z" style="fill:#c52529"/><path d="M191.47,225.58a3.91,3.91,0,1,0,5.53,0A3.92,3.92,0,0,0,191.47,225.58Z" style="fill:#c52529"/><path d="M175.81,225.58a3.91,3.91,0,1,0,5.53,0A3.92,3.92,0,0,0,175.81,225.58Z" style="fill:#c52529"/><path d="M243.86,251.84a1,1,0,0,0-1-1h-13.7V242.4h9.44a1,1,0,0,0,1-1V226.74h3.26a1,1,0,0,0,0-2H239.6v-24.1h34.53v3.18a1,1,0,0,0,2,0V147.45a1,1,0,0,0-1-1H239.6V137a1,1,0,0,0-1-1H190.2V127.6a1,1,0,1,0-2,0V136H164.39a1,1,0,0,0-1,1v9.44H127.86a1,1,0,0,0-1,1V250.84H117a1,1,0,1,0,0,2H242.86A1,1,0,0,0,243.86,251.84ZM237.6,240.4H165.39V216.3H237.6Zm-72.21-50.19H237.6V214.3H165.39Zm72.21-2H165.39v-24.1H237.6Zm-74.21,10.43H128.86V174.55h34.53Zm-34.53,2h34.53v24.1H128.86Zm110.74-2V174.55h34.53v24.09Zm34.53-50.19v24.1H239.6v-24.1ZM165.39,138H237.6v24.1H165.39Zm-2,10.44v24.1H128.86v-24.1Zm-34.53,78.29h34.53V241.4a1,1,0,0,0,1,1h9.44v8.44h-45Zm47,24.1V242.4h51.33v8.44Z" style="fill:#c52529"/><path d="M85,254.37a9.1,9.1,0,1,0,9.1,9.09A9.1,9.1,0,0,0,85,254.37Zm0,16.19a7.1,7.1,0,1,1,7.1-7.1A7.1,7.1,0,0,1,85,270.56Z" style="fill:#c52529"/><path d="M111.27,283.4V265.88c0-24.43-25.51-39.33-25.77-39.48a1,1,0,0,0-1,0c-.26.15-25.77,15-25.77,39.48V283.4L31.36,323.53a1.72,1.72,0,0,0,1.35,2.77H64.1v10.41a1,1,0,0,0,1,1h8.82a1,1,0,0,0-.93,1v39.68a7.24,7.24,0,0,0-6,5.47,8.9,8.9,0,0,0-13.69,7.5,1,1,0,0,0,2,0,6.9,6.9,0,0,1,11.78-4.88,1,1,0,0,0,1.41,0,1,1,0,0,0,.27-.82s0-.07,0-.11A5.25,5.25,0,0,1,74,380.29a1,1,0,0,0,1-1s0-.07,0-.11,0-.06,0-.1V338.69a1,1,0,0,0-.93-1H84.24v23.63a1,1,0,0,0,2,0V337.71h9.52v23.63a1,1,0,0,0,1,1h0a5.24,5.24,0,0,1,5.19,5.23s0,.08,0,.11a1,1,0,0,0,1.69.83,6.81,6.81,0,0,1,4.88-2,6.91,6.91,0,0,1,6.9,6.89,1,1,0,0,0,2,0,8.91,8.91,0,0,0-8.9-8.89,8.8,8.8,0,0,0-4.79,1.4,7.25,7.25,0,0,0-6-5.47v-22.7h7.15a1,1,0,0,0,1-1V326.3H137.3a1.72,1.72,0,0,0,1.35-2.77Zm-7.36,52.31H66.1V326.3h37.81Zm1-11.41H33.26L58.74,287v19.47a1,1,0,0,0,2,0V265.88c0-21.41,20.76-35.26,24.26-37.44,3.51,2.18,24.27,16,24.27,37.44V307.1a1,1,0,0,0,2,0V287l25.48,37.35Z" style="fill:#c52529"/><path d="M85.24,373.06a1,1,0,0,0-1,1v13.42a1,1,0,0,0,2,0V374.06A1,1,0,0,0,85.24,373.06Z" style="fill:#c52529"/><path d="M116.48,345.77a5.44,5.44,0,1,0,5.44,5.44A5.45,5.45,0,0,0,116.48,345.77Zm0,8.88a3.44,3.44,0,1,1,3.44-3.44A3.45,3.45,0,0,1,116.48,354.65Z" style="fill:#c52529"/><path d="M61.09,367.56A5.44,5.44,0,1,0,55.66,373,5.44,5.44,0,0,0,61.09,367.56Zm-8.87,0A3.44,3.44,0,1,1,55.66,371,3.45,3.45,0,0,1,52.22,367.56Z" style="fill:#c52529"/><path d="M41.21,377.41a3.36,3.36,0,1,0,3.35,3.36A3.36,3.36,0,0,0,41.21,377.41Z" style="fill:#c52529"/><path d="M253.73,213.82v77.32a1,1,0,0,0,2,0V244H422.1V318.9a1,1,0,0,0,2,0V243h0V213.82a1,1,0,0,0-1-1H254.73A1,1,0,0,0,253.73,213.82Zm168.37,1V242H255.73v-27.2Z" style="fill:#c52529"/><path d="M266.48,233.21a4.83,4.83,0,1,0-3.42-1.42A4.83,4.83,0,0,0,266.48,233.21Zm-2-6.83a2.83,2.83,0,0,1,4.82,2,2.77,2.77,0,0,1-.83,2,2.88,2.88,0,0,1-4,0,2.77,2.77,0,0,1-.83-2A2.81,2.81,0,0,1,264.48,226.38Z" style="fill:#c52529"/><path d="M280.82,232.25a3.88,3.88,0,1,0-2.73-1.13A3.84,3.84,0,0,0,280.82,232.25Zm-1.32-5.19a1.88,1.88,0,0,1,2.65,0,1.88,1.88,0,0,1,0,2.64,1.91,1.91,0,0,1-2.65,0,1.86,1.86,0,0,1,0-2.64Z" style="fill:#c52529"/><path d="M291.09,362h0a1,1,0,0,0-1,1v15.84H241.3v-71.4h26.82a1,1,0,0,0,0-2H240.3a1,1,0,0,0-1,1v73.4a1,1,0,0,0,1,1h50.78a1,1,0,0,0,1-1V363A1,1,0,0,0,291.09,362Z" style="fill:#c52529"/><path d="M352.91,349.54H282.05l41.21-41.18,15.05,15.06h0l10.06,10.07a1,1,0,0,0,1.41,0,1,1,0,0,0,0-1.42l-9.35-9.35L373.16,290l22,22a1,1,0,1,0,1.41-1.41l-22.69-22.69a1,1,0,0,0-.7-.3h0a1,1,0,0,0-.71.3L339,321.3,324,306.24a1,1,0,0,0-1.41,0L280.6,348.16V271.22h127v51.5a1,1,0,0,0,2,0v-52.5a1,1,0,0,0-1-1H279.6a1,1,0,0,0-1,1v80.32h0a1,1,0,0,0,1,1l.19,0h73.12a1,1,0,0,0,0-2Z" style="fill:#c52529"/><path d="M437.54,333.21H364.41a1,1,0,0,0-1,1V382a1,1,0,0,0,1,1h73.13a1,1,0,0,0,1-1V334.21A1,1,0,0,0,437.54,333.21Zm-1,47.74H365.41V335.21h71.13Z" style="fill:#c52529"/><path d="M290.09,292.91a12.23,12.23,0,1,0,12.23-12.23A12.24,12.24,0,0,0,290.09,292.91Zm22.45,0a10.23,10.23,0,1,1-10.22-10.23A10.23,10.23,0,0,1,312.54,292.91Z" style="fill:#c52529"/><path d="M397.31,370.6a1,1,0,0,0,1-.07l16.46-11.63a1,1,0,0,0,0-1.64l-16.46-11.64a1,1,0,0,0-1.58.82v23.28A1,1,0,0,0,397.31,370.6Zm1.46-22.23,13.73,9.71-13.73,9.71Z" style="fill:#c52529"/><path d="M268.13,316.9H252.54a1,1,0,1,0,0,2h15.59a1,1,0,0,0,0-2Z" style="fill:#c52529"/><path d="M268.13,328.38H252.54a1,1,0,1,0,0,2h15.59a1,1,0,0,0,0-2Z" style="fill:#c52529"/><path d="M268.13,339.86H252.54a1,1,0,1,0,0,2h15.59a1,1,0,0,0,0-2Z" style="fill:#c52529"/><path d="M269.13,352.34a1,1,0,0,0-1-1H252.54a1,1,0,0,0,0,2h15.59A1,1,0,0,0,269.13,352.34Z" style="fill:#c52529"/><path d="M252.54,362.82a1,1,0,0,0,0,2h7.94a1,1,0,0,0,0-2Z" style="fill:#c52529"/><path d="M223.06,65.54a8.43,8.43,0,0,0-16.86,0c0,4.66,8.43,16.1,8.43,16.1S223.06,70.2,223.06,65.54Zm-11.61,0a3.16,3.16,0,1,1,3.15,3.15A3.15,3.15,0,0,1,211.45,65.54Z" style="fill:#c52529"/><path d="M97.75,180c0,4.65,8.44,16.09,8.44,16.09s8.43-11.44,8.43-16.09a8.44,8.44,0,1,0-16.87,0Zm8.41-3.16A3.16,3.16,0,1,1,103,180,3.15,3.15,0,0,1,106.16,176.79Z" style="fill:#c52529"/></svg>