<svg id="Layer_1" data-name="Layer 1" xmlns="http://www.w3.org/2000/svg" viewBox="0 0 470 410"><path d="M349.22,173.57a1,1,0,0,0,1-1,32.31,32.31,0,0,1,.74-6.86l5,0h0a1,1,0,0,0,1-.71,28.82,28.82,0,0,1,2.37-5.64,1,1,0,0,0-.16-1.18l-3.52-3.6a31.64,31.64,0,0,1,4.2-5.11,34.89,34.89,0,0,1,5.18-4.13l3.55,3.59a1,1,0,0,0,1.19.18,26.5,26.5,0,0,1,5.68-2.3,1,1,0,0,0,.73-1l0-5a32.19,32.19,0,0,1,13.19.1l0,5.08a1,1,0,0,0,.73,1,24,24,0,0,1,5.56,2.35,1,1,0,0,0,1.2-.15l3.6-3.56a31.74,31.74,0,0,1,5.11,4.25,30.76,30.76,0,0,1,4.13,5.16l-3.6,3.55a1,1,0,0,0-.17,1.2,24.4,24.4,0,0,1,2.27,5.62,1,1,0,0,0,1,.73l5,.05a32.2,32.2,0,0,1-.1,13.19l-5-.05a1,1,0,0,0-1,.71,26.62,26.62,0,0,1-2.4,5.59,1,1,0,0,0,.16,1.2l3.55,3.6a28.63,28.63,0,0,1-4.24,5.11,31.73,31.73,0,0,1-5.18,4.13l-3.54-3.6a1,1,0,0,0-1.2-.18,26.47,26.47,0,0,1-5.64,2.32,1,1,0,0,0-.73.95l0,5a32,32,0,0,1-6.3.64,1,1,0,0,0,0,2A34.12,34.12,0,0,0,390,206a1,1,0,0,0,.78-1l0-5.09a28.46,28.46,0,0,0,4.67-1.92l3.59,3.64a1,1,0,0,0,1.23.16,33.84,33.84,0,0,0,6.2-4.83,30.76,30.76,0,0,0,5-6.15,1,1,0,0,0-.14-1.22L407.8,186a28.43,28.43,0,0,0,2-4.62l5.09,0a1,1,0,0,0,1-.76A34,34,0,0,0,416,165a1,1,0,0,0-1-.78l-5.09,0a25.64,25.64,0,0,0-1.88-4.66l3.64-3.59a1,1,0,0,0,.15-1.23,34.66,34.66,0,0,0-11-11.16,1,1,0,0,0-1.23.13L396,147.3a25.12,25.12,0,0,0-4.62-2l0-5.12a1,1,0,0,0-.76-1,34.18,34.18,0,0,0-15.65-.13,1,1,0,0,0-.77,1l0,5.06a29.45,29.45,0,0,0-4.7,1.91l-3.59-3.64a1,1,0,0,0-1.24-.15,37,37,0,0,0-6.2,4.83,34,34,0,0,0-4.92,6.13,1,1,0,0,0,.13,1.23l3.56,3.65a31.42,31.42,0,0,0-2,4.65l-5.1,0h0a1,1,0,0,0-1,.76,34,34,0,0,0-1,8.1A1,1,0,0,0,349.22,173.57Z" style="fill:#c52529"/><path d="M382.53,182.81a1,1,0,0,0,0,2,12.25,12.25,0,0,0,8.73-20.8,12.27,12.27,0,0,0-17.32-.19,12.12,12.12,0,0,0-3.65,8.76,1,1,0,0,0,1,1h0a1,1,0,0,0,1-1,10.1,10.1,0,0,1,3-7.32,10.24,10.24,0,0,1,14.35,14.61A10.11,10.11,0,0,1,382.53,182.81Z" style="fill:#c52529"/><path d="M218,280.17a1,1,0,0,0-1,1v10.47H189.72a9.93,9.93,0,1,0,.05,2H218a1,1,0,0,0,1-1V281.17A1,1,0,0,0,218,280.17Zm-32.48,18.29a7.83,7.83,0,0,1-13.36-5.54,7.83,7.83,0,1,1,13.36,5.54Z" style="fill:#c52529"/><path d="M240.2,320.5V281.17a1,1,0,0,0-2,0v39.38a9.82,9.82,0,0,0,1.23,19.57,9.82,9.82,0,0,0,.77-19.62ZM245,335.82a7.81,7.81,0,1,1,2.3-5.53A7.77,7.77,0,0,1,245,335.82Z" style="fill:#c52529"/><path d="M181.06,91.24a1,1,0,0,0,1-1V70.93h47.59a9.83,9.83,0,0,0,16.73,5.95A9.83,9.83,0,1,0,232.48,63a9.74,9.74,0,0,0-2.83,6H181.06a1,1,0,0,0-1,1V90.24A1,1,0,0,0,181.06,91.24ZM233.89,64.4a7.83,7.83,0,1,1-2.29,5.54h0A7.74,7.74,0,0,1,233.89,64.4Z" style="fill:#c52529"/><path d="M1.59,64.26H46A1,1,0,0,0,46.7,64L88.85,21.82a9.85,9.85,0,1,0-1.5-1.33L45.58,62.26h-44a1,1,0,0,0,0,2ZM89,8.3a7.83,7.83,0,1,1,0,11.07A7.77,7.77,0,0,1,89,8.3Z" style="fill:#c52529"/><path d="M-.6,311.14H51.74a9.85,9.85,0,1,0,0-2H-.6a1,1,0,0,0-1,1A1,1,0,0,0-.6,311.14ZM56,304.61a7.83,7.83,0,1,1-2.29,5.53A7.77,7.77,0,0,1,56,304.61Z" style="fill:#c52529"/><path d="M192.74,389.26,146,342.47a1,1,0,0,0-.7-.3H-.6a1,1,0,0,0-1,1,1,1,0,0,0,1,1H144.83l46.43,46.43a9.83,9.83,0,1,0,1.48-1.34Zm11.35,13.45a7.85,7.85,0,1,1,2.29-5.54A7.77,7.77,0,0,1,204.09,402.71Z" style="fill:#c52529"/><path d="M428.42,285.36a11.19,11.19,0,0,0-6.48-3.15,8.48,8.48,0,0,1-7.38-8.45v-1.38a3.49,3.49,0,0,1,1.33-2.69,14.54,14.54,0,0,0,5.26-11.23v-8.19a14.45,14.45,0,0,0-4.29-10.35,14.72,14.72,0,0,0-11.35-4.26,14.94,14.94,0,0,0-13.65,15.12v7.68a14.58,14.58,0,0,0,5.05,11.05,3.54,3.54,0,0,1,1.27,2.65v3.95a6,6,0,0,1-6,6c-.34,0-.68,0-1,.05a1,1,0,1,0,.16,2c.28,0,.56,0,.85,0a8,8,0,0,0,8-8v-3.95a5.53,5.53,0,0,0-2-4.16,12.59,12.59,0,0,1-4.36-9.54v-7.68a13,13,0,0,1,11.78-13.13,12.71,12.71,0,0,1,9.81,3.69,12.48,12.48,0,0,1,3.7,8.93v8.19a12.52,12.52,0,0,1-4.54,9.68,5.51,5.51,0,0,0-2.05,4.24v1.38a10.49,10.49,0,0,0,9.13,10.44,9.05,9.05,0,0,1,8,9v9.5a1,1,0,0,0,2,0v-9.5A11.22,11.22,0,0,0,428.42,285.36Z" style="fill:#c52529"/><path d="M322.78,282.17a8.53,8.53,0,0,1-7.1-8.4v-1.38a3.53,3.53,0,0,1,1.32-2.7,14.53,14.53,0,0,0,5.27-11.23v-8.19a14.64,14.64,0,0,0-15.63-14.61A15,15,0,0,0,293,250.78v7.68a14.67,14.67,0,0,0,4.5,10.56l.55.5a3.49,3.49,0,0,1,1.27,2.64v4a6,6,0,0,1-6,6,11.12,11.12,0,0,0-11.1,11.11v9.51a1,1,0,0,0,2,0v-9.51a9.11,9.11,0,0,1,9.1-9.11,8,8,0,0,0,8-8v-4a5.52,5.52,0,0,0-2-4.17l-.46-.43a12.29,12.29,0,0,1-2.21-2.83,12.52,12.52,0,0,1-1.67-6.27v-7.68a12.93,12.93,0,0,1,11.78-13.12,12.7,12.7,0,0,1,9.81,3.67,12.83,12.83,0,0,1,1.32,1.56,12.58,12.58,0,0,1,2.37,7.38v8.19a12.52,12.52,0,0,1-4.54,9.69,5.49,5.49,0,0,0-2.05,4.24v1.38a10.55,10.55,0,0,0,8.79,10.38,1,1,0,0,0,1.14-.84A1,1,0,0,0,322.78,282.17Z" style="fill:#c52529"/><path d="M378.28,282.82A11.79,11.79,0,0,1,368,271.09v-1.86a5.09,5.09,0,0,1,1.92-3.9,19.22,19.22,0,0,0,7-14.86v-11a19.16,19.16,0,0,0-5.68-13.71,19.43,19.43,0,0,0-15-5.63c-10.13.67-18.06,9.46-18.06,20v10.36a19.3,19.3,0,0,0,6.68,14.63,5.12,5.12,0,0,1,1.83,3.83v5.33a8.43,8.43,0,0,1-8.44,8.45,14.65,14.65,0,0,0-14.64,14.63v12.8a1,1,0,0,0,2,0v-12.8a12.65,12.65,0,0,1,12.64-12.63,10.43,10.43,0,0,0,10.44-10.45v-5.33a7.09,7.09,0,0,0-2.52-5.34,17.31,17.31,0,0,1-6-13.12V240.11c0-9.5,7.11-17.42,16.19-18a17.42,17.42,0,0,1,13.48,5.06,17.17,17.17,0,0,1,5.09,12.29v11a17.26,17.26,0,0,1-6.24,13.32,7.09,7.09,0,0,0-2.65,5.44v1.86a13.79,13.79,0,0,0,12,13.71,12.56,12.56,0,0,1,11.07,12.54v12.8a1,1,0,0,0,2,0v-12.8a14.57,14.57,0,0,0-12.82-14.52Z" style="fill:#c52529"/><path d="M156.29,248.29a1,1,0,0,0-1-1H62.62a19,19,0,0,1,0-38.08H67a1,1,0,0,0,.86-1.5A34.81,34.81,0,0,1,63,190.23c0-1,0-1.83.11-2.63a1,1,0,1,0-2-.18c-.08.86-.12,1.78-.12,2.81a36.39,36.39,0,0,0,4.27,17H62.62a21,21,0,0,0,0,42.08h92.67A1,1,0,0,0,156.29,248.29Z" style="fill:#c52529"/><path d="M111,157.44a35.9,35.9,0,0,1,6.29,3.21,1,1,0,0,0,.53.16,1,1,0,0,0,.44-.1,1,1,0,0,0,.56-.79,66.54,66.54,0,0,1,131.06-7,1,1,0,1,0,1.95-.43A68.54,68.54,0,0,0,117,158.14a36.2,36.2,0,0,0-5.29-2.56,1,1,0,1,0-.73,1.86Z" style="fill:#c52529"/><path d="M262.75,269.29h23a1,1,0,0,0,0-2H265.15l80.58-80.58a35.11,35.11,0,0,1,14.7,12.48L325,234.6a1,1,0,0,0,0,1.41,1,1,0,0,0,1.41,0l35.11-35.09a34.52,34.52,0,0,1,4.55,13.23,1,1,0,0,0,1,.87h.13a1,1,0,0,0,.87-1.12,36.74,36.74,0,0,0-5.5-15.12,37.2,37.2,0,0,0-45-14.62.2.2,0,0,0,0-.08h0a40.7,40.7,0,0,0-13.42-17.33,40.1,40.1,0,0,0-22.8-8l-1.31,0a40.35,40.35,0,0,0-26.65,10.1,1,1,0,1,0,1.31,1.5,38.49,38.49,0,0,1,24.21-9.58L172.32,267.29h-17a1,1,0,0,0,0,2H262.75Zm81-83.42-81.42,81.42H235.15l81.14-81.13a1,1,0,0,0,1.11.22,35.18,35.18,0,0,1,26.34-.51Zm-28.34-1.65-83.08,83.07H205.15l98.43-98.42A38.75,38.75,0,0,1,315.4,184.22Zm-33.74-23.44A38,38,0,0,1,302,167.67l-99.63,99.62H175.15Z" style="fill:#c52529"/><path d="M128.9,281.75l-2.83,2.83a1,1,0,0,0,1.41,1.42l2.83-2.83a1,1,0,0,0,0-1.42A1,1,0,0,0,128.9,281.75Z" style="fill:#c52529"/><path d="M240,170.7l-5.55,5.55a1,1,0,0,0,.71,1.71,1,1,0,0,0,.71-.3l5.55-5.55a1,1,0,0,0,0-1.41A1,1,0,0,0,240,170.7Z" style="fill:#c52529"/><path d="M251.06,159.59l-5.55,5.56a1,1,0,0,0,.7,1.7,1,1,0,0,0,.71-.29l5.55-5.55a1,1,0,0,0-1.41-1.42Z" style="fill:#c52529"/><path d="M268.43,144.64a1,1,0,0,0,.7-.29l5.56-5.56a1,1,0,0,0,0-1.41,1,1,0,0,0-1.42,0l-5.55,5.55a1,1,0,0,0,.71,1.71Z" style="fill:#c52529"/><path d="M257.32,155.75a1,1,0,0,0,.71-.3l5.55-5.55a1,1,0,1,0-1.41-1.41L256.61,154a1,1,0,0,0,.71,1.71Z" style="fill:#c52529"/><path d="M228.85,181.8l-5.55,5.56a1,1,0,0,0,0,1.41,1,1,0,0,0,1.41,0l5.55-5.55a1,1,0,0,0,0-1.42A1,1,0,0,0,228.85,181.8Z" style="fill:#c52529"/><path d="M195.53,215.12,190,220.67a1,1,0,0,0,1.41,1.42l5.56-5.56a1,1,0,0,0,0-1.41A1,1,0,0,0,195.53,215.12Z" style="fill:#c52529"/><path d="M151.11,259.54l-5.55,5.56a1,1,0,0,0,0,1.41,1,1,0,0,0,.7.29,1,1,0,0,0,.71-.29l5.55-5.55a1,1,0,0,0,0-1.42A1,1,0,0,0,151.11,259.54Z" style="fill:#c52529"/><path d="M140,270.65l-5.55,5.55a1,1,0,0,0,0,1.42,1,1,0,0,0,.71.29,1,1,0,0,0,.7-.29l5.56-5.56a1,1,0,0,0,0-1.41A1,1,0,0,0,140,270.65Z" style="fill:#c52529"/><path d="M162.21,248.44,156.66,254a1,1,0,1,0,1.42,1.41l5.55-5.55a1,1,0,0,0,0-1.41A1,1,0,0,0,162.21,248.44Z" style="fill:#c52529"/><path d="M184.43,226.23l-5.56,5.55a1,1,0,1,0,1.42,1.41l5.55-5.55a1,1,0,0,0-1.41-1.41Z" style="fill:#c52529"/><path d="M206.64,204l-5.55,5.55a1,1,0,0,0,0,1.41,1,1,0,0,0,.7.29,1,1,0,0,0,.71-.29l5.55-5.55a1,1,0,0,0,0-1.41A1,1,0,0,0,206.64,204Z" style="fill:#c52529"/><path d="M173.32,237.33l-5.55,5.55a1,1,0,0,0,1.41,1.42l5.55-5.55a1,1,0,0,0-1.41-1.42Z" style="fill:#c52529"/><path d="M217.74,192.91l-5.55,5.55a1,1,0,0,0,0,1.42,1,1,0,0,0,.71.29,1,1,0,0,0,.7-.29l5.56-5.56a1,1,0,0,0,0-1.41A1,1,0,0,0,217.74,192.91Z" style="fill:#c52529"/><path d="M279.53,133.53a1,1,0,0,0,.71-.29l2.83-2.83a1,1,0,0,0,0-1.41,1,1,0,0,0-1.42,0l-2.83,2.83a1,1,0,0,0,.71,1.7Z" style="fill:#c52529"/><path d="M93.14,126.84a20.83,20.83,0,0,0-41.65,0V135H39.32a1,1,0,0,0-1,1v45.52a1,1,0,0,0,1,1h66a1,1,0,0,0,1-1V136a1,1,0,0,0-1-1H93.14Zm-39.65,0a18.83,18.83,0,0,1,37.65,0V135H53.49Zm50.82,53.67h-64V137h64Z" style="fill:#c52529"/><path d="M72.31,149.32a6.06,6.06,0,0,0-4.57,10v11.2a1,1,0,0,0,1,1h7.15a1,1,0,0,0,1-1v-4.21a1,1,0,0,0-2,0v3.21H69.74V159a1,1,0,0,0-.29-.71,4.06,4.06,0,1,1,5.73,0,1,1,0,0,0-.29.71v2.66a1,1,0,0,0,2,0v-2.27a6.06,6.06,0,0,0-4.58-10Z" style="fill:#c52529"/></svg>