<svg id="Layer_1" data-name="Layer 1" xmlns="http://www.w3.org/2000/svg" viewBox="0 0 160 160"><title>reset-password</title><path d="M68.26,132H50.47V111.63a.75.75,0,0,0-1.5,0v21.14a.75.75,0,0,0,.75.75H68.26a.75.75,0,1,0,0-1.5Z" style="fill:#c52529"/><path d="M158.72,56.85h-21V42.48a33.49,33.49,0,1,0-67,0V56.85H63a.75.75,0,0,0,0,1.5h95V132H116.05a.75.75,0,1,0,0,1.5h42.67a.76.76,0,0,0,.75-.75V57.6A.75.75,0,0,0,158.72,56.85ZM72.23,42.48a32,32,0,1,1,64,0V56.85h-8.5V42.48a23.49,23.49,0,1,0-47,0V56.85h-8.5Zm54,14.37h-44V42.48a22,22,0,1,1,44,0Z" style="fill:#c52529"/><path d="M97.78,83.17a9.12,9.12,0,0,0-.22,12.65v18.85a.76.76,0,0,0,.75.75h11.81a.75.75,0,0,0,.75-.75v-7a.75.75,0,1,0-1.5,0v6.21H99.06V95.52a.75.75,0,0,0-.22-.53,7.6,7.6,0,1,1,10.75,0,.75.75,0,0,0-.22.53v4.39a.75.75,0,0,0,1.5,0V95.82A9.1,9.1,0,0,0,97.78,83.17Z" style="fill:#c52529"/><path d="M110,135.65,55.16,80.82A28.48,28.48,0,1,0,29.08,98.06a28.28,28.28,0,0,0,11.13-2.28l8.38,8.38a.75.75,0,0,0,.53.22H58v8.85a.75.75,0,0,0,.22.53l5.08,5.08a.75.75,0,0,0,.53.22h8.85v8.85a.75.75,0,0,0,.22.53L78,133.52a.75.75,0,0,0,.53.22h8.85v8.85a.75.75,0,0,0,.22.53L95,150.6a.74.74,0,0,0,.52.22l14.09.2h0a.79.79,0,0,0,.54-.22.74.74,0,0,0,.21-.54l-.2-14.09A.73.73,0,0,0,110,135.65Zm-14.1,13.68-7-7.05V133a.75.75,0,0,0-.75-.75H78.79l-4.64-4.64v-9.29a.76.76,0,0,0-.75-.75H64.11l-4.64-4.64v-9.29a.76.76,0,0,0-.75-.75H49.43L41.65,95.1a28.62,28.62,0,0,0,6.94-4.83l4.85,4.84a.75.75,0,0,0,1.06-1.06l-5.37-5.37a.75.75,0,0,0-1.06,0,26.92,26.92,0,0,1-8,5.51l0,0A27,27,0,1,1,53.6,80.69a.71.71,0,0,0,.09.75l0,.08h0l55,55,.18,13Z" style="fill:#c52529"/><path d="M98,137.5a.75.75,0,0,0-1.06,1.06l2.23,2.24a.76.76,0,0,0,1.07,0,.75.75,0,0,0,0-1.06Z" style="fill:#c52529"/><path d="M15.28,55.89a6.28,6.28,0,1,0,8.88,0A6.3,6.3,0,0,0,15.28,55.89Zm7.82,7.83a4.79,4.79,0,1,1,0-6.77A4.79,4.79,0,0,1,23.1,63.72Z" style="fill:#c52529"/></svg>