<svg id="Layer_1" data-name="Layer 1" xmlns="http://www.w3.org/2000/svg" viewBox="0 0 64 64"><title>-</title><polygon points="37.07 24.83 37.07 24.83 37.07 24.83 37.07 24.83" style="fill:#c52228"/><path d="M38.91,23.41a.67.67,0,0,1,.62.36,4.59,4.59,0,0,1,0,2.9H37.29v.49h2.12a10.68,10.68,0,0,1-.91,2.25l-.12.2,2.82,1.78-1.58,1,.27.41,1.77-1.17,1.91,1.25.26-.42-1.77-1.09s2.65-1.73,2.79-1.81h0a2.72,2.72,0,0,1-.53-2.44h2.34v-.49H44.51c.39-.94,1-1.78,2.93-1.78V24.4A3.21,3.21,0,0,0,44,26.67H40A4.77,4.77,0,0,0,40,23.52a1.16,1.16,0,0,0-1.05-.6,2.67,2.67,0,0,0-2.3,1.74l.46.17A2.19,2.19,0,0,1,38.91,23.41Zm2.74,7.68-2.08-1.31h4.07Zm2.17-3.93a2.74,2.74,0,0,0,.32,2.12h-5a12.18,12.18,0,0,0,.79-2.12Z" style="fill:#c52228"/><path d="M53.35,45.73a5.28,5.28,0,0,0-3.84-1.35c-.87-1-5.5-5.92-6.43-6.9A17.79,17.79,0,0,0,48,32.27h2.55v-.54H48.29c.15-.26.28-.51.41-.77h1.82v-.55H49a19.28,19.28,0,0,0,1.73-8.49h0c0-.86-.27-4.48-.77-5.48-1.33.51-3.75,2.15-4.3,3.82a26.71,26.71,0,0,0-8.18.11c-.43-1.81-2.61-3.19-4.25-4-.69,1.16-1,3.87-.92,5.79h0A22.66,22.66,0,0,0,33,27a35.15,35.15,0,0,0-15.31,8.72,11.83,11.83,0,0,1-2.45-5.33,5.8,5.8,0,0,1,1.18-4.55c1.59-2,3.85-2.12,6.17-1.72a1.51,1.51,0,0,0,.15.93c.62.91,3.92,1.22,5.89.35-1.46-2-4.4-3-5.22-2.64a1.4,1.4,0,0,0-.61.66,14,14,0,0,0-2.18-.25,5.83,5.83,0,0,0-4.79,2.19,6.54,6.54,0,0,0-1.34,5.13,12.84,12.84,0,0,0,2.67,5.79l-.73.8C12.7,41.21,10,45.64,10,46.38v.38h4.87l-.08-.45a5.93,5.93,0,0,1,1.4-4.64A6.88,6.88,0,0,1,19.9,39.4a50.7,50.7,0,0,0,6,4.92h3.62v-.38a1.25,1.25,0,0,0-.6-1.06,2.75,2.75,0,0,0-2.27-.15,5.58,5.58,0,0,1-1.3-3.44c7.86.7,15.38,3.87,23.86,8.3h4.67l.06-.3A2,2,0,0,0,53.35,45.73ZM33.51,17.46c.39,2.11,1.09,3.43,2.6,4.08a20.68,20.68,0,0,1,4.49-.71l1.32,2.89.84-2.92a20.31,20.31,0,0,1,4.56.64,6.25,6.25,0,0,0,2.23-3.92,29.61,29.61,0,0,1,.33,5,18.86,18.86,0,0,1-.29,3.66l-1.51.64,1.33.2c-.11.45-.23.89-.37,1.32l-1.28.37,1,.37c-.17.46-.37.91-.58,1.35H46.08V31h1.84c-.14.26-.28.52-.43.77H46.08v.54h1.06a15.86,15.86,0,0,1-5.35,5,14.59,14.59,0,0,1-5.63-5H37v-.54H35.82c-.16-.26-.3-.51-.44-.77H37v-.55H35.09a19.42,19.42,0,0,1-.84-2l1-.26L34,27.65c-.12-.39-.24-.78-.33-1.18l1.85-.13L33.4,25.22A19,19,0,0,1,33.51,17.46ZM15.6,41.19A6.93,6.93,0,0,0,14,46H10.91a44.11,44.11,0,0,1,6.7-9.1c.5.62,1.06,1.25,1.67,1.88A7.5,7.5,0,0,0,15.6,41.19Zm33.84,5.64c-8.56-4.46-16.08-7.61-24.07-8.3a15.66,15.66,0,0,1,.6-3.77l-.74-.2a16.11,16.11,0,0,0-.61,3.91c-.84-.06-1.67-.08-2.52-.08a9.83,9.83,0,0,0-2,.18,27,27,0,0,1-2-2.22,27.83,27.83,0,0,1,3.46-3l1.78,1.23L22.8,32.5c.54-.37,1.1-.72,1.67-1.06l2.64,1.34-1.24-2.13c.36-.2.72-.39,1.09-.57l3.69,2.47L29.44,29a28.92,28.92,0,0,1,3.73-1.22,18,18,0,0,0,1,2.67H32.53V31h1.95c.14.26.28.52.43.77H32.53v.54h2.72a19,19,0,0,0,6.47,6.07l.84-.51.66.72L42.1,40.28,44,39.4l1.1,1.2L43.25,42l2.58-.67,3.48,3.75.3,0a3.78,3.78,0,0,1,3.17,1.15,2.13,2.13,0,0,1,.39.6Z" style="fill:#c52228"/></svg>