<svg id="Layer_1" data-name="Layer 1" xmlns="http://www.w3.org/2000/svg" viewBox="0 0 64 64"><title>_</title><path d="M20.41,45.49a1.15,1.15,0,0,1-.48-.27,1.31,1.31,0,0,1-.27-.41,1.88,1.88,0,0,1-.06-.51h3.56V43H19.59a1.32,1.32,0,0,1,.41-1,1.23,1.23,0,0,1,.49-.26,2.57,2.57,0,0,1,.66-.07h2V40.27H20.41a2.53,2.53,0,0,0-1.91,1,3.5,3.5,0,0,0-.84,2.34,3.46,3.46,0,0,0,.77,2.21,2.35,2.35,0,0,0,1.85.94h2.9v-1.2H21.1A2.77,2.77,0,0,1,20.41,45.49Z" style="fill:#c52228"/><path d="M12.43,44.32A3.54,3.54,0,0,1,12,42.59a5.35,5.35,0,0,1,.3-2,1.3,1.3,0,0,1,1.23-1H17V38H13.7a4.14,4.14,0,0,0-1.61.33A3.11,3.11,0,0,0,10.53,40a6,6,0,0,0-.5,2.5A5.57,5.57,0,0,0,10.59,45a2.9,2.9,0,0,0,1.68,1.55,4.25,4.25,0,0,0,1.11.16h3.68V45.14l-3.4,0A1.35,1.35,0,0,1,12.43,44.32Z" style="fill:#c52228"/><path d="M28.61,40.37a5.68,5.68,0,0,0-1.22-.1H24.22v6.46h1.66v-5H27.5a.8.8,0,0,1,.54.21,1,1,0,0,1,.21.26.65.65,0,0,1,.07.29v4.25H30V42.34a2.3,2.3,0,0,0-.4-1.31A1.62,1.62,0,0,0,28.61,40.37Z" style="fill:#c52228"/><path d="M33.12,38H31.49v2.26h-1v1.35h1v3a3.92,3.92,0,0,0,.08.89,1.39,1.39,0,0,0,.37.68,1.55,1.55,0,0,0,1.18.53h1.53V45.47h-.49a1.17,1.17,0,0,1-.78-.26.89.89,0,0,1-.26-.66V41.62h1.6V40.27h-1.6Z" style="fill:#c52228"/><path d="M53.24,42.23a2.73,2.73,0,0,0-2-.69h-2.7a1.17,1.17,0,0,1-.8-.3,1,1,0,0,1-.32-.76.86.86,0,0,1,.34-.68,1,1,0,0,1,.68-.3h5V38H47.79a2.88,2.88,0,0,0-2.06.73A2.44,2.44,0,0,0,45,40.63a2.21,2.21,0,0,0,.79,1.75,2.74,2.74,0,0,0,1.86.68h2.45q1.5,0,1.5,1.11a.85.85,0,0,1-.38.75,1.35,1.35,0,0,1-.82.24H45.5v1.57h5.9A2.38,2.38,0,0,0,53.24,46,2.74,2.74,0,0,0,54,44,2.35,2.35,0,0,0,53.24,42.23Z" style="fill:#c52228"/><path d="M39.87,37.86a4.67,4.67,0,0,0-3.53,1.23,4.39,4.39,0,0,0-1.08,3.16,4.67,4.67,0,0,0,1.21,3.6,4.9,4.9,0,0,0,3.43,1A5,5,0,0,0,43.09,46a4.42,4.42,0,0,0,1.35-3.64A4.9,4.9,0,0,0,43.51,39,4.71,4.71,0,0,0,39.87,37.86Zm2,6.55a2,2,0,0,1-1.9.91,2.4,2.4,0,0,1-2.21-.94,4,4,0,0,1-.42-2.08,3.36,3.36,0,0,1,.53-2,2.2,2.2,0,0,1,1.91-.91,2.33,2.33,0,0,1,1.94.85,3.34,3.34,0,0,1,.58,2A4.11,4.11,0,0,1,41.89,44.41Z" style="fill:#c52228"/><polygon points="31.6 24.12 32 24.52 32.4 24.12 32.4 19.22 34.1 19.22 32 17.12 29.9 19.22 31.6 19.22 31.6 24.12" style="fill:#c52228"/><polygon points="31.2 23.72 31.2 19.62 29.5 19.62 28.3 20.82 31.2 23.72" style="fill:#c52228"/><polygon points="30.63 24.85 31.2 24.85 31.2 24.29 27.73 20.82 28.93 19.62 25.96 19.62 25.96 22.59 27.16 21.39 30.63 24.85" style="fill:#c52228"/><polygon points="27.16 21.96 25.96 23.16 25.96 24.85 30.06 24.85 27.16 21.96" style="fill:#c52228"/><polygon points="25.56 26.06 30.46 26.06 30.86 25.66 30.46 25.26 25.56 25.26 25.56 23.56 23.46 25.66 25.56 27.76 25.56 26.06" style="fill:#c52228"/><polygon points="30.06 26.46 25.96 26.46 25.96 28.16 27.16 29.36 30.06 26.46" style="fill:#c52228"/><polygon points="25.96 31.69 28.93 31.69 27.73 30.5 31.2 27.03 31.2 26.46 30.63 26.46 27.16 29.93 25.96 28.73 25.96 31.69" style="fill:#c52228"/><polygon points="31.2 31.69 31.2 27.6 28.3 30.5 29.5 31.69 31.2 31.69" style="fill:#c52228"/><polygon points="34.1 32.1 32.4 32.1 32.4 27.2 32 26.8 31.6 27.2 31.6 32.1 29.9 32.1 32 34.19 34.1 32.1" style="fill:#c52228"/><polygon points="35.7 30.5 32.8 27.6 32.8 31.69 34.5 31.69 35.7 30.5" style="fill:#c52228"/><polygon points="38.03 28.73 36.84 29.93 33.37 26.46 32.8 26.46 32.8 27.03 36.27 30.5 35.07 31.69 38.03 31.69 38.03 28.73" style="fill:#c52228"/><polygon points="38.03 28.16 38.03 26.46 33.94 26.46 36.84 29.36 38.03 28.16" style="fill:#c52228"/><polygon points="33.14 25.66 33.54 26.06 38.44 26.06 38.44 27.76 40.53 25.66 38.44 23.56 38.44 25.26 33.54 25.26 33.14 25.66" style="fill:#c52228"/><polygon points="32.8 23.72 35.7 20.82 34.5 19.62 32.8 19.62 32.8 23.72" style="fill:#c52228"/><polygon points="36.84 21.96 33.94 24.85 38.03 24.85 38.03 23.16 36.84 21.96" style="fill:#c52228"/><polygon points="32.8 24.29 32.8 24.85 33.37 24.85 36.84 21.39 38.03 22.59 38.03 19.62 35.07 19.62 36.27 20.82 32.8 24.29" style="fill:#c52228"/></svg>