<svg id="Layer_1" data-name="Layer 1" xmlns="http://www.w3.org/2000/svg" viewBox="0 0 64 64"><path d="M13.64,23.75h2.75L16,25.39a1.08,1.08,0,0,1-.37.54,1,1,0,0,1-.62.21H13.7a1.18,1.18,0,0,0-.77.26,1.36,1.36,0,0,0-.47.69,1.3,1.3,0,0,0,0,.62,1.36,1.36,0,0,0,.23.52,1.29,1.29,0,0,0,.44.36,1.41,1.41,0,0,0,.58.13h.78a.43.43,0,0,1,.36.18.42.42,0,0,1,.08.39l-.49,1.81h-.85A3.4,3.4,0,0,1,12,30.71a3.54,3.54,0,0,1-1.22-1,3.45,3.45,0,0,1-.66-1.44,3.64,3.64,0,0,1,0-1.67l.05-.18a3.49,3.49,0,0,1,.5-1.07,3.33,3.33,0,0,1,.79-.84,3.63,3.63,0,0,1,1-.54A3.36,3.36,0,0,1,13.64,23.75Z" style="fill:#c52228"/><path d="M15,31.09l2.4-9a1,1,0,0,1,.36-.55,1,1,0,0,1,.62-.2H21a3.55,3.55,0,0,1,1.62.38,3.65,3.65,0,0,1,1.89,2.46,3.46,3.46,0,0,1-.05,1.66l-.05.18A3.56,3.56,0,0,1,23.09,28a3.86,3.86,0,0,1-1,.55,3.48,3.48,0,0,1-1.16.19H18.7l.44-1.64a1.08,1.08,0,0,1,.37-.54,1,1,0,0,1,.62-.2h.7a1.26,1.26,0,0,0,.79-.27,1.23,1.23,0,0,0,.45-.7,1.18,1.18,0,0,0,0-.59,1.46,1.46,0,0,0-.24-.52,1.34,1.34,0,0,0-.44-.37,1.24,1.24,0,0,0-.58-.14H19.47l-1.78,6.61a.94.94,0,0,1-.36.53,1,1,0,0,1-.61.21Z" style="fill:#c52228"/><path d="M30.2,26.3l0-.14a.22.22,0,0,0,0-.16.22.22,0,0,0-.16-.07H26.1a.87.87,0,0,1-.46-.11,1,1,0,0,1-.35-.28,1.17,1.17,0,0,1-.18-.41,1.11,1.11,0,0,1,0-.48l.25-.92h5.35a1.86,1.86,0,0,1,.91.22,1.92,1.92,0,0,1,.69.57,2,2,0,0,1,.38.81,2.14,2.14,0,0,1,0,.94l-1,3.58a1.53,1.53,0,0,1-.59.88,1.59,1.59,0,0,1-1,.35l-4,0a2.11,2.11,0,0,1-1-.22,2,2,0,0,1-.71-.6,2.13,2.13,0,0,1-.39-.85,1.92,1.92,0,0,1,0-1l.05-.19a2,2,0,0,1,.29-.63,2.19,2.19,0,0,1,.46-.5,2.16,2.16,0,0,1,.6-.32,2.27,2.27,0,0,1,.69-.12h3.32l-.24.92a1,1,0,0,1-.36.53,1,1,0,0,1-.61.21H26.82a.26.26,0,0,0-.26.21.23.23,0,0,0,0,.23.28.28,0,0,0,.22.11h2.41a.38.38,0,0,0,.23-.08.28.28,0,0,0,.12-.19l0-.1Z" style="fill:#c52228"/><path d="M37.28,23.75a3.47,3.47,0,0,1,1.63.39,3.63,3.63,0,0,1,1.22,1,3.76,3.76,0,0,1,.66,1.45,3.51,3.51,0,0,1,0,1.67l-.61,2.29a.7.7,0,0,1-.26.39.77.77,0,0,1-.45.14H38.11a.43.43,0,0,1-.36-.17.44.44,0,0,1-.08-.4l.73-2.76a1.22,1.22,0,0,0,0-.6,1.64,1.64,0,0,0-.24-.52,1.26,1.26,0,0,0-.43-.36,1.2,1.2,0,0,0-.59-.14H35.8l-1.18,4.42a.7.7,0,0,1-.26.39.83.83,0,0,1-.46.14H32.6a.46.46,0,0,1-.36-.17.44.44,0,0,1-.08-.4L34,23.75Z" style="fill:#c52228"/><path d="M44.45,26.07a.63.63,0,0,0-.21.3l-.55,2.07a.35.35,0,0,0,.07.32.36.36,0,0,0,.29.14h5l-.38,1.45a1,1,0,0,1-.37.53,1,1,0,0,1-.61.21H43.14a2,2,0,0,1-.92-.21,2.06,2.06,0,0,1-1.06-1.39,1.84,1.84,0,0,1,0-.93l.74-2.76a2.93,2.93,0,0,1,.38-.82,2.68,2.68,0,0,1,1.38-1.07,2.7,2.7,0,0,1,.9-.15h3.25a1.88,1.88,0,0,1,.91.22,2,2,0,0,1,.68.57,2,2,0,0,1,.38.81,2.13,2.13,0,0,1,0,.94l-.22.83A1.56,1.56,0,0,1,49,28a1.62,1.62,0,0,1-1,.34H44.29l.25-.9a1,1,0,0,1,1-.75H47a.26.26,0,0,0,.27-.2l.05-.19a.26.26,0,0,0-.05-.24A.28.28,0,0,0,47,26H44.78A.57.57,0,0,0,44.45,26.07Z" style="fill:#c52228"/><path d="M49.07,31.09l2.45-9.18a.69.69,0,0,1,.26-.4.75.75,0,0,1,.45-.16h1.3a.43.43,0,0,1,.37.18.41.41,0,0,1,.08.4l-1.82,6.78a3,3,0,0,1-.44,1,3.12,3.12,0,0,1-.7.75,3.33,3.33,0,0,1-.91.49A3.19,3.19,0,0,1,49.07,31.09Z" style="fill:#c52228"/><path d="M18,39.24a.2.2,0,0,1-.05.22l-1.41,1.38.6,1.35a.31.31,0,0,1-.3.45H15.69a.43.43,0,0,1-.27-.08.41.41,0,0,1-.19-.22l-.06-.14a1.44,1.44,0,0,1-1,.45H11.44a1.42,1.42,0,0,1-.65-.16,1.42,1.42,0,0,1-.76-1,1.24,1.24,0,0,1,0-.66l.37-1.44a1.61,1.61,0,0,1,.31-.56,1.39,1.39,0,0,1,.5-.37,1.24,1.24,0,0,1,0-.63l.27-1a1.48,1.48,0,0,1,.2-.42,1.45,1.45,0,0,1,.31-.34,1.31,1.31,0,0,1,.4-.22,1.26,1.26,0,0,1,.47-.08h1.89a1.42,1.42,0,0,1,.65.16,1.6,1.6,0,0,1,.49.4,1.46,1.46,0,0,1,.26.58,1.34,1.34,0,0,1,0,.66l-.27,1c0,.08-.05.16-.08.23l-.11.2.06.1a.61.61,0,0,1,.05.12v0a.76.76,0,0,1,0,.11h0l.13-.1a.49.49,0,0,1,.34-.14h1.47A.17.17,0,0,1,18,39.24Zm-3.83,1.64.24-.23-.2-.46A.25.25,0,0,0,14,40H12.13a.12.12,0,0,0-.13.1l-.17.65a.1.1,0,0,0,0,.11A.13.13,0,0,0,12,41H14A.24.24,0,0,0,14.21,40.88Zm-1.27-2.59a.13.13,0,0,0,.11.06h1.08a.13.13,0,0,0,.13-.1l.17-.66a.15.15,0,0,0,0-.11.12.12,0,0,0-.1,0H13.22a.12.12,0,0,0-.12.1l-.18.65A.2.2,0,0,0,12.94,38.29Z" style="fill:#c52228"/><path d="M33.31,34l-1.65,6.11a3.36,3.36,0,0,1-.46,1,3.28,3.28,0,0,1-.74.79,3.22,3.22,0,0,1-.95.51,3.38,3.38,0,0,1-1.1.18h-9L21.68,34a.66.66,0,0,1,.25-.38.71.71,0,0,1,.43-.14h1.22a.43.43,0,0,1,.35.17A.4.4,0,0,1,24,34l-1.7,6.36h2.32L26.34,34a.67.67,0,0,1,.25-.37.63.63,0,0,1,.41-.15h1.24a.39.39,0,0,1,.34.18.38.38,0,0,1,.07.37L27,40.39h1.39a1.16,1.16,0,0,0,.74-.25,1.12,1.12,0,0,0,.43-.65L31,34a.66.66,0,0,1,.25-.38.71.71,0,0,1,.42-.14h1.23a.44.44,0,0,1,.43.55Z" style="fill:#c52228"/><path d="M34.9,39.18l-.79,2.94a.66.66,0,0,1-.25.38.71.71,0,0,1-.42.14H32.21a.42.42,0,0,1-.34-.17.41.41,0,0,1-.07-.37L34,34a.69.69,0,0,1,.24-.38.74.74,0,0,1,.43-.14H36.4l-.9,3.45h2.86L39.15,34a.71.71,0,0,1,.24-.37.68.68,0,0,1,.42-.15h1.8l-2.32,8.65a.67.67,0,0,1-.25.37.68.68,0,0,1-.42.14H37.39a.38.38,0,0,1-.34-.17A.37.37,0,0,1,37,42.1l.78-2.92Z" style="fill:#c52228"/><path d="M40,42.09l2.31-8.61h7.23a3.26,3.26,0,0,1,1.53.36,3.36,3.36,0,0,1,1.15,1,3.27,3.27,0,0,1,.63,1.36,3.22,3.22,0,0,1,0,1.57L51.6,42.12a.69.69,0,0,1-.68.52H49.7a.44.44,0,0,1-.35-.17.4.4,0,0,1-.08-.38l1.25-4.62a1.38,1.38,0,0,0,0-.64,1.26,1.26,0,0,0-.26-.56,1.38,1.38,0,0,0-.47-.39,1.26,1.26,0,0,0-.62-.15h-.53l-1.71,6.4a.72.72,0,0,1-.67.52H45a.43.43,0,0,1-.41-.55l1.7-6.38H44l-1.72,6.4a.69.69,0,0,1-.24.38.74.74,0,0,1-.43.14H40.39a.44.44,0,0,1-.35-.17A.4.4,0,0,1,40,42.09Z" style="fill:#c52228"/><path d="M52.43,34.26a.87.87,0,0,1,.1-.39.74.74,0,0,1,.29-.29.77.77,0,0,1,.39-.11.83.83,0,0,1,.4.11.75.75,0,0,1,.28.28.8.8,0,0,1,.11.4.75.75,0,0,1-.1.38.74.74,0,0,1-.29.29.77.77,0,0,1-.4.11.77.77,0,0,1-.39-.11.81.81,0,0,1-.29-.29A.7.7,0,0,1,52.43,34.26Zm.11,0a.69.69,0,0,0,.09.34.72.72,0,0,0,.25.24.67.67,0,0,0,.33.1.65.65,0,0,0,.34-.1.72.72,0,0,0,.25-.24.67.67,0,0,0,.09-.34.69.69,0,0,0-.09-.34.65.65,0,0,0-.92-.24.72.72,0,0,0-.25.24A.67.67,0,0,0,52.54,34.26Zm1-.19a.26.26,0,0,1,0,.15.25.25,0,0,1-.13.09l.25.42h-.17l-.22-.37h-.14v.37h-.16v-.94h.27a.45.45,0,0,1,.26.07A.25.25,0,0,1,53.53,34.07Zm-.45.16h.11a.22.22,0,0,0,.14,0,.13.13,0,0,0,.05-.11.14.14,0,0,0-.05-.11.24.24,0,0,0-.14,0h-.11v.3Z" style="fill:#c52228"/></svg>