<svg id="Layer_1" data-name="Layer 1" xmlns="http://www.w3.org/2000/svg" viewBox="0 0 64 64"><path d="M39.57,20.15v0h0a4.78,4.78,0,0,0,.39.5c.1.19.19.39.28.59l0,0a.69.69,0,0,0,.26-.61,1.74,1.74,0,0,1-.15-.26c-.07-.12-.23-.18-.33-.28A1.88,1.88,0,0,0,39.57,20.15Z" style="fill:#c52228"/><path d="M17.78,34.14l-2.46,7.45h0l-2.44-7.45H10.75c-.4,3.15-.65,6.54-.75,10.14h1.55c0-3,.17-5.66.36-8.08h0l2.57,8.08h1.3l2.58-8.08h0c.27,2.52.43,5.22.49,8.08h1.7c-.08-3.06-.34-6.45-.78-10.14Z" style="fill:#c52228"/><path d="M24.8,43.18a5.76,5.76,0,0,0-.37-2L23.09,36.8H21.42l1.86,5.78a7.52,7.52,0,0,1,.42,1.73,1.48,1.48,0,0,1-.54,1.11,1.69,1.69,0,0,1-1.18.41,4.83,4.83,0,0,1-.71,0v.91a2.81,2.81,0,0,0,1,.25c1.05,0,2-.65,2.9-2q1.7-2.55,2.73-8.18H26.33A28.24,28.24,0,0,1,24.8,43.18Z" style="fill:#c52228"/><polygon points="47.34 34.14 45.72 34.14 45.72 44.28 50.54 44.28 50.54 43.03 47.34 43.03 47.34 34.14" style="fill:#c52228"/><path d="M43.06,43.15A6.22,6.22,0,0,0,44.25,39q0-5-4-5a3.72,3.72,0,0,0-3,1.28,6.2,6.2,0,0,0-1.18,4.11,6,6,0,0,0,1,3.92A3.58,3.58,0,0,0,40,44.43a4.7,4.7,0,0,0,1.33-.18l2.42,1.42.67-1.14-1.87-.92A3.41,3.41,0,0,0,43.06,43.15Zm-2.86,0a2,2,0,0,1-1.78-.92,6.14,6.14,0,0,1-.62-3.18c0-2.56.78-3.83,2.33-3.83a2,2,0,0,1,1.79.91,6.19,6.19,0,0,1,.61,3.16C42.53,41.88,41.76,43.17,40.2,43.17Z" style="fill:#c52228"/><path d="M34.19,39.33,32,38.1c-.79-.44-1.22-1-1.22-1.56a1.27,1.27,0,0,1,.46-1,1.74,1.74,0,0,1,1.2-.38,5.15,5.15,0,0,1,1.95.42l.39-.87A4.6,4.6,0,0,0,32.22,34a3.29,3.29,0,0,0-2.23.76,2.54,2.54,0,0,0-.86,2,2.43,2.43,0,0,0,1.16,2.16s1.42.82,2.13,1.21,1.19.94,1.19,1.55a1.38,1.38,0,0,1-.55,1.12,2.3,2.3,0,0,1-1.44.41,5,5,0,0,1-2.18-.6l-.43.87a5.08,5.08,0,0,0,2.88,1,3.72,3.72,0,0,0,2.54-.83,2.7,2.7,0,0,0,1-2.12A2.39,2.39,0,0,0,34.19,39.33Z" style="fill:#c52228"/><path d="M53.8,34.32,53.44,34a6,6,0,0,0-1.28-1.23c-.39-.27-1.25-.64-1.41-1.09l0,0a4,4,0,0,0,.84-.2c.42-.11.8-.08,1.23-.19l.59-.17v-.11c-.22-.22-.38-.52-.62-.73a15.78,15.78,0,0,0-2-1.5c-.38-.25-.87-.41-1.27-.62-.15-.07-.39-.11-.48-.23a5,5,0,0,1-.5-.94c-.36-.68-.7-1.42-1-2.14a13.35,13.35,0,0,0-.62-1.39,12.39,12.39,0,0,0-4.75-4.59,6,6,0,0,0-1.56-.5l-.92-.05a4.05,4.05,0,0,1-.57-.43c-.7-.44-2.5-1.39-3-.13-.33.79.49,1.58.77,2a5.12,5.12,0,0,1,.62.92c.09.21.11.43.2.65a14.68,14.68,0,0,0,.64,1.64,5.24,5.24,0,0,0,.45.76c.1.14.27.2.31.42a3.29,3.29,0,0,0-.28.92,5.39,5.39,0,0,0,.35,4.12c.2.3.66,1,1.29.72s.43-.92.59-1.53c0-.15,0-.25.08-.34v0c.17.34.35.67.5,1a7.12,7.12,0,0,0,1.6,1.64c.29.22.52.6.89.74v0h0a2.18,2.18,0,0,0-.28-.25,6.19,6.19,0,0,1-.64-.73,15.32,15.32,0,0,1-1.37-2.23c-.2-.38-.37-.8-.53-1.18-.07-.15-.07-.37-.2-.44a4.55,4.55,0,0,0-.58.83,6.83,6.83,0,0,0-.35,1.85c-.05,0,0,0-.05,0-.39-.1-.52-.5-.67-.85a5.27,5.27,0,0,1-.11-3.27c.08-.26.45-1.07.3-1.31s-.31-.37-.45-.55a5.11,5.11,0,0,1-.44-.79c-.29-.68-.44-1.44-.76-2.13a6.29,6.29,0,0,0-.61-.94,6.12,6.12,0,0,1-.68-1,.58.58,0,0,1-.05-.5.2.2,0,0,1,.18-.16c.15-.14.61,0,.77.11a6,6,0,0,1,1.21.61c.17.12.36.36.58.42h.25c.4.08.84,0,1.21.13a8,8,0,0,1,1.76.85,10.79,10.79,0,0,1,3.82,4.19c.15.28.21.54.35.83.26.61.57,1.22.83,1.81a8.27,8.27,0,0,0,.87,1.64c.19.26.92.39,1.25.53a7.17,7.17,0,0,1,.85.34c.41.25.83.55,1.22.83.2.15.81.45.85.7a5.76,5.76,0,0,0-2.38.34c-.18.08-.48.08-.5.31s.11.26.19.39a2.89,2.89,0,0,0,.64.75c.26.2.52.39.79.56.47.3,1,.47,1.48.76.27.17.54.4.81.58s.22.26.39.32v0C53.91,34.6,53.89,34.44,53.8,34.32Z" style="fill:#c52228"/><polygon points="53.31 43.88 52.97 43.04 52.6 43.04 52.6 44.28 52.84 44.28 52.84 43.34 52.86 43.34 53.21 44.28 53.39 44.28 53.75 43.34 53.75 44.28 54 44.28 54 43.04 53.62 43.04 53.31 43.88" style="fill:#c52228"/><polygon points="51.34 43.25 51.7 43.25 51.7 44.28 51.97 44.28 51.97 43.25 52.32 43.25 52.32 43.04 51.34 43.04 51.34 43.25" style="fill:#c52228"/></svg>