<svg id="Layer_1" data-name="Layer 1" xmlns="http://www.w3.org/2000/svg" viewBox="0 0 64 64"><title>-</title><path d="M28.28,26.71l-2.16,8a4.51,4.51,0,0,1-.6,1.34,4.14,4.14,0,0,1-1,1,4.57,4.57,0,0,1-1.25.67,4.35,4.35,0,0,1-1.44.24H10l3-11.34a.92.92,0,0,1,.89-.69h1.6a.58.58,0,0,1,.47.23.56.56,0,0,1,.09.5l-2.24,8.35h3l2.26-8.4a.9.9,0,0,1,.32-.49A.88.88,0,0,1,20,26h1.62a.51.51,0,0,1,.45.23.54.54,0,0,1,.09.49l-2.24,8.36h1.84a1.56,1.56,0,0,0,1-.33,1.54,1.54,0,0,0,.56-.85l1.93-7.21a.9.9,0,0,1,.88-.69h1.61a.56.56,0,0,1,.46.23A.54.54,0,0,1,28.28,26.71Z" style="fill:#c52228"/><path d="M30.37,33.47l-1,3.86a.87.87,0,0,1-.32.5.92.92,0,0,1-.56.19H26.84a.53.53,0,0,1-.44-.23.56.56,0,0,1-.1-.48l2.84-10.64a.91.91,0,0,1,.32-.5A.92.92,0,0,1,30,26h2.33l-1.19,4.54h3.76l1-3.86a.87.87,0,0,1,.33-.49.84.84,0,0,1,.55-.19h2.36L36.13,37.32a.93.93,0,0,1-.32.5.92.92,0,0,1-.55.19H33.65a.56.56,0,0,1-.46-.23.52.52,0,0,1-.09-.48l1-3.83Z" style="fill:#c52228"/><path d="M37,37.29l3-11.3h9.5a4.26,4.26,0,0,1,2,.48,4.48,4.48,0,0,1,2.33,3,4.2,4.2,0,0,1-.06,2l-1.55,5.77a.9.9,0,0,1-.88.69H49.8a.58.58,0,0,1-.56-.73l1.64-6.07a1.79,1.79,0,0,0,0-.83,1.69,1.69,0,0,0-.35-.74,1.89,1.89,0,0,0-.61-.51,1.63,1.63,0,0,0-.82-.2h-.69l-2.25,8.4a.9.9,0,0,1-.32.49.88.88,0,0,1-.55.19H43.68a.51.51,0,0,1-.45-.23.54.54,0,0,1-.09-.49l2.24-8.37H42.33l-2.25,8.4a.93.93,0,0,1-.32.5,1,1,0,0,1-.56.19H37.59a.55.55,0,0,1-.46-.23A.54.54,0,0,1,37,37.29Z" style="fill:#c52228"/></svg>