<?xml version="1.0" encoding="UTF-8"?>
<svg xmlns="http://www.w3.org/2000/svg" id="a" data-name="Layer 1" width="1580" height="570" viewBox="300 300 580 480">
  <g>
    <path d="M781.715,426.21l-7.168,29.826h24.194l-6.016,25.09h-24.573s-3.49,13.338-3.49,13.338c-.748,3.366-1.371,5.859-1.745,7.728-.623,3.989-2.618,8.726,4.114,12.091,3.366,1.62,12.964,1.371,20.194,.499l-12.715,24.93-10.845,.374h-9.972c-10.471,0-17.95-2.493-22.188-6.731-3.366-3.241-4.986-8.352-4.986-15.332,0-3.989,.748-9.349,2.119-16.205l5.36-20.692h-14.621s5.888-25.09,5.888-25.09h14.337l4.48-19.457,37.635-10.369Z"/>
    <path d="M664.406,454.239c9.378,0,15.629,.625,21.506,2.001,5.877,1.375,10.503,3.501,14.129,6.377,5.752,4.876,10.003,12.003,10.003,22.256,0,8.502-2.001,16.88-5.877,25.007-6.127,13.129-15.379,20.381-26.382,25.632-8.627,4.126-24.882,7.002-36.135,6.627-11.128-.375-16.005-1-20.881-2.126-4.876-1.125-10.003-3.501-13.504-6.127-6.377-4.626-10.503-11.128-10.503-21.256,0-9.128,1.25-16.255,5.126-25.382,3.501-8.252,10.003-16.005,16.255-20.631,5.627-4.251,12.003-7.252,19.255-9.128,7.252-2.001,15.629-3.251,27.008-3.251Zm-5.752,23.132c-7.877,0-14.879,3.751-19.13,9.628-3.501,5.001-6.002,11.378-6.002,17.755,0,9.128,5.001,13.754,14.879,13.754,7.752,0,14.754-3.876,19.005-9.753,3.501-4.876,6.127-11.628,6.127-18.005,0-9.003-5.002-13.254-14.879-13.379Z"/>
    <g>
      <path d="M308.939,456.036l-20.17,82.796h-34.363l20.17-82.796h34.363Z"/>
      <path d="M303.178,417.228c4.751,.25,8.002,1.75,10.378,4.501,2.376,2.751,2.626,6.377,2.501,9.878-.875,6.002-3.001,9.628-7.752,13.254-5.377,3.751-9.753,5.126-17.13,4.501-4.626-.375-8.627-2.501-10.503-4.876-2.001-2.376-2.876-6.002-2.501-9.753,.375-3.751,2.376-8.377,7.127-12.253,4.751-3.876,12.504-5.502,17.88-5.252Z"/>
    </g>
    <path d="M357.208,457.166l-1.616,7.21c7.21-4.6,12.059-6.589,17.156-7.832,5.594-1.492,9.945-1.74,16.907-1.492,8.454,.249,14.172,2.113,19.642,5.719,4.848,3.605,7.832,7.956,8.329,14.794,.124,4.724-1.492,11.81-1.492,11.81l-12.68,52.711h-33.69l10.07-41.522c.995-4.724,1.616-7.21,1.74-9.324,.622-6.713-4.475-8.454-11.686-8.454-6.092,0-13.426,1.989-17.032,5.843-2.984,3.108-4.724,7.956-6.962,16.907l-8.827,36.549h-33.939l20.015-82.796h34.063v-.124h0Z"/>
    <polygon points="33.727 459.8 251.539 459.675 246.912 482.181 33.727 459.8" fill="#c42227"/>
    <polygon points=".717 462.366 244.662 489.124 240.285 508.879 .717 462.366" fill="#c42227"/>
    <path d="M437.799,456.036h33.443l-1.266,5.949c6.835-3.924,9.367-5.316,13.671-6.456,7.089-1.899,12.405-2.152,17.721-1.899,6.709,.253,10.506,1.266,15.063,3.418,3.418,2.025,6.076,3.797,9.24,8.228,8.354-5.57,14.051-8.101,19.747-9.747,5.949-1.646,11.519-2.025,17.975-2.025,8.987,0,16.076,2.025,20.633,5.696,4.557,3.671,8.481,8.861,8.481,15.949,.253,3.544-1.392,10.127-1.392,10.127l-13.164,54.81h-34.704l10.378-44.586s1.125-5.126,1.5-7.377c.75-5.001-2.876-8.002-9.753-8.127-6.502-.125-12.003,1.125-15.88,5.877-2.626,3.001-3.501,5.752-5.752,13.754l-9.503,40.46h-34.01s9.878-41.335,10.503-44.586c.375-1.625,1.125-4.751,1.375-7.252,.875-5.252-3.251-8.127-9.378-8.377-5.752-.125-10.503,2.001-13.879,5.001-4.751,4.251-6.127,11.003-8.252,18.38l-8.752,35.579h-33.967l19.921-82.796Z"/>
    <path d="M1019.575,457.166l-1.616,7.21c7.21-4.6,12.059-6.589,17.156-7.832,5.594-1.492,9.945-1.74,16.907-1.492,8.454,.249,14.172,2.113,19.642,5.719,4.848,3.605,7.832,7.956,8.329,14.794,.124,4.724-1.492,11.81-1.492,11.81l-12.68,52.711h-33.815l10.07-41.522c.995-4.724,1.616-7.21,1.74-9.324,.622-6.713-4.6-8.454-11.686-8.454-6.092,0-13.426,1.989-17.032,5.843-2.984,3.108-4.724,7.956-6.962,16.907l-8.827,36.549h-33.566l20.015-82.796h33.815v-.124h0Z"/>
    <g>
      <path d="M849.342,456.036l-20.17,82.796h-34.363l20.17-82.796h34.363Z"/>
      <path d="M843.582,417.228c4.751,.25,8.002,1.75,10.378,4.501,2.376,2.751,2.626,6.377,2.501,9.878-.875,6.002-3.001,9.628-7.752,13.254-5.377,3.751-9.753,5.126-17.13,4.501-4.626-.375-8.627-2.501-10.503-4.876-2.001-2.376-2.876-6.002-2.501-9.753,.375-3.751,2.376-8.377,7.127-12.253,4.751-4.001,12.504-5.502,17.88-5.252Z"/>
    </g>
    <path d="M918.603,453.989c9.378,0,15.629,.625,21.506,2.001,5.877,1.375,10.503,3.501,14.129,6.377,5.752,4.876,10.003,12.003,10.003,22.256,0,8.502-2.001,16.88-5.877,25.007-6.127,13.129-15.379,20.381-26.382,25.632-8.627,4.126-24.882,7.002-36.135,6.627-11.128-.375-16.005-1-20.881-2.126-4.876-1.125-10.003-3.501-13.504-6.127-6.377-4.626-10.503-11.128-10.503-21.256,0-9.128,1.25-16.255,5.126-25.382,3.501-8.252,10.003-16.005,16.255-20.631,5.627-4.251,12.003-7.252,19.256-9.128,7.252-1.876,15.505-3.126,27.008-3.251Zm-5.877,23.257c-7.877,0-14.879,3.751-19.13,9.628-3.501,5.001-6.002,11.378-6.002,17.755,0,9.128,5.001,13.754,14.879,13.754,7.752,0,14.754-3.876,19.005-9.753,3.501-4.876,6.127-11.628,6.127-18.005,0-9.128-5.002-13.254-14.879-13.379Z"/>
  </g>
  <g>
    <path d="M710.626,601.042c-3.467-2.09-7.793-3.135-12.976-3.135s-10.011,.967-14.486,2.897c-4.474,1.932-8.381,4.659-11.718,8.183-3.337,3.524-5.948,7.665-7.83,12.424-1.883,4.759-2.824,9.964-2.824,15.618,0,8.283,2.255,14.764,6.767,19.443,4.512,4.678,10.552,7.019,18.122,7.019,4.586,0,8.724-.678,12.416-2.032,3.691-1.354,6.889-3.167,9.593-5.434,2.703-2.27,4.875-4.839,6.516-7.707,1.641-2.865,2.704-5.813,3.188-8.839h-9.453c-.671,2.588-1.855,5.009-3.551,7.257-1.698,2.251-3.98,4.051-6.851,5.405-2.872,1.354-6.414,2.032-10.627,2.032-5.072,0-9.088-1.485-12.053-4.45-2.964-2.968-4.447-7.376-4.447-13.231,0-4.26,.616-8.173,1.846-11.736,1.23-3.563,2.982-6.649,5.257-9.257,2.275-2.608,5.007-4.64,8.194-6.093,3.188-1.453,6.72-2.18,10.598-2.18,3.282,0,6.041,.527,8.278,1.582,2.237,1.055,3.934,2.588,5.09,4.601,1.155,2.01,1.734,4.448,1.734,7.315,0,.28-.01,.549-.028,.807-.019,.26-.048,.489-.084,.688h9.508c.074-.318,.13-.736,.168-1.256,.036-.515,.056-1.174,.056-1.971,0-3.422-.867-6.749-2.601-9.974-1.734-3.225-4.334-5.884-7.803-7.974Z"/>
    <path d="M781.155,601.251c-3.617-2.229-8.017-3.344-13.2-3.344-5.071,0-9.825,.987-14.261,2.958-4.438,1.971-8.334,4.739-11.69,8.302-3.356,3.563-5.976,7.724-7.858,12.482-1.883,4.759-2.824,9.926-2.824,15.501,0,5.254,.988,9.865,2.964,13.826,1.975,3.962,4.828,7.048,8.557,9.257,3.728,2.209,8.221,3.315,13.48,3.315,4.511,0,8.613-.617,12.304-1.852,3.691-1.232,6.916-2.875,9.676-4.926,2.759-2.051,4.997-4.331,6.713-6.839,1.715-2.508,2.833-5.038,3.356-7.585h-9.62c-.411,1.393-1.129,2.788-2.154,4.18-1.025,1.395-2.386,2.678-4.083,3.852-1.697,1.176-3.766,2.112-6.208,2.807-2.442,.698-5.304,1.045-8.584,1.045-3.879,0-7.095-.685-9.648-2.061-2.555-1.373-4.456-3.354-5.706-5.942-1.249-2.588-1.873-5.675-1.873-9.257,0-.792,.044-1.561,.087-2.331h50.082c.41-1.351,.783-3.155,1.119-5.405,.336-2.248,.503-4.229,.503-5.942,0-4.817-.95-9.138-2.852-12.961-1.901-3.823-4.662-6.849-8.278-9.08Zm-38.788,23.893c1.249-3.624,3.039-6.788,5.37-9.498,2.329-2.707,5.117-4.807,8.361-6.302,3.244-1.492,6.88-2.238,10.907-2.238,3.691,0,6.72,.666,9.088,2,2.367,1.334,4.129,3.147,5.286,5.434,1.155,2.292,1.734,4.868,1.734,7.736,0,1.364-.051,2.448-.146,3.286h-40.723c.045-.137,.076-.282,.123-.418Z"/>
    <path d="M855.989,602.296c-3.393-2.926-7.98-4.389-13.76-4.389-3.393,0-6.767,.698-10.123,2.09-3.356,1.395-6.479,3.315-9.368,5.765-.765,.647-1.495,1.327-2.199,2.03l1.78-8.93h-9.508l-12.64,63.432h9.508l7.168-35.974c.785-3.352,2.181-6.41,4.241-9.15,2.2-2.926,4.828-5.257,7.886-6.99,3.058-1.73,6.171-2.598,9.341-2.598,4.25,0,7.429,.938,9.536,2.807,2.106,1.874,3.16,4.421,3.16,7.646,0,1.633-.178,3.495-.531,5.585-.355,2.09-.885,4.849-1.594,8.273l-6.207,30.401h9.507l6.097-29.446c.894-4.26,1.584-7.814,2.07-10.662,.484-2.846,.727-5.364,.727-7.556,0-5.293-1.698-9.405-5.09-12.334Z"/>
    <path d="M890.161,638.582l6.153-30.759h18.568l1.79-8.961h-18.568l4.139-21.023h-9.564l-2.741,13.975c-.298,1.553-.578,2.807-.839,3.765-.262,.955-.578,1.662-.95,2.119-.373,.459-.896,.768-1.567,.926-.671,.16-1.603,.238-2.796,.238h-9.733l-1.79,8.961h14.487l-6.824,34.045c-.447,2.19-.82,4.141-1.119,5.852-.299,1.713-.447,3.247-.447,4.601,0,2.231,.354,4.061,1.063,5.495,.708,1.434,1.668,2.549,2.88,3.344,1.212,.797,2.564,1.344,4.056,1.643,1.491,.299,3.02,.447,4.586,.447,1.417,0,2.619-.109,3.607-.328,.988-.219,1.837-.447,2.545-.688l1.734-8.839c-.523,.199-1.38,.399-2.573,.598-1.195,.199-2.332,.299-3.413,.299-1.603,0-2.731-.428-3.383-1.286-.653-.855-.98-2.08-.98-3.672,0-1.113,.158-2.547,.476-4.299,.316-1.752,.718-3.903,1.203-6.453Z"/>
    <path d="M955.152,597.907c-3.208,0-6.134,.547-8.781,1.643-2.648,1.096-4.997,2.569-7.047,4.421-.914,.824-1.752,1.699-2.537,2.611l1.53-7.72h-9.508l-12.64,63.432h9.508l6.935-34.703c.447-2.27,1.146-4.557,2.097-6.868,.951-2.309,2.2-4.45,3.747-6.421,1.548-1.971,3.458-3.553,5.733-4.749,2.275-1.193,4.959-1.791,8.054-1.791,2.088,0,3.664,.219,4.726,.656,1.063,.44,1.743,.797,2.043,1.077l4.474-9.974c-.299-.241-1.166-.569-2.601-.987-1.436-.418-3.347-.627-5.733-.627Z"/>
    <path d="M1017.237,607.311c-.01-.019-.019-.039-.029-.057-1.772-3.125-4.205-5.463-7.299-7.016-3.096-1.553-6.637-2.331-10.627-2.331-5.146,0-9.892,1.006-14.235,3.016-4.343,2.012-8.11,4.819-11.297,8.421-3.188,3.604-5.669,7.816-7.439,12.633-1.772,4.819-2.657,10.054-2.657,15.71,0,5.894,1.071,10.749,3.216,14.572,2.144,3.823,5.006,6.652,8.586,8.482,3.58,1.83,7.532,2.749,11.857,2.749,4.661,0,9.107-1.048,13.34-3.138,2.545-1.257,4.891-2.914,7.046-4.957l-1.369,6.899h9.564l12.584-63.432h-9.564l-1.676,8.449Zm-10.013,37.842c-2.312,2.984-5.006,5.254-8.081,6.807-3.077,1.553-6.237,2.331-9.481,2.331-3.058,0-5.789-.608-8.193-1.823-2.406-1.213-4.307-3.116-5.705-5.704-1.399-2.588-2.097-5.933-2.097-10.035,0-4.18,.568-8.071,1.706-11.675,1.137-3.604,2.797-6.749,4.978-9.437,2.181-2.688,4.837-4.778,7.97-6.273,3.131-1.492,6.711-2.238,10.738-2.238,2.759,0,5.266,.557,7.523,1.672,2.255,1.116,4.045,2.768,5.37,4.958,1.322,2.19,1.984,4.878,1.984,8.061,0,.717-.056,1.655-.167,2.809-.015,.153-.032,.291-.048,.436l-2.035,10.257c-.864,3.801-2.331,7.102-4.461,9.854Z"/>
    <polygon points="1051.52 568.939 1032.95 662.295 1042.403 662.295 1060.972 568.939 1051.52 568.939"/>
  </g>
</svg>