<?xml version="1.0" encoding="UTF-8"?><svg id="Layer_1" xmlns="http://www.w3.org/2000/svg" xmlns:xlink="http://www.w3.org/1999/xlink" viewBox="0 0 1200 1200.01"><defs><style>.cls-1{fill:url(#linear-gradient-2);}.cls-2{fill:url(#linear-gradient-6);}.cls-3{fill:url(#linear-gradient-5);}.cls-4{fill:url(#linear-gradient-7);}.cls-5{fill:url(#linear-gradient-3);}.cls-6{fill:url(#linear-gradient);}.cls-7{fill:url(#linear-gradient-4);}.cls-8{fill:url(#linear-gradient-8);}</style><linearGradient id="linear-gradient" x1="158.61" y1="406.13" x2="614.86" y2="406.13" gradientUnits="userSpaceOnUse"><stop offset="0" stop-color="#c52228"/><stop offset="1" stop-color="#961b1e"/></linearGradient><linearGradient id="linear-gradient-2" x1="0" y1="526.72" x2="665.24" y2="526.72" xlink:href="#linear-gradient"/><linearGradient id="linear-gradient-3" x1="9.13" y1="813.27" x2="803.12" y2="813.27" xlink:href="#linear-gradient"/><linearGradient id="linear-gradient-4" x1="170.6" y1="867.13" x2="882.85" y2="867.13" xlink:href="#linear-gradient"/><linearGradient id="linear-gradient-5" x1="585.14" y1="793.81" x2="1041.39" y2="793.81" xlink:href="#linear-gradient"/><linearGradient id="linear-gradient-6" x1="534.26" y1="673.28" x2="1200" y2="673.28" xlink:href="#linear-gradient"/><linearGradient id="linear-gradient-7" x1="396.91" y1="386.74" x2="1190.87" y2="386.74" xlink:href="#linear-gradient"/><linearGradient id="linear-gradient-8" x1="317.15" y1="332.62" x2="1029.4" y2="332.62" xlink:href="#linear-gradient"/></defs><path class="cls-6" d="M614.86,9.14c-.06,.03-.11,.03-.17,.06-1.89,.62-3.78,1.3-5.7,1.95-.96,.34-1.95,.68-2.9,1.02-2.88,1.01-5.73,2.06-8.57,3.13-60.64,22.87-114.82,57.9-161.04,104.1-9.48,9.48-18.53,19.35-26.88,29.33-13.48,16.02-25.75,32.77-36.75,50.2-3.61,5.7-7.05,11.51-10.38,17.34-1.83,3.24-3.64,6.49-5.39,9.79-16.5,30.66-29.42,63.23-38.58,97.44-13.74,51.56-18.36,104.61-13.68,157.74,3.61,41.54,12.89,82.33,27.55,121.25,11.99,31.79,27.58,62.25,46.42,90.62,1.66,2.48,3.36,4.99,5.02,7.39,1.49,2.17,3.02,4.34,4.54,6.43,1.1,1.52,2.2,3.02,3.27,4.46,2.82,3.86,5.78,7.78,8.83,11.56l2.48,3.21c2.34,2.88,4.71,5.75,7.02,8.49,.76,.9,1.52,1.81,2.31,2.71,.23,.28,.48,.59,.87,1.04,1.47,1.66,2.93,3.36,4.4,4.99,.06,.06,.11,.11,.17,.17,1.95,2.26,3.98,4.48,6.12,6.77,1.35,1.47,2.71,2.93,4,4.32,.03,0,.06,.03,.06,.06,.03,0,.06,.03,.06,.06l1.49,1.52c.79,.82,1.55,1.64,2.4,2.48,1.16,1.21,2.31,2.4,3.5,3.58,.11,.17,.28,.31,.45,.51l1.35,1.35c.2,.17,.34,.31,.51,.45,1.16,1.16,2.31,2.28,3.5,3.41l.28,.28c14.52,13.71,30.6,25.38,47.81,34.78-.23-.06-.42-.11-.65-.17-.79-.2-1.55-.42-2.34-.62-2.85-.76-5.67-1.52-8.52-2.34-1.16-.34-2.31-.68-3.47-1.01-2.62-.79-5.22-1.58-7.81-2.4-1.02-.34-2.03-.65-3.05-.99-3.53-1.13-7.02-2.31-10.52-3.55-.54-.17-1.04-.4-1.58-.56-2.99-1.07-5.95-2.17-8.88-3.3-1.13-.42-2.23-.85-3.33-1.3-2.48-.96-4.96-1.97-7.45-2.99-1.04-.42-2.09-.87-3.13-1.3-3.41-1.44-6.83-2.93-10.18-4.46-36.72-16.58-71.02-38.16-101.96-64.14-7.45-6.26-14.67-12.72-21.63-19.4-30.26-28.94-56.1-61.85-77.08-98.12-30.43-52.57-49.3-109.71-56.18-170.01-.45-4-.85-8.04-1.21-12.1-1.1-12.66-1.66-25.64-1.66-38.58,0-63.29,13.14-124.41,39.03-181.66,1.24-2.74,2.51-5.47,3.81-8.18,9.05-19.04,19.55-37.48,31.22-54.94,32.32-48.45,73.22-89.46,121.47-121.87h260.71Z"/><path class="cls-1" d="M665.24,822c-.17,.08-.34,.2-.51,.31-.65,.37-1.3,.73-1.95,1.13-2.59,1.49-5.22,2.99-7.84,4.43-1.04,.56-2.06,1.13-3.1,1.69-2.43,1.33-4.85,2.59-7.3,3.86-.9,.48-1.83,.99-2.76,1.44-3.33,1.69-6.63,3.36-9.98,4.96-.45,.2-.87,.39-1.33,.59-2.93,1.38-5.87,2.76-8.83,4.09-1.07,.45-2.12,.93-3.19,1.38-2.48,1.1-4.96,2.14-7.47,3.19-1.04,.42-2.06,.87-3.07,1.27-3.47,1.41-6.91,2.79-10.38,4.09-37.71,14.21-77.25,23.21-117.52,26.71-22.53,1.97-45.04,2.23-67.41,.79-28.8-1.86-57.34-6.57-85.43-14.05-62.72-16.78-119.72-46.48-169.36-88.28-9.67-8.09-19.23-16.87-28.43-26.06-44.79-44.79-78.74-97.27-100.88-156.02-8.26-21.83-14.81-44.56-19.49-67.52-11.82-57.9-11.99-116.65-.51-174.61L193.25,170.6c-.06,.14-.11,.28-.2,.42-.99,1.97-1.95,3.98-2.93,5.95-.42,.9-.87,1.78-1.3,2.65-1.35,2.88-2.71,5.78-4.03,8.69-26.71,59.09-40.27,122.15-40.27,187.47,0,13.37,.59,26.77,1.72,39.82,5.81,66.81,25.72,130.05,59.26,187.92,26.62,46.09,60.86,86.87,101.82,121.25,31.93,26.82,67.32,49.1,105.23,66.22,30.83,13.99,63.43,24.51,96.88,31.25,1.86,.37,3.69,.73,5.42,1.04,1.1,.23,2.2,.42,3.27,.62l1.38,.25c2.17,.39,4.37,.79,6.54,1.13,3.55,.56,7.11,1.1,10.72,1.61l.37,.06c.25,.06,.51,.08,.54,.08,3.38,.45,6.77,.87,10.21,1.27,2.09,.25,4.15,.48,6.2,.68,1.47,.14,2.93,.28,4.37,.4l.54,.06c2.45,.2,4.91,.42,7.39,.59,2.68,.2,5.36,.39,8.01,.54,2.4,.14,4.79,.25,7.25,.34l4.48,.17c2.28,.06,4.57,.11,6.71,.14h1.24c.51,.03,1.04,.03,1.55,.03,.59,.03,1.18,.03,1.78,.03h5.25c.65,0,1.33,0,1.72-.03,20.84-.37,41.29-3.53,60.89-9.25Z"/><path class="cls-5" d="M803.12,710.79c-.06,.23-.11,.42-.17,.65-.2,.76-.39,1.52-.59,2.28-.79,2.85-1.55,5.73-2.4,8.57-.31,1.13-.65,2.28-.99,3.41-.79,2.62-1.58,5.25-2.43,7.87-.31,1.02-.62,2-.96,3.02-1.13,3.53-2.31,7.02-3.55,10.52-.17,.51-.37,1.04-.56,1.55-1.07,2.99-2.17,5.95-3.3,8.91-.42,1.13-.85,2.23-1.3,3.33-.96,2.48-1.97,4.96-2.99,7.45-.42,1.04-.87,2.09-1.3,3.13-1.44,3.41-2.93,6.83-4.46,10.18-16.58,36.72-38.16,71.02-64.14,101.96-33.34,39.68-72.88,72.91-117.52,98.71-45.58,26.37-94.54,44.08-146.07,52.8-11.87,2-23.89,3.55-36.04,4.6-12.66,1.1-25.64,1.66-38.58,1.66-63.29,0-124.41-13.14-181.66-39.03-11.56-5.22-22.93-10.97-34.04-17.2-9.93-5.58-19.66-11.51-29.08-17.82-48.45-32.35-89.46-73.22-121.87-121.47v-260.71c.03,.06,.03,.11,.06,.14,.59,1.83,1.24,3.64,1.86,5.44,.37,1.07,.73,2.14,1.1,3.22,1.02,2.88,2.06,5.73,3.13,8.55,22.87,60.64,57.9,114.82,104.1,161.04,9.48,9.48,19.35,18.53,29.33,26.88,51.25,43.12,110.05,73.78,174.78,91.1,4.29,1.13,8.6,2.2,12.89,3.21,1.1,.25,2.17,.51,3.27,.73,4.23,.99,8.46,1.92,12.72,2.76,.08,0,.14,.03,.23,.03,4.32,.87,8.66,1.64,12.97,2.37,1.1,.17,2.2,.37,3.3,.54,4.23,.68,8.46,1.33,12.69,1.89,.11,0,.25,.03,.39,.06,4.34,.56,8.72,1.04,13.06,1.49,1.1,.11,2.2,.23,3.3,.31,4.2,.39,8.43,.76,12.66,1.04,.17,.03,.34,.03,.51,.03,4.4,.31,8.77,.51,13.17,.65,1.07,.06,2.17,.08,3.27,.11,4.2,.11,8.4,.2,12.64,.2,.17,0,.34,.03,.51,.03h.14c2.2,0,4.4-.06,6.63-.08,1.1-.03,2.23,0,3.36-.03,2.37-.06,4.71-.14,7.08-.25,.99-.03,1.95-.06,2.93-.08,2.65-.11,5.33-.28,7.98-.45,.68-.03,1.35-.06,2-.11,3.36-.2,6.68-.48,10.04-.76,41.54-3.61,82.33-12.89,121.25-27.55,31.79-11.99,62.25-27.58,90.59-46.42,2.51-1.66,5.02-3.36,7.5-5.08,7.45-5.16,14.78-10.58,21.89-16.16,2.31-1.83,4.68-3.69,6.94-5.56,2.96-2.43,5.89-4.88,8.77-7.36,1.75-1.52,3.5-3.05,5.19-4.57l.03-.03c2.31-2.03,4.6-4.09,7.05-6.37,1.44-1.33,2.85-2.65,4.2-3.92,0-.03,.03-.06,.06-.06,0-.03,.03-.06,.06-.06l3.07-3.02c.28-.25,.56-.54,.85-.79,1.24-1.21,2.48-2.37,3.69-3.58,.14-.14,.31-.28,.48-.48l1.35-1.33c.17-.2,.34-.34,.45-.51,1.18-1.18,2.34-2.37,3.5-3.58l.2-.2c13.71-14.52,25.36-30.6,34.78-47.78Z"/><path class="cls-7" d="M882.85,758.59c.03,38.53-4.99,76.8-15,114.28-13.45,50.29-35.23,96.91-64.9,139.02-7.3,10.38-15.06,20.5-23.35,30.32-8.09,9.67-16.87,19.23-26.06,28.43-44.79,44.79-97.27,78.74-156.02,100.88-16.39,6.18-33.25,11.42-50.34,15.62-5.7,1.41-11.42,2.71-17.18,3.86-57.9,11.82-116.65,11.99-174.61,.51l-184.79-184.76c.14,.06,.28,.11,.42,.2,2,1.02,4,1.97,6.04,2.96,.85,.42,1.69,.85,2.57,1.24,2.88,1.38,5.78,2.74,8.69,4.06,59.09,26.71,122.15,40.27,187.47,40.27,13.34,0,26.74-.59,39.82-1.72,57.08-4.96,111.55-20.25,162.28-45.52,4.94-2.45,9.87-4.96,14.72-7.59,3.67-2,7.3-4.03,10.91-6.15,2.88-1.66,5.75-3.36,8.57-5.08,42.59-25.84,80.44-58.35,112.67-96.74,16.78-19.97,31.76-41.26,44.82-63.71,7.84-13.45,14.98-27.3,21.41-41.52,12.24-26.99,21.83-55.34,28.54-84.39,.96-4.15,1.86-8.32,2.71-12.49,1.1-5.42,2.09-10.83,3.05-16.61,.56-3.55,1.1-7.11,1.61-10.72l.06-.37c.06-.25,.08-.51,.08-.54,.45-3.38,.87-6.77,1.27-10.21,1.27-11.06,2.14-22.39,2.59-33.7l.17-4.54c.06-2.28,.11-4.57,.14-6.8l.03-3.1c.03-.45,.03-.87,.03-1.33h-.03l.03-5.36c-.2-21.41-3.5-42.67-9.59-63.06,.17,.25,.31,.54,.48,.79,.48,.85,.96,1.66,1.44,2.51,1.41,2.43,2.82,4.88,4.17,7.36,.59,1.04,1.16,2.09,1.72,3.16,1.35,2.45,2.65,4.91,3.95,7.42,.45,.85,.9,1.72,1.35,2.59,1.69,3.33,3.36,6.66,4.96,10.01,.25,.59,.54,1.18,.82,1.75,1.3,2.82,2.59,5.61,3.86,8.46,.48,1.07,.96,2.14,1.44,3.24,1.07,2.45,2.14,4.94,3.19,7.45,.42,1.02,.85,2.06,1.27,3.1,1.41,3.44,2.76,6.91,4.09,10.38,1.78,4.71,3.47,9.48,5.08,14.24,11.31,33.37,18.56,68.06,21.63,103.28,1.13,12.86,1.69,25.72,1.72,38.58Z"/><path class="cls-3" d="M1041.39,824.22c0,63.29-13.14,124.41-39.03,181.66-1.24,2.74-2.51,5.47-3.81,8.18-9.05,19.04-19.55,37.48-31.22,54.94-32.32,48.45-73.22,89.46-121.47,121.87h-260.71c.06-.03,.11-.03,.14-.06,1.95-.62,3.84-1.3,5.75-1.97,.96-.34,1.92-.65,2.88-.99,2.88-1.01,5.73-2.06,8.57-3.13,60.64-22.87,114.82-57.9,161.04-104.1,9.48-9.48,18.53-19.35,26.88-29.33,10.8-12.8,20.79-26.09,30.01-39.82,3.69-5.53,7.25-11.17,10.69-16.84,1.41-2.31,2.82-4.65,4.17-6.99,6.52-11.14,12.52-22.59,18.05-34.27,11.59-24.54,21.04-50.2,28.18-76.86,13.74-51.56,18.36-104.61,13.68-157.74-3.61-41.54-12.89-82.33-27.55-121.25-11.99-31.79-27.58-62.25-46.42-90.59-2.06-3.1-4.15-6.18-6.29-9.22-1.16-1.66-2.37-3.33-3.55-4.96-.99-1.38-1.97-2.76-2.96-4.15-1.24-1.66-2.51-3.3-3.75-4.94-1.02-1.33-2-2.68-3.02-3.98-1.24-1.61-2.54-3.19-3.78-4.77-1.07-1.33-2.14-2.68-3.22-4.03-1.24-1.52-2.54-3.02-3.81-4.54-1.13-1.35-2.26-2.71-3.41-4.06-1.24-1.47-2.54-2.88-3.81-4.34-1.21-1.35-2.4-2.74-3.61-4.09-1.24-1.38-2.51-2.74-3.78-4.09-1.3-1.38-2.57-2.79-3.86-4.17-1.24-1.3-2.51-2.59-3.78-3.89-1.3-1.35-2.59-2.71-3.92-4.03-.11-.17-.28-.31-.45-.51l-1.41-1.38c-.17-.17-.31-.31-.45-.45-15.48-15.31-33.11-28.29-52.15-38.58,.31,.08,.62,.14,.93,.23,.99,.25,1.97,.54,2.99,.79,2.65,.71,5.3,1.44,7.93,2.2,1.21,.34,2.43,.71,3.61,1.07,2.62,.76,5.25,1.58,7.87,2.4,.99,.31,1.97,.62,2.93,.93,3.53,1.16,7.05,2.34,10.52,3.55,.68,.25,1.35,.51,2.03,.73,2.85,1.04,5.7,2.09,8.52,3.16,1.13,.42,2.23,.87,3.36,1.3,2.48,.99,4.96,2,7.45,3.02,1.04,.42,2.09,.85,3.13,1.3,3.41,1.44,6.83,2.91,10.21,4.46,36.72,16.58,71.02,38.16,101.96,64.14,39.68,33.34,72.91,72.88,98.71,117.52,32.46,56.07,51.78,117.36,57.39,182.11,1.1,12.66,1.66,25.64,1.66,38.58Z"/><path class="cls-2" d="M1191.52,844.62l-184.76,184.79c.06-.17,.14-.31,.23-.48,.93-1.83,1.83-3.69,2.71-5.53,.51-1.02,1.02-2.03,1.49-3.02,1.38-2.88,2.71-5.78,4.03-8.69,26.71-59.09,40.27-122.15,40.27-187.47,0-13.37-.59-26.77-1.72-39.82-5.81-66.81-25.72-130.05-59.26-187.92-26.62-46.09-60.86-86.87-101.82-121.25-31.93-26.82-67.32-49.1-105.23-66.22-30.83-13.99-63.43-24.51-96.88-31.25-29.13-5.89-59.14-8.94-89.21-9.03h-2.74c-21.86,.08-43.57,3.38-64.39,9.59,.25-.17,.51-.31,.79-.48,.85-.48,1.69-.99,2.54-1.47,2.43-1.41,4.85-2.76,7.28-4.12,1.07-.59,2.17-1.18,3.24-1.78,2.43-1.33,4.85-2.59,7.3-3.86,.9-.48,1.81-.96,2.71-1.41,3.3-1.69,6.63-3.36,9.98-4.94,.59-.31,1.21-.56,1.83-.87,2.76-1.3,5.56-2.59,8.35-3.84,1.1-.48,2.2-.96,3.27-1.44,2.48-1.07,4.94-2.14,7.42-3.16,1.04-.45,2.09-.87,3.13-1.3,3.44-1.41,6.91-2.79,10.38-4.09,37.71-14.21,77.25-23.21,117.52-26.71,12.86-1.13,25.75-1.69,38.58-1.72,38.53-.03,76.8,4.99,114.25,14.98,43.12,11.53,83.54,29.19,120.71,52.66,16.92,10.66,33.14,22.56,48.65,35.62,9.67,8.09,19.23,16.87,28.43,26.06,44.79,44.79,78.74,97.27,100.88,156.02,6.18,16.39,11.42,33.25,15.62,50.34,1.41,5.7,2.71,11.42,3.86,17.18,11.82,57.9,11.99,116.65,.51,174.61Z"/><path class="cls-4" d="M1190.87,354.15v260.71c-.03-.06-.03-.11-.06-.14-.59-1.83-1.24-3.64-1.86-5.44-.37-1.07-.73-2.14-1.1-3.22-1.02-2.88-2.06-5.73-3.13-8.55-22.87-60.64-57.9-114.82-104.1-161.04-9.48-9.48-19.35-18.53-29.33-26.88-51.25-43.12-110.05-73.78-174.78-91.1-4.29-1.13-8.6-2.2-12.89-3.21-1.1-.25-2.17-.51-3.27-.73-4.23-.99-8.46-1.92-12.72-2.76-.08,0-.14-.03-.23-.03-4.32-.87-8.63-1.64-12.97-2.37-1.1-.17-2.2-.37-3.3-.54-4.2-.68-8.4-1.33-12.64-1.86-.14-.03-.31-.06-.45-.08-4.34-.56-8.69-1.04-13.03-1.49-1.13-.11-2.23-.23-3.36-.31-4.17-.39-8.35-.76-12.52-1.04-.23,0-.42-.03-.65-.06-4.37-.28-8.74-.48-13.11-.62-1.1-.06-2.23-.08-3.33-.11-4.17-.11-8.35-.2-12.52-.2-.2,0-.39-.03-.59-.03h-.17c-1.95,0-3.86,.06-5.81,.08-1.38,0-2.79,0-4.17,.03-2.09,.06-4.2,.14-6.29,.23-1.24,.03-2.45,.06-3.69,.11-2.31,.11-4.63,.25-6.91,.39-1.04,.06-2.06,.08-3.1,.17-3.33,.2-6.66,.48-10.01,.76-41.54,3.61-82.33,12.89-121.25,27.55-31.79,11.99-62.25,27.58-90.59,46.42-3.1,2.06-6.18,4.15-9.22,6.29-1.78,1.24-3.55,2.54-5.3,3.81-1.27,.9-2.54,1.81-3.78,2.71-1.72,1.27-3.44,2.59-5.13,3.89-1.27,.96-2.57,1.92-3.81,2.88-1.64,1.27-3.22,2.57-4.82,3.84-1.33,1.07-2.65,2.09-3.95,3.16-1.61,1.3-3.16,2.62-4.71,3.95-1.3,1.07-2.62,2.14-3.92,3.27-1.49,1.27-2.96,2.59-4.46,3.92-1.33,1.16-2.65,2.31-3.98,3.5-1.41,1.27-2.76,2.57-4.17,3.84-1.35,1.27-2.74,2.51-4.09,3.81-1.3,1.24-2.59,2.51-3.92,3.78-1.33,1.3-2.68,2.59-4,3.92-.17,.11-.31,.28-.51,.45l-1.35,1.35c-.17,.2-.34,.37-.48,.51-15.31,15.48-28.18,32.8-38.41,51.44,.06-.2,.08-.39,.14-.59,.2-.71,.39-1.41,.56-2.12,.79-2.91,1.58-5.81,2.43-8.71,.34-1.13,.65-2.28,.99-3.41,.79-2.62,1.61-5.25,2.43-7.87,.31-.99,.62-2,.96-3.02,1.16-3.53,2.31-7.05,3.55-10.52,.17-.45,.34-.9,.51-1.35,1.07-3.05,2.2-6.09,3.38-9.14,.39-1.07,.82-2.14,1.24-3.24,.99-2.51,2-5.02,3.05-7.53,.42-1.02,.85-2.03,1.27-3.07,1.44-3.41,2.93-6.8,4.46-10.18,16.58-36.72,38.16-71.02,64.14-101.96,33.34-39.68,72.88-72.91,117.52-98.71,45.58-26.37,94.54-44.08,146.07-52.8,11.87-2,23.89-3.55,36.04-4.6,12.66-1.1,25.64-1.66,38.58-1.66,63.29,0,124.41,13.14,181.66,39.03,15.43,6.97,30.52,14.89,45.07,23.61,1.41,.85,2.82,1.69,4.2,2.57,4.12,2.51,8.18,5.1,12.18,7.76,.56,.37,1.13,.73,1.66,1.1,48.45,32.35,89.46,73.22,121.87,121.47Z"/><path class="cls-8" d="M1029.4,193.25c-.14-.06-.28-.14-.45-.2-1.92-.99-3.84-1.92-5.78-2.85-.93-.45-1.86-.93-2.79-1.38-2.88-1.35-5.78-2.71-8.69-4.03-59.09-26.71-122.15-40.27-187.47-40.27-13.34,0-26.74,.59-39.82,1.72-62.64,5.44-122.15,23.3-177.01,53.11-3.67,2-7.3,4.03-10.91,6.15-14.41,8.32-28.29,17.37-41.63,27.16-29.33,21.52-55.98,46.51-79.62,74.66-16.78,19.97-31.76,41.26-44.82,63.71-7.84,13.45-14.98,27.3-21.41,41.52-13.99,30.83-24.51,63.43-31.25,96.88-.73,3.67-1.44,7.33-2.12,11.14-.37,2.14-.73,4.31-1.07,6.37-.42,2.59-.82,5.19-1.16,7.61v.08s-.03,.06-.03,.06l-.03,.28c-.14,.9-.25,1.81-.37,2.71l-.2,1.3c-.76,5.64-1.41,11.45-1.97,17.23-.39,4.17-.73,8.4-1.02,12.61-.31,4.2-.54,8.49-.71,12.75-.11,2.82-.2,5.64-.25,8.49-.03,.96-.06,1.97-.06,2.74-.03,.99-.03,1.92-.03,2.91-.03,.56-.03,1.13-.03,1.69v5.25c0,.65,0,1.27,.03,1.64,.34,20.87,3.5,41.35,9.25,60.98-.08-.17-.2-.31-.28-.48-.42-.71-.82-1.41-1.24-2.14-1.47-2.51-2.9-5.08-4.32-7.61-.59-1.07-1.18-2.14-1.75-3.22-1.3-2.37-2.57-4.77-3.81-7.16-.51-.96-1.02-1.92-1.49-2.88-1.66-3.3-3.33-6.6-4.91-9.93-.23-.48-.45-.99-.68-1.47-1.35-2.88-2.71-5.78-4-8.69-.48-1.1-.96-2.17-1.44-3.24-1.07-2.48-2.12-4.94-3.16-7.42-.42-1.04-.87-2.09-1.3-3.13-1.38-3.44-2.76-6.88-4.06-10.35-1.78-4.71-3.47-9.48-5.08-14.24-11.31-33.37-18.56-68.06-21.63-103.28-1.13-12.86-1.69-25.72-1.72-38.58-.03-38.53,4.99-76.8,14.98-114.25,1.04-3.89,2.14-7.73,3.27-11.56,0-.06,.03-.08,.03-.14,.68-2.23,1.38-4.43,2.09-6.66,.51-1.64,.99-3.27,1.52-4.91,.03-.14,.08-.25,.14-.39,8.52-26.06,19.4-51.05,32.49-74.82,3.64-6.6,7.47-13.12,11.45-19.52,.65-1.07,1.3-2.14,1.97-3.19,10.6-16.73,22.37-32.8,35.31-48.17,8.09-9.67,16.87-19.23,26.06-28.43,44.79-44.79,97.27-78.74,156.02-100.88,21.83-8.26,44.56-14.81,67.52-19.49,29.39-5.98,58.97-9,88.59-9s57.48,2.82,86.02,8.49l184.79,184.76Z"/></svg>