<?xml version="1.0" encoding="UTF-8"?><svg id="Layer_1" xmlns="http://www.w3.org/2000/svg" viewBox="0 0 1200 1214.94"><defs><style>.cls-1{fill:#fff;}</style></defs><g><g><path class="cls-1" d="M868.35,951.05l-7.97,33.16h26.9l-6.69,27.9h-27.32s-3.88,14.83-3.88,14.83c-.83,3.74-1.52,6.51-1.94,8.59-.69,4.44-2.91,9.7,4.57,13.44,3.74,1.8,14.41,1.52,22.45,.55l-14.14,27.72-12.06,.42h-11.09c-11.64,0-19.96-2.77-24.67-7.48-3.74-3.6-5.54-9.29-5.54-17.05,0-4.44,.83-10.39,2.36-18.02l5.96-23.01h-16.26s6.55-27.9,6.55-27.9h15.94l4.98-21.63,41.84-11.53Z"/><path class="cls-1" d="M737.92,982.22c10.43,0,17.38,.7,23.91,2.22,6.53,1.53,11.68,3.89,15.71,7.09,6.39,5.42,11.12,13.35,11.12,24.75,0,9.45-2.22,18.77-6.53,27.8-6.81,14.6-17.1,22.66-29.33,28.5-9.59,4.59-27.67,7.79-40.18,7.37-12.37-.42-17.79-1.11-23.22-2.36-5.42-1.25-11.12-3.89-15.01-6.81-7.09-5.14-11.68-12.37-11.68-23.63,0-10.15,1.39-18.07,5.7-28.22,3.89-9.18,11.12-17.79,18.07-22.94,6.26-4.73,13.35-8.06,21.41-10.15,8.06-2.22,17.38-3.61,30.03-3.61Zm-6.39,25.72c-8.76,0-16.54,4.17-21.27,10.7-3.89,5.56-6.67,12.65-6.67,19.74,0,10.15,5.56,15.29,16.54,15.29,8.62,0,16.4-4.31,21.13-10.84,3.89-5.42,6.81-12.93,6.81-20.02,0-10.01-5.56-14.74-16.54-14.88Z"/><g><path class="cls-1" d="M342.7,984.22l-22.43,92.06h-38.21l22.43-92.06h38.21Z"/><path class="cls-1" d="M336.29,941.07c5.28,.28,8.9,1.95,11.54,5,2.64,3.06,2.92,7.09,2.78,10.98-.97,6.67-3.34,10.7-8.62,14.74-5.98,4.17-10.84,5.7-19.05,5-5.14-.42-9.59-2.78-11.68-5.42-2.22-2.64-3.2-6.67-2.78-10.84,.42-4.17,2.64-9.31,7.92-13.62,5.28-4.31,13.9-6.12,19.88-5.84Z"/></g><path class="cls-1" d="M396.36,985.47l-1.8,8.02c8.02-5.11,13.41-7.33,19.07-8.71,6.22-1.66,11.06-1.94,18.8-1.66,9.4,.28,15.76,2.35,21.84,6.36,5.39,4.01,8.71,8.85,9.26,16.45,.14,5.25-1.66,13.13-1.66,13.13l-14.1,58.61h-37.46l11.2-46.17c1.11-5.25,1.8-8.02,1.94-10.37,.69-7.46-4.98-9.4-12.99-9.4-6.77,0-14.93,2.21-18.94,6.5-3.32,3.46-5.25,8.85-7.74,18.8l-9.81,40.64h-37.73l22.25-92.06h37.87v-.14h0Z"/><polygon class="cls-1" points="36.7 988.4 278.88 988.26 273.73 1013.29 36.7 988.4"/><polygon class="cls-1" points="0 991.25 271.23 1021.01 266.36 1042.97 0 991.25"/><path class="cls-1" d="M485.97,984.22h37.18l-1.41,6.61c7.6-4.36,10.41-5.91,15.2-7.18,7.88-2.11,13.79-2.39,19.7-2.11,7.46,.28,11.68,1.41,16.75,3.8,3.8,2.25,6.76,4.22,10.27,9.15,9.29-6.19,15.62-9.01,21.96-10.84,6.61-1.83,12.81-2.25,19.99-2.25,9.99,0,17.87,2.25,22.94,6.33,5.07,4.08,9.43,9.85,9.43,17.73,.28,3.94-1.55,11.26-1.55,11.26l-14.64,60.94h-38.59l11.54-49.57s1.25-5.7,1.67-8.2c.83-5.56-3.2-8.9-10.84-9.04-7.23-.14-13.35,1.25-17.66,6.53-2.92,3.34-3.89,6.39-6.39,15.29l-10.57,44.99h-37.81s10.98-45.96,11.68-49.57c.42-1.81,1.25-5.28,1.53-8.06,.97-5.84-3.61-9.04-10.43-9.31-6.39-.14-11.68,2.22-15.43,5.56-5.28,4.73-6.81,12.23-9.18,20.44l-9.73,39.56h-37.77l22.15-92.06Z"/><path class="cls-1" d="M1132.82,985.47l-1.8,8.02c8.02-5.11,13.41-7.33,19.07-8.71,6.22-1.66,11.06-1.94,18.8-1.66,9.4,.28,15.76,2.35,21.84,6.36,5.39,4.01,8.71,8.85,9.26,16.45,.14,5.25-1.66,13.13-1.66,13.13l-14.1,58.61h-37.6l11.2-46.17c1.11-5.25,1.8-8.02,1.94-10.37,.69-7.46-5.11-9.4-12.99-9.4-6.77,0-14.93,2.21-18.94,6.5-3.32,3.46-5.25,8.85-7.74,18.8l-9.81,40.64h-37.32l22.25-92.06h37.6v-.14h0Z"/><g><path class="cls-1" d="M943.54,984.22l-22.43,92.06h-38.21l22.43-92.06h38.21Z"/><path class="cls-1" d="M937.14,941.07c5.28,.28,8.9,1.95,11.54,5,2.64,3.06,2.92,7.09,2.78,10.98-.97,6.67-3.34,10.7-8.62,14.74-5.98,4.17-10.84,5.7-19.05,5-5.14-.42-9.59-2.78-11.68-5.42-2.22-2.64-3.2-6.67-2.78-10.84,.42-4.17,2.64-9.31,7.92-13.62,5.28-4.45,13.9-6.12,19.88-5.84Z"/></g><path class="cls-1" d="M1020.55,981.94c10.43,0,17.38,.7,23.91,2.22,6.53,1.53,11.68,3.89,15.71,7.09,6.39,5.42,11.12,13.35,11.12,24.75,0,9.45-2.22,18.77-6.53,27.8-6.81,14.6-17.1,22.66-29.33,28.5-9.59,4.59-27.67,7.79-40.18,7.37-12.37-.42-17.79-1.11-23.22-2.36-5.42-1.25-11.12-3.89-15.01-6.81-7.09-5.14-11.68-12.37-11.68-23.63,0-10.15,1.39-18.07,5.7-28.22,3.89-9.18,11.12-17.79,18.07-22.94,6.26-4.73,13.35-8.06,21.41-10.15,8.06-2.09,17.24-3.48,30.03-3.61Zm-6.53,25.86c-8.76,0-16.54,4.17-21.27,10.7-3.89,5.56-6.67,12.65-6.67,19.74,0,10.15,5.56,15.29,16.54,15.29,8.62,0,16.4-4.31,21.13-10.84,3.89-5.42,6.81-12.93,6.81-20.02,0-10.15-5.56-14.74-16.54-14.88Z"/></g><g><path class="cls-1" d="M789.31,1145.44c-3.86-2.32-8.67-3.49-14.43-3.49s-11.13,1.08-16.11,3.22c-4.97,2.15-9.32,5.18-13.03,9.1-3.71,3.92-6.61,8.52-8.71,13.81-2.09,5.29-3.14,11.08-3.14,17.36,0,9.21,2.51,16.42,7.52,21.62,5.02,5.2,11.73,7.8,20.15,7.8,5.1,0,9.7-.75,13.8-2.26s7.66-3.52,10.67-6.04c3-2.52,5.42-5.38,7.24-8.57,1.82-3.19,3.01-6.46,3.55-9.83h-10.51c-.75,2.88-2.06,5.57-3.95,8.07-1.89,2.5-4.43,4.5-7.62,6.01-3.19,1.51-7.13,2.26-11.82,2.26-5.64,0-10.11-1.65-13.4-4.95-3.3-3.3-4.94-8.2-4.94-14.71,0-4.74,.68-9.09,2.05-13.05s3.32-7.39,5.85-10.29c2.53-2.9,5.57-5.16,9.11-6.77,3.55-1.62,7.47-2.42,11.78-2.42,3.65,0,6.72,.59,9.2,1.76,2.49,1.17,4.37,2.88,5.66,5.12,1.28,2.23,1.93,4.95,1.93,8.13,0,.31-.01,.61-.03,.9-.02,.29-.05,.54-.09,.76h10.57c.08-.35,.14-.82,.19-1.4,.04-.57,.06-1.31,.06-2.19,0-3.8-.96-7.5-2.89-11.09-1.93-3.59-4.82-6.54-8.68-8.87Z"/><path class="cls-1" d="M867.73,1145.67c-4.02-2.48-8.91-3.72-14.68-3.72s-10.92,1.1-15.86,3.29c-4.93,2.19-9.27,5.27-13,9.23-3.73,3.96-6.64,8.59-8.74,13.88-2.09,5.29-3.14,11.04-3.14,17.23,0,5.84,1.1,10.97,3.3,15.37,2.2,4.4,5.37,7.84,9.51,10.29,4.14,2.46,9.14,3.69,14.99,3.69,5.02,0,9.58-.69,13.68-2.06,4.1-1.37,7.69-3.2,10.76-5.48,3.07-2.28,5.56-4.82,7.46-7.6,1.91-2.79,3.15-5.6,3.73-8.43h-10.7c-.46,1.55-1.26,3.1-2.4,4.65-1.14,1.55-2.65,2.98-4.54,4.28-1.89,1.31-4.19,2.35-6.9,3.12-2.72,.78-5.9,1.16-9.54,1.16-4.31,0-7.89-.76-10.73-2.29-2.84-1.53-4.95-3.73-6.34-6.61-1.39-2.88-2.08-6.31-2.08-10.29,0-.88,.05-1.74,.1-2.59h55.68c.46-1.5,.87-3.51,1.24-6.01,.37-2.5,.56-4.7,.56-6.61,0-5.36-1.06-10.16-3.17-14.41-2.11-4.25-5.18-7.61-9.2-10.1Zm-43.13,26.57c1.39-4.03,3.38-7.55,5.97-10.56,2.59-3.01,5.69-5.34,9.3-7.01,3.61-1.66,7.65-2.49,12.13-2.49,4.1,0,7.47,.74,10.11,2.22,2.63,1.48,4.59,3.5,5.88,6.04,1.28,2.55,1.93,5.41,1.93,8.6,0,1.52-.06,2.72-.16,3.65h-45.28c.05-.15,.08-.31,.14-.46Z"/><path class="cls-1" d="M950.93,1146.84c-3.77-3.25-8.87-4.88-15.3-4.88-3.77,0-7.52,.78-11.26,2.32-3.73,1.55-7.2,3.69-10.42,6.41-.85,.72-1.66,1.48-2.45,2.26l1.98-9.93h-10.57l-14.05,70.53h10.57l7.97-40c.87-3.73,2.42-7.13,4.72-10.17,2.45-3.25,5.37-5.84,8.77-7.77,3.4-1.92,6.86-2.89,10.39-2.89,4.73,0,8.26,1.04,10.6,3.12,2.34,2.08,3.51,4.92,3.51,8.5,0,1.82-.2,3.89-.59,6.21-.39,2.32-.98,5.39-1.77,9.2l-6.9,33.8h10.57l6.78-32.74c.99-4.74,1.76-8.69,2.3-11.85,.54-3.16,.81-5.96,.81-8.4,0-5.89-1.89-10.46-5.66-13.71Z"/><path class="cls-1" d="M988.93,1187.18l6.84-34.2h20.65l1.99-9.96h-20.65l4.6-23.37h-10.63l-3.05,15.54c-.33,1.73-.64,3.12-.93,4.19-.29,1.06-.64,1.85-1.06,2.36-.42,.51-1,.85-1.74,1.03-.75,.18-1.78,.26-3.11,.26h-10.82l-1.99,9.96h16.11l-7.59,37.85c-.5,2.43-.91,4.6-1.24,6.51-.33,1.9-.5,3.61-.5,5.12,0,2.48,.39,4.52,1.18,6.11,.79,1.59,1.85,2.83,3.2,3.72,1.35,.89,2.85,1.49,4.51,1.83,1.66,.33,3.36,.5,5.1,.5,1.58,0,2.91-.12,4.01-.36,1.1-.24,2.04-.5,2.83-.76l1.93-9.83c-.58,.22-1.53,.44-2.86,.66-1.33,.22-2.59,.33-3.79,.33-1.78,0-3.04-.48-3.76-1.43-.73-.95-1.09-2.31-1.09-4.08,0-1.24,.18-2.83,.53-4.78,.35-1.95,.8-4.34,1.34-7.17Z"/><path class="cls-1" d="M1061.19,1141.96c-3.57,0-6.82,.61-9.76,1.83-2.94,1.22-5.56,2.86-7.84,4.92-1.02,.92-1.95,1.89-2.82,2.9l1.7-8.58h-10.57l-14.05,70.53h10.57l7.71-38.58c.5-2.52,1.27-5.07,2.33-7.64,1.06-2.57,2.45-4.95,4.17-7.14,1.72-2.19,3.84-3.95,6.37-5.28,2.53-1.33,5.51-1.99,8.95-1.99,2.32,0,4.07,.24,5.25,.73,1.18,.49,1.94,.89,2.27,1.2l4.97-11.09c-.33-.27-1.3-.63-2.89-1.1-1.6-.46-3.72-.7-6.37-.7Z"/><path class="cls-1" d="M1130.22,1152.41s-.02-.04-.03-.06c-1.97-3.47-4.67-6.07-8.11-7.8-3.44-1.73-7.38-2.59-11.82-2.59-5.72,0-11,1.12-15.83,3.35-4.83,2.24-9.02,5.36-12.56,9.36-3.55,4.01-6.3,8.69-8.27,14.05-1.97,5.36-2.95,11.18-2.95,17.47s1.19,11.95,3.58,16.2c2.38,4.25,5.57,7.4,9.55,9.43,3.98,2.03,8.37,3.06,13.18,3.06,5.18,0,10.13-1.16,14.83-3.49,2.83-1.4,5.44-3.24,7.83-5.51l-1.52,7.67h10.63l13.99-70.53h-10.63l-1.86,9.39Zm-11.13,42.07c-2.57,3.32-5.57,5.84-8.99,7.57-3.42,1.73-6.93,2.59-10.54,2.59-3.4,0-6.44-.68-9.11-2.03-2.67-1.35-4.79-3.46-6.34-6.34-1.55-2.88-2.33-6.6-2.33-11.16s.63-8.97,1.9-12.98c1.26-4.01,3.11-7.5,5.54-10.49,2.43-2.99,5.38-5.31,8.86-6.97,3.48-1.66,7.46-2.49,11.94-2.49,3.07,0,5.86,.62,8.36,1.86,2.51,1.24,4.5,3.08,5.97,5.51,1.47,2.43,2.21,5.42,2.21,8.96,0,.8-.06,1.84-.19,3.12-.02,.17-.04,.32-.05,.48l-2.26,11.4c-.96,4.23-2.59,7.9-4.96,10.96Z"/><polygon class="cls-1" points="1168.33 1109.75 1147.69 1213.55 1158.2 1213.55 1178.84 1109.75 1168.33 1109.75"/></g></g><g><path class="cls-1" d="M610.33,6.35s-.08,.02-.12,.04c-1.31,.43-2.63,.9-3.96,1.35-.67,.24-1.35,.47-2.02,.71-2,.71-3.98,1.43-5.96,2.18-42.15,15.9-79.8,40.25-111.93,72.36-6.59,6.59-12.88,13.45-18.68,20.39-9.37,11.13-17.9,22.78-25.54,34.89-2.51,3.96-4.9,8-7.21,12.06-1.27,2.25-2.53,4.51-3.74,6.8-11.47,21.31-20.45,43.95-26.82,67.73-9.55,35.83-12.76,72.71-9.51,109.64,2.51,28.88,8.96,57.22,19.15,84.27,8.33,22.09,19.17,43.26,32.27,62.99,1.16,1.73,2.33,3.47,3.49,5.14,1.04,1.51,2.1,3.02,3.16,4.47,.76,1.06,1.53,2.1,2.27,3.1,1.96,2.69,4.02,5.41,6.14,8.04l1.73,2.23c1.63,2,3.27,4,4.88,5.9,.53,.63,1.06,1.25,1.61,1.88,.16,.2,.33,.41,.61,.73,1.02,1.16,2.04,2.33,3.06,3.47,.04,.04,.08,.08,.12,.12,1.35,1.57,2.76,3.12,4.25,4.7,.94,1.02,1.88,2.04,2.78,3,.02,0,.04,.02,.04,.04,.02,0,.04,.02,.04,.04l1.04,1.06c.55,.57,1.08,1.14,1.67,1.73,.8,.84,1.61,1.67,2.43,2.49,.08,.12,.2,.22,.31,.35l.94,.94c.14,.12,.24,.22,.35,.31,.8,.8,1.61,1.59,2.43,2.37l.2,.2c10.1,9.53,21.27,17.64,33.23,24.17-.16-.04-.29-.08-.45-.12-.55-.14-1.08-.29-1.63-.43-1.98-.53-3.94-1.06-5.92-1.63-.8-.23-1.61-.47-2.41-.71-1.82-.55-3.63-1.1-5.43-1.67-.71-.23-1.41-.45-2.12-.69-2.45-.78-4.88-1.61-7.31-2.47-.37-.12-.73-.27-1.1-.39-2.08-.74-4.14-1.51-6.18-2.29-.78-.29-1.55-.59-2.31-.9-1.73-.67-3.45-1.37-5.18-2.08-.73-.29-1.45-.61-2.18-.9-2.37-1-4.74-2.04-7.08-3.1-25.52-11.53-49.36-26.52-70.87-44.58-5.18-4.35-10.19-8.84-15.04-13.49-21.03-20.11-38.99-42.99-53.58-68.2-21.15-36.54-34.27-76.26-39.05-118.17-.31-2.78-.59-5.59-.84-8.41-.76-8.8-1.16-17.82-1.16-26.82,0-43.99,9.14-86.47,27.13-126.26,.86-1.9,1.74-3.8,2.65-5.69,6.29-13.23,13.59-26.05,21.7-38.19,22.47-33.68,50.89-62.18,84.43-84.71h181.21Z"/><path class="cls-1" d="M645.34,571.34c-.12,.06-.24,.14-.35,.22-.45,.25-.9,.51-1.35,.78-1.8,1.04-3.63,2.08-5.45,3.08-.73,.39-1.43,.78-2.16,1.18-1.69,.92-3.37,1.8-5.08,2.69-.63,.33-1.27,.69-1.92,1-2.31,1.18-4.61,2.33-6.94,3.45-.31,.14-.61,.27-.92,.41-2.04,.96-4.08,1.92-6.14,2.84-.74,.31-1.47,.65-2.22,.96-1.73,.76-3.45,1.49-5.19,2.22-.73,.29-1.43,.61-2.14,.88-2.41,.98-4.8,1.94-7.21,2.84-26.21,9.88-53.69,16.13-81.69,18.56-15.66,1.37-31.31,1.55-46.85,.55-20.01-1.29-39.85-4.57-59.38-9.76-43.6-11.66-83.22-32.31-117.72-61.36-6.72-5.63-13.37-11.72-19.76-18.11-31.13-31.13-54.73-67.61-70.12-108.45-5.74-15.17-10.29-30.97-13.55-46.93-8.21-40.25-8.33-81.08-.35-121.36L317.28,118.58c-.04,.1-.08,.2-.14,.29-.69,1.37-1.35,2.76-2.04,4.14-.29,.63-.61,1.24-.9,1.84-.94,2-1.88,4.02-2.8,6.04-18.56,41.07-27.99,84.9-27.99,130.3,0,9.29,.41,18.6,1.2,27.68,4.04,46.44,17.88,90.39,41.19,130.62,18.51,32.03,42.3,60.38,70.77,84.27,22.19,18.64,46.79,34.13,73.14,46.03,21.43,9.72,44.09,17.04,67.34,21.72,1.29,.25,2.57,.51,3.76,.73,.76,.16,1.53,.29,2.27,.43l.96,.18c1.51,.27,3.04,.55,4.55,.78,2.47,.39,4.94,.76,7.45,1.12l.25,.04c.18,.04,.35,.06,.37,.06,2.35,.31,4.7,.61,7.1,.88,1.45,.18,2.88,.33,4.31,.47,1.02,.1,2.04,.2,3.04,.27l.37,.04c1.71,.14,3.41,.29,5.14,.41,1.86,.14,3.72,.27,5.57,.37,1.67,.1,3.33,.18,5.04,.24l3.12,.12c1.59,.04,3.18,.08,4.67,.1h.86c.35,.02,.73,.02,1.08,.02,.41,.02,.82,.02,1.24,.02h3.65c.45,0,.92,0,1.2-.02,14.49-.25,28.7-2.45,42.32-6.43Z"/><path class="cls-1" d="M741.18,494.04c-.04,.16-.08,.29-.12,.45-.14,.53-.27,1.06-.41,1.59-.55,1.98-1.08,3.98-1.67,5.96-.22,.78-.45,1.59-.69,2.37-.55,1.82-1.1,3.65-1.69,5.47-.22,.71-.43,1.39-.67,2.1-.78,2.45-1.61,4.88-2.47,7.31-.12,.35-.25,.73-.39,1.08-.74,2.08-1.51,4.14-2.29,6.19-.29,.78-.59,1.55-.9,2.31-.67,1.72-1.37,3.45-2.08,5.18-.29,.73-.61,1.45-.9,2.18-1,2.37-2.04,4.74-3.1,7.08-11.53,25.52-26.52,49.36-44.58,70.87-23.17,27.58-50.65,50.67-81.69,68.61-31.68,18.33-65.71,30.64-101.53,36.7-8.25,1.39-16.6,2.47-25.05,3.2-8.8,.76-17.82,1.16-26.82,1.16-43.99,0-86.47-9.13-126.26-27.13-8.04-3.63-15.94-7.63-23.66-11.96-6.9-3.88-13.66-8-20.21-12.39-33.68-22.48-62.18-50.89-84.71-84.43v-181.21s.02,.08,.04,.1c.41,1.27,.86,2.53,1.29,3.78,.25,.75,.51,1.49,.76,2.23,.71,2,1.43,3.98,2.18,5.94,15.9,42.15,40.25,79.81,72.36,111.93,6.59,6.59,13.45,12.88,20.39,18.68,35.62,29.97,76.49,51.28,121.48,63.32,2.98,.78,5.98,1.53,8.96,2.23,.76,.18,1.51,.35,2.27,.51,2.94,.69,5.88,1.33,8.84,1.92,.06,0,.1,.02,.16,.02,3,.61,6.02,1.14,9.02,1.65,.76,.12,1.53,.25,2.29,.37,2.94,.47,5.88,.92,8.82,1.31,.08,0,.18,.02,.27,.04,3.02,.39,6.06,.73,9.08,1.04,.76,.08,1.53,.16,2.29,.22,2.92,.27,5.86,.53,8.8,.73,.12,.02,.24,.02,.35,.02,3.06,.22,6.1,.35,9.15,.45,.74,.04,1.51,.06,2.27,.08,2.92,.08,5.84,.14,8.78,.14,.12,0,.24,.02,.35,.02h.1c1.53,0,3.06-.04,4.61-.06,.76-.02,1.55,0,2.33-.02,1.65-.04,3.27-.1,4.92-.18,.69-.02,1.35-.04,2.04-.06,1.84-.08,3.7-.2,5.55-.31,.47-.02,.94-.04,1.39-.08,2.33-.14,4.65-.33,6.98-.53,28.88-2.51,57.22-8.96,84.27-19.15,22.09-8.33,43.26-19.17,62.97-32.27,1.74-1.16,3.49-2.33,5.21-3.53,5.18-3.59,10.27-7.35,15.21-11.23,1.61-1.27,3.25-2.57,4.82-3.86,2.06-1.69,4.1-3.39,6.1-5.12,1.22-1.06,2.43-2.12,3.61-3.18l.02-.02c1.61-1.41,3.2-2.84,4.9-4.43,1-.92,1.98-1.84,2.92-2.72,0-.02,.02-.04,.04-.04,0-.02,.02-.04,.04-.04l2.14-2.1c.2-.18,.39-.37,.59-.55,.86-.84,1.73-1.65,2.57-2.49,.1-.1,.22-.2,.33-.33l.94-.92c.12-.14,.24-.24,.31-.35,.82-.82,1.63-1.65,2.43-2.49l.14-.14c9.53-10.1,17.62-21.27,24.17-33.21Z"/><path class="cls-1" d="M796.6,527.27c.02,26.78-3.47,53.38-10.43,79.43-9.35,34.95-24.48,67.36-45.11,96.62-5.08,7.21-10.47,14.25-16.23,21.07-5.63,6.72-11.72,13.37-18.11,19.76-31.13,31.13-67.61,54.73-108.45,70.12-11.39,4.29-23.11,7.94-34.99,10.86-3.96,.98-7.94,1.88-11.94,2.69-40.25,8.21-81.08,8.33-121.36,.35l-128.44-128.42c.1,.04,.2,.08,.29,.14,1.39,.71,2.78,1.37,4.2,2.06,.59,.29,1.18,.59,1.78,.86,2,.96,4.02,1.9,6.04,2.82,41.07,18.56,84.9,27.99,130.3,27.99,9.27,0,18.58-.41,27.68-1.2,39.68-3.45,77.53-14.08,112.8-31.64,3.43-1.71,6.86-3.45,10.23-5.27,2.55-1.39,5.08-2.8,7.59-4.27,2-1.16,4-2.33,5.96-3.53,29.6-17.96,55.91-40.56,78.31-67.24,11.66-13.88,22.07-28.68,31.15-44.28,5.45-9.35,10.41-18.98,14.88-28.86,8.51-18.76,15.17-38.46,19.84-58.65,.67-2.88,1.29-5.78,1.88-8.68,.76-3.76,1.45-7.53,2.12-11.55,.39-2.47,.76-4.94,1.12-7.45l.04-.25c.04-.18,.06-.35,.06-.37,.31-2.35,.61-4.7,.88-7.1,.88-7.68,1.49-15.56,1.8-23.43l.12-3.16c.04-1.59,.08-3.18,.1-4.72l.02-2.16c.02-.31,.02-.61,.02-.92h-.02l.02-3.72c-.14-14.88-2.43-29.66-6.67-43.83,.12,.18,.22,.37,.33,.55,.33,.59,.67,1.16,1,1.74,.98,1.69,1.96,3.39,2.9,5.12,.41,.73,.8,1.45,1.2,2.2,.94,1.71,1.84,3.41,2.74,5.16,.31,.59,.63,1.2,.94,1.8,1.18,2.31,2.33,4.63,3.45,6.96,.18,.41,.37,.82,.57,1.22,.9,1.96,1.8,3.9,2.69,5.88,.33,.74,.67,1.49,1,2.25,.74,1.71,1.49,3.43,2.22,5.18,.29,.71,.59,1.43,.88,2.16,.98,2.39,1.92,4.8,2.84,7.21,1.24,3.27,2.41,6.59,3.53,9.9,7.86,23.19,12.9,47.3,15.04,71.79,.78,8.94,1.18,17.88,1.2,26.82Z"/><path class="cls-1" d="M906.79,572.89c0,43.99-9.14,86.47-27.13,126.26-.86,1.9-1.74,3.8-2.65,5.69-6.29,13.23-13.59,26.05-21.7,38.19-22.47,33.68-50.89,62.18-84.43,84.71h-181.21s.08-.02,.1-.04c1.35-.43,2.67-.9,4-1.37,.67-.24,1.33-.45,2-.69,2-.71,3.98-1.43,5.96-2.18,42.15-15.9,79.8-40.25,111.93-72.36,6.59-6.59,12.88-13.45,18.68-20.39,7.51-8.9,14.45-18.13,20.86-27.68,2.57-3.84,5.04-7.76,7.43-11.7,.98-1.61,1.96-3.23,2.9-4.86,4.53-7.74,8.7-15.7,12.55-23.82,8.06-17.05,14.62-34.89,19.58-53.42,9.55-35.83,12.76-72.71,9.51-109.64-2.51-28.88-8.96-57.22-19.15-84.27-8.33-22.09-19.17-43.26-32.27-62.97-1.43-2.16-2.88-4.29-4.37-6.41-.8-1.16-1.65-2.31-2.47-3.45-.69-.96-1.37-1.92-2.06-2.88-.86-1.16-1.74-2.29-2.61-3.43-.71-.92-1.39-1.86-2.1-2.76-.86-1.12-1.76-2.22-2.63-3.31-.74-.92-1.49-1.86-2.23-2.8-.86-1.06-1.76-2.1-2.65-3.16-.78-.94-1.57-1.88-2.37-2.82-.86-1.02-1.76-2-2.65-3.02-.84-.94-1.67-1.9-2.51-2.84-.86-.96-1.74-1.9-2.63-2.84-.9-.96-1.78-1.94-2.69-2.9-.86-.9-1.74-1.8-2.63-2.71-.9-.94-1.8-1.88-2.72-2.8-.08-.12-.2-.22-.31-.35l-.98-.96c-.12-.12-.22-.22-.31-.31-10.76-10.64-23.01-19.66-36.25-26.82,.22,.06,.43,.1,.65,.16,.69,.18,1.37,.37,2.08,.55,1.84,.49,3.69,1,5.51,1.53,.84,.23,1.69,.49,2.51,.74,1.82,.53,3.65,1.1,5.47,1.67,.69,.22,1.37,.43,2.04,.65,2.45,.8,4.9,1.63,7.31,2.47,.47,.18,.94,.35,1.41,.51,1.98,.73,3.96,1.45,5.92,2.2,.78,.29,1.55,.61,2.33,.9,1.73,.69,3.45,1.39,5.18,2.1,.73,.29,1.45,.59,2.18,.9,2.37,1,4.74,2.02,7.1,3.1,25.52,11.53,49.36,26.52,70.87,44.58,27.58,23.17,50.67,50.65,68.61,81.69,22.56,38.97,35.99,81.57,39.89,126.58,.76,8.8,1.16,17.82,1.16,26.82Z"/><path class="cls-1" d="M1011.14,587.06l-128.42,128.44c.04-.12,.1-.22,.16-.33,.65-1.27,1.27-2.57,1.88-3.84,.35-.71,.71-1.41,1.04-2.1,.96-2,1.88-4.02,2.8-6.04,18.56-41.07,27.99-84.9,27.99-130.3,0-9.29-.41-18.6-1.2-27.68-4.04-46.44-17.88-90.39-41.19-130.62-18.51-32.03-42.3-60.38-70.77-84.27-22.19-18.64-46.79-34.13-73.14-46.03-21.43-9.72-44.09-17.04-67.34-21.72-20.25-4.1-41.11-6.21-62.01-6.27h-1.9c-15.19,.06-30.29,2.35-44.75,6.67,.18-.12,.35-.22,.55-.33,.59-.33,1.18-.69,1.76-1.02,1.69-.98,3.37-1.92,5.06-2.86,.74-.41,1.51-.82,2.25-1.24,1.69-.92,3.37-1.8,5.08-2.69,.63-.33,1.25-.67,1.88-.98,2.29-1.18,4.61-2.33,6.94-3.43,.41-.22,.84-.39,1.27-.61,1.92-.9,3.86-1.8,5.8-2.67,.76-.33,1.53-.67,2.27-1,1.73-.75,3.43-1.49,5.16-2.2,.73-.31,1.45-.61,2.18-.9,2.39-.98,4.8-1.94,7.21-2.84,26.21-9.88,53.69-16.13,81.69-18.56,8.94-.78,17.9-1.18,26.82-1.2,26.78-.02,53.38,3.47,79.41,10.41,29.97,8.02,58.06,20.29,83.9,36.6,11.76,7.41,23.03,15.68,33.82,24.76,6.72,5.63,13.37,11.72,19.76,18.11,31.13,31.13,54.73,67.61,70.12,108.45,4.29,11.39,7.94,23.11,10.86,34.99,.98,3.96,1.88,7.94,2.69,11.94,8.21,40.25,8.33,81.08,.35,121.36Z"/><path class="cls-1" d="M1010.69,246.16v181.21s-.02-.08-.04-.1c-.41-1.27-.86-2.53-1.29-3.78-.25-.75-.51-1.49-.76-2.23-.71-2-1.43-3.98-2.18-5.94-15.9-42.15-40.25-79.81-72.36-111.93-6.59-6.59-13.45-12.88-20.39-18.68-35.62-29.97-76.49-51.28-121.48-63.32-2.98-.78-5.98-1.53-8.96-2.23-.76-.18-1.51-.35-2.27-.51-2.94-.69-5.88-1.33-8.84-1.92-.06,0-.1-.02-.16-.02-3-.61-6-1.14-9.02-1.65-.76-.12-1.53-.25-2.29-.37-2.92-.47-5.84-.92-8.78-1.29-.1-.02-.22-.04-.31-.06-3.02-.39-6.04-.73-9.06-1.04-.78-.08-1.55-.16-2.33-.22-2.9-.27-5.8-.53-8.7-.73-.16,0-.29-.02-.45-.04-3.04-.2-6.08-.33-9.12-.43-.76-.04-1.55-.06-2.31-.08-2.9-.08-5.8-.14-8.7-.14-.14,0-.27-.02-.41-.02h-.12c-1.35,0-2.69,.04-4.04,.06-.96,0-1.94,0-2.9,.02-1.45,.04-2.92,.1-4.37,.16-.86,.02-1.71,.04-2.57,.08-1.61,.08-3.21,.18-4.8,.27-.73,.04-1.43,.06-2.16,.12-2.31,.14-4.63,.33-6.96,.53-28.88,2.51-57.22,8.96-84.27,19.15-22.09,8.33-43.26,19.17-62.97,32.27-2.16,1.43-4.29,2.88-6.41,4.37-1.24,.86-2.47,1.76-3.69,2.65-.88,.63-1.76,1.25-2.63,1.88-1.2,.88-2.39,1.8-3.57,2.71-.88,.67-1.78,1.33-2.65,2-1.14,.88-2.23,1.78-3.35,2.67-.92,.74-1.84,1.45-2.74,2.2-1.12,.9-2.2,1.82-3.27,2.74-.9,.74-1.82,1.49-2.72,2.27-1.04,.88-2.06,1.8-3.1,2.72-.92,.8-1.84,1.61-2.76,2.43-.98,.88-1.92,1.78-2.9,2.67-.94,.88-1.9,1.74-2.84,2.65-.9,.86-1.8,1.74-2.72,2.63-.92,.9-1.86,1.8-2.78,2.72-.12,.08-.22,.2-.35,.31l-.94,.94c-.12,.14-.24,.25-.33,.35-10.64,10.76-19.58,22.8-26.7,35.76,.04-.14,.06-.27,.1-.41,.14-.49,.27-.98,.39-1.47,.55-2.02,1.1-4.04,1.69-6.06,.24-.78,.45-1.59,.69-2.37,.55-1.82,1.12-3.65,1.69-5.47,.22-.69,.43-1.39,.67-2.1,.8-2.45,1.61-4.9,2.47-7.31,.12-.31,.24-.63,.35-.94,.74-2.12,1.53-4.23,2.35-6.35,.27-.74,.57-1.49,.86-2.25,.69-1.74,1.39-3.49,2.12-5.23,.29-.71,.59-1.41,.88-2.14,1-2.37,2.04-4.72,3.1-7.08,11.53-25.52,26.52-49.36,44.58-70.87,23.17-27.58,50.65-50.67,81.69-68.61,31.68-18.33,65.71-30.64,101.53-36.7,8.25-1.39,16.6-2.47,25.05-3.2,8.8-.76,17.82-1.16,26.82-1.16,43.99,0,86.47,9.13,126.26,27.13,10.72,4.84,21.21,10.35,31.33,16.41,.98,.59,1.96,1.18,2.92,1.78,2.86,1.74,5.68,3.55,8.47,5.39,.39,.25,.78,.51,1.16,.76,33.68,22.48,62.18,50.89,84.71,84.43Z"/><path class="cls-1" d="M898.46,134.32c-.1-.04-.2-.1-.31-.14-1.33-.69-2.67-1.33-4.02-1.98-.65-.31-1.29-.65-1.94-.96-2-.94-4.02-1.88-6.04-2.8-41.07-18.56-84.9-27.99-130.3-27.99-9.27,0-18.58,.41-27.68,1.2-43.54,3.78-84.9,16.19-123.03,36.91-2.55,1.39-5.08,2.8-7.59,4.27-10.02,5.78-19.66,12.08-28.93,18.88-20.39,14.96-38.91,32.33-55.34,51.89-11.66,13.88-22.07,28.68-31.15,44.28-5.45,9.35-10.41,18.98-14.88,28.86-9.72,21.43-17.04,44.09-21.72,67.34-.51,2.55-1,5.1-1.47,7.74-.25,1.49-.51,3-.74,4.43-.29,1.8-.57,3.61-.8,5.29v.06s-.02,.04-.02,.04l-.02,.2c-.1,.63-.18,1.25-.25,1.88l-.14,.9c-.53,3.92-.98,7.96-1.37,11.98-.27,2.9-.51,5.84-.71,8.76-.22,2.92-.37,5.9-.49,8.86-.08,1.96-.14,3.92-.18,5.9-.02,.67-.04,1.37-.04,1.9-.02,.69-.02,1.33-.02,2.02-.02,.39-.02,.78-.02,1.18v3.65c0,.45,0,.88,.02,1.14,.24,14.51,2.43,28.74,6.43,42.38-.06-.12-.14-.22-.2-.33-.29-.49-.57-.98-.86-1.49-1.02-1.74-2.02-3.53-3-5.29-.41-.74-.82-1.49-1.22-2.23-.9-1.65-1.78-3.31-2.65-4.98-.35-.67-.71-1.33-1.04-2-1.16-2.29-2.31-4.59-3.41-6.9-.16-.33-.31-.69-.47-1.02-.94-2-1.88-4.02-2.78-6.04-.33-.76-.67-1.51-1-2.25-.74-1.73-1.47-3.43-2.2-5.16-.29-.73-.61-1.45-.9-2.18-.96-2.39-1.92-4.78-2.82-7.19-1.24-3.27-2.41-6.59-3.53-9.9-7.86-23.19-12.9-47.3-15.04-71.79-.78-8.94-1.18-17.88-1.2-26.82-.02-26.78,3.47-53.38,10.41-79.41,.73-2.71,1.49-5.37,2.27-8.04,0-.04,.02-.06,.02-.1,.47-1.55,.96-3.08,1.45-4.63,.35-1.14,.69-2.27,1.06-3.41,.02-.1,.06-.18,.1-.27,5.92-18.11,13.49-35.48,22.58-52.01,2.53-4.59,5.19-9.12,7.96-13.57,.45-.74,.9-1.49,1.37-2.21,7.37-11.63,15.55-22.8,24.54-33.48,5.63-6.72,11.72-13.37,18.11-19.76,31.13-31.13,67.61-54.73,108.45-70.12,15.17-5.74,30.97-10.29,46.93-13.55,20.43-4.16,40.99-6.25,61.57-6.25s39.95,1.96,59.79,5.9l128.44,128.42Z"/></g></svg>