<?xml version="1.0" encoding="UTF-8"?><svg id="Layer_1" xmlns="http://www.w3.org/2000/svg" viewBox="0 0 1200 1212.33"><defs><style>.cls-1{fill:#fff;}</style></defs><rect width="1200" height="1212.33" rx="88.15" ry="88.15"/><g><g><g><path class="cls-1" d="M759.84,872.89l-4.75,19.75h16.02l-3.98,16.62h-16.27s-2.31,8.83-2.31,8.83c-.5,2.23-.91,3.88-1.16,5.12-.41,2.64-1.73,5.78,2.72,8.01,2.23,1.07,8.59,.91,13.37,.33l-8.42,16.51-7.18,.25h-6.6c-6.93,0-11.89-1.65-14.69-4.46-2.23-2.15-3.3-5.53-3.3-10.15,0-2.64,.5-6.19,1.4-10.73l3.55-13.7h-9.68s3.9-16.62,3.9-16.62h9.5l2.97-12.89,24.92-6.87Z"/><path class="cls-1" d="M682.15,891.45c6.21,0,10.35,.41,14.24,1.32,3.89,.91,6.96,2.32,9.36,4.22,3.81,3.23,6.62,7.95,6.62,14.74,0,5.63-1.32,11.18-3.89,16.56-4.06,8.69-10.19,13.5-17.47,16.98-5.71,2.73-16.48,4.64-23.93,4.39-7.37-.25-10.6-.66-13.83-1.41-3.23-.75-6.62-2.32-8.94-4.06-4.22-3.06-6.96-7.37-6.96-14.08,0-6.04,.83-10.77,3.4-16.81,2.32-5.47,6.62-10.6,10.77-13.66,3.73-2.82,7.95-4.8,12.75-6.04,4.8-1.32,10.35-2.15,17.89-2.15Zm-3.81,15.32c-5.22,0-9.85,2.48-12.67,6.38-2.32,3.31-3.97,7.54-3.97,11.76,0,6.04,3.31,9.11,9.85,9.11,5.13,0,9.77-2.57,12.59-6.46,2.32-3.23,4.06-7.7,4.06-11.92,0-5.96-3.31-8.78-9.85-8.86Z"/><g><path class="cls-1" d="M446.74,892.64l-13.36,54.83h-22.76l13.36-54.83h22.76Z"/><path class="cls-1" d="M442.92,866.94c3.15,.17,5.3,1.16,6.87,2.98,1.57,1.82,1.74,4.22,1.66,6.54-.58,3.97-1.99,6.38-5.13,8.78-3.56,2.48-6.46,3.4-11.34,2.98-3.06-.25-5.71-1.66-6.96-3.23-1.32-1.57-1.9-3.97-1.66-6.46,.25-2.48,1.57-5.55,4.72-8.12,3.15-2.57,8.28-3.64,11.84-3.48Z"/></g><path class="cls-1" d="M478.7,893.39l-1.07,4.78c4.78-3.05,7.99-4.36,11.36-5.19,3.7-.99,6.59-1.15,11.2-.99,5.6,.16,9.39,1.4,13.01,3.79,3.21,2.39,5.19,5.27,5.52,9.8,.08,3.13-.99,7.82-.99,7.82l-8.4,34.91h-22.31l6.67-27.5c.66-3.13,1.07-4.78,1.15-6.17,.41-4.45-2.96-5.6-7.74-5.6-4.03,0-8.89,1.32-11.28,3.87-1.98,2.06-3.13,5.27-4.61,11.2l-5.85,24.21h-22.48l13.26-54.83h22.56v-.08h0Z"/><polygon class="cls-1" points="264.47 895.14 408.72 895.05 405.66 909.96 264.47 895.14"/><polygon class="cls-1" points="242.61 896.84 404.17 914.56 401.27 927.64 242.61 896.84"/><path class="cls-1" d="M532.08,892.64h22.15l-.84,3.94c4.53-2.6,6.2-3.52,9.05-4.28,4.69-1.26,8.22-1.43,11.74-1.26,4.44,.17,6.96,.84,9.98,2.26,2.26,1.34,4.02,2.51,6.12,5.45,5.53-3.69,9.31-5.37,13.08-6.46,3.94-1.09,7.63-1.34,11.9-1.34,5.95,0,10.65,1.34,13.66,3.77,3.02,2.43,5.62,5.87,5.62,10.56,.17,2.35-.92,6.71-.92,6.71l-8.72,36.3h-22.98l6.87-29.53s.75-3.4,.99-4.89c.5-3.31-1.9-5.3-6.46-5.38-4.31-.08-7.95,.75-10.52,3.89-1.74,1.99-2.32,3.81-3.81,9.11l-6.29,26.8h-22.52s6.54-27.38,6.96-29.53c.25-1.08,.75-3.15,.91-4.8,.58-3.48-2.15-5.38-6.21-5.55-3.81-.08-6.96,1.32-9.19,3.31-3.15,2.82-4.06,7.29-5.47,12.17l-5.8,23.56h-22.5l13.19-54.83Z"/><path class="cls-1" d="M917.37,893.39l-1.07,4.78c4.78-3.05,7.99-4.36,11.36-5.19,3.7-.99,6.59-1.15,11.2-.99,5.6,.16,9.39,1.4,13.01,3.79,3.21,2.39,5.19,5.27,5.52,9.8,.08,3.13-.99,7.82-.99,7.82l-8.4,34.91h-22.39l6.67-27.5c.66-3.13,1.07-4.78,1.15-6.17,.41-4.45-3.05-5.6-7.74-5.6-4.03,0-8.89,1.32-11.28,3.87-1.98,2.06-3.13,5.27-4.61,11.2l-5.85,24.21h-22.23l13.26-54.83h22.39v-.08h0Z"/><g><path class="cls-1" d="M804.63,892.64l-13.36,54.83h-22.76l13.36-54.83h22.76Z"/><path class="cls-1" d="M800.82,866.94c3.15,.17,5.3,1.16,6.87,2.98,1.57,1.82,1.74,4.22,1.66,6.54-.58,3.97-1.99,6.38-5.13,8.78-3.56,2.48-6.46,3.4-11.34,2.98-3.06-.25-5.71-1.66-6.96-3.23-1.32-1.57-1.9-3.97-1.66-6.46,.25-2.48,1.57-5.55,4.72-8.12,3.15-2.65,8.28-3.64,11.84-3.48Z"/></g><path class="cls-1" d="M850.5,891.29c6.21,0,10.35,.41,14.24,1.32,3.89,.91,6.96,2.32,9.36,4.22,3.81,3.23,6.62,7.95,6.62,14.74,0,5.63-1.32,11.18-3.89,16.56-4.06,8.69-10.19,13.5-17.47,16.98-5.71,2.73-16.48,4.64-23.93,4.39-7.37-.25-10.6-.66-13.83-1.41-3.23-.75-6.62-2.32-8.94-4.06-4.22-3.06-6.96-7.37-6.96-14.08,0-6.04,.83-10.77,3.4-16.81,2.32-5.47,6.62-10.6,10.77-13.66,3.73-2.82,7.95-4.8,12.75-6.04,4.8-1.24,10.27-2.07,17.89-2.15Zm-3.89,15.4c-5.22,0-9.85,2.48-12.67,6.38-2.32,3.31-3.97,7.54-3.97,11.76,0,6.04,3.31,9.11,9.85,9.11,5.13,0,9.77-2.57,12.59-6.46,2.32-3.23,4.06-7.7,4.06-11.92,0-6.05-3.31-8.78-9.85-8.86Z"/></g><g><path class="cls-1" d="M712.76,988.68c-2.3-1.38-5.16-2.08-8.59-2.08s-6.63,.64-9.59,1.92c-2.96,1.28-5.55,3.09-7.76,5.42-2.21,2.33-3.94,5.08-5.19,8.23-1.25,3.15-1.87,6.6-1.87,10.34,0,5.49,1.49,9.78,4.48,12.88,2.99,3.1,6.99,4.65,12,4.65,3.04,0,5.78-.45,8.22-1.35,2.44-.9,4.56-2.1,6.35-3.6,1.79-1.5,3.23-3.2,4.32-5.1,1.09-1.9,1.79-3.85,2.11-5.85h-6.26c-.44,1.71-1.23,3.32-2.35,4.81-1.12,1.49-2.64,2.68-4.54,3.58-1.9,.9-4.25,1.35-7.04,1.35-3.36,0-6.02-.98-7.98-2.95-1.96-1.97-2.95-4.89-2.95-8.76,0-2.82,.41-5.41,1.22-7.77,.81-2.36,1.98-4.4,3.48-6.13,1.51-1.73,3.32-3.07,5.43-4.04,2.11-.96,4.45-1.44,7.02-1.44,2.17,0,4,.35,5.48,1.05,1.48,.7,2.61,1.71,3.37,3.05,.76,1.33,1.15,2.95,1.15,4.84,0,.19,0,.36-.02,.53-.01,.17-.03,.32-.06,.46h6.3c.05-.21,.09-.49,.11-.83,.02-.34,.04-.78,.04-1.31,0-2.27-.57-4.47-1.72-6.61-1.15-2.14-2.87-3.9-5.17-5.28Z"/><path class="cls-1" d="M759.47,988.82c-2.4-1.48-5.31-2.21-8.74-2.21s-6.51,.65-9.44,1.96c-2.94,1.31-5.52,3.14-7.74,5.5-2.22,2.36-3.96,5.12-5.2,8.27-1.25,3.15-1.87,6.57-1.87,10.27,0,3.48,.65,6.53,1.96,9.16,1.31,2.62,3.2,4.67,5.67,6.13,2.47,1.46,5.44,2.2,8.93,2.2,2.99,0,5.7-.41,8.15-1.23,2.44-.82,4.58-1.9,6.41-3.26,1.83-1.36,3.31-2.87,4.45-4.53,1.14-1.66,1.88-3.34,2.22-5.02h-6.37c-.27,.92-.75,1.85-1.43,2.77-.68,.92-1.58,1.77-2.7,2.55-1.12,.78-2.49,1.4-4.11,1.86-1.62,.46-3.51,.69-5.69,.69-2.57,0-4.7-.45-6.39-1.36-1.69-.91-2.95-2.22-3.78-3.94-.83-1.71-1.24-3.76-1.24-6.13,0-.52,.03-1.03,.06-1.54h33.17c.27-.89,.52-2.09,.74-3.58,.22-1.49,.33-2.8,.33-3.94,0-3.19-.63-6.05-1.89-8.58-1.26-2.53-3.09-4.54-5.48-6.01Zm-25.69,15.82c.83-2.4,2.01-4.5,3.56-6.29,1.54-1.79,3.39-3.18,5.54-4.17,2.15-.99,4.56-1.48,7.22-1.48,2.44,0,4.45,.44,6.02,1.32,1.57,.88,2.73,2.08,3.5,3.6,.76,1.52,1.15,3.22,1.15,5.12,0,.9-.03,1.62-.1,2.18h-26.97c.03-.09,.05-.19,.08-.28Z"/><path class="cls-1" d="M809.03,989.51c-2.25-1.94-5.29-2.91-9.11-2.91-2.25,0-4.48,.46-6.7,1.38-2.22,.92-4.29,2.2-6.2,3.82-.51,.43-.99,.88-1.46,1.34l1.18-5.91h-6.3l-8.37,42.01h6.3l4.75-23.82c.52-2.22,1.44-4.25,2.81-6.06,1.46-1.94,3.2-3.48,5.22-4.63,2.02-1.15,4.09-1.72,6.19-1.72,2.81,0,4.92,.62,6.32,1.86,1.39,1.24,2.09,2.93,2.09,5.06,0,1.08-.12,2.31-.35,3.7-.24,1.38-.59,3.21-1.06,5.48l-4.11,20.13h6.3l4.04-19.5c.59-2.82,1.05-5.17,1.37-7.06,.32-1.88,.48-3.55,.48-5,0-3.51-1.12-6.23-3.37-8.17Z"/><path class="cls-1" d="M831.67,1013.54l4.07-20.37h12.3l1.19-5.93h-12.3l2.74-13.92h-6.33l-1.82,9.26c-.2,1.03-.38,1.86-.56,2.49-.17,.63-.38,1.1-.63,1.4-.25,.3-.59,.51-1.04,.61-.44,.11-1.06,.16-1.85,.16h-6.45l-1.19,5.93h9.59l-4.52,22.55c-.3,1.45-.54,2.74-.74,3.88-.2,1.13-.3,2.15-.3,3.05,0,1.48,.23,2.69,.7,3.64,.47,.95,1.1,1.69,1.91,2.21,.8,.53,1.7,.89,2.69,1.09,.99,.2,2,.3,3.04,.3,.94,0,1.73-.07,2.39-.22,.65-.14,1.22-.3,1.69-.46l1.15-5.85c-.35,.13-.91,.26-1.7,.4-.79,.13-1.54,.2-2.26,.2-1.06,0-1.81-.28-2.24-.85-.43-.57-.65-1.38-.65-2.43,0-.74,.1-1.69,.32-2.85,.21-1.16,.48-2.58,.8-4.27Z"/><path class="cls-1" d="M874.71,986.6c-2.12,0-4.06,.36-5.82,1.09-1.75,.73-3.31,1.7-4.67,2.93-.61,.55-1.16,1.13-1.68,1.73l1.01-5.11h-6.3l-8.37,42.01h6.3l4.59-22.98c.3-1.5,.76-3.02,1.39-4.55,.63-1.53,1.46-2.95,2.48-4.25,1.02-1.31,2.29-2.35,3.8-3.15,1.51-.79,3.28-1.19,5.33-1.19,1.38,0,2.43,.14,3.13,.43,.7,.29,1.15,.53,1.35,.71l2.96-6.61c-.2-.16-.77-.38-1.72-.65-.95-.28-2.22-.42-3.8-.42Z"/><path class="cls-1" d="M915.82,992.83s-.01-.03-.02-.04c-1.17-2.07-2.78-3.62-4.83-4.65-2.05-1.03-4.4-1.54-7.04-1.54-3.41,0-6.55,.67-9.43,2-2.88,1.33-5.37,3.19-7.48,5.58-2.11,2.39-3.75,5.18-4.93,8.37-1.17,3.19-1.76,6.66-1.76,10.4s.71,7.12,2.13,9.65c1.42,2.53,3.32,4.41,5.69,5.62,2.37,1.21,4.99,1.82,7.85,1.82,3.09,0,6.03-.69,8.83-2.08,1.69-.83,3.24-1.93,4.67-3.28l-.91,4.57h6.33l8.33-42.01h-6.33l-1.11,5.6Zm-6.63,25.06c-1.53,1.98-3.32,3.48-5.35,4.51-2.04,1.03-4.13,1.54-6.28,1.54-2.02,0-3.83-.4-5.43-1.21-1.59-.8-2.85-2.06-3.78-3.78-.93-1.71-1.39-3.93-1.39-6.65s.38-5.35,1.13-7.73c.75-2.39,1.85-4.47,3.3-6.25,1.44-1.78,3.2-3.16,5.28-4.15,2.07-.99,4.44-1.48,7.11-1.48,1.83,0,3.49,.37,4.98,1.11,1.49,.74,2.68,1.83,3.56,3.28,.88,1.45,1.31,3.23,1.31,5.34,0,.47-.04,1.1-.11,1.86,0,.1-.02,.19-.03,.29l-1.35,6.79c-.57,2.52-1.54,4.7-2.95,6.53Z"/><polygon class="cls-1" points="938.53 967.42 926.23 1029.24 932.49 1029.24 944.79 967.42 938.53 967.42"/></g></g><g><path class="cls-1" d="M454.75,328.1c-6.95,26.06-9.27,52.85-6.91,79.63,1.82,20.95,6.5,41.55,13.92,61.23,6.06,16.06,13.95,31.46,23.47,45.8,.84,1.25,1.68,2.5,2.5,3.68,.86,1.26,1.63,2.35,2.32,3.29,.55,.76,1.1,1.51,1.64,2.23,1.6,2.19,3.06,4.1,4.46,5.84l1.14,1.49,.15,.18c1.33,1.62,2.47,3.01,3.5,4.22-11.65-6.42-22.66-13.97-32.89-22.56-3.52-2.96-6.9-6-10.08-9.04-14.03-13.42-26.11-28.78-35.87-45.66-14.14-24.42-22.93-51.03-26.13-79.07-.19-1.7-.37-3.5-.57-5.65-.52-5.92-.78-11.96-.78-17.96,0-29.44,6.11-57.88,18.16-84.51,.62-1.36,1.2-2.61,1.78-3.82,4.19-8.82,9.08-17.41,14.52-25.56,14.54-21.79,32.8-40.35,54.31-55.2h81.55c-18.44,10.28-35.39,23.1-50.62,38.33-4.81,4.81-9.38,9.8-13.57,14.8-6.79,8.07-13.03,16.6-18.55,25.33-1.67,2.64-3.39,5.51-5.26,8.81-.76,1.34-1.75,3.11-2.72,4.94-8.32,15.47-14.88,32.02-19.48,49.21Z"/><path class="cls-1" d="M579.01,584.83l1.18,.1c-12.79,3.69-25.92,6.14-39.23,7.29-10.42,.91-20.98,1.04-31.37,.37-13.31-.86-26.68-3.06-39.74-6.54-29.2-7.81-55.7-21.62-78.81-41.08-4.47-3.74-8.92-7.82-13.21-12.12-20.86-20.85-36.65-45.28-46.95-72.59-3.82-10.11-6.87-20.67-9.06-31.41-5.32-26.07-5.57-52.5-.74-78.62l57.71-57.71c-5.85,20.44-8.8,41.61-8.8,63.26,0,6.66,.29,13.43,.87,20.1,2.94,33.77,13.01,65.71,29.92,94.9,13.45,23.27,30.74,43.87,51.41,61.22,16.13,13.55,34.01,24.8,53.13,33.44,15.58,7.08,32.06,12.39,48.99,15.8l.44,.09c.76,.15,1.51,.3,2.22,.43,.48,.09,.95,.18,1.42,.27l.93,.17c1.08,.2,2.24,.4,3.37,.58,1.81,.29,3.54,.54,5.26,.79,.21,.04,.45,.08,.7,.1,1.72,.23,3.35,.43,4.98,.62,1.11,.13,2.16,.25,3.2,.35,.73,.07,1.46,.14,2.17,.2Z"/><path class="cls-1" d="M671.07,563.7c-6.42,11.64-13.97,22.65-22.55,32.87-15.53,18.48-33.93,33.94-54.7,45.94-21.18,12.25-44.03,20.51-67.93,24.56-5.61,.94-11.26,1.67-16.79,2.14-5.91,.51-11.95,.77-17.96,.77-29.44,0-57.88-6.11-84.53-18.16-5.31-2.4-10.64-5.09-15.82-8-4.78-2.69-9.34-5.48-13.54-8.3-21.81-14.56-40.37-32.82-55.2-54.3v-81.55c10.28,18.44,23.1,35.39,38.33,50.62,4.81,4.81,9.8,9.38,14.8,13.57,25.88,21.79,55.59,37.27,88.31,46.02,2.06,.54,4.24,1.08,6.52,1.62l.25,.06c.47,.11,.94,.22,1.42,.32,2.28,.53,4.35,.98,6.35,1.38l.86,.17h.04c2,.39,3.94,.73,5.76,1.04l.13,.02,.7,.11c.3,.05,.6,.1,.86,.14,2.51,.4,4.46,.69,6.27,.93l.34,.05c.09,.01,.18,.02,.28,.03l.09,.02c2.26,.29,4.49,.52,6.21,.7,.58,.06,1.17,.12,1.75,.17,2.38,.22,4.34,.38,6.12,.51,.24,.02,.45,.03,.64,.04,1.96,.13,4.06,.24,6.42,.31,.57,.03,1.15,.05,1.72,.06,2.43,.07,4.33,.1,6.11,.1,.17,0,.35,.01,.51,.01h.07c.76,0,1.52-.01,2.28-.02l1.17-.02c.13,0,.28,0,.41,0,.4,0,.81,0,1.2,0,1.19-.03,2.36-.07,3.57-.13l1.46-.04c1.39-.06,2.75-.15,3.97-.22,.38-.02,.76-.04,1.13-.06,1.66-.1,3.28-.24,4.85-.37l.16-.02c20.96-1.82,41.56-6.5,61.22-13.92,16.07-6.06,31.47-13.95,45.76-23.44,1.4-.93,2.64-1.77,3.8-2.57,3.75-2.6,7.47-5.35,11.08-8.19l.5-.39c.99-.78,2.01-1.59,2.98-2.39,.92-.75,1.78-1.47,2.62-2.18Z"/><path class="cls-1" d="M728.41,541.62c.01,17.89-2.34,35.77-6.98,53.16-6.25,23.34-16.4,45.1-30.18,64.66-3.49,4.96-7.14,9.7-10.88,14.13-3.75,4.48-7.83,8.92-12.12,13.22-20.85,20.85-45.28,36.65-72.58,46.94-7.65,2.89-15.53,5.33-23.44,7.28-2.72,.67-5.39,1.27-7.98,1.79-26.07,5.32-52.5,5.57-78.62,.74l-57.71-57.71c20.44,5.85,41.61,8.8,63.25,8.8,6.66,0,13.41-.29,20.1-.87,28.78-2.5,56.36-10.24,81.97-22.99,2.92-1.45,5.28-2.66,7.45-3.84,2.13-1.16,3.88-2.15,5.49-3.09,1.67-.97,3.05-1.79,4.32-2.56,21.47-13.02,40.61-29.46,56.89-48.84,8.44-10.05,16.06-20.88,22.63-32.17,3.93-6.75,7.57-13.8,10.8-20.96,6.18-13.63,11.04-27.98,14.42-42.64,.47-2.06,.93-4.17,1.36-6.29,.54-2.64,1.04-5.38,1.54-8.38v-.06c.3-1.83,.56-3.55,.8-5.26,.04-.22,.08-.45,.11-.71,.23-1.74,.43-3.38,.62-5.01,.25-2.15,.46-4.32,.65-6.49,3.68,12.75,6.12,25.89,7.28,39.2,.52,5.91,.79,11.96,.8,17.97Z"/><path class="cls-1" d="M805.37,573.46c0,29.44-6.11,57.88-18.16,84.51-.6,1.34-1.2,2.62-1.78,3.82-4.19,8.81-9.08,17.41-14.52,25.56-14.54,21.79-32.8,40.35-54.31,55.19h-81.55c18.44-10.28,35.39-23.1,50.62-38.32,4.81-4.81,9.38-9.8,13.56-14.8,5.37-6.36,10.46-13.13,15.16-20.12,1.74-2.61,3.51-5.39,5.39-8.49,.59-.98,1.38-2.26,2.11-3.53,3.22-5.5,6.29-11.33,9.13-17.32,5.88-12.44,10.66-25.5,14.23-38.82,6.95-26.06,9.27-52.86,6.91-79.64-1.82-20.95-6.5-41.55-13.92-61.22-6.06-16.07-13.95-31.47-23.45-45.76-1.12-1.69-2.16-3.23-3.16-4.64-.53-.76-1.08-1.52-1.62-2.27l-1.6-2.24-.11-.16c-.4-.53-.8-1.06-1.2-1.59l-.69-.9c-.19-.24-.37-.49-.56-.73-.31-.42-.63-.83-.94-1.24-.38-.49-.77-.98-1.16-1.47-.24-.3-.47-.59-.71-.88l-.08-.1c-.49-.59-.97-1.2-1.45-1.81l-.13-.17c-.41-.5-.83-.99-1.24-1.48-.23-.27-.45-.53-.67-.8-.14-.17-.29-.35-.43-.52,11.66,6.42,22.68,13.98,32.91,22.57,18.48,15.52,33.94,33.92,45.94,54.69,15.1,26.09,24.08,54.59,26.69,84.71,.52,5.92,.78,11.96,.78,17.96Z"/><path class="cls-1" d="M878.92,579l-57.71,57.72c5.85-20.44,8.8-41.61,8.8-63.26,0-6.67-.29-13.43-.87-20.1-2.94-33.78-13.01-65.71-29.92-94.9-13.45-23.27-30.74-43.87-51.41-61.22-16.13-13.55-34.01-24.8-53.13-33.44-15.58-7.07-32.06-12.38-48.94-15.79-8.52-1.73-17.19-2.97-25.92-3.71,12.78-3.69,25.91-6.13,39.21-7.29,5.91-.52,11.95-.79,17.96-.8h.15c17.83,0,35.66,2.35,53,6.97,19.98,5.35,38.87,13.59,56.15,24.49,7.77,4.9,15.39,10.47,22.65,16.59,4.47,3.74,8.92,7.82,13.21,12.11,20.86,20.86,36.65,45.28,46.94,72.59,2.88,7.64,5.33,15.52,7.27,23.44,.68,2.73,1.28,5.4,1.8,7.98,5.32,26.07,5.57,52.51,.74,78.62Z"/><path class="cls-1" d="M528.95,365.54s-.03,.03-.05,.05c6.42-11.66,13.99-22.69,22.58-32.93,15.53-18.48,33.93-33.94,54.7-45.94,21.18-12.25,44.03-20.52,67.93-24.56,5.6-.94,11.25-1.67,16.79-2.14,5.92-.51,11.96-.78,17.96-.78,29.43,0,57.87,6.11,84.52,18.16,7.09,3.2,14.14,6.9,20.96,10.98,.63,.37,1.25,.75,1.87,1.13l.12,.08c1.81,1.11,3.71,2.31,5.64,3.59l.06,.04c.22,.14,.43,.28,.63,.42l.09,.05c21.81,14.56,40.37,32.83,55.2,54.31v81.55c-10.28-18.44-23.1-35.38-38.33-50.62-4.81-4.81-9.8-9.38-14.8-13.57-25.88-21.78-55.59-37.26-88.31-46.01-2.07-.54-4.24-1.09-6.52-1.63l-.25-.06c-.47-.11-.94-.22-1.42-.32-2.29-.53-4.37-.98-6.35-1.38l-.86-.17h-.04c-2.11-.42-4.16-.77-5.77-1.04l-.12-.02c-.24-.03-.47-.07-.7-.11-.29-.05-.58-.1-.87-.14-1.81-.29-3.94-.63-6.12-.91l-.47-.07c-1.91-.25-3.93-.48-6.59-.76l-.17-.02c-.53-.05-1.05-.1-1.59-.15-1.69-.16-3.91-.36-6.19-.51l-.39-.03c-2.07-.13-4.22-.24-6.57-.31-.57-.03-1.15-.04-1.74-.06-2.43-.06-4.32-.1-6.08-.1-.17-.01-.35-.02-.52-.02h-.09c-.69,0-1.36,.01-2.04,.03l-.85,.02c-.71,0-1.42,0-2.13,.02h-.06c-1.02,.03-2.07,.07-3.09,.11-.64,.02-1.28,.03-1.95,.06-1.14,.05-2.29,.12-3.42,.19l-.4,.02c-.4,.02-.81,.04-1.22,.07-1.65,.1-3.28,.24-4.85,.37h-.16c-20.95,1.83-41.55,6.52-61.23,13.93-16.07,6.06-31.47,13.95-45.76,23.45-1.72,1.14-3.25,2.18-4.65,3.17-.8,.56-1.6,1.14-2.39,1.72l-.28,.2c-.63,.45-1.27,.9-1.93,1.38-.79,.58-1.57,1.19-2.35,1.78l-.82,.62c-.45,.34-.9,.67-1.34,1.02-.51,.39-1.01,.79-1.52,1.2l-.89,.71-.08,.06c-.25,.2-.5,.39-.74,.59-.4,.32-.81,.64-1.21,.97-.85,.69-1.66,1.38-2.38,2l-.38,.31Z"/><path class="cls-1" d="M479.68,444.8c-3.68-12.75-6.13-25.9-7.29-39.21-.52-5.91-.79-11.95-.8-17.96-.01-17.88,2.33-35.77,6.97-53.15,.42-1.59,.9-3.25,1.53-5.41l.38-1.14v-.09c.13-.42,.26-.84,.4-1.26l.46-1.49c.13-.43,.26-.86,.4-1.28l.12-.35c3.92-12,9-23.71,15.11-34.79,1.63-2.97,3.43-6.02,5.32-9.07l.05-.1c.27-.44,.53-.87,.81-1.3l.05-.08c4.95-7.8,10.48-15.35,16.45-22.44,3.74-4.48,7.82-8.92,12.12-13.22,20.85-20.86,45.28-36.65,72.6-46.94,10.1-3.83,20.67-6.88,31.4-9.07,13.66-2.78,27.54-4.19,41.23-4.19,12.48,0,25.04,1.16,37.4,3.45l57.72,57.71c-20.44-5.85-41.61-8.8-63.26-8.8-6.65,0-13.41,.29-20.1,.87-31.62,2.75-61.7,11.77-89.42,26.84-2.13,1.16-3.87,2.15-5.51,3.1-7.24,4.18-14.3,8.79-21,13.7-14.78,10.84-28.3,23.52-40.2,37.69-8.44,10.05-16.06,20.87-22.63,32.17-3.93,6.75-7.57,13.8-10.8,20.95-7.07,15.59-12.38,32.06-15.79,48.96-.42,2.08-.76,3.86-1.06,5.6v.05c-.19,1.06-.37,2.14-.54,3.17-.05,.33-.11,.65-.16,.98l-.17,.17-.31,3.07c-.06,.4-.11,.8-.16,1.2l-.1,.66c-.36,2.67-.68,5.51-1,8.72-.07,.75-.14,1.51-.21,2.28Z"/></g></g></svg>