<svg id="Layer_1" data-name="Layer 1" xmlns="http://www.w3.org/2000/svg" viewBox="0 0 80 80"><path d="M19.7,44.19a.38.38,0,0,0,.37-.38V41.53a2.64,2.64,0,0,0-.78-1.87,2.77,2.77,0,0,0-.65-.47,2,2,0,0,0,.76-1.54,2,2,0,1,0-3.22,1.54,2.76,2.76,0,0,0-.5.34,3.79,3.79,0,0,0-1.85-1.75,2.78,2.78,0,1,0-3,0,3.82,3.82,0,0,0-1.9,1.82,2.64,2.64,0,0,0-.58-.41,2,2,0,0,0,.76-1.54,2,2,0,0,0-4,0,2,2,0,0,0,.76,1.54,2.65,2.65,0,0,0-1.43,2.34v2.28a.38.38,0,0,0,.38.38H8.55v.48a.37.37,0,0,0,.37.37h6.83a.37.37,0,0,0,.37-.37v-.48Zm-3.52-6.54a1.24,1.24,0,1,1,1.24,1.23h0A1.23,1.23,0,0,1,16.18,37.65Zm2.58,2.54a1.89,1.89,0,0,1,.56,1.34v1.91h-3.2V41.26a3.84,3.84,0,0,0-.14-1A2,2,0,0,1,18.76,40.19Zm-8.45-4.75a2,2,0,1,1,2,2A2,2,0,0,1,10.31,35.44ZM5.9,37.65a1.24,1.24,0,1,1,1.24,1.23h0A1.23,1.23,0,0,1,5.9,37.65Zm-.67,5.79V41.53a1.91,1.91,0,0,1,1.9-1.9h0a1.86,1.86,0,0,1,1.34.56,1.28,1.28,0,0,1,.17.22,3.88,3.88,0,0,0-.1.85v2.18Zm10.14.85H9.3v-.48h0V41.26a3,3,0,1,1,6.07,0Z" style="fill:#c42229"/><path d="M49.9,17.71h3.16a.37.37,0,0,0,.37-.37V9a.37.37,0,0,0-.37-.38H49.9a.38.38,0,0,0-.37.38v8.33A.38.38,0,0,0,49.9,17.71Zm.38-8.33h2.4V17h-2.4Z" style="fill:#c42229"/><path d="M54.53,17.71h3.15a.38.38,0,0,0,.38-.37V10.93a.38.38,0,0,0-.38-.37H54.53a.38.38,0,0,0-.38.37v6.41A.38.38,0,0,0,54.53,17.71Zm.37-6.4h2.41V17H54.9Z" style="fill:#c42229"/><path d="M59.15,17.71h3.16a.38.38,0,0,0,.37-.37V12.86a.37.37,0,0,0-.37-.37H59.15a.37.37,0,0,0-.38.37v4.48A.38.38,0,0,0,59.15,17.71Zm.37-4.47h2.41V17H59.52Z" style="fill:#c42229"/><path d="M47.46,19.72H62.31a.38.38,0,0,0,0-.75H47.84V9a.38.38,0,1,0-.75,0V19.35A.38.38,0,0,0,47.46,19.72Z" style="fill:#c42229"/><path d="M21,16h2.64l.65,1.69h1.14L22.9,11.16H21.66l-2.51,6.56H20.3Zm1.32-3.86,1.14,3H21.13Z" style="fill:#c42229"/><path d="M27.78,15.51h1.78a2.25,2.25,0,0,0,1.63-.59,2.12,2.12,0,0,0,.61-1.57,2.25,2.25,0,0,0-.56-1.59,2.13,2.13,0,0,0-1.64-.6H26.67v6.56h1.11Zm0-3.49H29.4a1.27,1.27,0,0,1,1,.35,1.37,1.37,0,0,1,.33,1,1.27,1.27,0,0,1-.35.94,1.34,1.34,0,0,1-1,.34H27.78Z" style="fill:#c42229"/><rect x="32.88" y="11.16" width="1.11" height="6.56" style="fill:#c42229"/><path d="M50.57,55.84a.5.5,0,0,0,.21-.67l-3.91-7.64a.51.51,0,0,0-.68-.21A.49.49,0,0,0,46,48l3.91,7.63a.49.49,0,0,0,.45.27A.5.5,0,0,0,50.57,55.84Z" style="fill:#c42229"/><path d="M29.94,20a.51.51,0,0,0-.21.68l5.95,11.14a.5.5,0,0,0,.44.27.46.46,0,0,0,.23-.06.5.5,0,0,0,.21-.68L30.62,20.19A.51.51,0,0,0,29.94,20Z" style="fill:#c42229"/><path d="M35.42,47.32a.51.51,0,0,0-.68.21l-3.92,7.64a.49.49,0,0,0,.22.67.46.46,0,0,0,.23,0,.48.48,0,0,0,.44-.27L35.63,48A.49.49,0,0,0,35.42,47.32Z" style="fill:#c42229"/><path d="M45.74,31.19a.52.52,0,0,0,.24,0,.49.49,0,0,0,.44-.26l4.75-9.07a.5.5,0,1,0-.88-.46l-4.76,9.06A.51.51,0,0,0,45.74,31.19Z" style="fill:#c42229"/><path d="M54.81,38.36a.5.5,0,0,0-.5.5.51.51,0,0,0,.5.5h5.84a.5.5,0,0,0,.5-.5.5.5,0,0,0-.5-.5Z" style="fill:#c42229"/><path d="M29.43,38.86a.5.5,0,0,0-.5-.5h-7.8a.5.5,0,0,0-.5.5.5.5,0,0,0,.5.5h7.8A.51.51,0,0,0,29.43,38.86Z" style="fill:#c42229"/><path d="M40.51,39.09s0,0,0,0h0s0,0,0,0l.06.05h0l.13,0h0a.7.7,0,0,0,.14,0h0a.24.24,0,0,0,.09-.06h0a.1.1,0,0,0,0-.05s0,0,0,0h0a.35.35,0,0,0-.08-.43l0,0-.06,0h0a.35.35,0,0,0-.14,0h0a.35.35,0,0,0-.24.1h0a.38.38,0,0,0-.11.24v0h0A.36.36,0,0,0,40.51,39.09Z" style="fill:#c42229"/><path d="M34.88,36.18a3.74,3.74,0,0,0-3.73,3.73c0,.14,0,.27,0,.4h0a2.84,2.84,0,0,0,0,5.67H49a4.35,4.35,0,1,0-1.24-8.5,6.06,6.06,0,0,0-11.93-1.19A4,4,0,0,0,34.88,36.18Zm1.53,1.21a.49.49,0,0,0,.25-.37,5.06,5.06,0,0,1,10.07.77c0,.14,0,.27,0,.39a.5.5,0,0,0,.72.49A3.3,3.3,0,0,1,49,38.29,3.35,3.35,0,0,1,49,45H31.16a1.84,1.84,0,0,1,0-3.67,1.79,1.79,0,0,1,.51.07.49.49,0,0,0,.49-.13.49.49,0,0,0,.12-.5,3,3,0,0,1-.13-.84A2.72,2.72,0,0,1,36,37.41.52.52,0,0,0,36.41,37.39Z" style="fill:#c42229"/><path d="M34,61.57H33a7.36,7.36,0,0,0-.35-.86l.73-.72a.38.38,0,0,0,.05-.47,8.51,8.51,0,0,0-1.09-1.4A7.17,7.17,0,0,0,30.89,57a.35.35,0,0,0-.46,0l-.73.71a7.12,7.12,0,0,0-.86-.36v-1a.38.38,0,0,0-.29-.37A7.83,7.83,0,0,0,25,56a.38.38,0,0,0-.3.37v1a6.54,6.54,0,0,0-.87.34L23.13,57a.38.38,0,0,0-.46-.06A7.87,7.87,0,0,0,21.26,58a7.32,7.32,0,0,0-1.12,1.4.38.38,0,0,0,.05.46l.71.73a8,8,0,0,0-.35.85h-1c-.2,0-.32.12-.37.29a7.74,7.74,0,0,0,0,3.55.37.37,0,0,0,.36.29h1a5.35,5.35,0,0,0,.35.86l-.73.72a.36.36,0,0,0-.06.46A7.81,7.81,0,0,0,21.16,69a7.54,7.54,0,0,0,1.4,1.13.38.38,0,0,0,.46,0l.73-.72a6.37,6.37,0,0,0,.85.36v1a.39.39,0,0,0,.29.37,8,8,0,0,0,1.83.22,7.78,7.78,0,0,0,1.73-.2.37.37,0,0,0,.29-.36v-1a6.32,6.32,0,0,0,.85-.35l.72.73a.38.38,0,0,0,.47.06,7.77,7.77,0,0,0,1.41-1.1,7,7,0,0,0,1.12-1.39.36.36,0,0,0-.05-.46l-.72-.74a6.24,6.24,0,0,0,.36-.84h1a.38.38,0,0,0,.37-.29,7.92,7.92,0,0,0,0-3.56A.38.38,0,0,0,34,61.57ZM33.63,65h-1a.38.38,0,0,0-.36.28,5,5,0,0,1-.51,1.2.38.38,0,0,0,.06.45l.71.72a7.11,7.11,0,0,1-.86,1,7.26,7.26,0,0,1-1,.83l-.71-.71a.38.38,0,0,0-.45-.07,5,5,0,0,1-1.21.49.37.37,0,0,0-.28.36v1a7,7,0,0,1-2.63,0v-1a.36.36,0,0,0-.26-.36,5.26,5.26,0,0,1-1.21-.52.38.38,0,0,0-.45.06l-.72.7a6.16,6.16,0,0,1-1-.85,6.81,6.81,0,0,1-.83-1l.71-.7a.38.38,0,0,0,.07-.45,5.4,5.4,0,0,1-.5-1.22.39.39,0,0,0-.36-.28h-1a6.9,6.9,0,0,1,0-2.64h1a.34.34,0,0,0,.36-.27,6.46,6.46,0,0,1,.51-1.21.38.38,0,0,0-.06-.45l-.7-.71a7.34,7.34,0,0,1,.85-1,7.55,7.55,0,0,1,1-.84l.7.72a.38.38,0,0,0,.45.06A5.87,5.87,0,0,1,25.18,58a.36.36,0,0,0,.28-.36v-1a7,7,0,0,1,2.63,0v1a.37.37,0,0,0,.27.36,6.22,6.22,0,0,1,1.22.52.38.38,0,0,0,.45-.06l.71-.7a7.45,7.45,0,0,1,1,.85,7.34,7.34,0,0,1,.83,1l-.71.7a.38.38,0,0,0-.06.45,6.46,6.46,0,0,1,.5,1.23.36.36,0,0,0,.35.27h1A6.84,6.84,0,0,1,33.63,65Z" style="fill:#c42229"/><path d="M24.7,61.52a2.86,2.86,0,0,0-.85,2,2.83,2.83,0,0,0,.82,2,2.91,2.91,0,0,0,2,.86h0a2.88,2.88,0,0,0,2.06-4.9A2.91,2.91,0,0,0,24.7,61.52Zm3.51,3.57h0a2.13,2.13,0,0,1-1.49.61h0a2.1,2.1,0,0,1-1.49-.64,2.12,2.12,0,0,1,0-3,2.14,2.14,0,0,1,1.5-.61,2.1,2.1,0,0,1,1.51.63A2.13,2.13,0,0,1,28.21,65.09Z" style="fill:#c42229"/><path d="M61.7,57.9a.44.44,0,0,0-.15-.12h0a.32.32,0,0,0-.14,0H52.94a.39.39,0,0,0-.27.11l-2.43,2.43h0a.35.35,0,0,0-.11.26V69a.38.38,0,0,0,.38.38H59a.41.41,0,0,0,.26-.11h0l2.44-2.44a.36.36,0,0,0,.11-.26V58.13a.42.42,0,0,0-.06-.19Zm-8.6.6h7.4l-1.69,1.68h-7.4Zm5.49,10.15H50.88V60.93h7.71ZM61,66.43l-1.69,1.68v-7.4L61,59Z" style="fill:#c42229"/><path d="M70.69,40.21h-5.4a.38.38,0,0,0-.37.38V46a.38.38,0,0,0,.37.38h5.4a.38.38,0,0,0,.37-.38V40.59A.38.38,0,0,0,70.69,40.21Zm-.38,5.4H65.67V41h4.64Z" style="fill:#c42229"/><path d="M67.41,35a3.07,3.07,0,1,0-3.07,3.08A3.08,3.08,0,0,0,67.41,35ZM64.34,37.3A2.33,2.33,0,1,1,66.66,35,2.33,2.33,0,0,1,64.34,37.3Z" style="fill:#c42229"/><path d="M75.49,37,73,31.57a.38.38,0,0,0-.33-.22.43.43,0,0,0-.34.2l-2.92,5.39a.35.35,0,0,0,0,.37.37.37,0,0,0,.32.19h5.4a.37.37,0,0,0,.31-.18A.38.38,0,0,0,75.49,37Zm-5.11-.21,2.27-4.18,1.91,4.18Z" style="fill:#c42229"/></svg>