<svg id="Layer_1" data-name="Layer 1" xmlns="http://www.w3.org/2000/svg" viewBox="0 0 64 64"><title>-</title><path d="M18.25,44.66a1,1,0,0,0-1,1v5l-5.65-5.65a1,1,0,0,0-1.05-.21,1,1,0,0,0-.59.88V52.9a1,1,0,1,0,1.92,0v-5l5.65,5.66a1,1,0,0,0,.68.28.9.9,0,0,0,.36-.08,1,1,0,0,0,.59-.88V45.61A.94.94,0,0,0,18.25,44.66Z" style="fill:#c52228"/><path d="M25,48.87a1,1,0,1,0,0,1.91h2.34l-.57,1.16h-3L22.3,49.3l1.51-2.72H27l.75,1.53h1.92L28.47,45.2l-.26-.53H22.67l-.26.48-2,3.7-.26.46.26.47,2,3.57.28.49H28l.26-.54,1.52-3.06.68-1.38H25Z" style="fill:#c52228"/><path d="M32.36,44.65a1,1,0,0,0-.95,1v2.49h1.91V45.62A1,1,0,0,0,32.36,44.65Z" style="fill:#c52228"/><path d="M43.07,44.75a1,1,0,0,0-1,.2l-5.65,5.66v-5a1,1,0,0,0-1.92,0v7.29a.95.95,0,0,0,1,.95.94.94,0,0,0,.68-.28l5.65-5.65v5a1,1,0,0,0,1.91,0V45.63A.94.94,0,0,0,43.07,44.75Z" style="fill:#c52228"/><path d="M50.74,49.27l3-3a1,1,0,0,0,0-1.35,1,1,0,0,0-1.36,0l-3,3-3-3a1,1,0,0,0-1.35,1.35l3,3-3,2.95a1,1,0,0,0,0,1.35.92.92,0,0,0,.67.28.94.94,0,0,0,.68-.28l3-3,3,3a.92.92,0,0,0,.67.28.94.94,0,0,0,.68-.28,1,1,0,0,0,0-1.35Z" style="fill:#c52228"/><path d="M31.41,52.88a1,1,0,0,0,.95,1,1,1,0,0,0,1-1v-4H31.41Z" style="fill:#c52228"/><path d="M44.35,17.06,32.5,10.22a.59.59,0,0,0-.66,0L20,17.06a.6.6,0,0,0-.34.58V31.31a.58.58,0,0,0,.32.56l11.82,6.81a.65.65,0,0,0,.71,0c.55-.3,1.09-.61,1.62-.92l10.18-5.89a.63.63,0,0,0,.32-.58V17.64A.62.62,0,0,0,44.35,17.06ZM39.34,30a1.48,1.48,0,0,1-.82,1.38,2.23,2.23,0,0,1-1.27.24,2.85,2.85,0,0,1-1.75-.74,8.8,8.8,0,0,1-.69-.8L28.1,22s0,0-.05-.07v8a1.65,1.65,0,0,1-1.67,1.67A1.54,1.54,0,0,1,25,30.8a1.37,1.37,0,0,1-.22-.79V18.94a1.59,1.59,0,0,1,1-1.51,2.45,2.45,0,0,1,1.75,0,2.8,2.8,0,0,1,1.34.92L36,26.81a1,1,0,0,0,.11.13V18.88a1.55,1.55,0,0,1,1.4-1.59,1.61,1.61,0,0,1,1.83,1.38Z" style="fill:#c52228"/></svg>