<svg id="Layer_1" data-name="Layer 1" xmlns="http://www.w3.org/2000/svg" viewBox="0 0 64 64"><title>-</title><path d="M33,16.9a5.15,5.15,0,1,0,3.1-6.59A5.15,5.15,0,0,0,33,16.9Z" style="fill:#c52228"/><path d="M26.42,26.45A3.72,3.72,0,1,0,31.49,25,3.72,3.72,0,0,0,26.42,26.45Z" style="fill:#c52228"/><path d="M21.07,19.23a2.15,2.15,0,1,0,4.22.85,2.14,2.14,0,0,0-1.68-2.53A2.16,2.16,0,0,0,21.07,19.23Z" style="fill:#c52228"/><path d="M13.11,45.57a.24.24,0,0,1-.27-.22l-1.39-7.56c0-.15.05-.22.2-.22h.8c.15,0,.21.08.24.22l.87,4.89a11.29,11.29,0,0,1,.1,1.43s.3-1,.47-1.41l2.11-4.91a.29.29,0,0,1,.3-.22h.74c.17,0,.22.07.15.22l-3.28,7.56a.29.29,0,0,1-.3.22Z" style="fill:#c52228"/><path d="M20.6,37.57a.22.22,0,0,1,.25.22l1.39,7.56c0,.14,0,.22-.19.22h-.74a.24.24,0,0,1-.26-.22l-.32-1.83H18.2l-.8,1.83c-.06.14-.12.22-.28.22h-.7c-.17,0-.2-.08-.14-.22l3.26-7.56a.32.32,0,0,1,.31-.22Zm-.41,2.89a14.79,14.79,0,0,1-.12-1.74c0,.11-.34,1.25-.54,1.72l-1,2.17h2Z" style="fill:#c52228"/><path d="M24.44,45.34c0,.16-.07.23-.24.23h-.73c-.14,0-.23,0-.21-.23l.95-7.54c0-.16.1-.23.25-.23h2.38c1.86,0,2.56.76,2.56,1.67a2.54,2.54,0,0,1,0,.26l-.14,1.16a1.84,1.84,0,0,1-1.61,1.62l1.05,3.06c0,.14-.07.23-.23.23h-.73c-.15,0-.18-.11-.23-.23l-1-2.93H24.81Zm.86-6.79-.37,2.88h1.49c1.09,0,1.61-.32,1.69-1l.1-.77a1.86,1.86,0,0,0,0-.22c0-.61-.41-.92-1.42-.92Z" style="fill:#c52228"/><path d="M35.76,45.35c0,.15-.07.22-.24.22H34.9c-.14,0-.18,0-.22-.11l-2.22-4.84c-.12-.25-.25-.63-.33-.86l-.7,5.59c0,.15-.08.22-.23.22h-.67c-.16,0-.23-.07-.21-.22l.95-7.56a.22.22,0,0,1,.25-.22h.63a.19.19,0,0,1,.19.09l2.28,5a7,7,0,0,1,.29.75l.69-5.58a.23.23,0,0,1,.26-.22h.66c.16,0,.21.07.19.22Z" style="fill:#c52228"/><path d="M38.88,45.34c0,.16-.07.23-.24.23h-.73c-.16,0-.23-.07-.21-.23l.95-7.54c0-.16.1-.23.25-.23h.74c.16,0,.21.07.19.23Z" style="fill:#c52228"/><path d="M45.42,39.43a1.74,1.74,0,0,0,0-.18c0-.52-.38-.82-1.34-.82s-1.5.35-1.57,1l0,.3a1.14,1.14,0,0,0,0,.15c0,.35.23.46.52.58l2,.8a1.52,1.52,0,0,1,1.17,1.46,2.53,2.53,0,0,1,0,.27l-.09.87c-.11,1-.81,1.82-2.89,1.82-1.86,0-2.52-.73-2.52-1.59a1.59,1.59,0,0,1,0-.27l.07-.64c0-.16.09-.24.25-.24h.71c.17,0,.21.09.19.24l-.06.48c0,.11,0,.19,0,.23,0,.54.42.83,1.43.83s1.57-.36,1.65-1l.09-.6A1.06,1.06,0,0,0,45,43c0-.4-.42-.59-.9-.78l-1.71-.67a1.54,1.54,0,0,1-1.12-1.39s0-.14,0-.25l.07-.58c.12-1,.71-1.82,2.77-1.82,1.83,0,2.44.73,2.44,1.57a2.36,2.36,0,0,1,0,.25l-.06.51a.22.22,0,0,1-.25.23h-.71c-.15,0-.22-.05-.2-.23Z" style="fill:#c52228"/><path d="M49.32,40.9h3.11l.39-3.1a.22.22,0,0,1,.26-.23h.73c.16,0,.21.07.18.23l-.94,7.54c0,.16-.08.23-.23.23h-.73c-.17,0-.23-.08-.21-.23l.43-3.46H49.2l-.44,3.46c0,.15-.07.23-.24.23h-.73c-.16,0-.23-.07-.21-.23l1-7.54c0-.16.1-.23.25-.23h.74c.16,0,.21.07.19.23Z" style="fill:#c52228"/><path d="M13.78,49.16a1,1,0,0,0,0-.14c0-.41-.31-.65-1.08-.65s-1.2.28-1.25.78l0,.25a.68.68,0,0,0,0,.12c0,.27.18.37.41.46l1.63.64a1.21,1.21,0,0,1,.94,1.17,1.55,1.55,0,0,1,0,.21l-.08.7c-.08.77-.64,1.45-2.3,1.45-1.48,0-2-.59-2-1.27a2.13,2.13,0,0,1,0-.22l.06-.51c0-.13.07-.18.2-.18h.56c.14,0,.18.06.16.18l-.05.39a1.44,1.44,0,0,0,0,.18c0,.43.34.66,1.14.66s1.26-.29,1.32-.79l.07-.48a.78.78,0,0,0,0-.13c0-.32-.34-.47-.72-.62l-1.36-.53a1.25,1.25,0,0,1-.9-1.11,1.82,1.82,0,0,1,0-.2l.06-.47c.09-.77.56-1.45,2.21-1.45,1.46,0,2,.59,2,1.25a1.41,1.41,0,0,1,0,.2l-.05.41a.17.17,0,0,1-.2.18h-.57c-.11,0-.17,0-.15-.18Z" style="fill:#c52228"/><path d="M16,49.05c.1-.77.65-1.45,2.33-1.45,1.48,0,2,.59,2,1.27a1.77,1.77,0,0,1,0,.22l-.45,3.61c-.09.77-.66,1.45-2.34,1.45-1.48,0-2-.58-2-1.26a2.15,2.15,0,0,1,0-.23Zm3.4.2a1.49,1.49,0,0,0,0-.17c0-.44-.35-.7-1.16-.7s-1.27.31-1.34.82l-.41,3.3a1.49,1.49,0,0,0,0,.17c0,.44.35.7,1.16.7s1.27-.31,1.33-.82Z" style="fill:#c52228"/><path d="M25.32,47.68c.13,0,.19,0,.17.18l-.06.42c0,.13-.08.18-.2.18h-2.4l-.25,1.91h2.24c.12,0,.18,0,.16.18l-.06.43a.18.18,0,0,1-.2.18H22.5l-.36,2.72c0,.13-.06.19-.19.19h-.58c-.13,0-.19-.06-.17-.19l.76-6c0-.13.08-.19.2-.19Z" style="fill:#c52228"/><path d="M29.72,47.68c.12,0,.18,0,.16.18l-.05.42c0,.13-.07.18-.2.18H28.31l-.69,5.42c0,.13-.06.19-.19.19h-.59c-.12,0-.18-.06-.16-.19l.69-5.42H26.05c-.12,0-.18-.05-.16-.18l.05-.42c0-.13.07-.18.2-.18Z" style="fill:#c52228"/><path d="M35.08,51.77c0,.28.06.81.06.82s.15-.56.26-.82l1.49-3.91a.24.24,0,0,1,.24-.18h.53c.12,0,.16.06.11.18l-2.31,6a.24.24,0,0,1-.25.18h-.57c-.12,0-.17-.06-.19-.18l-.52-4c0-.23,0-.71,0-.75s-.14.54-.22.76l-1.53,4a.24.24,0,0,1-.24.18h-.58a.19.19,0,0,1-.2-.18l-.79-6c0-.12,0-.18.16-.18h.59c.13,0,.17.06.18.18l.52,3.91c0,.25.06.68.06.73s.18-.53.26-.73l1.5-3.91a.23.23,0,0,1,.24-.18h.55c.12,0,.17.06.19.18Z" style="fill:#c52228"/><path d="M40.5,47.68a.18.18,0,0,1,.2.18l1.11,6q0,.18-.15.18h-.6a.18.18,0,0,1-.2-.18l-.26-1.45h-2L38,53.89c-.05.12-.1.18-.23.18h-.56c-.13,0-.16-.06-.11-.18l2.6-6a.26.26,0,0,1,.25-.18ZM40.17,50a12.08,12.08,0,0,1-.1-1.39A11.88,11.88,0,0,1,39.64,50l-.75,1.73h1.6Z" style="fill:#c52228"/><path d="M43.71,53.88c0,.13-.06.19-.19.19h-.59c-.1,0-.18,0-.16-.19l.76-6c0-.13.07-.19.2-.19h1.9c1.48,0,2,.61,2,1.33a1.55,1.55,0,0,1,0,.21l-.11.93a1.48,1.48,0,0,1-1.28,1.29l.83,2.44c0,.12-.06.19-.18.19h-.59c-.11,0-.14-.08-.18-.19l-.79-2.34H44Zm.69-5.42-.3,2.3h1.19c.87,0,1.28-.25,1.35-.77l.08-.62a1.09,1.09,0,0,0,0-.17c0-.49-.33-.74-1.13-.74Z" style="fill:#c52228"/><path d="M48.62,54.07c-.13,0-.19-.06-.17-.19l.76-6c0-.13.08-.19.2-.19h3.28c.13,0,.18,0,.16.18l-.05.42c0,.13-.08.18-.2.18H50.08l-.24,1.9h2.35c.13,0,.18,0,.16.18l-.05.4a.18.18,0,0,1-.2.18H49.75l-.28,2.17h2.62c.13,0,.19,0,.17.17l-.06.43c0,.13-.07.18-.2.18Z" style="fill:#c52228"/></svg>