<?xml version="1.0" encoding="utf-8"?>
<!-- Generator: Adobe Illustrator 24.0.0, SVG Export Plug-In . SVG Version: 6.00 Build 0)  -->
<svg version="1.1" id="Layer_1" xmlns="http://www.w3.org/2000/svg" xmlns:xlink="http://www.w3.org/1999/xlink" x="0px" y="0px"
	 viewBox="0 0 478 433" style="enable-background:new 0 0 478 433;" xml:space="preserve">
<style type="text/css">
	.st0{fill:#3771FA;}
	.st1{fill:#2C2227;}
</style>
<title>flex-metal-logo_1</title>
<g id="Layer_2_1_">
	<g id="Layer_1-2">
		<rect x="146.2" y="119.6" class="st0" width="63.5" height="92.8"/>
		<path class="st0" d="M302.5,212.4v-92.8h29.3c51.3,0,92.8,41.6,92.8,92.8c0,0,0,0,0,0H302.5z"/>
		<path class="st0" d="M53.4,0L53.4,0c51.3,0,92.8,41.6,92.8,92.8l0,0v26.8H53.4V0z"/>
		<path class="st0" d="M209.7,26.2L209.7,26.2c51.3,0,92.8,41.5,92.8,92.8v0.6h-92.8V26.2z"/>
		<path class="st1" d="M0,286.8h45.6v7H8.9v24.3h32.7v6.9H8.9v31.3H0V286.8z"/>
		<path class="st1" d="M61.5,283.5v60.8c0,2.1,0.3,3.5,1,4.4c0.9,0.9,2.1,1.4,3.4,1.2c1.6,0,3.3-0.2,4.9-0.6v7
			c-2.2,0.8-4.6,1.1-7,1.1c-3.6,0-6.4-1-8.3-2.9s-2.9-5-2.9-9.2v-61.8H61.5z"/>
		<path class="st1" d="M85.4,344.1c1.5,2.3,3.7,3.9,6.3,4.8c3.7,1.1,7.5,1.6,11.3,1.5c5,0.1,9.9-0.9,14.5-2.7v6.9
			c-4.4,1.9-9.8,2.9-16.2,2.9c-9.2,0-16-2.2-20.5-6.6c-4.5-4.4-6.8-11.2-6.8-20.3c0-8.4,2-15,6-19.6s10.2-6.9,18.5-6.9
			c7.3,0,12.8,1.9,16.6,5.8s5.7,9,5.7,15.3v9.6H82.9C83.2,338.8,84,341.9,85.4,344.1z M86.4,315.4c-2.3,2.8-3.5,7.1-3.5,13.1h30
			v-4.2c0-4.2-1.1-7.5-3.4-9.7c-2.3-2.2-5.9-3.4-10.8-3.4C92.8,311.2,88.7,312.6,86.4,315.4L86.4,315.4z"/>
		<path class="st1" d="M149.3,336.4l-14.6,20h-9.6l19.4-26l-18.8-25.2h9.6l13.9,19.1l14-19.1h9.5l-18.5,25.1l19.3,26H164
			L149.3,336.4z"/>
		<path class="st1" d="M236.4,300.6v55.8h-8.8v-69.6h9.5l23.6,48.3l23.5-48.3h9.5v69.6H285v-55.8l-21.3,43.6h-5.9L236.4,300.6z"/>
		<path class="st1" d="M318.2,344.1c1.5,2.3,3.7,3.9,6.3,4.8c3.7,1.1,7.5,1.6,11.4,1.5c5,0.1,9.9-0.9,14.5-2.7v6.9
			c-4.4,1.9-9.8,2.9-16.2,2.9c-9.2,0-16-2.2-20.5-6.6s-6.8-11.2-6.8-20.3c0-8.4,2-15,6-19.6s10.2-6.9,18.5-6.9
			c7.3,0,12.8,1.9,16.6,5.8c3.8,3.9,5.7,9,5.7,15.3v9.6h-37.9C315.9,338.8,316.8,341.9,318.2,344.1z M319.2,315.4
			c-2.3,2.8-3.5,7.1-3.5,13.1h30v-4.2c0-4.2-1.1-7.5-3.4-9.7c-2.3-2.2-5.9-3.4-10.8-3.4C325.6,311.2,321.5,312.6,319.2,315.4
			L319.2,315.4z"/>
		<path class="st1" d="M370,305.2v-12.6l8.9-2.7v15.3H393l-0.5,7h-13.6v29.5c0,3.2,0.7,5.4,2.1,6.7c1.4,1.3,3.8,1.9,7.3,1.9
			c2.1,0,4.2-0.4,6.2-1.1v6.8c-2.9,1.1-6.1,1.6-9.2,1.5c-5,0-8.8-1.3-11.4-4s-3.9-6.5-3.9-11.4v-29.9h-7.8v-7L370,305.2z"/>
		<path class="st1" d="M437.2,350.5c-2.2,2.4-5.1,4.2-8.2,5.2c-3.8,1.2-7.7,1.8-11.7,1.7c-5.2,0-9.5-1.3-12.9-4
			c-3.4-2.7-5.1-6.5-5.1-11.5c0-5,1.6-8.9,4.9-11.7c3.2-2.8,8.2-4.3,14.9-4.3h17.8v-3.1c0.1-2.3-0.3-4.6-1.2-6.8
			c-0.9-1.7-2.5-3-4.3-3.5c-3-0.8-6-1.2-9.1-1.1c-5.8,0-11.6,0.9-17.1,2.8V307c5.9-2.1,12-3.1,18.3-2.9c7.3,0,12.8,1.5,16.4,4.5
			c3.6,3,5.4,7.8,5.4,14.3v33.5h-7.5L437.2,350.5z M419.3,332.8c-4,0-6.8,0.7-8.6,2.2s-2.7,3.8-2.7,7c0,3,1,5.1,2.9,6.3
			s4.8,1.9,8.6,1.9c7.3,0,13-2.5,17.3-7.5v-9.9L419.3,332.8z"/>
		<path class="st1" d="M468.7,283.5v60.8c0,2.1,0.3,3.5,1,4.4c0.9,0.9,2.1,1.4,3.4,1.2c1.6,0,3.3-0.2,4.9-0.6v7
			c-2.2,0.8-4.6,1.1-7,1.1c-3.6,0-6.4-1-8.3-2.9s-2.9-5-2.9-9.2v-61.8H468.7z"/>
		<path class="st1" d="M144.1,428.2c-3.1-3.2-4.6-7.5-4.6-13.1c0-6,1.5-10.7,4.4-14c3-3.3,7.4-5,13.4-5c3.6,0,7.1,0.6,10.5,1.7v5.3
			c-3.2-1.2-6.6-1.8-10-1.8c-4.3,0-7.4,1.1-9.3,3.4c-1.9,2.3-2.8,5.8-2.8,10.4c0,4.2,1,7.4,3,9.5s5.1,3.2,9.2,3.2
			c3.4,0,6.8-0.5,10-1.7v5.3c-3.4,1.1-7,1.6-10.5,1.6C151.6,433,147.1,431.4,144.1,428.2z"/>
		<path class="st1" d="M182,396.7h6.1v31.1h18.3v4.7H182V396.7z"/>
		<path class="st1" d="M218.9,428.5c-2.8-3-4.2-7.6-4.2-13.8c0-6.4,1.4-11.1,4.2-14.1c2.8-3,7-4.4,12.8-4.4c5.7,0,10,1.5,12.8,4.4
			c2.8,3,4.2,7.7,4.2,14.1c0,6.3-1.4,10.9-4.2,13.8s-7,4.5-12.7,4.5C226,433,221.7,431.5,218.9,428.5z M239.9,424.8
			c1.7-2.1,2.6-5.4,2.6-10.1c0-4.8-0.9-8.3-2.6-10.3c-1.7-2-4.5-3-8.3-3c-3.8,0-6.5,1-8.2,3s-2.6,5.5-2.6,10.3c0,4.6,0.9,8,2.6,10.1
			c1.7,2.1,4.5,3.1,8.2,3.1C235.4,427.9,238.2,426.8,239.9,424.8z"/>
		<path class="st1" d="M266.6,429.4c-2.7-2.4-4-5.8-4-10.3v-22.5h6v22.2c0,3,0.8,5.2,2.4,6.7c1.6,1.5,4,2.2,7,2.3c3,0,5.4-0.8,7-2.3
			c1.6-1.5,2.4-3.7,2.4-6.7v-22.2h6v22.5c0,4.5-1.3,7.9-4,10.3c-2.7,2.4-6.5,3.6-11.4,3.6C273.1,433,269.3,431.8,266.6,429.4z"/>
		<path class="st1" d="M308.5,396.7H323c5.3,0,9.3,1.4,11.8,4.3c2.5,2.8,3.8,7.5,3.8,13.8c0,6.1-1.3,10.6-3.8,13.4
			c-2.5,2.8-6.5,4.2-11.8,4.2h-14.5V396.7z M322.1,427.8c2.1,0.1,4.1-0.3,6-1.1c1.6-0.8,2.8-2.2,3.4-3.9c0.9-2.6,1.3-5.3,1.1-8
			c0.1-2.7-0.2-5.5-1-8.1c-0.5-1.7-1.7-3.2-3.3-4.1c-1.9-0.9-4-1.3-6.1-1.2h-7.5v26.4L322.1,427.8z"/>
	</g>
</g>
</svg>
