<svg id="Layer_1" xmlns="http://www.w3.org/2000/svg" viewBox="0 0 323.1 90">
  <style>
    .st0{fill:#1499CD;} .st1{fill:#FF7007;}
  </style>
  <path class="st0" d="M130.3 2.7c1.3-.2 2.7-.4 4.1-.5s2.8-.1 4.1-.1c1.3 0 2.7 0 4.1.1s2.8.2 4.2.5V35c.6-.7 1.3-1.5 2.2-2.5.9-1 2-1.9 3.3-2.8 1.3-.9 2.9-1.7 4.8-2.3s4-1 6.5-1c6.8 0 11.9 1.9 15.4 5.6s5.2 9.7 5.2 17.8v38.9c-1.4.2-2.8.4-4.2.5-1.4.1-2.8.1-4.1.1-1.3 0-2.7 0-4.1-.1s-2.8-.2-4.2-.5V54.2c0-4.2-.7-7.5-2-9.8-1.3-2.3-3.6-3.4-6.9-3.4-1.3 0-2.7.2-4.1.6s-2.7 1.1-3.8 2.3c-1.1 1.1-2.1 2.7-2.8 4.8-.8 2-1.1 4.7-1.1 8v31.9c-1.4.2-2.8.4-4.2.5-1.4.1-2.8.1-4.1.1-1.3 0-2.7 0-4.1-.1s-2.8-.2-4.2-.5V2.7zm68.1 25.1c2.8-.5 5.6-.7 8.3-.7 2.8 0 5.5.2 8.3.7V60c0 3.2.3 5.8.8 7.9s1.3 3.7 2.4 4.9c1.1 1.2 2.4 2.1 3.9 2.6 1.6.5 3.4.8 5.5.8 2.9 0 5.3-.3 7.3-.8V27.8c2.8-.5 5.5-.7 8.2-.7 2.8 0 5.5.2 8.3.7v58.4c-2.5.9-5.8 1.7-9.9 2.5s-8.4 1.2-12.9 1.2c-4 0-7.8-.3-11.5-1-3.7-.6-6.9-2-9.7-4-2.8-2-5-5-6.6-8.9s-2.5-9.1-2.5-15.6l.1-32.6zm68.1-25.1c2.8-.5 5.5-.7 8.2-.7 2.8 0 5.5.2 8.3.7v31c1.2-2.1 3.1-3.9 5.9-5.2 2.8-1.4 5.9-2.1 9.4-2.1s6.8.6 9.8 1.9c3 1.2 5.6 3.2 7.8 5.7 2.2 2.6 3.9 5.7 5.2 9.6 1.2 3.8 1.9 8.4 1.9 13.6 0 5.1-.8 9.7-2.4 13.7-1.6 4-3.8 7.5-6.8 10.3s-6.6 5-10.9 6.5c-4.3 1.5-9.2 2.3-14.6 2.3-1.7 0-3.5-.1-5.5-.2-1.9-.2-3.9-.4-5.8-.7-2-.3-3.8-.6-5.6-1.1-1.8-.4-3.4-.9-4.9-1.5V2.7zm16.6 72.7c1 .3 1.9.5 3 .6 1.1.1 2.1.1 3.2.1 5.1 0 9.1-1.5 12-4.5 2.9-3 4.3-7.7 4.3-14 0-5.6-.9-9.9-2.7-12.9s-4.9-4.4-9.2-4.4c-3.2 0-5.7 1.1-7.7 3.1-2 2.1-3 5.4-3 9.8l.1 22.2zM54.2 85.5c-23.6 0-42.8-19.2-42.8-42.8S30.6-.1 54.2-.1 97 19.1 97 42.7 77.8 85.5 54.2 85.5zm0-81.2C33 4.3 15.7 21.5 15.7 42.8c0 21.2 17.2 38.5 38.5 38.5s38.5-17.2 38.5-38.5c0-21.2-17.3-38.5-38.5-38.5z"/>
  <path class="st1" d="M65.3 14.3c-5.4 0-9.7 4.3-9.7 9.7 0 5.4 4.4 9.7 9.7 9.7 5.4 0 9.7-4.3 9.7-9.7 0-5.4-4.3-9.7-9.7-9.7zM30 29.4C13.4 29.4-.1 42.9-.1 59.5S13.4 89.6 30 89.6s30.1-13.5 30.1-30.1S46.6 29.4 30 29.4zm66.4 6.2c-6.9 0-13.1 3.6-16.7 9-2.2 3.2-3.5 7.1-3.5 11.3 0 10.9 9 19.9 20 19.9 5.6 0 10.7-2.3 14.3-6l.9-.9.3-.3c3-3.5 4.8-8 4.8-12.9-.1-11.1-9.1-20.1-20.1-20.1z"/>
</svg>