<svg id="Layer_1" data-name="Layer 1" xmlns="http://www.w3.org/2000/svg" viewBox="0 0 288 214.05"><title>ultrastack-logo</title><polygon points="144 0 144 14.74 108.1 27.46 87.29 20.09 144 0" style="fill:#aa212b"/><polygon points="221.51 27.46 200.71 34.84 144 14.74 144 0 221.51 27.46" style="fill:#dd2937"/><polygon points="221.51 27.46 221.51 42.2 144 69.66 144 54.92 200.71 34.84 221.51 27.46" style="fill:#aa212b"/><polygon points="144 128.6 66.49 101.14 66.49 86.4 144 113.86 144 128.6" style="fill:#dd2937"/><polygon points="144 69.66 144 54.92 66.49 27.46 66.49 36.61 66.49 42.2 66.49 56.89 66.49 69.66 66.49 71.63 144 99.09 144 84.35 80.55 61.87 80.55 47.18 144 69.66" style="fill:#dd2937"/><polygon points="144 84.35 144 99.09 207.45 76.61 207.45 91.38 144 113.86 144 128.6 221.51 101.14 221.51 99.09 221.51 86.4 221.51 71.63 221.51 66.04 221.51 56.89 144 84.35" style="fill:#aa212b"/><path d="M0,204.14V171.07H5.17v33.62q0,4.19,4.19,4.19h13.3q4.18,0,4.18-4.19V171.07H32v33.07q0,9.42-9.42,9.41H9.42Q0,213.55,0,204.14Z" style="fill:#aa212b"/><path d="M41.86,204.81V168h4.93v37.31c0,2.79,1.43,4.26,4.31,4.43v4.31Q41.86,214.05,41.86,204.81Z" style="fill:#aa212b"/><path d="M57.87,204.32V171.07H62.8v10.47H74.49v4.31H62.8v19.09c0,2.87,1.43,4.31,4.31,4.31h8v2.46l-2.46,1.84H67.11Q57.87,213.55,57.87,204.32Z" style="fill:#aa212b"/><path d="M82,213.55V185.23q2.16-3.69,8-3.69h6.15l2.47,1.85v2.46H90A3.91,3.91,0,0,0,86.93,187v26.59Z" style="fill:#aa212b"/><path d="M112.11,213.55q-9.3,0-9.3-9.29t9.3-9.3h11.27v-4.8q0-4.31-4.31-4.31H105.89v-2.46l2.46-1.85h10.72q9.23,0,9.23,9.24v22.77Zm-4.37-8.61c0,2.87,1.43,4.31,4.31,4.31h11.33v-10H112.05c-2.88,0-4.31,1.44-4.31,4.31Z" style="fill:#aa212b"/><path d="M136.67,211.4v-2.52h19q4.19,0,4.18-4.19v-5.05c0-2.34-1-3.71-3.14-4.12l-13.23-2.65q-6.78-1.35-6.78-9.11v-3.27q0-9.42,9.42-9.42H161l2.77,2.16v2.52H146q-4.18,0-4.18,4.19v4.19c0,2.34,1,3.71,3.14,4.12l13.23,2.65Q165,192.25,165,200v4.13q0,9.42-9.42,9.41H139.44Z" style="fill:#dd2937"/><path d="M173.37,204.32V171.07h4.92v10.47H190v4.31h-11.7v19.09q0,4.31,4.31,4.31h8v2.46l-2.46,1.84H182.6Q173.36,213.55,173.37,204.32Z" style="fill:#dd2937"/><path d="M205.32,213.55q-9.3,0-9.3-9.29t9.3-9.3h11.26v-4.8q0-4.31-4.3-4.31H199.1v-2.46l2.46-1.85h10.72q9.22,0,9.23,9.24v22.77ZM201,204.94c0,2.87,1.43,4.31,4.31,4.31h11.32v-10H205.26c-2.88,0-4.31,1.44-4.31,4.31Z" style="fill:#dd2937"/><path d="M230.62,204.32V190.78q0-9.24,9.24-9.24h12.06l2.47,1.85v2.46H239.86c-2.88,0-4.31,1.44-4.31,4.31v14.78c0,2.87,1.43,4.31,4.31,4.31h14.53v2.46l-2.47,1.84H239.86Q230.62,213.55,230.62,204.32Z" style="fill:#dd2937"/><path d="M262.14,213.55V168h4.93v29.86l14.83-16.32h4.81l.43.92L275.69,195,288,212.63l-.43.92h-4.8l-10.35-15-5.35,5.79v9.23Z" style="fill:#dd2937"/></svg>