<?xml version="1.0" encoding="utf-8"?>
<!-- Generator: Adobe Illustrator 23.0.6, SVG Export Plug-In . SVG Version: 6.00 Build 0)  -->
<svg version="1.1" id="Layer_1" xmlns="http://www.w3.org/2000/svg" xmlns:xlink="http://www.w3.org/1999/xlink" x="0px" y="0px"
	 viewBox="0 0 504 141.1" enable-background="new 0 0 504 141.1" xml:space="preserve">
<g>
	<g>
		<path fill="#C52228" d="M62.5,25.9L42.8,96.3l-21-70.3h-21l29.8,90.7c21-5.6,27.2-10.3,27.2-10.3l15.7-54.3l11.2,38l14.8-11.8
			L84.8,25.9H62.5z"/>
		<path fill="#C52228" d="M125.4,25.9l-11.2,38.6c21.9-21.4,25.1-38.6,25.1-38.6H125.4z"/>
	</g>
	<g>
		<g>
			<path fill="#232323" d="M231.8,105.4h-13.3l-11.1-37.8h-0.2l-11.1,37.8h-13.4l-15.9-55.9h14.5l8.8,37.2h0.2l9.9-37.2h14.1
				l10,37.2h0.2l9-37.2h14.1L231.8,105.4z"/>
			<path fill="#232323" d="M253.5,105.4V49.5h37.6v11.4h-24.6v10.6h23.2v10.8h-23.2v11.6h26v11.5H253.5z"/>
			<path fill="#232323" d="M345.1,89.2c0,3.1-0.6,5.6-1.8,7.7c-1.2,2.1-2.8,3.8-4.8,5c-2,1.3-4.3,2.2-6.8,2.7
				c-2.6,0.6-5.2,0.8-7.9,0.8h-22.3V49.5h22.3c2.2,0,4.4,0.2,6.6,0.7c2.3,0.4,4.3,1.2,6.2,2.3c1.8,1.1,3.3,2.5,4.5,4.4
				c1.2,1.8,1.7,4.2,1.7,7c0,3.1-0.8,5.7-2.5,7.7c-1.7,2-3.9,3.5-6.6,4.4v0.2c1.6,0.3,3.1,0.7,4.5,1.5c1.4,0.7,2.6,1.6,3.6,2.7
				c1,1.1,1.8,2.4,2.4,3.9C344.8,85.7,345.1,87.3,345.1,89.2z M329.7,65.7c0-1.9-0.7-3.3-2.2-4.1c-1.4-0.9-3.6-1.3-6.4-1.3h-6.6
				v11.5h7.3c2.5,0,4.5-0.5,5.9-1.5C329,69.2,329.7,67.7,329.7,65.7z M331.6,87.9c0-2.3-0.9-3.9-2.6-4.8c-1.7-0.9-4.1-1.3-6.9-1.3
				h-7.5v12.8h7.6c1.1,0,2.1-0.1,3.3-0.3c1.1-0.2,2.2-0.5,3.1-1c0.9-0.5,1.7-1.1,2.2-2S331.6,89.3,331.6,87.9z"/>
			<path fill="#E72837" d="M355.6,49.5h15.8c2.8,0,5.4,0.3,7.7,0.9c2.3,0.6,4.3,1.5,6,2.8c1.7,1.2,2.9,2.8,3.8,4.7
				c0.9,1.9,1.3,4.1,1.3,6.6c0,2.5-0.5,4.7-1.4,6.6c-0.9,1.9-2.2,3.4-3.9,4.7c-1.7,1.2-3.7,2.2-6,2.8c-2.3,0.6-4.9,0.9-7.8,0.9h-9.9
				v26h-5.7V49.5z M361.3,74.6h9.6c4.5,0,7.9-0.9,10.2-2.6c2.3-1.7,3.5-4.3,3.5-7.6c0-3.5-1.2-6-3.6-7.6c-2.4-1.6-5.8-2.4-10.1-2.4
				h-9.6V74.6z"/>
			<path fill="#E72837" d="M407.1,105.4h-5.7V49.5h16.4c2.7,0,5.3,0.3,7.6,0.8c2.3,0.5,4.4,1.4,6.1,2.6c1.7,1.2,3,2.7,4,4.6
				c0.9,1.9,1.4,4.2,1.4,6.9c0,2.1-0.4,3.9-1.1,5.6c-0.7,1.7-1.7,3.1-3,4.4c-1.3,1.2-2.8,2.2-4.5,3c-1.7,0.7-3.6,1.2-5.7,1.4
				l16.3,26.6h-6.9l-15.5-26.1h-9.5V105.4z M407.1,74.4h9.9c4.6,0,8.1-0.8,10.6-2.5c2.5-1.7,3.7-4.1,3.7-7.5c0-1.8-0.3-3.4-1-4.7
				c-0.7-1.3-1.6-2.3-2.8-3.1c-1.2-0.8-2.7-1.4-4.4-1.7c-1.7-0.4-3.7-0.6-5.8-0.6h-10.1V74.4z"/>
			<path fill="#E72837" d="M504,77.5c0,4.3-0.7,8.2-2.2,11.8c-1.5,3.6-3.5,6.7-6.1,9.3s-5.7,4.6-9.2,6.1c-3.6,1.5-7.4,2.2-11.6,2.2
				c-4.2,0-8-0.7-11.6-2.2c-3.6-1.5-6.6-3.5-9.2-6.1c-2.6-2.6-4.6-5.7-6.1-9.3c-1.5-3.6-2.2-7.5-2.2-11.8c0-4.3,0.7-8.2,2.2-11.8
				c1.5-3.6,3.5-6.7,6.1-9.3c2.6-2.6,5.7-4.6,9.2-6.1c3.6-1.5,7.4-2.2,11.6-2.2c4.2,0,8,0.7,11.6,2.2c3.6,1.5,6.6,3.5,9.2,6.1
				c2.6,2.6,4.6,5.7,6.1,9.3C503.3,69.3,504,73.2,504,77.5z M498,77.5c0-3.3-0.5-6.4-1.6-9.3c-1.1-2.9-2.6-5.5-4.6-7.8
				c-2-2.2-4.4-4-7.3-5.3c-2.9-1.3-6.1-2-9.7-2c-3.6,0-6.8,0.7-9.7,2c-2.9,1.3-5.3,3.1-7.3,5.3c-2,2.2-3.5,4.8-4.6,7.8
				c-1.1,2.9-1.6,6-1.6,9.3c0,3.3,0.5,6.4,1.6,9.3c1.1,2.9,2.6,5.5,4.6,7.7c2,2.2,4.4,4,7.3,5.3c2.9,1.3,6.1,2,9.7,2
				c3.6,0,6.8-0.7,9.7-2c2.9-1.3,5.3-3.1,7.3-5.3c2-2.2,3.5-4.8,4.6-7.7C497.5,83.9,498,80.8,498,77.5z"/>
		</g>
		<path fill="#232323" d="M138.9,81.3l-0.9-9.6l-6.5-1.8c0.2-0.3,0.5-0.6,0.7-0.8c24.5-27.5,34.5-51.7,21.4-63.7
			c-13.1-12-42.9,0-42.9,0c29.2-6.6,32.8,4.3,32.8,4.3c10.7,16.7-10.9,47.2-36.5,70.1c-25.5,22.9-66.7,47.2-89.9,40.1
			c-23.2-7.1-1.3-42-1.3-42c-24.2,33.2-13.7,47.6-13.7,47.6c9.2,10.1,17.6,10.9,43.1,4.1c0.2-0.1,0.4-0.1,0.7-0.2l-0.4,4.2l9.2,3.9
			l5.9-8.1l11.2,1.8l3.7,10l10.3-1l1.9-9.9l10.7-3.6l8,6.8l8.5-6l-2.8-9.6l7.4-8.4l10.1,2.1c2.7-3.3,4.5-9,4.5-9l-7.5-6.8
			c1.6-4,2-11,2-11L138.9,81.3z M88,120.8c-7.4,2.1-14.9,2-21.9,0.3c7.7-4,15.8-9,23.8-14.6l8,10.2C94.8,118.4,91.5,119.8,88,120.8z
			 M103,113.3l-6.2-11.9c8-6.1,15.9-12.7,23.2-19.7C119,94.2,112.8,105.8,103,113.3z"/>
	</g>
	<g>
		<g>
			<path fill="#232323" d="M231.8,105.4h-13.3l-11.1-37.8h-0.2l-11.1,37.8h-13.4l-15.9-55.9h14.5l8.8,37.2h0.2l9.9-37.2h14.1
				l10,37.2h0.2l9-37.2h14.1L231.8,105.4z"/>
			<path fill="#232323" d="M253.5,105.4V49.5h37.6v11.4h-24.6v10.6h23.2v10.8h-23.2v11.6h26v11.5H253.5z"/>
			<path fill="#232323" d="M345.1,89.2c0,3.1-0.6,5.6-1.8,7.7c-1.2,2.1-2.8,3.8-4.8,5c-2,1.3-4.3,2.2-6.8,2.7
				c-2.6,0.6-5.2,0.8-7.9,0.8h-22.3V49.5h22.3c2.2,0,4.4,0.2,6.6,0.7c2.3,0.4,4.3,1.2,6.2,2.3c1.8,1.1,3.3,2.5,4.5,4.4
				c1.2,1.8,1.7,4.2,1.7,7c0,3.1-0.8,5.7-2.5,7.7c-1.7,2-3.9,3.5-6.6,4.4v0.2c1.6,0.3,3.1,0.7,4.5,1.5c1.4,0.7,2.6,1.6,3.6,2.7
				c1,1.1,1.8,2.4,2.4,3.9C344.8,85.7,345.1,87.3,345.1,89.2z M329.7,65.7c0-1.9-0.7-3.3-2.2-4.1c-1.4-0.9-3.6-1.3-6.4-1.3h-6.6
				v11.5h7.3c2.5,0,4.5-0.5,5.9-1.5C329,69.2,329.7,67.7,329.7,65.7z M331.6,87.9c0-2.3-0.9-3.9-2.6-4.8c-1.7-0.9-4.1-1.3-6.9-1.3
				h-7.5v12.8h7.6c1.1,0,2.1-0.1,3.3-0.3c1.1-0.2,2.2-0.5,3.1-1c0.9-0.5,1.7-1.1,2.2-2S331.6,89.3,331.6,87.9z"/>
			<path fill="#E72837" d="M355.6,49.5h15.8c2.8,0,5.4,0.3,7.7,0.9c2.3,0.6,4.3,1.5,6,2.8c1.7,1.2,2.9,2.8,3.8,4.7
				c0.9,1.9,1.3,4.1,1.3,6.6c0,2.5-0.5,4.7-1.4,6.6c-0.9,1.9-2.2,3.4-3.9,4.7c-1.7,1.2-3.7,2.2-6,2.8c-2.3,0.6-4.9,0.9-7.8,0.9h-9.9
				v26h-5.7V49.5z M361.3,74.6h9.6c4.5,0,7.9-0.9,10.2-2.6c2.3-1.7,3.5-4.3,3.5-7.6c0-3.5-1.2-6-3.6-7.6c-2.4-1.6-5.8-2.4-10.1-2.4
				h-9.6V74.6z"/>
			<path fill="#E72837" d="M407.1,105.4h-5.7V49.5h16.4c2.7,0,5.3,0.3,7.6,0.8c2.3,0.5,4.4,1.4,6.1,2.6c1.7,1.2,3,2.7,4,4.6
				c0.9,1.9,1.4,4.2,1.4,6.9c0,2.1-0.4,3.9-1.1,5.6c-0.7,1.7-1.7,3.1-3,4.4c-1.3,1.2-2.8,2.2-4.5,3c-1.7,0.7-3.6,1.2-5.7,1.4
				l16.3,26.6h-6.9l-15.5-26.1h-9.5V105.4z M407.1,74.4h9.9c4.6,0,8.1-0.8,10.6-2.5c2.5-1.7,3.7-4.1,3.7-7.5c0-1.8-0.3-3.4-1-4.7
				c-0.7-1.3-1.6-2.3-2.8-3.1c-1.2-0.8-2.7-1.4-4.4-1.7c-1.7-0.4-3.7-0.6-5.8-0.6h-10.1V74.4z"/>
			<path fill="#E72837" d="M504,77.5c0,4.3-0.7,8.2-2.2,11.8c-1.5,3.6-3.5,6.7-6.1,9.3s-5.7,4.6-9.2,6.1c-3.6,1.5-7.4,2.2-11.6,2.2
				c-4.2,0-8-0.7-11.6-2.2c-3.6-1.5-6.6-3.5-9.2-6.1c-2.6-2.6-4.6-5.7-6.1-9.3c-1.5-3.6-2.2-7.5-2.2-11.8c0-4.3,0.7-8.2,2.2-11.8
				c1.5-3.6,3.5-6.7,6.1-9.3c2.6-2.6,5.7-4.6,9.2-6.1c3.6-1.5,7.4-2.2,11.6-2.2c4.2,0,8,0.7,11.6,2.2c3.6,1.5,6.6,3.5,9.2,6.1
				c2.6,2.6,4.6,5.7,6.1,9.3C503.3,69.3,504,73.2,504,77.5z M498,77.5c0-3.3-0.5-6.4-1.6-9.3c-1.1-2.9-2.6-5.5-4.6-7.8
				c-2-2.2-4.4-4-7.3-5.3c-2.9-1.3-6.1-2-9.7-2c-3.6,0-6.8,0.7-9.7,2c-2.9,1.3-5.3,3.1-7.3,5.3c-2,2.2-3.5,4.8-4.6,7.8
				c-1.1,2.9-1.6,6-1.6,9.3c0,3.3,0.5,6.4,1.6,9.3c1.1,2.9,2.6,5.5,4.6,7.7c2,2.2,4.4,4,7.3,5.3c2.9,1.3,6.1,2,9.7,2
				c3.6,0,6.8-0.7,9.7-2c2.9-1.3,5.3-3.1,7.3-5.3c2-2.2,3.5-4.8,4.6-7.7C497.5,83.9,498,80.8,498,77.5z"/>
		</g>
		<path fill="#232323" d="M138.9,81.3l-0.9-9.6l-6.5-1.8c0.2-0.3,0.5-0.6,0.7-0.8c24.5-27.5,34.5-51.7,21.4-63.7
			c-13.1-12-42.9,0-42.9,0c29.2-6.6,32.8,4.3,32.8,4.3c10.7,16.7-10.9,47.2-36.5,70.1c-25.5,22.9-66.7,47.2-89.9,40.1
			c-23.2-7.1-1.3-42-1.3-42c-24.2,33.2-13.7,47.6-13.7,47.6c9.2,10.1,17.6,10.9,43.1,4.1c0.2-0.1,0.4-0.1,0.7-0.2l-0.4,4.2l9.2,3.9
			l5.9-8.1l11.2,1.8l3.7,10l10.3-1l1.9-9.9l10.7-3.6l8,6.8l8.5-6l-2.8-9.6l7.4-8.4l10.1,2.1c2.7-3.3,4.5-9,4.5-9l-7.5-6.8
			c1.6-4,2-11,2-11L138.9,81.3z M88,120.8c-7.4,2.1-14.9,2-21.9,0.3c7.7-4,15.8-9,23.8-14.6l8,10.2C94.8,118.4,91.5,119.8,88,120.8z
			 M103,113.3l-6.2-11.9c8-6.1,15.9-12.7,23.2-19.7C119,94.2,112.8,105.8,103,113.3z"/>
	</g>
</g>
</svg>
