<svg id="Layer_1" data-name="Layer 1" xmlns="http://www.w3.org/2000/svg" viewBox="0 0 470 410"><path d="M367.36,83.12a1,1,0,0,0,1.41,0,12.08,12.08,0,0,0,3.56-8.54,12.24,12.24,0,0,0-12.1-12.34h-.15a12.27,12.27,0,0,0-12.22,12.12,12.13,12.13,0,0,0,3.6,8.78,1,1,0,0,0,.7.29,1,1,0,0,0,.71-.3,1,1,0,0,0,0-1.41,10.09,10.09,0,0,1-3-7.34,10.24,10.24,0,1,1,20.47.19,10.1,10.1,0,0,1-3,7.14A1,1,0,0,0,367.36,83.12Z" style="fill:#c52329"/><path d="M327.6,82.77l5.1.06a30.75,30.75,0,0,0,1.91,4.67L331,91.08a1,1,0,0,0-.15,1.23,34,34,0,0,0,5,6.42,1,1,0,1,0,1.41-1.41,32.51,32.51,0,0,1-4.33-5.38l3.6-3.53a1,1,0,0,0,.18-1.18,28.74,28.74,0,0,1-2.31-5.67,1,1,0,0,0-1-.72l-5-.06a33,33,0,0,1-.64-6.57,34.91,34.91,0,0,1,.75-6.59l5,0a.94.94,0,0,0,1-.72,27.12,27.12,0,0,1,2.39-5.64,1,1,0,0,0-.16-1.19l-3.51-3.56a32.11,32.11,0,0,1,9.39-9.26l3.56,3.63a1,1,0,0,0,1.21.16A24.18,24.18,0,0,1,353,48.8a1,1,0,0,0,.75-1l0-5.06a32.16,32.16,0,0,1,6.62-.6,30.32,30.32,0,0,1,6.56.73l0,5.05a1,1,0,0,0,.73,1,24.38,24.38,0,0,1,5.57,2.36,1,1,0,0,0,1.2-.15L378,47.61a32.11,32.11,0,0,1,9.25,9.4l-3.59,3.53a1,1,0,0,0-.18,1.19,26.59,26.59,0,0,1,2.26,5.64,1,1,0,0,0,1,.74l5.06,0a28.78,28.78,0,0,1,.6,6.62,31.64,31.64,0,0,1-.73,6.57l-5.06,0a1,1,0,0,0-1,.72,27,27,0,0,1-2.36,5.63,1,1,0,0,0,.16,1.18L387,92.42a32.15,32.15,0,0,1-4,4.9,1,1,0,0,0,0,1.41,1,1,0,0,0,1.41,0,33.88,33.88,0,0,0,4.71-5.91,1,1,0,0,0-.13-1.23L385.39,88a28.85,28.85,0,0,0,1.95-4.66l5.1,0h0a1,1,0,0,0,1-.76,33.19,33.19,0,0,0,1-7.8,30.47,30.47,0,0,0-.83-7.86,1,1,0,0,0-1-.77l-5.11,0a28,28,0,0,0-1.87-4.66l3.63-3.57a1,1,0,0,0,.16-1.23,34,34,0,0,0-11-11.16,1,1,0,0,0-1.23.14l-3.63,3.56a26.17,26.17,0,0,0-4.63-2l0-5.1a1,1,0,0,0-.76-1,32.91,32.91,0,0,0-7.8-1,33.37,33.37,0,0,0-7.86.82,1,1,0,0,0-.77,1l0,5.11A25.7,25.7,0,0,0,347.11,49l-3.59-3.65a1,1,0,0,0-1.23-.15,34.19,34.19,0,0,0-11.16,11,1,1,0,0,0,.14,1.24l3.55,3.6a30.24,30.24,0,0,0-2,4.68l-5.11,0a1,1,0,0,0-1,.77,37.25,37.25,0,0,0-1,7.8,34.71,34.71,0,0,0,.86,7.82A1,1,0,0,0,327.6,82.77Z" style="fill:#c52329"/><path d="M115.11,128.77A21.13,21.13,0,0,0,78.92,143.4,21.19,21.19,0,0,0,99.8,164.69H100a20.94,20.94,0,0,0,14.77-6A21.19,21.19,0,0,0,115.11,128.77Zm-1.7,28.45h0A19.11,19.11,0,0,1,86.62,130a19.11,19.11,0,1,1,26.79,27.26Z" style="fill:#c52329"/><path d="M86.75,84.51a1,1,0,0,0-.78,1l-.07,9.69a48.67,48.67,0,0,0-9.35,3.74L69.72,92a1,1,0,0,0-1.23-.15,60.23,60.23,0,0,0-10.95,8.54,57.85,57.85,0,0,0-8.7,10.86,1,1,0,0,0,.13,1.22l6.78,6.93a52.8,52.8,0,0,0-3.89,9.19l-9.69-.08h0a1,1,0,0,0-1,.76,60,60,0,0,0-.28,27.63,1,1,0,0,0,1,.77l9.7.08a49.79,49.79,0,0,0,3.8,9.3l-6.93,6.83a1,1,0,0,0-.15,1.23A59.45,59.45,0,0,0,56.82,186a54.46,54.46,0,0,0,10.85,8.78,1,1,0,0,0,1.23-.14l6.93-6.83A48.16,48.16,0,0,0,85,191.77l-.08,9.71a1,1,0,0,0,.76,1,58.87,58.87,0,0,0,13.49,1.72h0a1,1,0,0,0,0-2,57.4,57.4,0,0,1-12.26-1.47L87,191a1,1,0,0,0-.72-1,46.76,46.76,0,0,1-10.13-4.35,1,1,0,0,0-1.21.16l-6.9,6.8a52.81,52.81,0,0,1-9.81-8.05,58.17,58.17,0,0,1-7.84-9.93l6.9-6.8a1,1,0,0,0,.18-1.19,47.44,47.44,0,0,1-4.2-10.26,1,1,0,0,0-.95-.73l-9.65-.08A57.89,57.89,0,0,1,43,130.49l9.64.07a1,1,0,0,0,1-.71,51.18,51.18,0,0,1,4.31-10.16,1,1,0,0,0-.16-1.19L51,111.61a55.48,55.48,0,0,1,8-9.82A58.11,58.11,0,0,1,68.86,94l6.8,6.9a1,1,0,0,0,1.19.17,46.38,46.38,0,0,1,10.3-4.12,1,1,0,0,0,.74-1L88,86.29a58.13,58.13,0,0,1,25.12.19L113,96.13a1,1,0,0,0,.71,1A52.05,52.05,0,0,1,124,101.41a1,1,0,0,0,1.18-.16L132,94.51a57.15,57.15,0,0,1,9.82,8,61.68,61.68,0,0,1,7.83,9.93l-6.88,6.79a1,1,0,0,0-.18,1.2,48.66,48.66,0,0,1,4.18,10.32,1,1,0,0,0,1,.73l9.59.07c.33,1.55.59,3.06.77,4.52a1,1,0,0,0,2-.25c-.23-1.76-.56-3.61-1-5.49a1,1,0,0,0-1-.78l-9.64-.06a51.29,51.29,0,0,0-3.78-9.36l6.92-6.83a1,1,0,0,0,.15-1.24,63.7,63.7,0,0,0-8.53-11,59.3,59.3,0,0,0-10.85-8.69,1,1,0,0,0-1.23.13l-6.93,6.77A54.36,54.36,0,0,0,115,95.4l.08-9.7a1,1,0,0,0-.76-1A60,60,0,0,0,86.75,84.51Z" style="fill:#c52329"/><path d="M137.62,176.87a29,29,0,0,0-29,29,28.21,28.21,0,0,0,3.15,12.9H110a16.51,16.51,0,0,0,0,33H274.77a1,1,0,0,0,0-2H110a14.51,14.51,0,0,1,0-29h3.4a1,1,0,0,0,.86-1.5,26.52,26.52,0,0,1-3.69-13.4,26.93,26.93,0,0,1,41.57-22.7,1,1,0,0,0,1,.06,1,1,0,0,0,.57-.79,51.26,51.26,0,0,1,101-5.4,1,1,0,0,0,.72.75,1,1,0,0,0,1-.29,29.31,29.31,0,0,1,21.84-9.72A29.81,29.81,0,0,1,306,187.07a1,1,0,0,0,1.33.57,26.62,26.62,0,0,1,10.57-2.16,27.05,27.05,0,0,1,27,27,26.72,26.72,0,0,1-1,7,1,1,0,1,0,1.93.52,28.56,28.56,0,0,0,1.11-7.56,29,29,0,0,0-39.44-27.09,31.82,31.82,0,0,0-29.21-19.6,31.22,31.22,0,0,0-22,9,53.26,53.26,0,0,0-104.28,5.85A28.78,28.78,0,0,0,137.62,176.87Z" style="fill:#c52329"/><path d="M324.54,142.73H414a6.81,6.81,0,1,0,0-13.62h-.21a10.68,10.68,0,0,0,.15-1.74,11.51,11.51,0,0,0-11.5-11.5,11.64,11.64,0,0,0-3.57.56,12.56,12.56,0,0,0-11.28-7.18,12.33,12.33,0,0,0-7.94,2.87,20.59,20.59,0,0,0-39.89,2.38,11.31,11.31,0,0,0-4.88-1.11,11.52,11.52,0,0,0-11.51,11.5,11,11,0,0,0,.84,4.22,6.81,6.81,0,0,0,.33,13.62Zm0-11.62h1.27a1,1,0,0,0,.86-.5,1,1,0,0,0,0-1,9.41,9.41,0,0,1-1.3-4.72,9.48,9.48,0,0,1,14.63-8,1,1,0,0,0,1,.06,1,1,0,0,0,.56-.79,18.59,18.59,0,0,1,36.62-2,1,1,0,0,0,.71.75,1,1,0,0,0,1-.3,10.41,10.41,0,0,1,7.73-3.43,10.54,10.54,0,0,1,9.8,6.81,1,1,0,0,0,.54.57,1.08,1.08,0,0,0,.79,0,9.31,9.31,0,0,1,3.72-.76,9.51,9.51,0,0,1,9.5,9.5,9.09,9.09,0,0,1-.37,2.48,1,1,0,0,0,1,1.26H414a4.81,4.81,0,1,1,0,9.62H324.54a4.81,4.81,0,1,1,0-9.62Z" style="fill:#c52329"/><path d="M198.54,262.3a1,1,0,0,0-1,1v39.38a9.82,9.82,0,1,0,2-.05V263.3A1,1,0,0,0,198.54,262.3ZM204.31,318a7.84,7.84,0,1,1,0-11.07A7.78,7.78,0,0,1,204.31,318Z" style="fill:#c52329"/><path d="M152.5,262.94v10.47H125.22a9.82,9.82,0,1,0-9.73,11.11,9.81,9.81,0,0,0,9.79-9.11H153.5a1,1,0,0,0,1-1V262.94a1,1,0,0,0-2,0ZM121,280.23a7.82,7.82,0,1,1,2.3-5.54A7.84,7.84,0,0,1,121,280.23Z" style="fill:#c52329"/><path d="M198.46,388.26l-46.79-46.79a1,1,0,0,0-.71-.3H5.11a1,1,0,0,0,0,2H150.55L197,389.6a9.86,9.86,0,1,0,1.49-1.34Zm11.34,13.45a7.83,7.83,0,0,1-11.07-11.08,7.83,7.83,0,1,1,11.07,11.08Z" style="fill:#c52329"/><path d="M463,129a9.82,9.82,0,0,0-16.72,5.91H431.93a1,1,0,0,0,0,2h14.35A9.83,9.83,0,1,0,463,129Zm-1.42,12.48a7.83,7.83,0,1,1-5.53-13.36,7.83,7.83,0,0,1,5.53,13.36Z" style="fill:#c52329"/><path d="M310.55,175.46h53.66a1,1,0,0,0,1-1v-20.6a1,1,0,1,0-2,0v19.6H310.55a1,1,0,0,0,0,2Z" style="fill:#c52329"/><path d="M204.66,124.83a1,1,0,0,0,1-1V104.52h47.59a9.84,9.84,0,0,0,16.73,6,9.83,9.83,0,0,0-13.9-13.91,9.74,9.74,0,0,0-2.83,6H204.66a1,1,0,0,0-1,1v20.31A1,1,0,0,0,204.66,124.83ZM257.49,98a7.83,7.83,0,1,1-2.29,5.53A7.8,7.8,0,0,1,257.49,98Z" style="fill:#c52329"/><path d="M387.43,152.86a1,1,0,0,0-1,1v51.85a9.83,9.83,0,1,0,10.83,9.78,9.84,9.84,0,0,0-8.83-9.78V153.86A1,1,0,0,0,387.43,152.86Zm7.83,62.63A7.82,7.82,0,1,1,393,210,7.76,7.76,0,0,1,395.26,215.49Z" style="fill:#c52329"/><path d="M422.23,121.21h10.91a1,1,0,0,0,1-1V97.27a9.85,9.85,0,1,0-2,0v21.94h-9.91a1,1,0,0,0,0,2Zm3.08-33.71a7.84,7.84,0,1,1,8.36,7.8,1,1,0,0,0-.53-.17,1,1,0,0,0-.54.17,7.8,7.8,0,0,1-7.29-7.8Z" style="fill:#c52329"/><path d="M5.11,64.26H49.52a1.05,1.05,0,0,0,.71-.29L92.37,21.82a9.88,9.88,0,1,0-1.49-1.33L49.11,62.26h-44a1,1,0,1,0,0,2Zm87.44-56a7.83,7.83,0,1,1,0,11.08A7.84,7.84,0,0,1,92.55,8.29Z" style="fill:#c52329"/><path d="M5.11,237.59h77.3a1,1,0,0,0,0-2H5.11a1,1,0,0,0,0,2Z" style="fill:#c52329"/><path d="M5.11,294H57.45a9.85,9.85,0,1,0,0-2H5.11a1,1,0,0,0,0,2Zm56.58-6.54A7.83,7.83,0,1,1,59.4,293,7.8,7.8,0,0,1,61.69,287.48Z" style="fill:#c52329"/><path d="M441.66,304.62a10.55,10.55,0,0,1-9.17-10.5v-1.68a4.5,4.5,0,0,1,1.7-3.45,17.46,17.46,0,0,0,6.32-13.49v-10a17.34,17.34,0,0,0-5.15-12.43A17.71,17.71,0,0,0,421.71,248c-9.2.61-16.4,8.59-16.4,18.18v9.35a17.54,17.54,0,0,0,6.07,13.29,4.5,4.5,0,0,1,1.62,3.38V297a7.51,7.51,0,0,1-7.52,7.53c-.41,0-.81,0-1.21.05a1,1,0,1,0,.16,2c.34,0,.7-.05,1.05-.05A9.49,9.49,0,0,0,415,297v-4.81a6.49,6.49,0,0,0-2.31-4.89,15.56,15.56,0,0,1-5.38-11.78v-9.35c0-8.54,6.38-15.64,14.53-16.18A15.68,15.68,0,0,1,434,254.51a15.41,15.41,0,0,1,4.56,11v10a15.44,15.44,0,0,1-5.6,11.95,6.48,6.48,0,0,0-2.42,5v1.68a12.54,12.54,0,0,0,10.93,12.48,11.27,11.27,0,0,1,9.91,11.22v11.56a1,1,0,0,0,2,0V317.82a13.26,13.26,0,0,0-11.67-13.2Z" style="fill:#c52329"/><path d="M321,304.56a10.59,10.59,0,0,1-8.83-10.44v-1.68a4.5,4.5,0,0,1,1.7-3.45,17.45,17.45,0,0,0,6.33-13.49v-10a17.39,17.39,0,0,0-5.15-12.43A17.72,17.72,0,0,0,301.41,248c-9.2.61-16.4,8.59-16.4,18.18v9.35a17.55,17.55,0,0,0,6.07,13.29,4.5,4.5,0,0,1,1.62,3.38V297a7.51,7.51,0,0,1-7.53,7.53,13.32,13.32,0,0,0-13.31,13.31v11.56a1,1,0,0,0,2,0V317.82a11.32,11.32,0,0,1,11.31-11.31A9.49,9.49,0,0,0,294.7,297v-4.81a6.49,6.49,0,0,0-2.32-4.89A15.59,15.59,0,0,1,287,275.5v-9.35c0-8.54,6.38-15.64,14.53-16.18a15.64,15.64,0,0,1,12.1,4.54,15.41,15.41,0,0,1,4.57,11v10a15.43,15.43,0,0,1-5.61,11.95,6.48,6.48,0,0,0-2.42,5v1.68a12.47,12.47,0,0,0,10.51,12.42,1,1,0,0,0,.32-2Z" style="fill:#c52329"/><path d="M388.54,305.35a14.55,14.55,0,0,1-12.67-14.48v-2.26a6.42,6.42,0,0,1,2.41-4.91,23.2,23.2,0,0,0,8.4-17.92V252.35a23.11,23.11,0,0,0-6.84-16.52A23.44,23.44,0,0,0,361.73,229c-12.21.81-21.78,11.41-21.78,24.14v12.6A23.28,23.28,0,0,0,348,283.42a6.42,6.42,0,0,1,2.3,4.82v6.49a10.45,10.45,0,0,1-10.49,10.49,17.61,17.61,0,0,0-17.59,17.59v15.58a1,1,0,0,0,2,0V322.81a15.61,15.61,0,0,1,15.59-15.59,12.46,12.46,0,0,0,12.49-12.49v-6.49a8.41,8.41,0,0,0-3-6.33A21.32,21.32,0,0,1,342,265.78v-12.6c0-11.68,8.75-21.41,19.91-22.14a21.4,21.4,0,0,1,16.57,6.21,21.11,21.11,0,0,1,6.25,15.1v13.43A21.19,21.19,0,0,1,377,282.16a8.42,8.42,0,0,0-3.14,6.45v2.26a16.57,16.57,0,0,0,14.43,16.47A15.5,15.5,0,0,1,402,322.81v15.58a1,1,0,0,0,2,0V322.81a17.53,17.53,0,0,0-15.41-17.46Z" style="fill:#c52329"/></svg>