<svg id="Layer_1" data-name="Layer 1" xmlns="http://www.w3.org/2000/svg" viewBox="0 0 470 410"><title>flex-metal-private-cloud</title><path d="M409,335.37a10.1,10.1,0,0,1-2.94-7.15,1,1,0,0,0-2,0A12.24,12.24,0,0,0,424.9,337a12.27,12.27,0,0,0,.18-17.32,12.15,12.15,0,0,0-8.75-3.66,1,1,0,1,0,0,2h.05a10.12,10.12,0,0,1,7.27,3.06A10.24,10.24,0,1,1,409,335.37Z" style="fill:#c52529"/><path d="M448.83,319.91l-5.07,0a29,29,0,0,0-1.9-4.71l3.64-3.58a1,1,0,0,0,.15-1.24,36.56,36.56,0,0,0-4.83-6.2,33.74,33.74,0,0,0-6.14-4.92,1,1,0,0,0-1.23.13l-3.64,3.56a30.39,30.39,0,0,0-4.65-1.95l0-5.11a1,1,0,0,0-.76-1,34.54,34.54,0,0,0-8.11-1,1,1,0,0,0,0,2,32.17,32.17,0,0,1,6.86.74l0,5a1,1,0,0,0,.71,1A29.44,29.44,0,0,1,429.5,305a1,1,0,0,0,1.18-.16l3.6-3.51a31.5,31.5,0,0,1,5.1,4.19,34.4,34.4,0,0,1,4.14,5.19l-3.6,3.54a1,1,0,0,0-.17,1.19,26.93,26.93,0,0,1,2.3,5.68,1,1,0,0,0,1,.73l5,0a32.15,32.15,0,0,1-.1,13.18l-5.08,0h0a1,1,0,0,0-1,.73,24.11,24.11,0,0,1-2.35,5.57,1,1,0,0,0,.15,1.2l3.56,3.6a31.3,31.3,0,0,1-4.26,5.11,30.78,30.78,0,0,1-5.15,4.13l-3.55-3.6a1,1,0,0,0-1.21-.17,24.14,24.14,0,0,1-5.61,2.27,1,1,0,0,0-.74.95l0,5a31.86,31.86,0,0,1-13.19-.1l0-5a1,1,0,0,0-.71-1,26.22,26.22,0,0,1-5.58-2.39,1,1,0,0,0-1.2.15l-3.61,3.56a29,29,0,0,1-5.1-4.25,31.66,31.66,0,0,1-4.13-5.17l3.6-3.55a1,1,0,0,0,.17-1.19,26.73,26.73,0,0,1-2.31-5.65,1,1,0,0,0-.95-.72l-5-.05a31.15,31.15,0,0,1-.64-6.29,1,1,0,0,0-2,0,34.19,34.19,0,0,0,.85,7.51,1,1,0,0,0,1,.78l5.09,0a29.16,29.16,0,0,0,1.91,4.67l-3.63,3.59a1,1,0,0,0-.16,1.23,33.84,33.84,0,0,0,4.83,6.2,30.76,30.76,0,0,0,6.15,5,1,1,0,0,0,1.22-.14l3.64-3.59a27.58,27.58,0,0,0,4.62,2l0,5.1a1,1,0,0,0,.76,1,33.55,33.55,0,0,0,8.06,1,34,34,0,0,0,7.59-.85,1,1,0,0,0,.78-1l0-5.08a25.94,25.94,0,0,0,4.66-1.88l3.58,3.63a1,1,0,0,0,1.24.15,32.47,32.47,0,0,0,6.19-4.83,32.81,32.81,0,0,0,5-6.14,1,1,0,0,0-.14-1.23l-3.59-3.63a25.83,25.83,0,0,0,2-4.62l5.12,0h0a1,1,0,0,0,1-.76,34.18,34.18,0,0,0,.13-15.65A1,1,0,0,0,448.83,319.91Z" style="fill:#c52529"/><path d="M110,128.77a21.11,21.11,0,1,0-30.12,29.58,20.86,20.86,0,0,0,14.81,6.34h.23a21,21,0,0,0,14.77-6A21.21,21.21,0,0,0,110,128.77Zm-1.71,28.45h0a19,19,0,0,1-27-.27,19.11,19.11,0,1,1,27,.27Z" style="fill:#c52529"/><path d="M109.9,95.4l.08-9.7a1,1,0,0,0-.76-1,60,60,0,0,0-27.58-.21,1,1,0,0,0-.78,1l-.08,9.69a48.58,48.58,0,0,0-9.34,3.74L64.61,92a1,1,0,0,0-1.23-.15,60.33,60.33,0,0,0-11,8.54,58.31,58.31,0,0,0-8.71,10.86,1,1,0,0,0,.14,1.22l6.78,6.93a52,52,0,0,0-3.89,9.19l-9.7-.08h0a1,1,0,0,0-1,.76,60,60,0,0,0-.28,27.63,1,1,0,0,0,1,.77l9.7.08a49.13,49.13,0,0,0,3.8,9.3l-6.93,6.83a1,1,0,0,0-.16,1.23A59.93,59.93,0,0,0,51.71,186a54.46,54.46,0,0,0,10.85,8.78,1,1,0,0,0,1.23-.14l6.92-6.83a48.53,48.53,0,0,0,9.19,3.93l-.08,9.71a1,1,0,0,0,.76,1,58.87,58.87,0,0,0,13.49,1.72h0a1,1,0,0,0,0-2,57.49,57.49,0,0,1-12.27-1.47L81.9,191a1,1,0,0,0-.71-1,47.12,47.12,0,0,1-10.14-4.35,1,1,0,0,0-1.2.16l-6.91,6.8a53.08,53.08,0,0,1-9.8-8.05,57.68,57.68,0,0,1-7.84-9.93l6.9-6.8a1,1,0,0,0,.17-1.19,47.1,47.1,0,0,1-4.19-10.26,1,1,0,0,0-1-.73l-9.65-.08a57.89,57.89,0,0,1,.26-25.16l9.64.07a1,1,0,0,0,1-.71,50.56,50.56,0,0,1,4.3-10.16,1,1,0,0,0-.16-1.19l-6.74-6.89a55,55,0,0,1,8-9.82A58.11,58.11,0,0,1,63.74,94l6.8,6.9a1,1,0,0,0,1.19.17A46.57,46.57,0,0,1,82,96.9a1,1,0,0,0,.75-1l.07-9.66a58.13,58.13,0,0,1,25.12.19l-.08,9.65a1,1,0,0,0,.72,1,52.31,52.31,0,0,1,10.24,4.31,1,1,0,0,0,1.18-.16l6.89-6.74a57.09,57.09,0,0,1,9.81,8,62.31,62.31,0,0,1,7.84,9.93l-6.89,6.79a1,1,0,0,0-.17,1.2,49.19,49.19,0,0,1,4.18,10.32,1,1,0,0,0,1,.73l9.58.07c.33,1.55.59,3.07.78,4.52a1,1,0,1,0,2-.25c-.22-1.76-.55-3.61-1-5.49a1,1,0,0,0-1-.78l-9.64-.06a50.61,50.61,0,0,0-3.79-9.36l6.92-6.83a1,1,0,0,0,.15-1.24,64.14,64.14,0,0,0-8.52-11,59,59,0,0,0-10.86-8.69,1,1,0,0,0-1.22.13l-6.93,6.77A54.36,54.36,0,0,0,109.9,95.4Z" style="fill:#c52529"/><path d="M132.51,176.87a29.06,29.06,0,0,0-29,29,28.21,28.21,0,0,0,3.15,12.9h-1.71a16.51,16.51,0,0,0,0,33H339.27a1,1,0,0,0,0-2H104.93a14.51,14.51,0,0,1,0-29h3.39a1,1,0,0,0,.87-.5,1,1,0,0,0,0-1,26.53,26.53,0,0,1-3.7-13.4,26.93,26.93,0,0,1,41.58-22.7,1,1,0,0,0,1,.06,1,1,0,0,0,.56-.79,51.26,51.26,0,0,1,101-5.4,1,1,0,0,0,1.71.46,29.29,29.29,0,0,1,21.83-9.72,29.81,29.81,0,0,1,27.72,19.26,1,1,0,0,0,.55.57,1,1,0,0,0,.78,0,26.63,26.63,0,0,1,10.58-2.16,27.06,27.06,0,0,1,27,27,26.77,26.77,0,0,1-1,7,1,1,0,0,0,1,1.26h3.89a14.44,14.44,0,0,1,13.46,9.1,1,1,0,0,0,1.3.55,1,1,0,0,0,.56-1.3,16.43,16.43,0,0,0-15.32-10.35H341a27.11,27.11,0,0,0,.8-6.3,29,29,0,0,0-39.44-27.09,31.84,31.84,0,0,0-29.22-19.6,31.2,31.2,0,0,0-22,9,53.26,53.26,0,0,0-104.29,5.85A28.75,28.75,0,0,0,132.51,176.87Z" style="fill:#c52529"/><path d="M319.42,142.73h89.46a6.81,6.81,0,1,0,0-13.62h-.21a9.63,9.63,0,0,0,.16-1.74,11.52,11.52,0,0,0-15.07-10.94,12.57,12.57,0,0,0-11.29-7.18,12.3,12.3,0,0,0-7.93,2.87,20.59,20.59,0,0,0-39.89,2.38,11.36,11.36,0,0,0-4.89-1.11,11.51,11.51,0,0,0-11.5,11.5,11,11,0,0,0,.84,4.22,6.81,6.81,0,0,0,.32,13.62Zm0-11.62h1.27a1,1,0,0,0,.87-.5,1,1,0,0,0,0-1,9.41,9.41,0,0,1-1.3-4.72,9.47,9.47,0,0,1,14.62-8,1,1,0,0,0,1,.06,1,1,0,0,0,.57-.79,18.59,18.59,0,0,1,36.61-2,1,1,0,0,0,1.72.45,10.39,10.39,0,0,1,7.72-3.43,10.54,10.54,0,0,1,9.81,6.81,1,1,0,0,0,.54.57,1.05,1.05,0,0,0,.78,0,9.39,9.39,0,0,1,3.73-.76,9.37,9.37,0,0,1,9.13,12,1,1,0,0,0,.17.86,1,1,0,0,0,.79.4h1.46a4.81,4.81,0,1,1,0,9.62H319.42a4.81,4.81,0,0,1,0-9.62Z" style="fill:#c52529"/><path d="M147.38,262.94v10.47H120.11a9.81,9.81,0,1,0,.06,2h28.21a1,1,0,0,0,1-1V262.94a1,1,0,0,0-2,0Zm-31.47,17.29a7.85,7.85,0,1,1,2.29-5.54A7.84,7.84,0,0,1,115.91,280.23Z" style="fill:#c52529"/><path d="M194.43,292.63V263.3a1,1,0,0,0-2,0v29.38a9.82,9.82,0,1,0,2-.05ZM199.19,308a7.83,7.83,0,0,1-11.07,0,7.83,7.83,0,1,1,11.07,0Z" style="fill:#c52529"/><path d="M163.34,388.26l-46.79-46.79a1,1,0,0,0-.7-.3H0a1,1,0,0,0-1,1,1,1,0,0,0,1,1H115.43l46.43,46.43a9.83,9.83,0,1,0,1.48-1.34Zm11.35,13.45a7.85,7.85,0,1,1,2.29-5.54A7.78,7.78,0,0,1,174.69,401.71Z" style="fill:#c52529"/><path d="M457.89,129a9.81,9.81,0,0,0-16.71,5.91H426.82a1,1,0,0,0,0,2h14.35A9.82,9.82,0,1,0,457.89,129Zm-1.41,12.48a7.83,7.83,0,0,1-11.07-11.07,7.83,7.83,0,0,1,11.07,0A7.84,7.84,0,0,1,456.48,141.49Z" style="fill:#c52529"/><path d="M405.22,316.09V270.58a1,1,0,0,0-1-1H392v-8.15a20.82,20.82,0,1,0-41.64,0v8.15H338.22a1,1,0,0,0-1,1v45.51a1,1,0,0,0,1,1h66A1,1,0,0,0,405.22,316.09ZM352.4,261.43a18.82,18.82,0,1,1,37.64,0v8.15H352.4Zm50.82,53.66h-64V271.58h64Z" style="fill:#c52529"/><path d="M366.64,305.14a1,1,0,0,0,1,1h7.15a1,1,0,0,0,1-1v-4.22a1,1,0,0,0-2,0v3.22h-5.15v-10.6a1,1,0,0,0-.29-.7,4.06,4.06,0,1,1,5.74,0,1,1,0,0,0-.3.7v2.66a1,1,0,0,0,2,0v-2.26a6.06,6.06,0,1,0-9.15,0Z" style="fill:#c52529"/><path d="M305.44,175.46H359.1a1,1,0,0,0,1-1v-20.6a1,1,0,0,0-2,0v19.6H305.44a1,1,0,0,0,0,2Z" style="fill:#c52529"/><path d="M199.55,124.83a1,1,0,0,0,1-1V104.52h47.58a9.82,9.82,0,1,0,0-2H199.55a1,1,0,0,0-1,1v20.31A1,1,0,0,0,199.55,124.83Zm50.53-21.31a7.84,7.84,0,1,1,2.3,5.54,7.77,7.77,0,0,1-2.3-5.54Z" style="fill:#c52529"/><path d="M382.32,152.86a1,1,0,0,0-1,1v51.85a9.82,9.82,0,1,0,2,0V153.86A1,1,0,0,0,382.32,152.86ZM387.86,210a7.85,7.85,0,1,1-5.54-2.29A7.78,7.78,0,0,1,387.86,210Z" style="fill:#c52529"/><path d="M417.11,121.21H428a1,1,0,0,0,1-1V97.27a9.85,9.85,0,1,0-2,0v21.94h-9.91a1,1,0,0,0,0,2ZM422.49,93A7.83,7.83,0,1,1,433.56,82a7.81,7.81,0,0,1-5,13.33.93.93,0,0,0-1.07,0A7.77,7.77,0,0,1,422.49,93Z" style="fill:#c52529"/><path d="M0,64.26H64.41a1,1,0,0,0,.7-.29l42.15-42.15a9.85,9.85,0,1,0-1.5-1.33L64,62.26H0a1,1,0,0,0,0,2Zm107.44-56a7.83,7.83,0,1,1,0,11.08A7.82,7.82,0,0,1,107.44,8.29Z" style="fill:#c52529"/><path d="M0,237.59H77.3a1,1,0,0,0,0-2H0a1,1,0,0,0-1,1A1,1,0,0,0,0,237.59Z" style="fill:#c52529"/><path d="M0,294H52.34a9.83,9.83,0,1,0,16.72-8,9.84,9.84,0,0,0-13.9,0,9.73,9.73,0,0,0-2.82,6H0a1,1,0,0,0-1,1A1,1,0,0,0,0,294Zm54.28-1a7.84,7.84,0,1,1,2.3,5.54,7.77,7.77,0,0,1-2.3-5.54h0Z" style="fill:#c52529"/></svg>