<svg id="Layer_1" data-name="Layer 1" xmlns="http://www.w3.org/2000/svg" viewBox="0 0 470 410"><path d="M60,335.37a10.1,10.1,0,0,0,2.94-7.15,1,1,0,0,1,2,0A12.24,12.24,0,0,1,44.1,337a12.27,12.27,0,0,1-.18-17.32A12.15,12.15,0,0,1,52.67,316a1,1,0,1,1,0,2h-.05A10.12,10.12,0,0,0,45.35,321,10.24,10.24,0,1,0,60,335.37Z" style="fill:#c52529"/><path d="M20.17,319.91l5.07,0a29,29,0,0,1,1.9-4.71l-3.64-3.58a1,1,0,0,1-.15-1.24,36.56,36.56,0,0,1,4.83-6.2,33.74,33.74,0,0,1,6.14-4.92,1,1,0,0,1,1.23.13l3.64,3.56A30.39,30.39,0,0,1,43.84,301l0-5.11a1,1,0,0,1,.76-1,34.54,34.54,0,0,1,8.11-1,1,1,0,1,1,0,2,32.17,32.17,0,0,0-6.86.74l0,5a1,1,0,0,1-.71,1A29.44,29.44,0,0,0,39.5,305a1,1,0,0,1-1.18-.16l-3.6-3.51a31.5,31.5,0,0,0-5.1,4.19,34.4,34.4,0,0,0-4.14,5.19l3.6,3.54a1,1,0,0,1,.17,1.19,26.93,26.93,0,0,0-2.3,5.68,1,1,0,0,1-1,.73l-5,0a32.15,32.15,0,0,0,.1,13.18l5.08,0h0a1,1,0,0,1,1,.73,24.11,24.11,0,0,0,2.35,5.57,1,1,0,0,1-.15,1.2l-3.56,3.6A31.3,31.3,0,0,0,30,351.26a30.78,30.78,0,0,0,5.15,4.13l3.55-3.6a1,1,0,0,1,1.21-.17,24.14,24.14,0,0,0,5.61,2.27,1,1,0,0,1,.74.95l0,5a31.86,31.86,0,0,0,13.19-.1l0-5a1,1,0,0,1,.71-1,26.22,26.22,0,0,0,5.58-2.39,1,1,0,0,1,1.2.15l3.61,3.56a29,29,0,0,0,5.1-4.25,31.66,31.66,0,0,0,4.13-5.17l-3.6-3.55a1,1,0,0,1-.17-1.19,26.73,26.73,0,0,0,2.31-5.65,1,1,0,0,1,1-.72l5-.05a31.15,31.15,0,0,0,.64-6.29,1,1,0,0,1,2,0,34.19,34.19,0,0,1-.85,7.51,1,1,0,0,1-1,.78l-5.09,0a29.16,29.16,0,0,1-1.91,4.67l3.63,3.59A1,1,0,0,1,82,346a33.84,33.84,0,0,1-4.83,6.2,30.76,30.76,0,0,1-6.15,5,1,1,0,0,1-1.22-.14l-3.64-3.59a27.58,27.58,0,0,1-4.62,2l0,5.1a1,1,0,0,1-.76,1,33.55,33.55,0,0,1-8.06,1,34,34,0,0,1-7.59-.85,1,1,0,0,1-.78-1l0-5.08a25.94,25.94,0,0,1-4.66-1.88l-3.58,3.63a1,1,0,0,1-1.24.15,32.47,32.47,0,0,1-6.19-4.83,32.81,32.81,0,0,1-5-6.14,1,1,0,0,1,.14-1.23l3.59-3.63a25.83,25.83,0,0,1-2-4.62l-5.12,0h0a1,1,0,0,1-1-.76,34.18,34.18,0,0,1-.13-15.65A1,1,0,0,1,20.17,319.91Z" style="fill:#c52529"/><path d="M359.31,158.65a21,21,0,0,0,14.77,6h.23a20.86,20.86,0,0,0,14.81-6.34,21.11,21.11,0,1,0-29.81.3Zm1.12-28.48A19.11,19.11,0,1,1,387.69,157a19,19,0,0,1-27,.27h0A19.2,19.2,0,0,1,360.43,130.17Z" style="fill:#c52529"/><path d="M359.1,95.4,359,85.7a1,1,0,0,1,.76-1,60,60,0,0,1,27.58-.21,1,1,0,0,1,.78,1l.08,9.69a48.58,48.58,0,0,1,9.34,3.74L404.39,92a1,1,0,0,1,1.23-.15,60.33,60.33,0,0,1,10.95,8.54,58.31,58.31,0,0,1,8.71,10.86,1,1,0,0,1-.14,1.22l-6.78,6.93a52,52,0,0,1,3.89,9.19l9.7-.08h0a1,1,0,0,1,1,.76,60,60,0,0,1,.28,27.63,1,1,0,0,1-1,.77l-9.7.08a49.13,49.13,0,0,1-3.8,9.3l6.93,6.83a1,1,0,0,1,.16,1.23A59.93,59.93,0,0,1,417.29,186a54.46,54.46,0,0,1-10.85,8.78,1,1,0,0,1-1.23-.14l-6.92-6.83a48.53,48.53,0,0,1-9.19,3.93l.08,9.71a1,1,0,0,1-.76,1,58.87,58.87,0,0,1-13.49,1.72h0a1,1,0,0,1,0-2,57.49,57.49,0,0,0,12.27-1.47L387.1,191a1,1,0,0,1,.71-1A47.12,47.12,0,0,0,398,185.73a1,1,0,0,1,1.2.16l6.91,6.8a53.08,53.08,0,0,0,9.8-8.05,57.68,57.68,0,0,0,7.84-9.93l-6.9-6.8a1,1,0,0,1-.17-1.19,47.1,47.1,0,0,0,4.19-10.26,1,1,0,0,1,1-.73l9.65-.08a57.89,57.89,0,0,0-.26-25.16l-9.64.07a1,1,0,0,1-1-.71,50.56,50.56,0,0,0-4.3-10.16,1,1,0,0,1,.16-1.19l6.74-6.89a55,55,0,0,0-8-9.82A58.11,58.11,0,0,0,405.26,94l-6.8,6.9a1,1,0,0,1-1.19.17A46.57,46.57,0,0,0,387,96.9a1,1,0,0,1-.75-1l-.07-9.66a58.13,58.13,0,0,0-25.12.19l.08,9.65a1,1,0,0,1-.72,1,52.31,52.31,0,0,0-10.24,4.31,1,1,0,0,1-1.18-.16l-6.89-6.74a57.09,57.09,0,0,0-9.81,8,62.31,62.31,0,0,0-7.84,9.93l6.89,6.79a1,1,0,0,1,.17,1.2,49.19,49.19,0,0,0-4.18,10.32,1,1,0,0,1-1,.73l-9.58.07c-.33,1.55-.59,3.07-.78,4.52a1,1,0,1,1-2-.25c.22-1.76.55-3.61,1-5.49a1,1,0,0,1,1-.78l9.64-.06a50.61,50.61,0,0,1,3.79-9.36l-6.92-6.83a1,1,0,0,1-.15-1.24,64.14,64.14,0,0,1,8.52-11,59,59,0,0,1,10.86-8.69,1,1,0,0,1,1.22.13l6.93,6.77A54.36,54.36,0,0,1,359.1,95.4Z" style="fill:#c52529"/><path d="M336.49,176.87a29.06,29.06,0,0,1,29,29,28.21,28.21,0,0,1-3.15,12.9h1.71a16.51,16.51,0,0,1,0,33H129.73a1,1,0,1,1,0-2H364.07a14.51,14.51,0,0,0,0-29h-3.39a1,1,0,0,1-.87-.5,1,1,0,0,1,0-1,26.53,26.53,0,0,0,3.7-13.4,26.93,26.93,0,0,0-41.58-22.7,1,1,0,0,1-1,.06,1,1,0,0,1-.56-.79,51.26,51.26,0,0,0-101-5.4,1,1,0,0,1-1.71.46,29.29,29.29,0,0,0-21.83-9.72,29.81,29.81,0,0,0-27.72,19.26,1,1,0,0,1-.55.57,1,1,0,0,1-.78,0,26.63,26.63,0,0,0-10.58-2.16,27.06,27.06,0,0,0-27,27,26.77,26.77,0,0,0,1.05,7,1,1,0,0,1-1,1.26h-3.89A14.44,14.44,0,0,0,112,229.9a1,1,0,0,1-1.3.55,1,1,0,0,1-.56-1.3,16.43,16.43,0,0,1,15.32-10.35H128a27.11,27.11,0,0,1-.8-6.3,29,29,0,0,1,39.44-27.09,31.84,31.84,0,0,1,29.22-19.6,31.2,31.2,0,0,1,22,9,53.26,53.26,0,0,1,104.29,5.85A28.75,28.75,0,0,1,336.49,176.87Z" style="fill:#c52529"/><path d="M156.39,135.92a6.83,6.83,0,0,0-6.49-6.81,11,11,0,0,0,.84-4.22,11.51,11.51,0,0,0-11.5-11.5,11.36,11.36,0,0,0-4.89,1.11,20.59,20.59,0,0,0-39.89-2.38,12.3,12.3,0,0,0-7.93-2.87,12.57,12.57,0,0,0-11.29,7.18,11.52,11.52,0,0,0-15.07,10.94,9.63,9.63,0,0,0,.16,1.74h-.21a6.81,6.81,0,1,0,0,13.62h89.46A6.82,6.82,0,0,0,156.39,135.92Zm-2,0a4.82,4.82,0,0,1-4.81,4.81H60.12a4.81,4.81,0,1,1,0-9.62h1.46a1,1,0,0,0,.79-.4,1,1,0,0,0,.17-.86,9.37,9.37,0,0,1,9.13-12,9.39,9.39,0,0,1,3.73.76,1.05,1.05,0,0,0,.78,0,1,1,0,0,0,.54-.57,10.54,10.54,0,0,1,9.81-6.81,10.39,10.39,0,0,1,7.72,3.43,1,1,0,0,0,1.72-.45,18.59,18.59,0,0,1,36.61,2,1,1,0,0,0,.57.79,1,1,0,0,0,1-.06,9.45,9.45,0,0,1,13.32,12.7,1,1,0,0,0,0,1,1,1,0,0,0,.87.5h1.27A4.82,4.82,0,0,1,154.39,135.92Z" style="fill:#c52529"/><path d="M320.62,261.94a1,1,0,0,0-1,1v11.47a1,1,0,0,0,1,1h28.21a9.83,9.83,0,0,0,9.8,9.11,9.83,9.83,0,1,0-9.74-11.11H321.62V262.94A1,1,0,0,0,320.62,261.94Zm30.18,12.75a7.83,7.83,0,1,1,2.29,5.54A7.78,7.78,0,0,1,350.8,274.69Z" style="fill:#c52529"/><path d="M268.39,295.47a9.83,9.83,0,0,0,6.95,16.78,9.82,9.82,0,0,0,1.23-19.57V263.3a1,1,0,0,0-2,0v29.33A9.79,9.79,0,0,0,268.39,295.47Zm1.42,1.42a7.83,7.83,0,1,1,0,11.07A7.77,7.77,0,0,1,269.81,296.89Z" style="fill:#c52529"/><path d="M292.9,389.22a9.84,9.84,0,1,0,14.24.38l46.43-46.43H469a1,1,0,0,0,0-2H353.15a1,1,0,0,0-.7.3l-46.79,46.79A9.83,9.83,0,0,0,292.9,389.22Zm-.88,6.95a7.82,7.82,0,1,1,2.29,5.54A7.78,7.78,0,0,1,292,396.17Z" style="fill:#c52529"/><path d="M11.11,142.91a9.82,9.82,0,0,0,16.72-6H42.18a1,1,0,1,0,0-2H27.82A9.82,9.82,0,0,0,11.11,129,9.84,9.84,0,0,0,11.11,142.91Zm1.41-12.49a7.83,7.83,0,1,1,0,11.07A7.78,7.78,0,0,1,12.52,130.42Z" style="fill:#c52529"/><path d="M131.78,316.09V270.58a1,1,0,0,0-1-1H118.6v-8.15a20.82,20.82,0,1,0-41.64,0v8.15H64.78a1,1,0,0,0-1,1v45.51a1,1,0,0,0,1,1h66A1,1,0,0,0,131.78,316.09ZM79,261.43a18.82,18.82,0,1,1,37.64,0v8.15H79Zm50.82,53.66h-64V271.58h64Z" style="fill:#c52529"/><path d="M93.21,305.14a1,1,0,0,0,1,1h7.15a1,1,0,0,0,1-1v-4.22a1,1,0,0,0-2,0v3.22H95.21v-10.6a1,1,0,0,0-.3-.7,4.06,4.06,0,0,1,0-5.74,4.06,4.06,0,0,1,5.74,5.74,1,1,0,0,0-.29.7v2.66a1,1,0,0,0,2,0v-2.26a6.08,6.08,0,0,0-.3-8.26,6.06,6.06,0,0,0-8.85,8.26Z" style="fill:#c52529"/><path d="M163.56,175.46H109.9a1,1,0,0,1-1-1v-20.6a1,1,0,0,1,2,0v19.6h52.66a1,1,0,0,1,0,2Z" style="fill:#c52529"/><path d="M270.45,123.83V103.52a1,1,0,0,0-1-1H220.87a9.85,9.85,0,1,0,0,2h47.58v19.31a1,1,0,0,0,2,0Zm-51.53-20.31h0a7.84,7.84,0,1,1-2.3-5.54,7.77,7.77,0,0,1,2.3,5.54Z" style="fill:#c52529"/><path d="M85.68,153.86v51.85a9.82,9.82,0,1,0,2,0V153.86a1,1,0,0,0-2,0Zm1,53.8A7.82,7.82,0,1,1,81.14,210,7.81,7.81,0,0,1,86.68,207.66Z" style="fill:#c52529"/><path d="M52.89,120.21a1,1,0,0,0-1-1H42V97.27a9.85,9.85,0,1,0-2,0v22.94a1,1,0,0,0,1,1H51.89A1,1,0,0,0,52.89,120.21ZM41.51,95.3a.93.93,0,0,0-1.07,0,7.86,7.86,0,1,1,1.07,0Z" style="fill:#c52529"/><path d="M470,63.26a1,1,0,0,0-1-1H405L363.24,20.49a9.8,9.8,0,1,0-1.5,1.33L403.89,64a1,1,0,0,0,.7.29H469A1,1,0,0,0,470,63.26ZM361.56,19.37a7.83,7.83,0,1,1,0-11.08A7.8,7.8,0,0,1,361.56,19.37Z" style="fill:#c52529"/><path d="M469,237.59H391.7a1,1,0,0,1,0-2H469a1,1,0,0,1,0,2Z" style="fill:#c52529"/><path d="M470,293a1,1,0,0,0-1-1H416.66a9.73,9.73,0,0,0-2.82-6,9.83,9.83,0,1,0,0,13.91,9.73,9.73,0,0,0,2.82-6H469A1,1,0,0,0,470,293Zm-55.28,0h0a7.84,7.84,0,1,1-2.3-5.54,7.77,7.77,0,0,1,2.3,5.54Z" style="fill:#c52529"/></svg>