<svg id="Layer_1" data-name="Layer 1" xmlns="http://www.w3.org/2000/svg" viewBox="0 0 470 410"><title>flex-metal-private-cloud</title><path d="M336.23,88a7.42,7.42,0,1,0,5.25,2.17A7.36,7.36,0,0,0,336.23,88Zm3.83,11.25a5.42,5.42,0,1,1,0-7.66A5.38,5.38,0,0,1,340.06,99.28Z" style="fill:#c52529"/><path d="M331,175.74a7.4,7.4,0,1,0,5.24-2.18A7.33,7.33,0,0,0,331,175.74Zm9.07,9.07a5.42,5.42,0,1,1,0-7.66A5.38,5.38,0,0,1,340.06,184.81Z" style="fill:#c52529"/><path d="M136.41,133a7.41,7.41,0,1,0,10.48,0A7.43,7.43,0,0,0,136.41,133Zm9.07,9.07a5.41,5.41,0,1,1,0-7.66A5.43,5.43,0,0,1,145.48,142Z" style="fill:#c52529"/><path d="M118.41,231.17a1,1,0,0,0,1-1V160.6h57.88v27.2a1,1,0,0,0,2,0V143.49H299.08V159a.87.87,0,0,0,0,1.11v49.46a1,1,0,0,0,2,0v-49h57.68v77.54a1,1,0,0,0,2,0V74a1,1,0,0,0-1-1H300.88V57a1,1,0,0,0-1-1H178.29a1,1,0,0,0-1,1V73H118.41a1,1,0,0,0-1,1V230.17A1,1,0,0,0,118.41,231.17ZM301.08,75h57.68v40.79H301.08Zm0,42.79h57.68V158.6H301.08ZM179.29,74V58H298.88V98.72H179.29Zm0,26.68H298.88v40.77H179.29ZM119.41,75h57.88V99.72a0,0,0,0,0,0,0v16.09H119.41Zm0,42.79h57.88v24.64s0,0,0,0V158.6H119.41Z" style="fill:#c52529"/><path d="M276.36,70.93a7.41,7.41,0,1,0,5.25,2.17A7.36,7.36,0,0,0,276.36,70.93Zm3.83,11.24a5.41,5.41,0,1,1,0-7.66A5.43,5.43,0,0,1,280.19,82.17Z" style="fill:#c52529"/><path d="M250.7,70.93A7.41,7.41,0,1,0,256,73.1,7.36,7.36,0,0,0,250.7,70.93Zm3.83,11.24a5.41,5.41,0,1,1,0-7.66A5.43,5.43,0,0,1,254.53,82.17Z" style="fill:#c52529"/><path d="M271.12,158.63a7.42,7.42,0,1,0,10.49,0A7.43,7.43,0,0,0,271.12,158.63Zm9.07,1.41a5.43,5.43,0,1,1-3.83-1.58A5.43,5.43,0,0,1,280.19,160Z" style="fill:#c52529"/><path d="M245.46,158.63a7.42,7.42,0,1,0,10.49,0A7.43,7.43,0,0,0,245.46,158.63Zm9.07,1.41a5.43,5.43,0,1,1-3.83-1.58A5.43,5.43,0,0,1,254.53,160Z" style="fill:#c52529"/><path d="M227.18,113.69a7.42,7.42,0,1,0,5.24,2.17A7.36,7.36,0,0,0,227.18,113.69ZM231,124.94a5.42,5.42,0,1,1,0-7.66A5.38,5.38,0,0,1,231,124.94Z" style="fill:#c52529"/><path d="M201.52,113.69a7.42,7.42,0,1,0,5.25,2.17A7.36,7.36,0,0,0,201.52,113.69Zm3.83,11.25a5.42,5.42,0,1,1,0-7.66A5.38,5.38,0,0,1,205.35,124.94Z" style="fill:#c52529"/><path d="M363.25,278.14h-2.77a28,28,0,0,0,.84-6.59,30.16,30.16,0,0,0-41-28.14A33.1,33.1,0,0,0,289.93,223,32.42,32.42,0,0,0,267,232.45a55.38,55.38,0,0,0-108.46,6.07,29.88,29.88,0,0,0-14.92-4,30.19,30.19,0,0,0-30.15,30.16,1,1,0,0,0,2,0A28.08,28.08,0,0,1,158.79,241a1,1,0,0,0,1,.07,1,1,0,0,0,.56-.8,53.38,53.38,0,0,1,105.14-5.61,1,1,0,0,0,1.72.46A30.57,30.57,0,0,1,289.93,225a31.07,31.07,0,0,1,28.88,20.07,1,1,0,0,0,.54.57,1.08,1.08,0,0,0,.79,0,27.89,27.89,0,0,1,38.09,33.24,1,1,0,0,0,.17.87,1,1,0,0,0,.8.39h4.05a15.14,15.14,0,1,1,0,30.27H164.91a1,1,0,0,0,0,2H363.25a17.14,17.14,0,1,0,0-34.27Z" style="fill:#c52529"/><path d="M109.41,148.17a1,1,0,0,0-1-1H29.14a10,10,0,1,0,.05,2h79.22A1,1,0,0,0,109.41,148.17Zm-84.54,5.91a8,8,0,1,1,0-11.35A8,8,0,0,1,24.87,154.08Z" style="fill:#c52529"/><path d="M62.5,180.5h45.9a1,1,0,0,0,0-2H62.5a10,10,0,1,0,0,2Zm-10,7a8,8,0,1,1,5.68-2.36A8,8,0,0,1,52.52,187.53Z" style="fill:#c52529"/><path d="M83.27,38v78.89a1,1,0,0,0,1,1h24.14a1,1,0,0,0,0-2H85.27V37.9a9.94,9.94,0,0,0,5.81-2.84A10.07,10.07,0,1,0,83.27,38Zm-5-15.67a8,8,0,1,1,0,11.36A8,8,0,0,1,78.31,22.29Z" style="fill:#c52529"/><path d="M72.05,240.38A10,10,0,0,0,66,237.5V211.75h42.45a1,1,0,0,0,0-2H65a1,1,0,0,0-1,1V237.5a10,10,0,1,0,8.09,2.88Zm-1.41,12.77A8,8,0,1,1,73,247.47,8,8,0,0,1,70.64,253.15Z" style="fill:#c52529"/><path d="M470,115.85H369.76a1,1,0,0,0,0,2H470a1,1,0,0,0,0-2Z" style="fill:#c52529"/><path d="M460,147.17H369.76a1,1,0,0,0,0,2H460a1,1,0,0,0,0-2Z" style="fill:#c52529"/><path d="M450,178.5H369.76a1,1,0,0,0,0,2H450a1,1,0,0,0,0-2Z" style="fill:#c52529"/><path d="M440,209.75H369.76a1,1,0,0,0,0,2H440a1,1,0,0,0,0-2Z" style="fill:#c52529"/><path d="M380.27,52.93A10.18,10.18,0,0,1,370.05,69.8a1,1,0,1,0-.58,1.91,11.88,11.88,0,0,0,3.52.53,12.17,12.17,0,1,0-11.35-7.85,1,1,0,0,0,1.87-.71,10.18,10.18,0,0,1,16.76-10.75Z" style="fill:#c52529"/><path d="M340.28,65a1,1,0,0,0,.87-1.11,31.38,31.38,0,0,1,.52-10.67l5,0a1,1,0,0,0,1-.72A26.8,26.8,0,0,1,350,47a1,1,0,0,0-.16-1.19l-3.49-3.57a31.65,31.65,0,0,1,9.31-9.18l3.53,3.57a1,1,0,0,0,1.19.17A25.09,25.09,0,0,1,366,34.59a1,1,0,0,0,.75-1l0-5a31.74,31.74,0,0,1,13.06.09l0,5a1,1,0,0,0,.71,1,29.21,29.21,0,0,1,5.6,2.36,1,1,0,0,0,1.19-.16l3.56-3.49a30.9,30.9,0,0,1,5.08,4.17A34.43,34.43,0,0,1,400,42.71l-3.56,3.51a1,1,0,0,0-.18,1.2,26.31,26.31,0,0,1,2.29,5.64,1,1,0,0,0,.95.73l5,0a32.06,32.06,0,0,1-.1,13.09l-5,0a1.06,1.06,0,0,0-1,.73A24.12,24.12,0,0,1,396,73.12a1,1,0,0,0,.15,1.2l3.53,3.58A31.78,31.78,0,0,1,395.48,83a31,31,0,0,1-5.12,4.1l-3.52-3.57a1,1,0,0,0-1.2-.17,23.69,23.69,0,0,1-5.58,2.24,1,1,0,0,0-.74,1l-.05,5a31.32,31.32,0,0,1-9.41.48,1,1,0,0,0-1.1.9,1,1,0,0,0,.9,1.09c1.1.11,2.2.17,3.31.17a33.56,33.56,0,0,0,7.52-.86,1,1,0,0,0,.78-1l0-5a25.34,25.34,0,0,0,4.63-1.87L389.5,89a1,1,0,0,0,1.22.15,34.13,34.13,0,0,0,11.1-10.9,1,1,0,0,0-.14-1.22l-3.55-3.62a27.52,27.52,0,0,0,1.93-4.58l5.09,0h0a1,1,0,0,0,1-.76,33.89,33.89,0,0,0,.12-15.55,1,1,0,0,0-1-.78l-5,0a28.49,28.49,0,0,0-1.89-4.67L402,43.57a1,1,0,0,0,.15-1.24,36.08,36.08,0,0,0-4.79-6.15,33.18,33.18,0,0,0-6.11-4.9,1,1,0,0,0-1.23.13L386.39,35A29.85,29.85,0,0,0,381.77,33l.05-5.06a1,1,0,0,0-.76-1,33.62,33.62,0,0,0-15.52-.12,1,1,0,0,0-.78,1l0,5a26.24,26.24,0,0,0-4.65,1.86l-3.57-3.62a1,1,0,0,0-1.23-.15,33,33,0,0,0-6.16,4.8,32.61,32.61,0,0,0-4.9,6.11,1,1,0,0,0,.13,1.23l3.54,3.61A29,29,0,0,0,346,51.29l-5.06,0h0a1,1,0,0,0-1,.76,33.39,33.39,0,0,0-.74,12.15A1,1,0,0,0,340.28,65Z" style="fill:#c52529"/><path d="M133.78,314.77a1,1,0,0,0,1.36-.4,25,25,0,0,0,3.08-12.08,25.41,25.41,0,1,0-37.76,22.2,1,1,0,0,0,1-1.75,23.4,23.4,0,1,1,34.78-20.45,23.09,23.09,0,0,1-2.83,11.12A1,1,0,0,0,133.78,314.77Z" style="fill:#c52529"/><path d="M108.68,288.32a1,1,0,0,0,.68-1.24,1,1,0,0,0-1.24-.68,16.59,16.59,0,0,0-7.93,26.68,1,1,0,0,0,.76.35,1,1,0,0,0,.76-1.65,14.59,14.59,0,0,1,7-23.46Z" style="fill:#c52529"/><path d="M124.83,312.24a1,1,0,0,0,.59.19,1,1,0,0,0,.81-.41,16.35,16.35,0,0,0,3.17-9.71,16.67,16.67,0,0,0-11.9-15.91,1,1,0,0,0-1.24.68,1,1,0,0,0,.68,1.24,14.64,14.64,0,0,1,10.46,14,14.33,14.33,0,0,1-2.79,8.53A1,1,0,0,0,124.83,312.24Z" style="fill:#c52529"/><path d="M157.48,326.18a8.25,8.25,0,0,0-6.17,2.27,7.86,7.86,0,0,0-.69.73,8.55,8.55,0,0,0-6.74-7.3,8.38,8.38,0,0,0-6.84,1.83,7.66,7.66,0,0,0-1.06,1.07,8.57,8.57,0,0,0-7.77-7.42,8.22,8.22,0,0,0-6.18,2.27c-.2.2-.4.41-.59.62V306.67a8.64,8.64,0,0,0-7.87-8.72,8.33,8.33,0,0,0-8.76,8.31v43.55l-10-9.95a15.6,15.6,0,0,0-19.19-2.31,3.83,3.83,0,0,0-1.8,2.81,3.73,3.73,0,0,0,1.07,3.11L86.51,355a71.6,71.6,0,0,1,19.54,36.23,1,1,0,0,0,1.18.77,1,1,0,0,0,.78-1.18,73.62,73.62,0,0,0-20.09-37.24L76.36,342.06a1.77,1.77,0,0,1-.51-1.46,1.83,1.83,0,0,1,.86-1.34,13.59,13.59,0,0,1,16.73,2l11.66,11.65a1,1,0,0,0,1.71-.7v-46a6.33,6.33,0,0,1,6.66-6.31,6.62,6.62,0,0,1,6,6.72v29.8a1,1,0,0,0,2,0V325.66a6.31,6.31,0,0,1,6.66-6.3,6.61,6.61,0,0,1,6,6.72v12.59a1,1,0,0,0,2,0v-8.6a6.32,6.32,0,0,1,7.45-6.21,6.6,6.6,0,0,1,5.18,6.63v10.39a1,1,0,0,0,2,0v-6.4a6.31,6.31,0,0,1,6.66-6.3,6.61,6.61,0,0,1,6,6.72V348A212.55,212.55,0,0,1,159,390.86a1,1,0,0,0,.78,1.18.65.65,0,0,0,.2,0,1,1,0,0,0,1-.79A214.44,214.44,0,0,0,165.35,348V334.9A8.64,8.64,0,0,0,157.48,326.18Z" style="fill:#c52529"/><path d="M143.6,308.94l4.68,4.68a1,1,0,0,0,.71.29,1,1,0,0,0,.71-.29,1,1,0,0,0,0-1.42L145,307.52a1,1,0,0,0-1.42,1.42Z" style="fill:#c52529"/><path d="M148.28,285.17l-4.68,4.68a1,1,0,0,0,0,1.42,1,1,0,0,0,1.42,0l4.68-4.68a1,1,0,1,0-1.42-1.42Z" style="fill:#c52529"/><path d="M144.68,299.38a1,1,0,0,0,1,1h6.62a1,1,0,0,0,0-2h-6.62A1,1,0,0,0,144.68,299.38Z" style="fill:#c52529"/><path d="M82,289.85l-4.68-4.68a1,1,0,0,0-1.41,0,1,1,0,0,0,0,1.42l4.68,4.68A1,1,0,1,0,82,289.85Z" style="fill:#c52529"/><path d="M80.61,307.52l-4.68,4.68a1,1,0,0,0,0,1.42,1,1,0,0,0,.71.29,1,1,0,0,0,.7-.29L82,308.94a1,1,0,0,0,0-1.42A1,1,0,0,0,80.61,307.52Z" style="fill:#c52529"/><path d="M81,299.41a1,1,0,0,0-1-1H73.33a1,1,0,1,0,0,2H80A1,1,0,0,0,81,299.41Z" style="fill:#c52529"/><path d="M111.81,284.27v7.31a1,1,0,0,0,2,0v-7.31a1,1,0,0,0-2,0Z" style="fill:#c52529"/></svg>