<svg id="Layer_1" data-name="Layer 1" xmlns="http://www.w3.org/2000/svg" viewBox="0 0 160 160"><title>forgot-password</title><path d="M88.38,147H71.62a.75.75,0,0,0,0,1.5H88.38a.75.75,0,0,0,0-1.5Z" style="fill:#c52529"/><path d="M73.59,50.91h6.9a.75.75,0,0,0,0-1.5h-6.9a.75.75,0,0,0,0,1.5Z" style="fill:#c52529"/><path d="M86.12,50.86a1,1,0,1,0-1.4,0A1,1,0,0,0,86.12,50.86Z" style="fill:#c52529"/><path d="M80,75a25.89,25.89,0,1,0,25.89,25.89A25.93,25.93,0,0,0,80,75Zm0,50.28a24.39,24.39,0,1,1,24.39-24.39A24.42,24.42,0,0,1,80,125.32Z" style="fill:#c52529"/><path d="M80,104.4a12,12,0,0,0-8.27,3.28.75.75,0,0,0,0,1.06.75.75,0,0,0,1.06,0,10.57,10.57,0,0,1,14.48,0,.73.73,0,0,0,.51.21.75.75,0,0,0,.52-1.3A12.06,12.06,0,0,0,80,104.4Z" style="fill:#c52529"/><path d="M90.38,93.56a3.45,3.45,0,1,0,4.88,0A3.45,3.45,0,0,0,90.38,93.56Z" style="fill:#c52529"/><path d="M64.74,93.56a3.45,3.45,0,1,0,4.88,0A3.46,3.46,0,0,0,64.74,93.56Z" style="fill:#c52529"/><path d="M119.43,156.86H113a6.3,6.3,0,0,0,2.25-4.84V49.84a6.34,6.34,0,0,0-6.33-6.34H51.1a6.35,6.35,0,0,0-6.35,6.34V152A6.31,6.31,0,0,0,47,156.86H19.86a.75.75,0,0,0,0,1.5h99.57a.75.75,0,0,0,0-1.5ZM46.25,57.81h67.5v78.35H46.25ZM51.1,45h57.82a4.84,4.84,0,0,1,4.83,4.84v6.47H46.25V49.84A4.85,4.85,0,0,1,51.1,45Zm0,111.86A4.85,4.85,0,0,1,46.25,152V137.66h67.5V152a4.84,4.84,0,0,1-4.83,4.84Z" style="fill:#c52529"/><path d="M140.14,156.86h-9.86a.75.75,0,1,0,0,1.5h9.86a.75.75,0,0,0,0-1.5Z" style="fill:#c52529"/><path d="M134,116.3a.71.71,0,0,0,.53-.22.74.74,0,0,0,0-1.06l-5.33-5.33a.75.75,0,0,0-1.06,1.06l5.33,5.33A.74.74,0,0,0,134,116.3Z" style="fill:#c52529"/><path d="M128.71,90.83a.75.75,0,0,0,.53-.22l5.33-5.33a.75.75,0,0,0-1.06-1.06l-5.33,5.33a.75.75,0,0,0,0,1.06A.79.79,0,0,0,128.71,90.83Z" style="fill:#c52529"/><path d="M129,100.48a.75.75,0,0,0,.75.75h7.89a.75.75,0,0,0,0-1.5h-7.89A.76.76,0,0,0,129,100.48Z" style="fill:#c52529"/><path d="M31.86,89.91a.75.75,0,0,0,1.06,0,.75.75,0,0,0,0-1.06l-5.7-5.7a.74.74,0,0,0-1.06,0,.75.75,0,0,0,0,1.06Z" style="fill:#c52529"/><path d="M31.86,110.39l-5.7,5.7a.75.75,0,0,0,0,1.06.75.75,0,0,0,1.06,0l5.7-5.7a.75.75,0,0,0-1.06-1.06Z" style="fill:#c52529"/><path d="M22.33,101.14H31.2a.75.75,0,1,0,0-1.5H22.33a.75.75,0,0,0,0,1.5Z" style="fill:#c52529"/><circle cx="79.82" cy="34.88" r="1.48" style="fill:#c52529"/><path d="M71,12.18a.76.76,0,0,0,.75-.75,8.29,8.29,0,0,1,8.61-8.29,8.43,8.43,0,0,1,8,8,8.29,8.29,0,0,1-3.55,7.13,12.72,12.72,0,0,0-5.49,10.4.75.75,0,0,0,1.5,0,11.22,11.22,0,0,1,4.85-9.17A9.8,9.8,0,0,0,80.38,1.64a9.79,9.79,0,0,0-10.17,9.79A.75.75,0,0,0,71,12.18Z" style="fill:#c52529"/></svg>