<svg xmlns="http://www.w3.org/2000/svg" viewBox="0 0 412.32 369.08"><defs><style>.cls-1{fill:#c52529;}.cls-2{fill:#c52329;}</style></defs><g id="Layer_2" data-name="Layer 2"><g id="Layer_3" data-name="Layer 3"><path class="cls-1" d="M218.7,314.14l-4.63,2.06a28.15,28.15,0,0,0-3.67-3.5l1.83-4.77a1,1,0,0,0-.37-1.19,36.86,36.86,0,0,0-7-3.66,34.13,34.13,0,0,0-7.62-1.95,1,1,0,0,0-1.06.63l-1.86,4.74a31.61,31.61,0,0,0-5,.14L187.26,302a1,1,0,0,0-1.1-.58,33.93,33.93,0,0,0-7.79,2.46,1,1,0,0,0-.5,1.32,1,1,0,0,0,1.33.5,31.63,31.63,0,0,1,6.55-2.16l2,4.61a1,1,0,0,0,1.05.59,28.5,28.5,0,0,1,6.11-.17,1,1,0,0,0,1-.64l1.83-4.68a31.31,31.31,0,0,1,6.38,1.71,35.33,35.33,0,0,1,5.91,3l-1.82,4.71a1,1,0,0,0,.33,1.16,26.79,26.79,0,0,1,4.44,4.22,1,1,0,0,0,1.18.28l4.57-2a32.17,32.17,0,0,1,5.34,12.06l-4.64,2h0a1,1,0,0,0-.57,1.06,23.39,23.39,0,0,1,.15,6,1,1,0,0,0,.64,1l4.72,1.81a31.07,31.07,0,0,1-1.77,6.41,30.21,30.21,0,0,1-3,5.89l-4.72-1.82a1,1,0,0,0-1.16.35,24.25,24.25,0,0,1-4.18,4.38,1,1,0,0,0-.28,1.17l2,4.6a31.92,31.92,0,0,1-12.06,5.35l-2-4.6a1,1,0,0,0-1-.58,27,27,0,0,1-6.08.12,1,1,0,0,0-1,.63L187.29,367a28.79,28.79,0,0,1-6.41-1.77,32.34,32.34,0,0,1-5.89-3l1.81-4.72a1,1,0,0,0-.33-1.16,27.09,27.09,0,0,1-4.44-4.19,1,1,0,0,0-1.17-.27l-4.59,2a31.93,31.93,0,0,1-3.18-5.47,1,1,0,1,0-1.82.83,33.65,33.65,0,0,0,3.87,6.48,1,1,0,0,0,1.2.31L171,354a28.66,28.66,0,0,0,3.67,3.47l-1.84,4.77a1,1,0,0,0,.37,1.18,34,34,0,0,0,7,3.66,31,31,0,0,0,7.65,2,1,1,0,0,0,1.06-.63l1.83-4.77a29.25,29.25,0,0,0,5-.1l2.06,4.65a1,1,0,0,0,1.09.58,33.32,33.32,0,0,0,7.76-2.44,34.43,34.43,0,0,0,6.55-3.9,1,1,0,0,0,.31-1.2l-2.06-4.65a25.88,25.88,0,0,0,3.48-3.64l4.76,1.83a1,1,0,0,0,1.18-.37,32.52,32.52,0,0,0,3.65-6.95,33.08,33.08,0,0,0,2-7.64,1,1,0,0,0-.63-1.07l-4.77-1.83a25.32,25.32,0,0,0-.13-5l4.69-2.08h0a1,1,0,0,0,.57-1.1,33.94,33.94,0,0,0-6.34-14.3A1,1,0,0,0,218.7,314.14Z"/><path class="cls-1" d="M336.64,79.91a7.41,7.41,0,1,0,0,10.48A7.37,7.37,0,0,0,336.64,79.91ZM335.23,89a5.42,5.42,0,1,1,0-7.66A5.38,5.38,0,0,1,335.23,89Z"/><path class="cls-1" d="M336.64,165.44a7.41,7.41,0,1,0,0,10.48A7.37,7.37,0,0,0,336.64,165.44Zm-1.41,9.07a5.42,5.42,0,1,1,0-7.66A5.38,5.38,0,0,1,335.23,174.51Z"/><path class="cls-1" d="M142.06,122.67a7.41,7.41,0,1,0,0,10.49A7.43,7.43,0,0,0,142.06,122.67Zm-1.41,9.07a5.41,5.41,0,1,1,0-7.66A5.43,5.43,0,0,1,140.65,131.74Z"/><path class="cls-1" d="M354.92,62.74H296V46.67a1,1,0,0,0-1-1H173.45a1,1,0,0,0-1,1V62.74H113.57a1,1,0,0,0-1,1V219.87a1,1,0,0,0,2,0V150.3h57.88v27.2a1,1,0,0,0,2,0V133.19H294.24v15.55a.91.91,0,0,0,0,1.11v49.46a1,1,0,0,0,2,0v-49h57.68v77.54a1,1,0,0,0,2,0V63.74A1,1,0,0,0,354.92,62.74ZM172.45,132.17V148.3H114.57V107.53h57.88Zm0-42.76v16.12H114.57V64.74h57.88ZM294,131.19H174.45V90.43H294Zm0-42.76H174.45V47.67H294Zm59.88,59.87H296.24V107.53h57.68Zm0-42.77H296.24V64.74h57.68Z"/><path class="cls-1" d="M229,105.54A7.41,7.41,0,1,0,229,116,7.38,7.38,0,0,0,229,105.54Zm-1.42,9.07a5.41,5.41,0,1,1,0-7.66A5.43,5.43,0,0,1,227.62,114.61Z"/><path class="cls-1" d="M203.38,105.54a7.41,7.41,0,1,0,0,10.48A7.38,7.38,0,0,0,203.38,105.54ZM202,114.61a5.41,5.41,0,1,1,0-7.66A5.43,5.43,0,0,1,202,114.61Z"/><path class="cls-1" d="M276.77,148.33a7.41,7.41,0,1,0,0,10.49A7.43,7.43,0,0,0,276.77,148.33Zm-1.41,9.07a5.41,5.41,0,1,1,0-7.66A5.43,5.43,0,0,1,275.36,157.4Z"/><path class="cls-1" d="M251.11,148.33a7.41,7.41,0,1,0,0,10.49A7.42,7.42,0,0,0,251.11,148.33Zm-1.41,9.07a5.41,5.41,0,1,1,0-7.66A5.43,5.43,0,0,1,249.7,157.4Z"/><path class="cls-1" d="M358.16,272.76a13.09,13.09,0,0,1-13.07,13.07H169.7v-2H345.09a11.07,11.07,0,1,0,0-22.14h-3.67a3.53,3.53,0,0,1-3.39-4.43,22.34,22.34,0,0,0,.9-5.94,22.84,22.84,0,0,0-31.78-21,3.5,3.5,0,0,1-4.66-2,25.46,25.46,0,0,0-23.65-16.44,25,25,0,0,0-18.65,8.29,3.51,3.51,0,0,1-6-1.59,45.62,45.62,0,0,0-89.87,4.79,3.53,3.53,0,0,1-2,2.78,3.59,3.59,0,0,1-3.41-.22,22.67,22.67,0,0,0-12.3-3.65A23,23,0,0,0,125,237.76a61.6,61.6,0,0,1,23.07,19.18c.25.32.5.65.74,1s.65.93,1,1.4a63.2,63.2,0,0,0-26.65-22.3,25,25,0,0,1,23.5-16.78,24.65,24.65,0,0,1,13.38,4,1.55,1.55,0,0,0,1.48.09,1.51,1.51,0,0,0,.83-1.19,47.63,47.63,0,0,1,93.81-5,1.52,1.52,0,0,0,1.08,1.12,1.49,1.49,0,0,0,1.5-.43,27,27,0,0,1,20.13-8.95,27.45,27.45,0,0,1,25.52,17.73,1.54,1.54,0,0,0,.82.86,1.51,1.51,0,0,0,1.18,0,24.85,24.85,0,0,1,34.57,22.86,24.07,24.07,0,0,1-1,6.46,1.54,1.54,0,0,0,.26,1.31,1.51,1.51,0,0,0,1.2.6h3.67A13.09,13.09,0,0,1,358.16,272.76Z"/><path class="cls-1" d="M167.89,317.17c-10.12,30.83-39.5,50.54-71.06,50.54a76,76,0,0,1-22.64-3.45,74.62,74.62,0,0,1-37.92-26.92l-.25,9.4a1,1,0,0,1-1,1h0a1,1,0,0,1-1-1l.35-13.12v0a.76.76,0,0,1,0-.21.86.86,0,0,1,.07-.21l0-.05a.9.9,0,0,1,.14-.2,1.2,1.2,0,0,1,.21-.17,1.22,1.22,0,0,1,.24-.1.84.84,0,0,1,.27,0h0a.7.7,0,0,1,.25.05.45.45,0,0,1,.18.07h0l11.92,6.17a1,1,0,0,1-.46,1.89,1,1,0,0,1-.46-.12l-9.12-4.72a72.53,72.53,0,0,0,37.07,26.44c38.11,11.87,79-8.68,91.21-45.8a68.63,68.63,0,0,0-10.07-62.62l1.62-1.18A70.62,70.62,0,0,1,167.89,317.17Z"/><path class="cls-2" d="M120.2,316.42a1.72,1.72,0,0,1-2.38,0L99.46,298.05a4.22,4.22,0,1,1-3.11-7.84V272.85a1.68,1.68,0,0,1,3.36,0v17.49a4.1,4.1,0,0,1,2.12,5.34L120.2,314A1.7,1.7,0,0,1,120.2,316.42Z"/><path class="cls-2" d="M26.25,269.53l-.09.31A1.72,1.72,0,0,0,27.33,272a1.69,1.69,0,0,0,2.13-1.17l.11-.36a1.73,1.73,0,0,0-1.2-2.12l-.1,0A1.72,1.72,0,0,0,26.25,269.53Z"/><path class="cls-2" d="M26.54,291.31a1.73,1.73,0,0,0-1.36-1.69,1.47,1.47,0,0,0-.36,0,1.72,1.72,0,0,0-1.73,1.71v.37a1.59,1.59,0,0,0,1.73,1.55A1.89,1.89,0,0,0,26.54,291.31Z"/><path class="cls-2" d="M29.49,312.14a1.74,1.74,0,0,0-1.29-1.2,1.64,1.64,0,0,0-.85,0,1.72,1.72,0,0,0-1.17,2.14l.1.33a1.73,1.73,0,0,0,3.31-1Z"/><path class="cls-2" d="M27.26,301.82a1.72,1.72,0,0,0-1.34-1.43,1.61,1.61,0,0,0-.62,0,1.72,1.72,0,0,0-1.45,1.95l0,.35a1.72,1.72,0,0,0,3.41-.51Z"/><path class="cls-2" d="M33.17,322A1.72,1.72,0,1,0,30,323.47l.15.31a1.72,1.72,0,1,0,3.13-1.44Z"/><path class="cls-2" d="M27.31,280.78A1.73,1.73,0,0,0,26,278.85l-.12,0a1.72,1.72,0,0,0-2,1.46l0,.35a1.61,1.61,0,0,0,1.49,1.78A1.88,1.88,0,0,0,27.31,280.78Z"/><path class="cls-1" d="M114.57,83.91H90.1a10.6,10.6,0,1,1,0-21.2h2.54a1,1,0,0,0,.87-.5,1,1,0,0,0,0-1,19.57,19.57,0,0,1-2.73-9.89,19.91,19.91,0,0,1,30.72-16.77,1,1,0,0,0,1.53-.73,38.09,38.09,0,0,1,75-4,1,1,0,0,0,.71.74,1,1,0,0,0,1-.28,21.71,21.71,0,0,1,16.16-7.19,22,22,0,0,1,20.5,14.24,1.06,1.06,0,0,0,.54.56,1,1,0,0,0,.79,0,19.7,19.7,0,0,1,7.81-1.6,19.93,19.93,0,0,1,16.54,8.82c0,.06,0,.06.16.11a2,2,0,0,1,1.09,1l.76,1.46H174.45v-2H260a17.91,17.91,0,0,0-14.49-7.38,17.69,17.69,0,0,0-7,1.44,2.94,2.94,0,0,1-2.36,0A3,3,0,0,1,234.53,38a20,20,0,0,0-18.63-13,19.72,19.72,0,0,0-14.68,6.54,3,3,0,0,1-5.12-1.37A36.09,36.09,0,0,0,125,34a3,3,0,0,1-1.7,2.37,2.94,2.94,0,0,1-2.9-.19A17.91,17.91,0,0,0,92.77,51.31a17.57,17.57,0,0,0,2.47,8.9,3.06,3.06,0,0,1,0,3,3,3,0,0,1-2.6,1.51H90.1a8.6,8.6,0,0,0,0,17.2h22.47V62.74h59.88v2H114.57Z"/><path class="cls-1" d="M149.85,259.45l-.07-.1a63.2,63.2,0,0,0-26.65-22.3,62.89,62.89,0,1,0,26.72,22.4ZM97.73,355.34h-.07v-10.6a1,1,0,0,0-2,0V355.3a60.89,60.89,0,0,1-58.75-60.79v-.18a1,1,0,0,0,.71.34l11.1.41h0a1,1,0,0,0,1-1,1,1,0,0,0-1-1l-11.1-.41a1,1,0,0,0-.76.33,60.88,60.88,0,0,1,58.73-59.28v10.71a1,1,0,0,0,2,0V233.68h.07a60.8,60.8,0,0,1,50.15,26.44l.28.41a60.42,60.42,0,0,1,9.78,25.3,59.44,59.44,0,0,1,.6,7.11.86.86,0,0,0-.36-.07h-11.1a1,1,0,0,0,0,2h11.1a.92.92,0,0,0,.38-.08A60.9,60.9,0,0,1,97.73,355.34Z"/><path class="cls-1" d="M66.32,202.15a17.42,17.42,0,1,0-33.56,9.33A17.24,17.24,0,0,0,40.92,222l.17.09a17.29,17.29,0,0,0,13.08,1.54A17.49,17.49,0,0,0,66.32,202.15ZM53.73,222h0a15.71,15.71,0,0,1-19.38-11,15.77,15.77,0,1,1,19.38,11Z"/><path class="cls-1" d="M75.05,173.91l2.87-7.47a.82.82,0,0,0-.3-1,49.46,49.46,0,0,0-21.24-8.15.85.85,0,0,0-.89.52l-2.86,7.47a39.65,39.65,0,0,0-8.3.18l-3.27-7.34a.83.83,0,0,0-.91-.47,49.68,49.68,0,0,0-10.93,3.43A48,48,0,0,0,19.35,167a.84.84,0,0,0-.25,1l3.23,7.31a43.83,43.83,0,0,0-5.66,6L9.2,178.37h0a.83.83,0,0,0-1,.31A49.33,49.33,0,0,0,0,199.93a.82.82,0,0,0,.52.88L8,203.68A41,41,0,0,0,8.24,212L.91,215.23a.83.83,0,0,0-.47.91,49.52,49.52,0,0,0,3.42,10.93A44.93,44.93,0,0,0,9.7,237a.82.82,0,0,0,1,.25L18,234a40.23,40.23,0,0,0,5.95,5.7l-2.87,7.47a.84.84,0,0,0,.31,1,48.94,48.94,0,0,0,9.92,5.23h0a.82.82,0,0,0,.59-1.54,47.06,47.06,0,0,1-9-4.69l2.85-7.44a.8.8,0,0,0-.27-1,38.88,38.88,0,0,1-6.57-6.29.82.82,0,0,0-1-.23l-7.31,3.26a43.68,43.68,0,0,1-5.24-9.06,48.4,48.4,0,0,1-3.19-9.94l7.3-3.25a.82.82,0,0,0,.48-.88,39.41,39.41,0,0,1-.26-9.13.85.85,0,0,0-.53-.85l-7.44-2.85a47.85,47.85,0,0,1,7.49-19.37L16.65,183a.85.85,0,0,0,1-.27,42.16,42.16,0,0,1,6.27-6.6.83.83,0,0,0,.22-1l-3.22-7.27a45.55,45.55,0,0,1,9-5.27,47.88,47.88,0,0,1,9.93-3.19l3.25,7.3a.85.85,0,0,0,.88.48,37.73,37.73,0,0,1,9.14-.2.83.83,0,0,0,.85-.53L56.8,159a47.81,47.81,0,0,1,19.35,7.42l-2.86,7.43a.83.83,0,0,0,.28,1,43.35,43.35,0,0,1,6.66,6.29.83.83,0,0,0,1,.21l7.27-3.2a46.74,46.74,0,0,1,5.27,9,50.82,50.82,0,0,1,3.18,9.94l-7.29,3.26a.83.83,0,0,0-.48.87,40,40,0,0,1,.24,9.19.82.82,0,0,0,.53.83l7.39,2.83c-.2,1.3-.44,2.54-.71,3.72a.82.82,0,1,0,1.6.38c.34-1.42.62-2.94.84-4.52a.83.83,0,0,0-.52-.88l-7.43-2.85a41.71,41.71,0,0,0-.22-8.32l7.33-3.27a.83.83,0,0,0,.47-.91,52.63,52.63,0,0,0-3.42-10.94,48.54,48.54,0,0,0-5.86-9.85.82.82,0,0,0-1-.25l-7.31,3.22A43.66,43.66,0,0,0,75.05,173.91Z"/><path class="cls-1" d="M409.45,272.59a9.82,9.82,0,0,0-16.72,5.92H378.38a1,1,0,0,0,0,2h14.34a9.83,9.83,0,1,0,16.73-7.92ZM408,285.08A7.84,7.84,0,1,1,408,274,7.85,7.85,0,0,1,408,285.08Z"/><path class="cls-1" d="M333.88,296.44a1,1,0,0,0-1,1V349.3a9.85,9.85,0,1,0,2,0V297.44A1,1,0,0,0,333.88,296.44Zm5.53,57.1a7.83,7.83,0,1,1-5.53-2.29A7.77,7.77,0,0,1,339.41,353.54Z"/><path class="cls-1" d="M368.67,264.79h10.91a1,1,0,0,0,1-1V240.86a9.85,9.85,0,1,0-2,0v21.93h-9.91a1,1,0,0,0,0,2ZM374,236.63a7.83,7.83,0,1,1,11.08,0,7.77,7.77,0,0,1-5,2.26.87.87,0,0,0-1.06,0A7.77,7.77,0,0,1,374,236.63Z"/><path class="cls-1" d="M38.74,86.19a7.05,7.05,0,0,0,12-4.29H61a.72.72,0,1,0,0-1.44H50.74a7.05,7.05,0,1,0-12,5.73Zm1-9a5.62,5.62,0,1,1,0,8A5.62,5.62,0,0,1,39.75,77.23Z"/><path class="cls-1" d="M92.27,94.05v37.22a7,7,0,0,0-4.27,2,7.05,7.05,0,0,0,10,10,7.06,7.06,0,0,0-4.27-12V94.05a.72.72,0,1,0-1.43,0ZM93,132.67a5.6,5.6,0,0,1,5.62,5.62,5.62,5.62,0,1,1-9.59-4A5.64,5.64,0,0,1,93,132.67Z"/><path class="cls-1" d="M68.73,69.9a.72.72,0,0,0-.72-.72H60.9V53.44a7.06,7.06,0,1,0-1.44,0V69.9a.72.72,0,0,0,.72.72H68A.72.72,0,0,0,68.73,69.9ZM60.56,52a.71.71,0,0,0-.38-.12.69.69,0,0,0-.38.12,5.62,5.62,0,1,1,4.35-9.57A5.61,5.61,0,0,1,60.56,52Z"/><path class="cls-1" d="M192.37,346.32a11.77,11.77,0,1,1,11.77-11.77A11.78,11.78,0,0,1,192.37,346.32Zm0-21.53a9.77,9.77,0,1,0,9.77,9.76A9.77,9.77,0,0,0,192.37,324.79Z"/></g></g></svg>