<svg id="Layer_1" data-name="Layer 1" xmlns="http://www.w3.org/2000/svg" viewBox="0 0 512 640"><title>welcome-create-password</title><path d="M392.2,87.75c-2.5.76-5.2,1.53-8.26,2.37-1.9.52-3.82,1-5.74,1.53-5.77,1.51-11.6,2.89-17.41,4.15a493.85,493.85,0,0,1-104.79,11q-23.73,0-46.71-2.1h0q-23.31-2.1-45.73-6.34a439.13,439.13,0,0,1-43.73-10.57l-.07,0c-7.44-2.21-14.78-4.62-21.82-7.17-4.38-1.58-8.7-3.23-12.84-4.91A315.93,315.93,0,0,1,37,51.54a233,233,0,0,1-37-28v2.73A236.74,236.74,0,0,0,35.53,53L44,139.91a1,1,0,0,0,.57.81,1.07,1.07,0,0,0,.43.09,1,1,0,0,0,.56-.17l73.37-50.32,22.59,81.08a1,1,0,0,0,.7.69.78.78,0,0,0,.26,0,1,1,0,0,0,.7-.29l65.88-64.57,46.08,78a1,1,0,0,0,1.72,0l46.09-78L344.47,148v0l16.91,16.57,7.44,7.29a1,1,0,0,0,.7.29.75.75,0,0,0,.26,0,1,1,0,0,0,.71-.69l8.15-29.27,6.5-23.32v0l7.93-28.47,73.37,50.32a1.06,1.06,0,0,0,.57.17,1,1,0,0,0,.42-.09,1,1,0,0,0,.57-.81l8.48-87A239,239,0,0,0,512,26.24V23.53C482.89,50.74,441.16,73.21,392.2,87.75ZM85,77.79l.49.19c1.71.69,3.43,1.37,5.19,2s3.59,1.35,5.4,2l.42.15A6.33,6.33,0,1,1,85,77.79ZM44,118.77a6.33,6.33,0,0,1,1.22,12.52Zm45-10.28-4,2.72A6.34,6.34,0,0,1,95.39,104ZM97,102.91a8.34,8.34,0,0,0-13.75,9.43L45.83,138l-.47-4.75a8.33,8.33,0,0,0-1.55-16.51h-.06l-6.09-62.5A318.66,318.66,0,0,0,83.16,77a8.21,8.21,0,0,0-1.24,4.35,8.33,8.33,0,0,0,16.52,1.49c6.09,2.19,12.4,4.27,18.8,6.2Zm46,66.32L121,90.16A460.4,460.4,0,0,0,207,106.46Zm113,13.58-9.51-16.09h19Zm10.69-18.09H245.31L234,145.54h44Zm12.51-21.18H232.81l-11.33-19.17h69Zm12.51-21.17H220.3l-9.17-15.52q22.08,1.91,44.87,1.92c15.13,0,30.12-.66,44.89-2Zm73.66-25.54,1.88-.43c3.76-.87,7.52-1.79,11.25-2.76l1.93-.51,3.19-.85a11.15,11.15,0,1,1-21.54,5.28C363.17,97.33,364.27,97.07,365.37,96.83Zm-3.17,65.71-15.73-15.42a11.16,11.16,0,1,1,15.73,15.42ZM377,140.68a11.15,11.15,0,0,1,2.91-21.91,11.37,11.37,0,0,1,3.07.42Zm6.52-23.41a13.33,13.33,0,0,0-3.61-.5,13.14,13.14,0,0,0-3.45,25.83L369,169.23l-5.39-5.29A13.14,13.14,0,1,0,345,145.72L305,106.45A478.83,478.83,0,0,0,360.12,98a13.15,13.15,0,0,0,26.17-1.88,13,13,0,0,0-.75-4.35q2.94-.81,5.5-1.57ZM466.19,138l-71.42-49c29.59-9,56.51-20.8,79.58-34.84Z" style="fill:#c52529"/><path d="M322.06,241.59a.2.2,0,0,0,.38,0,4.2,4.2,0,0,1,2.75-2.75.2.2,0,0,0,0-.38,4.2,4.2,0,0,1-2.75-2.75.2.2,0,0,0-.38,0,4.2,4.2,0,0,1-2.75,2.75.2.2,0,0,0,0,.38A4.2,4.2,0,0,1,322.06,241.59Z" style="fill:#c52529"/><path d="M396.56,473.81a8.42,8.42,0,0,1-5.51-5.52.39.39,0,0,0-.75,0,8.42,8.42,0,0,1-5.51,5.52.38.38,0,0,0,0,.75,8.43,8.43,0,0,1,5.51,5.51.38.38,0,0,0,.75,0,8.43,8.43,0,0,1,5.51-5.51A.38.38,0,0,0,396.56,473.81Z" style="fill:#c52529"/><path d="M343.9,258.13a11.39,11.39,0,0,1-11.37-11.38,1,1,0,0,0-2,0,11.39,11.39,0,0,1-11.37,11.38,1,1,0,1,0,0,2,11.38,11.38,0,0,1,11.37,11.37,1,1,0,0,0,2,0,11.38,11.38,0,0,1,11.37-11.37,1,1,0,0,0,0-2Zm-12.37,8.29a13.41,13.41,0,0,0-7.3-7.29,13.45,13.45,0,0,0,7.3-7.31,13.45,13.45,0,0,0,7.3,7.31A13.41,13.41,0,0,0,331.53,266.42Z" style="fill:#c52529"/><path d="M436.51,389.46a11.39,11.39,0,0,1-11.37-11.38,1,1,0,0,0-2,0,11.38,11.38,0,0,1-11.36,11.38,1,1,0,0,0,0,2,11.38,11.38,0,0,1,11.36,11.37,1,1,0,1,0,2,0,11.39,11.39,0,0,1,11.37-11.37,1,1,0,0,0,0-2Zm-12.37,8.3a13.41,13.41,0,0,0-7.29-7.3,13.41,13.41,0,0,0,7.29-7.3,13.46,13.46,0,0,0,7.3,7.3A13.46,13.46,0,0,0,424.14,397.76Z" style="fill:#c52529"/><path d="M393.62,277.39l-6.61-6.6a1,1,0,0,0-1.41,0c-2.79,2.79-5.69,2.7-8.76,2.6s-6.83-.22-10.23,3.19-3.29,7-3.19,10.23.19,6-2.6,8.76-5.69,2.7-8.76,2.6-6.83-.22-10.23,3.19a1,1,0,0,0,0,1.41l6.6,6.6a1,1,0,0,0,.71.3,1,1,0,0,0,.7-.3c2.8-2.79,5.7-2.69,8.76-2.6s6.83.22,10.24-3.18,3.29-7,3.18-10.24-.19-6,2.6-8.76,5.69-2.69,8.76-2.6,6.83.22,10.24-3.18A1,1,0,0,0,393.62,277.39ZM383.45,280c-3.21-.1-6.84-.21-10.24,3.19s-3.29,7-3.19,10.24c.1,3.06.19,6-2.6,8.75s-5.69,2.7-8.75,2.6-6.32-.2-9.5,2.51L344,302.1c2.56-2.1,5.22-2,8-1.93,3.2.1,6.83.22,10.23-3.19s3.29-7,3.19-10.23-.19-6,2.6-8.76,5.69-2.7,8.76-2.6,6.31.2,9.5-2.51l5.18,5.19C388.9,280.17,386.24,280.08,383.45,280Z" style="fill:#c52529"/><path d="M340.58,446.48c5.51-20.06,4.84-51.32-1.83-83.84C333.42,336.7,325,313,314.91,295.92c-10.22-17.38-21-25.9-30.23-24-4.7,1-8.68,4.49-11.84,10.48C235.55,326,194,340.9,178.37,345.2a1,1,0,0,0,.12-.71,1,1,0,0,0-1.18-.78l-42,8.64c-20.64,4.23-35.08,22.7-36.67,44.3a1,1,0,0,0-.68-.12A12.78,12.78,0,0,0,88,411.59l1,4.85A12.71,12.71,0,0,0,104,426.36a.94.94,0,0,0,.57-.35,51.79,51.79,0,0,0,15.65,18.27A45.53,45.53,0,0,0,147,453.16c1.28,0,2.57-.07,3.85-.18l15,33.5c-4.62,4.9-9.85,13.73-10.46,21.63-1.06,13.49-6.51,22-13.41,32.8q-1.5,2.34-3.07,4.84l-4.47-4.24a1,1,0,0,0-.71-.27,1,1,0,0,0-.7.31l-15.5,16.35a1,1,0,0,0,0,1.41l2.64,2.5L46.06,640h2.76l72.84-76.81,55.16,52.3L153.58,640h2.76l21.93-23.13,2.54,2.41a1,1,0,0,0,.69.28,1,1,0,0,0,.73-.32l15.5-16.34a1,1,0,0,0,0-1.42l-3.5-3.32a297.87,297.87,0,0,0,45-38.79l12.52-13.2c4.25-4.48,4.44-11.58.41-15.82a11.11,11.11,0,0,0-8.13-3.5h0a11.11,11.11,0,0,0-2.31.24c3.44-4.13,3.81-10.09.78-14.16a11.23,11.23,0,0,0-8.36-4.55,10.74,10.74,0,0,0-3,.22c3.74-4.5,3.74-11.18-.11-15.24a11.11,11.11,0,0,0-8.13-3.5,11.35,11.35,0,0,0-2.87.37,11.48,11.48,0,0,0-1.29-13.55,11.15,11.15,0,0,0-16.25,0L196,483.45l-16.21-36.11,18.07-3.7h0a1,1,0,0,0,.39-1.78c16.08-2.21,60.14-4.89,111.59,20.52,4.3,3.47,8.45,5.23,12.37,5.23a12.73,12.73,0,0,0,2.62-.27,14.79,14.79,0,0,0,7.94-4.81c5.92,7,10.29,17.55,6.28,32.53a1,1,0,0,0,1,1.26,1,1,0,0,0,.41-.09l15.29-6.91a1,1,0,0,0,.56-.65C362.34,465.88,349.62,452.7,340.58,446.48ZM103.64,424.4A10.75,10.75,0,0,1,90.94,416l-1-4.84a10.77,10.77,0,0,1,8.37-12.7.58.58,0,0,0,.18-.08,55.6,55.6,0,0,0,5.32,26C103.76,424.41,103.7,424.39,103.64,424.4Zm92,177.85-14.13,14.89-61.78-58.59,14.12-14.9ZM196.31,486a.63.63,0,0,0,.11-.12l7.43-7.8a9.1,9.1,0,0,1,6.67-2.87,9.32,9.32,0,0,1,3.64.74,9.21,9.21,0,0,1,3,2.13c3.31,3.49,3.13,9.35-.4,13.07l-2.11,2.23h0l-10.36,10.93a1,1,0,0,0,0,1.41,1,1,0,0,0,.69.28,1,1,0,0,0,.72-.31l10.36-10.93h0a9.1,9.1,0,0,1,6.67-2.87,9.27,9.27,0,0,1,3.63.74,9.18,9.18,0,0,1,3.05,2.14c3.3,3.48,3.12,9.35-.41,13.07l-3.83,4L217,520.54a1,1,0,0,0,.73,1.69,1,1,0,0,0,.73-.31l8.24-8.69a9.18,9.18,0,0,1,7.23-2.86,9.29,9.29,0,0,1,6.88,3.75c2.6,3.5,2.11,8.74-1.16,12.18l-3.83,4-6.13,6.47a1,1,0,0,0,0,1.41,1,1,0,0,0,.68.28,1,1,0,0,0,.73-.31l6.13-6.47a9.36,9.36,0,0,1,3-2.13,9.1,9.1,0,0,1,3.63-.74h0a9.12,9.12,0,0,1,6.68,2.88c3.3,3.48,3.12,9.34-.41,13.07L237.7,558a296.36,296.36,0,0,1-45,38.76L140.4,547.15q1.68-2.67,3.27-5.16c7.06-11,12.63-19.74,13.72-33.72.55-7.11,5.12-15.06,9.36-19.8l7.83,17.46-1.49,1.57a1,1,0,1,0,1.45,1.37l1.8-1.89a.86.86,0,0,0,.29-.31Zm-1.85-1-18.39,19.34-23.15-51.62c1-.13,1.91-.28,2.86-.48l21.95-4.5ZM155.38,450.3a42.79,42.79,0,0,1-33.95-7.65,51,51,0,0,1-19.89-31.31c-5.43-26.47,9.88-52.06,34.13-57l37-7.6c-6.19,7.49-7.57,27.53-2.84,50.61s13.91,40.95,22.54,45.39ZM193,440.67a.84.84,0,0,0-.14.06c-7.77-4.39-16.62-22.19-21.06-43.82s-3.32-41.45,2.08-48.56l.17,0c9.3-2.05,54.69-14.05,96.18-59.95-5,14-6.39,35.56-3.8,60.62a1,1,0,0,0-.11.91,1,1,0,0,0,.25.35c.91,8.55,2.3,17.4,4.13,26.34s4,17.56,6.57,25.84a1.07,1.07,0,0,0-.08.41,1,1,0,0,0,.45.8c7.5,24.07,17.27,43.33,27.39,54.24C248.83,432,202.38,438.89,193,440.67Zm75.57-90.54a25.48,25.48,0,0,1,3.68-1.07A26.66,26.66,0,1,1,283,401.3a25.59,25.59,0,0,1-3.81.47c-2.51-8.19-4.7-16.78-6.5-25.57S269.49,358.59,268.59,350.13Zm55.8,115.24a11.39,11.39,0,0,1-4.65,0l-.1-.09q-4.41-2.42-8.75-4.57c-11.15-9.12-22.73-30.33-31.1-56.92a28.85,28.85,0,0,0,3.6-.49,28.66,28.66,0,0,0-11.52-56.16,27.84,27.84,0,0,0-3.5,1c-2.78-27.7-.51-51.73,6.13-64.52,2.1-2.47,4.19-5,6.27-7.68a1.17,1.17,0,0,0,.05-.11,11.53,11.53,0,0,1,4.26-1.87c8.26-1.7,18.5,6.71,28.11,23.06,9.93,16.89,18.32,40.37,23.6,66.1,6.54,31.89,7.28,62.49,2,82.29a39.84,39.84,0,0,0-6.24-3.27,1,1,0,0,0-.76,0L316.52,449a1,1,0,0,0,.06,1.85A43.52,43.52,0,0,1,331.39,461,13,13,0,0,1,324.39,465.37Zm30,22.31-13,5.87c3.39-15.05-1.56-25.72-7.84-32.84a1,1,0,0,0-.28-.41,1.09,1.09,0,0,0-.15-.08,47.77,47.77,0,0,0-13.81-10.32l12.89-5.82a41.09,41.09,0,0,1,6.47,3.45.93.93,0,0,0,.45.29c7.06,4.67,16.68,13.84,16.68,29.18A42.41,42.41,0,0,1,354.42,487.68Z" style="fill:#c52529"/><path d="M279.18,213.92a1,1,0,0,0-.77,0l-11.34,5.12a1,1,0,0,0-.59.94,1,1,0,0,0,.65.91c.93.35,22.78,9,16.48,32.48a1,1,0,0,0,.32,1,1,1,0,0,0,.64.23,1,1,0,0,0,.42-.08l11.34-5.13a1,1,0,0,0,.55-.65C303.65,223.5,279.42,214,279.18,213.92Zm15.89,33.89L286,251.9c4.1-19.49-10.58-29-16.14-31.9l9-4.06C281.88,217.21,300.62,226,295.07,247.81Z" style="fill:#c52529"/><path d="M379.2,339.2a12.48,12.48,0,1,0,12.48,12.48A12.5,12.5,0,0,0,379.2,339.2Zm0,22.95a10.48,10.48,0,1,1,10.48-10.47A10.49,10.49,0,0,1,379.2,362.15Z" style="fill:#c52529"/><path d="M341.63,104.62a13.15,13.15,0,1,0,13.16,13.15A13.17,13.17,0,0,0,341.63,104.62Zm0,24.3a11.15,11.15,0,1,1,11.16-11.15A11.17,11.17,0,0,1,341.63,128.92Z" style="fill:#c52529"/><circle cx="411.77" cy="284.2" r="3" style="fill:#c52529"/><circle cx="325.34" cy="480.37" r="3" style="fill:#c52529"/><path d="M297.08,483.86a11.06,11.06,0,1,0,11.06,11.05A11.07,11.07,0,0,0,297.08,483.86Zm0,20.11a9.06,9.06,0,1,1,9.06-9.06A9.07,9.07,0,0,1,297.08,504Z" style="fill:#c52529"/><path d="M406.91,426.66a1,1,0,0,0-.54-.55l-36.84-15.44a1,1,0,0,0-1.3.54l-5.3,12.62a1,1,0,0,0,0,.77,1,1,0,0,0,.54.54l36.84,15.44a.87.87,0,0,0,.38.08,1,1,0,0,0,.93-.61l5.29-12.63A1,1,0,0,0,406.91,426.66Zm-6.75,11.69-35-14.67,4.52-10.78,35,14.67Z" style="fill:#c52529"/><path d="M455.84,306,450,293.56a1,1,0,0,0-.56-.51,1,1,0,0,0-.77,0l-36.16,17a1,1,0,0,0-.51.56,1,1,0,0,0,0,.77l5.82,12.39a1,1,0,0,0,.9.58,1,1,0,0,0,.43-.1l36.16-17A1,1,0,0,0,455.84,306ZM419.25,322l-5-10.59,34.35-16.11,5,10.58Z" style="fill:#c52529"/><path d="M64.72,95.87a8.34,8.34,0,1,0,8.33,8.33A8.35,8.35,0,0,0,64.72,95.87Zm0,14.67a6.34,6.34,0,1,1,6.33-6.34A6.34,6.34,0,0,1,64.72,110.54Z" style="fill:#c52529"/><path d="M51.15,69.2a8.34,8.34,0,1,0,8.34,8.34A8.35,8.35,0,0,0,51.15,69.2Zm0,14.68a6.34,6.34,0,1,1,6.34-6.34A6.35,6.35,0,0,1,51.15,83.88Z" style="fill:#c52529"/></svg>