<svg id="Layer_1" data-name="Layer 1" xmlns="http://www.w3.org/2000/svg" viewBox="0 0 80 80"><path d="M71.21,48.55,31.45,8.79a.5.5,0,0,0-.7,0L27.57,12a.5.5,0,0,0,0,.71,2.44,2.44,0,0,1,0,3.44,2.5,2.5,0,0,1-3.45,0,.5.5,0,0,0-.7,0L13.9,25.64a.47.47,0,0,0-.15.35.49.49,0,0,0,.15.36l8.85,8.85a.51.51,0,0,0,.71,0l4-4a.9.9,0,0,1,1.22,0,.86.86,0,0,1,0,1.22l-4,4a.5.5,0,0,0,0,.71l3.07,3.07,0,0s0,0,0,0a.51.51,0,0,0,.7,0l.9-.9a.5.5,0,0,0,0-.71.51.51,0,0,0-.71,0l-.54.55-2.4-2.4,3.61-3.61a1.88,1.88,0,0,0,0-2.64,1.93,1.93,0,0,0-2.64,0L23.1,34.14l-2.21-2.22,3.79-3.79a.5.5,0,0,0,0-.71.5.5,0,0,0-.7,0l-3.8,3.8L17.9,28.94l3.8-3.8a.5.5,0,0,0,0-.7.5.5,0,0,0-.71,0L17.2,28.23,15,26l8.84-8.83a3.43,3.43,0,0,0,4.8-4.81l2.5-2.5L70.15,48.9l-2.5,2.5a3.4,3.4,0,0,0-2-.68h0a3.45,3.45,0,0,0-2.76,5.49L54,65l-2.28-2.28L55.52,59a.5.5,0,0,0,0-.71.5.5,0,0,0-.7,0L51,62.06,48.46,59.5l3.79-3.8a.5.5,0,0,0,0-.71.5.5,0,0,0-.7,0l-3.8,3.8-2.56-2.56,3.8-3.8a.5.5,0,0,0-.71-.71l-3.8,3.8L41.92,53l3.8-3.8a.5.5,0,0,0,0-.7.5.5,0,0,0-.71,0l-3.8,3.79L39.8,50.84a.5.5,0,0,0-.71,0,.5.5,0,0,0,0,.7L53.65,66.1a.51.51,0,0,0,.36.15.5.5,0,0,0,.35-.15l9.52-9.52a.51.51,0,0,0,0-.7,2.44,2.44,0,0,1,3.44-3.45.5.5,0,0,0,.71,0l3.18-3.18A.5.5,0,0,0,71.21,48.55Z" style="fill:#c42229"/><path d="M53.29,46.9l4.5,4.5a.47.47,0,0,0,.35.15.49.49,0,0,0,.36-.15l5.09-5.09a.51.51,0,0,0,0-.7l-4.5-4.5a.5.5,0,0,0-.71,0L53.29,46.2A.5.5,0,0,0,53.29,46.9Zm5.44-4.73L62.53,46l-4.39,4.38-3.79-3.79Z" style="fill:#c42229"/><path d="M34.39,16.41a.5.5,0,0,0-.7,0L28.6,21.5a.5.5,0,0,0,0,.71l4.5,4.5a.48.48,0,0,0,.7,0l5.09-5.09a.47.47,0,0,0,.15-.35.49.49,0,0,0-.15-.36Zm-.94,9.24-3.79-3.79L34,17.47l3.79,3.8Z" style="fill:#c42229"/><path d="M42.8,24.82a.5.5,0,0,0-.7,0L37,29.91a.49.49,0,0,0-.15.36.47.47,0,0,0,.15.35l4.5,4.5a.48.48,0,0,0,.7,0L47.3,30a.5.5,0,0,0,0-.71Zm-.94,9.24-3.79-3.79,4.38-4.39,3.79,3.8Z" style="fill:#c42229"/><path d="M50.68,32.7a.49.49,0,0,0-.36-.15.47.47,0,0,0-.35.15l-5.09,5.09a.48.48,0,0,0,0,.7l4.5,4.5a.5.5,0,0,0,.35.15.51.51,0,0,0,.36-.15l5.09-5.09a.5.5,0,0,0,0-.7Zm-1,9.23-3.79-3.79,4.38-4.38,3.8,3.79Z" style="fill:#c42229"/><path d="M35.21,38.65,33.87,40a.51.51,0,0,0,0,.71.5.5,0,0,0,.35.15.51.51,0,0,0,.36-.15l1.33-1.33a.5.5,0,0,0,0-.71A.5.5,0,0,0,35.21,38.65Z" style="fill:#c42229"/><path d="M38.47,41.92l-.58.58a.51.51,0,0,0,0,.71.54.54,0,0,0,.36.14.52.52,0,0,0,.35-.14l.58-.58a.5.5,0,0,0-.71-.71Z" style="fill:#c42229"/><path d="M41.74,45.19l-1.43,1.42a.51.51,0,0,0,0,.71.51.51,0,0,0,.36.15.49.49,0,0,0,.35-.15l1.43-1.43a.5.5,0,0,0,0-.7A.5.5,0,0,0,41.74,45.19Z" style="fill:#c42229"/><path d="M30.92,48.58H18.54a.5.5,0,0,0-.5.5V61.46a.5.5,0,0,0,.5.5H30.92a.5.5,0,0,0,.5-.5V49.08A.5.5,0,0,0,30.92,48.58ZM30.42,61H19V49.58H30.42Z" style="fill:#c42229"/><path d="M40.31,55.77a.5.5,0,0,0,.5-.5.5.5,0,0,0-.5-.5H36.64V49.58h3.67a.5.5,0,0,0,0-1H36.64V43.86a.51.51,0,0,0-.5-.5H31.42V39.69a.5.5,0,0,0-1,0v3.67H25.23V39.69a.5.5,0,0,0-1,0v3.67H19V39.69a.5.5,0,0,0-.5-.5.5.5,0,0,0-.5.5v3.67H13.32a.5.5,0,0,0-.5.5v4.72H9.15a.5.5,0,1,0,0,1h3.67v5.19H9.15a.5.5,0,0,0-.5.5.5.5,0,0,0,.5.5h3.67V61H9.15a.5.5,0,0,0-.5.5.5.5,0,0,0,.5.5h3.67v4.72a.5.5,0,0,0,.5.5H18v3.67a.5.5,0,0,0,.5.5.5.5,0,0,0,.5-.5V67.18h5.19v3.67a.5.5,0,0,0,1,0V67.18h5.19v3.67a.5.5,0,0,0,1,0V67.18h4.72a.5.5,0,0,0,.5-.5V62h3.67a.5.5,0,0,0,.5-.5.5.5,0,0,0-.5-.5H36.64V55.77ZM35.64,66.18H13.82V44.36H35.64Z" style="fill:#c42229"/></svg>