<svg id="Layer_1" data-name="Layer 1" xmlns="http://www.w3.org/2000/svg" viewBox="0 0 80 80"><path d="M20.11,38.29V41a.5.5,0,0,0,.5.5.5.5,0,0,0,.5-.5V38.29h3.72V41a.5.5,0,0,0,1,0V38.29H29.3a.5.5,0,0,0,.5-.5V34.32h2.68a.5.5,0,0,0,.5-.5.51.51,0,0,0-.5-.5H29.8V29.61h2.68a.51.51,0,0,0,.5-.5.5.5,0,0,0-.5-.5H29.8V24.89h2.68a.5.5,0,0,0,.5-.5.51.51,0,0,0-.5-.5H29.8V20.42a.5.5,0,0,0-.5-.5H25.83V17.25a.5.5,0,0,0-1,0v2.67H21.11V17.25a.5.5,0,0,0-.5-.5.5.5,0,0,0-.5.5v2.67H16.4V17.25a.5.5,0,0,0-1,0v2.67H11.93a.5.5,0,0,0-.5.5v3.47H8.75a.51.51,0,0,0-.5.5.5.5,0,0,0,.5.5h2.68v3.72H8.75a.5.5,0,0,0-.5.5.51.51,0,0,0,.5.5h2.68v3.71H8.75a.51.51,0,0,0-.5.5.5.5,0,0,0,.5.5h2.68v3.47a.5.5,0,0,0,.5.5H15.4V41a.5.5,0,0,0,1,0V38.29ZM12.43,20.92H28.8V37.29H12.43Z" style="fill:#c42229"/><path d="M25.33,34.32a.5.5,0,0,0,.5-.5V24.39a.5.5,0,0,0-.5-.5H15.9a.5.5,0,0,0-.5.5v9.43a.5.5,0,0,0,.5.5ZM16.4,24.89h8.43v8.43H16.4Z" style="fill:#c42229"/><path d="M39.12,41.47H48.3a.5.5,0,0,0,.5-.5V14.22a.5.5,0,0,0-.5-.5H39.12a.5.5,0,0,0-.5.5V41A.5.5,0,0,0,39.12,41.47Zm.5-26.75H47.8V40.47H39.62Z" style="fill:#c42229"/><path d="M45.26,33.19h-3.1a.5.5,0,0,0-.5.5v3.94a.5.5,0,0,0,.5.5h3.1a.5.5,0,0,0,.5-.5V33.69A.5.5,0,0,0,45.26,33.19Zm-.5,3.94h-2.1V34.19h2.1Z" style="fill:#c42229"/><path d="M50.59,41.47h9.18a.5.5,0,0,0,.5-.5V14.22a.5.5,0,0,0-.5-.5H50.59a.5.5,0,0,0-.5.5V41A.5.5,0,0,0,50.59,41.47Zm.5-26.75h8.18V40.47H51.09Z" style="fill:#c42229"/><path d="M56.73,33.19h-3.1a.5.5,0,0,0-.5.5v3.94a.5.5,0,0,0,.5.5h3.1a.5.5,0,0,0,.5-.5V33.69A.5.5,0,0,0,56.73,33.19Zm-.5,3.94h-2.1V34.19h2.1Z" style="fill:#c42229"/><path d="M71.25,13.72H62.06a.5.5,0,0,0-.5.5V41a.5.5,0,0,0,.5.5h9.19a.5.5,0,0,0,.5-.5V14.22A.5.5,0,0,0,71.25,13.72Zm-.5,26.75H62.56V14.72h8.19Z" style="fill:#c42229"/><path d="M65.1,38.13h3.11a.5.5,0,0,0,.5-.5V33.69a.5.5,0,0,0-.5-.5H65.1a.5.5,0,0,0-.5.5v3.94A.5.5,0,0,0,65.1,38.13Zm.5-3.94h2.11v2.94H65.6Z" style="fill:#c42229"/><path d="M62.55,46.17H17.45a.5.5,0,0,0-.5.5v3.6a.5.5,0,0,0,.5.5,1.86,1.86,0,0,1,0,3.71.5.5,0,0,0-.5.5v10.8a.5.5,0,0,0,.5.5H50.32a.5.5,0,0,0,.5-.5V61.29a.6.6,0,0,1,.59-.6.57.57,0,0,1,.42.18.56.56,0,0,1,.18.42v4.49a.5.5,0,0,0,.5.5h10a.5.5,0,0,0,.5-.5V55a.5.5,0,0,0-.5-.5,1.86,1.86,0,0,1,0-3.71.5.5,0,0,0,.5-.5v-3.6A.5.5,0,0,0,62.55,46.17Zm-.5,3.65a2.86,2.86,0,0,0,0,5.62v9.84H59.71V61.07a.5.5,0,0,0-.5-.5.51.51,0,0,0-.5.5v4.21H56.33V61.07a.51.51,0,0,0-.5-.5.5.5,0,0,0-.5.5v4.21H53v-4a1.61,1.61,0,0,0-.47-1.13,1.59,1.59,0,0,0-2.72,1.13v4H47.29V61.05a.5.5,0,0,0-.5-.5.51.51,0,0,0-.5.5v4.23H43.58V61.07a.5.5,0,0,0-.5-.5.51.51,0,0,0-.5.5v4.21h-2.7V61.07a.51.51,0,0,0-.5-.5.5.5,0,0,0-.5.5v4.21H36.17V61.07a.51.51,0,0,0-.5-.5.5.5,0,0,0-.5.5v4.21H32.46V61.07a.5.5,0,0,0-1,0v4.21H28.75V61.07a.5.5,0,0,0-.5-.5.51.51,0,0,0-.5.5v4.21H25V61.07a.5.5,0,0,0-.5-.5.51.51,0,0,0-.5.5v4.21H21.33V61.07a.5.5,0,0,0-.5-.5.51.51,0,0,0-.5.5v4.21H18V55.44a2.86,2.86,0,0,0,0-5.62V47.17h44.1Z" style="fill:#c42229"/><path d="M23.44,55.59h5.1a.5.5,0,0,0,.5-.5V49.32a.5.5,0,0,0-.5-.5h-5.1a.5.5,0,0,0-.5.5v5.77A.5.5,0,0,0,23.44,55.59Zm.5-5.77H28v4.77h-4.1Z" style="fill:#c42229"/><path d="M51.46,55.59h5.1a.5.5,0,0,0,.5-.5V49.32a.5.5,0,0,0-.5-.5h-5.1a.5.5,0,0,0-.5.5v5.77A.5.5,0,0,0,51.46,55.59Zm.5-5.77h4.1v4.77H52Z" style="fill:#c42229"/><path d="M41.91,55.59H47a.5.5,0,0,0,.5-.5V49.32a.5.5,0,0,0-.5-.5H41.91a.5.5,0,0,0-.5.5v5.77A.5.5,0,0,0,41.91,55.59Zm.5-5.77h4.11v4.77H42.41Z" style="fill:#c42229"/><path d="M33,55.59h5.11a.5.5,0,0,0,.5-.5V49.32a.5.5,0,0,0-.5-.5H33a.5.5,0,0,0-.5.5v5.77A.5.5,0,0,0,33,55.59Zm.5-5.77h4.11v4.77H33.48Z" style="fill:#c42229"/></svg>