<svg id="Layer_1" data-name="Layer 1" xmlns="http://www.w3.org/2000/svg" viewBox="0 0 32 32"><path d="M13.91,24h-3.5V20.26h1.72a.38.38,0,1,0,0-.75H8.39V15.73h4.47a.38.38,0,0,0,0-.75h-.42V11.2h3.67a.38.38,0,0,0,.37-.38.37.37,0,0,0-.37-.37h-.63V6.66h7.6V9.27a.37.37,0,0,0,.37.38.38.38,0,0,0,.38-.38v-3a.38.38,0,0,0-.38-.38H5.32A.38.38,0,0,0,5,6.29V24.42a.38.38,0,0,0,.37.37h8.59a.38.38,0,1,0,0-.75ZM7.64,19.51H5.7V15.73H7.64ZM11.69,15h-6V11.2h6Zm3-4.53H10.17V6.66h4.56ZM9.42,6.66v3.79H5.7V6.66ZM5.7,20.26h4V24h-4Z" style="fill:#c42229"/><path d="M24.37,11.73a.39.39,0,0,0-.45-.13.37.37,0,0,0-.22.41,6.35,6.35,0,0,1-1.13,5c.19-5.84-5.18-9.54-5.43-9.7a.36.36,0,0,0-.43,0,.38.38,0,0,0-.14.4l.13.46a6.78,6.78,0,0,1-1.43,6.44,7,7,0,0,0,2,10.86l1.06.56a.39.39,0,0,0,.18,0,.38.38,0,0,0,.28-.12.41.41,0,0,0,0-.47,5,5,0,0,1-.24-6.17A9,9,0,0,0,21.77,26a.4.4,0,0,0,.38.05,7.52,7.52,0,0,0,4.66-4.86C28,16.78,24.52,11.93,24.37,11.73ZM26.09,21a6.73,6.73,0,0,1-4,4.26,8.17,8.17,0,0,1-2.71-6.94.38.38,0,0,0-.2-.38.39.39,0,0,0-.18,0,.38.38,0,0,0-.24.09,5.85,5.85,0,0,0-1.25,6.81,6.26,6.26,0,0,1-1.61-9.7,7.19,7.19,0,0,0,1.7-3.42,6,6,0,0,0,.14-1.12,6.91,6.91,0,0,0-.13-1.92c1.6,1.39,4.82,4.8,4.16,9.36a.34.34,0,0,0,.17.37.38.38,0,0,0,.42,0,6.35,6.35,0,0,0,2.21-4.91C25.48,15.1,26.84,18.2,26.09,21Z" style="fill:#c42229"/></svg>