<svg id="Layer_1" data-name="Layer 1" xmlns="http://www.w3.org/2000/svg" viewBox="0 0 80 80"><path d="M44.68,61.63h-4.9V50.71h2.34a.5.5,0,0,0,.5-.5.51.51,0,0,0-.5-.5H35V38.8H47.74a.5.5,0,0,0,0-1H45.62V26.89H59.09V38.41a.5.5,0,0,0,.5.5.51.51,0,0,0,.5-.5V14.47a.51.51,0,0,0-.5-.5H11.93a.51.51,0,0,0-.5.5V62.13a.51.51,0,0,0,.5.5H44.68a.5.5,0,0,0,.5-.5A.5.5,0,0,0,44.68,61.63Zm-5.9,0H22.18V50.71h16.6ZM34,49.71H16.88V38.8H34Zm-21.58,0V38.8h3.45V49.71Zm9.14-23.82V15H39.78V25.89Zm5,1V37.8H12.43V26.89ZM44.62,37.8H27.53V26.89H44.62ZM59.09,25.89H40.78V15H59.09ZM20.57,15V25.89H12.43V15ZM12.43,50.71h8.75V61.63H12.43Z" style="fill:#c42229"/><path d="M63.9,41.16a.5.5,0,0,0-.6-.17.51.51,0,0,0-.3.54c.73,4.87-1.1,7.86-2.3,9.24.61-10.41-9.3-17.24-9.41-17.31a.5.5,0,0,0-.76.55l.23.8a12.16,12.16,0,0,1-2.53,11.41A12.08,12.08,0,0,0,51.61,65l1.85,1a.53.53,0,0,0,.24.06.5.5,0,0,0,.37-.17.51.51,0,0,0,0-.62c-3.74-5.36-1.56-9.53-.13-11.38a15.52,15.52,0,0,0,5.58,12,.5.5,0,0,0,.51.06c4.37-1.9,7.08-4.73,8.07-8.39C70.2,49.94,64.16,41.51,63.9,41.16Zm3.28,16.11c-.89,3.28-3.32,5.84-7.23,7.61-1.08-.95-5.72-5.45-4.87-12.36a.51.51,0,0,0-.27-.5.46.46,0,0,0-.23-.06.48.48,0,0,0-.33.13,10.06,10.06,0,0,0-1.92,12.15l-.26-.13A11.08,11.08,0,0,1,49,46.9l.07-.09A12.93,12.93,0,0,0,51.9,35.19c2.66,2.23,8.89,8.42,7.67,16.82a.48.48,0,0,0,.24.5.5.5,0,0,0,.55,0c.18-.13,3.92-3,3.8-9C65.8,46.25,68.59,52.08,67.18,57.27Z" style="fill:#c42229"/></svg>