<svg id="Layer_1" data-name="Layer 1" xmlns="http://www.w3.org/2000/svg" viewBox="0 0 80 80"><path d="M43,54.73a22.39,22.39,0,0,1-7.52,2.82c2.12-1.48,4-4.14,5.4-7.78a5.44,5.44,0,0,0,.19-.52h0v0s0-.05,0-.07,0-.06,0-.09v0a.29.29,0,0,0,0-.09s0-.07,0-.1a.18.18,0,0,1-.05-.07.27.27,0,0,0-.07-.08l-.06,0a.21.21,0,0,0-.1-.06h-.09l-.09,0H32V36.09h8.38a.5.5,0,0,0,.5-.5.5.5,0,0,0-.5-.5H32V22.64h8.25a37.1,37.1,0,0,1,1.9,9.22.5.5,0,0,0,.53.46.49.49,0,0,0,.46-.54,38.36,38.36,0,0,0-1.84-9.14h8.36a23.88,23.88,0,0,1,1.86,3.07.5.5,0,1,0,.89-.45,23.71,23.71,0,0,0-2.08-3.41,23.3,23.3,0,0,0-37.6-.07h0l-.05.06a23.28,23.28,0,0,0,0,27.5,23.31,23.31,0,0,0,30.83,6.23.5.5,0,0,0,.17-.69A.49.49,0,0,0,43,54.73ZM31,57.84c-3.05-.3-5.94-3.34-7.9-8.29H31Zm8.89-8.29c-1.94,4.94-4.85,8-7.89,8.29V49.55Zm-8.89-1H22.76a39.53,39.53,0,0,1-2-12.46H31Zm-17.65,0A22.07,22.07,0,0,1,9.23,36.09h10.5a40.68,40.68,0,0,0,2,12.46Zm0-25.91h8.34a40.71,40.71,0,0,0-2,12.45H9.23A22.1,22.1,0,0,1,13.37,22.64ZM31,35.09H20.73a39.56,39.56,0,0,1,2-12.45H31Zm0-13.45h-7.9c2-4.95,4.85-8,7.9-8.29Zm1-8.29c3,.3,5.94,3.34,7.89,8.29H32Zm16.9,8.29H41c-1.42-3.76-3.32-6.5-5.49-8A22.37,22.37,0,0,1,48.93,21.64Zm-21.36-8c-2.18,1.5-4.08,4.24-5.51,8H14.14A22.37,22.37,0,0,1,27.57,13.64ZM14.14,49.55h7.92c1.42,3.76,3.33,6.5,5.5,8A22.41,22.41,0,0,1,14.14,49.55Z" style="fill:#c42229"/><path d="M57.06,28.27A14.74,14.74,0,0,0,42.33,43c0,7.95,13.77,23.88,14.35,24.56a.54.54,0,0,0,.38.17.56.56,0,0,0,.38-.17C58,66.87,71.79,50.94,71.79,43A14.74,14.74,0,0,0,57.06,28.27Zm0,38.18C54.81,63.79,43.33,49.86,43.33,43a13.73,13.73,0,0,1,27.46,0C70.79,49.86,59.31,63.79,57.06,66.45Z" style="fill:#c42229"/><rect x="52.27" y="38.23" width="1.58" height="12.42" style="fill:#c42229"/><path d="M61.8,38.23H56.55V50.65h1.58V46.16h3.59a4.22,4.22,0,0,0,3-1,3.76,3.76,0,0,0,1.11-2.86,4.08,4.08,0,0,0-1-2.93A4,4,0,0,0,61.8,38.23Zm1.75,6a2.8,2.8,0,0,1-2.08.72H58.13V39.49h3.44a2.67,2.67,0,0,1,2,.71,2.88,2.88,0,0,1,.68,2A2.63,2.63,0,0,1,63.55,44.21Z" style="fill:#c42229"/></svg>