<svg id="Layer_1" data-name="Layer 1" xmlns="http://www.w3.org/2000/svg" viewBox="0 0 80 80"><path d="M9.39,46.94a2.66,2.66,0,1,0-1.88-.78A2.67,2.67,0,0,0,9.39,46.94ZM8.22,43.1a1.66,1.66,0,0,1,1.17-.48,1.68,1.68,0,0,1,1.18.48,1.66,1.66,0,1,1-2.35,0Z" style="fill:#c42229"/><path d="M77.37,36.91a.4.4,0,0,0,0-.15.38.38,0,0,0-.09-.13s0,0,0,0h0l-8.46-8.55a.51.51,0,0,0-.36-.15H11.59a.47.47,0,0,0-.35.15L2.77,36.6h0a0,0,0,0,1,0,0,.38.38,0,0,0-.09.13.4.4,0,0,0,0,.15s0,0,0,0V51.6a.5.5,0,0,0,.5.5H76.88a.5.5,0,0,0,.5-.5V37S77.37,36.93,77.37,36.91Zm-65.57-8H68.2l7.48,7.55H4.32ZM76.38,51.1H3.62V37.45H76.38Z" style="fill:#c42229"/><path d="M17.1,46.94a2.66,2.66,0,1,0-1.89-.78A2.65,2.65,0,0,0,17.1,46.94ZM15.92,43.1a1.66,1.66,0,1,1,0,2.35A1.66,1.66,0,0,1,15.92,43.1Z" style="fill:#c42229"/><path d="M24.8,46.94a2.66,2.66,0,1,0-1.88-.78A2.65,2.65,0,0,0,24.8,46.94ZM23.62,43.1a1.68,1.68,0,0,1,1.18-.48,1.66,1.66,0,1,1-1.18.48Z" style="fill:#c42229"/><path d="M32.5,46.94a2.66,2.66,0,1,0-1.88-.78A2.63,2.63,0,0,0,32.5,46.94ZM31.33,43.1a1.66,1.66,0,0,1,1.17-.48,1.68,1.68,0,0,1,1.18.48,1.66,1.66,0,1,1-2.35,0Z" style="fill:#c42229"/><path d="M40.21,46.94a2.66,2.66,0,1,0-1.89-.78A2.65,2.65,0,0,0,40.21,46.94ZM39,43.1a1.66,1.66,0,1,1,0,2.35A1.66,1.66,0,0,1,39,43.1Z" style="fill:#c42229"/><path d="M47.91,46.94A2.66,2.66,0,1,0,46,46.16,2.65,2.65,0,0,0,47.91,46.94ZM46.73,43.1a1.68,1.68,0,0,1,1.18-.48,1.66,1.66,0,1,1-1.18.48Z" style="fill:#c42229"/><path d="M55.61,46.94a2.66,2.66,0,1,0-1.88-.78A2.67,2.67,0,0,0,55.61,46.94ZM54.44,43.1a1.66,1.66,0,0,1,1.17-.48,1.68,1.68,0,0,1,1.18.48,1.66,1.66,0,1,1-2.35,0Z" style="fill:#c42229"/><path d="M71.15,49.1a2.13,2.13,0,1,0-1.5-.62A2.13,2.13,0,0,0,71.15,49.1Zm-.8-2.92a1.13,1.13,0,0,1,.8-.33,1.11,1.11,0,0,1,.79.33,1.12,1.12,0,0,1-1.59,1.59A1.14,1.14,0,0,1,70.35,46.18Z" style="fill:#c42229"/><path d="M71.15,43.7a2.09,2.09,0,0,0,1.5-.62,2.12,2.12,0,1,0-3,0A2.07,2.07,0,0,0,71.15,43.7Zm-.8-2.91a1.13,1.13,0,0,1,.8-.33,1.11,1.11,0,0,1,.79.33,1.12,1.12,0,0,1,0,1.59,1.12,1.12,0,0,1-1.59-1.59Z" style="fill:#c42229"/><path d="M64.22,49.1a2.13,2.13,0,0,0,1.5-3.63,2.19,2.19,0,0,0-3,0,2.13,2.13,0,0,0,1.51,3.63Zm-.8-2.92a1.14,1.14,0,0,1,.8-.33,1.13,1.13,0,1,1-.8.33Z" style="fill:#c42229"/><path d="M64.22,43.7a2.12,2.12,0,1,0-1.51-.62A2.14,2.14,0,0,0,64.22,43.7Zm-.8-2.91A1.12,1.12,0,0,1,65,42.38a1.16,1.16,0,0,1-1.59,0A1.12,1.12,0,0,1,63.42,40.79Z" style="fill:#c42229"/></svg>