<svg id="Layer_1" data-name="Layer 1" xmlns="http://www.w3.org/2000/svg" viewBox="0 0 80 80"><path d="M58.89,53.64a23.26,23.26,0,0,0,0-27.28.46.46,0,0,0-.13-.18,23.29,23.29,0,0,0-37.52,0,.46.46,0,0,0-.13.18,23.26,23.26,0,0,0,0,27.28.59.59,0,0,0,.13.18,23.29,23.29,0,0,0,37.52,0A.8.8,0,0,0,58.89,53.64Zm-1.5-27.59H48.2c-1.23-3.78-2.94-6.6-4.9-8.12A22.34,22.34,0,0,1,57.39,26.05Zm-10.25,0H32.86c1.74-5.13,4.37-8.36,7.14-8.36S45.4,20.92,47.14,26.05ZM36.7,17.93c-2,1.52-3.67,4.34-4.9,8.12H22.61A22.34,22.34,0,0,1,36.7,17.93ZM21.85,27.05H31.5a41,41,0,0,0-1.17,5.41.5.5,0,1,0,1,.15,40.92,40.92,0,0,1,1.22-5.56H47.46a40.17,40.17,0,0,1,1.23,5.63.51.51,0,0,0,.5.43h.07a.51.51,0,0,0,.42-.57,40.32,40.32,0,0,0-1.18-5.49h9.65a22.25,22.25,0,0,1,0,25.91H48.52a43.81,43.81,0,0,0,1.14-5.34.5.5,0,0,0-.42-.57.51.51,0,0,0-.57.42A41.45,41.45,0,0,1,47.47,53H32.53a41.45,41.45,0,0,1-1.2-5.49.51.51,0,0,0-.57-.42.5.5,0,0,0-.42.57A42,42,0,0,0,31.49,53H21.85a22.25,22.25,0,0,1,0-25.91ZM47.16,54c-1.73,5.17-4.34,8.35-7.16,8.35S34.57,59.13,32.84,54ZM22.61,54h9.17c1.22,3.79,2.91,6.6,4.86,8.1A22.29,22.29,0,0,1,22.61,54Zm20.75,8.1c2-1.5,3.64-4.31,4.86-8.1h9.17A22.29,22.29,0,0,1,43.36,62.06Z" style="fill:#c42229"/><polygon points="24.18 45.15 26.54 37.31 28.78 45.15 30.17 45.15 32.55 34.85 31.27 34.85 29.3 43.33 26.91 34.85 25.83 34.85 25.83 35.98 23.61 43.33 21.67 34.85 20.38 34.85 22.78 45.15 24.18 45.15" style="fill:#c42229"/><polygon points="37.72 45.15 40.07 37.31 42.31 45.15 43.7 45.15 46.09 34.85 44.81 34.85 42.84 43.33 40.44 34.85 39.37 34.85 39.37 35.98 37.15 43.33 35.21 34.85 33.91 34.85 36.31 45.15 37.72 45.15" style="fill:#c42229"/><polygon points="51.26 45.15 53.61 37.31 55.85 45.15 57.24 45.15 59.63 34.85 58.34 34.85 56.38 43.33 53.98 34.85 52.91 34.85 52.91 35.98 50.68 43.33 48.74 34.85 47.45 34.85 49.85 45.15 51.26 45.15" style="fill:#c42229"/></svg>