<svg id="Layer_1" data-name="Layer 1" xmlns="http://www.w3.org/2000/svg" viewBox="0 0 80 80"><path d="M48.72,35.55a4.87,4.87,0,0,0-1.51.24,6.93,6.93,0,0,0-13.65-1.38,4.13,4.13,0,0,0-1.11-.15,4.24,4.24,0,0,0-4.23,4.24,4.89,4.89,0,0,0,0,.54,3.2,3.2,0,1,0-.1,6.39H48.72a4.94,4.94,0,1,0,0-9.88Zm0,8.88H28.15a2.2,2.2,0,1,1,0-4.4,2.15,2.15,0,0,1,.61.09.52.52,0,0,0,.5-.13.51.51,0,0,0,.11-.5,3.35,3.35,0,0,1-.15-1,3.24,3.24,0,0,1,3.23-3.24,3.17,3.17,0,0,1,1.29.27.52.52,0,0,0,.44,0,.52.52,0,0,0,.25-.36,5.93,5.93,0,0,1,11.79.9c0,.15,0,.31,0,.46a.48.48,0,0,0,.22.45.5.5,0,0,0,.5,0,3.94,3.94,0,1,1,1.8,7.44Z" style="fill:#c42229"/><path d="M28.05,23.93a.35.35,0,0,0,.11-.27V12.38a.38.38,0,0,0-.05-.19l0,0a.36.36,0,0,0-.15-.12h0a.35.35,0,0,0-.14,0H16.5a.36.36,0,0,0-.26.11L13,15.36h0a.36.36,0,0,0-.11.26V26.91a.38.38,0,0,0,.38.37H24.54a.37.37,0,0,0,.27-.11h0Zm-.64-.42L24.92,26V15.78l2.49-2.5ZM16.66,12.75H26.88l-2.49,2.5H14.16Zm7.51,13.78H13.63V16H24.17Z" style="fill:#c42229"/><path d="M60.79,23.82H53.6a.38.38,0,0,0-.38.37v7.2a.38.38,0,0,0,.38.37h7.19a.38.38,0,0,0,.38-.37v-7.2A.38.38,0,0,0,60.79,23.82ZM60.42,31H54V24.57h6.45Z" style="fill:#c42229"/><path d="M52.32,20.68a4,4,0,1,0-4-4A4,4,0,0,0,52.32,20.68Zm0-7.2a3.23,3.23,0,1,1-3.22,3.23A3.23,3.23,0,0,1,52.32,13.48Z" style="fill:#c42229"/><path d="M67.08,19.41,63.8,12.22a.39.39,0,0,0-.33-.22.38.38,0,0,0-.34.2l-3.91,7.19a.38.38,0,0,0,0,.37.37.37,0,0,0,.32.18h7.19a.37.37,0,0,0,.32-.17A.36.36,0,0,0,67.08,19.41Zm-6.9-.22,3.25-6,2.73,6Z" style="fill:#c42229"/><path d="M42.65,56.14H33.12a.37.37,0,0,0-.37.38v11.1a.37.37,0,0,0,.37.38h9.53a.38.38,0,0,0,.37-.38V56.52A.38.38,0,0,0,42.65,56.14Zm-.38,11.11H33.5V56.89h8.77Z" style="fill:#c42229"/><path d="M45.5,52.72H36a.38.38,0,0,0-.37.37v1.77a.38.38,0,0,0,.75,0V53.47h8.77V63.83H44a.37.37,0,0,0-.37.37.38.38,0,0,0,.37.38H45.5a.37.37,0,0,0,.37-.38V53.09A.37.37,0,0,0,45.5,52.72Z" style="fill:#c42229"/><path d="M39.81,50.87v-4a.5.5,0,0,0-1,0v4a.5.5,0,1,0,1,0Z" style="fill:#c42229"/><path d="M28.07,26.75l4.38,4.37a.48.48,0,0,0,.7,0,.5.5,0,0,0,0-.71L28.78,26a.5.5,0,0,0-.71,0A.51.51,0,0,0,28.07,26.75Z" style="fill:#c42229"/><path d="M46.93,30.15a.54.54,0,0,0,.36-.14l3.21-3.22a.5.5,0,0,0,0-.7.5.5,0,0,0-.71,0L46.58,29.3a.5.5,0,0,0,0,.71A.52.52,0,0,0,46.93,30.15Z" style="fill:#c42229"/></svg>