<svg id="Layer_1" data-name="Layer 1" xmlns="http://www.w3.org/2000/svg" viewBox="0 0 80 80"><path d="M59.72,26.13c-7.19,0-14.47,1.31-14.47,3.82v20.1c0,2.51,7.28,3.83,14.47,3.83s14.46-1.32,14.46-3.83V30C74.18,27.44,66.9,26.13,59.72,26.13ZM73.18,43.35c0,1.15-5.24,2.82-13.46,2.82S46.25,44.5,46.25,43.35V38.13c2.22,1.54,7.86,2.34,13.47,2.34s11.24-.8,13.46-2.34Zm0-6.7c0,1.15-5.24,2.82-13.46,2.82S46.25,37.8,46.25,36.65V31.43c2.22,1.54,7.86,2.34,13.47,2.34S71,33,73.18,31.43ZM59.72,27.13c8.22,0,13.46,1.67,13.46,2.82s-5.24,2.82-13.46,2.82S46.25,31.1,46.25,30,51.5,27.13,59.72,27.13Zm0,25.75c-8.22,0-13.47-1.68-13.47-2.83V44.83c2.22,1.54,7.86,2.34,13.47,2.34s11.24-.8,13.46-2.34v5.22C73.18,51.2,67.94,52.88,59.72,52.88Z" style="fill:#c42229"/><path d="M15.5,26.13H6.32a.5.5,0,0,0-.5.5V53.38a.5.5,0,0,0,.5.5H15.5a.5.5,0,0,0,.5-.5V26.63A.5.5,0,0,0,15.5,26.13ZM15,52.88H6.82V27.13H15Z" style="fill:#c42229"/><path d="M9.36,50.54h3.1A.5.5,0,0,0,13,50V46.09a.5.5,0,0,0-.5-.5H9.36a.5.5,0,0,0-.5.5V50A.5.5,0,0,0,9.36,50.54Zm.5-3.95H12v2.95H9.86Z" style="fill:#c42229"/><path d="M27,26.13H17.79a.5.5,0,0,0-.5.5V53.38a.51.51,0,0,0,.5.5H27a.51.51,0,0,0,.5-.5V26.63A.5.5,0,0,0,27,26.13Zm-.5,26.75H18.29V27.13h8.19Z" style="fill:#c42229"/><path d="M20.83,50.54h3.11a.51.51,0,0,0,.5-.5V46.09a.51.51,0,0,0-.5-.5H20.83a.51.51,0,0,0-.5.5V50A.51.51,0,0,0,20.83,50.54Zm.5-3.95h2.11v2.95H21.33Z" style="fill:#c42229"/><path d="M38.45,26.13H29.27a.5.5,0,0,0-.5.5V53.38a.5.5,0,0,0,.5.5h9.18a.5.5,0,0,0,.5-.5V26.63A.5.5,0,0,0,38.45,26.13ZM38,52.88H29.77V27.13H38Z" style="fill:#c42229"/><path d="M32.31,50.54h3.1a.5.5,0,0,0,.5-.5V46.09a.5.5,0,0,0-.5-.5h-3.1a.5.5,0,0,0-.5.5V50A.5.5,0,0,0,32.31,50.54Zm.5-3.95h2.1v2.95h-2.1Z" style="fill:#c42229"/></svg>