<svg id="Layer_1" data-name="Layer 1" xmlns="http://www.w3.org/2000/svg" viewBox="0 0 64 64"><title>coupons</title><path d="M11.33,41.1a.5.5,0,0,0-.5-.5,3.25,3.25,0,0,1-3.25-3.25.5.5,0,0,0-.5-.5.5.5,0,0,0-.5.5A3.26,3.26,0,0,1,3.33,40.6a.5.5,0,1,0,0,1,3.26,3.26,0,0,1,3.25,3.25.5.5,0,0,0,.5.5.5.5,0,0,0,.5-.5,3.25,3.25,0,0,1,3.25-3.25A.5.5,0,0,0,11.33,41.1ZM7.08,42.85A4.3,4.3,0,0,0,5.32,41.1a4.3,4.3,0,0,0,1.76-1.75A4.22,4.22,0,0,0,8.83,41.1,4.22,4.22,0,0,0,7.08,42.85Z" style="fill:#c52228"/><path d="M10.05,34.34a.49.49,0,0,0,.47.35l.16,0A.5.5,0,0,0,11,34L7.71,23.89,34,15.36a.5.5,0,0,0,.32-.63.51.51,0,0,0-.63-.33L6.92,23.09a.55.55,0,0,0-.29.25.5.5,0,0,0,0,.38Z" style="fill:#c52228"/><path d="M37.79,14.13,48.6,10.61l1.72,5.28a5,5,0,0,0,3.07,9.44l.91,2.8a.49.49,0,0,0,.47.35l.16,0a.5.5,0,0,0,.32-.63l-1-3.23a.49.49,0,0,0-.6-.33,4,4,0,0,1-2.49-7.63.5.5,0,0,0,.3-.62l-2-6.19a.5.5,0,0,0-.25-.3.55.55,0,0,0-.38,0L37.48,13.17a.5.5,0,0,0,.31,1Z" style="fill:#c52228"/><path d="M20.32,25.06a2.79,2.79,0,0,0-2.1-.17,2.75,2.75,0,0,0-1.6,1.37,2.7,2.7,0,0,0-.17,2.1,2.76,2.76,0,0,0,2.62,1.91,2.8,2.8,0,0,0,.85-.14,2.75,2.75,0,0,0,1.77-3.47A2.71,2.71,0,0,0,20.32,25.06Zm-.71,4.12a1.75,1.75,0,0,1-2.21-1.12,1.73,1.73,0,0,1,.11-1.34,1.78,1.78,0,0,1,1.56-1,1.75,1.75,0,0,1,.54,3.42Z" style="fill:#c52228"/><path d="M38.09,19.91a.48.48,0,0,0-.63-.29.52.52,0,0,0-.31.65.51.51,0,0,0,.48.35.4.4,0,0,0,.15,0A.49.49,0,0,0,38.1,20Z" style="fill:#c52228"/><path d="M38.57,23.52a.4.4,0,0,0,.15,0,.49.49,0,0,0,.32-.63v-.05a.49.49,0,0,0-.63-.29.52.52,0,0,0,.17,1Z" style="fill:#c52228"/><path d="M36.21,17.37a.5.5,0,0,0,.48.34.39.39,0,0,0,.15,0,.5.5,0,0,0,.32-.63v0a.49.49,0,0,0-.62-.3A.53.53,0,0,0,36.21,17.37Z" style="fill:#c52228"/><path d="M35.75,14.81l.15,0a.49.49,0,0,0,.32-.63v-.05a.49.49,0,0,0-.62-.3.53.53,0,0,0-.32.66A.5.5,0,0,0,35.75,14.81Z" style="fill:#c52228"/><path d="M39.51,26.42a.4.4,0,0,0,.15,0,.49.49,0,0,0,.32-.63v0a.49.49,0,0,0-.63-.3.52.52,0,0,0-.31.65A.49.49,0,0,0,39.51,26.42Z" style="fill:#c52228"/><path d="M42.19,18.16a.5.5,0,1,0-.95.31l3.28,10.12a.5.5,0,0,0,.48.34.39.39,0,0,0,.15,0,.51.51,0,0,0,.33-.63Z" style="fill:#c52228"/><path d="M46.14,23.86l-2-6.32a.5.5,0,0,0-1,.31l2,6.31a.5.5,0,0,0,.48.35l.15,0A.5.5,0,0,0,46.14,23.86Z" style="fill:#c52228"/><path d="M46.9,28.32a.45.45,0,0,0,.16,0,.5.5,0,0,0,.32-.63l-.62-1.9a.5.5,0,1,0-.95.31l.62,1.9A.5.5,0,0,0,46.9,28.32Z" style="fill:#c52228"/><path d="M43.15,32a.5.5,0,0,0-.5-.5H31.36a3.67,3.67,0,0,0-.09-.43,2.75,2.75,0,0,0-5.34.43H23.26l4.48-8.79a.5.5,0,0,0-.9-.45l-4.7,9.24H14.52a.5.5,0,0,0-.5.5V54a.5.5,0,0,0,.5.5H42.65a.5.5,0,0,0,0-1H15v-21H42.65A.5.5,0,0,0,43.15,32Zm-15-1.75a1.76,1.76,0,0,1,2.21,1.13.53.53,0,0,1,0,.12H27A1.77,1.77,0,0,1,28.1,30.23Z" style="fill:#c52228"/><path d="M58.52,31.48H46.65a.5.5,0,1,0,0,1H58V38A5,5,0,0,0,58,48v5.56H46.65a.5.5,0,0,0,0,1H58.52A.5.5,0,0,0,59,54V47.51a.49.49,0,0,0-.47-.5,4,4,0,0,1,0-8,.49.49,0,0,0,.47-.5V32A.5.5,0,0,0,58.52,31.48Z" style="fill:#c52228"/><path d="M23,48.77a.47.47,0,0,0,.35-.15L34.44,37.53a.5.5,0,0,0,0-.71.5.5,0,0,0-.7,0L22.65,47.91a.5.5,0,0,0,0,.71A.47.47,0,0,0,23,48.77Z" style="fill:#c52228"/><path d="M24.71,42.19A2.76,2.76,0,1,0,22,39.43,2.77,2.77,0,0,0,24.71,42.19Zm0-4.51A1.76,1.76,0,1,1,23,39.43,1.75,1.75,0,0,1,24.71,37.68Z" style="fill:#c52228"/><path d="M32.47,49.32a2.75,2.75,0,1,0-2.76-2.75A2.75,2.75,0,0,0,32.47,49.32Zm0-4.5a1.75,1.75,0,1,1-1.76,1.75A1.75,1.75,0,0,1,32.47,44.82Z" style="fill:#c52228"/><path d="M44.66,34.55a.52.52,0,0,0-.5.53.5.5,0,0,0,.5.5.5.5,0,0,0,.5-.5v0A.48.48,0,0,0,44.66,34.55Z" style="fill:#c52228"/><path d="M44.66,31.51a.51.51,0,0,0-.5.52.5.5,0,0,0,.5.5.5.5,0,0,0,.5-.5V32A.48.48,0,0,0,44.66,31.51Z" style="fill:#c52228"/><path d="M44.66,52.86a.51.51,0,0,0-.5.52.5.5,0,0,0,.5.5.5.5,0,0,0,.5-.5v-.05A.48.48,0,0,0,44.66,52.86Z" style="fill:#c52228"/><path d="M44.66,37.61a.51.51,0,0,0-.5.52.5.5,0,0,0,.5.5.5.5,0,0,0,.5-.5v-.05A.48.48,0,0,0,44.66,37.61Z" style="fill:#c52228"/><path d="M44.66,49.8a.52.52,0,0,0-.5.53.5.5,0,0,0,.5.5.5.5,0,0,0,.5-.5v0A.48.48,0,0,0,44.66,49.8Z" style="fill:#c52228"/><path d="M44.66,46.76a.51.51,0,0,0-.5.52.5.5,0,0,0,.5.5.5.5,0,0,0,.5-.5v-.05A.48.48,0,0,0,44.66,46.76Z" style="fill:#c52228"/><path d="M44.66,43.7a.52.52,0,0,0-.5.53.5.5,0,0,0,.5.5.5.5,0,0,0,.5-.5v0A.48.48,0,0,0,44.66,43.7Z" style="fill:#c52228"/><path d="M44.66,40.66a.51.51,0,0,0-.5.52.5.5,0,0,0,.5.5.5.5,0,0,0,.5-.5v0A.48.48,0,0,0,44.66,40.66Z" style="fill:#c52228"/><path d="M49.59,48.32V37.68a.5.5,0,0,0-1,0V48.32a.5.5,0,0,0,1,0Z" style="fill:#c52228"/><path d="M51.09,44.82a.5.5,0,0,0,.5-.5V37.68a.5.5,0,0,0-1,0v6.64A.5.5,0,0,0,51.09,44.82Z" style="fill:#c52228"/><path d="M50.59,48.32a.5.5,0,0,0,1,0v-2a.5.5,0,1,0-1,0Z" style="fill:#c52228"/><path d="M60.58,21.1a2.54,2.54,0,0,1-1.67-1.67.11.11,0,0,0-.22,0A2.54,2.54,0,0,1,57,21.1a.12.12,0,0,0,0,.23A2.58,2.58,0,0,1,58.69,23a.11.11,0,0,0,.22,0,2.58,2.58,0,0,1,1.67-1.67A.12.12,0,0,0,60.58,21.1Z" style="fill:#c52228"/><path d="M54.74,18.21a.06.06,0,0,0,.12,0,1.27,1.27,0,0,1,.83-.84.06.06,0,0,0,0-.11,1.27,1.27,0,0,1-.83-.84.06.06,0,0,0-.12,0,1.27,1.27,0,0,1-.83.84.06.06,0,0,0,0,.11A1.27,1.27,0,0,1,54.74,18.21Z" style="fill:#c52228"/><path d="M10.88,45.68a.06.06,0,0,0-.11,0,1.29,1.29,0,0,1-.84.83.06.06,0,0,0,0,.12,1.27,1.27,0,0,1,.84.83.06.06,0,0,0,.11,0,1.27,1.27,0,0,1,.84-.83.06.06,0,0,0,0-.12A1.29,1.29,0,0,1,10.88,45.68Z" style="fill:#c52228"/></svg>