<svg id="Layer_1" data-name="Layer 1" xmlns="http://www.w3.org/2000/svg" viewBox="0 0 64 64"><path d="M61.5,10.05H2.5a.5.5,0,0,0-.5.5V46a.5.5,0,0,0,.5.5h25v.1A12.45,12.45,0,0,1,24.83,53H21.07a.5.5,0,0,0,0,1H42.79a.5.5,0,1,0,0-1H39.17a12.45,12.45,0,0,1-2.67-6.4v-.1h25A.5.5,0,0,0,62,46V10.55A.5.5,0,0,0,61.5,10.05Zm-26,36.61A13.23,13.23,0,0,0,37.92,53H26.08a13.23,13.23,0,0,0,2.41-6.29l0-.21h7ZM61,45.45H3V11.05H61Z" style="fill:#c52228"/><path d="M17,38.75l.61-.13.24.35-.33.52a.5.5,0,0,0,.06.62,6.57,6.57,0,0,0,1.07.89,5.74,5.74,0,0,0,1.27.62.5.5,0,0,0,.59-.2l.33-.52.41.07.13.61a.51.51,0,0,0,.48.4H22a6.06,6.06,0,0,0,2.6-.59.5.5,0,0,0,.27-.56l-.13-.6.35-.24.52.34a.51.51,0,0,0,.62-.06,5.88,5.88,0,0,0,.89-1.09,5.45,5.45,0,0,0,.62-1.26.49.49,0,0,0-.2-.58L27,37c0-.14.05-.27.07-.41l.61-.13a.51.51,0,0,0,.4-.48,6.19,6.19,0,0,0-.59-2.73.51.51,0,0,0-.56-.27l-.6.13-.24-.35.33-.52a.5.5,0,0,0-.06-.62,5.82,5.82,0,0,0-1.08-.89A5.67,5.67,0,0,0,24,30.11a.5.5,0,0,0-.58.2l-.34.52-.42-.07-.13-.61a.48.48,0,0,0-.48-.39,5.86,5.86,0,0,0-2.72.59.49.49,0,0,0-.27.55l.13.61a2.71,2.71,0,0,0-.35.24l-.52-.34a.5.5,0,0,0-.62.06,5.45,5.45,0,0,0-.89,1.08,5.74,5.74,0,0,0-.62,1.27.5.5,0,0,0,.2.58l.52.34c0,.13-.05.27-.07.4l-.61.13a.51.51,0,0,0-.4.48,6.11,6.11,0,0,0,.59,2.73A.49.49,0,0,0,17,38.75Zm.43-2.7a.5.5,0,0,0,.39-.46,6,6,0,0,1,.17-.94.49.49,0,0,0-.2-.56l-.48-.31a4.64,4.64,0,0,1,.37-.69,4.81,4.81,0,0,1,.47-.62l.48.31a.51.51,0,0,0,.61,0A3.8,3.8,0,0,1,20,32.2a.48.48,0,0,0,.26-.55l-.12-.56a5.37,5.37,0,0,1,1.52-.33l.12.56a.51.51,0,0,0,.45.4,4.41,4.41,0,0,1,.95.17.53.53,0,0,0,.56-.21L24,31.2a4.58,4.58,0,0,1,.69.37,4.81,4.81,0,0,1,.62.47l-.31.49a.5.5,0,0,0,0,.6,4.49,4.49,0,0,1,.54.78.5.5,0,0,0,.55.25l.55-.11a4.92,4.92,0,0,1,.33,1.52l-.57.12a.5.5,0,0,0-.39.46,3.72,3.72,0,0,1-.17.92.51.51,0,0,0,.21.57l.48.31a4.64,4.64,0,0,1-.37.69,5,5,0,0,1-.47.62L25.28,39a.51.51,0,0,0-.61,0,3.44,3.44,0,0,1-.76.53.5.5,0,0,0-.26.55l.12.56a5,5,0,0,1-1.53.33l-.12-.56a.48.48,0,0,0-.45-.39,3.93,3.93,0,0,1-.93-.18l-.15,0a.48.48,0,0,0-.42.23l-.31.49a5.2,5.2,0,0,1-.69-.38,4.81,4.81,0,0,1-.62-.47l.31-.49a.51.51,0,0,0,0-.6,3.8,3.8,0,0,1-.55-.78.5.5,0,0,0-.54-.25l-.56.12a5,5,0,0,1-.33-1.52Z" style="fill:#c52228"/><path d="M20.65,37.87a2.3,2.3,0,0,0,1.29.39,2.73,2.73,0,0,0,.5,0,2.39,2.39,0,1,0-2.84-1.84A2.35,2.35,0,0,0,20.65,37.87Zm.12-2.76A1.42,1.42,0,0,1,22,34.47a1.36,1.36,0,0,1,.75.22,1.39,1.39,0,0,1,.41,1.93h0a1.35,1.35,0,0,1-.88.61,1.33,1.33,0,0,1-1-.2,1.38,1.38,0,0,1-.42-1.92Z" style="fill:#c52228"/><path d="M38,33.93a.5.5,0,0,0-.5.5v1.5a10.34,10.34,0,0,1-3.92,0V34.43a.5.5,0,0,0-.36-.48,8,8,0,0,1-1.79-.73.5.5,0,0,0-.6.08l-1.34,1.34a.5.5,0,1,0,.71.71l1.08-1.08a8.64,8.64,0,0,0,1.3.53v1.53a.49.49,0,0,0,.38.48,11.29,11.29,0,0,0,2.58.3,11,11,0,0,0,2.58-.29.51.51,0,0,0,.38-.49v-1.9A.5.5,0,0,0,38,33.93Z" style="fill:#c52228"/><path d="M25,28.78h1.89a.5.5,0,0,0,0-1H25.4a10.2,10.2,0,0,1,0-3.92h1.49a.51.51,0,0,0,.49-.37,7.7,7.7,0,0,1,.74-1.78.5.5,0,0,0-.09-.6L27,20.06a10.14,10.14,0,0,1,2.77-2.77l1.05,1.05a.5.5,0,0,0,.6.08,8.54,8.54,0,0,1,1.79-.74.5.5,0,0,0,.36-.48V15.71a10.34,10.34,0,0,1,3.92,0V17.2a.5.5,0,0,0,.36.48,9.09,9.09,0,0,1,1.8.74.5.5,0,0,0,.59-.08l1.05-1.05a10.18,10.18,0,0,1,2.78,2.77L43,21.12a.5.5,0,0,0-.09.6,7.81,7.81,0,0,1,.74,1.77.51.51,0,0,0,.49.37h1.49a10.2,10.2,0,0,1,0,3.92H44.13a.5.5,0,1,0,0,1H46a.5.5,0,0,0,.49-.38,11.24,11.24,0,0,0,0-5.16.5.5,0,0,0-.49-.38H44.5a9.88,9.88,0,0,0-.54-1.3L45,20.48a.51.51,0,0,0,.07-.62,11.4,11.4,0,0,0-3.64-3.64.5.5,0,0,0-.62.08l-1.07,1.07a10.62,10.62,0,0,0-1.31-.54V15.3a.49.49,0,0,0-.38-.48,11.38,11.38,0,0,0-5.16,0,.51.51,0,0,0-.38.49v1.52a9.35,9.35,0,0,0-1.3.54L30.17,16.3a.5.5,0,0,0-.62-.08,11.17,11.17,0,0,0-3.63,3.64.49.49,0,0,0,.07.62l1.07,1.08a9.35,9.35,0,0,0-.54,1.3H25a.5.5,0,0,0-.49.38,11.24,11.24,0,0,0,0,5.16A.5.5,0,0,0,25,28.78Z" style="fill:#c52228"/><path d="M35.51,20.39a5.44,5.44,0,0,1,5.43,5.43.5.5,0,0,0,.5.5.51.51,0,0,0,.5-.5,6.43,6.43,0,1,0-6.43,6.42.5.5,0,0,0,.5-.5.5.5,0,0,0-.5-.5,5.43,5.43,0,1,1,0-10.85Z" style="fill:#c52228"/><path d="M43.83,31.53l-4.12-4.12a3.41,3.41,0,0,0-5-3.9.51.51,0,0,0-.25.37.5.5,0,0,0,.14.42l1.19,1.19-.63.63L34.1,25a.49.49,0,0,0-.45-.14.52.52,0,0,0-.36.3A3.41,3.41,0,0,0,37,29.84l4.42,4.42a3.41,3.41,0,0,0,1,3,3.4,3.4,0,0,0,3.71.74.52.52,0,0,0,.3-.36.49.49,0,0,0-.14-.45L45,35.89l.63-.63,1.33,1.33a.5.5,0,0,0,.42.14.51.51,0,0,0,.37-.25,3.41,3.41,0,0,0-3.9-4.95Zm3.28,3.81L46,34.2a.48.48,0,0,0-.7,0l-1.34,1.33a.53.53,0,0,0-.15.36.51.51,0,0,0,.15.35l1,1a2.37,2.37,0,0,1-1.83-.7,2.43,2.43,0,0,1-.63-2.29.46.46,0,0,0-.13-.47l-4.81-4.81a.47.47,0,0,0-.35-.15l-.12,0a2.4,2.4,0,0,1-3-2.46l.83.83a.51.51,0,0,0,.7,0l1.34-1.34a.51.51,0,0,0,.15-.35.53.53,0,0,0-.15-.36l-1-1a2.41,2.41,0,0,1,2.77,3.23.52.52,0,0,0,.11.54l4.56,4.56a.52.52,0,0,0,.54.11,2.41,2.41,0,0,1,3.23,2.77Z" style="fill:#c52228"/></svg>