<svg id="Layer_1" data-name="Layer 1" xmlns="http://www.w3.org/2000/svg" viewBox="0 0 64 64"><title>-</title><path d="M40.49,18.07c-1.63-2.78-3.4-4.12-5-3.81a3,3,0,0,0-2,1.63,29.67,29.67,0,0,1-13.92,9.42.53.53,0,0,0-.45-.14l-6.39,1.31a7.17,7.17,0,0,0-4.71,3.41A8.25,8.25,0,0,0,7,33.24,2.28,2.28,0,0,0,5.37,35.9l.15.73a2.24,2.24,0,0,0,1,1.45,2.26,2.26,0,0,0,1.25.38c.11,0,.21,0,.32,0a7.71,7.71,0,0,0,6.61,4.06l.36,0,3.63,8.11a.53.53,0,0,0,.46.3h.1L23.3,50a.52.52,0,0,0,.35-.26.54.54,0,0,0,0-.43l-3.51-7.83L22.47,41a.5.5,0,0,0,.35-.31,29.67,29.67,0,0,1,16.5,3.17,3.21,3.21,0,0,0,2,.78,2.42,2.42,0,0,0,.47,0c3.45-.71,3.93-8.86,2.39-16.32A34.36,34.36,0,0,0,40.49,18.07ZM7.05,37.25a1.27,1.27,0,0,1-.55-.82l-.15-.74a1.26,1.26,0,0,1,.18-1A1.42,1.42,0,0,1,7,34.34a8.5,8.5,0,0,0,.18,1.58,9.55,9.55,0,0,0,.46,1.52A1.45,1.45,0,0,1,7.05,37.25ZM22.49,49.18l-3.07.63-3.34-7.46h0l3.06-.63Zm-6.61-7.81c-3.5.72-7-1.82-7.77-5.65A7.41,7.41,0,0,1,9,30.4a6.18,6.18,0,0,1,4-2.94l4.86-1a6.42,6.42,0,0,0-.41,1.69,17.72,17.72,0,0,0,.34,5.58c.56,2.75,1.64,5.42,2.92,6.64Zm5.84-1.49c-.91-.63-2.22-2.89-2.93-6.35a16.6,16.6,0,0,1-.33-5.26A4.26,4.26,0,0,1,19,26.53a29.51,29.51,0,0,0,13.75-8.2,26.69,26.69,0,0,0-.25,7.92.5.5,0,0,0,0,.34l0,.05c.14,1.3.34,2.63.61,3.94s.61,2.61,1,3.87c0,0,0,0,0,.06a.54.54,0,0,0,.13.31A27.22,27.22,0,0,0,37.57,42,29.5,29.5,0,0,0,21.72,39.88ZM35,34c-.33-1.12-.64-2.31-.9-3.57s-.44-2.48-.58-3.64c.09,0,.17-.06.25-.07a3.7,3.7,0,1,1,1.49,7.25A2.06,2.06,0,0,1,35,34Zm6.55,9.71a1.42,1.42,0,0,1-.54,0l-1.12-.57c-1.51-1.19-3.25-4.08-4.59-8.15l.16,0a4.7,4.7,0,0,0-1.89-9.21l-.15,0c-.38-4.27.08-7.61,1-9.3.27-.31.53-.62.79-.95a1.49,1.49,0,0,1,.51-.24,1.09,1.09,0,0,1,.26,0c1.06,0,2.37,1.21,3.64,3.37a33.6,33.6,0,0,1,3.54,9.94C44.89,36.89,43.7,43.22,41.56,43.66Z" style="fill:#c52228"/><path d="M48.13,24.1A9.36,9.36,0,0,0,46,21.22a.12.12,0,0,0-.16,0,.12.12,0,0,0,0,.16,18.25,18.25,0,0,1,1.52,3.07,18.72,18.72,0,0,1,.89,3.25,17.58,17.58,0,0,1,.29,3.36,13.7,13.7,0,0,1-.46,3.37.13.13,0,0,0,.07.15h.05a.14.14,0,0,0,.11-.06,8.32,8.32,0,0,0,1.1-3.41,12.1,12.1,0,0,0-.12-3.6A12.5,12.5,0,0,0,48.13,24.1Z" style="fill:#c52228"/><path d="M53.54,26.61a20.61,20.61,0,0,0-.7-2.65,18.49,18.49,0,0,0-1.08-2.52,13.55,13.55,0,0,0-3.39-4.27.12.12,0,0,0-.16,0,.12.12,0,0,0,0,.17A18.69,18.69,0,0,1,51,21.82a21.2,21.2,0,0,1,.91,2.45,23,23,0,0,1,.63,2.54,19.87,19.87,0,0,1,.33,2.59,20.45,20.45,0,0,1,0,2.61,15,15,0,0,1-1.17,5.09.12.12,0,0,0,.05.16l.06,0a.11.11,0,0,0,.1-.06,11.64,11.64,0,0,0,1.83-5.13,16.49,16.49,0,0,0,.12-2.75A20,20,0,0,0,53.54,26.61Z" style="fill:#c52228"/><path d="M57.91,25.7a24.74,24.74,0,0,0-1-3.53,21,21,0,0,0-1.54-3.32,17.14,17.14,0,0,0-2.13-3,12.83,12.83,0,0,0-2.77-2.35.13.13,0,0,0-.15.2,17.41,17.41,0,0,1,4.28,5.54A23.43,23.43,0,0,1,56,22.5a23.7,23.7,0,0,1,.88,3.4,25.62,25.62,0,0,1,.42,3.48,21.08,21.08,0,0,1-.11,3.49,16.89,16.89,0,0,1-.74,3.42,12,12,0,0,1-1.56,3.15.14.14,0,0,0,0,.17.11.11,0,0,0,.08,0,.18.18,0,0,0,.09,0,10.64,10.64,0,0,0,2-3.08,15.76,15.76,0,0,0,1-3.52,19.68,19.68,0,0,0,.25-3.66A24.93,24.93,0,0,0,57.91,25.7Z" style="fill:#c52228"/></svg>