<svg id="Layer_1" data-name="Layer 1" xmlns="http://www.w3.org/2000/svg" viewBox="0 0 64 64"><path d="M28,40.4H12.54V17.62h3.22v2.5a.5.5,0,0,0,.5.5.5.5,0,0,0,.5-.5v-2.5H30.09v2.5a.5.5,0,0,0,.5.5.5.5,0,0,0,.5-.5v-2.5h3.22v8a.5.5,0,0,0,.5.5.5.5,0,0,0,.5-.5V17.12a.5.5,0,0,0-.5-.5H31.09V15.51A7.66,7.66,0,0,0,19.81,8.75a7.54,7.54,0,0,0-3.6-.91,7.66,7.66,0,0,0-7.67,7.67v1.11H6a.5.5,0,0,0-.5.5V40.91a.5.5,0,0,0,.14.35.53.53,0,0,0,.36.15H28a.5.5,0,0,0,.5-.5A.5.5,0,0,0,28,40.4ZM22.88,16.62H16.76V15.51a6.67,6.67,0,0,1,3-5.6,6.68,6.68,0,0,1,3.07,5.6Zm.54-7.78a6.67,6.67,0,0,1,6.67,6.67v1.11H23.88V15.51A7.68,7.68,0,0,0,20.8,9.38,6.71,6.71,0,0,1,23.42,8.84ZM9.54,15.51a6.67,6.67,0,0,1,6.67-6.67,6.74,6.74,0,0,1,2.62.54,7.67,7.67,0,0,0-3.07,6.13v1.11H9.54Zm-3,2.11h5V40.4h-5Z" style="fill:#c52228"/><path d="M53.22,49.75a.5.5,0,0,0,0-1H32.85a2,2,0,0,1,0-4.08.48.48,0,0,0,.24-.07L49.43,43a.5.5,0,0,0,.45-.55.52.52,0,0,0-.55-.45L32.82,43.62,31.55,30.14H54.68l-1.07,6.52a.5.5,0,1,0,1,.16l1.18-7.1a.52.52,0,0,0-.5-.58H31.45l-.37-3.93a.49.49,0,0,0-.49-.45H25.13a.5.5,0,0,0-.5.5.51.51,0,0,0,.5.5h5l1.33,14h0l.38,4a3,3,0,0,0,1,5.89Z" style="fill:#c52228"/><path d="M51.62,51.67a2.25,2.25,0,1,0,2.25,2.25A2.25,2.25,0,0,0,51.62,51.67Zm0,3.49a1.25,1.25,0,1,1,1.25-1.24A1.25,1.25,0,0,1,51.62,55.16Z" style="fill:#c52228"/><path d="M34.8,51.67A2.25,2.25,0,1,0,37,53.92,2.25,2.25,0,0,0,34.8,51.67Zm0,3.49A1.25,1.25,0,1,1,36,53.92,1.25,1.25,0,0,1,34.8,55.16Z" style="fill:#c52228"/><path d="M49.93,32.92V35a.5.5,0,0,0,.5.5.5.5,0,0,0,.5-.5V32.92a.51.51,0,0,0-.5-.5A.5.5,0,0,0,49.93,32.92Z" style="fill:#c52228"/><path d="M44.49,38.36a.5.5,0,1,0,0,1h2a.5.5,0,1,0,0-1Z" style="fill:#c52228"/><path d="M48.18,37.12a.5.5,0,0,0,.35-.85l-1.45-1.45a.5.5,0,0,0-.71,0,.5.5,0,0,0,0,.7L47.83,37A.5.5,0,0,0,48.18,37.12Z" style="fill:#c52228"/><path d="M58.32,44.23l-2-1.95,1.38-.73a.49.49,0,0,0,.26-.48.5.5,0,0,0-.33-.44l-7.34-2.49a.5.5,0,0,0-.64.63l2.5,7.34a.5.5,0,0,0,.43.34.48.48,0,0,0,.48-.27l.74-1.37,1.94,1.94a.51.51,0,0,0,.36.15.5.5,0,0,0,.35-.15l1.82-1.82A.5.5,0,0,0,58.32,44.23Zm-2.17,1.46-2.08-2.07a.51.51,0,0,0-.35-.15h-.07a.48.48,0,0,0-.37.26l-.51.95L51,39.41l5.28,1.8-1,.5a.58.58,0,0,0-.26.37.49.49,0,0,0,.15.43l2.07,2.07Z" style="fill:#c52228"/></svg>