<?xml version="1.0" encoding="utf-8"?>
<!-- Generator: Adobe Illustrator 24.0.0, SVG Export Plug-In . SVG Version: 6.00 Build 0)  -->
<svg version="1.1" id="Layer_1" xmlns="http://www.w3.org/2000/svg" xmlns:xlink="http://www.w3.org/1999/xlink" x="0px" y="0px"
	 viewBox="0 0 64 64" style="enable-background:new 0 0 64 64;" xml:space="preserve">
<style type="text/css">
	.st0{fill:#FFFFFF;stroke:#000000;stroke-miterlimit:10;}
	.st1{fill:none;stroke:#000000;stroke-miterlimit:10;}
	.st2{fill:none;stroke:#C52228;stroke-miterlimit:10;}
	.st3{fill:#C52228;}
</style>
<g>
	<path class="st3" d="M45,15.9c0.4-0.4,0.4-1,0-1.4c-0.4-0.4-1-0.4-1.4,0c-0.4,0.4-0.4,1,0,1.4C44,16.3,44.7,16.3,45,15.9z"/>
	<circle class="st3" cx="40.6" cy="15.2" r="0.7"/>
	<path class="st3" d="M48.9,9.5H14.8c-0.3,0-0.5,0.2-0.5,0.5v10.3c0,0.3,0.2,0.5,0.5,0.5h14.5v5.5H14.8c-0.3,0-0.5,0.2-0.5,0.5v10.3
		c0,0.3,0.2,0.5,0.5,0.5h14.5v5.5H14.8c-0.3,0-0.5,0.2-0.5,0.5V54c0,0.3,0.2,0.5,0.5,0.5h34.1c0.3,0,0.5-0.2,0.5-0.5V43.7
		c0-0.3-0.2-0.5-0.5-0.5H34.3v-5.5h14.6c0.3,0,0.5-0.2,0.5-0.5V26.9c0-0.3-0.2-0.5-0.5-0.5H34.3v-5.5h14.6c0.3,0,0.5-0.2,0.5-0.5V10
		C49.4,9.7,49.2,9.5,48.9,9.5z M48.4,53.5H15.3v-9.3h33.1V53.5z M33.3,43.2h-3v-5.5h3V43.2z M48.4,36.7H33.9c0,0,0,0,0,0s0,0,0,0h-4
		c0,0,0,0,0,0s0,0,0,0H15.3v-9.3h33.1V36.7z M33.3,26.4h-3v-5.5h3V26.4z M48.4,19.9H15.3v-9.3h33.1V19.9z"/>
	<path class="st3" d="M45,32.7c0.4-0.4,0.4-1,0-1.4c-0.4-0.4-1-0.4-1.4,0c-0.4,0.4-0.4,1,0,1.4C44,33.1,44.7,33.1,45,32.7z"/>
	<circle class="st3" cx="40.6" cy="32" r="0.8"/>
	<path class="st3" d="M45,49.6c0.4-0.4,0.4-1,0-1.4s-1-0.4-1.4,0c-0.4,0.4-0.4,1,0,1.4C44,49.9,44.7,49.9,45,49.6z"/>
	<path class="st3" d="M41.1,49.4c0.3-0.3,0.3-0.8,0-1.1c-0.3-0.3-0.8-0.3-1.1,0c-0.3,0.3-0.3,0.8,0,1.1S40.8,49.7,41.1,49.4z"/>
	<path class="st3" d="M61.5,9.5c-1.8,0-3.3-1.5-3.3-3.3c0-0.3-0.2-0.5-0.5-0.5S57.3,6,57.3,6.3c0,1.8-1.5,3.3-3.3,3.3
		c-0.3,0-0.5,0.2-0.5,0.5s0.2,0.5,0.5,0.5c1.8,0,3.3,1.5,3.3,3.3c0,0.3,0.2,0.5,0.5,0.5s0.5-0.2,0.5-0.5c0-1.8,1.5-3.3,3.3-3.3
		c0.3,0,0.5-0.2,0.5-0.5S61.8,9.5,61.5,9.5z M57.8,11.8c-0.4-0.7-1-1.4-1.8-1.8c0.7-0.4,1.4-1,1.8-1.8c0.4,0.7,1,1.4,1.8,1.8
		C58.8,10.4,58.1,11,57.8,11.8z"/>
	<path class="st3" d="M54.1,16.7c0-0.1-0.2-0.1-0.2,0c-0.2,0.8-0.9,1.4-1.7,1.7c-0.1,0-0.1,0.2,0,0.2c0.8,0.2,1.4,0.9,1.7,1.7
		c0,0.1,0.2,0.1,0.2,0c0.2-0.8,0.9-1.4,1.7-1.7c0.1,0,0.1-0.2,0-0.2C55,18.1,54.4,17.5,54.1,16.7z"/>
	<path class="st3" d="M60.6,15.7c0-0.1-0.1-0.1-0.1,0c-0.1,0.4-0.4,0.7-0.8,0.8c-0.1,0-0.1,0.1,0,0.1c0.4,0.1,0.7,0.4,0.8,0.8
		c0,0.1,0.1,0.1,0.1,0c0.1-0.4,0.4-0.7,0.8-0.8c0.1,0,0.1-0.1,0-0.1C61.1,16.4,60.7,16.1,60.6,15.7z"/>
	<path class="st3" d="M10,53.5c-1.8,0-3.3-1.5-3.3-3.3c0-0.3-0.2-0.5-0.5-0.5S5.7,50,5.7,50.2c0,1.8-1.5,3.3-3.3,3.3
		C2.2,53.5,2,53.7,2,54s0.2,0.5,0.5,0.5c1.8,0,3.3,1.5,3.3,3.3c0,0.3,0.2,0.5,0.5,0.5s0.5-0.2,0.5-0.5c0-1.8,1.5-3.3,3.3-3.3
		c0.3,0,0.5-0.2,0.5-0.5S10.3,53.5,10,53.5z M6.2,55.7c-0.4-0.7-1-1.4-1.8-1.8c0.7-0.4,1.4-1,1.8-1.8C6.6,53,7.3,53.6,8,54
		C7.3,54.4,6.6,55,6.2,55.7z"/>
	<path class="st3" d="M10.1,43.7c0-0.1-0.2-0.1-0.2,0c-0.2,0.8-0.9,1.4-1.7,1.7c-0.1,0-0.1,0.2,0,0.2c0.8,0.2,1.4,0.9,1.7,1.7
		c0,0.1,0.2,0.1,0.2,0c0.2-0.8,0.9-1.4,1.7-1.7c0.1,0,0.1-0.2,0-0.2C11,45.2,10.4,44.5,10.1,43.7z"/>
	<path class="st3" d="M3.4,48.3c0,0.1,0.1,0.1,0.1,0c0.1-0.4,0.4-0.7,0.8-0.8c0.1,0,0.1-0.1,0-0.1c-0.4-0.1-0.7-0.4-0.8-0.8
		c0-0.1-0.1-0.1-0.1,0c-0.1,0.4-0.4,0.7-0.8,0.8c-0.1,0-0.1,0.1,0,0.1C2.9,47.6,3.3,47.9,3.4,48.3z"/>
</g>
</svg>
