<svg xmlns="http://www.w3.org/2000/svg" viewBox="0 0 95.42 83.43"><g id="Layer_2" data-name="Layer 2"><g id="Layer_1-2" data-name="Layer 1"><path d="M6,42.14a3,3,0,0,0-.41-.53A3,3,0,0,0,.38,43.77v3H5.81" style="fill:none;stroke:#c42229;stroke-linecap:round;stroke-linejoin:round;stroke-width:0.75px"/><circle cx="3.41" cy="38.58" r="2.14" style="fill:none;stroke:#c42229;stroke-linecap:round;stroke-linejoin:round;stroke-width:0.75px"/><path d="M14.67,42a3,3,0,0,1,4.6-.36,3.07,3.07,0,0,1,.89,2.16v3H14.9" style="fill:none;stroke:#c42229;stroke-linecap:round;stroke-linejoin:round;stroke-width:0.75px"/><circle cx="17.13" cy="38.58" r="2.14" style="fill:none;stroke:#c42229;stroke-linecap:round;stroke-linejoin:round;stroke-width:0.75px"/><path d="M10.35,38.84h0a4.55,4.55,0,0,1,4.55,4.55v4.55a0,0,0,0,1,0,0H5.8a0,0,0,0,1,0,0V43.39A4.55,4.55,0,0,1,10.35,38.84Z" style="fill:none;stroke:#c42229;stroke-linecap:round;stroke-linejoin:round;stroke-width:0.75px"/><circle cx="10.35" cy="35.64" r="3.21" style="fill:none;stroke:#c42229;stroke-linecap:round;stroke-linejoin:round;stroke-width:0.75px"/><rect x="60.47" y="0.38" width="4.21" height="11.11" style="fill:none;stroke:#c42229;stroke-linecap:round;stroke-linejoin:round;stroke-width:0.75px"/><rect x="66.63" y="2.94" width="4.21" height="8.54" style="fill:none;stroke:#c42229;stroke-linecap:round;stroke-linejoin:round;stroke-width:0.75px"/><rect x="72.8" y="5.51" width="4.21" height="5.97" style="fill:none;stroke:#c42229;stroke-linecap:round;stroke-linejoin:round;stroke-width:0.75px"/><polyline points="57.21 0.38 57.21 14.17 77.01 14.17" style="fill:none;stroke:#c42229;stroke-linecap:round;stroke-linejoin:round;stroke-width:0.75px"/><path d="M22.79,3.25h1.65L27.76,12H26.24l-.87-2.25H21.85L21,12H19.45ZM25.12,8.6l-1.52-4-1.52,4Z" style="fill:#c52228"/><path d="M29.48,3.25h3.9a2.8,2.8,0,0,1,2.19.8,3,3,0,0,1,.74,2.11,2.81,2.81,0,0,1-.81,2.1A3,3,0,0,1,33.32,9H31v3H29.48Zm3.57,4.63a1.82,1.82,0,0,0,1.32-.46,1.67,1.67,0,0,0,.46-1.26,1.83,1.83,0,0,0-.44-1.3,1.63,1.63,0,0,0-1.27-.46H31V7.88Z" style="fill:#c52228"/><path d="M37.76,3.25h1.48V12H37.76Z" style="fill:#c52228"/><path d="M34.75,71V68.53a5.27,5.27,0,0,0-10.54,0V71" style="fill:none;stroke:#c42229;stroke-linecap:round;stroke-linejoin:round;stroke-width:0.75px"/><rect x="20.71" y="70.96" width="17.54" height="12.1" style="fill:none;stroke:#c42229;stroke-linecap:round;stroke-linejoin:round;stroke-width:0.75px"/><path d="M30.43,77.77v-.71a1.34,1.34,0,1,0-1.9-1.9,1.33,1.33,0,0,0,0,1.9v3.08h1.9V79" style="fill:none"/><circle cx="85.15" cy="40.19" r="9.9" style="fill:none;stroke:#c42229;stroke-linecap:round;stroke-linejoin:round;stroke-width:0.75px"/><ellipse cx="85.15" cy="40.19" rx="4.21" ry="9.9" style="fill:none;stroke:#c42229;stroke-linecap:round;stroke-linejoin:round;stroke-width:0.75px"/><polyline points="77.15 34.35 81.54 34.35 81.74 34.35 88.55 34.35 88.76 34.35 93.14 34.35" style="fill:none;stroke:#c42229;stroke-linecap:round;stroke-linejoin:round;stroke-width:0.75px"/><polyline points="77.15 46.02 81.74 46.02 82 46.02 88.3 46.02 88.55 46.02 93.14 46.02" style="fill:none;stroke:#c42229;stroke-linecap:round;stroke-linejoin:round;stroke-width:0.75px"/><polyline points="75.25 40.19 80.93 40.19 89.36 40.19 95.05 40.19" style="fill:none;stroke:#c42229;stroke-linecap:round;stroke-linejoin:round;stroke-width:0.75px"/><line x1="61.04" y1="62.25" x2="55.82" y2="52.07" style="fill:none;stroke:#c42229;stroke-linecap:round;stroke-linejoin:round;stroke-width:0.75px"/><line x1="42.08" y1="30.48" x2="34.15" y2="15.61" style="fill:none;stroke:#c42229;stroke-linecap:round;stroke-linejoin:round;stroke-width:0.75px"/><line x1="40.83" y1="52.07" x2="35.6" y2="62.25" style="fill:none;stroke:#c42229;stroke-linecap:round;stroke-linejoin:round;stroke-width:0.75px"/><line x1="61.57" y1="17.28" x2="55.23" y2="29.37" style="fill:none;stroke:#c42229;stroke-linecap:round;stroke-linejoin:round;stroke-width:0.75px"/><line x1="72.8" y1="40.19" x2="67.01" y2="40.19" style="fill:none;stroke:#c42229;stroke-linecap:round;stroke-linejoin:round;stroke-width:0.75px"/><line x1="32.48" y1="40.19" x2="22.08" y2="40.19" style="fill:none;stroke:#c42229;stroke-linecap:round;stroke-linejoin:round;stroke-width:0.75px"/><path d="M59.21,49a5.13,5.13,0,1,0-2.35-9.68,5.17,5.17,0,0,0,0-.57,7.42,7.42,0,0,0-14.75-1.12,4.22,4.22,0,0,0-1.71-.36,4.31,4.31,0,0,0-4.31,4.31,4.15,4.15,0,0,0,.21,1.32,3.09,3.09,0,0,0-.86-.13,3.12,3.12,0,1,0,0,6.23Z" style="fill:none;stroke:#c42229;stroke-linecap:round;stroke-linejoin:round;stroke-width:0.75px"/><path d="M75,75.49h1.74a9.68,9.68,0,0,0,0-4.51H75a8.53,8.53,0,0,0-.7-1.75L75.56,68a10.25,10.25,0,0,0-1.39-1.79A9.43,9.43,0,0,0,72.4,64.8L71.16,66a8.71,8.71,0,0,0-1.73-.73V63.54a9.77,9.77,0,0,0-4.5,0v1.74a8,8,0,0,0-1.75.69L62,64.7a9.85,9.85,0,0,0-1.79,1.4,8.83,8.83,0,0,0-1.42,1.77L60,69.11a8.16,8.16,0,0,0-.73,1.72H57.5a9.68,9.68,0,0,0,0,4.51h1.73a8.52,8.52,0,0,0,.72,1.74L58.66,78.3a9.37,9.37,0,0,0,1.39,1.79,8.54,8.54,0,0,0,1.77,1.43l1.24-1.22a7.7,7.7,0,0,0,1.72.74v1.73a9.68,9.68,0,0,0,4.51,0V81.07a7.29,7.29,0,0,0,1.74-.7l1.22,1.24A9.56,9.56,0,0,0,74,80.22a9.18,9.18,0,0,0,1.43-1.77l-1.22-1.24A7.6,7.6,0,0,0,75,75.49Zm-5.54.05a3.34,3.34,0,1,1,0-4.73A3.31,3.31,0,0,1,69.44,75.54Z" style="fill:none;stroke:#c42229;stroke-linecap:round;stroke-linejoin:round;stroke-width:0.75px"/></g></g></svg>