<svg id="Layer_1" data-name="Layer 1" xmlns="http://www.w3.org/2000/svg" viewBox="0 0 64 64"><title>EXPORT_IMH-icon-set</title><path d="M19.51,41.89a3.39,3.39,0,1,0-2.4,1A3.38,3.38,0,0,0,19.51,41.89Zm-4.08-4.08a2.4,2.4,0,0,1,3.37,0,2.39,2.39,0,1,1-3.37,0Z" style="fill:#c52228"/><path d="M57.39,25.22H10a.5.5,0,0,0-.5.5V53.28a.5.5,0,0,0,.5.5H46.25V61.5a.5.5,0,0,0,.5.5h11.1A4.15,4.15,0,0,0,62,57.85v-28A4.62,4.62,0,0,0,57.39,25.22Zm-46.89,1H57.39A3.61,3.61,0,0,1,61,29.83v24.7a4.6,4.6,0,0,0-3.61-1.75H10.5ZM61,57.85A3.15,3.15,0,0,1,57.85,61H47.25V53.78H57.39A3.61,3.61,0,0,1,61,57.39Z" style="fill:#c52228"/><path d="M6,39H2.5a.5.5,0,0,0,0,1H6a.5.5,0,0,0,0-1Z" style="fill:#c52228"/><path d="M6,43H2.5a.5.5,0,0,0,0,1H6a.5.5,0,0,0,0-1Z" style="fill:#c52228"/><path d="M6,35H2.5a.5.5,0,0,0,0,1H6a.5.5,0,0,0,0-1Z" style="fill:#c52228"/><path d="M42.75,56.89h-3.5a.5.5,0,0,0-.5.5.5.5,0,0,0,.5.5h3.5a.5.5,0,0,0,.5-.5A.5.5,0,0,0,42.75,56.89Z" style="fill:#c52228"/><path d="M42.75,60.89h-3.5a.5.5,0,0,0-.5.5.5.5,0,0,0,.5.5h3.5a.5.5,0,0,0,.5-.5A.5.5,0,0,0,42.75,60.89Z" style="fill:#c52228"/><path d="M42.69,37.06a.5.5,0,0,0,.5.5.5.5,0,0,0,.5-.5,2.94,2.94,0,0,0-2.44-2.89v-.55a.5.5,0,0,0-1,0v.55a2.93,2.93,0,0,0,0,5.78V43.8a1.93,1.93,0,0,1-1.44-1.86.5.5,0,0,0-.5-.5.5.5,0,0,0-.5.5,2.94,2.94,0,0,0,2.44,2.89v.55a.5.5,0,0,0,1,0v-.55a2.93,2.93,0,0,0,0-5.78V35.2A1.93,1.93,0,0,1,42.69,37.06Zm-3.88,0a1.93,1.93,0,0,1,1.44-1.86v3.73A1.94,1.94,0,0,1,38.81,37.06Zm3.88,4.88a1.93,1.93,0,0,1-1.44,1.86V40.07A1.94,1.94,0,0,1,42.69,41.94Z" style="fill:#c52228"/><path d="M17.11,35.12a.5.5,0,0,0,.5-.5V33.07a3.39,3.39,0,0,0,2.85-2.85h35a.5.5,0,0,0,0-1H20a.5.5,0,0,0-.5.5,2.41,2.41,0,0,1-2.39,2.39.5.5,0,0,0-.5.5v2A.5.5,0,0,0,17.11,35.12Z" style="fill:#c52228"/><path d="M56,49.28a.5.5,0,0,0-.5-.5h-35a3.26,3.26,0,0,0-.95-1.89,3.4,3.4,0,0,0-1.9-1V44.38a.5.5,0,0,0-1,0v2a.5.5,0,0,0,.5.5,2.41,2.41,0,0,1,2.39,2.39.5.5,0,0,0,.5.5H55.5A.5.5,0,0,0,56,49.28Z" style="fill:#c52228"/><path d="M56.5,57H50.75a.5.5,0,0,0,0,1H56.5a.5.5,0,0,0,0-1Z" style="fill:#c52228"/></svg>