<svg id="Layer_1" data-name="Layer 1" xmlns="http://www.w3.org/2000/svg" viewBox="0 0 64 64"><title>-</title><path d="M37.81,11.76a1,1,0,0,0,0,1.41,1,1,0,0,0,1.42,0,1,1,0,0,0,0-1.41A1,1,0,0,0,37.81,11.76Z" style="fill:#c52228"/><circle cx="34.77" cy="12.47" r="0.75" style="fill:#c52228"/><path d="M34.41,50.8H9.48V41.46H34.1a.5.5,0,0,0,.5-.5.5.5,0,0,0-.5-.5H28.54V35H43.08a.5.5,0,0,0,.5-.5V24.13a.5.5,0,0,0-.5-.5H28.54v-5.5H43.08a.5.5,0,0,0,.5-.5V7.3a.5.5,0,0,0-.5-.5H9a.5.5,0,0,0-.5.5V17.63a.5.5,0,0,0,.5.5H23.54v5.5H9a.51.51,0,0,0-.5.5V34.47A.51.51,0,0,0,9,35H23.54v5.49H9a.5.5,0,0,0-.5.5V51.3a.5.5,0,0,0,.5.5H34.41a.5.5,0,0,0,.5-.5A.5.5,0,0,0,34.41,50.8ZM9.48,7.8h33.1v9.33H9.48ZM24.54,18.13h3v5.5h-3ZM9.48,24.63h33.1V34H9.48ZM24.54,35h3v5.49h-3Z" style="fill:#c52228"/><circle cx="38.52" cy="29.3" r="1" style="fill:#c52228"/><circle cx="34.77" cy="29.3" r="0.75" style="fill:#c52228"/><path d="M54.61,43.74a.5.5,0,0,0-.56-.27l-1.16.25a6.7,6.7,0,0,0-.6-.87l.65-1a.51.51,0,0,0-.06-.62,10.07,10.07,0,0,0-1.67-1.37,8.58,8.58,0,0,0-2-1,.49.49,0,0,0-.58.19l-.65,1a9.43,9.43,0,0,0-1-.18l-.25-1.18a.5.5,0,0,0-.48-.39,9.5,9.5,0,0,0-4.2.91.49.49,0,0,0-.27.55L42,41a7.46,7.46,0,0,0-.87.6l-1-.65a.5.5,0,0,0-.62.06,8.91,8.91,0,0,0-1.37,1.67,8.17,8.17,0,0,0-1,2,.49.49,0,0,0,.2.58l1,.65a8.89,8.89,0,0,0-.19,1l-1.17.25a.5.5,0,0,0-.39.48,9.35,9.35,0,0,0,.9,4.2.5.5,0,0,0,.55.28l1.18-.26a7.46,7.46,0,0,0,.6.87l-.65,1a.48.48,0,0,0,.06.61A9,9,0,0,0,41,55.68a8.13,8.13,0,0,0,2,1,.49.49,0,0,0,.58-.2l.65-1a6.7,6.7,0,0,0,1,.19l.25,1.17a.51.51,0,0,0,.48.4h.19a9.3,9.3,0,0,0,4-.91.52.52,0,0,0,.28-.56l-.26-1.16A6.7,6.7,0,0,0,51,54l1,.65a.51.51,0,0,0,.62-.06A10,10,0,0,0,54,52.89a8.8,8.8,0,0,0,1-2,.49.49,0,0,0-.2-.58l-1-.65a7.45,7.45,0,0,0,.19-1l1.17-.25a.51.51,0,0,0,.4-.48A9.48,9.48,0,0,0,54.61,43.74Zm-1.24,4a.5.5,0,0,0-.39.46,6.32,6.32,0,0,1-.28,1.54.5.5,0,0,0,.21.57l1,.63a9.07,9.07,0,0,1-.72,1.37,8,8,0,0,1-1,1.21l-1-.63a.51.51,0,0,0-.61,0,6.05,6.05,0,0,1-1.28.88.5.5,0,0,0-.26.55l.24,1.14a8.41,8.41,0,0,1-3,.65l-.24-1.14a.52.52,0,0,0-.46-.39,6.89,6.89,0,0,1-1.54-.29l-.15,0a.48.48,0,0,0-.42.23l-.63,1a7.81,7.81,0,0,1-1.37-.72,8.58,8.58,0,0,1-1.21-1l.63-1a.5.5,0,0,0,0-.6A6.85,6.85,0,0,1,40,51a.5.5,0,0,0-.55-.25L38.31,51a8.31,8.31,0,0,1-.64-3l1.13-.24a.52.52,0,0,0,.4-.46,6.72,6.72,0,0,1,.28-1.55.5.5,0,0,0-.21-.56l-1-.63A7.44,7.44,0,0,1,39,43.2,8,8,0,0,1,40,42l1,.63a.5.5,0,0,0,.6,0,6.11,6.11,0,0,1,1.3-.89.51.51,0,0,0,.26-.55L42.85,40a8.46,8.46,0,0,1,3-.65l.24,1.13a.51.51,0,0,0,.45.4,7,7,0,0,1,1.57.28.53.53,0,0,0,.56-.21l.63-1a8.74,8.74,0,0,1,1.36.7,10.53,10.53,0,0,1,1.22,1l-.63,1a.51.51,0,0,0,0,.6,6.85,6.85,0,0,1,.91,1.3.5.5,0,0,0,.54.26l1.13-.25a8.46,8.46,0,0,1,.65,3Z" style="fill:#c52228"/><path d="M48,44.82a3.52,3.52,0,0,0-4.86,1,3.51,3.51,0,0,0,3,5.41,3.61,3.61,0,0,0,.73-.07A3.52,3.52,0,0,0,48,44.82Zm.2,4.31h0a2.52,2.52,0,0,1-1.59,1.09,2.49,2.49,0,0,1-1.88-.35,2.54,2.54,0,0,1-1.1-1.58A2.47,2.47,0,0,1,44,46.41a2.54,2.54,0,0,1,2.12-1.15,2.45,2.45,0,0,1,1.35.4A2.51,2.51,0,0,1,48.2,49.13Z" style="fill:#c52228"/></svg>