<svg id="Layer_1" data-name="Layer 1" xmlns="http://www.w3.org/2000/svg" viewBox="0 0 64 64"><path d="M56,12H52.55V8.47a.51.51,0,0,0-.5-.5h-13a7.85,7.85,0,0,0-5.6,2.32l-1.56,1.56-1.57-1.56A7.83,7.83,0,0,0,24.75,8H12a.5.5,0,0,0-.5.5V12H8a.5.5,0,0,0-.5.5v40A.51.51,0,0,0,8,53H27.06a.51.51,0,0,0,.5-.5.5.5,0,0,0-.5-.5H8.49V13h3V49a.5.5,0,0,0,.5.5H24.75a6.87,6.87,0,0,1,4.88,2l1.92,1.92a.52.52,0,0,0,.71,0l1.92-1.92a6.89,6.89,0,0,1,4.88-2H41V52H36.47a.5.5,0,0,0-.5.5.5.5,0,0,0,.5.5H41v2.56a.5.5,0,0,0,.3.45.48.48,0,0,0,.53-.08l2-1.71,2,1.71A.46.46,0,0,0,46,56a.46.46,0,0,0,.2-.05.5.5,0,0,0,.3-.45V53H56a.5.5,0,0,0,.5-.5v-40A.5.5,0,0,0,56,12ZM33.48,50.76l-1.57,1.57-1.57-1.57a7.86,7.86,0,0,0-5.59-2.31H12.46V9H24.75a6.84,6.84,0,0,1,4.88,2l1.78,1.77.09,34.66a.51.51,0,0,0,.5.5h0a.51.51,0,0,0,.5-.51l-.09-34.65L34.18,11a6.86,6.86,0,0,1,4.89-2H51.55v3.47h0v36H39.06A7.84,7.84,0,0,0,33.48,50.76Zm10.6,2.39a.51.51,0,0,0-.66,0L42,54.43v-2h0v-3h3.58v3h0v2ZM55.49,52h-9V49.45h5.51a.5.5,0,0,0,.5-.5V13h2.94Z" style="fill:#c52228"/><path d="M28,22.89H16a.5.5,0,0,0-.5.5.5.5,0,0,0,.5.5H28a.5.5,0,0,0,.5-.5A.5.5,0,0,0,28,22.89Z" style="fill:#c52228"/><path d="M28,13.89H16a.5.5,0,0,0-.5.5v5a.5.5,0,0,0,.5.5H28a.5.5,0,0,0,.5-.5v-5A.5.5,0,0,0,28,13.89Zm-.5,5h-11v-4h11Z" style="fill:#c52228"/><path d="M28,26.89H16a.5.5,0,0,0-.5.5.5.5,0,0,0,.5.5H28a.5.5,0,0,0,.5-.5A.5.5,0,0,0,28,26.89Z" style="fill:#c52228"/><path d="M28,30.89H16a.5.5,0,0,0-.5.5.5.5,0,0,0,.5.5H28a.5.5,0,0,0,.5-.5A.5.5,0,0,0,28,30.89Z" style="fill:#c52228"/><path d="M28,37.89H16a.5.5,0,0,0-.5.5.5.5,0,0,0,.5.5H28a.5.5,0,0,0,.5-.5A.5.5,0,0,0,28,37.89Z" style="fill:#c52228"/><path d="M28,41.89H16a.5.5,0,0,0-.5.5.5.5,0,0,0,.5.5H28a.5.5,0,0,0,.5-.5A.5.5,0,0,0,28,41.89Z" style="fill:#c52228"/><path d="M48.05,32.89H36a.5.5,0,0,0-.5.5.51.51,0,0,0,.5.5h12a.51.51,0,0,0,.5-.5A.5.5,0,0,0,48.05,32.89Z" style="fill:#c52228"/><path d="M48.05,36.89H36a.5.5,0,0,0-.5.5v5a.51.51,0,0,0,.5.5h12a.51.51,0,0,0,.5-.5v-5A.5.5,0,0,0,48.05,36.89Zm-.5,5h-11v-4h11Z" style="fill:#c52228"/><path d="M48.05,28.89H36a.5.5,0,0,0-.5.5.51.51,0,0,0,.5.5h12a.51.51,0,0,0,.5-.5A.5.5,0,0,0,48.05,28.89Z" style="fill:#c52228"/><path d="M48.05,24.89H36a.5.5,0,0,0-.5.5.51.51,0,0,0,.5.5h12a.51.51,0,0,0,.5-.5A.5.5,0,0,0,48.05,24.89Z" style="fill:#c52228"/><path d="M48.05,17.89H36a.5.5,0,0,0-.5.5.51.51,0,0,0,.5.5h12a.51.51,0,0,0,.5-.5A.5.5,0,0,0,48.05,17.89Z" style="fill:#c52228"/><path d="M48.05,13.89H36a.5.5,0,0,0-.5.5.51.51,0,0,0,.5.5h12a.51.51,0,0,0,.5-.5A.5.5,0,0,0,48.05,13.89Z" style="fill:#c52228"/></svg>