<svg id="Layer_1" data-name="Layer 1" xmlns="http://www.w3.org/2000/svg" viewBox="0 0 64 64"><path d="M55.08,17.67a7.58,7.58,0,0,0-1.29-3.13l-3.13,3.13Z" style="fill:#c52228"/><path d="M47.11,17.47a.51.51,0,0,0,.36.15.5.5,0,0,0,.35-.15L52.27,13a.47.47,0,0,0,.14-.39.49.49,0,0,0-.2-.37,8.38,8.38,0,0,0-9.48,0,.51.51,0,0,0-.21.37.5.5,0,0,0,.14.39Zm4-4.72-3.66,3.66-3.66-3.66A7.41,7.41,0,0,1,51.13,12.75Z" style="fill:#c52228"/><path d="M46.06,27.09h.08a.5.5,0,0,0,.33-.12.49.49,0,0,0,.17-.38V19.54a.52.52,0,0,0-.14-.36l-5-5a.49.49,0,0,0-.4-.15.52.52,0,0,0-.36.21,8.23,8.23,0,0,0,5.32,12.84ZM41.23,15.33l4.41,4.41V26a7.23,7.23,0,0,1-4.41-10.65Z" style="fill:#c52228"/><path d="M55.57,20.4a.47.47,0,0,0-.11-.41.51.51,0,0,0-.38-.18H48.79a.5.5,0,0,0-.5.5V26.6a.46.46,0,0,0,.18.38.47.47,0,0,0,.32.12h.08A8.23,8.23,0,0,0,55.57,20.4ZM49.29,26V20.81h5.17A7.25,7.25,0,0,1,49.29,26Z" style="fill:#c52228"/><path d="M5.73,25.78a1.48,1.48,0,0,0,1-.42,1.45,1.45,0,0,0,.13-1.86L11,17.32a1.53,1.53,0,0,0,.36.07,1.6,1.6,0,0,0,.57-.11l3.74,4.19a1.53,1.53,0,1,0,2.86.75,1.54,1.54,0,0,0-.42-1.06l3-5.9a2.58,2.58,0,0,0,.72.12A2.62,2.62,0,1,0,20,14.61c.08.08.16.13.24.2l-3,5.92a1.44,1.44,0,0,0-.79.08l-3.75-4.22a1.49,1.49,0,0,0-.24-1.77,1.51,1.51,0,0,0-2.12,0,1.49,1.49,0,0,0-.13,1.94L6.06,22.94a1.46,1.46,0,0,0-1.36.36,1.45,1.45,0,0,0,1,2.48Zm15-14.15a1.62,1.62,0,0,1,2.28,0,1.61,1.61,0,0,1,.47,1.14,1.61,1.61,0,0,1-2.75,1.14A1.61,1.61,0,0,1,20.72,11.63Zm-3.33,11a.56.56,0,0,1-.76,0,.58.58,0,0,1-.11-.18l.12.13a.46.46,0,0,0,.43.16.52.52,0,0,0,.39-.26l.07-.14A.61.61,0,0,1,17.39,22.6Zm-6-7.21a.46.46,0,0,1,.35.14s0,0,0,0a.47.47,0,0,0-.38-.16Zm-.29.1-.1.09,0-.05Zm.21-.09a.44.44,0,0,0-.15,0A.44.44,0,0,1,11.29,15.4Z" style="fill:#c52228"/><path d="M35.68,27.6c-.22,0-.44,0-.66,0s-.44,0-.65,0c-4.42.43-7.81,5-8,5.2a.49.49,0,0,0,0,.59c.15.21,3.54,4.77,8,5.2a4.63,4.63,0,0,0,.65,0,4.87,4.87,0,0,0,.66,0c4.41-.43,7.8-5,8-5.2a.49.49,0,0,0,0-.59C43.48,32.6,40.09,28,35.68,27.6Zm3.88,5.5A4.54,4.54,0,1,1,35,28.56,4.54,4.54,0,0,1,39.56,33.1Zm-12.11,0a16.43,16.43,0,0,1,2.69-2.61,5.49,5.49,0,0,0,0,5.22A16.86,16.86,0,0,1,27.45,33.1ZM39.9,35.71a5.49,5.49,0,0,0,.66-2.61,5.44,5.44,0,0,0-.66-2.61,16.43,16.43,0,0,1,2.69,2.61A16.86,16.86,0,0,1,39.9,35.71Z" style="fill:#c52228"/><path d="M35,35.72a2.62,2.62,0,0,0,2.62-2.62,2.74,2.74,0,0,0,0-.5.52.52,0,0,0-.59-.4.51.51,0,0,0-.4.59,1.55,1.55,0,0,1,0,.31A1.62,1.62,0,1,1,35,31.47a1.36,1.36,0,0,1,.29,0,.51.51,0,0,0,.58-.4.5.5,0,0,0-.4-.58,2.42,2.42,0,0,0-.47-.05,2.63,2.63,0,0,0,0,5.25Z" style="fill:#c52228"/><path d="M47.45,30.78a.5.5,0,0,0-.5.5V41.86H28.46a.5.5,0,1,0,0,1h19a.5.5,0,0,0,.5-.5V31.28A.5.5,0,0,0,47.45,30.78Z" style="fill:#c52228"/><path d="M22.1,23.69v7a.5.5,0,0,0,.5.5.5.5,0,0,0,.5-.5V24.19H36.18a.5.5,0,0,0,0-1H22.6A.5.5,0,0,0,22.1,23.69Z" style="fill:#c52228"/><path d="M27.86,48.84H25V34.72a.5.5,0,0,0-.5-.5H20.79a.5.5,0,0,0-.5.5V48.84H18.54V38.38a.5.5,0,0,0-.5-.5H14.37a.51.51,0,0,0-.5.5V48.84H12.21V42.05a.5.5,0,0,0-.5-.5H8.05a.5.5,0,0,0-.5.5v6.79H4.64a.5.5,0,0,0-.5.5.5.5,0,0,0,.5.5H27.86a.5.5,0,0,0,.5-.5A.5.5,0,0,0,27.86,48.84ZM21.29,35.22H24V48.84H21.29Zm-6.42,3.66h2.67v10H14.87ZM8.55,42.55h2.66v6.29H8.55Z" style="fill:#c52228"/><path d="M23.86,52.84H8.64a.5.5,0,0,0-.5.5.5.5,0,0,0,.5.5H23.86a.5.5,0,0,0,.5-.5A.5.5,0,0,0,23.86,52.84Z" style="fill:#c52228"/><path d="M59.36,34.22H51.47a.5.5,0,0,0-.5.5.5.5,0,0,0,.5.5h7.89a.5.5,0,0,0,.5-.5A.5.5,0,0,0,59.36,34.22Z" style="fill:#c52228"/><path d="M55.36,38.22H51.47a.5.5,0,0,0-.5.5.5.5,0,0,0,.5.5h3.89a.5.5,0,0,0,.5-.5A.5.5,0,0,0,55.36,38.22Z" style="fill:#c52228"/></svg>