<svg xmlns="http://www.w3.org/2000/svg" viewBox="0 0 56.28 52.42"><defs><style>.cls-1{fill:#c52228;}</style></defs><g id="Layer_2" data-name="Layer 2"><g id="Layer_1-2" data-name="Layer 1"><path class="cls-1" d="M36.53,6.37a1,1,0,0,0,0-1.41,1,1,0,0,0-1.42,0,1,1,0,0,0,0,1.41A1,1,0,0,0,36.53,6.37Z"/><path class="cls-1" d="M32.6,6.2a.75.75,0,0,0-1.06-1.06A.75.75,0,0,0,32.6,6.2Z"/><path class="cls-1" d="M40.38,0H6.28a.5.5,0,0,0-.5.5V10.83a.5.5,0,0,0,.5.5H20.83v5.5H6.28a.51.51,0,0,0-.5.5V27.67a.51.51,0,0,0,.5.5H20.83v6h0a.5.5,0,0,0,.5.5H39.88V44H24.53a.5.5,0,0,0-.5.5.5.5,0,0,0,.5.5H40.38a.5.5,0,0,0,.5-.5V34.16a.5.5,0,0,0-.5-.5H25.83V28.17H40.38a.5.5,0,0,0,.5-.5V17.33a.5.5,0,0,0-.5-.5H25.83v-5.5H40.38a.5.5,0,0,0,.5-.5V.5A.5.5,0,0,0,40.38,0ZM24.83,33.66h-3V28.17h3Zm15.05-6.49H6.78V17.83h33.1ZM24.83,16.83h-3v-5.5h3Zm15.05-6.5H6.78V1h33.1Z"/><path class="cls-1" d="M36.53,23.21a1,1,0,1,0-1.42,0A1,1,0,0,0,36.53,23.21Z"/><path class="cls-1" d="M32.6,23a.74.74,0,0,0,0-1.06.75.75,0,1,0,0,1.06Z"/><path class="cls-1" d="M36.53,40a1,1,0,0,0,0-1.41,1,1,0,0,0-1.42,0,1,1,0,0,0,0,1.41A1,1,0,0,0,36.53,40Z"/><path class="cls-1" d="M32.6,39.86a.74.74,0,0,0,0-1.06.75.75,0,0,0-1.06,1.06A.74.74,0,0,0,32.6,39.86Z"/><path class="cls-1" d="M55.55,20.87a2.54,2.54,0,0,0-3.53,0,2.46,2.46,0,0,0-.69,1.26H45.2a.51.51,0,0,0-.5.5.5.5,0,0,0,.5.5h6.13a2.5,2.5,0,0,0,4.22,1.27,2.5,2.5,0,0,0,0-3.53Zm-.71,2.83a1.55,1.55,0,0,1-2.12,0,1.51,1.51,0,0,1,1.06-2.57,1.5,1.5,0,0,1,1.06.44,1.51,1.51,0,0,1,0,2.13Z"/><path class="cls-1" d="M45.2,18.12h3.08a.5.5,0,0,0,.5-.5V12.79a2.44,2.44,0,0,0,1.27-.68,2.5,2.5,0,0,0,0-3.53,2.54,2.54,0,0,0-3.53,0,2.5,2.5,0,0,0,1.26,4.21v4.33H45.2a.5.5,0,0,0,0,1Zm1.58-7.78a1.5,1.5,0,0,1,1.5-1.5,1.5,1.5,0,0,1,1.06.44,1.47,1.47,0,0,1,.44,1.06,1.46,1.46,0,0,1-.44,1.06,1.53,1.53,0,0,1-2.12,0A1.5,1.5,0,0,1,46.78,10.34Z"/><path class="cls-1" d="M48.78,32.5V27.65a.5.5,0,0,0-.5-.5H45.2a.5.5,0,0,0-.5.5.51.51,0,0,0,.5.5h2.58V32.5a2.41,2.41,0,0,0-1.26.66,2.5,2.5,0,1,0,3.53,3.53,2.5,2.5,0,0,0,0-3.53A2.44,2.44,0,0,0,48.78,32.5ZM49.34,36a1.55,1.55,0,0,1-2.12,0,1.52,1.52,0,0,1-.44-1.06,1.5,1.5,0,0,1,.44-1.06,1.47,1.47,0,0,1,1.06-.44,1.5,1.5,0,0,1,1.5,1.5A1.47,1.47,0,0,1,49.34,36Z"/><path class="cls-1" d="M10.65,31.11A10.66,10.66,0,1,0,21.3,41.76,10.67,10.67,0,0,0,10.65,31.11Zm0,20.31a9.66,9.66,0,1,1,9.65-9.66A9.66,9.66,0,0,1,10.65,51.42Z"/><path class="cls-1" d="M10.3,47.87a.51.51,0,0,0,.71,0L15.9,43a.51.51,0,0,0,0-.71.5.5,0,0,0-.71,0l-4,4V36a.5.5,0,0,0-.5-.5.51.51,0,0,0-.5.5v10.3l-4-4a.48.48,0,0,0-.7,0,.5.5,0,0,0,0,.71Z"/></g></g></svg>