<svg id="Layer_1" data-name="Layer 1" xmlns="http://www.w3.org/2000/svg" viewBox="0 0 64 64"><title>-</title><path d="M34.66,30.21a.51.51,0,0,0,.35-.15l1.6-1.6a3.23,3.23,0,0,1,2.29-.95h6.16a.51.51,0,0,0,.5-.5V12.32a.5.5,0,0,0-.5-.5H38.45a6.28,6.28,0,0,0-3.11-.25c-2.14-1.64-7-2.14-7.18-2.16a.49.49,0,0,0-.53.39s-.18.87-.33,2H24.25a.5.5,0,0,0-.5.5V27a.5.5,0,0,0,.5.5h6.17a3.23,3.23,0,0,1,2.28.95l1.6,1.6A.53.53,0,0,0,34.66,30.21Zm.66-17.63a5.17,5.17,0,0,1,5.6,2.5l.06.11a5.37,5.37,0,0,1,.27.8s0,0,0,.06a4.7,4.7,0,0,1,.18,1.06,3.31,3.31,0,0,1,0,.55,4.66,4.66,0,0,1,0,.61A5.84,5.84,0,0,1,41,20.12a6.41,6.41,0,0,1-10.77,1.79,3.12,3.12,0,0,0,.41.06h.32a5.57,5.57,0,0,0,1.27-.15,5.07,5.07,0,0,0,3.37-2.9,4.22,4.22,0,0,0,.2-.6A5,5,0,0,0,34.05,13a4.41,4.41,0,0,1,.59-.26A4.18,4.18,0,0,1,35.32,12.58Zm-7.08-.21c.09-.79.2-1.49.28-1.91a19,19,0,0,1,5.54,1.47L34,12l-.36.17-.21.12-.31.17-.17-.08a4.14,4.14,0,0,0-1.52-.25,11.52,11.52,0,0,0-2.79.45l-.39.11Zm-.42,1.48a10.53,10.53,0,0,1,1-.32,10,10,0,0,1,2.54-.42,3.26,3.26,0,0,1,1.12.17,2.57,2.57,0,0,1,.36.19,4,4,0,0,1,1.94,4.6v0a3.29,3.29,0,0,1-.16.44,3.93,3.93,0,0,1-1.28,1.64,3.8,3.8,0,0,1-1.4.68,4.7,4.7,0,0,1-1.28.12,4.13,4.13,0,0,1-1.28-.31l-.23-.13c-1.5-.88-3-4.19-3.6-5.84C26.05,14.5,26.87,14.16,27.82,13.85Zm-3.07-1h2.44c0,.06,0,.13,0,.19-1.36.47-2.38,1-2.43,1Zm5.67,13.69H24.75V15.31c.57,1.49,2,4.88,3.8,6a7.44,7.44,0,0,0,13.36-.81,7,7,0,0,0,.52-2.14c0-.13,0-.26,0-.4l1.21-.76-1-.67.91-1.1L42,15a1.18,1.18,0,0,0-.19-.42,6.2,6.2,0,0,0-1.52-1.74h4.31V26.51H38.9a4.26,4.26,0,0,0-3,1.24L34.66,29l-1.25-1.25A4.26,4.26,0,0,0,30.42,26.51Z" style="fill:#c52228"/><path d="M38.34,15.86a1,1,0,0,0-1,1H39.3A1,1,0,0,0,38.34,15.86Z" style="fill:#c52228"/><path d="M26.51,36.6a2.89,2.89,0,0,1-.85-2.06V30.9a.5.5,0,0,0-.5-.5h-5.1a2.45,2.45,0,0,0-.62-2.93h0a2.46,2.46,0,0,0-3.45.28l-.12.14-.13-.11a2.45,2.45,0,0,0-3.45.29,2.45,2.45,0,0,0-.45,2.33h-.13a.5.5,0,0,0-.5.5v7.68A2.75,2.75,0,0,0,11,39a3.45,3.45,0,0,0,.24,3.26V50a.5.5,0,0,0,.5.5H25.16a.51.51,0,0,0,.5-.5V42.3a2.93,2.93,0,0,1,.85-2.06L28,38.77a.51.51,0,0,0,0-.71ZM13.05,28.71a1.5,1.5,0,0,1,1-.51h.12a1.44,1.44,0,0,1,.93.34l.52.44a.49.49,0,0,0,.7-.06l.45-.52a1.44,1.44,0,0,1,2-.17h0a1.45,1.45,0,0,1,.17,2l-2.64,3.1-3.11-2.63A1.45,1.45,0,0,1,13.05,28.71ZM11.89,39.39a2.48,2.48,0,0,1,1.38-1.3,2.46,2.46,0,0,1,1.89.06l.95.43a.5.5,0,0,0,.66-.25l.44-1a2.47,2.47,0,0,1,3.27-1.24h0a2.47,2.47,0,0,1,1.24,3.27l-2.68,5.92-5.92-2.66A2.49,2.49,0,0,1,11.89,39.39Zm13.91.14a3.94,3.94,0,0,0-1.14,2.77v7.15H12.21V43.28a4.27,4.27,0,0,0,.51.3l6.38,2.87a.45.45,0,0,0,.2,0,.52.52,0,0,0,.46-.29l2.88-6.38a3.48,3.48,0,0,0-1.74-4.6l-.2.46.19-.46A3.48,3.48,0,0,0,16.29,37l-.22.5-.5-.22a3.46,3.46,0,0,0-2.66-.08,3.6,3.6,0,0,0-.7.37V31.4h.26l.11.11,3.48,2.95a.52.52,0,0,0,.33.12.49.49,0,0,0,.38-.18l2.55-3h5.34v3.14a3.9,3.9,0,0,0,1.14,2.77l1.11,1.11Z" style="fill:#c52228"/><path d="M9.18,33.37a.65.65,0,0,0-.91.08l-.15.17L8,33.48a.65.65,0,0,0-.92.07.66.66,0,0,0,.08.92l1.16,1,.84-1,.15-.17a.66.66,0,0,0-.07-.92Z" style="fill:#c52228"/><path d="M55.66,42.29l-4.38-.72a4.53,4.53,0,0,0,1-2.21A4.6,4.6,0,0,0,52,36.67a1.3,1.3,0,0,0-.37-.46l.2-1.21a.49.49,0,0,0-.09-.37.46.46,0,0,0-.32-.2L37.85,32.19a.48.48,0,0,0-.37.08.5.5,0,0,0-.2.33l-1,5.69a3,3,0,0,1-1.2,1.94L33.4,41.45a.5.5,0,0,0-.2.33.49.49,0,0,0,.09.37l1.23,1.72A3,3,0,0,1,35,46.09l-.94,5.68a.48.48,0,0,0,.09.37.47.47,0,0,0,.32.21L48,54.59h.08a.48.48,0,0,0,.29-.09.53.53,0,0,0,.21-.33l.31-1.87,3,.5.28,0a1.75,1.75,0,0,0,1.72-1.49,1.13,1.13,0,0,0,0-.25,1.92,1.92,0,0,0-.14-.68A1.73,1.73,0,0,0,55,49a1.66,1.66,0,0,0-.13-1,1.74,1.74,0,0,0,1.17-1.37,1.69,1.69,0,0,0-.13-1,1.75,1.75,0,0,0-.29-3.37ZM47.71,53.52,35.17,51.44,36,46.26a4,4,0,0,0-.7-3L34.39,42,35.71,41a4,4,0,0,0,1.61-2.59l.86-5.2,12.54,2.08-.1.63a1.22,1.22,0,0,0-1,1,.09.09,0,0,0,0,0,3.68,3.68,0,0,1-4,2.83,3.84,3.84,0,0,1-.51-.1l.08-.48a.5.5,0,0,0-.41-.58l-2.87-.48a.51.51,0,0,0-.58.41L39.26,51.09a.48.48,0,0,0,.09.37.51.51,0,0,0,.32.21l2.88.47h.08a.5.5,0,0,0,.49-.42l.07-.38,4.75.79Zm-5.44-2.79-.05.34-1.89-.31,1.91-11.52,1.88.31L42.29,50.66l0,0Zm13-6-.6-.1h0l-3.39-.56a.49.49,0,0,0-.57.41.5.5,0,0,0,.41.58l3.39.56a.75.75,0,0,1,.62.86.74.74,0,0,1-.31.48.73.73,0,0,1-.55.13l-.63-.1h0l-1.84-.31a.5.5,0,0,0-.58.41.51.51,0,0,0,.41.58l1.85.3a.75.75,0,0,1,.61.86.73.73,0,0,1-.85.62L52,49.27l-.61-.11a.67.67,0,0,0-.2,0,.51.51,0,0,0-.24.15.48.48,0,0,0-.14.25.56.56,0,0,0,.09.38l.06,0a.3.3,0,0,0,.08.08.54.54,0,0,0,.19.07l.56.09.57.1a.76.76,0,0,1,.63.74.74.74,0,0,1,0,.12.75.75,0,0,1-.85.61l-8.73-1.44L45,40.7a3.27,3.27,0,0,0,.56.1,4.68,4.68,0,0,0,5-3.61h0v0a.26.26,0,0,1,.23-.21.24.24,0,0,1,.26.14,3.66,3.66,0,0,1,.28,2.11,3.56,3.56,0,0,1-1.4,2.3.52.52,0,0,0-.1.11l0,0a.52.52,0,0,0,0,.47.36.36,0,0,0,0,.09h0a.4.4,0,0,0,.16.13l.06,0a.18.18,0,0,0,.1,0l5.34.89a.74.74,0,1,1-.24,1.47Z" style="fill:#c52228"/></svg>