<svg id="Layer_1" data-name="Layer 1" xmlns="http://www.w3.org/2000/svg" viewBox="0 0 64 64"><path d="M47.78,46.87,29.91,29A11.48,11.48,0,0,0,18.08,14a7.53,7.53,0,0,0-2.8-3.43,7.41,7.41,0,0,0-4.12-1.24,7.51,7.51,0,0,0-7.49,7.5,7.31,7.31,0,0,0,.85,3.45.51.51,0,0,0,.67.21.5.5,0,0,0,.21-.68,6.32,6.32,0,0,1-.73-3A6.47,6.47,0,0,1,17,14.17a11.47,11.47,0,0,0-6.22,19.45,11.58,11.58,0,0,0,11.64,2.82l5.09,5.08a.51.51,0,0,0,.35.15h3.51v3.52a.53.53,0,0,0,.15.35l.18.18a.51.51,0,0,0,.35.15h1.08V47a.51.51,0,0,0,.15.35l.34.34a.51.51,0,0,0,.35.15h3.51V51.3a.51.51,0,0,0,.15.35l2.67,2.66a.53.53,0,0,0,.34.15l6.9.17h0a.53.53,0,0,0,.36-.15.5.5,0,0,0,.14-.37l-.17-6.9A.48.48,0,0,0,47.78,46.87Zm-6.87,6.59-2.39-2.37V47.28a.48.48,0,0,0-.5-.5h-3.8l0-1.41a.5.5,0,0,0-.5-.5H32.41v-3.7a.5.5,0,0,0-.5-.5h-3.8L23.5,36.06a11.31,11.31,0,0,0,1.55-.81.5.5,0,0,0-.53-.85,9.92,9.92,0,0,1-2.08,1A10.5,10.5,0,0,1,11.53,18.07a10.37,10.37,0,0,1,5.87-2.94,6.14,6.14,0,0,1,.25,1.57,1,1,0,0,1,0,.17,6.4,6.4,0,0,1-.79,3.07,2.57,2.57,0,0,0-3.19.28A2.49,2.49,0,0,0,13,22h0a2.44,2.44,0,0,0,.42,1.38,2.72,2.72,0,0,0,.31.38,2.52,2.52,0,0,0,1.77.73,2.48,2.48,0,0,0,.84-.15,2.43,2.43,0,0,0,.93-.59,2.48,2.48,0,0,0,.58-.92h0a2.49,2.49,0,0,0-.23-2.1,7.4,7.4,0,0,0,1.08-3.84,1.7,1.7,0,0,0,0-.25A7.3,7.3,0,0,0,18.4,15,10.48,10.48,0,0,1,28.86,29a.5.5,0,0,0,.12.52l18,18,.15,6.17Zm-24-31a1.71,1.71,0,0,1-.35.56,1.64,1.64,0,0,1-.57.36A1.49,1.49,0,0,1,14.39,23,1.45,1.45,0,0,1,14,22a1.5,1.5,0,0,1,.25-.83,1.37,1.37,0,0,1,.19-.23,1.5,1.5,0,0,1,1.06-.44,1.52,1.52,0,0,1,.88.29,6.4,6.4,0,0,1-.89,1,.48.48,0,0,0,0,.7.45.45,0,0,0,.37.17.5.5,0,0,0,.33-.12,8,8,0,0,0,.81-.84A1.5,1.5,0,0,1,16.86,22.48Z" style="fill:#c52228"/><path d="M27.93,32a.5.5,0,0,0-.71.71L39.74,45.2a.51.51,0,0,0,.36.15.5.5,0,0,0,.35-.15.51.51,0,0,0,0-.71Z" style="fill:#c52228"/><path d="M43.07,32.78a.51.51,0,0,0,.42.23.52.52,0,0,0,.27-.07L48,30.26a.51.51,0,0,0,0-.86l-4.32-2.5a.5.5,0,0,0-.68.18.51.51,0,0,0,.18.69l3.6,2.09-3.51,2.23A.49.49,0,0,0,43.07,32.78Z" style="fill:#c52228"/><path d="M50.31,32.88l5.1-.11a.5.5,0,0,0,.49-.51.52.52,0,0,0-.51-.49l-5.1.11a.49.49,0,0,0-.49.51.51.51,0,0,0,.5.49Z" style="fill:#c52228"/><path d="M60.33,19.32a.5.5,0,0,0-.5-.5H39a.5.5,0,0,0-.5.5V33.1a.5.5,0,0,0,1,0V23.82H59.33V36H42.39a.5.5,0,0,0-.5.5.5.5,0,0,0,.5.5H59.83a.5.5,0,0,0,.5-.5V23.32h0Zm-1,.5v3H39.46v-3Z" style="fill:#c52228"/></svg>