<svg id="Layer_1" data-name="Layer 1" xmlns="http://www.w3.org/2000/svg" viewBox="0 0 64 64"><path d="M35.5,42.94H24.79a.5.5,0,0,0-.5.5.5.5,0,0,0,.5.5H35.5a.5.5,0,0,0,.5-.5A.5.5,0,0,0,35.5,42.94Z" style="fill:#c52228"/><path d="M13.28,28.12a.5.5,0,0,0,.5-.5V17.27H53.42V28.68a.5.5,0,0,0,1,0V16.77h0v-7a.5.5,0,0,0-.5-.5H13.28a.5.5,0,0,0-.5.5v17.9A.5.5,0,0,0,13.28,28.12Zm40.14-17.9v6H13.78v-6Z" style="fill:#c52228"/><path d="M16.77,13.89a.93.93,0,1,0-1.31,0A.93.93,0,0,0,16.77,13.89Z" style="fill:#c52228"/><circle cx="19.58" cy="13.24" r="0.69" style="fill:#c52228"/><path d="M30.09,33.07V22.31a.5.5,0,0,0-.5-.5H18.82a.5.5,0,0,0-.5.5v7.25a.5.5,0,0,0,1,0V22.81h9.77v9.76H22.56a.5.5,0,0,0-.5.5.5.5,0,0,0,.5.5h7A.5.5,0,0,0,30.09,33.07Z" style="fill:#c52228"/><path d="M36.47,37.47H24.74a.5.5,0,1,0,0,1H36.47a.5.5,0,0,0,0-1Z" style="fill:#c52228"/><path d="M48.38,22.62H35.13a.5.5,0,0,0-.5.5.5.5,0,0,0,.5.5H48.38a.5.5,0,0,0,.5-.5A.5.5,0,0,0,48.38,22.62Z" style="fill:#c52228"/><path d="M48.88,28.1a.5.5,0,0,0-.5-.5H35.13a.5.5,0,0,0-.5.5.5.5,0,0,0,.5.5H48.38A.5.5,0,0,0,48.88,28.1Z" style="fill:#c52228"/><path d="M35.13,32.57a.5.5,0,0,0-.5.5.5.5,0,0,0,.5.5h4.4a.5.5,0,0,0,.5-.5.5.5,0,0,0-.5-.5Z" style="fill:#c52228"/><path d="M21.55,40.81A9.78,9.78,0,0,0,20.28,36a.54.54,0,0,0-.11-.18,9.74,9.74,0,0,0-16.8,0,.42.42,0,0,0-.09.14,9.7,9.7,0,0,0,0,9.63,1,1,0,0,0,.08.14,9.75,9.75,0,0,0,16.81,0,.37.37,0,0,0,.1-.17A9.67,9.67,0,0,0,21.55,40.81ZM3,41.31H7a19.34,19.34,0,0,0,.42,3.63H4A8.6,8.6,0,0,1,3,41.31Zm1-4.64H7.43A19.35,19.35,0,0,0,7,40.31H3A8.6,8.6,0,0,1,4,36.67Zm16.48,3.64h-4a19.35,19.35,0,0,0-.42-3.64h3.39A8.6,8.6,0,0,1,20.52,40.31Zm-5,0H12.27V36.67H15.1A17.78,17.78,0,0,1,15.54,40.31Zm-3.27-4.64V32.13c1,.33,1.92,1.59,2.55,3.54Zm-1-3.54v3.54H8.73C9.36,33.72,10.31,32.46,11.27,32.13Zm0,4.54v3.64H8a17.78,17.78,0,0,1,.44-3.64ZM8,41.31h3.26v3.63H8.45A17.77,17.77,0,0,1,8,41.31Zm3.26,4.63v3.54c-1-.33-1.91-1.59-2.54-3.54Zm1,3.54V45.94h2.55C14.19,47.89,13.24,49.15,12.27,49.48Zm0-4.54V41.31h3.27a17.77,17.77,0,0,1-.44,3.63Zm4.27-3.63h4a8.6,8.6,0,0,1-1,3.63H16.12A19.34,19.34,0,0,0,16.54,41.31Zm2.33-5.64h-3a9.31,9.31,0,0,0-1.63-3.28A8.76,8.76,0,0,1,18.87,35.67ZM9.32,32.39a9.31,9.31,0,0,0-1.63,3.28h-3A8.76,8.76,0,0,1,9.32,32.39ZM4.68,45.94h3a9.31,9.31,0,0,0,1.63,3.28A8.76,8.76,0,0,1,4.68,45.94Zm9.55,3.28a9.31,9.31,0,0,0,1.63-3.28h3A8.76,8.76,0,0,1,14.23,49.22Z" style="fill:#c52228"/><path d="M50.5,31.78A11.5,11.5,0,1,0,62,43.28,11.51,11.51,0,0,0,50.5,31.78Zm0,22A10.5,10.5,0,1,1,61,43.28,10.51,10.51,0,0,1,50.5,53.78Z" style="fill:#c52228"/><path d="M57.88,40.59a3.76,3.76,0,0,0-2.68-1.13h0a3.81,3.81,0,0,0-2.71,1.13L52.1,41a.5.5,0,1,0,.72.7l.37-.39a2.85,2.85,0,0,1,2-.83h0a2.82,2.82,0,0,1,2,.84,2.74,2.74,0,0,1,.82,2,2.78,2.78,0,0,1-.82,2,2.84,2.84,0,0,1-3.7.24l0,0-.24-.21-2.34-2.34-2.34-2.34a3.6,3.6,0,0,0-.36-.33l-.08,0a3.85,3.85,0,0,0-5,.37A3.76,3.76,0,0,0,42,43.28a3.82,3.82,0,0,0,3.8,3.81h0A3.79,3.79,0,0,0,48.51,46l.39-.38a.5.5,0,1,0-.7-.72l-.39.39a2.84,2.84,0,0,1-2,.82h0a2.81,2.81,0,0,1-2-4.8,2.84,2.84,0,0,1,3.7-.24l0,0,.24.21,2.34,2.34L52.49,46a3.6,3.6,0,0,0,.36.33l.08.05a3.81,3.81,0,0,0,2.26.75,3.81,3.81,0,0,0,2.69-6.51Z" style="fill:#c52228"/></svg>