<svg id="Layer_1" data-name="Layer 1" xmlns="http://www.w3.org/2000/svg" viewBox="0 0 80 80"><path d="M77.32,33.07a.8.8,0,0,0,0-.15.6.6,0,0,0-.09-.13l0,0h0l-8.46-8.54a.47.47,0,0,0-.35-.15H11.63a.47.47,0,0,0-.35.15L2.82,32.76h0l0,0a.6.6,0,0,0-.09.13.8.8,0,0,0,0,.15V55.43a.5.5,0,0,0,.5.5H76.82a.5.5,0,0,0,.5-.5V33.07Zm-65.48-8H68.16l7.47,7.54H4.37ZM76.32,54.93H3.68V33.61H76.32Z" style="fill:#c42229"/><path d="M67,46.93a2.61,2.61,0,0,0,1.88-.78,2.66,2.66,0,0,0,0-3.76,2.72,2.72,0,0,0-3.76,0,2.67,2.67,0,0,0,0,3.76A2.62,2.62,0,0,0,67,46.93ZM65.8,43.1A1.62,1.62,0,0,1,67,42.61a1.64,1.64,0,0,1,1.18.49,1.66,1.66,0,0,1,0,2.35,1.72,1.72,0,0,1-2.35,0,1.7,1.7,0,0,1-.49-1.18A1.66,1.66,0,0,1,65.8,43.1Z" style="fill:#c42229"/><path d="M58.88,46.39a2.12,2.12,0,1,0-1.5-.62A2.11,2.11,0,0,0,58.88,46.39Zm-.8-2.91a1.12,1.12,0,1,1,0,1.58A1.13,1.13,0,0,1,58.08,43.48Z" style="fill:#c42229"/><path d="M7.08,52h4.28a.5.5,0,0,0,.5-.5V37a.5.5,0,0,0-.5-.5H7.08a.5.5,0,0,0-.5.5V51.53A.5.5,0,0,0,7.08,52Zm.5-14.52h3.28V51H7.58Z" style="fill:#c42229"/><path d="M14.77,52h4.28a.5.5,0,0,0,.5-.5V37a.5.5,0,0,0-.5-.5H14.77a.5.5,0,0,0-.5.5V51.53A.5.5,0,0,0,14.77,52Zm.5-14.52h3.28V51H15.27Z" style="fill:#c42229"/><path d="M22.46,52h4.28a.5.5,0,0,0,.5-.5V37a.5.5,0,0,0-.5-.5H22.46a.5.5,0,0,0-.5.5V51.53A.5.5,0,0,0,22.46,52ZM23,37.51h3.28V51H23Z" style="fill:#c42229"/></svg>