<svg id="Layer_1" data-name="Layer 1" xmlns="http://www.w3.org/2000/svg" viewBox="0 0 64 64"><path d="M60.28,31.56A16.89,16.89,0,0,0,35,24.71a16.41,16.41,0,1,0-7,14.94A16.92,16.92,0,0,0,38.79,54.22a.52.52,0,0,0,.18,0,.71.71,0,0,0,.2,0,.55.55,0,0,0,.26-.28l3.84-10a.5.5,0,0,0,0-.38.51.51,0,0,0-.28-.26,5.24,5.24,0,0,1-3-3,5.18,5.18,0,0,1,.11-4A5.11,5.11,0,0,1,43,33.59a5.2,5.2,0,0,1,3.73,9.7.49.49,0,0,0-.29.64l3.83,10a.57.57,0,0,0,.27.28.55.55,0,0,0,.38,0,16.91,16.91,0,0,0,9.38-22.66ZM25.39,34.32a1.36,1.36,0,0,1-.91-.4L16,27.08l-2.83,7.11H10.73L17.89,17a1.09,1.09,0,0,1,1-.7,1,1,0,0,1,1,.7l6.54,15.71a1.7,1.7,0,0,1,.11.49A1.17,1.17,0,0,1,25.39,34.32Zm34.3,9.81a15.94,15.94,0,0,1-8.68,9L47.52,44a6.19,6.19,0,1,0-5.36,0L38.68,53.1A15.94,15.94,0,0,1,29,38.93a16.35,16.35,0,0,0,6.11-12.77,2.09,2.09,0,0,0,0-.25,16,16,0,0,1,9.81-3.38,15.91,15.91,0,0,1,14.83,21.6Z" style="fill:#c52228"/><polygon points="16.77 25.2 23.18 30.25 18.93 19.77 16.77 25.2" style="fill:#c52228"/></svg>