<svg id="Layer_1" data-name="Layer 1" xmlns="http://www.w3.org/2000/svg" viewBox="0 0 64 64"><path d="M53.21,28.3H39.9V13.51A2.55,2.55,0,0,0,37.34,11L8.14,11h0a2.5,2.5,0,0,0-2.46,2.5v3a.49.49,0,0,0,.15.36.5.5,0,0,0,.35.14h0l3.5,0V53.6a2.51,2.51,0,0,0,2.52,2.5h0l29.65-.05h.1a2.5,2.5,0,0,0,2-2.44V50.55a.51.51,0,0,0-.5-.5H39.9V41.72H53.21a2.59,2.59,0,0,0,2.59-2.59V30.89A2.6,2.6,0,0,0,53.21,28.3ZM39.9,32.08H54.8v2H39.9ZM53.21,29.3a1.6,1.6,0,0,1,1.59,1.59v.19H39.9V29.3ZM6.65,16.05V13.53a1.5,1.5,0,1,1,3,0V16ZM42.9,53.6a1.49,1.49,0,0,1-1.13,1.45l-27.62.05,0-.06.08-.13c.05-.09.1-.17.14-.26l.07-.15.09-.3,0-.14a2.31,2.31,0,0,0,.05-.46V51.05H42.9ZM14.15,50.05a.5.5,0,0,0-.5.5V53.6a1.5,1.5,0,1,1-3,0V13.53a2.31,2.31,0,0,0-.05-.46l0-.14c0-.1-.06-.2-.1-.3l-.06-.14a1.51,1.51,0,0,0-.15-.28l-.07-.11,0-.07,27.27,0a1.52,1.52,0,0,1,1.49,1.5V50.05Zm39.06-9.33H39.9V35.08H54.8v4.05A1.59,1.59,0,0,1,53.21,40.72Z" style="fill:#c52228"/><path d="M15.65,24.87a.5.5,0,0,0-.5-.5.5.5,0,0,0-.5.5,2.93,2.93,0,0,0,2.44,2.89v.55a.5.5,0,0,0,.5.5.5.5,0,0,0,.5-.5v-.55a2.93,2.93,0,0,0,0-5.78V18.13A1.94,1.94,0,0,1,19.53,20a.5.5,0,0,0,.5.5.5.5,0,0,0,.5-.5,2.92,2.92,0,0,0-2.44-2.88v-.56a.51.51,0,0,0-.5-.5.5.5,0,0,0-.5.5v.56a2.93,2.93,0,0,0,0,5.77v3.86A1.94,1.94,0,0,1,15.65,24.87Zm3.88,0a2,2,0,0,1-1.44,1.87V23A1.94,1.94,0,0,1,19.53,24.87ZM15.65,20a1.93,1.93,0,0,1,1.44-1.86v3.73A1.93,1.93,0,0,1,15.65,20Z" style="fill:#c52228"/><path d="M35.4,31.81H15.15a.5.5,0,1,0,0,1H35.4a.5.5,0,0,0,0-1Z" style="fill:#c52228"/><path d="M35.4,35.81H15.15a.5.5,0,1,0,0,1H35.4a.5.5,0,1,0,0-1Z" style="fill:#c52228"/><path d="M35.4,39.81H15.15a.5.5,0,1,0,0,1H35.4a.5.5,0,1,0,0-1Z" style="fill:#c52228"/><path d="M35.4,43.81H15.15a.5.5,0,1,0,0,1H35.4a.5.5,0,1,0,0-1Z" style="fill:#c52228"/><path d="M35.4,27.81H24a.5.5,0,0,0,0,1H35.4a.5.5,0,0,0,0-1Z" style="fill:#c52228"/><path d="M35.4,23.81H24a.5.5,0,0,0,0,1H35.4a.5.5,0,0,0,0-1Z" style="fill:#c52228"/><path d="M35.4,19.81H24a.5.5,0,0,0,0,1H35.4a.5.5,0,0,0,0-1Z" style="fill:#c52228"/><path d="M51.65,36.12a1.72,1.72,0,0,0-1,.33,1.62,1.62,0,0,0-1-.33,1.71,1.71,0,0,0,0,3.41,1.72,1.72,0,0,0,1-.33,1.69,1.69,0,0,0,1,.33,1.71,1.71,0,0,0,0-3.41Zm0,2.41a.7.7,0,0,1-.6-.34.62.62,0,0,1-.11-.37.65.65,0,0,1,.13-.39.71.71,0,0,1,.58-.31.7.7,0,0,1,.7.7A.7.7,0,0,1,51.65,38.53Z" style="fill:#c52228"/><path d="M44.05,37.33H41.4a.5.5,0,0,0-.5.5.5.5,0,0,0,.5.5h2.65a.5.5,0,0,0,.5-.5A.5.5,0,0,0,44.05,37.33Z" style="fill:#c52228"/><path d="M48.35,21.61a4.13,4.13,0,0,0,.78-.08,3.71,3.71,0,1,0-3.89-5.64,3.7,3.7,0,0,0,3.11,5.72Zm-2.27-5.18a2.73,2.73,0,0,1,2.28-1.23,2.7,2.7,0,0,1,1.46.43h0A2.7,2.7,0,0,1,51,17.34a2.72,2.72,0,0,1-2.08,3.21,2.69,2.69,0,0,1-2-.37A2.72,2.72,0,0,1,46.08,16.43Z" style="fill:#c52228"/><path d="M57.39,13.62a.51.51,0,0,0-.56-.27l-1.26.27a8,8,0,0,0-.66-.95l.7-1.09a.51.51,0,0,0-.06-.62,9.68,9.68,0,0,0-1.77-1.45,9.27,9.27,0,0,0-2.07-1,.51.51,0,0,0-.58.21l-.7,1.09a8.49,8.49,0,0,0-1.14-.21L49,8.29a.5.5,0,0,0-.48-.39,9.76,9.76,0,0,0-4.46,1,.49.49,0,0,0-.27.55l.27,1.26a8.55,8.55,0,0,0-1,.7.5.5,0,0,0,.64.78,6.37,6.37,0,0,1,1.16-.78.51.51,0,0,0,.26-.55l-.27-1.22a8.8,8.8,0,0,1,3.25-.71l.27,1.24a.51.51,0,0,0,.45.4,6.87,6.87,0,0,1,1.66.3.51.51,0,0,0,.57-.21l.68-1.06a8.23,8.23,0,0,1,1.49.78,8.6,8.6,0,0,1,1.31,1l-.68,1.06a.51.51,0,0,0,0,.6,6.79,6.79,0,0,1,1,1.38.5.5,0,0,0,.54.26l1.24-.27a8.83,8.83,0,0,1,.7,3.26l-1.23.27a.51.51,0,0,0-.39.45,8,8,0,0,1-.31,1.66.5.5,0,0,0,.21.57l1.06.68a7.86,7.86,0,0,1-.78,1.49,9.12,9.12,0,0,1-1,1.31l-1.07-.69a.51.51,0,0,0-.61.05,7.18,7.18,0,0,1-1.37,1,.49.49,0,0,0-.25.54l.05.24a.5.5,0,0,0,.49.39h.1a.51.51,0,0,0,.4-.46,8.28,8.28,0,0,0,1-.68l1.1.71a.5.5,0,0,0,.61-.06,9.17,9.17,0,0,0,1.45-1.76,8.76,8.76,0,0,0,1-2.08.49.49,0,0,0-.2-.58L56.48,20a9.62,9.62,0,0,0,.21-1.14L58,18.57a.51.51,0,0,0,.4-.48A9.82,9.82,0,0,0,57.39,13.62Z" style="fill:#c52228"/></svg>