<svg id="Layer_1" data-name="Layer 1" xmlns="http://www.w3.org/2000/svg" viewBox="0 0 64 64"><title>-</title><path d="M55.91,27.47a.51.51,0,0,0-.34-.17l-13.52-.79v-11h2.72a.5.5,0,0,0,.5-.5V12a.5.5,0,0,0-.5-.5H41.44l-23.62-4H14.77l-.1,0-.09,0,0,0-6.35,4,0,0a.46.46,0,0,0-.07.07L8,11.79A.45.45,0,0,0,8,12s0,0,0,0v3a.5.5,0,0,0,.5.5h5.68l-.78,38H9.81a.54.54,0,0,0-.36.14.52.52,0,0,0-.14.36v2a.5.5,0,0,0,.5.5H22.73a.51.51,0,0,0,.36-.15.5.5,0,0,0,.14-.35V54a.5.5,0,0,0-.5-.5H19.18l-.78-38H41.05V26.45l-12-.7a.49.49,0,0,0-.53.47l-1.29,22a.53.53,0,0,0,.12.37.57.57,0,0,0,.35.16l26.56,1.56h0a.51.51,0,0,0,.5-.47l1.29-22A.49.49,0,0,0,55.91,27.47ZM10.18,11.53l4.11-2.61-.06,2.61Zm5.12-3h1.94l.06,3H15.24Zm3,3-.06-2.94,17.24,2.94ZM9,12.53H44.27v2H9Zm13.27,43H10.31v-1H22.23Zm-4.05-2H14.36l.78-38H17.4ZM55,28.27l-.21,3.61-25.56-1.5.21-3.61Zm-1.23,21-25.56-1.5,1-16.43,25.56,1.5Z" style="fill:#c52228"/><path d="M31.1,29.1a.6.6,0,0,0,0-.85.61.61,0,0,0-.86-.05.6.6,0,0,0-.05.85A.61.61,0,0,0,31.1,29.1Z" style="fill:#c52228"/><path d="M33.26,29.12a.45.45,0,0,0-.6-.68.45.45,0,1,0,.6.68Z" style="fill:#c52228"/><path d="M31.68,42.22l7,.41h0a.5.5,0,0,0,.33-.12.53.53,0,0,0,.17-.35l.41-7a.49.49,0,0,0-.47-.53l-7-.41a.5.5,0,0,0-.53.47l-.41,7a.52.52,0,0,0,.12.36A.53.53,0,0,0,31.68,42.22Zm.91-7,6,.36-.35,6-6-.35Z" style="fill:#c52228"/><path d="M50.87,45.55,31.55,44.42a.5.5,0,0,0-.06,1l19.32,1.13h0a.5.5,0,0,0,.5-.47A.51.51,0,0,0,50.87,45.55Z" style="fill:#c52228"/><path d="M51.43,35.85l-8.66-.51a.49.49,0,0,0-.53.47.52.52,0,0,0,.47.53l8.67.5h0a.5.5,0,0,0,.5-.47A.49.49,0,0,0,51.43,35.85Z" style="fill:#c52228"/><path d="M51.24,39.1l-8.66-.51a.5.5,0,0,0-.06,1l8.67.51h0a.5.5,0,0,0,0-1Z" style="fill:#c52228"/><path d="M51.05,42.35l-8.66-.51a.5.5,0,0,0-.06,1l8.66.51h0a.49.49,0,0,0,.5-.47A.5.5,0,0,0,51.05,42.35Z" style="fill:#c52228"/></svg>