<svg id="Layer_1" data-name="Layer 1" xmlns="http://www.w3.org/2000/svg" viewBox="0 0 64 64"><path d="M53.38,42.41l-1.26.27a9.48,9.48,0,0,0-.7-1,.51.51,0,0,0-.71-.06.49.49,0,0,0-.06.7,7.07,7.07,0,0,1,.77,1.16.5.5,0,0,0,.55.26l1.22-.26a8.52,8.52,0,0,1,.71,3.25L52.66,47a.52.52,0,0,0-.4.46,7,7,0,0,1-.3,1.66.5.5,0,0,0,.21.56l1.07.69a9.33,9.33,0,0,1-.79,1.48,8.6,8.6,0,0,1-1,1.31l-1.06-.68a.5.5,0,0,0-.6.05,7.17,7.17,0,0,1-1.38.95.52.52,0,0,0-.26.55l.27,1.23a8.83,8.83,0,0,1-3.26.7l-.27-1.22a.51.51,0,0,0-.45-.4A7.53,7.53,0,0,1,42.75,54a.51.51,0,0,0-.57.21l-.68,1.06A8.18,8.18,0,0,1,40,54.51a8.47,8.47,0,0,1-1.31-1l.69-1.07a.5.5,0,0,0,0-.61,6.6,6.6,0,0,1-1-1.37.5.5,0,0,0-.54-.25l-.23,0a.52.52,0,0,0-.39.6.5.5,0,0,0,.46.39,7.62,7.62,0,0,0,.68,1l-.71,1.09a.51.51,0,0,0,.06.62,10,10,0,0,0,1.76,1.45,9.16,9.16,0,0,0,2.08,1,.49.49,0,0,0,.58-.21l.7-1.09a9.62,9.62,0,0,0,1.14.21l.27,1.27a.5.5,0,0,0,.48.39H45a9.76,9.76,0,0,0,4.22-1,.49.49,0,0,0,.27-.55l-.27-1.27a7.28,7.28,0,0,0,1-.66l1.09.7a.5.5,0,0,0,.62-.06,9.29,9.29,0,0,0,1.45-1.77,8.87,8.87,0,0,0,1-2.07.5.5,0,0,0-.21-.58L53,49a7.16,7.16,0,0,0,.21-1.14l1.28-.27a.5.5,0,0,0,.39-.48,9.72,9.72,0,0,0-1-4.45A.5.5,0,0,0,53.38,42.41Z" style="fill:#c52228"/><path d="M41.78,45a3.7,3.7,0,0,0,1.11,5.11,3.63,3.63,0,0,0,2,.6,3.44,3.44,0,0,0,.78-.08A3.71,3.71,0,1,0,41.78,45Zm5.39,3.48h0a2.72,2.72,0,0,1-1.71,1.17,2.66,2.66,0,0,1-2-.38,2.7,2.7,0,1,1,3.74-.79Z" style="fill:#c52228"/><path d="M37.52,37.73A15.94,15.94,0,1,0,33.09,11a.49.49,0,0,0-.05.7.51.51,0,0,0,.71.05A14.93,14.93,0,1,1,37.9,36.8a.51.51,0,0,0-.66.28A.5.5,0,0,0,37.52,37.73Z" style="fill:#c52228"/><path d="M40.4,23a3.15,3.15,0,1,0,3.15-3.14A3.15,3.15,0,0,0,40.4,23Zm5.3,0a2.15,2.15,0,1,1-2.15-2.14A2.15,2.15,0,0,1,45.7,23Z" style="fill:#c52228"/><path d="M54.14,23.47a.5.5,0,0,0,.5-.5,11.14,11.14,0,0,0-.21-2.16.5.5,0,0,0-1,.19,10,10,0,0,1,.19,2A.5.5,0,0,0,54.14,23.47Z" style="fill:#c52228"/><path d="M51.32,16.54a.5.5,0,0,0,.39.18.56.56,0,0,0,.32-.11.51.51,0,0,0,.06-.71,11.09,11.09,0,0,0-4.15-3.12.5.5,0,1,0-.4.92A10.08,10.08,0,0,1,51.32,16.54Z" style="fill:#c52228"/><path d="M36.64,23a6.91,6.91,0,1,0,6.91-6.9A6.92,6.92,0,0,0,36.64,23Zm12.81,0a5.91,5.91,0,1,1-5.9-5.9A5.91,5.91,0,0,1,49.45,23Z" style="fill:#c52228"/><path d="M33.7,14.84h-21l-.06,0h-.07a.48.48,0,0,0-.22.12l-7.7,7.7a.46.46,0,0,0-.12.23.13.13,0,0,0,0,.06.14.14,0,0,0,0,.06V51.57a.5.5,0,0,0,.5.5H33.7a.5.5,0,0,0,.5-.5V15.34A.5.5,0,0,0,33.7,14.84ZM9.23,19.55l3-3v6h-6Zm24,31.52H5.52V23.54h7.2a.5.5,0,0,0,.5-.5v-7.2h20Z" style="fill:#c52228"/><path d="M23.74,38.07a2.05,2.05,0,0,1-2-2,.5.5,0,0,0-.5-.5.5.5,0,0,0-.5.5,3.06,3.06,0,1,0,3-3.06A2.06,2.06,0,1,1,25.8,30.9a.5.5,0,0,0,.5.5.5.5,0,0,0,.5-.5A3.06,3.06,0,1,0,23.74,34a2.06,2.06,0,1,1,0,4.11Z" style="fill:#c52228"/><path d="M11.93,31.15v4.62a3.31,3.31,0,0,0,6.61,0V31.15a3.31,3.31,0,0,0-6.61,0Zm1,0a2.31,2.31,0,0,1,4.61,0v4.62a2.31,2.31,0,0,1-4.61,0Z" style="fill:#c52228"/></svg>