<svg id="Layer_1" data-name="Layer 1" xmlns="http://www.w3.org/2000/svg" viewBox="0 0 64 64"><title>-</title><path d="M57.44,43.29a5.4,5.4,0,0,0-4.67-1l-9.49,2.39a3.23,3.23,0,0,0,.33-1.39,3.19,3.19,0,0,0-3.2-3.2H32.92a1.48,1.48,0,0,1-1.27-.78,6.78,6.78,0,0,0-1.14-1.49,7,7,0,0,0-5-2.06,11.85,11.85,0,0,0-4,.71L17.22,38a2.7,2.7,0,0,0-5.4,0,3,3,0,0,0,0,.42H5a.5.5,0,0,0-.5.5.5.5,0,0,0,.5.5h7.26a2.75,2.75,0,0,0,.74.78,2.69,2.69,0,0,0,.28,4.58A2.68,2.68,0,0,0,13,49.43,2.63,2.63,0,0,0,11.91,51H5a.5.5,0,0,0-.5.5A.5.5,0,0,0,5,52h6.88a2.7,2.7,0,0,0,5.31.23L37.46,54h0l.13,0,21.53-5.94a.51.51,0,0,0,.36-.49A5.39,5.39,0,0,0,57.44,43.29ZM12.82,38.08a1.71,1.71,0,1,1,1.7,1.7A1.71,1.71,0,0,1,12.82,38.08Zm1.7,2.7a1.71,1.71,0,1,1,0,3.41,1.71,1.71,0,0,1,0-3.41Zm-1.7,6.45a1.71,1.71,0,1,1,1.7,1.7A1.71,1.71,0,0,1,12.82,47.23Zm1.7,6.11a1.71,1.71,0,0,1,0-3.41,1.71,1.71,0,1,1,0,3.41ZM37.46,53l-20.27-1.8a2.73,2.73,0,0,0-1.11-1.78,2.68,2.68,0,0,0-.28-4.57,2.69,2.69,0,0,0,.28-4.58A2.8,2.8,0,0,0,17,39.14a.38.38,0,0,0,.18,0l4.64-1.69a10.88,10.88,0,0,1,3.7-.65,6,6,0,0,1,4.28,1.76,6.69,6.69,0,0,1,1,1.28,2.43,2.43,0,0,0,2.13,1.29h7.49a2.2,2.2,0,1,1,0,4.4H35a.5.5,0,0,0-.5.5.5.5,0,0,0,.5.5h5.41A3.17,3.17,0,0,0,42.05,46l11-2.76a4.44,4.44,0,0,1,5.51,3.93Z" style="fill:#c52228"/><path d="M43.71,35.64V39.3a.5.5,0,0,0,.5.5.51.51,0,0,0,.5-.5V35.64a.5.5,0,0,0-.5-.5A.5.5,0,0,0,43.71,35.64Z" style="fill:#c52228"/><path d="M39.71,34.64V37.3a.5.5,0,0,0,.5.5.51.51,0,0,0,.5-.5V34.64a.5.5,0,0,0-.5-.5A.5.5,0,0,0,39.71,34.64Z" style="fill:#c52228"/><path d="M35.71,33.32v4a.5.5,0,0,0,.5.5.51.51,0,0,0,.5-.5v-4a.51.51,0,0,0-.5-.5A.5.5,0,0,0,35.71,33.32Z" style="fill:#c52228"/><path d="M47.71,33.1V40a.5.5,0,0,0,.5.5.51.51,0,0,0,.5-.5V33.1a.51.51,0,0,0-.5-.5A.5.5,0,0,0,47.71,33.1Z" style="fill:#c52228"/><path d="M42.21,32.14A11.24,11.24,0,1,0,31,20.9,11.25,11.25,0,0,0,42.21,32.14Zm0-21.48A10.24,10.24,0,1,1,32,20.9,10.25,10.25,0,0,1,42.21,10.66Z" style="fill:#c52228"/><path d="M40.27,23.34a.5.5,0,1,0-1,0,2.94,2.94,0,0,0,2.44,2.89v.55a.5.5,0,0,0,.5.5.51.51,0,0,0,.5-.5v-.55a2.93,2.93,0,0,0,0-5.78V16.6a1.94,1.94,0,0,1,1.44,1.86.5.5,0,0,0,.5.5.5.5,0,0,0,.5-.5,2.94,2.94,0,0,0-2.44-2.89V15a.51.51,0,0,0-.5-.5.5.5,0,0,0-.5.5v.55a2.93,2.93,0,0,0,0,5.78V25.2A1.93,1.93,0,0,1,40.27,23.34Zm3.88,0a1.94,1.94,0,0,1-1.44,1.86V21.47A1.94,1.94,0,0,1,44.15,23.34Zm-3.88-4.88a1.93,1.93,0,0,1,1.44-1.86v3.73A1.94,1.94,0,0,1,40.27,18.46Z" style="fill:#c52228"/></svg>