<svg id="Layer_1" data-name="Layer 1" xmlns="http://www.w3.org/2000/svg" viewBox="0 0 64 64"><title>new</title><path d="M19.5,48.52a.5.5,0,0,0-.5.5v3.9H6.73V34.74H13.5a.5.5,0,0,0,0-1H6.23a.5.5,0,0,0-.5.5V53.42a.5.5,0,0,0,.5.5H19.5a.5.5,0,0,0,.5-.5V49A.5.5,0,0,0,19.5,48.52Z" style="fill:#c52228"/><path d="M35.66,45.26H17.72L27.91,35.08l6.39,6.39a.5.5,0,0,0,.71,0,.48.48,0,0,0,0-.7l-2.28-2.28L41,30.27l5.57,5.57a.5.5,0,0,0,.71,0,.48.48,0,0,0,0-.7L41.3,29.21a.47.47,0,0,0-.35-.15.49.49,0,0,0-.36.15L32,37.78,28.26,34a.5.5,0,0,0-.71,0L17,44.56V25.27H49.7V38.49a.5.5,0,0,0,.5.5.5.5,0,0,0,.5-.5V24.77a.5.5,0,0,0-.5-.5H16.5a.5.5,0,0,0-.5.5v21a.5.5,0,0,0,.5.5H35.66a.51.51,0,0,0,.5-.5A.5.5,0,0,0,35.66,45.26Z" style="fill:#c52228"/><path d="M57.77,41H38.66a.5.5,0,0,0-.5.5V54a.5.5,0,0,0,.5.5H57.77a.5.5,0,0,0,.5-.5V41.49A.5.5,0,0,0,57.77,41Zm-.5,12.48H39.16V42H57.27Z" style="fill:#c52228"/><path d="M19,30.7a3.44,3.44,0,1,0,3.44-3.44A3.44,3.44,0,0,0,19,30.7Zm5.87,0a2.44,2.44,0,1,1-2.43-2.44A2.43,2.43,0,0,1,24.87,30.7Z" style="fill:#c52228"/><path d="M47.15,51.22a.59.59,0,0,0,.23.05.52.52,0,0,0,.29-.09l4.3-3a.51.51,0,0,0,0-.82l-4.3-3a.51.51,0,0,0-.52,0,.5.5,0,0,0-.27.45v6.08A.5.5,0,0,0,47.15,51.22Zm.73-5.56,2.94,2.07-2.94,2.08Z" style="fill:#c52228"/><path d="M13.5,36.73H9.43a.5.5,0,0,0,0,1H13.5a.5.5,0,0,0,0-1Z" style="fill:#c52228"/><path d="M13.5,39.73H9.43a.5.5,0,0,0,0,1H13.5a.5.5,0,0,0,0-1Z" style="fill:#c52228"/><path d="M13.5,42.73H9.43a.5.5,0,0,0,0,1H13.5a.5.5,0,0,0,0-1Z" style="fill:#c52228"/><path d="M14,46.23a.5.5,0,0,0-.5-.5H9.43a.5.5,0,0,0,0,1H13.5A.5.5,0,0,0,14,46.23Z" style="fill:#c52228"/><path d="M9.43,48.73a.5.5,0,0,0,0,1H11.5a.5.5,0,0,0,0-1Z" style="fill:#c52228"/><path d="M10,30.74a.5.5,0,0,0,.5-.5V18.16h43V37.49a.5.5,0,1,0,1,0V17.67h0V10a.5.5,0,0,0-.5-.5H10a.5.5,0,0,0-.5.5V30.24A.5.5,0,0,0,10,30.74ZM53.5,10.53v6.63h-43V10.53Z" style="fill:#c52228"/><path d="M13.78,14.54a1,1,0,0,0,0-1.41,1,1,0,0,0-1.42,0,1,1,0,0,0,0,1.41A1,1,0,0,0,13.78,14.54Z" style="fill:#c52228"/><circle cx="16.82" cy="13.84" r="0.75" style="fill:#c52228"/></svg>