<?xml version="1.0" encoding="utf-8"?>
<!-- Generator: Adobe Illustrator 24.0.0, SVG Export Plug-In . SVG Version: 6.00 Build 0)  -->
<svg version="1.1" id="Layer_1" xmlns="http://www.w3.org/2000/svg" xmlns:xlink="http://www.w3.org/1999/xlink" x="0px" y="0px"
	 viewBox="0 0 64 64" style="enable-background:new 0 0 64 64;" xml:space="preserve">
<style type="text/css">
	.st0{fill:#FFFFFF;stroke:#000000;stroke-miterlimit:10;}
	.st1{fill:none;stroke:#000000;stroke-miterlimit:10;}
	.st2{fill:none;stroke:#C52228;stroke-miterlimit:10;}
	.st3{fill:#C52228;}
</style>
<g>
	<path class="st3" d="M43.4,53c-0.3,0-0.5,0.2-0.5,0.5v2.6c-2.2,0.5-4.6,0.5-6.8,0v-2.6c0-0.2-0.1-0.4-0.4-0.5c-1-0.3-2-0.7-2.9-1.2
		c-0.2-0.1-0.4-0.1-0.6,0.1l-2.1,2.1c-0.2,0.2-0.2,0.5,0,0.7s0.5,0.2,0.7,0l1.9-1.9c0.8,0.4,1.6,0.7,2.4,1v2.6
		c0,0.2,0.2,0.4,0.4,0.5c1.3,0.3,2.7,0.5,4,0.5c1.4,0,2.7-0.2,4-0.5c0.2-0.1,0.4-0.3,0.4-0.5v-3C43.9,53.3,43.7,53,43.4,53z"/>
	<path class="st3" d="M32.2,27.7c0.2,0.2,0.4,0.2,0.6,0.1c0.9-0.5,1.9-0.9,2.9-1.2c0.2-0.1,0.4-0.3,0.4-0.5v-2.6
		c2.3-0.5,4.7-0.5,6.8,0v2.6c0,0.2,0.1,0.4,0.4,0.5c1,0.3,2,0.7,2.9,1.2c0.2,0.1,0.4,0.1,0.6-0.1l1.8-1.8c1.9,1.3,3.6,2.9,4.8,4.8
		l-1.9,1.9c-0.2,0.2-0.2,0.4-0.1,0.6c0.5,0.9,0.9,1.9,1.2,2.9c0.1,0.2,0.3,0.4,0.5,0.4h2.6c0.2,1.1,0.4,2.2,0.4,3.4
		c0,1.2-0.1,2.3-0.4,3.4h-2.6c-0.3,0-0.5,0.2-0.5,0.5s0.2,0.5,0.5,0.5h3c0.2,0,0.4-0.2,0.5-0.4c0.3-1.3,0.5-2.6,0.5-4
		c0-1.4-0.2-2.7-0.5-4c-0.1-0.2-0.3-0.4-0.5-0.4h-2.6c-0.3-0.8-0.6-1.6-1-2.4l1.9-1.9c0.2-0.2,0.2-0.4,0.1-0.6
		c-1.4-2.3-3.4-4.3-5.7-5.7c-0.2-0.1-0.5-0.1-0.6,0.1l-1.9,1.9c-0.8-0.4-1.6-0.7-2.4-1v-2.6c0-0.2-0.2-0.4-0.4-0.5
		c-2.6-0.6-5.4-0.6-8.1,0c-0.2,0.1-0.4,0.3-0.4,0.5v2.6c-0.8,0.3-1.7,0.6-2.4,1l-1.9-1.9c-0.2-0.2-0.4-0.2-0.6-0.1
		c-2.3,1.4-4.3,3.4-5.7,5.7c-0.1,0.2-0.1,0.5,0.1,0.6l1.9,1.9c-0.4,0.8-0.7,1.6-1,2.4h-2.6c-0.2,0-0.4,0.2-0.5,0.4
		c-0.3,1.3-0.5,2.6-0.5,4c0,1.4,0.2,2.7,0.5,4c0.1,0.2,0.3,0.4,0.5,0.4h3c0.3,0,0.5-0.2,0.5-0.5s-0.2-0.5-0.5-0.5h-2.6
		c-0.2-1.1-0.4-2.2-0.4-3.4c0-1.2,0.1-2.3,0.4-3.4h2.6c0.2,0,0.4-0.1,0.5-0.4c0.3-1,0.7-2,1.2-2.9c0.1-0.2,0.1-0.4-0.1-0.6l-1.8-1.8
		c1.3-1.9,2.9-3.6,4.8-4.8L32.2,27.7z"/>
	<path class="st3" d="M39.5,49.8c0.3,0,0.5-0.2,0.5-0.5s-0.2-0.5-0.5-0.5c-4.9,0-8.9-4-8.9-8.9s4-8.9,8.9-8.9c4.9,0,8.9,4,8.9,8.9
		c0,0.3,0.2,0.5,0.5,0.5s0.5-0.2,0.5-0.5c0-5.5-4.5-9.9-9.9-9.9s-9.9,4.5-9.9,9.9S34,49.8,39.5,49.8z"/>
	<path class="st3" d="M27.2,48H11.9c0-0.2-0.1-0.4-0.2-0.7c-0.3-0.6-0.8-1-1.5-1.2c-0.6-0.2-1.3-0.1-1.9,0.2c-0.6,0.3-1,0.8-1.2,1.5
		c0,0.1,0,0.2-0.1,0.3H5.2c-0.3,0-0.5,0.2-0.5,0.5S4.9,49,5.2,49h1.9c0,0.2,0.1,0.4,0.2,0.7c0.3,0.6,0.8,1,1.5,1.2
		C9,51,9.3,51,9.5,51c0.4,0,0.8-0.1,1.2-0.3c0.6-0.3,1-0.8,1.2-1.5c0-0.1,0-0.2,0.1-0.3h15.2c0.3,0,0.5-0.2,0.5-0.5S27.4,48,27.2,48
		z M10.9,49c-0.1,0.4-0.4,0.7-0.7,0.9c-0.4,0.2-0.8,0.2-1.1,0.1c-0.4-0.1-0.7-0.4-0.9-0.7S8,48.4,8.1,48c0.1-0.4,0.4-0.7,0.7-0.9
		C9,47.1,9.3,47,9.5,47c0.2,0,0.3,0,0.5,0.1c0.4,0.1,0.7,0.4,0.9,0.7S11.1,48.6,10.9,49z"/>
	<path class="st3" d="M27.2,53h-1.9c0-0.2-0.1-0.4-0.2-0.7c-0.3-0.6-0.8-1-1.5-1.2c-1.3-0.4-2.7,0.3-3.1,1.6c0,0.1,0,0.2-0.1,0.3
		H5.2c-0.3,0-0.5,0.2-0.5,0.5S4.9,54,5.2,54h15.2c0,0.2,0.1,0.4,0.2,0.7c0.3,0.6,0.8,1,1.5,1.2c0.2,0.1,0.5,0.1,0.8,0.1
		c1.1,0,2.1-0.7,2.4-1.7c0-0.1,0-0.2,0.1-0.3h1.9c0.3,0,0.5-0.2,0.5-0.5S27.4,53,27.2,53z M24.3,54c-0.1,0.4-0.4,0.7-0.7,0.9
		c-0.4,0.2-0.8,0.2-1.1,0.1c-0.4-0.1-0.7-0.4-0.9-0.7s-0.2-0.8-0.1-1.1c0.2-0.6,0.8-1,1.4-1c0.1,0,0.3,0,0.4,0.1
		c0.4,0.1,0.7,0.4,0.9,0.7S24.4,53.6,24.3,54z"/>
	<path class="st3" d="M27.2,59h-9.9c0-0.2-0.1-0.4-0.2-0.7c-0.3-0.6-0.8-1-1.5-1.2c-1.3-0.4-2.7,0.3-3.1,1.6c0,0.1,0,0.2-0.1,0.3
		H5.2c-0.3,0-0.5,0.2-0.5,0.5S4.9,60,5.2,60h7.2c0,0.2,0.1,0.4,0.2,0.7c0.3,0.6,0.8,1,1.5,1.2c0.2,0.1,0.5,0.1,0.7,0.1
		c1.1,0,2.1-0.7,2.4-1.7c0-0.1,0-0.2,0.1-0.3h9.9c0.3,0,0.5-0.2,0.5-0.5S27.4,59,27.2,59z M16.2,60c-0.2,0.8-1.1,1.2-1.9,1
		c-0.4-0.1-0.7-0.4-0.9-0.7s-0.2-0.8-0.1-1.1c0.2-0.6,0.8-1,1.4-1c0.1,0,0.3,0,0.4,0.1c0.4,0.1,0.7,0.4,0.9,0.7S16.4,59.6,16.2,60z"
		/>
	<path class="st3" d="M57.8,50.5c-1.4-1.4-3.4-1.8-5.2-1.3l-6.8-6.8c0.6-1.8,0.1-3.8-1.3-5.2c-1.6-1.6-4.1-2-6.1-0.8
		c-0.1,0.1-0.2,0.2-0.2,0.4s0,0.3,0.1,0.4l2.1,2.1L39,40.7l-2-2c-0.1-0.1-0.3-0.2-0.5-0.1c-0.2,0-0.3,0.1-0.4,0.3
		c-0.8,1.9-0.4,4.1,1.1,5.6c1.2,1.2,2.9,1.7,4.6,1.4l7.3,7.3c-0.3,1.6,0.2,3.4,1.4,4.6c1,1,2.3,1.5,3.6,1.5c0.7,0,1.3-0.1,2-0.4
		c0.2-0.1,0.3-0.2,0.3-0.4c0-0.2,0-0.3-0.1-0.5l-2.2-2.2l1.4-1.4l2.3,2.3c0.1,0.1,0.3,0.2,0.4,0.1c0.2,0,0.3-0.1,0.4-0.2
		C59.8,54.6,59.5,52.1,57.8,50.5z M58.1,55.5l-2.2-2.2c-0.2-0.2-0.5-0.2-0.7,0l-2.1,2.1c-0.1,0.1-0.1,0.2-0.1,0.4s0.1,0.3,0.1,0.4
		l2,2c-1.3,0.3-2.7-0.1-3.7-1.1c-1-1-1.4-2.5-1.1-3.9c0-0.2,0-0.4-0.1-0.5L42.4,45c-0.1-0.1-0.2-0.1-0.4-0.1c0,0-0.1,0-0.1,0
		c-1.4,0.4-2.9-0.1-3.9-1.1c-1-1-1.4-2.4-1.1-3.7l1.7,1.7c0.2,0.2,0.5,0.2,0.7,0l2.1-2.1c0.1-0.1,0.1-0.2,0.1-0.4s-0.1-0.3-0.1-0.4
		L39.6,37c1.5-0.5,3.2-0.2,4.3,1c1.2,1.2,1.5,2.9,0.9,4.4c-0.1,0.2,0,0.4,0.1,0.5l7.3,7.3c0.1,0.1,0.4,0.2,0.5,0.1
		c1.5-0.6,3.3-0.2,4.4,0.9C58.3,52.4,58.6,54.1,58.1,55.5z"/>
	<path class="st3" d="M10.9,22.6l1.1-0.2c0.2,0.3,0.4,0.5,0.6,0.8L12,24.1c-0.1,0.2-0.1,0.4,0.1,0.6c0.5,0.5,1,0.9,1.6,1.3
		c0.6,0.4,1.2,0.7,1.9,0.9c0.2,0.1,0.5,0,0.6-0.2l0.6-0.9c0.3,0.1,0.6,0.1,0.9,0.2l0.2,1.1c0,0.2,0.2,0.4,0.5,0.4c0.1,0,0.1,0,0.2,0
		c1.3,0,2.6-0.3,3.8-0.9c0.2-0.1,0.3-0.3,0.3-0.6L22.4,25c0.3-0.2,0.5-0.4,0.8-0.5l0.9,0.6c0.2,0.1,0.4,0.1,0.6-0.1
		c0.5-0.5,0.9-1,1.3-1.6c0.4-0.6,0.7-1.2,0.9-1.9c0.1-0.2,0-0.5-0.2-0.6l-0.9-0.6c0.1-0.3,0.1-0.6,0.2-0.9l1.1-0.2
		c0.2,0,0.4-0.2,0.4-0.5c0-1.4-0.3-2.8-0.9-4c-0.1-0.2-0.3-0.3-0.6-0.3L25,14.6c-0.2-0.3-0.4-0.6-0.6-0.8l0.6-0.9
		c0.1-0.2,0.1-0.5-0.1-0.6c-0.5-0.5-1-0.9-1.6-1.3c-0.6-0.4-1.2-0.7-1.9-0.9c-0.2-0.1-0.5,0-0.6,0.2l-0.6,0.9
		c-0.3-0.1-0.6-0.1-1-0.2l-0.2-1.1c0-0.2-0.2-0.4-0.5-0.4c-1.4,0-2.7,0.3-4,0.9c-0.2,0.1-0.3,0.3-0.3,0.6l0.2,1.1
		c-0.3,0.2-0.5,0.3-0.8,0.6L12.9,12c-0.2-0.1-0.4-0.1-0.6,0.1c-0.5,0.5-0.9,1-1.3,1.6c-0.4,0.6-0.7,1.2-0.9,1.9
		c-0.1,0.2,0,0.5,0.2,0.6l0.9,0.6C11.1,17,11,17.3,11,17.6l-1.1,0.2c-0.2,0-0.4,0.2-0.4,0.5c0,1.4,0.3,2.8,0.9,4
		C10.5,22.5,10.7,22.7,10.9,22.6z M11.6,18.5c0.2,0,0.4-0.2,0.4-0.5c0-0.5,0.1-1,0.3-1.5c0.1-0.2,0-0.4-0.2-0.6l-0.9-0.6
		c0.2-0.4,0.4-0.9,0.7-1.3c0.3-0.4,0.6-0.8,0.9-1.1l0.9,0.6c0.2,0.1,0.4,0.1,0.6,0c0.4-0.3,0.8-0.6,1.2-0.8c0.2-0.1,0.3-0.3,0.3-0.5
		l-0.2-1.1c0.9-0.4,1.8-0.6,2.8-0.6l0.2,1.1c0,0.2,0.2,0.4,0.5,0.4c0.5,0,1,0.1,1.5,0.3c0.2,0.1,0.4,0,0.6-0.2l0.6-0.9
		c0.4,0.2,0.9,0.4,1.3,0.7c0.4,0.3,0.8,0.6,1.1,0.9l-0.6,0.9c-0.1,0.2-0.1,0.4,0,0.6c0.3,0.4,0.6,0.8,0.9,1.2
		c0.1,0.2,0.3,0.3,0.5,0.3l1-0.2c0.4,0.9,0.6,1.9,0.6,2.8l-1.1,0.2c-0.2,0-0.4,0.2-0.4,0.5c0,0.5-0.1,1-0.3,1.5
		c-0.1,0.2,0,0.4,0.2,0.6l0.9,0.6c-0.2,0.4-0.4,0.8-0.7,1.3c-0.3,0.4-0.6,0.8-0.9,1.1l-0.9-0.6c-0.2-0.1-0.4-0.1-0.6,0
		c-0.4,0.3-0.8,0.6-1.2,0.8c-0.2,0.1-0.3,0.3-0.3,0.5l0.2,1.1c-0.9,0.4-1.9,0.6-2.8,0.6l-0.2-1.1c0-0.2-0.2-0.4-0.5-0.4
		c-0.5,0-1-0.1-1.5-0.3c0,0-0.1,0-0.1,0c-0.2,0-0.3,0.1-0.4,0.2l-0.6,0.9c-0.4-0.2-0.9-0.4-1.3-0.7c-0.4-0.3-0.8-0.6-1.1-0.9
		l0.6-0.9c0.1-0.2,0.1-0.4,0-0.6c-0.3-0.4-0.6-0.8-0.9-1.2c-0.1-0.2-0.3-0.3-0.5-0.3l-1.1,0.2c-0.4-0.9-0.6-1.8-0.6-2.8L11.6,18.5z"
		/>
	<path class="st3" d="M16.7,21.3c0.6,0.4,1.2,0.5,1.8,0.5c0.2,0,0.5,0,0.7-0.1c0.9-0.2,1.6-0.7,2.1-1.5c1-1.6,0.6-3.6-1-4.7
		c-1.6-1-3.6-0.6-4.7,1c-0.5,0.8-0.7,1.7-0.5,2.5S15.9,20.8,16.7,21.3z M16.5,17.2c0.5-0.7,1.2-1.1,2-1.1c0.4,0,0.9,0.1,1.3,0.4
		c1.1,0.7,1.4,2.2,0.7,3.3c0,0,0,0,0,0c-0.3,0.5-0.9,0.9-1.5,1c-0.6,0.1-1.2,0-1.8-0.3c-0.5-0.3-0.9-0.9-1-1.5
		C16,18.4,16.2,17.7,16.5,17.2z"/>
</g>
</svg>
