<svg id="Layer_1" data-name="Layer 1" xmlns="http://www.w3.org/2000/svg" viewBox="0 0 64 64"><title>--</title><path d="M59.5,49.42h-4V17.34a.5.5,0,0,0-.5-.5H44.08V14.08a.5.5,0,0,0-.5-.5H20.42a.5.5,0,0,0-.5.5v2.76H9a.5.5,0,0,0-.5.5V49.42h-4a.5.5,0,0,0,0,1h55a.5.5,0,0,0,0-1ZM19.92,41.27H9.52V34.13h10.4Zm34.56-8.14H44.08V26h10.4ZM43.08,38H20.92V30.87H43.08Zm0-8.15H20.92V22.73H43.08ZM19.92,33.13H9.52V26h10.4Zm1,5.89H43.08v7.14H20.92Zm23.16-4.89h10.4v7.14H44.08Zm10.4-16.29V25H44.08V17.84Zm-11.4-3.26v7.15H20.92V14.58ZM19.92,17.84V25H9.52V17.84ZM9.52,49.42V42.27h10.4v4.39a.5.5,0,0,0,.5.5h2.76v2.26Zm14.66,0V47.16H39.82v2.26Zm16.64,0V47.16h2.76a.5.5,0,0,0,.5-.5V42.27h10.4v7.15Z" style="fill:#c52228"/><path d="M40.45,18.83a1,1,0,0,0,0-1.42,1,1,0,0,0-1.41,0,1,1,0,0,0,0,1.42A1,1,0,0,0,40.45,18.83Z" style="fill:#c52228"/><path d="M36.53,18.65a.75.75,0,1,0-1.06-1.06.74.74,0,0,0,0,1.06A.75.75,0,0,0,36.53,18.65Z" style="fill:#c52228"/><path d="M40.45,35.15a1,1,0,1,0-1.41,0A1,1,0,0,0,40.45,35.15Z" style="fill:#c52228"/><path d="M35.47,35a.74.74,0,0,0,1.06,0,.75.75,0,0,0-1.06-1.06A.74.74,0,0,0,35.47,35Z" style="fill:#c52228"/><path d="M24,27a1,1,0,1,0,0-1.42A1,1,0,0,0,24,27Z" style="fill:#c52228"/><path d="M29,26.83a.75.75,0,1,0-1.06-1.06.74.74,0,0,0,0,1.06A.75.75,0,0,0,29,26.83Z" style="fill:#c52228"/><path d="M25.38,43.3A1,1,0,0,0,24,41.88a1,1,0,0,0,0,1.42A1,1,0,0,0,25.38,43.3Z" style="fill:#c52228"/><path d="M29,43.12a.75.75,0,0,0-1.06-1.06.74.74,0,0,0,0,1.06A.75.75,0,0,0,29,43.12Z" style="fill:#c52228"/><path d="M51,22.12a1,1,0,0,0,1.41,0,1,1,0,0,0,0-1.42,1,1,0,0,0-1.41,0A1,1,0,0,0,51,22.12Z" style="fill:#c52228"/><path d="M52.43,37A1,1,0,0,0,51,37a1,1,0,0,0,0,1.42,1,1,0,0,0,1.41,0A1,1,0,0,0,52.43,37Z" style="fill:#c52228"/><path d="M11.51,30.26a1,1,0,0,0,1.42,0,1,1,0,0,0,0-1.41,1,1,0,0,0-1.42,0A1,1,0,0,0,11.51,30.26Z" style="fill:#c52228"/><path d="M11.51,45.14a1,1,0,0,0,0,1.41,1,1,0,0,0,1.42,0,1,1,0,0,0,0-1.41A1,1,0,0,0,11.51,45.14Z" style="fill:#c52228"/></svg>