<svg id="Layer_1" data-name="Layer 1" xmlns="http://www.w3.org/2000/svg" viewBox="0 0 64 64"><path d="M48.17,41.1a18.2,18.2,0,0,0,0-18.24.52.52,0,0,0-.14-.22,18.66,18.66,0,0,0-32.06,0,.45.45,0,0,0-.13.22,18.15,18.15,0,0,0,0,18.25.5.5,0,0,0,.13.22,18.66,18.66,0,0,0,32.06,0A.49.49,0,0,0,48.17,41.1ZM14.41,32.48h8.74a35.6,35.6,0,0,0,1,8h-7.5A17.13,17.13,0,0,1,14.41,32.48Zm2.2-9h7.5a35.44,35.44,0,0,0-1,8H14.41A17.09,17.09,0,0,1,16.61,23.51Zm33,8H40.85a36,36,0,0,0-1-8h7.5A17.09,17.09,0,0,1,49.59,31.48Zm-9.74,0H32.5v-8h6.33A34.36,34.36,0,0,1,39.85,31.48Zm-7.35-9V14.59c2.5.37,4.72,3.45,6,7.92Zm-1-7.92v7.92H25.45C26.78,18,29,15,31.5,14.59Zm0,8.92v8H24.15a34.36,34.36,0,0,1,1-8Zm-7.35,9H31.5v8H25.17A34.52,34.52,0,0,1,24.15,32.48Zm7.35,9v7.92c-2.5-.37-4.72-3.46-6.05-7.92Zm1,7.92V41.46h6C37.22,45.92,35,49,32.5,49.38Zm0-8.92v-8h7.35a34.52,34.52,0,0,1-1,8Zm8.35-8h8.74a17.13,17.13,0,0,1-2.2,8h-7.5A36.19,36.19,0,0,0,40.85,32.48Zm5.93-10H39.63c-1-3.46-2.47-6.16-4.29-7.66A17.71,17.71,0,0,1,46.78,22.51ZM28.66,14.85c-1.82,1.5-3.31,4.2-4.29,7.66H17.22A17.71,17.71,0,0,1,28.66,14.85ZM17.23,41.46h7.14c1,3.45,2.47,6.15,4.29,7.65A17.61,17.61,0,0,1,17.23,41.46Zm18.11,7.65c1.82-1.5,3.31-4.2,4.29-7.65h7.15A17.66,17.66,0,0,1,35.34,49.11Z" style="fill:#c52228"/><path d="M59.25,45.66a2.49,2.49,0,0,0-1.91.17,2.46,2.46,0,0,0-1,1l-4.38-1.38a.5.5,0,0,0-.51.12L45.6,51.44a.21.21,0,0,0,0,.06l-.06.08,0,.1s0,.06,0,.09a.22.22,0,0,0,0,.11v.06l1.38,4.36a2.45,2.45,0,0,0-1,1,2.51,2.51,0,0,0-.16,1.9A2.49,2.49,0,0,0,48.06,61a2.78,2.78,0,0,0,.75-.11,2.5,2.5,0,0,0,.41-4.6A2.45,2.45,0,0,0,47.8,56l-1.28-4.07,2.35-2.37,4.24,4.24a2.49,2.49,0,1,0,.71-.71l-4.24-4.24,2.34-2.36L56,47.78a2.53,2.53,0,0,0,.26,1.42,2.49,2.49,0,0,0,1.47,1.23,2.54,2.54,0,0,0,1.9-.17,2.51,2.51,0,0,0,1.07-3.37A2.49,2.49,0,0,0,59.25,45.66Zm-2.56,9.52a1.5,1.5,0,1,1-1.5-1.5A1.5,1.5,0,0,1,56.69,55.18Zm-7.94,2a1.5,1.5,0,0,1-.24,2.76,1.46,1.46,0,0,1-1.14-.1,1.44,1.44,0,0,1-.74-.88,1.46,1.46,0,0,1,.1-1.14,1.5,1.5,0,0,1,.88-.74,1.41,1.41,0,0,1,.45-.07A1.5,1.5,0,0,1,48.75,57.15Zm11.18-8.66a1.44,1.44,0,0,1-.74.88h0a1.46,1.46,0,0,1-1.14.1,1.49,1.49,0,0,1-.88-.73,1.5,1.5,0,0,1,1.33-2.2,1.76,1.76,0,0,1,.45.07,1.5,1.5,0,0,1,1,1.88Z" style="fill:#c52228"/><path d="M18.32,51.35l-5.78-5.77a.49.49,0,0,0-.5-.12L7.68,46.83a2.43,2.43,0,0,0-1-1,2.5,2.5,0,0,0-3.37,1.06A2.5,2.5,0,0,0,5.5,50.54a2.43,2.43,0,0,0,.75-.11A2.49,2.49,0,0,0,7.72,49.2,2.53,2.53,0,0,0,8,47.78l4.07-1.28,2.36,2.36-4.23,4.23a2.5,2.5,0,1,0-1.37,4.59,2.49,2.49,0,0,0,2.08-3.88l4.23-4.23,2.36,2.36L16.2,56a2.5,2.5,0,0,0-2.48,3.64h0A2.51,2.51,0,0,0,15.94,61a2.47,2.47,0,0,0,1.15-.28,2.5,2.5,0,0,0,1.07-3.37,2.45,2.45,0,0,0-1-1l1.38-4.38A.51.51,0,0,0,18.32,51.35ZM6.83,48.74a1.49,1.49,0,0,1-.88.73,1.46,1.46,0,0,1-1.14-.1,1.44,1.44,0,0,1-.74-.88,1.46,1.46,0,0,1,.1-1.14,1.51,1.51,0,0,1,1.33-.81,1.53,1.53,0,0,1,.69.17A1.51,1.51,0,0,1,6.83,48.74Zm2,7.94a1.5,1.5,0,1,1,1.5-1.5A1.5,1.5,0,0,1,8.81,56.68Zm8.56,2.25a1.44,1.44,0,0,1-.74.88,1.5,1.5,0,0,1-2-.64,1.46,1.46,0,0,1-.1-1.14,1.5,1.5,0,0,1,2.86.9Z" style="fill:#c52228"/><path d="M5.5,18.46a2.37,2.37,0,0,0,1.15-.29,2.45,2.45,0,0,0,1-1l4.37,1.38a.39.39,0,0,0,.15,0,.52.52,0,0,0,.36-.14l5.83-5.87a.21.21,0,0,0,0-.06l.06-.08,0-.09s0-.07,0-.1a.17.17,0,0,0,0-.1v-.07L17.15,7.69a2.54,2.54,0,0,0,1-1,2.5,2.5,0,0,0-4.44-2.31h0A2.5,2.5,0,0,0,15.93,8a2,2,0,0,0,.26,0l1.29,4.09-2.35,2.37L10.89,10.2a2.5,2.5,0,1,0-2.08,1.12,2.48,2.48,0,0,0,1.37-.41l4.24,4.24-2.34,2.36L8,16.22a2.5,2.5,0,0,0-1.74-2.65,2.51,2.51,0,0,0-3,3.54A2.5,2.5,0,0,0,5.5,18.46ZM15.25,6.85a1.5,1.5,0,1,1,2-.64A1.5,1.5,0,0,1,15.25,6.85Zm-7.94,2a1.5,1.5,0,1,1,1.5,1.5A1.5,1.5,0,0,1,7.31,8.82ZM4.07,15.51a1.44,1.44,0,0,1,.74-.88A1.48,1.48,0,0,1,6,14.53a1.5,1.5,0,0,1,1,1.88h0a1.5,1.5,0,0,1-2.76.24A1.46,1.46,0,0,1,4.07,15.51Z" style="fill:#c52228"/><path d="M45.68,12.65l5.78,5.77a.47.47,0,0,0,.35.15.4.4,0,0,0,.15,0l4.35-1.37a2.48,2.48,0,0,0,2.94,1.17,2.49,2.49,0,0,0,1.47-1.23,2.5,2.5,0,0,0-3-3.54A2.5,2.5,0,0,0,56,16.22L52,17.5l-2.36-2.36,4.23-4.23a2.5,2.5,0,1,0,1.37-4.59,2.49,2.49,0,0,0-2.08,3.88l-4.23,4.23-2.36-2.36L47.8,8l.26,0a2.64,2.64,0,0,0,1.16-.28,2.52,2.52,0,0,0,1.06-3.38,2.49,2.49,0,0,0-1.47-1.23,2.47,2.47,0,0,0-1.9.17,2.5,2.5,0,0,0-1.07,3.37,2.45,2.45,0,0,0,1,1l-1.38,4.38A.49.49,0,0,0,45.68,12.65Zm11.49,2.61a1.49,1.49,0,0,1,.88-.73,1.48,1.48,0,0,1,1.14.1h0a1.44,1.44,0,0,1,.74.88,1.5,1.5,0,0,1-2.86.9A1.49,1.49,0,0,1,57.17,15.26Zm-2-7.94a1.5,1.5,0,1,1-1.5,1.5A1.5,1.5,0,0,1,55.19,7.32ZM47.37,4.19A1.38,1.38,0,0,1,48.06,4a1.41,1.41,0,0,1,.45.07,1.49,1.49,0,0,1,.88.73,1.5,1.5,0,1,1-2-.63Z" style="fill:#c52228"/></svg>