<svg xmlns="http://www.w3.org/2000/svg" viewBox="0 0 58.25 58.72"><defs><style>.cls-1{fill:#c52228;}</style></defs><title>Asset 4</title><g id="Layer_2" data-name="Layer 2"><g id="Layer_1-2" data-name="Layer 1"><path class="cls-1" d="M56.6,1.32A5.69,5.69,0,0,0,52.67,0c-2.78.09-5.09,2.18-5.13,4.65a4.49,4.49,0,0,0,1.82,3.65,2.56,2.56,0,0,1,1.06,1.91h-.83V11h.83V12a.4.4,0,0,0,.41.37h.42a1.41,1.41,0,0,0,1.09,1.41V32a5.51,5.51,0,0,1-5.54,5.61,5.9,5.9,0,0,1-6-5.77V13.21a7,7,0,0,0-14,0v17H22.42c-2.68,0-4.86,2.47-4.86,5.49v9.38a1.57,1.57,0,0,0-1,1H10.84c-.1-2.48-1.87-4.47-4-4.47s-4,2.11-4,4.7a2.72,2.72,0,0,0,0,.3,4.92,4.92,0,0,0,1.83,3.65H3.94A4,4,0,0,0,0,54.17v4.55H13.24V54.17a4,4,0,0,0-4-3.94H9a4.75,4.75,0,0,0,1.78-3.18h5.76a1.64,1.64,0,0,0,3.09,0h3.88a4.78,4.78,0,0,0,1.82,3.44h-.69a3.9,3.9,0,0,0-4,3.82v4.41H33.94V54.31A3.89,3.89,0,0,0,30,50.49h-.27a4.85,4.85,0,0,0,1.81-3.44h3.36a1.64,1.64,0,0,0,3.09,0h6.19A4.82,4.82,0,0,0,46,50.49H45.3a3.89,3.89,0,0,0-3.95,3.82v4.41H54.6V54.31a3.89,3.89,0,0,0-4-3.82h-.27a4.94,4.94,0,0,0,1.83-3.94c0-2.6-1.81-4.71-4-4.71a4.33,4.33,0,0,0-4,4.21H38a1.59,1.59,0,0,0-.95-1v-9.4c0-3-2.19-5.49-4.87-5.49H27.8v-17a6,6,0,0,1,12,0v18.6a6.9,6.9,0,0,0,7,6.77,6.53,6.53,0,0,0,4.71-2A6.43,6.43,0,0,0,53.34,32V13.82a1.5,1.5,0,0,0,1.2-1.41H55a.4.4,0,0,0,.42-.37V11h.81v-.73h-.81a2.35,2.35,0,0,1,1-1.88,4.59,4.59,0,0,0,1.86-3.59A4.5,4.5,0,0,0,56.6,1.32ZM9.29,51.23a3,3,0,0,1,3,2.94v3.55H1V54.17a2.94,2.94,0,0,1,2.94-2.94Zm.56-4.71C9.74,48.47,8.41,50,6.82,50s-2.91-1.53-3-3.5a1.7,1.7,0,0,1,0-.22c0-2,1.36-3.7,3-3.7s3,1.66,3,3.7Zm40.8,5a2.89,2.89,0,0,1,3,2.82v3.41H42.35V54.31a2.89,2.89,0,0,1,2.95-2.82Zm-2.47-8.65c1.67,0,3,1.66,3,3.71s-1.36,3.71-3,3.71-3-1.66-3-3.71S46.51,42.84,48.18,42.84ZM18.09,47.15a.6.6,0,1,1,0-1.19.62.62,0,0,1,.64.59A.62.62,0,0,1,18.09,47.15Zm1.55-1.1a1.59,1.59,0,0,0-1.08-1V35.67c0-2.47,1.73-4.49,3.86-4.49H26.8V41.92a4.47,4.47,0,0,0-3.28,4.13ZM30,51.49a2.89,2.89,0,0,1,2.95,2.82v3.41H21.69V54.31a2.89,2.89,0,0,1,3-2.82Zm-2.47-1.23c-1.67,0-3-1.66-3-3.71s1.35-3.71,3-3.71,3,1.66,3,3.71S29.19,50.26,27.52,50.26Zm9.55-3.71a.61.61,0,0,1-.63.6.62.62,0,0,1-.64-.6.62.62,0,0,1,.64-.59A.61.61,0,0,1,37.07,46.55ZM32.16,31.18c2.13,0,3.87,2,3.87,4.49V45a1.62,1.62,0,0,0-1.14,1H31.53a4.4,4.4,0,0,0-3.73-4.2V31.18Zm20.73-18a.78.78,0,0,1-.82-.73h1.64A.78.78,0,0,1,52.89,13.14Zm1.65-1.47H51.25V11h3.29Zm1.31-3.89a3.12,3.12,0,0,0-1.31,2.44h-3.3A3.22,3.22,0,0,0,49.9,7.76a3.81,3.81,0,0,1-1.54-3.08A4.33,4.33,0,0,1,52.7.74,4.87,4.87,0,0,1,56,1.85a3.79,3.79,0,0,1,1.39,2.9A3.81,3.81,0,0,1,55.85,7.78Z"/><path class="cls-1" d="M52.48,7.13V8h.82V7.13A2.06,2.06,0,0,0,54,6.84l.62.61.58-.56-.63-.6a1.93,1.93,0,0,0,.3-.69h.86V4.81h-.86a1.93,1.93,0,0,0-.3-.69l.63-.6L54.64,3,54,3.57a2.06,2.06,0,0,0-.72-.29V2.45h-.82v.83a1.94,1.94,0,0,0-.71.29L51.14,3l-.58.56.63.6a2.13,2.13,0,0,0-.3.69H50V5.6h.85a2.13,2.13,0,0,0,.3.69l-.63.6.58.56.63-.61A1.94,1.94,0,0,0,52.48,7.13ZM52.89,4A1.2,1.2,0,0,1,54.12,5.2,1.23,1.23,0,1,1,52.89,4Z"/></g></g></svg>