<svg id="Layer_1" data-name="Layer 1" xmlns="http://www.w3.org/2000/svg" viewBox="0 0 64 64"><title>-</title><path d="M57.25,52.35H53V47.69a2.86,2.86,0,0,0,2.35-2.8V41.2a2.85,2.85,0,0,0-5.7,0v3.69A2.86,2.86,0,0,0,52,47.69v4.66H46.71V25.74h1.12a.51.51,0,0,0,.5-.5v-2.7a.51.51,0,0,0-.5-.5H32.92V8.85a.48.48,0,0,0-.2-.4.49.49,0,0,0-.44-.08l-21.12,6a.49.49,0,0,0-.37.48v37.5h-4a.5.5,0,0,0-.5.5v2.3a.5.5,0,0,0,.5.5h50.5a.5.5,0,0,0,.5-.5v-2.3A.5.5,0,0,0,57.25,52.35Zm-6.57-7.46V41.2a1.85,1.85,0,0,1,3.7,0v3.69a1.85,1.85,0,0,1-3.7,0ZM32.92,52.35v-5.9h5.89v5.9Zm0-12.79h5.89v5.89H32.92Zm6.89,0h5.9v5.89h-5.9Zm5.9-1h-5.9V32.67h5.9Zm-6.9,0H32.92V32.67h5.89Zm-5.89-6.89V25.74h5.89v5.93Zm6.89,14.78h5.9v5.9h-5.9Zm5.9-14.78h-5.9V25.74h5.9ZM47.33,23v1.7H32.92V23ZM11.79,15.23,31.92,9.51V52.35H29.23V43.28a.51.51,0,0,0-.5-.5H15a.5.5,0,0,0-.5.5v9.07h-2.7Zm3.7,37.12V43.78h5.87v8.57Zm6.87-8.57h5.87v8.57H22.36ZM56.75,54.65H7.25v-1.3h49.5Z" style="fill:#c52228"/><path d="M15,24.39H28.73a.5.5,0,0,0,.5-.5v-10a.51.51,0,0,0-.2-.4.5.5,0,0,0-.44-.08l-13.74,4a.49.49,0,0,0-.36.48v6A.5.5,0,0,0,15,24.39Zm.5-6.17,12.74-3.71v8.88H15.49Z" style="fill:#c52228"/><path d="M15,34.43H30.27a.5.5,0,0,0,.5-.5.5.5,0,0,0-.5-.5h-1V26.89a.5.5,0,0,0-.5-.5H15a.5.5,0,0,0-.5.5v6.54H13.44a.51.51,0,0,0-.5.5.5.5,0,0,0,.5.5Zm13.24-7v2.52H15.49V27.39ZM15.49,30.91H28.23v2.52H15.49Z" style="fill:#c52228"/><path d="M23.86,47.57a.5.5,0,0,0-.5.5v1.34a.5.5,0,0,0,.5.5.5.5,0,0,0,.5-.5V48.07A.5.5,0,0,0,23.86,47.57Z" style="fill:#c52228"/><path d="M19.86,47.57a.5.5,0,0,0-.5.5v1.34a.5.5,0,0,0,.5.5.5.5,0,0,0,.5-.5V48.07A.5.5,0,0,0,19.86,47.57Z" style="fill:#c52228"/></svg>