<svg id="Layer_1" data-name="Layer 1" xmlns="http://www.w3.org/2000/svg" viewBox="0 0 64 64"><title>-</title><path d="M31.53,13.47A12.07,12.07,0,0,0,21.88,32.1,28.28,28.28,0,0,1,26.3,43l.48,3a.5.5,0,0,0,.49.42h9.46a.5.5,0,0,0,.49-.42l.43-2.69A29.93,29.93,0,0,1,42.18,32,12.06,12.06,0,0,0,31.53,13.47ZM30.3,33.89H29.11a1.2,1.2,0,1,1,0-2.39,1.19,1.19,0,0,1,1.19,1.19Zm1,11.56V34.89h1.4V45.45Zm10-14a30.93,30.93,0,0,0-4.68,11.71l-.36,2.27H33.7V34.89h1.19a2.2,2.2,0,1,0-2.19-2.2v1.2H31.3v-1.2a2.2,2.2,0,1,0-2.19,2.2H30.3V45.45H27.7l-.41-2.58a29.36,29.36,0,0,0-4.57-11.32,11,11,0,0,1-1.78-5.78,11.11,11.11,0,0,1,10.63-11.3,10.88,10.88,0,0,1,8.1,3.08,11.06,11.06,0,0,1,1.67,13.92ZM33.7,33.89v-1.2a1.2,1.2,0,0,1,2.39,0,1.2,1.2,0,0,1-1.2,1.2Z" style="fill:#c52228"/><path d="M36.73,47.45H27.27a.51.51,0,0,0-.5.5.5.5,0,0,0,.5.5h9.46a.5.5,0,0,0,.5-.5A.51.51,0,0,0,36.73,47.45Z" style="fill:#c52228"/><path d="M36.73,49.45H27.27a.51.51,0,0,0-.5.5.5.5,0,0,0,.5.5h9.46a.5.5,0,0,0,.5-.5A.51.51,0,0,0,36.73,49.45Z" style="fill:#c52228"/><path d="M36.73,51.45H27.27a.51.51,0,0,0-.5.5.5.5,0,0,0,.5.5h9.46a.5.5,0,0,0,.5-.5A.51.51,0,0,0,36.73,51.45Z" style="fill:#c52228"/><path d="M35.59,53.45a.5.5,0,0,0-.5.5,3.09,3.09,0,1,1-6.18,0,.5.5,0,0,0-.5-.5.51.51,0,0,0-.5.5,4.09,4.09,0,0,0,8.18,0A.51.51,0,0,0,35.59,53.45Z" style="fill:#c52228"/><path d="M32,10.46a.5.5,0,0,0,.5-.5V6.46A.5.5,0,0,0,32,6a.5.5,0,0,0-.5.5V10A.5.5,0,0,0,32,10.46Z" style="fill:#c52228"/><path d="M16.44,25h-3.5a.5.5,0,1,0,0,1h3.5a.5.5,0,0,0,0-1Z" style="fill:#c52228"/><path d="M51.07,25h-3.5a.5.5,0,1,0,0,1h3.5a.5.5,0,0,0,0-1Z" style="fill:#c52228"/><path d="M45.12,11.69l-2.47,2.48A.5.5,0,0,0,43,15a.51.51,0,0,0,.36-.15l2.47-2.48a.5.5,0,0,0,0-.7A.5.5,0,0,0,45.12,11.69Z" style="fill:#c52228"/><path d="M21,15a.51.51,0,0,0,.36-.15.5.5,0,0,0,0-.7l-2.48-2.48a.5.5,0,0,0-.71,0,.5.5,0,0,0,0,.7l2.48,2.48A.5.5,0,0,0,21,15Z" style="fill:#c52228"/></svg>