<svg id="Layer_1" data-name="Layer 1" xmlns="http://www.w3.org/2000/svg" viewBox="0 0 64 64"><path d="M6,46.5H3V18.13H13.51a.5.5,0,1,0,0-1H3V10.5H46v3a.5.5,0,1,0,1,0V10a.5.5,0,0,0-.5-.5h-44A.5.5,0,0,0,2,10V47a.5.5,0,0,0,.5.5H6a.5.5,0,1,0,0-1Z" style="fill:#c52228"/><path d="M4.85,13.1a1,1,0,1,0,1.41,0A1,1,0,0,0,4.85,13.1Z" style="fill:#c52228"/><path d="M8.77,13.27a.75.75,0,1,0,1.07,0A.77.77,0,0,0,8.77,13.27Z" style="fill:#c52228"/><path d="M61.51,17h-44a.5.5,0,0,0-.5.5V21a.5.5,0,0,0,1,0V18H61v6.63H58a.5.5,0,0,0,0,1h3V54H58a.5.5,0,0,0,0,1h3.52a.5.5,0,0,0,.5-.5v-37A.5.5,0,0,0,61.51,17Z" style="fill:#c52228"/><path d="M21.29,22a1,1,0,0,0,0-1.41,1,1,0,0,0-1.42,0,1,1,0,0,0,0,1.41A1,1,0,0,0,21.29,22Z" style="fill:#c52228"/><circle cx="24.33" cy="21.32" r="0.75" style="fill:#c52228"/><path d="M54,24.49H10a.5.5,0,0,0-.5.5V61.5a.5.5,0,0,0,.5.5H54a.5.5,0,0,0,.5-.5V25A.5.5,0,0,0,54,24.49Zm-.5,1v6.63h-43V25.49ZM10.49,61V33.12h43V61Z" style="fill:#c52228"/><path d="M13.76,29.5a1,1,0,1,0-1.41,0A1,1,0,0,0,13.76,29.5Z" style="fill:#c52228"/><circle cx="16.81" cy="28.8" r="0.75" style="fill:#c52228"/><path d="M16,50.78H27.64a.5.5,0,0,0,.5-.5V38.62a.5.5,0,0,0-.5-.5H16a.5.5,0,0,0-.5.5V50.28A.5.5,0,0,0,16,50.78Zm.5-11.66H27.14V49.78H16.49Z" style="fill:#c52228"/><path d="M48,55.08H16a.5.5,0,0,0-.5.5.5.5,0,0,0,.5.5H48a.5.5,0,0,0,.5-.5A.5.5,0,0,0,48,55.08Z" style="fill:#c52228"/><path d="M48,39H33.64a.5.5,0,0,0,0,1H48a.5.5,0,1,0,0-1Z" style="fill:#c52228"/><path d="M48,44.39H33.64a.5.5,0,0,0-.5.5.51.51,0,0,0,.5.5H48a.5.5,0,0,0,.5-.5A.5.5,0,0,0,48,44.39Z" style="fill:#c52228"/><path d="M48,49.78H33.64a.5.5,0,0,0-.5.5.51.51,0,0,0,.5.5H48a.5.5,0,0,0,.5-.5A.5.5,0,0,0,48,49.78Z" style="fill:#c52228"/></svg>