<svg id="Layer_1" data-name="Layer 1" xmlns="http://www.w3.org/2000/svg" viewBox="0 0 64 64"><path d="M32,11.4a3.45,3.45,0,0,1,1.66.46.47.47,0,0,0,.25.07.5.5,0,0,0,.25-.93A4.37,4.37,0,0,0,32,10.4a.49.49,0,0,0-.51.48A.5.5,0,0,0,32,11.4Z" style="fill:#c52228"/><path d="M27.44,14.53h.1a.5.5,0,0,0,.49-.39,3.67,3.67,0,0,1,.78-1.55.49.49,0,0,0,0-.7.51.51,0,0,0-.71,0,4.63,4.63,0,0,0-1,2A.5.5,0,0,0,27.44,14.53Z" style="fill:#c52228"/><path d="M28.26,17.37a.5.5,0,0,0,0,.71,4.52,4.52,0,0,0,1.91,1.15l.14,0a.49.49,0,0,0,.48-.36.5.5,0,0,0-.33-.62A3.67,3.67,0,0,1,29,17.38.49.49,0,0,0,28.26,17.37Z" style="fill:#c52228"/><path d="M35.44,20.7v2a.5.5,0,0,0,.5.5.5.5,0,0,0,.5-.5v-2a.5.5,0,0,0-.5-.5A.5.5,0,0,0,35.44,20.7Z" style="fill:#c52228"/><path d="M45.49,20.27a.5.5,0,0,0,0,.7,6.13,6.13,0,0,1,1.15,1.44.5.5,0,0,0,.43.25.54.54,0,0,0,.25-.06.51.51,0,0,0,.19-.68,7,7,0,0,0-1.34-1.68A.5.5,0,0,0,45.49,20.27Z" style="fill:#c52228"/><path d="M35.94,17.2a.5.5,0,0,0,.5-.5v-2a.49.49,0,0,0-.52-.48.51.51,0,0,0-.48.52v2A.5.5,0,0,0,35.94,17.2Z" style="fill:#c52228"/><path d="M47.44,26v2a.5.5,0,0,0,1,0V26a.5.5,0,1,0-1,0Z" style="fill:#c52228"/><path d="M34.29,18.42a.5.5,0,0,0,0,1h2a.5.5,0,0,0,0-1Z" style="fill:#c52228"/><path d="M40.29,19.42h1.23a5.53,5.53,0,0,1,.71,0h.06a.49.49,0,0,0,.49-.44.5.5,0,0,0-.44-.55,7.37,7.37,0,0,0-.82,0H40.29a.5.5,0,0,0,0,1Z" style="fill:#c52228"/><path d="M11.16,34.16a.5.5,0,0,0-.5.5v2a.5.5,0,0,0,.5.5.5.5,0,0,0,.5-.5v-2A.5.5,0,0,0,11.16,34.16Z" style="fill:#c52228"/><path d="M12.71,40.14a.5.5,0,0,0-.82.57,7,7,0,0,0,1.47,1.56.5.5,0,0,0,.31.1.53.53,0,0,0,.4-.19.51.51,0,0,0-.1-.7A6.17,6.17,0,0,1,12.71,40.14Z" style="fill:#c52228"/><path d="M19.87,43.2a.5.5,0,0,0-.5-.5h-2a.5.5,0,1,0,0,1h2A.5.5,0,0,0,19.87,43.2Z" style="fill:#c52228"/><path d="M51.73,34.28a.83.83,0,1,0-1.18,0A.83.83,0,0,0,51.73,34.28Z" style="fill:#c52228"/><path d="M51.73,44.19a.83.83,0,1,0,0,1.18A.85.85,0,0,0,51.73,44.19Z" style="fill:#c52228"/><path d="M25.33,39.82a.83.83,0,1,0,0-1.17A.82.82,0,0,0,25.33,39.82Z" style="fill:#c52228"/><path d="M25.33,49.74a.83.83,0,1,0,1.17,0A.82.82,0,0,0,25.33,49.74Z" style="fill:#c52228"/><path d="M11.16,11.34a6.29,6.29,0,0,0-6.28,6.28c0,3.12,5,10.12,5.78,11.21v1.83a.5.5,0,0,0,.5.5.5.5,0,0,0,.5-.5V28.85c.72-1,5.78-8.08,5.78-11.23A6.28,6.28,0,0,0,11.16,11.34ZM5.88,17.62a5.28,5.28,0,0,1,10.56,0c0,2.3-3.5,7.69-5.28,10.19C9.38,25.31,5.88,19.92,5.88,17.62Z" style="fill:#c52228"/><path d="M13.81,17.62a2.66,2.66,0,1,0-2.66,2.66A2.67,2.67,0,0,0,13.81,17.62Zm-2.66,1.66a1.66,1.66,0,1,1,1.66-1.66A1.66,1.66,0,0,1,11.15,19.28Z" style="fill:#c52228"/><circle cx="43.38" cy="31.48" r="0.83" style="fill:#c52228"/><path d="M40.64,32.06a.83.83,0,1,0-1.18,0A.83.83,0,0,0,40.64,32.06Z" style="fill:#c52228"/><path d="M44,43.15a.83.83,0,1,0-1.18,0A.83.83,0,0,0,44,43.15Z" style="fill:#c52228"/><path d="M39.46,43.15a.83.83,0,1,0,0-1.17A.83.83,0,0,0,39.46,43.15Z" style="fill:#c52228"/><path d="M37.59,37.61a.83.83,0,1,0-1.17,0A.83.83,0,0,0,37.59,37.61Z" style="fill:#c52228"/><path d="M33.09,37.61a.83.83,0,1,0,0-1.18A.83.83,0,0,0,33.09,37.61Z" style="fill:#c52228"/><circle cx="37" cy="48.11" r="0.83" style="fill:#c52228"/><path d="M34.27,48.69a.83.83,0,0,0-1.18-1.17.82.82,0,0,0,0,1.17A.83.83,0,0,0,34.27,48.69Z" style="fill:#c52228"/><path d="M58.62,52.6H54.69v-5h0V42h0V36.47h0V30.92a.51.51,0,0,0-.5-.5H46.93V28.7a.5.5,0,0,0-.5-.5h-10V26.7a.5.5,0,0,0-.5-.5.5.5,0,0,0-.5.5v1.5H30.67a.5.5,0,0,0-.5.5v1.72H22.91a.5.5,0,0,0-.5.5v5.55h0V42s0,0,0,0v5.52s0,0,0,0v5H18.47a.5.5,0,0,0-.5.5.5.5,0,0,0,.5.5H58.62a.5.5,0,0,0,.5-.5A.5.5,0,0,0,58.62,52.6ZM46.93,45.34h0V42.51h6.76v4.54H46.93Zm-1-.51H31.17V40.29H45.93Zm-15.76.49h0v1.72H23.41V42.51h6.76Zm1,.51H45.93v4.54H31.17Zm2.21,5.54H43.71v1.22H33.38Zm11.33,0h1.72a.5.5,0,0,0,.5-.5V48.05h6.76v4.54h-9Zm9-9.86H46.93V39.79h0V37h6.76Zm-7.76-2.22H31.17V34.75H45.93Zm-15.76.49h0v1.71H23.41V37h6.76Zm-6.76,8.27h6.76v2.82a.5.5,0,0,0,.5.5h1.71v1.22h-9ZM53.69,31.42V36H46.93V34.25h0V31.42ZM31.17,29.2H45.93v4.55H31.17V29.2Zm-1,2.22h0v2.82h0V36H23.41V31.42Z" style="fill:#c52228"/><path d="M46.29,15.28a1.8,1.8,0,0,0-3.59,0c0,1,1.79,3.42,1.79,3.42S46.29,16.27,46.29,15.28Zm-2.47,0a.67.67,0,1,1,.67.67A.67.67,0,0,1,43.82,15.28Z" style="fill:#c52228"/><path d="M16,36.1a1.8,1.8,0,0,0-1.79,1.8c0,1,1.79,3.42,1.79,3.42s1.8-2.44,1.8-3.42A1.81,1.81,0,0,0,16,36.1Zm0,2.47a.67.67,0,1,1,.67-.67A.67.67,0,0,1,16,38.57Z" style="fill:#c52228"/></svg>