<svg id="Layer_1" data-name="Layer 1" xmlns="http://www.w3.org/2000/svg" viewBox="0 0 64 64"><title>-</title><path d="M31.4,42.75H3V24.68H38a.5.5,0,0,0,0-1H3V19.1H43.58a.5.5,0,0,0,0-1H3v-5H46v4a.5.5,0,1,0,1,0V12.59a.5.5,0,0,0-.5-.5H2.5a.5.5,0,0,0-.5.5V43.25a.5.5,0,0,0,.5.5H31.4a.5.5,0,1,0,0-1Z" style="fill:#c52228"/><path d="M61.5,32.91H56.79V29.79a8.34,8.34,0,1,0-16.68,0v3.12H35.4a.5.5,0,0,0-.5.5v18a.5.5,0,0,0,.5.5H61.5a.5.5,0,0,0,.5-.5v-18A.5.5,0,0,0,61.5,32.91ZM41.11,29.79a7.34,7.34,0,1,1,14.68,0v3.12H41.11ZM61,50.91H35.9v-17H61Z" style="fill:#c52228"/><path d="M46.68,39.31a2.51,2.51,0,0,0-.14,3.38v4.39a.5.5,0,0,0,.5.5h2.83a.51.51,0,0,0,.5-.5V45.41a.5.5,0,0,0-.5-.5.5.5,0,0,0-.5.5v1.17H47.54V42.49a.51.51,0,0,0-.15-.35,1.51,1.51,0,0,1,0-2.12,1.5,1.5,0,1,1,2.12,2.12.5.5,0,0,0-.14.35v1a.5.5,0,0,0,.5.5.5.5,0,0,0,.5-.5v-.85a2.5,2.5,0,0,0-3.69-3.38Z" style="fill:#c52228"/><path d="M12.85,28.89v7.72h1.31V34h2.09a2.61,2.61,0,0,0,1.92-.7,2.44,2.44,0,0,0,.72-1.84,2.66,2.66,0,0,0-.66-1.88,2.5,2.5,0,0,0-1.94-.7Zm4.73,2.58a1.5,1.5,0,0,1-.41,1.11A1.62,1.62,0,0,1,16,33H14.16V29.91h1.91a1.46,1.46,0,0,1,1.12.4A1.63,1.63,0,0,1,17.58,31.47Z" style="fill:#c52228"/><path d="M24.34,29.88a5.81,5.81,0,0,1,2.17.4V29.14a6.71,6.71,0,0,0-2.27-.37,3.66,3.66,0,0,0-2.89,1.07,4.41,4.41,0,0,0-1,3,3.89,3.89,0,0,0,1,2.84,3.82,3.82,0,0,0,2.86,1,7.41,7.41,0,0,0,2.27-.32V35.26a6,6,0,0,1-2.16.37,2.62,2.62,0,0,1-2-.7,2.92,2.92,0,0,1-.65-2.06,3.44,3.44,0,0,1,.61-2.24A2.46,2.46,0,0,1,24.34,29.88Z" style="fill:#c52228"/><rect x="28.79" y="28.89" width="1.31" height="7.73" style="fill:#c52228"/></svg>