<svg id="Layer_1" data-name="Layer 1" xmlns="http://www.w3.org/2000/svg" viewBox="0 0 64 64"><title>EXPORT_IMH-icon-set</title><path d="M61.72,44.51l-1-2.41a17.5,17.5,0,0,1-.8-3A7.49,7.49,0,1,0,47,45.52l-2.35,5.83a.5.5,0,1,0,.92.37l2.47-6.12a.49.49,0,0,0-.1-.54,6.44,6.44,0,0,1-1.84-4.12A6.58,6.58,0,0,1,52.45,34,6.47,6.47,0,0,1,59,39.27a16.71,16.71,0,0,0,.86,3.2l.81,2.05-1.35,1a.51.51,0,0,0-.2.4V48a1.59,1.59,0,0,1-1.59,1.59H53.76a.48.48,0,0,0-.47.35l-2.61,7.81a.5.5,0,0,0,.31.64l.16,0a.49.49,0,0,0,.47-.34l2.5-7.48h3.39A2.59,2.59,0,0,0,60.1,48V46.19l1.46-1.1A.48.48,0,0,0,61.72,44.51Z" style="fill:#c52228"/><path d="M19.31,51.35,17,45.52A7.52,7.52,0,0,0,11.57,33H11.4a7.48,7.48,0,0,0-7.36,6,16.64,16.64,0,0,1-.8,3l-1,2.41a.48.48,0,0,0,.16.58l1.46,1.1V48a2.59,2.59,0,0,0,2.59,2.59H9.88l2.5,7.48a.49.49,0,0,0,.47.34l.16,0a.5.5,0,0,0,.31-.64L10.71,50a.48.48,0,0,0-.47-.35H6.49A1.59,1.59,0,0,1,4.9,48V45.94a.51.51,0,0,0-.2-.4l-1.35-1,.81-2.05A16.71,16.71,0,0,0,5,39.27a6.49,6.49,0,1,1,11,5.79.49.49,0,0,0-.1.54l2.47,6.12a.5.5,0,1,0,.92-.37Z" style="fill:#c52228"/><path d="M39.91,51.08a4.33,4.33,0,0,1-3.76-4.3v-.7a1.81,1.81,0,0,1,.68-1.38A7.37,7.37,0,0,0,39.5,39V34.84a7.32,7.32,0,0,0-2.18-5.25,7.45,7.45,0,0,0-5.75-2.16,7.59,7.59,0,0,0-6.93,7.67V39a7.39,7.39,0,0,0,2.56,5.61A1.82,1.82,0,0,1,27.85,46v2A3.12,3.12,0,0,1,27,50.14a3.08,3.08,0,0,1-2.17.89,5.65,5.65,0,0,0-5.64,5.64V61.5a.5.5,0,0,0,1,0V56.67A4.64,4.64,0,0,1,24.79,52,4,4,0,0,0,28.85,48V46a2.78,2.78,0,0,0-1-2.1A6.42,6.42,0,0,1,25.64,39V35.1a6.57,6.57,0,0,1,6-6.67,6.44,6.44,0,0,1,5,1.87,6.36,6.36,0,0,1,1.88,4.54V39a6.36,6.36,0,0,1-2.31,4.93,2.8,2.8,0,0,0-1,2.15v.7a5.32,5.32,0,0,0,4.64,5.29,4.62,4.62,0,0,1,4.06,4.6V61.5a.5.5,0,0,0,1,0V56.67a5.62,5.62,0,0,0-4.94-5.59Z" style="fill:#c52228"/><path d="M29.29,17.1l-.47,2.73a.5.5,0,0,0,.73.53L32,19.07l2.45,1.29a.69.69,0,0,0,.24.05.52.52,0,0,0,.29-.09.51.51,0,0,0,.2-.49l-.47-2.73,2-1.94a.49.49,0,0,0,.13-.51.5.5,0,0,0-.4-.34l-2.75-.4-1.22-2.48a.52.52,0,0,0-.9,0l-1.22,2.48-2.75.4a.5.5,0,0,0-.4.34.49.49,0,0,0,.13.51Zm1.44-2.24a.5.5,0,0,0,.38-.27L32,12.78l.89,1.81a.5.5,0,0,0,.38.27l2,.29-1.45,1.41a.53.53,0,0,0-.14.45L34,19l-1.79-.94a.47.47,0,0,0-.46,0L30,19l.34-2a.53.53,0,0,0-.14-.45l-1.45-1.41Z" style="fill:#c52228"/><path d="M51.29,22.72l-.47,2.73a.53.53,0,0,0,.2.49.51.51,0,0,0,.53,0L54,24.68,56.45,26a.53.53,0,0,0,.24.06.52.52,0,0,0,.29-.09.53.53,0,0,0,.2-.49l-.47-2.73,2-1.94a.49.49,0,0,0,.13-.51.5.5,0,0,0-.4-.34l-2.75-.4L54.45,17a.52.52,0,0,0-.9,0l-1.22,2.49-2.75.4a.5.5,0,0,0-.4.34.49.49,0,0,0,.13.51Zm1.44-2.24a.53.53,0,0,0,.38-.27L54,18.4l.89,1.81a.53.53,0,0,0,.38.27l2,.29-1.45,1.41a.53.53,0,0,0-.14.45l.34,2-1.79-.94a.47.47,0,0,0-.46,0L52,24.62l.34-2a.53.53,0,0,0-.14-.45l-1.45-1.41Z" style="fill:#c52228"/><path d="M7.29,22.72l-.47,2.73a.53.53,0,0,0,.2.49.51.51,0,0,0,.53,0L10,24.68,12.45,26a.53.53,0,0,0,.24.06.52.52,0,0,0,.29-.09.53.53,0,0,0,.2-.49l-.47-2.73,2-1.94a.49.49,0,0,0,.13-.51.5.5,0,0,0-.4-.34l-2.75-.4L10.45,17a.52.52,0,0,0-.9,0L8.33,19.53l-2.75.4a.5.5,0,0,0-.4.34.49.49,0,0,0,.13.51Zm1.44-2.24a.53.53,0,0,0,.38-.27L10,18.4l.89,1.81a.53.53,0,0,0,.38.27l2,.29-1.45,1.41a.53.53,0,0,0-.14.45l.34,2-1.79-.94a.47.47,0,0,0-.46,0L8,24.62l.34-2a.53.53,0,0,0-.14-.45L6.73,20.77Z" style="fill:#c52228"/></svg>