<svg id="Layer_1" data-name="Layer 1" xmlns="http://www.w3.org/2000/svg" viewBox="0 0 64 64"><path d="M58.37,14.41H53.62V9a.5.5,0,0,0-.5-.5H17.25a.5.5,0,0,0-.5.5V20.79a.5.5,0,0,0,.5.5H53.12a.5.5,0,0,0,.5-.5V15.41h4.25v8.05L35.11,26.6a.51.51,0,0,0-.43.5v3.53H30.83a.5.5,0,0,0-.5.5V49.75a4.86,4.86,0,1,0,9.71,0V31.13a.5.5,0,0,0-.5-.5H35.68v-3.1l22.76-3.14a.51.51,0,0,0,.43-.5v-9A.5.5,0,0,0,58.37,14.41Zm-5.75,5.88H17.75V9.5H52.62ZM39,49.75a3.86,3.86,0,1,1-7.71,0V31.63H39Z" style="fill:#c52228"/><path d="M35.18,51.61a2.39,2.39,0,1,0-2.39-2.39A2.39,2.39,0,0,0,35.18,51.61Zm0-3.78a1.39,1.39,0,1,1-1.39,1.39A1.39,1.39,0,0,1,35.18,47.83Z" style="fill:#c52228"/><path d="M43.08,61.5H20.54A4.58,4.58,0,0,1,16,56.93V51.67a.36.36,0,0,0,0-.1h1.41a.5.5,0,0,0,.5-.5V47.82a6.93,6.93,0,0,0,6.56-6.91V34.09h.89a.5.5,0,0,0,.5-.5.5.5,0,0,0-.5-.5H21V28.86a1.7,1.7,0,1,0-3.4,0v4.23H13.39V28.86a1.7,1.7,0,0,0-3.4,0v4.23H5.63a.51.51,0,0,0-.5.5.5.5,0,0,0,.5.5h.89v6.82a6.93,6.93,0,0,0,6.56,6.91v3.25a.5.5,0,0,0,.5.5H15s0,.07,0,.1v5.26a5.58,5.58,0,0,0,5.57,5.57H43.08a.5.5,0,0,0,0-1ZM18.56,28.86a.7.7,0,0,1,1.4,0v4.23h-1.4Zm-7.57,0a.7.7,0,0,1,1.4,0v4.23H11Zm-3.47,12V34.09h15.9v6.82a5.93,5.93,0,0,1-5.86,5.93.46.46,0,0,0-.2-.05H13.58a.49.49,0,0,0-.2.05A5.94,5.94,0,0,1,7.52,40.91Zm6.56,6.93h2.78v2.73H14.08Z" style="fill:#c52228"/><path d="M50.73,61.5H48a.5.5,0,1,0,0,1h2.72a.5.5,0,0,0,0-1Z" style="fill:#c52228"/></svg>