<svg id="Layer_1" data-name="Layer 1" xmlns="http://www.w3.org/2000/svg" viewBox="0 0 64 64"><title>EXPORT_IMH-icon-set</title><path d="M31.33,14.57a1,1,0,1,0,1.42,0A1,1,0,0,0,31.33,14.57Z" style="fill:#c52228"/><path d="M27.76,14.75a.75.75,0,1,0,1.06,0A.75.75,0,0,0,27.76,14.75Z" style="fill:#c52228"/><circle cx="32.04" cy="32.11" r="1" style="fill:#c52228"/><circle cx="28.29" cy="32.11" r="0.75" style="fill:#c52228"/><path d="M31.33,48.24a1,1,0,0,0,0,1.41,1,1,0,0,0,1.42,0,1,1,0,0,0,0-1.41A1,1,0,0,0,31.33,48.24Z" style="fill:#c52228"/><circle cx="28.29" cy="48.95" r="0.75" style="fill:#c52228"/><path d="M55.66,44.41a3,3,0,0,1-2.12-.87,3.14,3.14,0,0,1-.69-1.11h3.23a.5.5,0,0,0,.5-.5v-12a8.19,8.19,0,0,0-13.34-6.37l0,0a8.16,8.16,0,0,0-3,6.34v12a.5.5,0,0,0,.5.5h3.22a3,3,0,0,1-2.8,2,6.27,6.27,0,0,0-4,1.43V43.78a.5.5,0,0,0-.5-.5H22.05v-5.5H36.6a.5.5,0,0,0,.5-.5V27a.5.5,0,0,0-.5-.5H22.05V21H36.6a.5.5,0,0,0,.5-.5V10.11a.5.5,0,0,0-.5-.5H2.5a.5.5,0,0,0-.5.5V20.45a.5.5,0,0,0,.5.5H17.05v5.5H2.5A.5.5,0,0,0,2,27V37.28a.5.5,0,0,0,.5.5H17.05v5.5H2.5a.5.5,0,0,0-.5.5V54.11a.5.5,0,0,0,.5.5H34.77V61.5a.5.5,0,0,0,1,0V50.75A5.31,5.31,0,0,1,37,47.35c.11-.13.22-.26.34-.38a5.34,5.34,0,0,1,3.78-1.56,4,4,0,0,0,4-4V40.6a8.14,8.14,0,0,0,6.56,0v.82a2.72,2.72,0,0,0,.05.58,3.89,3.89,0,0,0,1.13,2.24,4,4,0,0,0,2.82,1.17A5.35,5.35,0,0,1,61,50.75V61.5a.5.5,0,0,0,1,0V50.75A6.34,6.34,0,0,0,55.66,44.41ZM3,10.61H36.1V20H3ZM18.05,21h3v5.5h-3ZM3,27.45H36.1v9.33H3ZM18.05,37.78h3v5.5h-3Zm16.72,13v2.86H3V44.28H36.1v2.61A6.33,6.33,0,0,0,34.77,50.75ZM55.55,29.38c-8-.17-10.74-4.11-11.36-5.31a7.17,7.17,0,0,1,11.36,5.31Zm-11.45,12H41.19V37a8.35,8.35,0,0,0,2.91,3ZM41.19,33.1V29.9a7.18,7.18,0,0,1,2.21-5.18c.9,1.58,4,5.5,12.18,5.66V33.1a7.2,7.2,0,0,1-14.39,0ZM55.58,37v4.41H52.66V40.07A8.14,8.14,0,0,0,55.58,37Z" style="fill:#c52228"/><path d="M52.5,52.48a.5.5,0,0,0-.43-.24H48.88v-4a.5.5,0,0,0-.94-.23l-3.69,7.29a.5.5,0,0,0,0,.49.5.5,0,0,0,.43.24h3.18v4a.51.51,0,0,0,.39.49h.11a.5.5,0,0,0,.45-.27L52.52,53A.48.48,0,0,0,52.5,52.48Zm-3.62,5.45V55.49a.5.5,0,0,0-.5-.5H45.51l2.37-4.7v2.45a.51.51,0,0,0,.5.5h2.88Z" style="fill:#c52228"/><path d="M57.46,53.61H55a.51.51,0,0,0-.5.5.5.5,0,0,0,.5.5h2.5a.5.5,0,0,0,.5-.5A.5.5,0,0,0,57.46,53.61Z" style="fill:#c52228"/><path d="M42.3,54.11a.5.5,0,0,0-.5-.5H39.3a.51.51,0,0,0-.5.5.5.5,0,0,0,.5.5h2.5A.5.5,0,0,0,42.3,54.11Z" style="fill:#c52228"/><path d="M53.39,58.41a.5.5,0,0,0-.71.71l1.77,1.77a.49.49,0,0,0,.35.14.5.5,0,0,0,.36-.14.51.51,0,0,0,0-.71Z" style="fill:#c52228"/><path d="M43.73,50a.47.47,0,0,0,.35-.15.48.48,0,0,0,0-.7l-1.76-1.77a.51.51,0,0,0-.71,0,.5.5,0,0,0,0,.71l1.77,1.76A.49.49,0,0,0,43.73,50Z" style="fill:#c52228"/><path d="M53,50a.5.5,0,0,0,.35-.15l1.77-1.76a.5.5,0,0,0-.71-.71l-1.77,1.77a.5.5,0,0,0,0,.7A.51.51,0,0,0,53,50Z" style="fill:#c52228"/><path d="M43.38,58.41l-1.77,1.77a.5.5,0,0,0,0,.71A.47.47,0,0,0,42,61a.5.5,0,0,0,.36-.14l1.76-1.77a.5.5,0,0,0,0-.71A.5.5,0,0,0,43.38,58.41Z" style="fill:#c52228"/><path d="M44.87,31.5a2,2,0,0,0-1.75,1,.51.51,0,0,0,.2.68A.5.5,0,0,0,44,33a1,1,0,0,1,1.73,0,.51.51,0,0,0,.45.27.49.49,0,0,0,.44-.73A2,2,0,0,0,44.87,31.5Z" style="fill:#c52228"/><path d="M53.65,32.56a2,2,0,0,0-3.5,0,.51.51,0,0,0,.2.68A.5.5,0,0,0,51,33a1,1,0,0,1,1.73,0,.51.51,0,0,0,.45.27.48.48,0,0,0,.23,0A.51.51,0,0,0,53.65,32.56Z" style="fill:#c52228"/></svg>