<svg id="Layer_1" data-name="Layer 1" xmlns="http://www.w3.org/2000/svg" viewBox="0 0 64 64"><title>-</title><path d="M36.19,50.2H10.25a4.47,4.47,0,0,1-4.5-4.49h0a4.5,4.5,0,0,1,9,0,.5.5,0,0,0,.5.5.5.5,0,0,0,.5-.5V16.2h29.5a.5.5,0,0,0,0-1H15.73a5.5,5.5,0,0,0-11,.47v30a5.48,5.48,0,0,0,5.5,5.5H36.19a.5.5,0,0,0,0-1Zm-25.94-39a4.5,4.5,0,0,1,4.5,4.49h0V42.54a5.49,5.49,0,0,0-9,0V15.7A4.51,4.51,0,0,1,10.25,11.2Z" style="fill:#c52228"/><path d="M48.75,29.7v3.56a.5.5,0,0,0,.5.5.51.51,0,0,0,.5-.5V29.7a.5.5,0,0,0-.5-.5A.5.5,0,0,0,48.75,29.7Z" style="fill:#c52228"/><path d="M40.27,25.9a.51.51,0,0,0,.46.3h17.1a.5.5,0,0,0,.5-.5V6.7A.51.51,0,0,0,58,6.23a.5.5,0,0,0-.55.14l-17.1,19A.47.47,0,0,0,40.27,25.9ZM57.33,8v2.7h-.5a.5.5,0,0,0,0,1h.5v3h-.5a.5.5,0,0,0,0,1h.5v3h-.5a.5.5,0,0,0,0,1h.5v3h-.5a.5.5,0,0,0,0,1h.5v1.5H41.85Z" style="fill:#c52228"/><path d="M54.51,15.35a.51.51,0,0,0-.55.13l-5.74,6.39a.47.47,0,0,0-.09.53.51.51,0,0,0,.46.3h5.74a.5.5,0,0,0,.5-.5V15.82A.51.51,0,0,0,54.51,15.35Zm-.68,6.35H49.71l4.12-4.58Z" style="fill:#c52228"/><path d="M59,44.09a.49.49,0,0,0-.48-.38H57a10.23,10.23,0,0,0-.53-1.31l1.08-1.07a.49.49,0,0,0,.07-.62,11.61,11.61,0,0,0-1.58-2,11.07,11.07,0,0,0-2-1.62.51.51,0,0,0-.62.07l-1.08,1.06A10.41,10.41,0,0,0,51,37.64V36.13a.49.49,0,0,0-.38-.49,11.16,11.16,0,0,0-5.11,0,.49.49,0,0,0-.39.48v1.51a8.76,8.76,0,0,0-1.31.53L42.78,37a.51.51,0,0,0-.62-.07,11.08,11.08,0,0,0-3.65,3.6.5.5,0,0,0,.07.61l1.06,1.08a9.62,9.62,0,0,0-.54,1.28H37.58a.5.5,0,0,0-.49.38A11.21,11.21,0,0,0,37,49a.49.49,0,0,0,.49.39H39a9.83,9.83,0,0,0,.53,1.3l-1.08,1.06a.5.5,0,0,0-.08.62,11.52,11.52,0,0,0,1.58,2,10.1,10.1,0,0,0,2,1.63.48.48,0,0,0,.61-.07l1.08-1.06a9.1,9.1,0,0,0,1.28.54V57a.5.5,0,0,0,.38.49A11.15,11.15,0,0,0,48,57.8a11,11,0,0,0,2.49-.28.5.5,0,0,0,.39-.48V55.53A8.12,8.12,0,0,0,52.17,55l1.07,1.08a.49.49,0,0,0,.61.08,11.48,11.48,0,0,0,2-1.58,11,11,0,0,0,1.62-2,.49.49,0,0,0-.07-.61l-1.06-1.08a7.91,7.91,0,0,0,.54-1.28h1.52a.51.51,0,0,0,.49-.38A11.11,11.11,0,0,0,59,44.09Zm-.92,4.51H56.56a.49.49,0,0,0-.49.36,7.48,7.48,0,0,1-.74,1.76.5.5,0,0,0,.08.6l1,1.06a10.06,10.06,0,0,1-1.27,1.49,9.86,9.86,0,0,1-1.51,1.24L52.62,54A.5.5,0,0,0,52,54a7.3,7.3,0,0,1-1.77.72.49.49,0,0,0-.37.48v1.48a10.44,10.44,0,0,1-3.9,0V55.11a.49.49,0,0,0-.35-.48,8.18,8.18,0,0,1-1.76-.75.5.5,0,0,0-.6.07l-1.06,1a8.94,8.94,0,0,1-1.5-1.27,10,10,0,0,1-1.23-1.52l1.06-1a.5.5,0,0,0,.08-.6,8.65,8.65,0,0,1-.73-1.78.49.49,0,0,0-.47-.36H37.94a10,10,0,0,1,0-3.9h1.48a.5.5,0,0,0,.48-.35,9,9,0,0,1,.75-1.77.51.51,0,0,0-.08-.6l-1-1.05a9.35,9.35,0,0,1,1.26-1.51A10.49,10.49,0,0,1,42.35,38l1,1.06a.5.5,0,0,0,.6.09,7.61,7.61,0,0,1,1.78-.71.5.5,0,0,0,.37-.48l0-1.48a10.13,10.13,0,0,1,3.88,0V38a.5.5,0,0,0,.36.49,8.63,8.63,0,0,1,1.78.75.52.52,0,0,0,.59-.08l1.06-1a11.17,11.17,0,0,1,1.5,1.25,11.78,11.78,0,0,1,1.23,1.53l-1.06,1a.5.5,0,0,0-.08.6,8.37,8.37,0,0,1,.72,1.79.5.5,0,0,0,.48.36h1.47A10.23,10.23,0,0,1,58.05,48.6Z" style="fill:#c52228"/><path d="M45.12,43.62a4,4,0,0,0-1.23,2.9A4.13,4.13,0,0,0,48,50.68h0A4.11,4.11,0,0,0,50.9,49.5a4.12,4.12,0,1,0-5.78-5.88Zm5.08,5.17h0a3.21,3.21,0,0,1-2.22.89,3.12,3.12,0,0,1-3.09-3.15,3.06,3.06,0,0,1,.93-2.2,3.13,3.13,0,1,1,4.38,4.46Z" style="fill:#c52228"/><path d="M36.46,34.48A.5.5,0,0,0,37,34V29.75h0l0-.13a.13.13,0,0,1,0-.06l-.06-.08a.24.24,0,0,0-.06-.08h0a.2.2,0,0,0-.08,0l-.08-.06-.12,0h-4.3a.5.5,0,0,0-.5.5.5.5,0,0,0,.5.5H35.3l-7.57,8.09L24.38,35a.5.5,0,0,0-.39-.15.51.51,0,0,0-.37.2l-3.13,4.1V23a.5.5,0,0,0-1,0V44.48a.5.5,0,0,0,.5.5H33.16a.5.5,0,0,0,.5-.5.5.5,0,0,0-.5-.5H20.49v-3.2h0l3.58-4.68,3.32,3.32a.52.52,0,0,0,.72,0L36,31v3A.5.5,0,0,0,36.46,34.48Z" style="fill:#c52228"/></svg>