<svg xmlns="http://www.w3.org/2000/svg" viewBox="0 0 64 64"><defs><style>.cls-1{fill:#c52228;}.cls-2{fill:none;stroke:#c52228;stroke-miterlimit:10;}</style></defs><title>unlock-cpu</title><g id="Layer_12" data-name="Layer 12"><path class="cls-1" d="M48.31,38.86l-4.21,7.3L41.62,43a.41.41,0,0,0-.58-.08.43.43,0,0,0-.08.59l2.86,3.68a.42.42,0,0,0,.33.16h0a.43.43,0,0,0,.33-.21L49,39.28a.42.42,0,0,0-.16-.57A.4.4,0,0,0,48.31,38.86Z"/><path class="cls-2" d="M29.66,49.4H2.52V23l3.26-5.61H21l1.87,3.23,1.19,2H52.48v6.52a13.46,13.46,0,0,1-5.76-1.7L45,26.34l-1.82,1a17.65,17.65,0,0,1-7.38,1.84,10.21,10.21,0,0,1-3.25-.5L28.75,27.4,28,31.31C27.88,31.76,26.06,41.24,29.66,49.4Z"/><path class="cls-2" d="M16.21,36.59v.47a1.38,1.38,0,0,0,1.38,1.39,2.3,2.3,0,0,1,2.21,1.63"/><path class="cls-2" d="M13.21,36.55v.51a1.39,1.39,0,0,1-1.39,1.39,2.31,2.31,0,0,0-1.64.68,2.24,2.24,0,0,0-.59,1"/><path class="cls-2" d="M14.71,36.82h0a2.73,2.73,0,0,1-3.05-3V32.5a3,3,0,0,1,3.05-3.05h0a3.06,3.06,0,0,1,3.05,3.05v1.27C17.76,36.31,16.39,36.82,14.71,36.82Z"/><path class="cls-2" d="M12.79,30.13s.9,2.37,5,2.37"/><path class="cls-2" d="M14.7,43.85a9.06,9.06,0,1,1,9.06-9.05A9.06,9.06,0,0,1,14.7,43.85Z"/><circle class="cls-2" cx="14.7" cy="34.8" r="7.67"/><path class="cls-2" d="M60.72,31.24l-.84-3.81-3.7,1.24a9.82,9.82,0,0,1-3.13.5l-.57,0a13.46,13.46,0,0,1-5.76-1.7L45,26.34l-1.82,1a17.65,17.65,0,0,1-7.38,1.84,10.21,10.21,0,0,1-3.25-.5L28.75,27.4,28,31.31c-.09.45-1.91,9.93,1.69,18.09a19.76,19.76,0,0,0,1.76,3.21A18.53,18.53,0,0,0,44,60.44l.62.12.63-.12A18.18,18.18,0,0,0,57.7,52.6C63.45,43.94,60.84,31.75,60.72,31.24ZM44.6,56.74A15,15,0,0,1,33.71,49.4c-4.32-7.47-2.3-17.66-2.3-17.66,6.52,2.19,13.43-1.58,13.43-1.58a16.84,16.84,0,0,0,7.64,2.24,13.25,13.25,0,0,0,4.82-.66S62.14,53.55,44.6,56.74Z"/><path class="cls-2" d="M57.3,31.74a13.25,13.25,0,0,1-4.82.66,16.84,16.84,0,0,1-7.64-2.24s-6.91,3.77-13.43,1.58c0,0-2,10.19,2.3,17.66A15,15,0,0,0,44.6,56.74C62.14,53.55,57.3,31.74,57.3,31.74Z"/></g></svg>