<svg id="Layer_1" data-name="Layer 1" xmlns="http://www.w3.org/2000/svg" viewBox="0 0 64 64"><title>EXPORT_IMH-icon-set</title><path d="M43.94,42l4.85-4.85a4.31,4.31,0,0,0,1.27-3.07,3.33,3.33,0,0,1,1-2.37L53.7,29l.82.81a.49.49,0,0,0,.35.15.47.47,0,0,0,.35-.15l6.63-6.63a.48.48,0,0,0,0-.7L48.91,9.58a.5.5,0,0,0-.71,0L41.58,16.2a.51.51,0,0,0-.15.36.47.47,0,0,0,.15.35l.81.82-1.18,1.18a3.21,3.21,0,0,1-3.31.71,5.69,5.69,0,0,0-5.75,1.23H27.6a7.09,7.09,0,0,1-5-2.08l-1-1,.81-.82a.48.48,0,0,0,0-.7L15.8,9.65a.5.5,0,0,0-.71,0L2.15,22.59a.5.5,0,0,0,0,.71l6.63,6.62a.47.47,0,0,0,.35.15.49.49,0,0,0,.35-.15l.81-.81A11.05,11.05,0,0,1,13.15,35a5.76,5.76,0,0,0,1.64,3.17l.79.79a2.59,2.59,0,0,0-.71,1.78,2.62,2.62,0,0,0,2.63,2.62,3,3,0,0,0,.42,0,3,3,0,0,0,0,.42,2.63,2.63,0,0,0,2.62,2.63,2,2,0,0,0,.43-.05,3,3,0,0,0,0,.43,2.63,2.63,0,0,0,2.62,2.63,2,2,0,0,0,.43,0,3.13,3.13,0,0,0,0,.43,2.63,2.63,0,0,0,2.63,2.63,2.59,2.59,0,0,0,1.8-.73,2.54,2.54,0,0,0,1.53.51,2.63,2.63,0,0,0,2.6-2.31L33.62,51a2.61,2.61,0,0,0,1.85.77,2.63,2.63,0,0,0,2.59-2.32l0,0a2.61,2.61,0,0,0,4.23-2.9,2.61,2.61,0,0,0,1.79-4.46ZM9.13,28.86,3.21,22.94,15.44,10.71l5.92,5.92ZM48.56,10.64,60.79,22.87l-5.92,5.92L42.64,16.56Zm-11,9.92a4.19,4.19,0,0,0,4.34-.94l1.18-1.18L53,28.33,50.34,31a4.36,4.36,0,0,0-1.28,3.08,3.28,3.28,0,0,1-1,2.36l-4.85,4.85-8.34-8.34a10.07,10.07,0,0,0,3.36.59,10.65,10.65,0,0,0,2.16-.23.51.51,0,0,0,.38-.6.5.5,0,0,0-.6-.38,9.09,9.09,0,0,1-8.29-2.38L34,27.81a.49.49,0,0,0-.7-.7l-4.05,4.06a4.78,4.78,0,0,1-6.36.33l9.79-9.8h0A4.76,4.76,0,0,1,37.58,20.56ZM17.5,42.37a1.63,1.63,0,1,1,1.63-1.62,1.6,1.6,0,0,1-.47,1.13l0,0A1.67,1.67,0,0,1,17.5,42.37Zm1.38,1.38a1.67,1.67,0,0,1,.46-1.14l0,0a1.6,1.6,0,0,1,1.13-.47,1.63,1.63,0,1,1-1.62,1.63Zm3,3a1.63,1.63,0,1,1,1.62,1.63A1.63,1.63,0,0,1,21.89,46.76Zm4.64,4.64a1.63,1.63,0,1,1,1.62-1.63A1.63,1.63,0,0,1,26.53,51.4ZM43.4,45.14a1.65,1.65,0,0,1-2.28,0h0l-9.62-9.62a.49.49,0,0,0-.7.7l10.3,10.3a1.65,1.65,0,0,1,.47,1.15,1.6,1.6,0,0,1-.48,1.14,1.65,1.65,0,0,1-2.28,0l-1.33-1.33h0l-.06-.06-8.91-8.91a.49.49,0,0,0-.7.7l8.87,8.88.06.06a1.63,1.63,0,0,1-.11,2.18,1.67,1.67,0,0,1-2.29,0l-2.46-2.46-.05-.06L25.5,41.5a.49.49,0,1,0-.7.7l6.27,6.28.05.05A1.61,1.61,0,0,1,31,50.7a1.65,1.65,0,0,1-2.1.16,2.62,2.62,0,0,0-2.38-3.71,3,3,0,0,0-.43,0,3,3,0,0,0,0-.43,2.63,2.63,0,0,0-2.63-2.63,2,2,0,0,0-.42,0,3,3,0,0,0,0-.43,2.63,2.63,0,0,0-2.63-2.63,1.84,1.84,0,0,0-.41.05,3,3,0,0,0,0-.42,2.63,2.63,0,0,0-2.63-2.63,2.59,2.59,0,0,0-1.11.26l-.9-.9a4.85,4.85,0,0,1-1.36-2.63A12,12,0,0,0,11,28.42l9.89-9.89.95.94a8,8,0,0,0,5.73,2.38h3.53l-9.31,9.32a.48.48,0,0,0,0,.7,5.77,5.77,0,0,0,8.14,0l1.23-1.22L43.4,42.86A1.61,1.61,0,0,1,43.4,45.14Z" style="fill:#c52228"/><path d="M23.87,9.59a2.45,2.45,0,0,0,.75.12,2.25,2.25,0,0,0,.68-.11l2.13,4.08a.48.48,0,0,0,.44.27h8.27a.5.5,0,0,0,.45-.27L38.7,9.6a2.25,2.25,0,0,0,.68.11,2.45,2.45,0,0,0,.75-.12,2.49,2.49,0,1,0-2.32-.44l-2,3.8H32.5V7a2.5,2.5,0,0,0,1.27-4.22,2.57,2.57,0,0,0-3.54,0A2.5,2.5,0,0,0,31.5,7v6H28.17l-2-3.81A2.46,2.46,0,0,0,27,8a2.53,2.53,0,0,0-.16-1.91A2.5,2.5,0,0,0,23.46,5a2.54,2.54,0,0,0-1.23,1.46A2.51,2.51,0,0,0,23.87,9.59ZM38.93,5.78h0a1.41,1.41,0,0,1,.45-.07,1.38,1.38,0,0,1,.69.17,1.44,1.44,0,0,1,.74.88,1.5,1.5,0,0,1-2.12,1.78h0a1.5,1.5,0,0,1,.24-2.76ZM30.5,4.5a1.5,1.5,0,1,1,2.56,1.06,1.53,1.53,0,0,1-2.12,0A1.5,1.5,0,0,1,30.5,4.5ZM23.19,6.76a1.44,1.44,0,0,1,.74-.88,1.38,1.38,0,0,1,.69-.17,1.41,1.41,0,0,1,.45.07,1.52,1.52,0,0,1,.88.73,1.53,1.53,0,0,1,.1,1.15,1.5,1.5,0,0,1-2.86-.9Z" style="fill:#c52228"/><path d="M58.34,46.84a2.48,2.48,0,0,0-1,1l-4.38-1.38a.5.5,0,0,0-.51.12l-2.91,2.93h0L46.6,52.46a.1.1,0,0,0,0,0l-.06.09,0,.09s0,.06,0,.09a.2.2,0,0,0,0,.11V53l1.38,4.35a2.47,2.47,0,0,0-1,1,2.51,2.51,0,0,0-.16,1.9A2.49,2.49,0,0,0,49.06,62a2.4,2.4,0,0,0,.75-.12,2.46,2.46,0,0,0,1.47-1.23,2.5,2.5,0,0,0-1.06-3.37A2.53,2.53,0,0,0,48.8,57L47.52,53l2.35-2.37,4.24,4.24a2.52,2.52,0,1,0,.71-.71l-4.24-4.24,2.34-2.36L57,48.8a2.56,2.56,0,0,0,.26,1.42,2.48,2.48,0,0,0,1.47,1.22,2.46,2.46,0,0,0,1.9-.16,2.5,2.5,0,1,0-2.31-4.44Zm-.65,9.35a1.5,1.5,0,1,1-1.5-1.5A1.5,1.5,0,0,1,57.69,56.19Zm-7.94,2a1.5,1.5,0,0,1,.64,2,1.5,1.5,0,1,1-2.66-1.38,1.5,1.5,0,0,1,.88-.74,1.41,1.41,0,0,1,.45-.07A1.5,1.5,0,0,1,49.75,58.17Zm10.44-7.78a1.5,1.5,0,0,1-2-.64,1.5,1.5,0,0,1,.64-2,1.53,1.53,0,0,1,.69-.17,1.5,1.5,0,0,1,.69,2.83Z" style="fill:#c52228"/><path d="M17.32,52.37,11.54,46.6a.51.51,0,0,0-.5-.13L6.68,47.85a2.47,2.47,0,0,0-2.93-1.17,2.46,2.46,0,0,0-1.47,1.23,2.5,2.5,0,0,0,1.07,3.37,2.47,2.47,0,0,0,1.15.28,2.51,2.51,0,0,0,2.22-1.34A2.56,2.56,0,0,0,7,48.8l4.07-1.28,2.36,2.36L9.18,54.11a2.52,2.52,0,1,0,.71.71l4.23-4.23L16.48,53,15.2,57a2.56,2.56,0,0,0-1.42.26A2.5,2.5,0,0,0,14.94,62a2.49,2.49,0,0,0,1.21-4.68l1.38-4.38A.5.5,0,0,0,17.32,52.37ZM5.83,49.75a1.5,1.5,0,1,1-.64-2A1.5,1.5,0,0,1,5.83,49.75Zm2,7.94a1.5,1.5,0,1,1,1.5-1.5A1.5,1.5,0,0,1,7.81,57.69Zm7.82,3.14a1.5,1.5,0,0,1-1.38-2.66,1.47,1.47,0,0,1,1.14-.1h0a1.5,1.5,0,0,1,.24,2.76Z" style="fill:#c52228"/></svg>