<svg id="Layer_1" data-name="Layer 1" xmlns="http://www.w3.org/2000/svg" viewBox="0 0 64 64"><path d="M24.89,23.57h.2l6.34,6.54v4.13a.5.5,0,0,0,.5.5.5.5,0,0,0,.5-.5v-2l6.67-6.66h.26c1.22,0,4.4-.21,6.44-2.26,2.52-2.52,2.26-6.75,2.25-6.93a.51.51,0,0,0-.47-.47c-.17,0-4.41-.27-6.93,2.25-2.22,2.22-2.28,5.76-2.26,6.7l-6,6V19.29c.81-.75,4.24-4.2,4.24-8.46,0-4.72-4.23-8.46-4.41-8.61a.48.48,0,0,0-.65,0c-.19.15-4.42,3.89-4.42,8.61,0,4.26,3.44,7.71,4.24,8.46v9.38L25.91,23c0-.74.12-5.06-2.53-7.7-2.83-2.83-7.61-2.53-7.81-2.52a.49.49,0,0,0-.46.46c0,.2-.31,5,2.52,7.81C19.94,23.34,23.52,23.57,24.89,23.57Zm16.47-4.71c1.75-1.74,4.6-1.95,5.7-2,0,1.11-.21,4-2,5.71a8,8,0,0,1-5,1.92l3.44-3.44a.5.5,0,0,0,0-.71.51.51,0,0,0-.71,0l-3.44,3.45A7.93,7.93,0,0,1,41.36,18.86Zm-13.17-8c0-3.53,2.78-6.59,3.74-7.55,1,1,3.74,4,3.74,7.55,0,3.05-2.05,5.73-3.24,7v-7a.5.5,0,0,0-.5-.5.51.51,0,0,0-.5.5v7C30.24,16.56,28.19,13.88,28.19,10.83ZM22.68,16c1.75,1.75,2.14,4.46,2.22,6L21.76,18.7a.5.5,0,0,0-.71,0,.51.51,0,0,0,0,.71l3.05,3.14a9.16,9.16,0,0,1-5.75-2.21c-2-2-2.24-5.38-2.24-6.58C17.31,13.75,20.64,14,22.68,16Z" style="fill:#c52228"/><path d="M54,37.74H10a.5.5,0,0,0,0,1H31.5v3.34l-6.05,3.34a.51.51,0,0,0-.26.44v3.85a2.41,2.41,0,0,0-1.26.66,2.47,2.47,0,0,0,0,3.53,2.5,2.5,0,0,0,3.53-3.53,2.4,2.4,0,0,0-1.27-.66V46.15l5.31-2.93V57a2.51,2.51,0,1,0,1,0V47l6.59,3.14v3.54a2.44,2.44,0,0,0-1.27.66,2.5,2.5,0,1,0,3.54,0,2.44,2.44,0,0,0-1.27-.66V49.86a.49.49,0,0,0-.28-.45L32.5,45.92h0V38.74H54a.5.5,0,0,0,0-1ZM27.19,52.13a1.44,1.44,0,0,1-.44,1.06,1.53,1.53,0,0,1-2.12,0,1.48,1.48,0,0,1-.44-1.06,1.5,1.5,0,0,1,1.5-1.5,1.5,1.5,0,0,1,1.06.44A1.47,1.47,0,0,1,27.19,52.13Zm13.9,4a1.48,1.48,0,0,1-.44,1.06,1.53,1.53,0,0,1-2.12,0,1.48,1.48,0,0,1-.44-1.06,1.52,1.52,0,0,1,.44-1.06,1.5,1.5,0,0,1,2.12,0A1.52,1.52,0,0,1,41.09,56.13ZM33.5,59.41a1.5,1.5,0,0,1-3,0,1.5,1.5,0,0,1,3,0Z" style="fill:#c52228"/><path d="M36.5,42.46a.75.75,0,0,0,0,1.06.77.77,0,0,0,1.07,0,.75.75,0,0,0,0-1.06A.77.77,0,0,0,36.5,42.46Z" style="fill:#c52228"/><path d="M47.5,50.46a.75.75,0,0,0,0,1.06.77.77,0,0,0,1.07,0,.75.75,0,0,0,0-1.06A.77.77,0,0,0,47.5,50.46Z" style="fill:#c52228"/><path d="M49.5,41.46a.75.75,0,0,0,0,1.06.77.77,0,0,0,1.07,0,.75.75,0,0,0,0-1.06A.77.77,0,0,0,49.5,41.46Z" style="fill:#c52228"/><path d="M43.5,44.46a.75.75,0,0,0,0,1.06.77.77,0,0,0,1.07,0,.75.75,0,0,0,0-1.06A.77.77,0,0,0,43.5,44.46Z" style="fill:#c52228"/><circle cx="26.16" cy="40.99" r="0.75" style="fill:#c52228"/><circle cx="16.16" cy="52.99" r="0.75" style="fill:#c52228"/><circle cx="13.16" cy="41.99" r="0.75" style="fill:#c52228"/><circle cx="20.16" cy="45.99" r="0.75" style="fill:#c52228"/></svg>