<svg xmlns="http://www.w3.org/2000/svg" viewBox="0 0 58.89 57.79"><defs><style>.cls-1{fill:#c52228;}</style></defs><g id="Layer_2" data-name="Layer 2"><g id="Layer_1-2" data-name="Layer 1"><path class="cls-1" d="M38.43,47.64a.27.27,0,0,0-.26.27v.79a.26.26,0,0,0,.26.26.25.25,0,0,0,.26-.26v-.8A.27.27,0,0,0,38.43,47.64Z"/><path class="cls-1" d="M38.46,51.6a.26.26,0,0,0-.26.27v1.58a.27.27,0,0,0,.26.27.28.28,0,0,0,.27-.27V51.86A.27.27,0,0,0,38.46,51.6Z"/><path class="cls-1" d="M38.49,56.36a.26.26,0,0,0-.26.26v.53H37.7a.27.27,0,0,0-.26.27.26.26,0,0,0,.27.26h.79a.26.26,0,0,0,.26-.27v-.79A.26.26,0,0,0,38.49,56.36Z"/><path class="cls-1" d="M26,57.23H24.58a.25.25,0,0,0-.26.27.26.26,0,0,0,.26.26H26a.26.26,0,0,0,.26-.27A.26.26,0,0,0,26,57.23Z"/><path class="cls-1" d="M30.41,57.2H29a.27.27,0,1,0,0,.53h1.45a.27.27,0,1,0,0-.53Z"/><path class="cls-1" d="M34.79,57.17H33.33a.25.25,0,0,0-.26.27.26.26,0,0,0,.26.26h1.46a.26.26,0,0,0,.26-.26A.27.27,0,0,0,34.79,57.17Z"/><path class="cls-1" d="M21.66,57.26h-.53v-.52a.27.27,0,1,0-.53,0v.79a.26.26,0,0,0,.26.26h.79a.27.27,0,1,0,0-.53Z"/><path class="cls-1" d="M20.82,49.71a.26.26,0,0,0,.26-.27V48a.26.26,0,0,0-.26-.26.27.27,0,0,0-.27.27v1.46A.27.27,0,0,0,20.82,49.71Z"/><path class="cls-1" d="M20.79,45.33a.26.26,0,0,0,.26-.26V43.61a.26.26,0,0,0-.26-.26.27.27,0,0,0-.27.26v1.46A.27.27,0,0,0,20.79,45.33Z"/><path class="cls-1" d="M20.85,54.08a.26.26,0,0,0,.26-.26V52.36a.26.26,0,0,0-.27-.26.26.26,0,0,0-.26.26v1.46A.26.26,0,0,0,20.85,54.08Z"/><path class="cls-1" d="M21.54,39.63h-.79a.26.26,0,0,0-.26.26v.8a.26.26,0,0,0,.26.26.26.26,0,0,0,.26-.27v-.53h.53a.26.26,0,0,0,.26-.26A.27.27,0,0,0,21.54,39.63Z"/><path class="cls-1" d="M24.72,40.14H26.3a.25.25,0,0,0,.26-.27.26.26,0,0,0-.26-.26H24.71a.27.27,0,1,0,0,.53Z"/><path class="cls-1" d="M29.47,40.11h.79a.27.27,0,0,0,.27-.26.25.25,0,0,0-.27-.26h-.79a.26.26,0,0,0-.26.27A.26.26,0,0,0,29.47,40.11Z"/><path class="cls-1" d="M58.19,23.54l-24.3.16a.52.52,0,0,0-.55.49l.14,21.44a.51.51,0,0,0,.56.48L58.34,46a.53.53,0,0,0,.55-.49L58.74,24A.52.52,0,0,0,58.19,23.54ZM57.78,45l-23.2.16-.13-20.47,23.19-.15Z"/><path class="cls-1" d="M27.53,48.24h2.15l-4.8,4.86a.27.27,0,0,0,0,.37.27.27,0,0,0,.38,0l4.8-4.86v2.15a.27.27,0,0,0,.53,0l0-2.79a.27.27,0,0,0-.27-.27l-2.78,0a.27.27,0,1,0,0,.53Z"/><path class="cls-1" d="M22,10.15a.27.27,0,0,0,.26-.27v-.8a.27.27,0,0,0-.54,0v.8A.27.27,0,0,0,22,10.15Z"/><path class="cls-1" d="M22,6.14a.27.27,0,0,0,.27-.26V4.27A.27.27,0,0,0,22,4a.26.26,0,0,0-.27.26V5.88A.27.27,0,0,0,22,6.14Z"/><path class="cls-1" d="M22,1.34a.27.27,0,0,0,.27-.27V.54h.53a.27.27,0,0,0,.27-.27A.27.27,0,0,0,22.82,0H22a.27.27,0,0,0-.26.27v.8A.28.28,0,0,0,22,1.34Z"/><path class="cls-1" d="M34.61.58h1.48a.27.27,0,0,0,0-.54H34.61a.27.27,0,0,0,0,.53Z"/><path class="cls-1" d="M30.19.57h1.47A.27.27,0,0,0,31.93.3.26.26,0,0,0,31.67,0H30.19a.27.27,0,0,0-.27.27A.28.28,0,0,0,30.19.57Z"/><path class="cls-1" d="M25.76.55h1.48a.26.26,0,0,0,.27-.26A.27.27,0,0,0,27.24,0H25.77a.27.27,0,0,0-.27.27A.27.27,0,0,0,25.76.55Z"/><path class="cls-1" d="M39,.6h.53v.54a.27.27,0,0,0,.53,0V.34a.27.27,0,0,0-.27-.27H39A.27.27,0,1,0,39,.6Z"/><path class="cls-1" d="M39.81,8.24a.27.27,0,0,0-.27.27V10a.26.26,0,0,0,.26.26.27.27,0,0,0,.27-.26V8.51A.27.27,0,0,0,39.81,8.24Z"/><path class="cls-1" d="M39.79,12.67a.27.27,0,0,0-.27.26v1.48a.27.27,0,1,0,.53,0V12.94A.27.27,0,0,0,39.79,12.67Z"/><path class="cls-1" d="M39.83,3.82a.27.27,0,0,0-.27.27V5.56a.27.27,0,1,0,.54,0V4.09A.27.27,0,0,0,39.83,3.82Z"/><path class="cls-1" d="M39,18.43h.8a.27.27,0,0,0,.27-.27v-.8a.27.27,0,1,0-.53,0v.53H39a.27.27,0,0,0-.27.27A.28.28,0,0,0,39,18.43Z"/><path class="cls-1" d="M35.77,17.88H34.16a.27.27,0,0,0-.26.27.25.25,0,0,0,.26.27h1.6a.27.27,0,1,0,0-.53Z"/><path class="cls-1" d="M31,17.86h-.8a.27.27,0,1,0,0,.53H31a.25.25,0,0,0,.26-.26A.25.25,0,0,0,31,17.86Z"/><path class="cls-1" d="M.59,36.51l25.86.1a.55.55,0,0,0,.59-.49l.08-21.89a.55.55,0,0,0-.59-.5L.67,13.63a.55.55,0,0,0-.59.5L0,36A.55.55,0,0,0,.59,36.51Zm.67-21.88,24.68.09-.08,20.9-24.68-.1Z"/><path class="cls-1" d="M33,9.66H30.83l4.91-4.87a.27.27,0,0,0-.38-.38l-4.9,4.87V7.09a.27.27,0,0,0-.54,0V9.91a.27.27,0,0,0,.27.27H33a.26.26,0,0,0,.26-.26A.26.26,0,0,0,33,9.66Z"/></g></g></svg>