<svg xmlns="http://www.w3.org/2000/svg" viewBox="0 0 45 45"><defs><style>.cls-1{fill:#c52228;}</style></defs><g id="Layer_2" data-name="Layer 2"><g id="Layer_1-2" data-name="Layer 1"><path class="cls-1" d="M33.87,26a.5.5,0,0,0-.5.5V28a.5.5,0,0,0,1,0V26.5A.5.5,0,0,0,33.87,26Z"/><path class="cls-1" d="M33.87,33.5a.5.5,0,0,0-.5.5v3a.5.5,0,0,0,1,0V34A.5.5,0,0,0,33.87,33.5Z"/><path class="cls-1" d="M33.87,42.5a.5.5,0,0,0-.5.5v1h-1a.5.5,0,1,0,0,1h1.5a.5.5,0,0,0,.5-.5V43A.5.5,0,0,0,33.87,42.5Z"/><path class="cls-1" d="M10.28,44H7.52a.5.5,0,1,0,0,1h2.76a.5.5,0,1,0,0-1Z"/><path class="cls-1" d="M18.56,44H15.8a.5.5,0,1,0,0,1h2.76a.5.5,0,1,0,0-1Z"/><path class="cls-1" d="M26.85,44H24.09a.5.5,0,0,0,0,1h2.76a.5.5,0,0,0,0-1Z"/><path class="cls-1" d="M2,44H1V43a.5.5,0,0,0-.5-.5A.5.5,0,0,0,0,43v1.5a.5.5,0,0,0,.5.5H2a.5.5,0,0,0,0-1Z"/><path class="cls-1" d="M.5,29.69a.5.5,0,0,0,.5-.5V26.43a.5.5,0,0,0-1,0v2.76A.5.5,0,0,0,.5,29.69Z"/><path class="cls-1" d="M.5,21.41a.5.5,0,0,0,.5-.5V18.15a.5.5,0,0,0-1,0v2.76A.5.5,0,0,0,.5,21.41Z"/><path class="cls-1" d="M.5,38a.5.5,0,0,0,.5-.5V34.72a.5.5,0,0,0-.5-.5.5.5,0,0,0-.5.5v2.76A.5.5,0,0,0,.5,38Z"/><path class="cls-1" d="M2,10.63H.5a.5.5,0,0,0-.5.5v1.5a.5.5,0,0,0,.5.5.5.5,0,0,0,.5-.5v-1H2a.5.5,0,0,0,0-1Z"/><path class="cls-1" d="M8,11.63h3a.5.5,0,0,0,0-1H8a.5.5,0,0,0,0,1Z"/><path class="cls-1" d="M17,11.63h1.5a.5.5,0,0,0,0-1H17a.5.5,0,0,0,0,1Z"/><path class="cls-1" d="M44.5,0h-22a.5.5,0,0,0-.5.5v22a.5.5,0,0,0,.5.5h22a.5.5,0,0,0,.5-.5V.5A.5.5,0,0,0,44.5,0ZM44,22H23V1H44Z"/><path class="cls-1" d="M13.22,27h4.07L8.15,36.15a.49.49,0,0,0,.7.7L18,27.71v4.07a.5.5,0,0,0,1,0V26.5a.5.5,0,0,0-.5-.5H13.22a.5.5,0,1,0,0,1Z"/></g></g></svg>