<svg id="Layer_1" data-name="Layer 1" xmlns="http://www.w3.org/2000/svg" viewBox="0 0 64 64"><title>EXPORT_IMH-icon-set</title><path d="M31.15,57.91A30.07,30.07,0,0,1,23.26,61C21.76,60.68,3,56.22,3,37V18.6a15,15,0,0,0,20.26-.45,15,15,0,0,0,20.25.45V29.36a.5.5,0,1,0,1,0V17.46A.5.5,0,0,0,44.2,17a.48.48,0,0,0-.54.11,14,14,0,0,1-20,0,.48.48,0,0,0-.7,0,14,14,0,0,1-20.06,0A.48.48,0,0,0,2.31,17a.5.5,0,0,0-.31.46V37C2,57.74,23,62,23.17,62h.18a29.94,29.94,0,0,0,8.3-3.22.51.51,0,0,0,.19-.68A.5.5,0,0,0,31.15,57.91Z" style="fill:#c52228"/><path d="M39.51,29.36a.5.5,0,1,0,1,0V24.64a.51.51,0,0,0-.21-.41.54.54,0,0,0-.46-.06,18.07,18.07,0,0,1-16.3-2,.48.48,0,0,0-.56,0,18.14,18.14,0,0,1-10.1,3.08,18,18,0,0,1-6.21-1.1.5.5,0,0,0-.67.47V37C6,52.36,19.1,56.87,23.11,57.89l.13,0,.12,0a28.14,28.14,0,0,0,6.32-2.6.49.49,0,0,0,.19-.68.51.51,0,0,0-.68-.19,26.79,26.79,0,0,1-6,2.47C19.25,55.85,7,51.48,7,37V25.34a18.88,18.88,0,0,0,5.88.93A19.09,19.09,0,0,0,23.26,23.2a19.05,19.05,0,0,0,10.37,3.07,18.88,18.88,0,0,0,5.88-.93Z" style="fill:#c52228"/><path d="M61.5,42.94H56.79V39.82a8.34,8.34,0,1,0-16.68,0v3.12H35.4a.5.5,0,0,0-.5.5v18a.5.5,0,0,0,.5.5H61.5a.5.5,0,0,0,.5-.5v-18A.5.5,0,0,0,61.5,42.94ZM41.11,39.82a7.34,7.34,0,1,1,14.68,0v3.12H41.11ZM61,60.94H35.9v-17H61Z" style="fill:#c52228"/><path d="M46.68,49.34a2.51,2.51,0,0,0-.14,3.38v4.39a.5.5,0,0,0,.5.5h2.82a.5.5,0,0,0,.5-.5V55.44a.5.5,0,0,0-.5-.5.51.51,0,0,0-.5.5v1.17H47.54V52.52a.51.51,0,0,0-.15-.35,1.49,1.49,0,0,1,0-2.12,1.53,1.53,0,0,1,2.12,0,1.49,1.49,0,0,1,0,2.12.51.51,0,0,0-.15.35v1.06a.51.51,0,0,0,.5.5.5.5,0,0,0,.5-.5v-.86a2.51,2.51,0,0,0-.14-3.38A2.57,2.57,0,0,0,46.68,49.34Z" style="fill:#c52228"/><path d="M27.26,34.52,22.2,43.31l-3-3.85a.5.5,0,1,0-.79.61l3.44,4.44a.51.51,0,0,0,.4.19h0a.48.48,0,0,0,.4-.25L28.13,35a.5.5,0,1,0-.87-.49Z" style="fill:#c52228"/></svg>