<svg id="Layer_1" data-name="Layer 1" xmlns="http://www.w3.org/2000/svg" viewBox="0 0 64 64"><title>EXPORT_IMH-icon-set</title><path d="M23.29,45.79a1,1,0,1,0,1.42,0A1,1,0,0,0,23.29,45.79Z" style="fill:#c52228"/><path d="M38,25H48.93a.5.5,0,1,0,0-1H38a.5.5,0,0,0,0,1Z" style="fill:#c52228"/><path d="M33.85,47h16.5a.5.5,0,0,0,0-1H49V36.91a.5.5,0,0,0-.5-.5H35.7a.5.5,0,0,0-.5.5V46H33.85a.5.5,0,1,0,0,1Zm2.35-9.59H48V46H36.2Z" style="fill:#c52228"/><path d="M61.5,53.5H60.35a2.65,2.65,0,0,0-3.22-3.56,3.29,3.29,0,0,0-2.63-1.52V33a5,5,0,0,0,4.23-4.88V24.53a.78.78,0,0,0,0-.21L54.5,15.16V10a.5.5,0,0,0-.5-.5H10a.5.5,0,0,0-.5.5v5.16L5.31,24.32a.78.78,0,0,0,0,.21V28.1A5,5,0,0,0,9.5,33V53.5h-7a.5.5,0,0,0,0,1h59a.5.5,0,0,0,0-1ZM6.27,28.12s0-.09,0-.11a.45.45,0,0,0,0-.11V25H32a.5.5,0,0,0,0-1H6.55l3.91-8.56a.65.65,0,0,0,0-.2V10.5h43v4.77a.65.65,0,0,0,0,.2l4.19,9.17V27.9a.45.45,0,0,0,0,.11.78.78,0,0,0,0,.09,4,4,0,0,1-7.82.81.49.49,0,0,0-.49-.4.5.5,0,0,0-.49.4,3.95,3.95,0,0,1-7.73,0,.49.49,0,0,0-.49-.4.5.5,0,0,0-.49.4,3.95,3.95,0,0,1-7.73,0,.5.5,0,0,0-1,0,3.95,3.95,0,0,1-7.73,0,.5.5,0,0,0-.49-.4.49.49,0,0,0-.49.4,3.95,3.95,0,0,1-7.73,0,.5.5,0,0,0-.49-.4.49.49,0,0,0-.49.4,4,4,0,0,1-7.82-.79ZM10.5,33a5,5,0,0,0,4.08-2.58,4.95,4.95,0,0,0,8.71,0,4.95,4.95,0,0,0,8.71,0,4.95,4.95,0,0,0,8.71,0,4.95,4.95,0,0,0,8.71,0A5,5,0,0,0,53.5,33V48.49a3.26,3.26,0,0,0-1.62.87,3,3,0,0,0-.39.47A2.65,2.65,0,0,0,49.2,53.5H27.83V36.91a.5.5,0,0,0-.5-.5H15.27a.5.5,0,0,0-.5.5V53.5H10.5ZM15.77,53.5V37.41H26.83V53.5ZM54,53.5H50.34a1.65,1.65,0,0,1,.13-2.19,1.63,1.63,0,0,1,1.27-.48.51.51,0,0,0,.47-.25,2.19,2.19,0,0,1,.38-.52,2.35,2.35,0,0,1,3.85.72.53.53,0,0,0,.3.27.48.48,0,0,0,.39,0A1.65,1.65,0,0,1,59.2,53.5Z" style="fill:#c52228"/><path d="M54.07,61H10a.5.5,0,0,0,0,1H54.07a.5.5,0,0,0,0-1Z" style="fill:#c52228"/><path d="M44.6,39.2a.48.48,0,0,0-.7,0l-4.3,4.3a.5.5,0,0,0,0,.71.46.46,0,0,0,.35.14.47.47,0,0,0,.35-.14l4.3-4.31A.48.48,0,0,0,44.6,39.2Z" style="fill:#c52228"/><path d="M44.82,41.27l-2.15,2.15a.51.51,0,0,0,0,.71.5.5,0,0,0,.35.15.51.51,0,0,0,.36-.15L45.53,42a.5.5,0,0,0-.71-.71Z" style="fill:#c52228"/></svg>