<svg id="Layer_1" data-name="Layer 1" xmlns="http://www.w3.org/2000/svg" viewBox="0 0 64 64"><path d="M51.71,58.45H50.43V52.32a20.88,20.88,0,0,0-12.33-19l-2-.87a.41.41,0,0,1,0-.76l2-.88a20.87,20.87,0,0,0,12.33-19V5.55h1.28a1.73,1.73,0,0,0,0-3.45H12.29a1.73,1.73,0,0,0,0,3.45h1.28v6.21a20.87,20.87,0,0,0,12.33,19l2,.88a.41.41,0,0,1,0,.76l-2,.87a20.88,20.88,0,0,0-12.33,19v6.13H12.29a1.73,1.73,0,0,0,0,3.45H51.71a1.73,1.73,0,0,0,0-3.45ZM11.57,3.83a.73.73,0,0,1,.72-.73H51.71a.73.73,0,0,1,0,1.45H12.29A.72.72,0,0,1,11.57,3.83Zm3,48.49A19.87,19.87,0,0,1,26.31,34.21l2-.88a1.41,1.41,0,0,0,0-2.58l-2-.88A19.87,19.87,0,0,1,14.57,11.76V5.63H49.43v6.13A19.87,19.87,0,0,1,37.69,29.87l-1.95.88a1.41,1.41,0,0,0,0,2.58l1.95.88A19.87,19.87,0,0,1,49.43,52.32v6.13H46.66a16.42,16.42,0,0,0-3.14-9.22,5,5,0,0,0-5-4.56h0a13.68,13.68,0,0,0-1.64-.87l-1.4-.63a3.41,3.41,0,0,1-2-3.11V30.45l3.42-1.52a16.48,16.48,0,0,0,4.28-2.78,5,5,0,0,0,5-5,5.1,5.1,0,0,0-.35-1.84,16.53,16.53,0,0,0,.94-5.48v-.07s0-.05,0-.08v0c-.4-1.53-9.28-1.76-14.64-1.76h-.37A5,5,0,0,0,27,8.71a5.07,5.07,0,0,0-4.8,3.53c-4.47.41-4.85.91-4.85,1.48a.06.06,0,0,0,0,0,0,0,0,0,0,0,0,16.61,16.61,0,0,0,9.81,15.14l3.43,1.52v9.62a3.42,3.42,0,0,1-2,3.11l-1.4.63a16.59,16.59,0,0,0-9.79,14.64H14.57ZM31.26,29.67,27.54,28a15.6,15.6,0,0,1-9.2-13.4l.72.17h0l.22.05a38,38,0,0,0,4.46.49l1.62.11,3.08.12,2,0h.8l.09,0h4.45l.94,0h.08c3.22-.11,7-.36,8.79-.92a15.52,15.52,0,0,1-.59,3.51A5,5,0,1,0,39.79,26a15,15,0,0,1-3.34,2l-3.72,1.66a.51.51,0,0,0-.29.46v9.94a4.43,4.43,0,0,0,2.61,4l1.4.63c.18.07.32.15.48.23a5,5,0,0,0-3.45,4.76A5,5,0,0,0,34,52a.51.51,0,0,0,.53.28l.79-.12c.48-.07,1-.1,1.58-.13h0A.15.15,0,0,0,37,52l.53,0,.4,0a.64.64,0,0,0,.2,0,.67.67,0,0,0,.37,0h.32l.7,0h.22l.39,0c.47,0,1,.1,1.56.19.24.05.49.09.7.15h.12a.51.51,0,0,0,.44-.26,5.39,5.39,0,0,0,.47-1.23,15.46,15.46,0,0,1,2.24,7.55H22.89a17.94,17.94,0,0,1,1.77-7.15.5.5,0,1,0-.9-.43,19,19,0,0,0-1.87,7.58H18.33a15.58,15.58,0,0,1,9.21-13.72l1.4-.63a4.42,4.42,0,0,0,2.62-4V30.13A.51.51,0,0,0,31.26,29.67Zm13.8-15.93-.16,0-.26.05-.18,0-.36.05-.16,0-.59.08-.25,0-.44,0-.32,0-.45,0-.36,0-.49,0-.38,0-.6,0-.35,0-1,.06h-.31l-.79,0-.43,0-.74,0-.48,0-.78,0H32a5.67,5.67,0,0,0,.07-.82,5.28,5.28,0,0,0-.09-.9H32c6.82,0,11.51.45,13.16.86Zm-18.41,0a1,1,0,0,1-.69-1,.86.86,0,0,1,0-.28,1.06,1.06,0,0,1,.65-.67Zm4.18-1.17A3.78,3.78,0,0,1,31,13.76a3.66,3.66,0,0,1-.09.81l-2.34,0h-.25a1.74,1.74,0,0,0-1-.69v-2a1,1,0,0,1,.62.6.84.84,0,0,1,.07.35.33.33,0,0,0,.66,0,1.44,1.44,0,0,0,0-.37,1.67,1.67,0,0,0-1.3-1.23v-.29a.32.32,0,0,0-.32-.33.33.33,0,0,0-.33.33v.29a1.64,1.64,0,0,0-1.31,1.35,1,1,0,0,0,0,.25,1.64,1.64,0,0,0,1.34,1.6v.11c-1.1-.05-2.12-.1-3.06-.17l-.39,0-.24,0a2.92,2.92,0,0,1,0-.51,4.32,4.32,0,0,1,.1-.88h0A4.06,4.06,0,0,1,27,9.71,4,4,0,0,1,30.83,12.55ZM22,14.18a22.48,22.48,0,0,1-3.06-.46A23.06,23.06,0,0,1,22,13.27a3.91,3.91,0,0,0,0,.49A3,3,0,0,0,22,14.18Zm19.1,11a4,4,0,1,1,4-4A4.05,4.05,0,0,1,41.05,25.15Zm1.52,24.57a4,4,0,0,1-.33,1.6l-.42-.08c-.58-.1-1.1-.16-1.6-.2h-.1a1.64,1.64,0,0,0-1.27-1.25v-2a1,1,0,0,1,.69,1,.33.33,0,0,0,.33.33.32.32,0,0,0,.32-.33,1.65,1.65,0,0,0-1.34-1.6v-.29a.32.32,0,0,0-.32-.32.32.32,0,0,0-.33.32v.29a1.63,1.63,0,0,0,0,3.2V51L38,51h-.53L37,51a.62.62,0,0,0-.18,0c-.59,0-1.11.06-1.62.13l-.43.06a4,4,0,1,1,7.82-1.47Zm-4.37-.06a1,1,0,0,1-.69-.95,1,1,0,0,1,.69-1ZM39.44,51l-.59,0h0v-.51A1,1,0,0,1,39.44,51Zm12.27,9.9H12.29a.73.73,0,0,1,0-1.45H51.71a.73.73,0,0,1,0,1.45Z" style="fill:#c52228"/><path d="M42.06,19.77a.33.33,0,0,0,.66,0,1.64,1.64,0,0,0-1.35-1.6v-.29a.32.32,0,0,0-.32-.33.33.33,0,0,0-.33.33v.29a1.63,1.63,0,0,0,0,3.2v2a1,1,0,0,1-.69-.95.32.32,0,0,0-.32-.33.33.33,0,0,0-.33.33,1.65,1.65,0,0,0,1.34,1.6v.29a.33.33,0,0,0,.33.33.32.32,0,0,0,.32-.33v-.29a1.62,1.62,0,0,0,0-3.2v-2A1,1,0,0,1,42.06,19.77Zm-1.34.95a1,1,0,0,1-.69-.95,1,1,0,0,1,.69-.95Zm1.34,1.73a1,1,0,0,1-.69.95V21.5A1,1,0,0,1,42.06,22.45Z" style="fill:#c52228"/></svg>