<svg id="Layer_1" data-name="Layer 1" xmlns="http://www.w3.org/2000/svg" viewBox="0 0 64 64"><title>EXPORT_IMH-icon-set</title><path d="M28.18,38.67a.5.5,0,0,0-.5.5v2.5a.51.51,0,0,0,.5.5.5.5,0,0,0,.5-.5v-2.5A.5.5,0,0,0,28.18,38.67Z" style="fill:#c52228"/><path d="M61.27,39.07a2.5,2.5,0,0,0-3.54,0,2.52,2.52,0,0,0-.68,1.26H45.52V36.5H54a.5.5,0,0,0,.5-.5V31.17a2.55,2.55,0,0,0,1.27-.68,2.5,2.5,0,1,0-3.54,0,2.55,2.55,0,0,0,1.27.68V35.5h-8V32a.5.5,0,0,0-.5-.5h-3.5V22.67A2.52,2.52,0,0,0,42.78,22a2.5,2.5,0,1,0-2.26.68V31.5H37.1V26.83a.5.5,0,0,0-.5-.5H22.05v-5.5H36.6a.5.5,0,0,0,.5-.5V10a.5.5,0,0,0-.5-.5H2.5A.5.5,0,0,0,2,10V20.33a.5.5,0,0,0,.5.5H17.05v5.5H2.5a.5.5,0,0,0-.5.5V37.17a.5.5,0,0,0,.5.5H17.05v5.5H2.5a.5.5,0,0,0-.5.5V54a.5.5,0,0,0,.5.5H36.6a.5.5,0,0,0,.5-.5V49.33h3.42V54a.5.5,0,0,0,.5.5h3v2.56a2.55,2.55,0,0,0-1.27.68,2.52,2.52,0,0,0,0,3.54,2.51,2.51,0,0,0,3.54,0,2.52,2.52,0,0,0,0-3.54A2.46,2.46,0,0,0,45,57.07V54a.5.5,0,0,0-.5-.5h-3V49.33H45a.5.5,0,0,0,.5-.5v-2.3h8v4.33a2.48,2.48,0,0,0-1.27.68,2.5,2.5,0,1,0,3.54,0,2.48,2.48,0,0,0-1.27-.68V46a.5.5,0,0,0-.5-.5H45.52v-4.2H57.05a2.5,2.5,0,1,0,4.22-2.26ZM52.94,27.66a1.5,1.5,0,0,1,2.12,0,1.5,1.5,0,1,1-2.12,0Zm-13-8.5A1.49,1.49,0,0,1,41,18.72,1.5,1.5,0,1,1,40,21.28,1.49,1.49,0,0,1,40,19.16Zm5.6,41.41a1.5,1.5,0,1,1-2.12-2.12,1.5,1.5,0,0,1,2.12,0A1.49,1.49,0,0,1,45.56,60.57Zm9.5-6.2a1.5,1.5,0,1,1,0-2.13A1.51,1.51,0,0,1,55.06,54.37ZM3,10.5H36.1v9.33H3ZM18.05,20.83h3v5.5h-3ZM3,27.33H36.1V32h0v4.67H3ZM18.05,37.67h3v5.5h-3ZM36.1,53.5H3V44.17H36.1Zm8.42-5.17H37.1V43.67a.5.5,0,0,0-.5-.5H22.05v-5.5H36.6a.5.5,0,0,0,.5-.5V32.5h7.42Zm16-6.44a1.5,1.5,0,0,1-2.12-2.12,1.5,1.5,0,0,1,2.12,0A1.49,1.49,0,0,1,60.56,41.89Z" style="fill:#c52228"/><circle cx="32.04" cy="15.17" r="1" style="fill:#c52228"/><circle cx="28.29" cy="15.17" r="0.75" style="fill:#c52228"/><path d="M31.33,31.29a1,1,0,1,0,1.42,0A1,1,0,0,0,31.33,31.29Z" style="fill:#c52228"/><path d="M27.76,31.47a.75.75,0,1,0,1.06,0A.75.75,0,0,0,27.76,31.47Z" style="fill:#c52228"/><circle cx="32.04" cy="48.83" r="1" style="fill:#c52228"/><circle cx="28.29" cy="48.83" r="0.75" style="fill:#c52228"/></svg>