<svg id="Layer_1" data-name="Layer 1" xmlns="http://www.w3.org/2000/svg" viewBox="0 0 64 64"><title>-</title><path d="M61.85,28.31,48.91,15.37a.48.48,0,0,0-.7,0L41.58,22a.48.48,0,0,0,0,.7l.81.82L41.21,24.7a3.21,3.21,0,0,1-3.31.71,5.72,5.72,0,0,0-5.75,1.23H27.6a7.09,7.09,0,0,1-5-2.08l-1-1,.81-.82a.48.48,0,0,0,0-.7L15.8,15.44a.5.5,0,0,0-.71,0L2.15,28.38a.5.5,0,0,0,0,.71l6.63,6.62a.47.47,0,0,0,.35.15.49.49,0,0,0,.35-.15l.81-.81a11.05,11.05,0,0,1,2.86,5.9A5.86,5.86,0,0,0,14.79,44l.79.79a2.62,2.62,0,0,0,1.92,4.4,3,3,0,0,0,.42,0,3,3,0,0,0,0,.42,2.63,2.63,0,0,0,2.62,2.63,2,2,0,0,0,.43-.05,3,3,0,0,0,0,.43,2.63,2.63,0,0,0,2.62,2.63,2,2,0,0,0,.43,0,3.13,3.13,0,0,0,0,.43,2.63,2.63,0,0,0,2.63,2.63,2.59,2.59,0,0,0,1.8-.73,2.54,2.54,0,0,0,1.53.51,2.63,2.63,0,0,0,2.6-2.31l1.16,1.16a2.61,2.61,0,0,0,1.85.77,2.63,2.63,0,0,0,2.59-2.32l0,0a2.61,2.61,0,0,0,4.23-2.9,2.61,2.61,0,0,0,1.79-4.46l-.17-.17,4.85-4.85a4.37,4.37,0,0,0,1.27-3.07,3.39,3.39,0,0,1,1-2.37l2.66-2.65.82.81a.49.49,0,0,0,.35.15.47.47,0,0,0,.35-.15L61.85,29A.48.48,0,0,0,61.85,28.31ZM9.13,34.65,3.21,28.73,15.44,16.5l5.92,5.92ZM17.5,48.16a1.63,1.63,0,1,1,1.63-1.62,1.6,1.6,0,0,1-.47,1.13l0,0A1.63,1.63,0,0,1,17.5,48.16Zm1.38,1.38a1.67,1.67,0,0,1,.46-1.14l0,0a1.59,1.59,0,0,1,1.13-.46,1.63,1.63,0,1,1-1.62,1.62Zm3,3a1.63,1.63,0,1,1,1.62,1.63A1.63,1.63,0,0,1,21.89,52.55Zm4.64,4.64a1.63,1.63,0,1,1,1.62-1.63A1.63,1.63,0,0,1,26.53,57.19ZM43.4,50.93a1.64,1.64,0,0,1-2.28,0h0l-9.63-9.62a.49.49,0,1,0-.7.7l10.3,10.3a1.65,1.65,0,0,1,.47,1.15,1.6,1.6,0,0,1-.48,1.14,1.65,1.65,0,0,1-2.28,0l-1.33-1.32h0l-.06-.07L28.49,44.3a.49.49,0,0,0-.7.7l8.88,8.89,0,0a1.63,1.63,0,0,1-.11,2.18,1.67,1.67,0,0,1-2.29,0l-2.46-2.46-.05-.06L25.5,47.29a.49.49,0,1,0-.7.7l6.27,6.28.05.06A1.6,1.6,0,0,1,31,56.49a1.65,1.65,0,0,1-2.1.16,2.62,2.62,0,0,0-2.38-3.71,3,3,0,0,0-.43,0,3,3,0,0,0,0-.43,2.63,2.63,0,0,0-2.63-2.63,2,2,0,0,0-.42,0,3,3,0,0,0,0-.43,2.62,2.62,0,0,0-2.63-2.62,2.71,2.71,0,0,0-.41,0,3,3,0,0,0,0-.42,2.63,2.63,0,0,0-2.63-2.63,2.59,2.59,0,0,0-1.11.26l-.89-.9a4.92,4.92,0,0,1-1.36-2.63A12.17,12.17,0,0,0,11,34.21l9.89-9.89.95.94a8,8,0,0,0,5.73,2.38h3.53L21.82,37a.48.48,0,0,0,0,.7,5.77,5.77,0,0,0,8.14,0l1.23-1.22L43.4,48.65a1.59,1.59,0,0,1,0,2.28Zm6.94-14.15a4.35,4.35,0,0,0-1.28,3.07,3.32,3.32,0,0,1-1,2.36l-4.85,4.86-8.34-8.35a10.07,10.07,0,0,0,3.36.59,10.65,10.65,0,0,0,2.16-.23.5.5,0,0,0,.38-.59.51.51,0,0,0-.6-.39,9.09,9.09,0,0,1-8.29-2.38L34,33.6a.49.49,0,0,0-.7-.7L29.26,37a4.78,4.78,0,0,1-6.36.33l9.79-9.8h0a4.76,4.76,0,0,1,4.89-1.14,4.17,4.17,0,0,0,4.34-.94l1.18-1.18L53,34.12Zm4.53-2.2L42.64,22.35l5.92-5.92L60.79,28.66Z" style="fill:#c52228"/><path d="M29.28,11.74l-.47,2.73A.47.47,0,0,0,29,15a.49.49,0,0,0,.52,0L32,13.71,34.44,15a.46.46,0,0,0,.23.05A.5.5,0,0,0,35,15a.47.47,0,0,0,.2-.49l-.46-2.73,2-1.94a.49.49,0,0,0,.13-.51A.51.51,0,0,0,36.4,9l-2.74-.4L32.43,6.07a.52.52,0,0,0-.89,0L30.31,8.55,27.57,9a.51.51,0,0,0-.41.34.51.51,0,0,0,.13.51ZM30.71,9.5a.47.47,0,0,0,.38-.27L32,7.42l.89,1.81a.47.47,0,0,0,.38.27l2,.29-1.45,1.42a.48.48,0,0,0-.14.44l.34,2-1.79-.94a.46.46,0,0,0-.23-.06.53.53,0,0,0-.24.06L30,13.64l.35-2a.51.51,0,0,0-.15-.44L28.71,9.79Z" style="fill:#c52228"/></svg>