<svg id="Layer_1" data-name="Layer 1" xmlns="http://www.w3.org/2000/svg" viewBox="0 0 64 64"><path d="M33,50.6H10.83a21.5,21.5,0,1,1,37.65-15,.5.5,0,0,0,.5.48h0a.5.5,0,0,0,.48-.51A22.5,22.5,0,1,0,10.23,51.43a.52.52,0,0,0,.37.17H33a.5.5,0,0,0,.5-.5A.5.5,0,0,0,33,50.6Z" style="fill:#c52228"/><path d="M42.17,26.74a.52.52,0,0,0-.17.7.51.51,0,0,0,.68.19.51.51,0,0,0,.19-.69l0-.05A.48.48,0,0,0,42.17,26.74Z" style="fill:#c52228"/><path d="M45,36.37h0a.5.5,0,0,0,.5-.47v-.11a.5.5,0,0,0-.53-.47.48.48,0,0,0-.47.52A.5.5,0,0,0,45,36.37Z" style="fill:#c52228"/><path d="M44.63,33.34h.12a.5.5,0,0,0,.37-.6l-.49.07-.48.17A.49.49,0,0,0,44.63,33.34Z" style="fill:#c52228"/><path d="M43.76,29.88l-.44.25a.52.52,0,0,0,.46.3.52.52,0,0,0,.46-.7Z" style="fill:#c52228"/><path d="M36,21.44a.5.5,0,0,0,.69-.17.49.49,0,0,0-.17-.68,18.48,18.48,0,0,0-24.42,26.8.52.52,0,0,0,.4.21.57.57,0,0,0,.3-.1.5.5,0,0,0,.1-.7A17.33,17.33,0,0,1,9.5,36.43,17.49,17.49,0,0,1,36,21.44Z" style="fill:#c52228"/><path d="M27,39.41a3,3,0,0,0,2.11-.87c1-1,11.77-15.15,12.23-15.75a.5.5,0,0,0-.7-.7c-.6.46-14.76,11.25-15.75,12.23A3,3,0,0,0,27,39.41ZM25.6,35c.62-.62,7.46-5.89,12.68-9.88-2,2.61-4.31,5.63-6.2,8.07s-3.37,4.3-3.68,4.61a2,2,0,0,1-2.8,0,2,2,0,0,1,0-2.8Z" style="fill:#c52228"/><path d="M33.41,46.6H23.35a.5.5,0,0,0-.5.5.5.5,0,0,0,.5.5H33.41a.5.5,0,0,0,.5-.5A.5.5,0,0,0,33.41,46.6Z" style="fill:#c52228"/><path d="M16.41,46.6a.5.5,0,0,0-.5.5.51.51,0,0,0,.5.5h2.94a.51.51,0,0,0,.5-.5.5.5,0,0,0-.5-.5Z" style="fill:#c52228"/><path d="M48,39.07a11.5,11.5,0,1,0,11.5,11.5A11.51,11.51,0,0,0,48,39.07Zm0,22a10.5,10.5,0,1,1,10.5-10.5A10.51,10.51,0,0,1,48,61.07Z" style="fill:#c52228"/><path d="M55.41,47.85a3.83,3.83,0,0,0-2.71-1.13h0A3.8,3.8,0,0,0,50,47.86l-.38.39a.53.53,0,0,0,0,.75.52.52,0,0,0,.75,0l.38-.38a2.78,2.78,0,0,1,4.75,2,2.71,2.71,0,0,1-.82,2,2.8,2.8,0,0,1-3.65.25.1.1,0,0,0,0,0,1.51,1.51,0,0,1-.23-.21l-2.34-2.34a.27.27,0,0,0-.08-.07L46,47.85l-.37-.32-.08-.06a3.91,3.91,0,0,0-5,.38,3.85,3.85,0,0,0,2.71,6.57h0A3.79,3.79,0,0,0,46,53.29l.39-.38a.53.53,0,1,0-.74-.76l-.4.38a2.78,2.78,0,0,1-4.75-2,2.71,2.71,0,0,1,.82-2A2.81,2.81,0,0,1,45,48.36a.1.1,0,0,0,0,0,2.19,2.19,0,0,1,.23.21L47.62,51,50,53.29l.37.32.08.06a3.85,3.85,0,0,0,5-5.82Z" style="fill:#c52228"/></svg>