<svg id="Layer_1" data-name="Layer 1" xmlns="http://www.w3.org/2000/svg" viewBox="0 0 64 64"><title>_</title><path d="M32.15,14.75a.5.5,0,0,0-.7,0l-9.1,9.1a.5.5,0,0,0,.35.85h4.83v8.37a.5.5,0,0,0,1,0V24.2a.5.5,0,0,0-.5-.5H23.91l7.89-7.89,7.9,7.89H35.58a.5.5,0,0,0-.5.5V36.61H28a.5.5,0,0,0-.5.5.5.5,0,0,0,.5.5h7.55a.5.5,0,0,0,.5-.5V24.7h4.83a.49.49,0,0,0,.46-.3.49.49,0,0,0-.11-.55Z" style="fill:#c52228"/><path d="M27.87,41.61h7.44a.51.51,0,0,0,.5-.5.5.5,0,0,0-.5-.5H27.87a.5.5,0,0,0-.5.5A.51.51,0,0,0,27.87,41.61Z" style="fill:#c52228"/><path d="M27.87,45.61h7.44a.51.51,0,0,0,.5-.5.5.5,0,0,0-.5-.5H27.87a.5.5,0,0,0-.5.5A.51.51,0,0,0,27.87,45.61Z" style="fill:#c52228"/><path d="M42.78,11.74A22.51,22.51,0,0,0,21,51.15a.5.5,0,0,0,.68-.2.51.51,0,0,0-.2-.68,21.5,21.5,0,1,1,21,0,.5.5,0,0,0,.24.94.5.5,0,0,0,.24-.06,22.51,22.51,0,0,0-.19-39.41Z" style="fill:#c52228"/><path d="M32,52a.5.5,0,0,0-.5.5v2a.5.5,0,0,0,.5.5.5.5,0,0,0,.5-.5v-2A.5.5,0,0,0,32,52Z" style="fill:#c52228"/><path d="M35.56,51.69a.5.5,0,0,0-.4.58l.34,2a.51.51,0,0,0,.5.41h.08a.49.49,0,0,0,.41-.58l-.35-2A.5.5,0,0,0,35.56,51.69Z" style="fill:#c52228"/><path d="M39.66,51.06a.52.52,0,0,0-.65-.3.5.5,0,0,0-.29.65l.68,1.87a.49.49,0,0,0,.47.33.51.51,0,0,0,.17,0,.5.5,0,0,0,.3-.64Z" style="fill:#c52228"/><path d="M28.44,51.69a.5.5,0,0,0-.58.4l-.34,2a.49.49,0,0,0,.4.58H28a.49.49,0,0,0,.49-.41l.35-2A.51.51,0,0,0,28.44,51.69Z" style="fill:#c52228"/><path d="M25,50.76a.5.5,0,0,0-.64.3l-.68,1.88a.5.5,0,0,0,.29.64.57.57,0,0,0,.18,0,.5.5,0,0,0,.47-.33l.68-1.87A.52.52,0,0,0,25,50.76Z" style="fill:#c52228"/></svg>