<svg id="Layer_1" data-name="Layer 1" xmlns="http://www.w3.org/2000/svg" viewBox="0 0 64 64"><title>_</title><path d="M16.32,45.64H4V17.4H47.54v.89a.5.5,0,0,0,.5.5.5.5,0,0,0,.5-.5V9.18a.5.5,0,0,0-.5-.5H3.5a.5.5,0,0,0-.5.5v37a.5.5,0,0,0,.5.5H16.32a.5.5,0,0,0,.5-.5A.5.5,0,0,0,16.32,45.64Zm31.22-36V16.4H4V9.68Z" style="fill:#c52228"/><path d="M7.32,13.74a1,1,0,0,0,0-1.43,1,1,0,0,0-1.43,0,1,1,0,0,0,1.43,1.43Z" style="fill:#c52228"/><circle cx="10.4" cy="13.03" r="0.76" style="fill:#c52228"/><path d="M9.57,22.48a.5.5,0,0,0-.5.5V34.77a.5.5,0,0,0,.5.5h11.8a.5.5,0,0,0,.5-.5V23a.5.5,0,0,0-.5-.5Zm11.3,11.79H10.07V23.48h10.8Z" style="fill:#c52228"/><path d="M39.47,23.86a.5.5,0,0,0-.5-.5H27.44a.51.51,0,0,0-.5.5.5.5,0,0,0,.5.5H39A.5.5,0,0,0,39.47,23.86Z" style="fill:#c52228"/><path d="M27.44,28.82a.5.5,0,0,0,0,1H37a.5.5,0,0,0,0-1Z" style="fill:#c52228"/><path d="M61,47.68V25.73h0V23.82a2,2,0,0,0-2-2H43.26a2,2,0,0,0-2,2v4.94a.5.5,0,0,0,1,0V26.22H60v21H45.74a.5.5,0,0,0-.5.5.51.51,0,0,0,.5.5H60v3.46a1,1,0,0,1-1,1H43.26a1,1,0,0,1-1-1,.5.5,0,0,0-1,0,2,2,0,0,0,2,2H59a2,2,0,0,0,2-2V47.7h0ZM42.24,25.22v-1.4a1,1,0,0,1,1-1H59a1,1,0,0,1,1,1v1.4Z" style="fill:#c52228"/><path d="M53.42,50.93a.5.5,0,0,0,.5-.5.5.5,0,0,0-.5-.5h-4.6a.5.5,0,0,0-.5.5.5.5,0,0,0,.5.5Z" style="fill:#c52228"/><path d="M51,23.52H49.09a.51.51,0,0,0-.5.5.5.5,0,0,0,.5.5H51a.5.5,0,0,0,.5-.5A.51.51,0,0,0,51,23.52Z" style="fill:#c52228"/><path d="M52.27,23.66a.52.52,0,1,0,.73,0A.52.52,0,0,0,52.27,23.66Z" style="fill:#c52228"/><path d="M39,50.3H27.7a.5.5,0,0,0-.5.5v2.81l-6.33-6.32L27.2,41v2.82a.5.5,0,0,0,.5.5H42.24v3.52a.5.5,0,0,0,.86.35l7.52-7.52a.5.5,0,0,0,0-.71L43.1,32.41a.51.51,0,0,0-.55-.11.5.5,0,0,0-.31.46v3.53H31.47a.5.5,0,0,0-.5.5.5.5,0,0,0,.5.5H42.74a.5.5,0,0,0,.5-.5V34l6.32,6.32-6.32,6.32V43.8a.5.5,0,0,0-.5-.5H28.2V39.76a.5.5,0,0,0-.86-.35l-7.53,7.53a.51.51,0,0,0,0,.71l7.53,7.53a.54.54,0,0,0,.36.14.43.43,0,0,0,.19,0,.5.5,0,0,0,.31-.46V51.3H39a.5.5,0,0,0,.5-.5A.5.5,0,0,0,39,50.3Z" style="fill:#c52228"/></svg>