<?xml version="1.0" encoding="utf-8"?>
<!-- Generator: Adobe Illustrator 24.0.0, SVG Export Plug-In . SVG Version: 6.00 Build 0)  -->
<svg version="1.1" id="Layer_1" xmlns="http://www.w3.org/2000/svg" xmlns:xlink="http://www.w3.org/1999/xlink" x="0px" y="0px"
	 viewBox="0 0 64 64" style="enable-background:new 0 0 64 64;" xml:space="preserve">
<style type="text/css">
	.st0{fill:#FFFFFF;stroke:#000000;stroke-miterlimit:10;}
	.st1{fill:none;stroke:#000000;stroke-miterlimit:10;}
	.st2{fill:none;stroke:#C52228;stroke-miterlimit:10;}
	.st3{fill:#C52228;}
</style>
<g>
	<path class="st3" d="M49,26.3H15c-0.3,0-0.5,0.2-0.5,0.5v10.3c0,0.3,0.2,0.5,0.5,0.5H49c0.3,0,0.5-0.2,0.5-0.5V26.8
		C49.5,26.6,49.3,26.3,49,26.3z M48.5,36.7H15.5v-9.3h33.1V36.7z"/>
	<path class="st3" d="M45.2,32.7c0.4-0.4,0.4-1,0-1.4s-1-0.4-1.4,0c-0.4,0.4-0.4,1,0,1.4C44.2,33.1,44.8,33.1,45.2,32.7z"/>
	<path class="st3" d="M41.3,32.5c0.3-0.3,0.3-0.8,0-1.1c-0.3-0.3-0.8-0.3-1.1,0c-0.3,0.3-0.3,0.8,0,1.1S41,32.8,41.3,32.5z"/>
	<path class="st3" d="M54,31.5h-1.6c-0.3,0-0.5,0.2-0.5,0.5s0.2,0.5,0.5,0.5H54c0.3,0,0.5-0.2,0.5-0.5S54.3,31.5,54,31.5z"/>
	<path class="st3" d="M52.5,34.9c-0.2-0.2-0.5-0.2-0.7,0s-0.2,0.5,0,0.7l1.1,1.1c0.1,0.1,0.2,0.1,0.4,0.1s0.3,0,0.4-0.1
		c0.2-0.2,0.2-0.5,0-0.7L52.5,34.9z"/>
	<path class="st3" d="M52.1,29.3c0.1,0,0.3,0,0.4-0.1l1.1-1.1c0.2-0.2,0.2-0.5,0-0.7s-0.5-0.2-0.7,0l-1.1,1.1
		c-0.2,0.2-0.2,0.5,0,0.7C51.9,29.2,52,29.3,52.1,29.3z"/>
	<path class="st3" d="M12.1,32c0-0.3-0.2-0.5-0.5-0.5H10c-0.3,0-0.5,0.2-0.5,0.5s0.2,0.5,0.5,0.5h1.6C11.9,32.5,12.1,32.3,12.1,32z"
		/>
	<path class="st3" d="M11.2,27.3c-0.2-0.2-0.5-0.2-0.7,0s-0.2,0.5,0,0.7l1.1,1.1c0.1,0.1,0.2,0.1,0.4,0.1s0.3,0,0.4-0.1
		c0.2-0.2,0.2-0.5,0-0.7L11.2,27.3z"/>
	<path class="st3" d="M11.5,34.9L10.4,36c-0.2,0.2-0.2,0.5,0,0.7c0.1,0.1,0.2,0.1,0.4,0.1s0.3,0,0.4-0.1l1.1-1.1
		c0.2-0.2,0.2-0.5,0-0.7S11.7,34.7,11.5,34.9z"/>
</g>
</svg>
