<svg id="Layer_1" data-name="Layer 1" xmlns="http://www.w3.org/2000/svg" viewBox="0 0 64 64"><title>-</title><path d="M23.64,27.51a.55.55,0,0,0,.25.07.51.51,0,0,0,.43-.26.49.49,0,0,0-.19-.68A10.57,10.57,0,1,1,39.84,17.4a10.35,10.35,0,0,1-1.28,5,.5.5,0,0,0,.87.49,11.43,11.43,0,0,0,1.41-5.51,11.57,11.57,0,1,0-17.2,10.11Z" style="fill:#c52228"/><path d="M27.41,11.11a.5.5,0,0,0,.33-.62.49.49,0,0,0-.62-.34A7.57,7.57,0,0,0,23.5,22.32a.5.5,0,1,0,.76-.64,6.57,6.57,0,0,1,3.15-10.57Z" style="fill:#c52228"/><path d="M34.69,22a.46.46,0,0,0,.29.1.51.51,0,0,0,.41-.2,7.52,7.52,0,0,0,1.44-4.44,7.6,7.6,0,0,0-5.42-7.26.5.5,0,0,0-.63.34.51.51,0,0,0,.34.62,6.58,6.58,0,0,1,4.71,6.3,6.41,6.41,0,0,1-1.25,3.84A.51.51,0,0,0,34.69,22Z" style="fill:#c52228"/><path d="M49.53,28.19a3.81,3.81,0,0,0-2.84,1l-.25.26a3.92,3.92,0,0,0-3.08-3.25,3.84,3.84,0,0,0-3.13.84,4.22,4.22,0,0,0-.43.41,3.93,3.93,0,0,0-3.55-3.3,3.81,3.81,0,0,0-2.83,1l-.19.2v-6a4,4,0,0,0-3.62-4,3.81,3.81,0,0,0-4,3.81V38.84l-4.43-4.43a7.11,7.11,0,0,0-8.76-1,1.76,1.76,0,0,0-.34,2.75l5.24,5.25a32.42,32.42,0,0,1,8.85,16.41.51.51,0,0,0,.49.4l.1,0a.49.49,0,0,0,.39-.59A33.44,33.44,0,0,0,18,40.65l-5.24-5.24a.74.74,0,0,1-.22-.63.77.77,0,0,1,.37-.57,6.12,6.12,0,0,1,7.53.91l5.29,5.28a.48.48,0,0,0,.54.11.49.49,0,0,0,.31-.46V19.2a2.78,2.78,0,0,1,.88-2,2.74,2.74,0,0,1,2.09-.77,3,3,0,0,1,2.67,3V32.9a.5.5,0,0,0,.5.5.5.5,0,0,0,.5-.5V28a2.82,2.82,0,0,1,3-2.81,3,3,0,0,1,2.66,3V33.9a.5.5,0,0,0,.5.5.5.5,0,0,0,.5-.5V30a2.83,2.83,0,0,1,3.33-2.77,3,3,0,0,1,2.31,3V32h0v2.9a.5.5,0,0,0,.5.5.5.5,0,0,0,.5-.5V32h0a2.82,2.82,0,0,1,3-2.81,3,3,0,0,1,2.67,3v5.92a96.32,96.32,0,0,1-2,19.45.5.5,0,0,0,1,.21,97.67,97.67,0,0,0,2-19.66V32.19A4,4,0,0,0,49.53,28.19Z" style="fill:#c52228"/><path d="M45.32,22.57a.5.5,0,0,0,.35.15.51.51,0,0,0,.36-.15.5.5,0,0,0,0-.7l-2.12-2.13a.51.51,0,0,0-.71,0,.5.5,0,0,0,0,.71Z" style="fill:#c52228"/><path d="M43.55,12.58a.54.54,0,0,0,.36-.14L46,10.31a.5.5,0,0,0,0-.7.5.5,0,0,0-.71,0L43.2,11.73a.5.5,0,0,0,0,.71A.52.52,0,0,0,43.55,12.58Z" style="fill:#c52228"/><path d="M43.67,16.08a.5.5,0,0,0,.5.5h3a.5.5,0,0,0,.5-.5.5.5,0,0,0-.5-.5h-3A.51.51,0,0,0,43.67,16.08Z" style="fill:#c52228"/><path d="M14.63,12.44a.52.52,0,0,0,.35.14.5.5,0,0,0,.35-.85L13.21,9.61a.49.49,0,0,0-.7.7Z" style="fill:#c52228"/><path d="M14.63,19.74l-2.12,2.13a.48.48,0,0,0,0,.7.48.48,0,0,0,.7,0l2.12-2.12a.5.5,0,0,0,0-.71A.5.5,0,0,0,14.63,19.74Z" style="fill:#c52228"/><path d="M14.86,16.1a.5.5,0,0,0-.5-.5h-3a.5.5,0,0,0-.5.5.5.5,0,0,0,.5.5h3A.5.5,0,0,0,14.86,16.1Z" style="fill:#c52228"/><path d="M28.77,9.23v3.31a.5.5,0,0,0,.5.5.5.5,0,0,0,.5-.5V9.23a.5.5,0,0,0-.5-.5A.5.5,0,0,0,28.77,9.23Z" style="fill:#c52228"/></svg>