<svg id="Layer_1" data-name="Layer 1" xmlns="http://www.w3.org/2000/svg" viewBox="0 0 64 64"><title>-</title><path d="M61.48,18a.5.5,0,0,0,.49-.63,6.78,6.78,0,0,0-12.62-1.19H46.74a3.37,3.37,0,0,0-5.39-1l-.15.15a3.51,3.51,0,0,0-2.76-2.82,3.43,3.43,0,0,0-2.83.75c-.11.09-.21.19-.31.29a3.54,3.54,0,0,0-3.19-2.87,3.42,3.42,0,0,0-2.56.94,2.35,2.35,0,0,0-.3.33,3.41,3.41,0,0,0-5.6-1.38,3.4,3.4,0,0,0-1.07,2.5v3.07H14.65A6.78,6.78,0,0,0,2,17.36a.5.5,0,0,0,.49.63H6.73v3.09h-4a.51.51,0,0,0-.47.69A6.78,6.78,0,0,0,14.23,22.9h2.65A11.65,11.65,0,0,0,19,29.19c2.43,3,3,5.84,3.67,9.45q.15.81.33,1.68H21.57a.5.5,0,0,0-.5.5v6.51a.5.5,0,0,0,.5.5h.82v6a.5.5,0,1,0,1,0v-6H45v6a.5.5,0,0,0,.5.5.5.5,0,0,0,.5-.5v-6h.82a.5.5,0,0,0,.5-.5V40.82a.5.5,0,0,0-.5-.5H45.44a86.25,86.25,0,0,0,1.74-17.18V22.9h2.59A6.78,6.78,0,0,0,61.7,21.77a.51.51,0,0,0-.47-.69H56.84V18ZM14,21.9a.52.52,0,0,0-.44.25,5.77,5.77,0,0,1-9.95-.07H7.23a.5.5,0,0,0,.5-.5V17.49a.51.51,0,0,0-.5-.5h-4a5.79,5.79,0,0,1,10.67-.12.49.49,0,0,0,.46.3h8.24V21.9ZM46.28,46.83H22.07V41.32H46.28Zm-.1-23.69a85.53,85.53,0,0,1-1.75,17.18H24l-.37-1.87c-.72-3.74-1.29-6.7-3.87-9.89a10.54,10.54,0,0,1-1.92-5.66h4.7v2a.5.5,0,0,0,.5.5.5.5,0,0,0,.5-.5V13.1a2.44,2.44,0,0,1,.76-1.78,2.41,2.41,0,0,1,1.82-.67,2.58,2.58,0,0,1,2.32,2.62v5.24a.5.5,0,0,0,.5.5.5.5,0,0,0,.5-.5V14.16a2.45,2.45,0,0,1,2.58-2.45,2.57,2.57,0,0,1,2.32,2.61V19.4a.5.5,0,0,0,.5.5.5.5,0,0,0,.5-.5V15.93a2.45,2.45,0,0,1,2.89-2.41,2.58,2.58,0,0,1,2,2.58v4.19a.5.5,0,0,0,.5.5.51.51,0,0,0,.5-.5V17.71A2.44,2.44,0,0,1,42,15.93a2.4,2.4,0,0,1,3.93.93l0,0a2.72,2.72,0,0,1,.19,1Zm10.16-1.06h4.09a5.77,5.77,0,0,1-10,.07.52.52,0,0,0-.43-.25H47.18v-4a4.17,4.17,0,0,0-.07-.71h2.56a.49.49,0,0,0,.45-.3A5.79,5.79,0,0,1,60.79,17H56.34a.5.5,0,0,0-.5.5v4.09A.5.5,0,0,0,56.34,22.08Z" style="fill:#c52228"/><circle cx="44.69" cy="44.34" r="0.76" style="fill:#c52228"/></svg>