<?xml version="1.0" encoding="utf-8"?>
<!-- Generator: Adobe Illustrator 24.0.0, SVG Export Plug-In . SVG Version: 6.00 Build 0)  -->
<svg version="1.1" id="Layer_1" xmlns="http://www.w3.org/2000/svg" xmlns:xlink="http://www.w3.org/1999/xlink" x="0px" y="0px"
	 viewBox="0 0 64 64" style="enable-background:new 0 0 64 64;" xml:space="preserve">
<style type="text/css">
	.st0{fill:#FFFFFF;stroke:#000000;stroke-miterlimit:10;}
	.st1{fill:none;stroke:#000000;stroke-miterlimit:10;}
	.st2{fill:none;stroke:#C52228;stroke-miterlimit:10;}
	.st3{fill:#C52228;}
</style>
<g>
	<path class="st3" d="M24.4,14.6C15.9,14.6,9,21.5,9,30c0,8.5,6.9,15.4,15.4,15.4S39.9,38.5,39.9,30C39.9,21.5,32.9,14.6,24.4,14.6z
		 M24.9,44.4v-2.7c0-0.3-0.2-0.5-0.5-0.5s-0.5,0.2-0.5,0.5v2.7c-7.5-0.3-13.6-6.3-13.9-13.9h2.7c0.3,0,0.5-0.2,0.5-0.5
		s-0.2-0.5-0.5-0.5h-2.7c0.3-7.5,6.3-13.6,13.9-13.9v2.7c0,0.3,0.2,0.5,0.5,0.5s0.5-0.2,0.5-0.5v-2.7c7.5,0.3,13.6,6.3,13.9,13.9
		h-2.7c-0.3,0-0.5,0.2-0.5,0.5s0.2,0.5,0.5,0.5h2.7C38.6,38,32.5,44.1,24.9,44.4z"/>
	<path class="st3" d="M24.5,51.5c-5.7,0-11.1-2.3-15.1-6.3c-8.4-8.4-8.4-22,0-30.4c8.1-8.1,21-8.3,29.4-0.8h-2.7
		c-0.3,0-0.5,0.2-0.5,0.5s0.2,0.5,0.5,0.5h4c0.3,0,0.5-0.2,0.5-0.5v-4c0-0.3-0.2-0.5-0.5-0.5s-0.5,0.2-0.5,0.5v2.9
		c-4.1-3.8-9.4-5.8-15.1-5.8c-6,0-11.6,2.3-15.9,6.6c-8.8,8.8-8.8,23,0,31.8c4.2,4.2,9.8,6.6,15.8,6.6c0,0,0,0,0,0
		c0.3,0,0.5-0.2,0.5-0.5C25,51.7,24.8,51.5,24.5,51.5z"/>
	<path class="st3" d="M45.3,37.2c-0.3-0.1-0.5,0-0.6,0.3l0,0.1c-0.1,0.3,0,0.5,0.3,0.6c0.1,0,0.1,0,0.2,0c0.2,0,0.4-0.1,0.5-0.3
		l0-0.1C45.7,37.5,45.6,37.3,45.3,37.2z"/>
	<path class="st3" d="M47,31.6L47,31.6c0-0.4-0.2-0.6-0.5-0.6c-0.3,0-0.5,0.2-0.5,0.5l0,0.1c0,0.3,0.2,0.5,0.5,0.5c0,0,0,0,0,0
		C46.7,32.1,47,31.9,47,31.6z"/>
	<path class="st3" d="M46,35.2c0.2,0,0.4-0.2,0.5-0.4c0,0,0-0.1,0-0.1c0.1-0.3-0.1-0.5-0.4-0.5c-0.3-0.1-0.5,0.2-0.6,0.4
		C45.5,34.9,45.7,35.1,46,35.2C46,35.2,46,35.2,46,35.2z"/>
	<path class="st3" d="M45.6,25.5c0,0.2,0.3,0.4,0.5,0.4c0,0,0.1,0,0.1,0c0.3-0.1,0.4-0.3,0.4-0.6l0-0.1c-0.1-0.3-0.3-0.4-0.6-0.3
		C45.7,24.9,45.5,25.2,45.6,25.5z"/>
	<path class="st3" d="M43.4,19.8c0.1,0.2,0.3,0.3,0.4,0.3c0.1,0,0.2,0,0.2-0.1c0.2-0.1,0.3-0.4,0.2-0.7l0-0.1
		c-0.1-0.2-0.4-0.3-0.7-0.2C43.3,19.1,43.3,19.4,43.4,19.8L43.4,19.8z"/>
	<path class="st3" d="M44.7,22.6c0.1,0.2,0.3,0.3,0.5,0.3c0.1,0,0.1,0,0.2,0c0.3-0.1,0.4-0.4,0.3-0.6l0-0.1
		c-0.1-0.3-0.4-0.4-0.6-0.3C44.7,21.9,44.6,22.2,44.7,22.6L44.7,22.6z"/>
	<path class="st3" d="M41.8,17.2c0.1,0.1,0.2,0.2,0.4,0.2c0.1,0,0.2,0,0.3-0.1c0.2-0.2,0.3-0.5,0.1-0.7l-0.1-0.1
		c-0.2-0.2-0.5-0.3-0.7-0.1C41.6,16.6,41.6,16.9,41.8,17.2L41.8,17.2z"/>
	<path class="st3" d="M46,28.5c0,0.3,0.2,0.5,0.5,0.5c0,0,0,0,0,0c0.3,0,0.5-0.3,0.5-0.5l0-0.1c0-0.3-0.3-0.4-0.5-0.4
		C46.2,28,46,28.2,46,28.5z"/>
	<path class="st3" d="M25.6,30.4c0.1-0.1,0.1-0.3,0.1-0.5c0-0.5-0.3-0.9-0.7-1.1v-5.2c0-0.3-0.2-0.5-0.5-0.5S24,23.4,24,23.6v5.2
		c-0.5,0.2-0.8,0.6-0.8,1.2c0,0.7,0.6,1.3,1.3,1.3c0.2,0,0.3,0,0.5-0.1l5.5,5.5c0.1,0.1,0.2,0.1,0.4,0.1s0.3,0,0.4-0.1
		c0.2-0.2,0.2-0.5,0-0.7L25.6,30.4z"/>
	<path class="st3" d="M61.4,51.5L46,57l-15-5.3v-2.9L45.9,54c0.1,0,0.2,0,0.3,0l15.5-5.5c0.2-0.1,0.3-0.3,0.3-0.5s-0.1-0.4-0.3-0.5
		l-15.5-5.5c-0.1,0-0.2,0-0.3,0l-10.5,3.7c-0.3,0.1-0.4,0.4-0.3,0.6c0.1,0.3,0.4,0.4,0.6,0.3L46,43.1l14,5l-14,5l-15.3-5.4
		c-0.2-0.1-0.3,0-0.5,0.1C30.1,47.7,30,47.9,30,48v4c0,0.2,0.1,0.4,0.3,0.5L45.9,58c0.1,0,0.2,0,0.3,0L61,52.7v2.9L46,61l-15.3-5.4
		c-0.3-0.1-0.5,0-0.6,0.3s0,0.5,0.3,0.6L45.9,62c0.1,0,0.1,0,0.2,0s0.1,0,0.2,0l15.5-5.5c0.2-0.1,0.3-0.3,0.3-0.5v-4
		c0-0.2-0.1-0.3-0.2-0.4C61.7,51.5,61.5,51.5,61.4,51.5z"/>
</g>
</svg>
