<svg id="Layer_1" data-name="Layer 1" xmlns="http://www.w3.org/2000/svg" viewBox="0 0 64 64"><title>-</title><path d="M54.49,29.91l-4-4a.5.5,0,0,0-.35-.14H34.36V22.53h1.91a.5.5,0,0,0,.5-.5V14a.5.5,0,0,0-.5-.5H34.36V10a.5.5,0,0,0-.5-.5h-4a.5.5,0,0,0-.5.5v3.5H13.86a.47.47,0,0,0-.35.15l-4,4a.48.48,0,0,0,0,.7l4,4a.47.47,0,0,0,.35.15h15.5v3.24H27.73a.5.5,0,0,0-.5.5v8a.5.5,0,0,0,.5.5h1.63V54a.5.5,0,0,0,.5.5.5.5,0,0,0,.5-.5V34.77h3V54a.5.5,0,0,0,.5.5.5.5,0,0,0,.5-.5V34.77H50.14a.51.51,0,0,0,.35-.15l4-4A.5.5,0,0,0,54.49,29.91ZM30.36,10.53h3v3h-3ZM10.57,18l3.5-3.5h21.7v7H14.07Zm19.79,4.5h3v3.24h-3ZM49.93,33.77H28.23v-7h21.7l3.5,3.5Z" style="fill:#c52228"/></svg>