<svg id="Layer_1" data-name="Layer 1" xmlns="http://www.w3.org/2000/svg" viewBox="0 0 64 64"><title>--</title><path d="M42.42,31.89h9.12a3,3,0,1,0,0-5.91,3.85,3.85,0,0,0,.06-.66,5,5,0,0,0-4.94-4.94,4.8,4.8,0,0,0-1.47.22,5.4,5.4,0,0,0-4.82-3,5.27,5.27,0,0,0-3.31,1.16,8.85,8.85,0,0,0-8.35-6,8.76,8.76,0,0,0-8.61,7.08,4.86,4.86,0,0,0-2-.44,5,5,0,0,0-4.94,4.94A4.85,4.85,0,0,0,13.47,26a3,3,0,0,0,.25,5.9h6.56v10H14.49a2.47,2.47,0,0,0-.67-1.22,2.53,2.53,0,0,0-3.58,0,2.53,2.53,0,0,0,0,3.58,2.53,2.53,0,0,0,3.58,0,2.42,2.42,0,0,0,.7-1.36h6.26a.5.5,0,0,0,.5-.5V31.89h6V46.31A2.44,2.44,0,0,0,26.1,47a2.53,2.53,0,0,0,1.79,4.32A2.53,2.53,0,0,0,29.68,47a2.52,2.52,0,0,0-1.35-.7V31.89h6.05v5.69a2.48,2.48,0,0,0-1.29.69,2.53,2.53,0,1,0,3.58,0,2.41,2.41,0,0,0-1.29-.69V31.89h6V44.51a.5.5,0,0,0,.5.5H47.7a2.59,2.59,0,0,0,.69,1.29,2.53,2.53,0,1,0,0-3.58A2.63,2.63,0,0,0,47.7,44H42.42ZM13.12,43.56a1.53,1.53,0,0,1-2.17,0,1.51,1.51,0,0,1-.45-1.08A1.54,1.54,0,0,1,11,41.39a1.53,1.53,0,1,1,2.17,2.17ZM29,49.86a1.53,1.53,0,1,1-1.08-2.61,1.51,1.51,0,0,1,1.08.44A1.53,1.53,0,0,1,29,49.86Zm7-8.72A1.53,1.53,0,0,1,33.8,39,1.56,1.56,0,0,1,36,39,1.53,1.53,0,0,1,36,41.14ZM11.76,28.93a2,2,0,0,1,2-1.95h.54a.52.52,0,0,0,.43-.25.5.5,0,0,0,0-.5,3.86,3.86,0,0,1-.54-2A3.93,3.93,0,0,1,20.21,21a.48.48,0,0,0,.49,0A.5.5,0,0,0,21,20.6a7.78,7.78,0,0,1,15.33-.82.49.49,0,0,0,.36.37.49.49,0,0,0,.5-.14,4.3,4.3,0,0,1,3.2-1.43,4.39,4.39,0,0,1,4.08,2.83.47.47,0,0,0,.27.28.44.44,0,0,0,.39,0,4.08,4.08,0,0,1,1.55-.31,4,4,0,0,1,3.94,3.94,3.76,3.76,0,0,1-.16,1,.48.48,0,0,0,.09.43.5.5,0,0,0,.39.2h.62a2,2,0,1,1,0,3.91H13.72A2,2,0,0,1,11.76,28.93ZM49.1,43.43a1.53,1.53,0,1,1,0,2.16A1.52,1.52,0,0,1,49.1,43.43Z" style="fill:#c52228"/></svg>