<svg id="Layer_1" data-name="Layer 1" xmlns="http://www.w3.org/2000/svg" viewBox="0 0 64 64"><circle cx="47.43" cy="12.78" r="0.98" style="fill:#c52228"/><circle cx="47.43" cy="25.81" r="0.98" style="fill:#c52228"/><circle cx="17.79" cy="19.29" r="0.98" style="fill:#c52228"/><circle cx="38.31" cy="10.17" r="0.98" style="fill:#c52228"/><circle cx="34.4" cy="10.17" r="0.98" style="fill:#c52228"/><circle cx="38.31" cy="23.2" r="0.98" style="fill:#c52228"/><circle cx="34.4" cy="23.2" r="0.98" style="fill:#c52228"/><path d="M31.51,17.38A1,1,0,1,0,30.13,16a1,1,0,0,0,0,1.38A1,1,0,0,0,31.51,17.38Z" style="fill:#c52228"/><path d="M26.22,17.38a1,1,0,1,0,0-1.38A1,1,0,0,0,26.22,17.38Z" style="fill:#c52228"/><path d="M54.5,40.17a3,3,0,0,0-3-3,3.66,3.66,0,0,0,.06-.65,4.83,4.83,0,0,0-.1-.94s0,0,0,0V9.52A.5.5,0,0,0,51,9H42.39V6.92a.5.5,0,0,0-.5-.5H23.37a.5.5,0,0,0-.5.5V9H14.25a.5.5,0,0,0-.5.5V33.2a4.87,4.87,0,0,0-.6,2.31,4.8,4.8,0,0,0,.32,1.71,3,3,0,0,0,.25,5.91h6.59a.53.53,0,0,0,0,.12v4.93H14.49A2.47,2.47,0,0,0,13.82,47a2.53,2.53,0,1,0,0,3.58,2.42,2.42,0,0,0,.7-1.36h6.26a.5.5,0,0,0,.5-.5V43.25a.5.5,0,0,0,0-.12h6.1a.53.53,0,0,0,0,.12V52.6a2.47,2.47,0,0,0-1.23.66,2.51,2.51,0,0,0,0,3.58,2.49,2.49,0,0,0,1.79.74,2.52,2.52,0,0,0,.44-5V43.25a.5.5,0,0,0,0-.12h6.1a.53.53,0,0,0,0,.12v5.62a2.44,2.44,0,0,0-1.29.67,2.53,2.53,0,0,0,1.79,4.32,2.49,2.49,0,0,0,1.79-.74,2.53,2.53,0,0,0,0-3.58,2.41,2.41,0,0,0-1.29-.67V43.25a.5.5,0,0,0,0-.12h6.08a.5.5,0,0,0,0,.12v7.53a.5.5,0,0,0,.5.5H47.7A2.53,2.53,0,1,0,48.39,49a2.55,2.55,0,0,0-.69,1.29H42.42v-7a.53.53,0,0,0,0-.12h9.15A3,3,0,0,0,54.5,40.17ZM13.12,49.83A1.53,1.53,0,0,1,11,47.66a1.53,1.53,0,1,1,2.17,2.17Zm16.3,5.22A1.51,1.51,0,0,1,29,56.13a1.57,1.57,0,0,1-2.17,0,1.51,1.51,0,0,1-.45-1.08,1.54,1.54,0,1,1,3.07,0ZM36,52.41a1.57,1.57,0,0,1-2.17,0,1.53,1.53,0,0,1,1.08-2.61h0A1.53,1.53,0,0,1,36,52.41ZM49.1,49.7a1.54,1.54,0,0,1,2.62,1.08,1.5,1.5,0,0,1-.45,1.08,1.53,1.53,0,0,1-2.17,0,1.5,1.5,0,0,1-.45-1.08A1.51,1.51,0,0,1,49.1,49.7ZM46.65,31.61a4.79,4.79,0,0,0-1.46.23,5.4,5.4,0,0,0-2.77-2.6V23.05h8.09V33.5A4.93,4.93,0,0,0,46.65,31.61ZM20.1,31a5,5,0,0,0-2-.43,4.92,4.92,0,0,0-3.34,1.32V23.05h8.12v3.11A8.67,8.67,0,0,0,20.1,31Zm30.41-8.95H42.42V16.54h8.09Zm-9.12-6.36a.48.48,0,0,0-.14.35.48.48,0,0,0,.14.34v3.07H23.87V13.93H41.39ZM22.87,19.94h0v2.1H14.75V16.54h8.12Zm1,.51H41.39v8.48a4.91,4.91,0,0,0-1-.12A5.22,5.22,0,0,0,37.06,30a8.77,8.77,0,0,0-13.19-4.6ZM50.51,10v5.52H42.42V10ZM23.87,7.42H41.39v5.51H23.87V7.42Zm-1,2.6v3.41h0v2.1H14.75V10ZM11.76,40.17a2,2,0,0,1,2-2h.53a.5.5,0,0,0,.44-.75,3.85,3.85,0,0,1-.54-2,3.93,3.93,0,0,1,6.06-3.31.5.5,0,0,0,.77-.37,7.79,7.79,0,0,1,2.71-5.07s0,0,0,0a7.76,7.76,0,0,1,5-1.81A7.85,7.85,0,0,1,36.31,31a.49.49,0,0,0,.85.23,4.34,4.34,0,0,1,3.21-1.43,4.39,4.39,0,0,1,4.08,2.84.49.49,0,0,0,.27.28.53.53,0,0,0,.39,0,3.9,3.9,0,0,1,1.54-.32,4,4,0,0,1,4,4,3.69,3.69,0,0,1-.16,1,.5.5,0,0,0,.09.44.49.49,0,0,0,.39.19h.62a2,2,0,0,1,0,3.92H13.72A2,2,0,0,1,11.76,40.17Z" style="fill:#c52228"/></svg>