<svg id="Layer_1" data-name="Layer 1" xmlns="http://www.w3.org/2000/svg" viewBox="0 0 64 64"><title>--</title><path d="M53.43,10.55A4.18,4.18,0,0,0,46.3,13.5a4.13,4.13,0,0,0,.9,2.56l-9.67,9.68a8.25,8.25,0,0,0-10.94,0l-5.42-5.42a2.55,2.55,0,0,0-.32-3.2,2.6,2.6,0,0,0-3.58,0A2.53,2.53,0,0,0,20.46,21l5.42,5.42a8.24,8.24,0,0,0,0,11l-9.8,9.8a4.17,4.17,0,1,0,.71.71l9.8-9.8a8.18,8.18,0,0,0,5,2.07v6.16A4.16,4.16,0,1,0,35,47.55a4.1,4.1,0,0,0-2.45-1.18V40.21a8.18,8.18,0,0,0,5-2.07L42,42.59a2.53,2.53,0,1,0,.71-.71l-4.45-4.45a8.27,8.27,0,0,0,0-11l9.67-9.67a4.19,4.19,0,0,0,2.57.9,4.17,4.17,0,0,0,3-7.12ZM18,20a1.53,1.53,0,0,1,0-2.17,1.5,1.5,0,0,1,1.08-.45,1.51,1.51,0,0,1,1.08.45A1.53,1.53,0,1,1,18,20ZM15.77,52.75a3.18,3.18,0,1,1,0-4.5A3.2,3.2,0,0,1,15.77,52.75Zm18.55,0a3.18,3.18,0,1,1,0-4.5A3.18,3.18,0,0,1,34.32,52.75ZM45.19,42.9a1.52,1.52,0,1,1-1.08-.45A1.51,1.51,0,0,1,45.19,42.9Zm-8-5.8a7.28,7.28,0,1,1,0-10.3A7.24,7.24,0,0,1,37.22,37.1Zm15.5-21.35A3.18,3.18,0,0,1,47.3,13.5a3.18,3.18,0,1,1,5.42,2.25Z" style="fill:#c52228"/></svg>