<svg xmlns="http://www.w3.org/2000/svg" viewBox="0 0 64 64"><defs><style>.cls-1{fill:none;stroke:#c52228;stroke-miterlimit:10;}.cls-2{fill:#c52228;}</style></defs><title>unlock-cpu</title><g id="free_SSD" data-name="free SSD"><polyline class="cls-1" points="41 21.61 61.31 21.61 61.31 31.78"/><polyline class="cls-1" points="61.31 34.08 61.31 36.08 61.31 60.98 2.72 60.98 2.72 51.09 2.72 47.29 2.72 43.5 2.72 39.7 2.72 35.9 2.72 32.11 2.72 21.61 9.09 21.61 37.87 21.61 39.42 21.61"/><polyline class="cls-1" points="40.4 29.19 51.41 29.19 51.41 36.86"/><polyline class="cls-1" points="51.41 38.3 51.41 39.73 51.41 53.87 18.87 53.87 18.87 29.19 37.42 29.19 38.9 29.19"/><line class="cls-1" x1="9.09" y1="21.61" x2="9.09" y2="60.49"/><line class="cls-1" x1="9.09" y1="43.49" x2="2.72" y2="43.49"/><line class="cls-1" x1="9.09" y1="47.29" x2="2.72" y2="47.29"/><line class="cls-1" x1="9.09" y1="39.7" x2="2.72" y2="39.7"/><line class="cls-1" x1="9.09" y1="35.9" x2="2.72" y2="35.9"/><line class="cls-1" x1="9.09" y1="32.11" x2="2.72" y2="32.11"/><line class="cls-1" x1="9.09" y1="51.09" x2="2.72" y2="51.09"/><polygon class="cls-1" points="14.64 27.38 14.64 25.5 13.01 24.56 11.39 25.5 11.39 27.38 13.01 28.32 14.64 27.38"/><polygon class="cls-1" points="14.76 57.56 14.76 55.68 13.13 54.74 11.51 55.68 11.51 57.56 13.13 58.5 14.76 57.56"/><polygon class="cls-1" points="58.37 57.56 58.37 55.68 56.75 54.74 55.12 55.68 55.12 57.56 56.75 58.5 58.37 57.56"/><circle class="cls-1" cx="13.09" cy="37.78" r="0.97"/><circle class="cls-1" cx="13.09" cy="41.56" r="0.97"/><circle class="cls-1" cx="13.09" cy="45.45" r="0.97"/><path class="cls-2" d="M29.09,45.76a4.66,4.66,0,0,1-2.77.69A7.86,7.86,0,0,1,23.41,46V44.9a7.91,7.91,0,0,0,2.81.5,4,4,0,0,0,2-.36,1.33,1.33,0,0,0,.63-1.26,1.37,1.37,0,0,0-.27-.89,1.87,1.87,0,0,0-.82-.57,10.92,10.92,0,0,0-1.64-.49,5,5,0,0,1-2.24-1,2.21,2.21,0,0,1-.65-1.68,2.35,2.35,0,0,1,.91-2,4.39,4.39,0,0,1,2.68-.7,9.33,9.33,0,0,1,1.51.12,6.58,6.58,0,0,1,1.16.26v1.08a7.31,7.31,0,0,0-2.47-.4,3.91,3.91,0,0,0-1.92.37,1.33,1.33,0,0,0-.64,1.23,1.31,1.31,0,0,0,.23.8,1.68,1.68,0,0,0,.76.51,10.76,10.76,0,0,0,1.58.48A4.94,4.94,0,0,1,29.35,42,2.39,2.39,0,0,1,30,43.78,2.32,2.32,0,0,1,29.09,45.76Z"/><path class="cls-2" d="M36.91,45.76a4.66,4.66,0,0,1-2.77.69A7.86,7.86,0,0,1,31.23,46V44.9a7.9,7.9,0,0,0,2.8.5A4.06,4.06,0,0,0,36,45a1.32,1.32,0,0,0,.62-1.26,1.37,1.37,0,0,0-.26-.89,1.87,1.87,0,0,0-.82-.57,11.11,11.11,0,0,0-1.65-.49,5,5,0,0,1-2.23-1A2.21,2.21,0,0,1,31,39.14a2.35,2.35,0,0,1,.91-2,4.39,4.39,0,0,1,2.68-.7,9.33,9.33,0,0,1,1.51.12,6.58,6.58,0,0,1,1.16.26v1.08a7.37,7.37,0,0,0-2.48-.4,3.87,3.87,0,0,0-1.91.37,1.33,1.33,0,0,0-.64,1.23,1.31,1.31,0,0,0,.23.8,1.68,1.68,0,0,0,.76.51,10.76,10.76,0,0,0,1.58.48A4.94,4.94,0,0,1,37.17,42a2.39,2.39,0,0,1,.68,1.76A2.32,2.32,0,0,1,36.91,45.76Z"/><path class="cls-2" d="M46.52,45.16a3.82,3.82,0,0,1-3.09,1.14H39.65V36.64h3.78a3.82,3.82,0,0,1,3.08,1.14,5.79,5.79,0,0,1,1,3.75A5.59,5.59,0,0,1,46.52,45.16Zm-.57-6A2,2,0,0,0,45,38a3.91,3.91,0,0,0-1.8-.35H40.88v7.73H43.2A4.06,4.06,0,0,0,44.94,45a2,2,0,0,0,1-1.14,6.56,6.56,0,0,0,.33-2.35A7.41,7.41,0,0,0,46,39.15Z"/></g></svg>