<svg xmlns="http://www.w3.org/2000/svg" viewBox="0 0 64 64"><defs><style>.cls-1{fill:#c52228;}.cls-2{fill:none;stroke:#c52228;stroke-miterlimit:10;}</style></defs><title>unlock-cpu</title><g id="high_avalibity_server" data-name="high avalibity server"><path class="cls-1" d="M37.07,14.87H3.45a.49.49,0,0,0-.49.49v10.2a.48.48,0,0,0,.49.49H17.8v5.43H3.45A.48.48,0,0,0,3,32V42.15a.49.49,0,0,0,.49.5H37.07a.5.5,0,0,0,.5-.5V32a.49.49,0,0,0-.5-.49H22.73V26.05H37.07a.49.49,0,0,0,.5-.49V15.36A.5.5,0,0,0,37.07,14.87Zm-.49,17.59v9.2H3.94v-9.2Zm-17.8-1V26.05h3v5.43Zm17.8-6.41H3.94V15.86H36.58Z"/><path class="cls-1" d="M33.27,21.16a1,1,0,1,0-1.39-1.39,1,1,0,0,0,0,1.39A1,1,0,0,0,33.27,21.16Z"/><circle class="cls-1" cx="28.88" cy="20.46" r="0.74"/><path class="cls-1" d="M33.27,37.76a1,1,0,0,0-1.39-1.4,1,1,0,0,0,0,1.4A1,1,0,0,0,33.27,37.76Z"/><path class="cls-1" d="M29.4,37.58a.74.74,0,1,0-1,0A.73.73,0,0,0,29.4,37.58Z"/><path class="cls-2" d="M42.4,32.66h8.33a11,11,0,0,1,7.44,2.83h3.18V45.76H56.41l-9.95,5H29.94a1.63,1.63,0,0,1-1.7-1.55,2.84,2.84,0,0,1,3-2.72H42.05l5.23-2.73A4.92,4.92,0,0,0,48.47,42a4.81,4.81,0,0,0,.32-1.72V37.08H42.4A2.32,2.32,0,0,1,40,35a.28.28,0,0,1,0-.09A2.32,2.32,0,0,1,42.4,32.66Z"/><path class="cls-1" d="M52.8,12.14a3.24,3.24,0,0,1-3.25-3.25.51.51,0,0,0-.5-.5.5.5,0,0,0-.5.5,3.25,3.25,0,0,1-3.25,3.25.5.5,0,0,0-.5.5.5.5,0,0,0,.5.5,3.26,3.26,0,0,1,3.25,3.26.5.5,0,0,0,.5.5.51.51,0,0,0,.5-.5,3.25,3.25,0,0,1,3.25-3.26.5.5,0,0,0,.5-.5A.51.51,0,0,0,52.8,12.14ZM49.05,14.4a4.26,4.26,0,0,0-1.76-1.76,4.18,4.18,0,0,0,1.76-1.75,4.11,4.11,0,0,0,1.75,1.75A4.18,4.18,0,0,0,49.05,14.4Z"/><path class="cls-1" d="M52.91,2.4a.12.12,0,0,0-.23,0A2.52,2.52,0,0,1,51,4.07a.12.12,0,0,0,0,.23A2.56,2.56,0,0,1,52.68,6a.12.12,0,0,0,.23,0A2.56,2.56,0,0,1,54.58,4.3a.12.12,0,0,0,0-.23A2.52,2.52,0,0,1,52.91,2.4Z"/><path class="cls-1" d="M46.18,7a.06.06,0,0,0,.11,0,1.27,1.27,0,0,1,.83-.84.06.06,0,0,0,0-.11,1.29,1.29,0,0,1-.83-.84.06.06,0,0,0-.11,0,1.3,1.3,0,0,1-.84.84.06.06,0,0,0,0,.11A1.28,1.28,0,0,1,46.18,7Z"/><path class="cls-1" d="M4.21,57a.5.5,0,0,0,.5.5A3.26,3.26,0,0,1,8,60.78a.5.5,0,0,0,.5.5.5.5,0,0,0,.5-.5,3.26,3.26,0,0,1,3.25-3.25.5.5,0,1,0,0-1A3.26,3.26,0,0,1,9,53.28a.5.5,0,0,0-.5-.5.5.5,0,0,0-.5.5,3.26,3.26,0,0,1-3.25,3.25A.5.5,0,0,0,4.21,57Zm2.5,0a4.34,4.34,0,0,0,1.75-1.75A4.34,4.34,0,0,0,10.21,57a4.34,4.34,0,0,0-1.75,1.75A4.34,4.34,0,0,0,6.71,57Z"/><path class="cls-1" d="M4.59,46.79a.12.12,0,0,1,.23,0,2.58,2.58,0,0,0,1.67,1.67.12.12,0,0,1,0,.23,2.54,2.54,0,0,0-1.67,1.67.12.12,0,0,1-.23,0,2.5,2.5,0,0,0-1.67-1.67.12.12,0,0,1,0-.23A2.54,2.54,0,0,0,4.59,46.79Z"/><path class="cls-1" d="M11.33,51.34a.06.06,0,0,1-.12,0,1.23,1.23,0,0,0-.83-.83.06.06,0,0,1,0-.12,1.25,1.25,0,0,0,.83-.83.06.06,0,0,1,.12,0,1.27,1.27,0,0,0,.83.83.06.06,0,0,1,0,.12A1.25,1.25,0,0,0,11.33,51.34Z"/></g></svg>