<svg id="Layer_1" data-name="Layer 1" xmlns="http://www.w3.org/2000/svg" viewBox="0 0 64 64"><path d="M61.08,23.44H61a6,6,0,0,0-4.67,3.75c-.75,1.9-1.58,3.78-2.22,5.72a42.16,42.16,0,0,1-1.72,4.88c-1.22,2.57-3.87,4.26-6.34,5.72l2.52-3a4.71,4.71,0,0,0,.83-3.08,5.6,5.6,0,0,0-.49-2,.32.32,0,0,0-.29-.17.35.35,0,0,0-.17,0l-5.89,3.78a14.78,14.78,0,0,0-7.38,11.37l-.88,8.77a1.35,1.35,0,0,0,1.34,1.49H46a1.35,1.35,0,0,0,1.35-1.35,10.06,10.06,0,0,1,3-7.14l2.67-2.68A15.51,15.51,0,0,0,57,42.43l4.68-18.19A.64.64,0,0,0,61.08,23.44Zm-5,18.74a14.69,14.69,0,0,1-3.82,6.69l-2.67,2.67a11,11,0,0,0-3.25,7.85.35.35,0,0,1-.35.35H35.62a.37.37,0,0,1-.26-.12.34.34,0,0,1-.09-.27l.88-8.77A13.79,13.79,0,0,1,43,40l0,0,5.17-3.31a5,5,0,0,1,.13.88,3.8,3.8,0,0,1-.59,2.38l-2.52,3a1,1,0,0,0,0,1.29,1,1,0,0,0,.77.36,1.06,1.06,0,0,0,.51-.14C49.22,42.79,52,41,53.28,38.23a28.13,28.13,0,0,0,1.34-3.68c.13-.44.27-.88.42-1.31.44-1.34,1-2.69,1.52-4,.23-.56.46-1.12.68-1.69a5,5,0,0,1,3.34-3Z" style="fill:#c52228"/><path d="M22,39.11l-5.89-3.78a.29.29,0,0,0-.16,0,.32.32,0,0,0-.29.17,5.39,5.39,0,0,0-.49,2A4.71,4.71,0,0,0,16,40.54l2.52,3c-2.47-1.46-5.12-3.15-6.34-5.72a42.16,42.16,0,0,1-1.72-4.88C9.84,31,9,29.1,8.26,27.2a6,6,0,0,0-4.68-3.75H3.49a.64.64,0,0,0-.62.8L7.55,42.43a15.61,15.61,0,0,0,4.08,7.14l2.67,2.68a10.11,10.11,0,0,1,3,7.14,1.35,1.35,0,0,0,1.35,1.35H29a1.35,1.35,0,0,0,1.34-1.49l-.88-8.77A14.77,14.77,0,0,0,22,39.11Zm7.19,20.51a.37.37,0,0,1-.26.12H18.61a.35.35,0,0,1-.35-.35A11,11,0,0,0,15,51.54l-2.67-2.67a14.62,14.62,0,0,1-3.82-6.68L4,24.56a5,5,0,0,1,3.34,3c.22.57.45,1.13.68,1.69.53,1.3,1.08,2.65,1.52,4,.15.43.29.87.42,1.31a28.13,28.13,0,0,0,1.34,3.68C12.62,41,15.35,42.79,18,44.38a1.06,1.06,0,0,0,.51.14,1,1,0,0,0,.76-1.65l-2.49-2.94a3.71,3.71,0,0,1-.62-2.41,5,5,0,0,1,.13-.88L21.48,40l.05,0a13.81,13.81,0,0,1,6.89,10.6l.88,8.77A.34.34,0,0,1,29.21,59.62Z" style="fill:#c52228"/><path d="M9.92,6.92a.12.12,0,0,0,.23,0,2.58,2.58,0,0,1,1.67-1.67.11.11,0,0,0,0-.22,2.57,2.57,0,0,1-1.67-1.68.12.12,0,0,0-.23,0A2.55,2.55,0,0,1,8.25,5a.11.11,0,0,0,0,.22A2.56,2.56,0,0,1,9.92,6.92Z" style="fill:#c52228"/><path d="M6,17a.5.5,0,0,0,.5.5A.5.5,0,0,0,7,17a3.25,3.25,0,0,1,3.25-3.25.5.5,0,0,0,.5-.5.51.51,0,0,0-.5-.5A3.25,3.25,0,0,1,7,9.47a.5.5,0,0,0-.5-.5.5.5,0,0,0-.5.5,3.26,3.26,0,0,1-3.25,3.25.5.5,0,0,0-.5.5.5.5,0,0,0,.5.5A3.26,3.26,0,0,1,6,17Zm.5-5.5a4.16,4.16,0,0,0,1.75,1.75A4.22,4.22,0,0,0,6.54,15a4.3,4.3,0,0,0-1.76-1.75A4.24,4.24,0,0,0,6.54,11.47Z" style="fill:#c52228"/><path d="M52.19,10.07a.06.06,0,0,0,.12,0,1.23,1.23,0,0,1,.83-.83.06.06,0,0,0,0-.12,1.23,1.23,0,0,1-.83-.83.06.06,0,0,0-.12,0,1.25,1.25,0,0,1-.83.83.06.06,0,0,0,0,.12A1.25,1.25,0,0,1,52.19,10.07Z" style="fill:#c52228"/><path d="M52.68,14.35A2.58,2.58,0,0,1,54.35,16a.12.12,0,0,0,.23,0,2.56,2.56,0,0,1,1.67-1.67.12.12,0,0,0,0-.23,2.52,2.52,0,0,1-1.67-1.67.12.12,0,0,0-.23,0,2.54,2.54,0,0,1-1.67,1.67A.12.12,0,0,0,52.68,14.35Z" style="fill:#c52228"/><path d="M34.71,42.9v-6h4.63a.5.5,0,0,0,.5-.5.5.5,0,0,0-.5-.5H25.22a.51.51,0,0,0-.5.5.5.5,0,0,0,.5.5h4.49v6a.5.5,0,0,0,.5.5.5.5,0,0,0,.5-.5v-6h3v6a.5.5,0,0,0,.5.5A.5.5,0,0,0,34.71,42.9Z" style="fill:#c52228"/><path d="M44,13.7a1,1,0,1,0,1.41,0A1,1,0,0,0,44,13.7Z" style="fill:#c52228"/><circle cx="40.95" cy="14.4" r="0.75" style="fill:#c52228"/><path d="M15.16,31.86a.5.5,0,0,0,.5-.5V26.57h33.1v4.77a.5.5,0,0,0,.5.5.5.5,0,0,0,.5-.5V26.07a.5.5,0,0,0-.5-.5H34.71v-5.5H49.26a.5.5,0,0,0,.5-.5V9.24a.5.5,0,0,0-.5-.5H15.16a.5.5,0,0,0-.5.5V19.57a.5.5,0,0,0,.5.5H29.71v5.5H15.16a.51.51,0,0,0-.5.5v5.29A.5.5,0,0,0,15.16,31.86Zm.5-22.12h33.1v9.33H15.66ZM30.71,20.07h3v5.5h-3Z" style="fill:#c52228"/><path d="M44,30.53a1,1,0,1,0,1.41,0A1,1,0,0,0,44,30.53Z" style="fill:#c52228"/><path d="M40.42,30.71a.75.75,0,0,0,1.06,1.06.75.75,0,1,0-1.06-1.06Z" style="fill:#c52228"/></svg>