<svg id="Layer_1" data-name="Layer 1" xmlns="http://www.w3.org/2000/svg" viewBox="0 0 64 64"><title>new</title><path d="M35,49.5h-6.7a.5.5,0,0,0-.5.5.5.5,0,0,0,.5.5H35a.5.5,0,0,0,.5-.5A.5.5,0,0,0,35,49.5Z" style="fill:#c52228"/><path d="M28.65,12h2.7a.5.5,0,0,0,.5-.5.51.51,0,0,0-.5-.5h-2.7a.5.5,0,0,0-.5.5A.5.5,0,0,0,28.65,12Z" style="fill:#c52228"/><circle cx="33.8" cy="11.52" r="0.75" style="fill:#c52228"/><path d="M31.6,21A10.5,10.5,0,1,0,42.1,31.5,10.51,10.51,0,0,0,31.6,21Zm0,20a9.5,9.5,0,1,1,9.5-9.5A9.51,9.51,0,0,1,31.6,41Z" style="fill:#c52228"/><path d="M36.1,32h-9a.5.5,0,0,0-.5.5,5,5,0,0,0,10,0A.5.5,0,0,0,36.1,32Zm-4.5,4.5a4,4,0,0,1-4-3.5h7.94A4,4,0,0,1,31.6,36.5Z" style="fill:#c52228"/><path d="M35.57,28.47a.75.75,0,0,0,1.06,1.06.75.75,0,0,0-1.06-1.06Z" style="fill:#c52228"/><path d="M27.74,29.53a.75.75,0,1,0-1.06-1.06.75.75,0,0,0,1.06,1.06Z" style="fill:#c52228"/><path d="M49.26,53.5H45.13a2.67,2.67,0,0,0,.63-1.72V11.22A2.71,2.71,0,0,0,43.05,8.5H20.15a2.72,2.72,0,0,0-2.72,2.72V51.78a2.67,2.67,0,0,0,.63,1.72H9.6a.5.5,0,0,0,0,1H49.26a.5.5,0,0,0,0-1Zm-30.83-39H44.76v31H18.43Zm1.72-5h22.9a1.72,1.72,0,0,1,1.71,1.72V13.5H18.43V11.22A1.72,1.72,0,0,1,20.15,9.5Zm0,44a1.72,1.72,0,0,1-1.72-1.72V46.5H44.76v5.28a1.72,1.72,0,0,1-1.71,1.72Z" style="fill:#c52228"/><path d="M57.75,53.5h-4a.5.5,0,0,0,0,1h4a.5.5,0,0,0,0-1Z" style="fill:#c52228"/><path d="M50.48,35.66a.5.5,0,0,0-.71.71l2.12,2.12a.51.51,0,0,0,.36.15.49.49,0,0,0,.35-.15.5.5,0,0,0,0-.71Z" style="fill:#c52228"/><path d="M50.13,28.5a.49.49,0,0,0,.35-.15l2.12-2.12a.48.48,0,0,0,0-.7.5.5,0,0,0-.71,0l-2.12,2.12a.5.5,0,0,0,0,.7A.51.51,0,0,0,50.13,28.5Z" style="fill:#c52228"/><path d="M50.25,32a.5.5,0,0,0,.5.5h3a.5.5,0,0,0,0-1h-3A.5.5,0,0,0,50.25,32Z" style="fill:#c52228"/><path d="M12.87,28.35a.47.47,0,0,0,.35.15.5.5,0,0,0,.35-.85l-2.12-2.12a.5.5,0,0,0-.71,0,.5.5,0,0,0,0,.7Z" style="fill:#c52228"/><path d="M12.87,35.66l-2.13,2.12a.51.51,0,0,0,0,.71.51.51,0,0,0,.36.15.49.49,0,0,0,.35-.15l2.12-2.12a.5.5,0,0,0,0-.71A.5.5,0,0,0,12.87,35.66Z" style="fill:#c52228"/><path d="M9.6,32.52h3a.51.51,0,0,0,.5-.5.5.5,0,0,0-.5-.5h-3a.5.5,0,0,0-.5.5A.5.5,0,0,0,9.6,32.52Z" style="fill:#c52228"/></svg>