<svg id="Layer_1" data-name="Layer 1" xmlns="http://www.w3.org/2000/svg" viewBox="0 0 64 64"><title>-</title><path d="M45.22,22.28a.5.5,0,0,0-.5.5V44.72H22.78a.5.5,0,0,0,0,1H45.22a.5.5,0,0,0,.5-.5V22.78A.5.5,0,0,0,45.22,22.28Z" style="fill:#c52228"/><path d="M18.79,41.71a.5.5,0,0,0,.5-.5V23.91h4.13a.5.5,0,0,0,.5-.5V19.28h17.3a.5.5,0,0,0,0-1H23.35l-.06,0a.57.57,0,0,0-.23.12l-4.63,4.63a.59.59,0,0,0-.12.22s0,0,0,.07,0,0,0,.06v17.8A.5.5,0,0,0,18.79,41.71ZM22.92,20v2.92H20Z" style="fill:#c52228"/><path d="M47.92,16.12s0,0,0,0h0A22.49,22.49,0,0,0,16.09,47.89h0A22.49,22.49,0,0,0,47.92,16.12ZM32,10.5a21.42,21.42,0,0,1,14.83,6L16.47,46.83A21.47,21.47,0,0,1,32,10.5Zm0,43a21.42,21.42,0,0,1-14.83-6L47.53,17.17A21.47,21.47,0,0,1,32,53.5Z" style="fill:#c52228"/><path d="M32.59,26.91h-9.8a.5.5,0,0,0,0,1h9.8a.5.5,0,0,0,0-1Z" style="fill:#c52228"/><path d="M36.59,31.91h4.63a.5.5,0,0,0,0-1H36.59a.5.5,0,0,0,0,1Z" style="fill:#c52228"/><path d="M28.59,30.91h-5.8a.5.5,0,0,0,0,1h5.8a.5.5,0,0,0,0-1Z" style="fill:#c52228"/><path d="M32.59,35.91h8.63a.5.5,0,0,0,0-1H32.59a.5.5,0,0,0,0,1Z" style="fill:#c52228"/><path d="M28.59,39.91H41.22a.5.5,0,0,0,0-1H28.59a.5.5,0,0,0,0,1Z" style="fill:#c52228"/></svg>