<svg id="Layer_1" data-name="Layer 1" xmlns="http://www.w3.org/2000/svg" viewBox="0 0 64 64"><title>-</title><path d="M32,15.42a2.92,2.92,0,1,0,2.91,2.92A2.91,2.91,0,0,0,32,15.42Zm0,4.83a1.92,1.92,0,1,1,1.91-1.91A1.91,1.91,0,0,1,32,20.25Z" style="fill:#c52228"/><path d="M48.16,36.14,40,24.22V19.06c0-7.4-7.46-11.76-7.78-11.94a.5.5,0,0,0-.5,0C31.43,7.3,24,11.66,24,19.06v5.16L15.87,36.1a.7.7,0,0,0-.1.76.69.69,0,0,0,.64.41h9.16v2.9a.5.5,0,0,0,.5.5h2.16s0,.06,0,.09V52.42a2.35,2.35,0,0,0-1.72,1.51,2.8,2.8,0,0,0-1.31-.33,2.86,2.86,0,0,0-2.85,2.85.5.5,0,0,0,.5.5.5.5,0,0,0,.5-.5,1.85,1.85,0,0,1,1.85-1.85,1.83,1.83,0,0,1,1.31.54.5.5,0,0,0,.71,0,.49.49,0,0,0,.14-.39v0a1.36,1.36,0,0,1,1.36-1.36.5.5,0,0,0,.5-.5s0,0,0,0,0,0,0,0v-12s0-.06,0-.09h2.37v6.84a.5.5,0,0,0,1,0V40.67H35v6.84a.5.5,0,0,0,.5.5h0a1.36,1.36,0,0,1,1.34,1.36s0,0,0,0a.49.49,0,0,0,.14.39.5.5,0,0,0,.7,0,1.85,1.85,0,0,1,3.17,1.31.5.5,0,0,0,1,0,2.83,2.83,0,0,0-4.17-2.52A2.37,2.37,0,0,0,36,47.06V40.67h1.93a.5.5,0,0,0,.5-.5v-2.9h9.16a.7.7,0,0,0,.64-.41A.68.68,0,0,0,48.16,36.14ZM37.43,39.67H26.57v-2.4H37.43Zm.5-3.4H17L24,26v5.15a.5.5,0,0,0,1,0V19.06C25,13,30.72,9,32,8.14,33.28,9,39,13,39,19.06V31.34a.5.5,0,0,0,.5.5.5.5,0,0,0,.5-.5V26l7,10.28Z" style="fill:#c52228"/><path d="M32.07,50.8a.5.5,0,0,0-.5.5v4a.5.5,0,0,0,1,0v-4A.5.5,0,0,0,32.07,50.8Z" style="fill:#c52228"/><path d="M41.38,42.67a1.82,1.82,0,1,0,1.82,1.82A1.82,1.82,0,0,0,41.38,42.67Zm0,2.64a.82.82,0,1,1,.82-.82A.82.82,0,0,1,41.38,45.31Z" style="fill:#c52228"/><path d="M25.07,49.37a1.82,1.82,0,1,0-1.82,1.82A1.82,1.82,0,0,0,25.07,49.37Zm-2.64,0a.82.82,0,1,1,1.64,0,.82.82,0,1,1-1.64,0Z" style="fill:#c52228"/><circle cx="18.94" cy="53.3" r="1" style="fill:#c52228"/></svg>