<svg id="Layer_1" data-name="Layer 1" xmlns="http://www.w3.org/2000/svg" viewBox="0 0 64 64"><title>new</title><path d="M52.28,12.54a6.23,6.23,0,1,0,6.22,6.23A6.24,6.24,0,0,0,52.28,12.54Zm0,11.46a5.23,5.23,0,1,1,5.22-5.23A5.23,5.23,0,0,1,52.28,24Z" style="fill:#c52228"/><path d="M54,53.79H50.45V47.87H52a.5.5,0,0,0,.5-.5v-3a.5.5,0,0,0-.5-.5h-1.5V40.79H54a.5.5,0,0,0,.5-.5.5.5,0,0,0-.5-.5h-3.5V32.28a.5.5,0,0,0-.5-.5H38a.51.51,0,0,0-.5.5v7.51H34a.51.51,0,0,0-.5.5.5.5,0,0,0,.5.5h3.5v3.08H36a.5.5,0,0,0-.5.5v3a.5.5,0,0,0,.5.5h1.5v5.92h0a8.29,8.29,0,0,1-5.83-2.2,7,7,0,0,0-1.39-1A9.42,9.42,0,0,0,25,49.42L18.78,23.85l4-1,7.37-1.8a.5.5,0,0,0,.37-.6,12.65,12.65,0,0,0-14.83-9.4l-.37-1.49a.5.5,0,0,0-1,.24l.36,1.48A12.69,12.69,0,0,0,5.86,26.5a.5.5,0,0,0,.49.38h.12l5.91-1.45h0l5.43-1.33L24,49.54a9.08,9.08,0,0,0-3,1.05,6.67,6.67,0,0,0-1.34,1,8.68,8.68,0,0,1-5.9,2.2l-3.79,0h0a.5.5,0,0,0-.5.5.49.49,0,0,0,.49.5l3.8,0a9.29,9.29,0,0,0,6.59-2.47,5.76,5.76,0,0,1,1.14-.82,8.42,8.42,0,0,1,8.21,0,6,6,0,0,1,1.19.87,9.32,9.32,0,0,0,6.52,2.47H54a.51.51,0,0,0,.5-.5A.5.5,0,0,0,54,53.79ZM12.43,16.26c.47-2.05,1.34-3.42,2.5-4l2.64,10.81-4.94,1.21A19,19,0,0,1,12.43,16.26Zm6.12,6.62L15.9,12.08H16c2.74,0,6,4.12,7.44,9.61Zm10.83-2.65-4.94,1.21c-1.22-4.59-3.51-8.14-6-9.62a11.63,11.63,0,0,1,10.91,8.41ZM8.19,17.43a11.62,11.62,0,0,1,4.34-4.16A9.19,9.19,0,0,0,11.46,16a19.88,19.88,0,0,0,.21,8.54L6.72,25.78A11.65,11.65,0,0,1,8.19,17.43ZM49.45,51.22l-3.69-1.07,3.69-1.06Zm0-7.35h-3V32.78h3Zm-4,0h-3V32.78h3Zm-7-11.09h3V43.87h-3Zm-2,12.09h15v2h-15Zm13,3v.18L44,49.63l-5.5-1.58v-.18Zm-11,1.22,3.7,1.06-3.7,1.07Zm0,3.17L44,50.67l5.5,1.59v1.53h-11Z" style="fill:#c52228"/></svg>