<svg id="Layer_1" data-name="Layer 1" xmlns="http://www.w3.org/2000/svg" viewBox="0 0 64 64"><title>-</title><path d="M23.87,9.59a2.45,2.45,0,0,0,.75.12,2.25,2.25,0,0,0,.68-.11l2.13,4.08a.48.48,0,0,0,.44.27h0l8.27,0a.56.56,0,0,0,.23-.06l.06,0a.57.57,0,0,0,.13-.14l0,0L38.7,9.6a2.25,2.25,0,0,0,.68.11,2.45,2.45,0,0,0,.75-.12,2.5,2.5,0,1,0-3-3.54A2.54,2.54,0,0,0,37,8a2.46,2.46,0,0,0,.81,1.18l-2,3.79H32.5V7a2.5,2.5,0,0,0,1.27-4.22,2.57,2.57,0,0,0-3.54,0A2.5,2.5,0,0,0,31.5,7v6H28.17l-2-3.81A2.46,2.46,0,0,0,27,8a2.5,2.5,0,1,0-4.77-1.5,2.47,2.47,0,0,0,.17,1.9A2.49,2.49,0,0,0,23.87,9.59ZM38.05,6.51a1.52,1.52,0,0,1,.88-.73,1.41,1.41,0,0,1,.45-.07,1.5,1.5,0,0,1,1.43,1,1.46,1.46,0,0,1-.1,1.14A1.5,1.5,0,0,1,38,7.66,1.53,1.53,0,0,1,38.05,6.51ZM30.94,3.44a1.5,1.5,0,0,1,2.12,2.12,1.53,1.53,0,0,1-2.12,0A1.49,1.49,0,0,1,30.94,3.44ZM23.19,6.76a1.5,1.5,0,0,1,1.43-1,1.41,1.41,0,0,1,.45.07A1.5,1.5,0,1,1,23.29,7.9,1.46,1.46,0,0,1,23.19,6.76Z" style="fill:#c52228"/><path d="M61.72,47.91a2.5,2.5,0,0,0-4.41-.06l-4.37-1.38a.5.5,0,0,0-.51.12L46.6,52.46s0,0,0,0l-.06.09,0,.09s0,.06,0,.09a.2.2,0,0,0,0,.11V53l1.38,4.35a2.51,2.51,0,0,0,.06,4.41,2.44,2.44,0,0,0,1.15.28,2.4,2.4,0,0,0,.75-.12,2.5,2.5,0,0,0,1.64-3.13,2.51,2.51,0,0,0-1.24-1.47A2.47,2.47,0,0,0,48.8,57L47.52,53l2.35-2.37,4.24,4.24a2.52,2.52,0,1,0,.71-.71l-4.24-4.24,2.34-2.36L57,48.8a2.52,2.52,0,0,0,1.74,2.65,2.78,2.78,0,0,0,.75.11,2.51,2.51,0,0,0,2.22-3.65Zm-4,8.28a1.5,1.5,0,1,1-1.5-1.5A1.5,1.5,0,0,1,57.69,56.19Zm-7.94,2A1.5,1.5,0,1,1,47.63,60a1.5,1.5,0,0,1,.1-1.14,1.47,1.47,0,0,1,.88-.74,1.41,1.41,0,0,1,.45-.07A1.5,1.5,0,0,1,49.75,58.17Zm11.18-8.66a1.5,1.5,0,0,1-2.86-.9,1.51,1.51,0,0,1,1.43-1,1.41,1.41,0,0,1,.45.07,1.5,1.5,0,0,1,.88.74A1.46,1.46,0,0,1,60.93,49.51Z" style="fill:#c52228"/><path d="M17.32,52.37,11.54,46.6a.49.49,0,0,0-.5-.13L6.69,47.85a2.48,2.48,0,0,0-2.94-1.17,2.5,2.5,0,0,0,.75,4.88,2.78,2.78,0,0,0,.75-.11A2.5,2.5,0,0,0,7,48.8l4.06-1.28,2.36,2.36L9.18,54.11a2.46,2.46,0,0,0-1.37-.42,2.52,2.52,0,1,0,2.08,1.13l4.23-4.23L16.48,53,15.2,57a2.56,2.56,0,0,0-1.42.26,2.53,2.53,0,0,0-1.23,1.47,2.47,2.47,0,0,0,.17,1.9h0A2.5,2.5,0,0,0,14.94,62a2.49,2.49,0,0,0,1.21-4.68l1.38-4.38A.5.5,0,0,0,17.32,52.37ZM5.83,49.75a1.5,1.5,0,0,1-2,.64,1.47,1.47,0,0,1-.74-.88,1.5,1.5,0,0,1,1-1.88,1.41,1.41,0,0,1,.45-.07,1.51,1.51,0,0,1,1.43,1A1.46,1.46,0,0,1,5.83,49.75Zm2,7.94a1.5,1.5,0,1,1,1.5-1.5A1.5,1.5,0,0,1,7.81,57.69ZM16.37,60a1.47,1.47,0,0,1-.74.88,1.5,1.5,0,0,1-2-.64,1.5,1.5,0,0,1,.64-2A1.5,1.5,0,0,1,16.37,60Z" style="fill:#c52228"/><path d="M45.2,24.29a1,1,0,0,0,0-1.41,1,1,0,0,0-1.42,0,1,1,0,0,0,0,1.41A1,1,0,0,0,45.2,24.29Z" style="fill:#c52228"/><circle cx="40.74" cy="23.58" r="0.75" style="fill:#c52228"/><path d="M15,46.08h34.1a.5.5,0,0,0,.5-.5V35.25a.5.5,0,0,0-.5-.5H34.5v-5.5H49.05a.5.5,0,0,0,.5-.5V18.42a.5.5,0,0,0-.5-.5H15a.5.5,0,0,0-.5.5V28.75a.5.5,0,0,0,.5.5H29.5v5.5H15a.5.5,0,0,0-.5.5V45.58A.5.5,0,0,0,15,46.08Zm.5-27.16h33.1v9.33H15.45ZM30.5,29.25h3v5.5h-3Zm-15,6.5h33.1v9.33H15.45Z" style="fill:#c52228"/><path d="M43.78,39.71a1,1,0,0,0,0,1.41,1,1,0,0,0,1.42,0,1,1,0,0,0,0-1.41A1,1,0,0,0,43.78,39.71Z" style="fill:#c52228"/><circle cx="40.74" cy="40.42" r="0.75" style="fill:#c52228"/></svg>