<svg id="Layer_1" data-name="Layer 1" xmlns="http://www.w3.org/2000/svg" viewBox="0 0 64 64"><title>-</title><path d="M54.59,21.24a.47.47,0,0,0-.15-.35L46.7,13.15a.48.48,0,0,0-.7,0l-7.45,7.44h0l-7.83,7.83-3.14-3.13a2.92,2.92,0,0,1,.9-.95l2-1.25a.51.51,0,0,0,.22-.54.49.49,0,0,0-.43-.38l-3.49-.37a9.39,9.39,0,1,0-8.6,5.64,9.29,9.29,0,0,0,3.51-.68L22,30.37a.49.49,0,0,0,.38.43l.11,0a.5.5,0,0,0,.42-.23l1.39-2.11a3.09,3.09,0,0,1,.47-.54L28,31.13,13.24,45.91a.48.48,0,0,0,0,.7L21,54.35a.49.49,0,0,0,.35.15.51.51,0,0,0,.36-.15L36.46,39.58,47.14,50.25a1.91,1.91,0,1,0,2.71-2.7L39.17,36.87,54.44,21.59A.47.47,0,0,0,54.59,21.24ZM12.21,24a8.39,8.39,0,1,1,14-3.6,7.34,7.34,0,0,1-9.79,3.41,5.79,5.79,0,0,1-2.72-7.72,4.54,4.54,0,0,1,6-2.12,3.53,3.53,0,0,1,1.65,4.7,2.75,2.75,0,0,1-1.55,1.39,2.68,2.68,0,0,1-2.08-.12,2.07,2.07,0,0,1-1-2.77,1.56,1.56,0,0,1,2.08-.73A1.15,1.15,0,0,1,19.41,18a.83.83,0,0,1-1.1.39.49.49,0,0,0-.66.23.5.5,0,0,0,.23.67,1.83,1.83,0,0,0,2.43-.85,2.16,2.16,0,0,0-1-2.87,2.57,2.57,0,0,0-3.42,1.2,3.08,3.08,0,0,0,1.45,4.1,3.71,3.71,0,0,0,5-1.74,4.53,4.53,0,0,0-2.12-6,5.54,5.54,0,0,0-7.38,2.6,6.79,6.79,0,0,0,3.18,9,8.28,8.28,0,0,0,6.39.35,7.29,7.29,0,0,0,1-.45A8.41,8.41,0,0,1,12.21,24Zm11.3,3.94-.63.94-.27-2.56a9.6,9.6,0,0,0,2.18-1.61,9.47,9.47,0,0,0,1.48-1.95l2.44.26-.77.49A4,4,0,0,0,26.56,25l-.11.23a3,3,0,0,1-1.35,1.3,3.58,3.58,0,0,0-.59.36h0A4,4,0,0,0,23.51,27.93Zm2.15-.56A3.92,3.92,0,0,0,27,26.16l3,3-1.3,1.29ZM49.14,48.25a.94.94,0,0,1,0,1.3.92.92,0,0,1-1.29,0L37.17,38.87l1.29-1.29Zm-27.81,5-7-7,3.76-3.76,3.22,3.22a.51.51,0,0,0,.36.15A.5.5,0,0,0,22,45l-3.22-3.23L21,39.52l1.73,1.74a.52.52,0,0,0,.71,0,.51.51,0,0,0,0-.71l-1.74-1.74L24,36.54l3.22,3.23a.52.52,0,0,0,.35.14.54.54,0,0,0,.36-.14.51.51,0,0,0,0-.71l-3.23-3.22L27,33.57l1.74,1.73a.48.48,0,0,0,.7,0,.5.5,0,0,0,0-.71L27.7,32.86l1.37-1.37h0l.89-.88,3.23,3.22a.47.47,0,0,0,.35.15.49.49,0,0,0,.35-.15.5.5,0,0,0,0-.71l-3.22-3.22.39-.39h0L33,27.61l1.73,1.73a.51.51,0,0,0,.36.15.5.5,0,0,0,.35-.15.48.48,0,0,0,0-.7L33.66,26.9l2.27-2.27,3.22,3.22a.5.5,0,0,0,.35.15.51.51,0,0,0,.36-.15.5.5,0,0,0,0-.7l-3.23-3.23,2.28-2.27,1.73,1.74a.49.49,0,0,0,.35.14.5.5,0,0,0,.36-.14.51.51,0,0,0,0-.71L39.61,21l2.27-2.27,3.23,3.22a.48.48,0,0,0,.7,0,.5.5,0,0,0,0-.71L42.59,18l3.76-3.76,7,7Z" style="fill:#c52228"/></svg>