<svg id="Layer_1" data-name="Layer 1" xmlns="http://www.w3.org/2000/svg" viewBox="0 0 64 64"><path d="M55.67,26l-5.52-5.52a.51.51,0,0,0-.71,0,4.15,4.15,0,0,1-7.09-2.93,4.11,4.11,0,0,1,1.22-2.94.51.51,0,0,0,0-.71L38.05,8.33a.5.5,0,0,0-.71,0l-29,29a.5.5,0,0,0,0,.71l5.52,5.52a.51.51,0,0,0,.71,0,4.15,4.15,0,0,1,5.87,5.87.51.51,0,0,0,0,.71L26,55.67a.51.51,0,0,0,.36.15.49.49,0,0,0,.35-.15l29-29A.5.5,0,0,0,55.67,26Zm-6.88,6.18-.3-.3a.5.5,0,0,0-.71,0,.48.48,0,0,0,0,.7l.3.31L26.31,54.61l-4.83-4.83a5.15,5.15,0,0,0-4-8.42h0a5.14,5.14,0,0,0-3.27,1.16L9.39,37.69,31.16,15.92,32.22,17a.52.52,0,0,0,.71,0,.5.5,0,0,0,0-.71l-1.06-1.06,5.82-5.82,4.83,4.83a5.16,5.16,0,0,0,7.26,7.26l4.83,4.83Z" style="fill:#c52228"/><path d="M35.76,19.1a.5.5,0,0,0-.71,0,.5.5,0,0,0,0,.7l1.42,1.42a.48.48,0,0,0,.7,0,.5.5,0,0,0,0-.71Z" style="fill:#c52228"/><path d="M44.24,27.58a.5.5,0,0,0-.7,0,.5.5,0,0,0,0,.71L45,29.7a.51.51,0,0,0,.36.15.5.5,0,0,0,.35-.85Z" style="fill:#c52228"/><path d="M40,23.34a.5.5,0,1,0-.71.71l1.42,1.41a.49.49,0,0,0,.35.15.51.51,0,0,0,.36-.15.51.51,0,0,0,0-.71Z" style="fill:#c52228"/><path d="M34.07,32.23l0-3.6a.5.5,0,0,0-.27-.45.49.49,0,0,0-.53.05l-2.88,2.15L27,29.22a.5.5,0,0,0-.64.64l1.16,3.4L25.4,36.15a.47.47,0,0,0,0,.52.51.51,0,0,0,.45.28h0l3.6-.05,2.08,2.94a.51.51,0,0,0,.41.21H32a.5.5,0,0,0,.4-.34l1.06-3.44,3.44-1.07a.5.5,0,0,0,.35-.4.49.49,0,0,0-.21-.48Zm-1.18,3.16a.48.48,0,0,0-.33.32l-.85,2.72-1.64-2.32a.52.52,0,0,0-.41-.21h0l-2.85,0,1.71-2.28a.5.5,0,0,0,.07-.46l-.92-2.7,2.7.92a.53.53,0,0,0,.46-.07l2.29-1.71,0,2.85a.53.53,0,0,0,.21.42l2.33,1.64Z" style="fill:#c52228"/></svg>