<svg id="Layer_1" data-name="Layer 1" xmlns="http://www.w3.org/2000/svg" viewBox="0 0 64 64"><path d="M10,37.2H8.5V30.36a5.19,5.19,0,0,0,3.94-2.51.51.51,0,0,0-.18-.69.5.5,0,0,0-.68.18A4.18,4.18,0,0,1,8,29.39a.5.5,0,0,0-.5.5V37.7a.5.5,0,0,0,.5.5h2a.5.5,0,0,0,.5-.5A.5.5,0,0,0,10,37.2Z" style="fill:#c52228"/><path d="M8,21.08a3.88,3.88,0,0,1,1.78.41.54.54,0,0,0,.22.05.52.52,0,0,0,.45-.28.5.5,0,0,0-.23-.67A4.92,4.92,0,0,0,8.5,20.1V13.27H39.3V14a.5.5,0,0,0,.5.5.5.5,0,0,0,.5-.5v-.75h8.23v1.5a.5.5,0,0,0,1,0v-2a.5.5,0,0,0-.5-.5H8a.5.5,0,0,0-.5.5v7.81A.5.5,0,0,0,8,21.08Z" style="fill:#c52228"/><path d="M34.45,41.2h-22V34.36a5.15,5.15,0,0,0,0-10.26V17.27H43.3V18a.5.5,0,0,0,.5.5.51.51,0,0,0,.5-.5v-.76h8.23V24.1a5.17,5.17,0,0,0-4.66,5.14q0,.3,0,.6a.5.5,0,0,0,1-.11,3.91,3.91,0,0,1,0-.49A4.16,4.16,0,0,1,53,25.08a.5.5,0,0,0,.5-.5V16.77a.5.5,0,0,0-.5-.5H12a.5.5,0,0,0-.5.5v7.81a.5.5,0,0,0,.5.5,4.16,4.16,0,0,1,0,8.31.5.5,0,0,0-.5.5V41.7a.5.5,0,0,0,.5.5H34.45a.5.5,0,0,0,.5-.5A.5.5,0,0,0,34.45,41.2Z" style="fill:#c52228"/><path d="M44.3,22a.5.5,0,0,0-.5-.5.5.5,0,0,0-.5.5v2a.5.5,0,0,0,.5.5.51.51,0,0,0,.5-.5Z" style="fill:#c52228"/><path d="M43.8,27.53a.5.5,0,0,0-.5.5v2a.5.5,0,0,0,.5.5.51.51,0,0,0,.5-.5V28A.5.5,0,0,0,43.8,27.53Z" style="fill:#c52228"/><path d="M36.12,27.49,32.56,27,31,23.75a.52.52,0,0,0-.89,0L28.48,27l-3.57.51a.51.51,0,0,0-.4.34.5.5,0,0,0,.13.52l2.57,2.51-.6,3.55a.5.5,0,0,0,.19.49.51.51,0,0,0,.53,0l3.19-1.67,3.18,1.67a.49.49,0,0,0,.23.06.49.49,0,0,0,.5-.58l-.61-3.55,2.58-2.51a.52.52,0,0,0,.12-.52A.5.5,0,0,0,36.12,27.49Zm-3.19,2.84a.51.51,0,0,0-.14.44l.48,2.81-2.52-1.33a.46.46,0,0,0-.23-.06.53.53,0,0,0-.24.06l-2.52,1.33.48-2.81a.48.48,0,0,0-.14-.44l-2-2,2.82-.41a.53.53,0,0,0,.38-.27l1.26-2.56,1.26,2.56a.49.49,0,0,0,.37.27l2.82.41Z" style="fill:#c52228"/><path d="M46.72,32.17A9.78,9.78,0,1,0,56.5,42,9.79,9.79,0,0,0,46.72,32.17Zm0,18.56A8.78,8.78,0,1,1,55.5,42,8.79,8.79,0,0,1,46.72,50.73Z" style="fill:#c52228"/><path d="M53.56,41.63c-.12-.15-3.08-3.64-6.84-3.64S40,41.48,39.88,41.63a.49.49,0,0,0,0,.64c.12.15,3.08,3.64,6.84,3.64s6.72-3.49,6.84-3.64A.51.51,0,0,0,53.56,41.63Zm-6.84,3.28c-2.66,0-5-2.13-5.78-3,.8-.82,3.12-3,5.78-3s5,2.14,5.78,3C51.7,42.78,49.38,44.91,46.72,44.91Z" style="fill:#c52228"/><path d="M44.59,42a2.13,2.13,0,1,0,2.13-2.13A2.13,2.13,0,0,0,44.59,42Zm3.26,0a1.13,1.13,0,1,1-1.13-1.13A1.13,1.13,0,0,1,47.85,42Z" style="fill:#c52228"/></svg>