<svg id="Layer_1" data-name="Layer 1" xmlns="http://www.w3.org/2000/svg" viewBox="0 0 64 64"><path d="M34.88,12.61a1,1,0,0,0,0,1.42,1,1,0,0,0,1.41,0,1,1,0,0,0,0-1.42A1,1,0,0,0,34.88,12.61Z" style="fill:#c52228"/><path d="M31.31,12.79a.74.74,0,0,0,0,1.06.75.75,0,1,0,0-1.06Z" style="fill:#c52228"/><path d="M27.27,42.32a.5.5,0,0,0,.5-.5.51.51,0,0,0-.5-.5H25.6v-5.5H40.15a.5.5,0,0,0,.5-.5V25a.5.5,0,0,0-.5-.5H25.6V19H40.15a.5.5,0,0,0,.5-.5V8.15a.51.51,0,0,0-.5-.5H6.05a.5.5,0,0,0-.5.5V18.49a.5.5,0,0,0,.5.5H20.6v5.5H6.05a.5.5,0,0,0-.5.5V35.32a.5.5,0,0,0,.5.5H20.6v5.5H6.05a.5.5,0,0,0-.5.5V52.15a.5.5,0,0,0,.5.5H23a.5.5,0,0,0,.5-.5.51.51,0,0,0-.5-.5H6.55V42.32ZM6.55,8.65h33.1V18H6.55ZM21.6,19h3v5.5h-3Zm-15,6.5h33.1v9.33H6.55ZM21.6,35.82h3v5.5h-3Z" style="fill:#c52228"/><circle cx="35.59" cy="30.16" r="1" style="fill:#c52228"/><circle cx="31.84" cy="30.16" r="0.75" style="fill:#c52228"/><path d="M57.79,49.7,42.47,55.12l-15-5.31V46.88L42.3,52.13a.62.62,0,0,0,.33,0l15.49-5.49a.5.5,0,0,0,0-.94L42.63,40.21a.47.47,0,0,0-.33,0L31.77,43.94a.5.5,0,1,0,.34.94l10.36-3.67,14,5-14,4.95L27.15,45.7a.5.5,0,0,0-.46.06.51.51,0,0,0-.21.41v4a.5.5,0,0,0,.33.47L42.3,56.13a.62.62,0,0,0,.33,0l14.82-5.25v2.93l-15,5.31L27.15,53.7a.49.49,0,0,0-.64.3.5.5,0,0,0,.3.64L42.3,60.13l.17,0,.16,0,15.49-5.49a.5.5,0,0,0,.33-.47v-4a.51.51,0,0,0-.21-.41A.48.48,0,0,0,57.79,49.7Z" style="fill:#c52228"/><path d="M46.33,8.6a3.25,3.25,0,0,1,3.25,3.25.5.5,0,0,0,.5.5.5.5,0,0,0,.5-.5A3.26,3.26,0,0,1,53.83,8.6a.5.5,0,0,0,0-1,3.26,3.26,0,0,1-3.25-3.25.5.5,0,0,0-.5-.5.5.5,0,0,0-.5.5A3.25,3.25,0,0,1,46.33,7.6a.5.5,0,0,0,0,1Zm3.75-2.25A4.34,4.34,0,0,0,51.83,8.1a4.34,4.34,0,0,0-1.75,1.75A4.28,4.28,0,0,0,48.33,8.1,4.28,4.28,0,0,0,50.08,6.35Z" style="fill:#c52228"/><path d="M46.22,18.68a.12.12,0,0,0,.23,0A2.52,2.52,0,0,1,48.12,17a.12.12,0,0,0,0-.23,2.56,2.56,0,0,1-1.67-1.67.12.12,0,0,0-.23,0,2.58,2.58,0,0,1-1.67,1.67.12.12,0,0,0,0,.23A2.54,2.54,0,0,1,46.22,18.68Z" style="fill:#c52228"/><path d="M53,14.13a.06.06,0,0,0-.12,0,1.27,1.27,0,0,1-.83.84.06.06,0,0,0,0,.11,1.25,1.25,0,0,1,.83.84.06.06,0,0,0,.12,0,1.27,1.27,0,0,1,.83-.84.06.06,0,0,0,0-.11A1.29,1.29,0,0,1,53,14.13Z" style="fill:#c52228"/></svg>