<svg id="Layer_1" data-name="Layer 1" xmlns="http://www.w3.org/2000/svg" viewBox="0 0 64 64"><title>-</title><path d="M23.41,38.85A10.53,10.53,0,0,1,8.64,31.22a.51.51,0,0,0-.59-.4.5.5,0,0,0-.4.58,11.54,11.54,0,0,0,16.17,8.36.51.51,0,0,0,.25-.67A.5.5,0,0,0,23.41,38.85Z" style="fill:#c52228"/><path d="M8.46,29.31V21A10.51,10.51,0,0,1,19,10.54a10.29,10.29,0,0,1,3.52.61.5.5,0,0,0,.64-.29.51.51,0,0,0-.29-.65A11.37,11.37,0,0,0,19,9.54,11.51,11.51,0,0,0,7.46,21v8.27a.5.5,0,0,0,.5.5A.5.5,0,0,0,8.46,29.31Z" style="fill:#c52228"/><path d="M25.39,38.75a.53.53,0,0,0,.3-.09,11.57,11.57,0,0,0,4.77-9.34V27.18a.5.5,0,0,0-.5-.5.51.51,0,0,0-.5.5v2.14a10.57,10.57,0,0,1-4.36,8.53.5.5,0,0,0,.29.9Z" style="fill:#c52228"/><path d="M29.46,21v4.14a.5.5,0,0,0,.5.5.5.5,0,0,0,.5-.5V21a11.36,11.36,0,0,0-1.25-5.23.5.5,0,1,0-.89.45A10.36,10.36,0,0,1,29.46,21Z" style="fill:#c52228"/><path d="M24.32,12a10.35,10.35,0,0,1,2.95,2.6.47.47,0,0,0,.39.19.49.49,0,0,0,.4-.8,12,12,0,0,0-1-1.1,11.83,11.83,0,0,0-2.27-1.76.5.5,0,0,0-.51.87Z" style="fill:#c52228"/><path d="M19,37.82a8.47,8.47,0,0,0,5.82-2.31.5.5,0,1,0-.69-.73,7.49,7.49,0,0,1-12.61-5,.49.49,0,0,0-.53-.47.5.5,0,0,0-.46.54A8.49,8.49,0,0,0,19,37.82Z" style="fill:#c52228"/><path d="M26.46,22.83v6.49a7.33,7.33,0,0,1-1.17,4,.5.5,0,0,0,.15.69.47.47,0,0,0,.27.08.48.48,0,0,0,.42-.23,8.36,8.36,0,0,0,1.33-4.54V22.83a.5.5,0,0,0-.5-.5A.51.51,0,0,0,26.46,22.83Z" style="fill:#c52228"/><path d="M21.09,12.81a.5.5,0,1,0-.25,1,7.53,7.53,0,0,1,5.61,7.07.5.5,0,0,0,.5.48h0a.49.49,0,0,0,.48-.51A8.54,8.54,0,0,0,21.09,12.81Z" style="fill:#c52228"/><path d="M19,12.54a8.52,8.52,0,0,0-8.5,8.5v.79a.5.5,0,0,0,.5.5.5.5,0,0,0,.5-.5V21a7.52,7.52,0,0,1,7.5-7.5.5.5,0,0,0,.5-.5A.5.5,0,0,0,19,12.54Z" style="fill:#c52228"/><path d="M10.46,27.83a.5.5,0,0,0,.5.5.5.5,0,0,0,.5-.5v-4a.5.5,0,0,0-.5-.5.51.51,0,0,0-.5.5Z" style="fill:#c52228"/><path d="M15.62,16.69a.5.5,0,0,0-.08.7.5.5,0,0,0,.7.09A4.38,4.38,0,0,1,19,16.54a4.5,4.5,0,0,1,4.5,4.5v3.79a.5.5,0,0,0,.5.5.5.5,0,0,0,.5-.5V21a5.5,5.5,0,0,0-5.5-5.5A5.39,5.39,0,0,0,15.62,16.69Z" style="fill:#c52228"/><path d="M15.05,18.85a.51.51,0,0,0-.18-.69.51.51,0,0,0-.69.18,5.37,5.37,0,0,0-.72,2.7v8.28a5.47,5.47,0,0,0,.7,2.68.5.5,0,0,0,.43.25.54.54,0,0,0,.25-.06.5.5,0,0,0,.19-.68,4.53,4.53,0,0,1-.57-2.19V21A4.25,4.25,0,0,1,15.05,18.85Z" style="fill:#c52228"/><path d="M15.52,33a.52.52,0,0,0,.08.71A5.39,5.39,0,0,0,19,34.82a5.5,5.5,0,0,0,5.5-5.5V26.83a.5.5,0,0,0-.5-.5.51.51,0,0,0-.5.5v2.49a4.49,4.49,0,0,1-4.5,4.5,4.41,4.41,0,0,1-2.74-1A.5.5,0,0,0,15.52,33Z" style="fill:#c52228"/><path d="M21,22.94a.5.5,0,0,0,.5-.5V21a2.51,2.51,0,0,0-2.5-2.5,2.54,2.54,0,0,0-2,1,.5.5,0,0,0,.79.61,1.53,1.53,0,0,1,1.2-.61,1.5,1.5,0,0,1,1.5,1.5v1.4A.5.5,0,0,0,21,22.94Z" style="fill:#c52228"/><path d="M16.46,22.27v7.05a2.5,2.5,0,0,0,5,0V24.83a.5.5,0,0,0-.5-.5.51.51,0,0,0-.5.5v4.49a1.5,1.5,0,0,1-3,0v-7a.5.5,0,0,0-.5-.5A.51.51,0,0,0,16.46,22.27Z" style="fill:#c52228"/><path d="M18.47,21.84v6.69a.5.5,0,0,0,.5.5.5.5,0,0,0,.5-.5V21.84a.5.5,0,0,0-.5-.5A.5.5,0,0,0,18.47,21.84Z" style="fill:#c52228"/><path d="M49.73,45.05a.17.17,0,0,0,0-.07h0s0,0-.06-.08a.22.22,0,0,0,0-.08h0l-.07,0s0,0-.09-.06a.32.32,0,0,0-.09,0l-.09,0-.12,0h-.07l-.67.25a6.28,6.28,0,0,1-2.67-1,31,31,0,0,1-6-4.8c-4.53-4.54-6.38-8.47-5.67-9.18.21-.21.78-.18,1.52.09a.5.5,0,0,0,.64-.31.5.5,0,0,0-.3-.64c-1.19-.41-2-.36-2.57.15C31.73,30.86,35,35.79,39,39.83a31.47,31.47,0,0,0,6.22,5,11.38,11.38,0,0,0,1.51.73L42,47.28h0c-1.29,0-3.79-1.21-6.46-3.89C32.36,40.27,31,37,31.81,36.17a.5.5,0,0,0,0-.71.5.5,0,0,0-.7,0c-1.62,1.62.67,5.65,3.65,8.63a16.46,16.46,0,0,0,5.47,3.81l-4.88,1.78a6.26,6.26,0,0,1-4.13-2,7.44,7.44,0,0,1-1.92-3.08,2.13,2.13,0,0,1,.28-2.13.5.5,0,1,0-.71-.71,3.07,3.07,0,0,0-.53,3.1,8.3,8.3,0,0,0,2.18,3.52,8.68,8.68,0,0,0,3,2l-7.9,2.88L27.18,49a.49.49,0,0,0-.3-.64.5.5,0,0,0-.64.3l-1.92,5.27a.5.5,0,0,0,.12.52.49.49,0,0,0,.52.12L48.65,45.9a1.56,1.56,0,0,0,.78-.28.45.45,0,0,0,.17-.11h0l0-.06.06-.1a.29.29,0,0,0,0-.09.3.3,0,0,0,0-.1A.52.52,0,0,0,49.73,45.05Z" style="fill:#c52228"/><path d="M40.56,35.2a.35.35,0,0,0,.27-.11l7.63-7.63a.38.38,0,0,0,0-.55.38.38,0,0,0-.54,0l-7.64,7.63a.39.39,0,0,0,0,.55A.38.38,0,0,0,40.56,35.2Z" style="fill:#c52228"/><path d="M36.88,17.7a.38.38,0,0,0-.17.52c2.74,5.53,0,15.43,0,15.53a.39.39,0,0,0,.27.48l.11,0a.38.38,0,0,0,.37-.29c.12-.41,2.85-10.28,0-16.09A.38.38,0,0,0,36.88,17.7Z" style="fill:#c52228"/><path d="M44.39,40a.39.39,0,0,0,.12.75.3.3,0,0,0,.13,0S49.79,39,53.41,40a.4.4,0,0,0,.48-.27.39.39,0,0,0-.27-.48C49.77,38.22,44.61,39.88,44.39,40Z" style="fill:#c52228"/><path d="M41.14,38.45a.39.39,0,0,0,.34.19.34.34,0,0,0,.19,0l11.86-6.86a.39.39,0,1,0-.38-.67L41.28,37.92A.39.39,0,0,0,41.14,38.45Z" style="fill:#c52228"/><path d="M54.31,44.23a3.78,3.78,0,0,0-1.07.13s0,0,0,0a4.17,4.17,0,0,0-5.12-1.2c-.45.22,0,.89.39.67a3.43,3.43,0,0,1,3.55.4,2.93,2.93,0,0,1,.46.47A3.32,3.32,0,0,0,50.7,47a2.58,2.58,0,0,0,.52,2.26,1.5,1.5,0,0,0,2.1-.28,3.76,3.76,0,0,0,.31-3.91,3.1,3.1,0,0,1,.54-.05,3.52,3.52,0,0,1,3.21,2.41c.17.46.92.26.75-.21A4.38,4.38,0,0,0,54.31,44.23Zm-1.13,3.2c-.11.55-.45,1.45-1.16,1.35s-.65-1.17-.56-1.65A2.6,2.6,0,0,1,52.9,45.3,3.41,3.41,0,0,1,53.18,47.43Z" style="fill:#c52228"/><path d="M36.13,17.06A1.1,1.1,0,1,0,35,16,1.09,1.09,0,0,0,36.13,17.06Z" style="fill:#c52228"/><path d="M56.28,31.54a1.71,1.71,0,1,0-1.71-1.71A1.71,1.71,0,0,0,56.28,31.54Zm0-2.64a.94.94,0,1,1-.94.93A.93.93,0,0,1,56.28,28.9Z" style="fill:#c52228"/><path d="M42.06,16.94a3.25,3.25,0,0,1,3.25,3.25.5.5,0,0,0,.5.5.5.5,0,0,0,.5-.5,3.26,3.26,0,0,1,3.25-3.25.5.5,0,0,0,0-1,3.26,3.26,0,0,1-3.25-3.25.5.5,0,0,0-.5-.5.5.5,0,0,0-.5.5,3.25,3.25,0,0,1-3.25,3.25.5.5,0,0,0,0,1Zm3.75-2.25a4.3,4.3,0,0,0,1.76,1.75,4.3,4.3,0,0,0-1.76,1.75,4.22,4.22,0,0,0-1.75-1.75A4.22,4.22,0,0,0,45.81,14.69Z" style="fill:#c52228"/><path d="M59.21,38.14a2.58,2.58,0,0,1-1.67-1.67.12.12,0,0,0-.23,0,2.54,2.54,0,0,1-1.67,1.67.12.12,0,0,0,0,.23A2.52,2.52,0,0,1,57.31,40a.12.12,0,0,0,.23,0,2.56,2.56,0,0,1,1.67-1.67A.12.12,0,0,0,59.21,38.14Z" style="fill:#c52228"/><path d="M43,27.74a.12.12,0,0,0,.23,0,2.54,2.54,0,0,1,1.67-1.67.12.12,0,0,0,0-.23,2.58,2.58,0,0,1-1.67-1.67.12.12,0,0,0-.23,0,2.54,2.54,0,0,1-1.67,1.67.12.12,0,0,0,0,.23A2.5,2.5,0,0,1,43,27.74Z" style="fill:#c52228"/><path d="M21.08,43.37a.12.12,0,0,0-.23,0A2.58,2.58,0,0,1,19.18,45a.12.12,0,0,0,0,.23,2.54,2.54,0,0,1,1.67,1.67.12.12,0,0,0,.23,0,2.52,2.52,0,0,1,1.67-1.67.12.12,0,0,0,0-.23A2.56,2.56,0,0,1,21.08,43.37Z" style="fill:#c52228"/><path d="M55.28,42.69a.06.06,0,0,0,.12,0,1.29,1.29,0,0,1,.83-.84.06.06,0,0,0,0-.11,1.29,1.29,0,0,1-.83-.84.06.06,0,0,0-.12,0,1.27,1.27,0,0,1-.83.84.06.06,0,0,0,0,.11A1.27,1.27,0,0,1,55.28,42.69Z" style="fill:#c52228"/><path d="M17.86,48.61a.06.06,0,0,0-.11,0,1.3,1.3,0,0,1-.84.84.06.06,0,0,0,0,.11,1.3,1.3,0,0,1,.84.84.06.06,0,0,0,.11,0,1.28,1.28,0,0,1,.84-.84.06.06,0,0,0,0-.11A1.28,1.28,0,0,1,17.86,48.61Z" style="fill:#c52228"/><path d="M50,25.18a.51.51,0,0,0,.36.15.5.5,0,0,0,.35-.15l1.41-1.41a.5.5,0,0,0,0-.71.5.5,0,0,0-.7,0L50,24.47A.51.51,0,0,0,50,25.18Z" style="fill:#c52228"/><path d="M47.89,22.18a.51.51,0,0,0-.41.58l.35,2a.49.49,0,0,0,.49.41h.09a.49.49,0,0,0,.4-.58l-.34-2A.5.5,0,0,0,47.89,22.18Z" style="fill:#c52228"/><path d="M50.07,26.8a.51.51,0,0,0,.41.58l2,.34h.08a.5.5,0,0,0,.09-1l-2-.35A.51.51,0,0,0,50.07,26.8Z" style="fill:#c52228"/></svg>