<svg xmlns="http://www.w3.org/2000/svg" viewBox="0 0 64 64"><defs><style>.cls-1{fill:#c52228;}</style></defs><title>unlock-cpu</title><g id="unlocked_cpu" data-name="unlocked cpu"><path class="cls-1" d="M29.8,51H14.47a.5.5,0,0,1-.5-.5V27.07a.5.5,0,0,1,.5-.5H36.7a.49.49,0,0,1,.41.22.5.5,0,0,1,0,.46,8.8,8.8,0,0,0-.59,3.21v4.35a.5.5,0,0,1-.5.5H30.3V50.5A.5.5,0,0,1,29.8,51ZM15,50H29.3V34.81a.5.5,0,0,1,.5-.5h5.77V30.46A9.9,9.9,0,0,1,36,27.57H15Z"/><path class="cls-1" d="M29.8,47.1H18.36a.5.5,0,0,1-.5-.5V31a.5.5,0,0,1,.5-.5H34a.5.5,0,0,1,.5.5v3.84a.5.5,0,0,1-.5.5H30.3V46.6A.5.5,0,0,1,29.8,47.1Zm-10.94-1H29.3V34.81a.5.5,0,0,1,.5-.5h3.69V31.47H18.86Z"/><path class="cls-1" d="M18.28,27.58a.5.5,0,0,1-.5-.5V18.76a.5.5,0,0,1,1,0v8.32A.5.5,0,0,1,18.28,27.58Z"/><path class="cls-1" d="M18.28,19.29a2.1,2.1,0,1,1,2.09-2.09A2.09,2.09,0,0,1,18.28,19.29Zm0-3.19a1.1,1.1,0,1,0,1.09,1.1A1.09,1.09,0,0,0,18.28,16.1Z"/><path class="cls-1" d="M23.54,27.58a.5.5,0,0,1-.5-.5V18.76a.5.5,0,1,1,1,0v8.32A.5.5,0,0,1,23.54,27.58Z"/><path class="cls-1" d="M23.54,19.29a2.1,2.1,0,1,1,2.09-2.09A2.09,2.09,0,0,1,23.54,19.29Zm0-3.19a1.1,1.1,0,1,0,1.09,1.1A1.09,1.09,0,0,0,23.54,16.1Z"/><path class="cls-1" d="M28.8,27.58a.5.5,0,0,1-.5-.5V18.76a.5.5,0,0,1,1,0v8.32A.5.5,0,0,1,28.8,27.58Z"/><path class="cls-1" d="M28.8,19.29a2.1,2.1,0,1,1,2.09-2.09A2.09,2.09,0,0,1,28.8,19.29Zm0-3.19a1.1,1.1,0,1,0,1.09,1.1A1.09,1.09,0,0,0,28.8,16.1Z"/><path class="cls-1" d="M34.06,27.58a.5.5,0,0,1-.5-.5V18.76a.5.5,0,0,1,1,0v8.32A.5.5,0,0,1,34.06,27.58Z"/><path class="cls-1" d="M34.06,19.29a2.1,2.1,0,1,1,2.09-2.09A2.1,2.1,0,0,1,34.06,19.29Zm0-3.19a1.1,1.1,0,1,0,1.09,1.1A1.1,1.1,0,0,0,34.06,16.1Z"/><path class="cls-1" d="M14.25,46.44H5.93a.51.51,0,0,1-.5-.5.5.5,0,0,1,.5-.5h8.32a.5.5,0,0,1,.5.5A.5.5,0,0,1,14.25,46.44Z"/><path class="cls-1" d="M4.37,48a2.1,2.1,0,1,1,2.09-2.09A2.1,2.1,0,0,1,4.37,48Zm0-3.19a1.1,1.1,0,1,0,1.09,1.1A1.1,1.1,0,0,0,4.37,44.84Z"/><path class="cls-1" d="M14.25,41.18H5.93a.51.51,0,0,1-.5-.5.5.5,0,0,1,.5-.5h8.32a.5.5,0,0,1,.5.5A.5.5,0,0,1,14.25,41.18Z"/><path class="cls-1" d="M4.37,42.77a2.1,2.1,0,1,1,2.09-2.09A2.1,2.1,0,0,1,4.37,42.77Zm0-3.19a1.1,1.1,0,1,0,1.09,1.1A1.1,1.1,0,0,0,4.37,39.58Z"/><path class="cls-1" d="M14.25,35.92H5.93a.51.51,0,0,1-.5-.5.5.5,0,0,1,.5-.5h8.32a.5.5,0,0,1,.5.5A.5.5,0,0,1,14.25,35.92Z"/><path class="cls-1" d="M4.37,37.51a2.1,2.1,0,1,1,2.09-2.09A2.1,2.1,0,0,1,4.37,37.51Zm0-3.19a1.1,1.1,0,1,0,1.09,1.1A1.1,1.1,0,0,0,4.37,34.32Z"/><path class="cls-1" d="M14.25,30.66H5.93a.51.51,0,0,1-.5-.5.5.5,0,0,1,.5-.5h8.32a.5.5,0,0,1,.5.5A.5.5,0,0,1,14.25,30.66Z"/><path class="cls-1" d="M4.37,32.25a2.1,2.1,0,1,1,2.09-2.09A2.1,2.1,0,0,1,4.37,32.25Zm0-3.19a1.1,1.1,0,1,0,1.09,1.1A1.1,1.1,0,0,0,4.37,29.06Z"/><path class="cls-1" d="M36.07,35.31a.51.51,0,0,1-.5-.5V30.46a9.71,9.71,0,0,1,.66-3.57,9.93,9.93,0,0,1,19.2,3.57.5.5,0,0,1-1,0,8.93,8.93,0,0,0-17.27-3.21,8.8,8.8,0,0,0-.59,3.21v4.35A.5.5,0,0,1,36.07,35.31Z"/><path class="cls-1" d="M61.18,57H29.8a.51.51,0,0,1-.5-.5V34.81a.5.5,0,0,1,.5-.5H61.18a.5.5,0,0,1,.5.5V56.46A.5.5,0,0,1,61.18,57ZM30.3,56H60.68V35.31H30.3Z"/><path class="cls-1" d="M47.2,51.75H43.8a.5.5,0,0,1-.5-.5V45.93a2.93,2.93,0,0,1-.7-1.9A2.87,2.87,0,0,1,43.45,42a3,3,0,0,1,4.11,0,2.9,2.9,0,0,1,.14,4V47a.5.5,0,0,1-.5.5.51.51,0,0,1-.5-.5V45.73a.51.51,0,0,1,.15-.35,1.92,1.92,0,0,0,0-2.7,2,2,0,0,0-2.7,0,1.92,1.92,0,0,0,0,2.7.47.47,0,0,1,.15.35v5h2.4V49.24a.5.5,0,0,1,.5-.5.5.5,0,0,1,.5.5v2A.5.5,0,0,1,47.2,51.75Z"/><path class="cls-1" d="M17.32,59a.5.5,0,0,1-.5-.5V50.16a.5.5,0,0,1,.5-.5.5.5,0,0,1,.5.5v8.31A.5.5,0,0,1,17.32,59Z"/><path class="cls-1" d="M17.32,62.13A2.1,2.1,0,1,1,19.42,60,2.1,2.1,0,0,1,17.32,62.13Zm0-3.19a1.1,1.1,0,1,0,1.1,1.1A1.09,1.09,0,0,0,17.32,58.94Z"/><path class="cls-1" d="M22.34,59a.5.5,0,0,1-.5-.5V50.16a.5.5,0,0,1,.5-.5.5.5,0,0,1,.5.5v8.31A.5.5,0,0,1,22.34,59Z"/><path class="cls-1" d="M22.34,62.13A2.1,2.1,0,1,1,24.44,60,2.1,2.1,0,0,1,22.34,62.13Zm0-3.19a1.1,1.1,0,1,0,1.1,1.1A1.09,1.09,0,0,0,22.34,58.94Z"/><path class="cls-1" d="M27.19,59a.5.5,0,0,1-.5-.5V50.16a.5.5,0,0,1,.5-.5.5.5,0,0,1,.5.5v8.31A.5.5,0,0,1,27.19,59Z"/><path class="cls-1" d="M27.19,62.13A2.1,2.1,0,1,1,29.28,60,2.1,2.1,0,0,1,27.19,62.13Zm0-3.19A1.1,1.1,0,1,0,28.28,60,1.1,1.1,0,0,0,27.19,58.94Z"/><path class="cls-1" d="M20.75,43.52a.5.5,0,0,1-.5-.5V33.13a.5.5,0,0,1,1,0V43A.5.5,0,0,1,20.75,43.52Z"/><path class="cls-1" d="M27.77,33.63h-7a.5.5,0,0,1,0-1h7a.5.5,0,1,1,0,1Z"/><path class="cls-1" d="M58.56,54.54a.5.5,0,0,1-.5-.5V44.15a.5.5,0,0,1,.5-.5.51.51,0,0,1,.5.5V54A.51.51,0,0,1,58.56,54.54Z"/><path class="cls-1" d="M58.56,54.54h-7A.5.5,0,0,1,51,54a.5.5,0,0,1,.5-.5h7a.5.5,0,0,1,.5.5A.51.51,0,0,1,58.56,54.54Z"/></g></svg>