<svg id="Layer_1" data-name="Layer 1" xmlns="http://www.w3.org/2000/svg" viewBox="0 0 64 64"><path d="M45.09,29.51a.48.48,0,0,0-.51.49l0,1.56L30.22,56.62l-4.13-2.36a.51.51,0,0,0-.69.18.52.52,0,0,0,.19.69l4.57,2.6a.45.45,0,0,0,.25.07.5.5,0,0,0,.43-.25L45.48,31.93a.45.45,0,0,0,.06-.32l0-1.59A.51.51,0,0,0,45.09,29.51Z" style="fill:#c52228"/><path d="M37.35,32.57l-.71.71a.51.51,0,0,0,0,.71.52.52,0,0,0,.71,0l.71-.71a.5.5,0,0,0-.71-.71Z" style="fill:#c52228"/><path d="M29.46,40.46,28,41.89a.5.5,0,0,0,0,.71.49.49,0,0,0,.35.15.51.51,0,0,0,.36-.15l1.43-1.43a.5.5,0,1,0-.71-.71Z" style="fill:#c52228"/><path d="M25.16,44.77,23.72,46.2a.51.51,0,0,0,0,.71.5.5,0,0,0,.35.15.51.51,0,0,0,.36-.15l1.43-1.44a.49.49,0,0,0-.7-.7Z" style="fill:#c52228"/><path d="M33.77,36.15l-1.43,1.44a.48.48,0,0,0,0,.7.47.47,0,0,0,.35.15.49.49,0,0,0,.35-.15l1.44-1.43a.5.5,0,1,0-.71-.71Z" style="fill:#c52228"/><path d="M20.85,49.07l-.35.36-.36-.36a.5.5,0,1,0-.71.71l.71.71a.5.5,0,0,0,.36.14.49.49,0,0,0,.35-.14l.71-.71a.5.5,0,1,0-.71-.71Z" style="fill:#c52228"/><path d="M16.11,45a.5.5,0,1,0-.71.71l1.35,1.34a.49.49,0,0,0,.35.15.51.51,0,0,0,.36-.15.5.5,0,0,0,0-.7Z" style="fill:#c52228"/><path d="M13.43,40.94a.51.51,0,0,0-.71,0l-.71.71a.51.51,0,0,0,0,.71l.71.7a.49.49,0,0,0,.35.15.51.51,0,0,0,.36-.15.5.5,0,0,0,0-.7L13.07,42l.36-.35A.51.51,0,0,0,13.43,40.94Z" style="fill:#c52228"/><path d="M21.08,32.58,19.69,34a.5.5,0,0,0,0,.71.48.48,0,0,0,.7,0l1.4-1.39a.5.5,0,0,0-.71-.71Z" style="fill:#c52228"/><path d="M25.26,28.4l-1.39,1.39a.5.5,0,0,0,0,.71.49.49,0,0,0,.35.15.47.47,0,0,0,.35-.15L26,29.11a.51.51,0,0,0,0-.71A.5.5,0,0,0,25.26,28.4Z" style="fill:#c52228"/><path d="M16.9,36.76l-1.39,1.4a.48.48,0,0,0,0,.7.48.48,0,0,0,.7,0l1.4-1.39a.5.5,0,1,0-.71-.71Z" style="fill:#c52228"/><path d="M28.4,26.47a.51.51,0,0,0,.36-.15l.7-.71a.49.49,0,0,0-.7-.7l-.71.7a.5.5,0,0,0,0,.71A.49.49,0,0,0,28.4,26.47Z" style="fill:#c52228"/><path d="M54.54,8.05a6.33,6.33,0,0,0-10.47,2.44l-2,5.84a5.38,5.38,0,0,0-5,1.43l-.6.6-7.66,2.31a.45.45,0,0,0-.21.12L7.77,41.65a.5.5,0,0,0,0,.71L20.14,54.73a.48.48,0,0,0,.7,0L41.7,33.87a.46.46,0,0,0,.13-.21L44.13,26l.61-.61a5.41,5.41,0,0,0,1.44-5L52,18.48a6.29,6.29,0,0,0,2.5-10.43ZM40.7,22.13l.16,0a.49.49,0,0,0,.47-.34l.45-1.33a1.49,1.49,0,1,1-1-.33l-.45,1.34A.52.52,0,0,0,40.7,22.13Zm.21,11.12L20.49,53.67,8.83,42,29.25,21.59,35,19.86l-3.65,3.65a.5.5,0,0,0,0,.71l6.93,6.93a.5.5,0,0,0,.35.15.51.51,0,0,0,.36-.15l3.64-3.65ZM44,24.69l-5.4,5.4-6.22-6.23,5.4-5.39a4.38,4.38,0,0,1,4-1.2l-.64,1.91a3,3,0,0,0-.31,0,2.52,2.52,0,1,0,1.26.35l.64-1.91a4.19,4.19,0,0,1,1.28.88A4.39,4.39,0,0,1,44,24.69Zm7.7-7.16-5.85,1.93a5.3,5.3,0,0,0-1.14-1.7,5.42,5.42,0,0,0-1.67-1.13l2-5.82a5.32,5.32,0,1,1,6.71,6.72Z" style="fill:#c52228"/></svg>